<svg width="34" height="41" viewBox="0 0 34 41" fill="none" xmlns="http://www.w3.org/2000/svg">
<path d="M33.2874 31.6721C32.677 33.0696 31.9544 34.356 31.1173 35.5387C29.9761 37.151 29.0418 38.267 28.3217 38.8868C27.2055 39.904 26.0095 40.425 24.7289 40.4546C23.8095 40.4546 22.7007 40.1953 21.4101 39.6694C20.1152 39.146 18.9253 38.8867 17.8372 38.8867C16.696 38.8867 15.4721 39.146 14.1631 39.6694C12.852 40.1954 11.7959 40.4694 10.9883 40.4966C9.76024 40.5484 8.53614 40.0126 7.31428 38.8867C6.53439 38.2127 5.55897 37.0571 4.39039 35.4202C3.13664 33.6721 2.10589 31.645 1.29836 29.3339C0.433534 26.8378 0 24.4205 0 22.0804C0 19.3997 0.584528 17.0877 1.75532 15.1502C2.67546 13.594 3.89956 12.3663 5.43164 11.4651C6.96368 10.5639 8.6191 10.1047 10.4018 10.0753C11.3773 10.0753 12.6564 10.3743 14.2461 10.9619C15.8312 11.5516 16.849 11.8506 17.2953 11.8506C17.6289 11.8506 18.7596 11.5009 20.6763 10.8039C22.489 10.1575 24.0188 9.88984 25.272 9.9953C28.6681 10.2669 31.2194 11.5935 32.9162 13.9836C29.879 15.8072 28.3765 18.3615 28.4064 21.6381C28.4338 24.1904 29.3682 26.3143 31.2045 28.0007C32.0366 28.7834 32.966 29.3883 34 29.8179C33.7758 30.4623 33.5391 31.0796 33.2874 31.6721ZM25.4988 1.30024C25.4988 3.30068 24.7612 5.16851 23.2912 6.89735C21.5172 8.95261 19.3715 10.1402 17.0446 9.95281C17.0134 9.70132 16.9978 9.44818 16.9978 9.19479C16.9978 7.27437 17.8414 5.21911 19.3396 3.53869C20.0876 2.68784 21.0389 1.98039 22.1924 1.41604C23.3436 0.860108 24.4324 0.552662 25.4564 0.5C25.4863 0.76742 25.4988 1.03491 25.4988 1.30024Z" fill="white"/>
</svg>
