<svg width="42" height="41" viewBox="0 0 42 41" fill="none" xmlns="http://www.w3.org/2000/svg">
<g clip-path="url(#clip0_35_468)">
<path d="M20.9994 30.383C26.5461 30.383 31.0421 25.8865 31.0421 20.3403C31.0421 14.7942 26.5455 10.2976 20.9994 10.2976C15.4532 10.2976 10.9567 14.7936 10.9567 20.3403C10.9567 25.8871 15.4526 30.383 20.9994 30.383Z" fill="white"/>
<path d="M12.3027 25.3636L3.60542 10.3021C1.84218 13.3551 0.91382 16.8185 0.913696 20.3441C0.913573 23.8697 1.84169 27.3332 3.60471 30.3863C5.36774 33.4394 7.90354 35.9745 10.9571 37.7367C14.0107 39.499 17.4744 40.4262 21 40.4251L29.696 25.3642V25.361C28.8154 26.8885 27.548 28.1572 26.0213 29.0393C24.4947 29.9215 22.7627 30.3861 20.9995 30.3863C19.2363 30.3866 17.5041 29.9225 15.9772 29.0408C14.4503 28.1591 13.1826 26.8908 12.3014 25.3636H12.3027Z" fill="url(#paint0_linear_35_468)"/>
<path d="M29.696 25.3629L21 40.4244C24.5256 40.4251 27.9892 39.4975 31.0425 37.7349C34.0959 35.9723 36.6313 33.4369 38.3939 30.3835C40.1565 27.3302 41.0841 23.8666 41.0834 20.341C41.0828 16.8155 40.1539 13.3522 38.3901 10.2995H20.9987L20.9968 10.3008C22.7599 10.3 24.4921 10.7635 26.0192 11.6445C27.5463 12.5256 28.8145 13.7933 29.6963 15.32C30.578 16.8468 31.0422 18.5788 31.0422 20.3418C31.0421 22.1049 30.5779 23.8362 29.696 25.3629Z" fill="url(#paint1_linear_35_468)"/>
<path d="M20.9994 28.2929C25.3901 28.2929 28.95 24.733 28.95 20.3423C28.95 15.9515 25.3901 12.3916 20.9994 12.3916C16.6087 12.3916 13.0488 15.9515 13.0488 20.3423C13.0488 24.733 16.608 28.2929 20.9994 28.2929Z" fill="#1A73E8"/>
<path d="M21 10.2995H38.3914C36.629 7.24601 34.0937 4.7103 31.0405 2.94738C27.9872 1.18447 24.5237 0.256486 20.998 0.256744C17.4724 0.257003 14.0089 1.18549 10.956 2.94886C7.90296 4.71222 5.36805 7.2483 3.60608 10.3021L12.3027 25.3636L12.3053 25.3649C11.4231 23.8385 10.9583 22.1067 10.9577 20.3437C10.9571 18.5807 11.4207 16.8486 12.3019 15.3216C13.1831 13.7946 14.4509 12.5266 15.9776 11.645C17.5044 10.7634 19.237 10.2994 21 10.2995Z" fill="url(#paint2_linear_35_468)"/>
</g>
<defs>
<linearGradient id="paint0_linear_35_468" x1="23.1737" y1="39.1709" x2="5.78102" y2="9.0466" gradientUnits="userSpaceOnUse">
<stop stop-color="#1E8E3E"/>
<stop offset="1" stop-color="#34A853"/>
</linearGradient>
<linearGradient id="paint1_linear_35_468" x1="18.0695" y1="40.478" x2="35.4621" y2="10.3537" gradientUnits="userSpaceOnUse">
<stop stop-color="#FCC934"/>
<stop offset="1" stop-color="#FBBC04"/>
</linearGradient>
<linearGradient id="paint2_linear_35_468" x1="3.60608" y1="12.8105" x2="38.3914" y2="12.8105" gradientUnits="userSpaceOnUse">
<stop stop-color="#D93025"/>
<stop offset="1" stop-color="#EA4335"/>
</linearGradient>
<clipPath id="clip0_35_468">
<rect width="40.1708" height="40.1708" fill="white" transform="translate(0.914612 0.256836)"/>
</clipPath>
</defs>
</svg>
