<svg width="40" height="43" viewBox="0 0 40 43" fill="none" xmlns="http://www.w3.org/2000/svg">
<path d="M38.552 14.7024C37.6819 12.6088 35.917 10.3484 34.5349 9.63381C35.5207 11.543 36.2048 13.5933 36.5628 15.7119L36.5664 15.7455C34.3024 10.1009 30.463 7.82494 27.3273 2.86902C27.1687 2.61844 27.0101 2.36733 26.8556 2.10228C26.7672 1.95089 26.6964 1.81449 26.635 1.68894C26.5049 1.43709 26.4047 1.17093 26.3363 0.895851C26.3364 0.883157 26.3318 0.870874 26.3234 0.861345C26.3151 0.851815 26.3034 0.845706 26.2908 0.844183C26.2785 0.840798 26.2655 0.840798 26.2531 0.844183C26.2505 0.844183 26.2464 0.848834 26.2433 0.849867C26.2402 0.8509 26.2335 0.85555 26.2288 0.857617L26.2366 0.844183C21.2068 3.78921 19.5002 9.24114 19.3432 11.9681C17.3345 12.1062 15.4141 12.8464 13.8323 14.0922C13.6673 13.9524 13.4948 13.8216 13.3157 13.7005C12.8594 12.1035 12.8399 10.4132 13.2594 8.8061C11.4122 9.70093 9.77092 10.9694 8.43932 12.5313H8.43002C7.63641 11.5253 7.69221 8.20831 7.73768 7.51545C7.5029 7.60981 7.27879 7.72879 7.0691 7.87041C6.36852 8.37042 5.71358 8.93148 5.11195 9.54701C4.42638 10.2421 3.80023 10.9934 3.24005 11.793C1.95263 13.6182 1.03949 15.6797 0.553356 17.8597L0.526489 17.992C0.488772 18.1682 0.352887 19.0507 0.329637 19.2424C0.329637 19.2573 0.326537 19.2713 0.324987 19.2863C0.149699 20.1973 0.0410825 21.12 0 22.0469L0 22.1502C0.00439022 27.1641 1.88948 31.994 5.28272 35.6853C8.67596 39.3765 13.3304 41.6606 18.3263 42.0861C23.3221 42.5116 28.2958 41.0475 32.2644 37.9832C36.233 34.919 38.9077 30.4774 39.76 25.5365C39.7936 25.2781 39.8209 25.0224 39.8509 24.7614C40.2633 21.3526 39.8168 17.8947 38.552 14.7024ZM15.4723 30.3772C15.5658 30.4221 15.6536 30.4707 15.7497 30.5136L15.7637 30.5223C15.6665 30.4758 15.5694 30.4274 15.4723 30.3772ZM36.568 15.7502V15.7311L36.5716 15.7522L36.568 15.7502Z" fill="url(#paint0_linear_35_467)"/>
<path d="M38.552 14.7024C37.6819 12.6088 35.917 10.3484 34.5349 9.63381C35.5207 11.543 36.2048 13.5933 36.5628 15.7119V15.7311L36.5664 15.7523C38.1099 20.169 37.8866 25.0114 35.9433 29.2674C33.6483 34.1918 28.093 39.2392 19.3974 38.9937C10.0017 38.7276 1.72723 31.7557 0.180318 22.624C-0.101268 21.1841 0.180318 20.454 0.321887 19.2837C0.128769 20.1928 0.021005 21.1178 0 22.0469L0 22.1502C0.00439022 27.1641 1.88948 31.994 5.28272 35.6853C8.67596 39.3765 13.3304 41.6606 18.3263 42.0861C23.3221 42.5116 28.2958 41.0475 32.2644 37.9832C36.233 34.919 38.9077 30.4774 39.76 25.5365C39.7936 25.2781 39.8209 25.0224 39.8509 24.7614C40.2633 21.3526 39.8168 17.8947 38.552 14.7024Z" fill="url(#paint1_radial_35_467)"/>
<path d="M38.552 14.7024C37.6819 12.6088 35.917 10.3484 34.5349 9.63381C35.5207 11.543 36.2048 13.5933 36.5628 15.7119V15.7311L36.5664 15.7523C38.1099 20.169 37.8866 25.0114 35.9433 29.2674C33.6483 34.1918 28.093 39.2392 19.3974 38.9937C10.0017 38.7276 1.72723 31.7557 0.180318 22.624C-0.101268 21.1841 0.180318 20.454 0.321887 19.2837C0.128769 20.1928 0.021005 21.1178 0 22.0469L0 22.1502C0.00439022 27.1641 1.88948 31.994 5.28272 35.6853C8.67596 39.3765 13.3304 41.6606 18.3263 42.0861C23.3221 42.5116 28.2958 41.0475 32.2644 37.9832C36.233 34.919 38.9077 30.4774 39.76 25.5365C39.7936 25.2781 39.8209 25.0224 39.8509 24.7614C40.2633 21.3526 39.8168 17.8947 38.552 14.7024Z" fill="url(#paint2_radial_35_467)"/>
<path d="M28.821 17.0564C28.8644 17.0868 28.9047 17.1173 28.9455 17.1478C28.4425 16.2559 27.8163 15.4393 27.0855 14.722C20.8617 8.49717 25.4544 1.22502 26.2288 0.855595L26.2366 0.844183C21.2068 3.78921 19.5002 9.24114 19.3432 11.9681C19.5767 11.9521 19.8082 11.9325 20.0469 11.9325C21.8315 11.9358 23.5835 12.4116 25.1247 13.3116C26.6658 14.2116 27.9412 15.5036 28.821 17.0564Z" fill="url(#paint3_radial_35_467)"/>
<path d="M20.0598 18.2995C20.0267 18.7975 18.2669 20.5155 17.6516 20.5155C11.9573 20.5155 11.033 23.9601 11.033 23.9601C11.2851 26.8607 13.3064 29.2498 15.7497 30.5136C15.8613 30.5714 15.9745 30.6236 16.0876 30.6748C16.2836 30.7616 16.4796 30.8419 16.6756 30.9156C17.5141 31.2123 18.3924 31.3818 19.2812 31.4183C29.2617 31.8864 31.1951 19.4832 23.9927 15.884C25.6918 15.6629 27.4125 16.0807 28.821 17.0564C27.9412 15.5036 26.6658 14.2116 25.1247 13.3116C23.5835 12.4116 21.8315 11.9358 20.0469 11.9325C19.8092 11.9325 19.5767 11.9521 19.3432 11.9681C17.3345 12.1062 15.4141 12.8464 13.8323 14.0922C14.1377 14.3505 14.4823 14.6957 15.2082 15.4113C16.5671 16.75 20.052 18.1367 20.0598 18.2995Z" fill="url(#paint4_linear_35_467)"/>
<path d="M20.0598 18.2995C20.0267 18.7975 18.2669 20.5155 17.6516 20.5155C11.9573 20.5155 11.033 23.9601 11.033 23.9601C11.2851 26.8607 13.3064 29.2498 15.7497 30.5136C15.8613 30.5714 15.9745 30.6236 16.0876 30.6748C16.2836 30.7616 16.4796 30.8419 16.6756 30.9156C17.5141 31.2123 18.3924 31.3818 19.2812 31.4183C29.2617 31.8864 31.1951 19.4832 23.9927 15.884C25.6918 15.6629 27.4125 16.0807 28.821 17.0564C27.9412 15.5036 26.6658 14.2116 25.1247 13.3116C23.5835 12.4116 21.8315 11.9358 20.0469 11.9325C19.8092 11.9325 19.5767 11.9521 19.3432 11.9681C17.3345 12.1062 15.4141 12.8464 13.8323 14.0922C14.1377 14.3505 14.4823 14.6957 15.2082 15.4113C16.5671 16.75 20.052 18.1367 20.0598 18.2995Z" fill="url(#paint5_radial_35_467)"/>
<path d="M12.8987 13.4262C13.0609 13.5296 13.1948 13.6195 13.312 13.7006C12.8558 12.1035 12.8363 10.4133 13.2557 8.80614C11.4086 9.70098 9.7673 10.9695 8.4357 12.5313C8.53335 12.5288 11.4381 12.4766 12.8987 13.4262Z" fill="url(#paint6_radial_35_467)"/>
<path d="M0.182901 22.624C1.72827 31.7557 10.0043 38.7276 19.4 38.9937C28.0956 39.2397 33.6508 34.1918 35.9459 29.2674C37.8892 25.0114 38.1124 20.169 36.569 15.7523V15.7332C36.569 15.7182 36.5659 15.7094 36.569 15.714L36.5726 15.7476C37.283 20.3858 34.9239 24.8793 31.2359 27.9178L31.2245 27.9437C24.0387 33.796 17.1618 31.4746 15.7699 30.527C15.6727 30.4805 15.5756 30.4321 15.4785 30.3818C11.2888 28.3792 9.55791 24.5621 9.92888 21.2884C8.93434 21.3031 7.95689 21.029 7.11496 20.4994C6.27302 19.9699 5.60274 19.2075 5.18532 18.3046C6.28511 17.6309 7.53913 17.25 8.82786 17.1982C10.1166 17.1465 11.3971 17.4257 12.5474 18.0091C14.9188 19.0857 17.6174 19.1917 20.066 18.3046C20.0582 18.1419 16.5733 16.7546 15.2144 15.4164C14.4885 14.7009 14.1439 14.3562 13.8385 14.0974C13.6735 13.9576 13.501 13.8269 13.3219 13.7057C13.203 13.6246 13.0692 13.5368 12.9085 13.4314C11.4479 12.4817 8.54317 12.5339 8.44707 12.5365H8.43777C7.64416 11.5306 7.69996 8.21352 7.74543 7.52066C7.51065 7.61502 7.28654 7.734 7.07685 7.87562C6.37627 8.37563 5.72133 8.93669 5.1197 9.55222C4.43168 10.2454 3.80293 10.9949 3.24005 11.793C1.95263 13.6182 1.03949 15.6797 0.553356 17.8597C0.543539 17.9006 -0.167919 21.011 0.182901 22.624Z" fill="url(#paint7_radial_35_467)"/>
<path d="M27.0865 14.722C27.8176 15.4401 28.4437 16.2576 28.9465 17.1504C29.0566 17.2336 29.1594 17.3162 29.2467 17.3963C33.7867 21.5814 31.408 27.4973 31.2307 27.9184C34.9188 24.8798 37.2758 20.3863 36.5675 15.7481C34.3024 10.1009 30.463 7.82494 27.3273 2.86902C27.1687 2.61844 27.0101 2.36733 26.8556 2.10228C26.7672 1.95089 26.6964 1.81449 26.635 1.68894C26.5049 1.43709 26.4047 1.17093 26.3363 0.895851C26.3364 0.883157 26.3318 0.870874 26.3234 0.861345C26.3151 0.851815 26.3034 0.845706 26.2908 0.844183C26.2785 0.840798 26.2655 0.840798 26.2531 0.844183C26.2505 0.844183 26.2464 0.848834 26.2433 0.849867C26.2402 0.8509 26.2335 0.85555 26.2288 0.857617C25.4544 1.22497 20.8617 8.49717 27.0865 14.722Z" fill="url(#paint8_radial_35_467)"/>
<path d="M29.2436 17.3937C29.1563 17.3137 29.0535 17.231 28.9434 17.1478C28.9026 17.1173 28.8623 17.0868 28.8189 17.0564C27.4104 16.0807 25.6897 15.663 23.9906 15.884C31.193 19.4852 29.2607 31.8864 19.2791 31.4183C18.3903 31.3818 17.5121 31.2123 16.6735 30.9156C16.4775 30.8422 16.2815 30.7619 16.0855 30.6748C15.9724 30.6231 15.8592 30.5715 15.7476 30.5136L15.7616 30.5224C17.1535 31.4725 24.0283 33.7939 31.2163 27.939L31.2276 27.9132C31.4069 27.4947 33.7857 21.5772 29.2436 17.3937Z" fill="url(#paint9_radial_35_467)"/>
<path d="M11.033 23.9601C11.033 23.9601 11.9573 20.5155 17.6516 20.5155C18.2669 20.5155 20.0283 18.7975 20.0598 18.2995C17.6111 19.1866 14.9126 19.0805 12.5412 18.0039C11.3909 17.4205 10.1104 17.1413 8.82166 17.1931C7.53293 17.2448 6.27891 17.6257 5.17912 18.2995C5.59654 19.2023 6.26682 19.9647 7.10876 20.4943C7.95069 21.0239 8.92814 21.2979 9.92268 21.2833C9.55171 24.5574 11.2826 28.3746 15.4723 30.3767C15.5658 30.4216 15.6536 30.4702 15.7497 30.5131C13.3043 29.2498 11.2851 26.8607 11.033 23.9601Z" fill="url(#paint10_radial_35_467)"/>
<path d="M38.552 14.7024C37.6819 12.6088 35.917 10.3484 34.5349 9.63381C35.5207 11.543 36.2048 13.5933 36.5628 15.7119L36.5664 15.7455C34.3024 10.1009 30.463 7.82494 27.3273 2.86902C27.1687 2.61844 27.0101 2.36733 26.8556 2.10228C26.7672 1.95089 26.6964 1.81449 26.635 1.68894C26.5049 1.43709 26.4047 1.17093 26.3363 0.895851C26.3364 0.883157 26.3318 0.870874 26.3234 0.861345C26.3151 0.851815 26.3034 0.845706 26.2908 0.844183C26.2785 0.840798 26.2655 0.840798 26.2531 0.844183C26.2505 0.844183 26.2464 0.848834 26.2433 0.849867C26.2402 0.8509 26.2335 0.85555 26.2288 0.857617L26.2366 0.844183C21.2068 3.78921 19.5002 9.24114 19.3432 11.9681C19.5767 11.9521 19.8082 11.9325 20.0469 11.9325C21.8315 11.9358 23.5835 12.4116 25.1247 13.3116C26.6658 14.2116 27.9412 15.5036 28.821 17.0564C27.4125 16.0807 25.6918 15.6629 23.9927 15.884C31.1951 19.4852 29.2627 31.8864 19.2812 31.4183C18.3924 31.3818 17.5141 31.2123 16.6756 30.9156C16.4796 30.8422 16.2836 30.7619 16.0876 30.6748C15.9745 30.6231 15.8613 30.5714 15.7497 30.5136L15.7637 30.5223C15.6665 30.4758 15.5694 30.4274 15.4723 30.3772C15.5658 30.4221 15.6536 30.4707 15.7497 30.5136C13.3043 29.2498 11.2851 26.8607 11.033 23.9601C11.033 23.9601 11.9573 20.5155 17.6516 20.5155C18.2669 20.5155 20.0283 18.7975 20.0598 18.2995C20.052 18.1367 16.5671 16.7495 15.2082 15.4113C14.4823 14.6957 14.1377 14.351 13.8323 14.0922C13.6673 13.9524 13.4948 13.8216 13.3157 13.7005C12.8594 12.1035 12.8399 10.4132 13.2594 8.8061C11.4122 9.70093 9.77092 10.9694 8.43932 12.5313H8.43002C7.63641 11.5253 7.69221 8.20831 7.73768 7.51545C7.5029 7.60981 7.27879 7.72879 7.0691 7.87041C6.36852 8.37042 5.71358 8.93148 5.11195 9.54701C4.42638 10.2421 3.80023 10.9934 3.24005 11.793C1.95263 13.6182 1.03949 15.6797 0.553356 17.8597L0.526489 17.992C0.488772 18.1682 0.31982 19.0631 0.295536 19.2553C0.295536 19.2403 0.295536 19.2697 0.295536 19.2553C0.141005 20.179 0.0423139 21.1112 0 22.0469L0 22.1502C0.00439022 27.1641 1.88948 31.994 5.28272 35.6853C8.67596 39.3765 13.3304 41.6606 18.3263 42.0861C23.3221 42.5116 28.2958 41.0475 32.2644 37.9832C36.233 34.919 38.9077 30.4774 39.76 25.5365C39.7936 25.2781 39.8209 25.0224 39.8509 24.7614C40.2633 21.3526 39.8168 17.8947 38.552 14.7024Z" fill="url(#paint11_linear_35_467)"/>
<defs>
<linearGradient id="paint0_linear_35_467" x1="35.9015" y1="7.24265" x2="2.6593" y2="39.3151" gradientUnits="userSpaceOnUse">
<stop offset="0.048" stop-color="#FFF44F"/>
<stop offset="0.111" stop-color="#FFE847"/>
<stop offset="0.225" stop-color="#FFC830"/>
<stop offset="0.368" stop-color="#FF980E"/>
<stop offset="0.401" stop-color="#FF8B16"/>
<stop offset="0.462" stop-color="#FF672A"/>
<stop offset="0.534" stop-color="#FF3647"/>
<stop offset="0.705" stop-color="#E31587"/>
</linearGradient>
<radialGradient id="paint1_radial_35_467" cx="0" cy="0" r="1" gradientUnits="userSpaceOnUse" gradientTransform="translate(34.3654 -4.50241) scale(41.7455 53.0304)">
<stop offset="0.129" stop-color="#FFBD4F"/>
<stop offset="0.186" stop-color="#FFAC31"/>
<stop offset="0.247" stop-color="#FF9D17"/>
<stop offset="0.283" stop-color="#FF980E"/>
<stop offset="0.403" stop-color="#FF563B"/>
<stop offset="0.467" stop-color="#FF3750"/>
<stop offset="0.71" stop-color="#F5156C"/>
<stop offset="0.782" stop-color="#EB0878"/>
<stop offset="0.86" stop-color="#E50080"/>
</radialGradient>
<radialGradient id="paint2_radial_35_467" cx="0" cy="0" r="1" gradientUnits="userSpaceOnUse" gradientTransform="translate(19.1112 17.178) scale(41.7455 53.0304)">
<stop offset="0.3" stop-color="#960E18"/>
<stop offset="0.351" stop-color="#B11927" stop-opacity="0.74"/>
<stop offset="0.435" stop-color="#DB293D" stop-opacity="0.343"/>
<stop offset="0.497" stop-color="#F5334B" stop-opacity="0.094"/>
<stop offset="0.53" stop-color="#FF3750" stop-opacity="0"/>
</radialGradient>
<radialGradient id="paint3_radial_35_467" cx="0" cy="0" r="1" gradientUnits="userSpaceOnUse" gradientTransform="translate(19.9985 -11.5529) scale(125.981 76.6419)">
<stop offset="0.132" stop-color="#FFF44F"/>
<stop offset="0.252" stop-color="#FFDC3E"/>
<stop offset="0.506" stop-color="#FF9D12"/>
<stop offset="0.526" stop-color="#FF980E"/>
</radialGradient>
<linearGradient id="paint4_linear_35_467" x1="-36.9152" y1="46.3258" x2="52.4795" y2="46.3258" gradientUnits="userSpaceOnUse">
<stop offset="0.353" stop-color="#00FF85"/>
<stop offset="0.472" stop-color="#5C79F0"/>
<stop offset="0.669" stop-color="#9059FF"/>
<stop offset="1" stop-color="#C139E6"/>
</linearGradient>
<radialGradient id="paint5_radial_35_467" cx="0" cy="0" r="1" gradientUnits="userSpaceOnUse" gradientTransform="translate(23.2952 15.9712) rotate(-12.834) scale(23.6248 26.2251)">
<stop offset="0.206" stop-color="#9059FF" stop-opacity="0"/>
<stop offset="0.278" stop-color="#8C4FF3" stop-opacity="0.064"/>
<stop offset="0.747" stop-color="#7716A8" stop-opacity="0.45"/>
<stop offset="0.975" stop-color="#6E008B" stop-opacity="0.6"/>
</radialGradient>
<radialGradient id="paint6_radial_35_467" cx="0" cy="0" r="1" gradientUnits="userSpaceOnUse" gradientTransform="translate(83.2465 -42.1015) scale(117.296 120.71)">
<stop stop-color="#FFE226"/>
<stop offset="0.121" stop-color="#FFDB27"/>
<stop offset="0.295" stop-color="#FFC82A"/>
<stop offset="0.502" stop-color="#FFA930"/>
<stop offset="0.732" stop-color="#FF7E37"/>
<stop offset="0.792" stop-color="#FF7139"/>
</radialGradient>
<radialGradient id="paint7_radial_35_467" cx="0" cy="0" r="1" gradientUnits="userSpaceOnUse" gradientTransform="translate(31.7219 -16.0511) scale(65.0791 80.0687)">
<stop offset="0.113" stop-color="#FFF44F"/>
<stop offset="0.456" stop-color="#FF980E"/>
<stop offset="0.622" stop-color="#FF5634"/>
<stop offset="0.716" stop-color="#FF3647"/>
<stop offset="0.904" stop-color="#E31587"/>
</radialGradient>
<radialGradient id="paint8_radial_35_467" cx="0" cy="0" r="1" gradientUnits="userSpaceOnUse" gradientTransform="translate(2.52876 -3.4312) rotate(77.8251) scale(69.416 89.9887)">
<stop stop-color="#FFF44F"/>
<stop offset="0.06" stop-color="#FFE847"/>
<stop offset="0.168" stop-color="#FFC830"/>
<stop offset="0.304" stop-color="#FF980E"/>
<stop offset="0.356" stop-color="#FF8B16"/>
<stop offset="0.455" stop-color="#FF672A"/>
<stop offset="0.57" stop-color="#FF3647"/>
<stop offset="0.737" stop-color="#E31587"/>
</radialGradient>
<radialGradient id="paint9_radial_35_467" cx="0" cy="0" r="1" gradientUnits="userSpaceOnUse" gradientTransform="translate(6.1489 -16.7928) scale(93.6913 98.6202)">
<stop offset="0.137" stop-color="#FFF44F"/>
<stop offset="0.48" stop-color="#FF980E"/>
<stop offset="0.592" stop-color="#FF5634"/>
<stop offset="0.655" stop-color="#FF3647"/>
<stop offset="0.904" stop-color="#E31587"/>
</radialGradient>
<radialGradient id="paint10_radial_35_467" cx="0" cy="0" r="1" gradientUnits="userSpaceOnUse" gradientTransform="translate(62.1549 -17.5823) scale(112.06 129.252)">
<stop offset="0.094" stop-color="#FFF44F"/>
<stop offset="0.231" stop-color="#FFE141"/>
<stop offset="0.509" stop-color="#FFAF1E"/>
<stop offset="0.626" stop-color="#FF980E"/>
</radialGradient>
<linearGradient id="paint11_linear_35_467" x1="35.5021" y1="7.07111" x2="7.21635" y2="35.3563" gradientUnits="userSpaceOnUse">
<stop offset="0.167" stop-color="#FFF44F" stop-opacity="0.8"/>
<stop offset="0.266" stop-color="#FFF44F" stop-opacity="0.634"/>
<stop offset="0.489" stop-color="#FFF44F" stop-opacity="0.217"/>
<stop offset="0.6" stop-color="#FFF44F" stop-opacity="0"/>
</linearGradient>
</defs>
</svg>
