<svg width="174" height="174" viewBox="0 0 174 174" fill="none" xmlns="http://www.w3.org/2000/svg">
<path d="M173.022 49.8861L96.67 72.1582L117.469 50.112L173.022 49.8861Z" fill="#E17726"/>
<path d="M39.8208 0.840393L81.821 36.9739L82.6435 67.3805L39.8208 0.840393Z" fill="#E27625"/>
<path d="M114.08 135.385L140.408 145.664L119.537 173.726L90.468 152.892L114.08 135.385Z" fill="#E27625"/>
<path d="M29.0403 104.034L35.5825 132.658L0 129.659L2.39514 94.7849L29.0403 104.034Z" fill="#E27625"/>
<path d="M83.692 60.0988L71.8743 95.4946L39.9954 82.0667L54.347 71.5532L54.5132 71.462L83.692 60.0988Z" fill="#E27625"/>
<path d="M100.833 65.9745L115.845 94.0739L115.911 94.2496L120.005 111.563L87.0457 101.088L100.833 65.9745Z" fill="#E27625"/>
<path d="M45.0014 110.034L57.62 130.354L33.3944 132.702L45.0014 110.034Z" fill="#E27625"/>
<path d="M98.0484 129.588L92.104 154.346L75.2573 136.856L98.0484 129.588Z" fill="#E27625"/>
<path d="M76.1889 135.723L93.2844 153.471L70.535 155.535L72.9776 149.529L76.1889 135.723Z" fill="#D5BFB2"/>
<path d="M57.6379 128.889L51.2227 141.396L49.0774 147.617L33.0631 131.271L57.6379 128.889Z" fill="#D5BFB2"/>
<path d="M62.486 97.2218L63.7108 110.655L47.1954 98.4062L62.486 97.2218Z" fill="#233447"/>
<path d="M93.0589 108.494L103.984 119.341L83.41 117.916L93.0589 108.494Z" fill="#233447"/>
<path d="M46.4597 110.439L34.3993 133.932L27.228 103.96L46.4597 110.439Z" fill="#CC6228"/>
<path d="M96.6736 128.951L115.509 136.505L90.5388 154.629L96.6736 128.951Z" fill="#CC6228"/>
<path d="M120.986 110.345L101.93 119.355L93.049 110.538L83.9727 119.402L87.4352 99.6812L120.986 110.345Z" fill="#CC6228"/>
<path d="M40.0338 80.5009L72.4836 94.1692L62.3169 111.418L61.1648 98.7849L48.7423 99.7479L40.0338 80.5009Z" fill="#CC6228"/>
<path d="M40.1678 77.2599L49.9774 98.9406L44.7327 114.841L40.1678 77.2599Z" fill="#E27525"/>
<path d="M123.021 107.771L95.1056 133.442L101.515 117.94L123.021 107.771Z" fill="#E27525"/>
<path d="M72.9818 90.4568L72.1489 94.6595L70.0614 105.125L57.8607 135.132L62.1192 108.984L62.2106 108.731L72.9818 90.4568Z" fill="#E27525"/>
<path d="M89.4787 96.4763L85.8003 117.427L85.7057 117.679L71.9378 140.391L82.2963 109.431L89.4787 96.4763Z" fill="#E27525"/>
<path d="M103.141 117.822L97.5823 131.267L76.3009 138.053L73.8293 134.459L84.6895 116.544L103.141 117.822Z" fill="#F5841F"/>
<path d="M48.8194 97.796L63.6278 108.78L60.2604 129.457L56.0477 130.587L44.2631 111.609L48.8194 97.796Z" fill="#F5841F"/>
<path d="M31.0103 127.092L48.4674 144.912L49.9555 140.599L52.2979 139.698L73.2322 147.416L74.4953 149.64L72.7836 153.867L97.4835 151.627L84.1407 156.307L68.6425 160.242L47.4165 152.417L38.2018 139.332L31.0103 127.092Z" fill="#C0AC9D"/>
<path d="M75.1653 133.831L77.3772 137.046L73.9749 151.675L72.2281 148.598L52.3088 141.255L49.0154 142.522L55.8808 129.122L59.6516 128.111L75.1653 133.831Z" fill="#161616"/>
<path d="M168.608 49.6547L167.845 73.9118L155.296 94.0961L157.587 97.7471L152.035 99.4556L154.365 103.171L148.605 105.509L150.545 108.402L140.494 114.018L114.77 95.0031L114.569 94.7772L100.261 69.6033L168.608 49.6547Z" fill="#763E1A"/>
<path d="M43.2075 3.42517L82.2517 62.9642L55.0268 72.8266L54.7277 72.8684L22.8164 70.6351L18.8155 59.8392L22.1672 58.8986L19.3053 53.3809L23.4819 52.0669L20.3062 47.1301L24.5405 45.8833L28.0424 22.3738L43.2075 3.42517Z" fill="#763E1A"/>
<path d="M114.036 92.6485L141.293 112.795L139.942 147.026L113.771 137.378L95.6542 130.957L118.192 110.23L114.036 92.6485Z" fill="#F5841F"/>
<path d="M56.8135 71.5531L42.2383 82.2294L45.9308 112.627L27.9906 105.755L1.8656 96.1235L23.0012 69.1864L56.8135 71.5531Z" fill="#F5841F"/>
<path d="M119.018 50.5174L101.974 70.4356L88.6735 100.929L84.3794 110.44L75.1264 135.37L58.6825 129.307L67.8099 104.385L70.7352 94.3057L80.4064 62.4847L80.3708 36.27L119.018 50.5174Z" fill="#F5841F"/>
</svg>
