<svg width="311" height="45" viewBox="0 0 311 45" fill="none" xmlns="http://www.w3.org/2000/svg">
<path d="M54 37.6748C49.8563 40.9605 44.4605 43.2823 38.4949 44.3468C32.5294 45.4113 26.262 45.1706 20.4853 43.6551C14.7086 42.1396 9.6821 39.4174 6.0414 35.8328C2.4007 32.2482 0.309317 27.9621 0.0317307 23.5166C-0.245856 19.071 1.30282 14.6657 4.48191 10.8577C7.66101 7.04966 12.3277 4.00996 17.892 2.12297C23.4562 0.23599 29.668 -0.413527 35.7419 0.25656C41.8158 0.926647 47.4789 2.88624 52.0151 5.88754L41.5397 14.1938C39.2716 12.6931 36.44 11.7133 33.4031 11.3783C30.3661 11.0432 27.2602 11.368 24.4781 12.3115C21.696 13.255 19.3626 14.7748 17.7731 16.6788C16.1835 18.5829 15.4092 20.7855 15.548 23.0083C15.6868 25.2311 16.7325 27.3741 18.5528 29.1664C20.3732 30.9587 22.8864 32.3198 25.7748 33.0775C28.6631 33.8353 31.7968 33.9556 34.7796 33.4234C37.7624 32.8912 40.4603 31.7302 42.5321 30.0874L54 37.6748Z" fill="#00FF85"/>
<ellipse cx="30.5" cy="23" rx="7.5" ry="5" fill="white"/>
<path d="M84.8845 28.9189C84.3325 29.149 83.7766 29.356 83.2169 29.54C82.6572 29.724 82.0784 29.8812 81.4803 30.0115C80.8823 30.1495 80.2498 30.253 79.5827 30.322C78.9234 30.391 78.2142 30.4255 77.4551 30.4255C75.845 30.4255 74.3615 30.253 73.0044 29.908C71.655 29.563 70.4896 29.0455 69.5082 28.3554C68.5345 27.6577 67.7755 26.7913 67.2311 25.7563C66.6868 24.7136 66.4146 23.4983 66.4146 22.1106C66.4146 20.7229 66.6868 19.5115 67.2311 18.4764C67.7755 17.4337 68.5345 16.5673 69.5082 15.8773C70.4896 15.1796 71.655 14.6582 73.0044 14.3132C74.3615 13.9682 75.845 13.7957 77.4551 13.7957C78.2142 13.7957 78.9234 13.8302 79.5827 13.8992C80.2498 13.9682 80.8823 14.0717 81.4803 14.2097C82.0784 14.34 82.6572 14.4972 83.2169 14.6812C83.7766 14.8652 84.3325 15.0722 84.8845 15.3023V19.1435C84.4475 18.9058 83.9875 18.6719 83.5044 18.4419C83.0214 18.2042 82.4886 17.9934 81.9059 17.8094C81.3232 17.6177 80.683 17.4644 79.9853 17.3494C79.2876 17.2267 78.5017 17.1654 77.6276 17.1654C76.2859 17.1654 75.1703 17.3034 74.281 17.5794C73.3993 17.8554 72.6939 18.2234 72.1649 18.6834C71.6358 19.1435 71.264 19.6725 71.0493 20.2705C70.8346 20.8609 70.7273 21.4742 70.7273 22.1106C70.7273 22.5323 70.7733 22.9501 70.8653 23.3642C70.9573 23.7705 71.1106 24.1577 71.3253 24.5257C71.54 24.8861 71.8198 25.2196 72.1649 25.5263C72.5099 25.833 72.9392 26.0975 73.4529 26.3198C73.9666 26.5422 74.5647 26.7185 75.247 26.8488C75.9371 26.9715 76.7306 27.0328 77.6276 27.0328C78.5017 27.0328 79.2876 26.9792 79.9853 26.8718C80.683 26.7568 81.3232 26.6073 81.9059 26.4233C82.4886 26.2393 83.0214 26.0323 83.5044 25.8023C83.9875 25.5646 84.4475 25.3231 84.8845 25.0778V28.9189ZM103.4 17.7749C103.285 17.7365 103.117 17.6867 102.894 17.6254C102.68 17.5564 102.427 17.4912 102.135 17.4299C101.844 17.3609 101.522 17.3034 101.169 17.2574C100.824 17.2114 100.468 17.1884 100.1 17.1884C99.3331 17.1884 98.6162 17.2842 97.9492 17.4759C97.2898 17.6599 96.6726 17.9091 96.0976 18.2234C95.5225 18.5301 94.9859 18.8828 94.4875 19.2815C93.9968 19.6725 93.5444 20.075 93.1304 20.489V30H88.8637V14.1982H93.1304V16.7628C93.6441 16.3795 94.1693 16.0115 94.706 15.6588C95.2504 15.2984 95.8139 14.9802 96.3966 14.7042C96.987 14.4282 97.608 14.2097 98.2597 14.0487C98.9114 13.88 99.6014 13.7957 100.33 13.7957C100.606 13.7957 100.886 13.811 101.169 13.8417C101.461 13.8647 101.741 13.8954 102.009 13.9337C102.285 13.972 102.542 14.0142 102.779 14.0602C103.017 14.1062 103.224 14.1522 103.4 14.1982V17.7749ZM124.884 23.9277C124.884 24.9551 124.631 25.8713 124.124 26.6763C123.618 27.4814 122.898 28.1637 121.962 28.7234C121.035 29.2755 119.908 29.6972 118.581 29.9885C117.262 30.2798 115.783 30.4255 114.142 30.4255C113.421 30.4255 112.662 30.3949 111.865 30.3335C111.075 30.2798 110.301 30.1993 109.542 30.092C108.79 29.9923 108.085 29.8773 107.426 29.747C106.766 29.609 106.21 29.4595 105.758 29.2985V25.5493C106.249 25.7563 106.793 25.9518 107.391 26.1358C107.997 26.3198 108.652 26.4847 109.358 26.6303C110.063 26.7683 110.818 26.8795 111.623 26.9638C112.436 27.0405 113.295 27.0789 114.199 27.0789C115.051 27.0789 115.798 27.029 116.442 26.9293C117.094 26.8297 117.657 26.6955 118.133 26.5268C118.608 26.3581 119.003 26.1665 119.317 25.9518C119.632 25.7295 119.885 25.5033 120.076 25.2733C120.268 25.0356 120.402 24.8017 120.479 24.5717C120.563 24.3417 120.605 24.127 120.605 23.9277V22.5361C119.823 23.1112 118.892 23.5865 117.811 23.9622C116.73 24.3302 115.499 24.5142 114.119 24.5142C112.517 24.5142 111.179 24.3609 110.105 24.0542C109.04 23.7398 108.185 23.2913 107.541 22.7086C106.897 22.1183 106.437 21.4014 106.161 20.558C105.892 19.7146 105.758 18.7639 105.758 17.7059V14.1982H110.048V17.2804C110.048 17.9014 110.128 18.4534 110.289 18.9364C110.458 19.4195 110.719 19.8258 111.071 20.1555C111.432 20.4775 111.896 20.7229 112.463 20.8915C113.03 21.0602 113.716 21.1446 114.522 21.1446C115.204 21.1446 115.848 21.0602 116.454 20.8915C117.067 20.7229 117.63 20.5005 118.144 20.2245C118.658 19.9485 119.122 19.6341 119.536 19.2815C119.95 18.9288 120.306 18.5684 120.605 18.2004V14.1982H124.884V23.9277ZM147.586 19.592C147.586 20.3817 147.471 21.1101 147.241 21.7771C147.011 22.4365 146.639 23.0076 146.125 23.4907C145.619 23.966 144.96 24.3379 144.147 24.6062C143.334 24.8746 142.345 25.0087 141.18 25.0087H134.095V30H129.829V14.1982H141.18C142.345 14.1982 143.334 14.3324 144.147 14.6007C144.96 14.8614 145.619 15.2333 146.125 15.7163C146.639 16.1916 147.011 16.759 147.241 17.4184C147.471 18.0777 147.586 18.8023 147.586 19.592ZM143.273 19.661C143.273 19.293 143.219 18.9786 143.112 18.7179C143.012 18.4496 142.844 18.2311 142.606 18.0624C142.368 17.8937 142.058 17.771 141.674 17.6944C141.291 17.61 140.82 17.5679 140.26 17.5679H134.095V21.6391H140.26C140.82 21.6391 141.291 21.6084 141.674 21.5471C142.058 21.4781 142.368 21.3669 142.606 21.2136C142.844 21.0525 143.012 20.8455 143.112 20.5925C143.219 20.3395 143.273 20.029 143.273 19.661ZM159.983 17.6369V30H155.717V17.6369H149.012V14.1982H166.7V17.6369H159.983ZM189.977 22.1106C189.977 23.4677 189.728 24.6676 189.229 25.7103C188.731 26.7453 188.018 27.6117 187.09 28.3094C186.162 29.0071 185.035 29.5361 183.709 29.8965C182.39 30.2492 180.907 30.4255 179.258 30.4255C177.61 30.4255 176.119 30.2492 174.785 29.8965C173.458 29.5361 172.327 29.0071 171.392 28.3094C170.457 27.6117 169.736 26.7453 169.23 25.7103C168.724 24.6676 168.471 23.4677 168.471 22.1106C168.471 20.7535 168.724 19.5575 169.23 18.5224C169.736 17.4797 170.457 16.6095 171.392 15.9118C172.327 15.2141 173.458 14.6889 174.785 14.3362C176.119 13.9759 177.61 13.7957 179.258 13.7957C180.907 13.7957 182.39 13.9759 183.709 14.3362C185.035 14.6889 186.162 15.2141 187.09 15.9118C188.018 16.6095 188.731 17.4797 189.229 18.5224C189.728 19.5575 189.977 20.7535 189.977 22.1106ZM185.664 22.1106C185.664 21.5202 185.568 20.9337 185.377 20.351C185.193 19.7606 184.859 19.2316 184.376 18.7639C183.901 18.2962 183.249 17.9167 182.421 17.6254C181.593 17.334 180.539 17.1884 179.258 17.1884C178.4 17.1884 177.644 17.2574 176.993 17.3954C176.341 17.5257 175.777 17.7097 175.302 17.9474C174.827 18.1851 174.428 18.4649 174.106 18.7869C173.784 19.1013 173.527 19.4425 173.335 19.8105C173.144 20.1708 173.006 20.5504 172.921 20.949C172.845 21.3401 172.806 21.7272 172.806 22.1106C172.806 22.5016 172.845 22.8965 172.921 23.2952C173.006 23.6938 173.144 24.0772 173.335 24.4452C173.527 24.8056 173.784 25.1429 174.106 25.4573C174.428 25.7716 174.827 26.0476 175.302 26.2853C175.777 26.5153 176.341 26.6993 176.993 26.8373C177.644 26.9677 178.4 27.0328 179.258 27.0328C180.539 27.0328 181.593 26.8872 182.421 26.5958C183.249 26.3045 183.901 25.925 184.376 25.4573C184.859 24.9896 185.193 24.4644 185.377 23.8817C185.568 23.2913 185.664 22.701 185.664 22.1106ZM208.424 18.6489C208.125 18.5033 207.73 18.3384 207.239 18.1544C206.749 17.9704 206.193 17.7979 205.572 17.6369C204.951 17.4682 204.276 17.3302 203.548 17.2229C202.819 17.1078 202.072 17.0503 201.305 17.0503C200.692 17.0503 200.166 17.0695 199.729 17.1078C199.3 17.1462 198.936 17.196 198.637 17.2574C198.345 17.3187 198.112 17.3915 197.935 17.4759C197.767 17.5525 197.636 17.633 197.544 17.7174C197.452 17.8017 197.391 17.8861 197.36 17.9704C197.337 18.0547 197.326 18.1314 197.326 18.2004C197.326 18.4304 197.441 18.6336 197.671 18.8099C197.901 18.9786 198.215 19.1319 198.614 19.27C199.012 19.4003 199.476 19.5268 200.005 19.6495C200.534 19.7645 201.094 19.8872 201.684 20.0175C202.282 20.1402 202.896 20.2782 203.525 20.4315C204.161 20.5772 204.774 20.7497 205.365 20.949C205.963 21.1484 206.526 21.3822 207.055 21.6506C207.584 21.9113 208.048 22.2179 208.447 22.5706C208.845 22.9233 209.16 23.3297 209.39 23.7897C209.62 24.2497 209.735 24.7749 209.735 25.3653C209.735 26.1243 209.601 26.776 209.332 27.3204C209.064 27.8647 208.704 28.3247 208.251 28.7004C207.807 29.0761 207.289 29.379 206.699 29.609C206.108 29.8313 205.487 30.0038 204.836 30.1265C204.192 30.2492 203.536 30.3297 202.869 30.368C202.21 30.4064 201.581 30.4255 200.983 30.4255C199.419 30.4255 197.97 30.2952 196.636 30.0345C195.309 29.7815 194.136 29.4633 193.116 29.08V25.3078C194.167 25.8905 195.363 26.3466 196.705 26.6763C198.054 27.006 199.495 27.1709 201.029 27.1709C201.934 27.1709 202.67 27.1249 203.237 27.0328C203.812 26.9332 204.261 26.8105 204.583 26.6648C204.905 26.5115 205.123 26.3466 205.238 26.1703C205.353 25.994 205.411 25.8253 205.411 25.6643C205.411 25.4113 205.296 25.1928 205.066 25.0087C204.836 24.8171 204.521 24.6522 204.123 24.5142C203.724 24.3685 203.26 24.2382 202.731 24.1232C202.202 24.0005 201.638 23.8817 201.04 23.7667C200.45 23.644 199.84 23.5137 199.212 23.3757C198.583 23.2377 197.97 23.0766 197.372 22.8926C196.781 22.701 196.222 22.4825 195.693 22.2371C195.164 21.9841 194.7 21.6889 194.301 21.3516C193.902 21.0065 193.588 20.6117 193.358 20.167C193.128 19.7146 193.013 19.1933 193.013 18.6029C193.013 17.9052 193.136 17.3034 193.381 16.7973C193.626 16.2913 193.956 15.862 194.37 15.5093C194.792 15.1489 195.275 14.8576 195.819 14.6352C196.371 14.4129 196.95 14.2404 197.556 14.1177C198.161 13.995 198.775 13.9107 199.396 13.8647C200.017 13.8187 200.607 13.7957 201.167 13.7957C201.78 13.7957 202.409 13.8263 203.053 13.8877C203.705 13.949 204.345 14.0372 204.974 14.1522C205.602 14.2595 206.208 14.386 206.791 14.5317C207.381 14.6774 207.925 14.8307 208.424 14.9917V18.6489ZM228.906 30V23.4102H218.05V30H213.783V14.1982H218.05V19.9485H228.906V14.1982H233.173V30H228.906ZM238.118 30V14.1982H242.385V30H238.118ZM264.961 29.218C263.665 29.6473 262.369 29.954 261.073 30.138C259.785 30.3297 258.467 30.4255 257.117 30.4255C255.392 30.4255 253.855 30.2415 252.505 29.8735C251.164 29.4978 250.033 28.9573 249.113 28.2519C248.193 27.5465 247.491 26.684 247.008 25.6643C246.525 24.6446 246.284 23.4907 246.284 22.2026C246.284 21.0065 246.525 19.8987 247.008 18.8789C247.499 17.8516 248.189 16.9622 249.078 16.2108C249.975 15.4518 251.056 14.8614 252.321 14.4397C253.587 14.0104 254.997 13.7957 256.554 13.7957C257.987 13.7957 259.299 13.9912 260.487 14.3822C261.683 14.7656 262.707 15.3368 263.558 16.0958C264.416 16.8548 265.079 17.7902 265.547 18.9019C266.023 20.0137 266.26 21.2941 266.26 22.7431V23.8012H250.688C250.826 24.2995 251.053 24.7557 251.367 25.1698C251.689 25.5838 252.122 25.9365 252.667 26.2278C253.211 26.5192 253.878 26.7453 254.668 26.9063C255.465 27.0674 256.416 27.1479 257.52 27.1479C258.302 27.1479 259.068 27.1019 259.82 27.0098C260.571 26.9102 261.273 26.7837 261.924 26.6303C262.576 26.4693 263.163 26.293 263.684 26.1013C264.213 25.9096 264.639 25.7179 264.961 25.5263V29.218ZM262.016 20.673C261.978 20.282 261.859 19.8795 261.66 19.4655C261.468 19.0438 261.162 18.6643 260.74 18.3269C260.318 17.9896 259.766 17.7135 259.084 17.4989C258.401 17.2765 257.55 17.1654 256.531 17.1654C255.572 17.1654 254.744 17.2842 254.047 17.5219C253.349 17.7595 252.762 18.0547 252.287 18.4074C251.819 18.7601 251.455 19.1396 251.194 19.546C250.934 19.9523 250.765 20.328 250.688 20.673H262.016ZM274.403 23.2377C274.403 23.897 274.464 24.4376 274.587 24.8592C274.709 25.2733 274.909 25.6029 275.185 25.8483C275.461 26.0936 275.817 26.2623 276.254 26.3543C276.699 26.4463 277.243 26.4923 277.887 26.4923H285.984V30H277.013C275.771 30 274.713 29.9003 273.839 29.701C272.973 29.494 272.263 29.1796 271.711 28.7579C271.159 28.3286 270.757 27.7881 270.504 27.1364C270.259 26.4847 270.136 25.7103 270.136 24.8132V14.1982H274.403V23.2377ZM308.766 22.0876C308.766 23.0997 308.655 24.0005 308.433 24.7902C308.21 25.5723 307.896 26.2546 307.49 26.8373C307.091 27.42 306.608 27.9146 306.041 28.3209C305.481 28.7273 304.856 29.0531 304.166 29.2985C303.476 29.5438 302.732 29.724 301.935 29.839C301.138 29.9463 300.306 30 299.439 30H289.411V14.1982H299.416C300.283 14.1982 301.115 14.2557 301.912 14.3707C302.709 14.478 303.453 14.6544 304.143 14.8997C304.841 15.1451 305.473 15.4709 306.041 15.8773C306.608 16.276 307.091 16.7705 307.49 17.3609C307.896 17.9436 308.21 18.6259 308.433 19.408C308.655 20.19 308.766 21.0832 308.766 22.0876ZM304.465 22.0876C304.465 21.3286 304.365 20.6692 304.166 20.1095C303.974 19.5498 303.66 19.0898 303.223 18.7294C302.794 18.3614 302.23 18.0892 301.532 17.9129C300.835 17.7289 299.984 17.6369 298.979 17.6369H293.678V26.5613H298.979C299.984 26.5613 300.835 26.4732 301.532 26.2968C302.23 26.1128 302.794 25.8368 303.223 25.4688C303.66 25.0931 303.974 24.6254 304.166 24.0657C304.365 23.506 304.465 22.8466 304.465 22.0876Z" fill="white"/>
</svg>
