<svg width="420" height="347" viewBox="0 0 420 347" fill="none" xmlns="http://www.w3.org/2000/svg">
<path d="M43.1812 18.625H403.069C404.078 18.625 405.046 19.0146 405.76 19.708C406.474 20.4014 406.875 21.3419 406.875 22.3225V216.25H39.375V22.3225C39.375 21.3419 39.776 20.4014 40.4898 19.708C41.2036 19.0146 42.1718 18.625 43.1812 18.625Z" fill="#191A1F" stroke="white" stroke-width="2" stroke-linecap="round" stroke-linejoin="round"/>
<path d="M365.531 44.125H238.219C229.883 44.125 223.125 50.6896 223.125 58.7875V176.088C223.125 184.185 229.883 190.75 238.219 190.75H365.531C373.867 190.75 380.625 184.185 380.625 176.088V58.7875C380.625 50.6896 373.867 44.125 365.531 44.125Z" fill="#C1A875" stroke="black" stroke-width="2" stroke-linecap="round" stroke-linejoin="round"/>
<path d="M39.375 216.25H406.875V257.177C406.875 258.158 406.474 259.099 405.76 259.792C405.046 260.485 404.078 260.875 403.069 260.875H43.1812C42.1718 260.875 41.2036 260.485 40.4898 259.792C39.776 259.099 39.375 258.158 39.375 257.177V216.25Z" fill="white" stroke="black" stroke-width="2" stroke-linecap="round" stroke-linejoin="round"/>
<path d="M157.5 311.875H288.75" stroke="white" stroke-width="2" stroke-linecap="round" stroke-linejoin="round"/>
<path d="M269.062 260.875H177.188V311.875H269.062V260.875Z" fill="#E2E2E2" stroke="black" stroke-width="2" stroke-linecap="round" stroke-linejoin="round"/>
<path d="M118.125 152.5C147.12 152.5 170.625 129.667 170.625 101.5C170.625 73.3335 147.12 50.5 118.125 50.5C89.13 50.5 65.625 73.3335 65.625 101.5C65.625 129.667 89.13 152.5 118.125 152.5Z" fill="black" stroke="black" stroke-width="2" stroke-linecap="round" stroke-linejoin="round"/>
<path d="M157.042 135.606C156.011 127.966 152.166 120.947 146.218 115.848C140.269 110.75 132.621 107.918 124.689 107.875H111.564C103.632 107.918 95.9837 110.75 90.0356 115.848C84.0875 120.947 80.242 127.966 79.2109 135.606C84.1326 140.886 90.1381 145.106 96.8407 147.994C103.543 150.882 110.794 152.374 118.127 152.374C125.459 152.374 132.71 150.882 139.412 147.994C146.115 145.106 152.121 140.886 157.042 135.606Z" fill="#C1A875" stroke="black" stroke-width="2" stroke-linecap="round" stroke-linejoin="round"/>
<path d="M118.125 120.625C132.622 120.625 144.375 107.781 144.375 91.9375C144.375 76.0938 132.622 63.25 118.125 63.25C103.628 63.25 91.875 76.0938 91.875 91.9375C91.875 107.781 103.628 120.625 118.125 120.625Z" fill="#FFDED5" stroke="black" stroke-width="2" stroke-linecap="round" stroke-linejoin="round"/>
<path d="M85.3125 171.625H150.938" stroke="white" stroke-width="2" stroke-linecap="round" stroke-linejoin="round"/>
<path d="M98.4375 190.75H137.812" stroke="white" stroke-width="2" stroke-linecap="round" stroke-linejoin="round"/>
<path d="M297.938 173.091L242.812 114.25H275.625L292.687 131.909L329.634 63.25H360.938L297.938 173.091Z" fill="white"/>
</svg>
