<svg width="25" height="26" viewBox="0 0 25 26" fill="none" xmlns="http://www.w3.org/2000/svg">
<path d="M12.7539 10.6367V15.6713H19.6185C19.3171 17.2904 18.4125 18.6614 17.0558 19.5832L21.1954 22.8569C23.6073 20.5878 24.9988 17.2551 24.9988 13.296C24.9988 12.3741 24.9177 11.4877 24.7669 10.6369L12.7539 10.6367Z" fill="#4285F4"/>
<path d="M5.60563 15.4746L4.67199 16.203L1.36719 18.8266C3.46599 23.0693 7.76764 26.0003 12.7537 26.0003C16.1975 26.0003 19.0848 24.8421 21.1952 22.8567L17.0556 19.583C15.9193 20.363 14.4698 20.8358 12.7537 20.8358C9.43739 20.8358 6.61974 18.5549 5.61085 15.4821L5.60563 15.4746Z" fill="#34A853"/>
<path d="M1.36794 7.17383C0.498315 8.92286 -0.000244141 10.8965 -0.000244141 13.0001C-0.000244141 15.1038 0.498315 17.0774 1.36794 18.8265C1.36794 18.8382 5.61201 15.4701 5.61201 15.4701C5.3569 14.6901 5.20612 13.8629 5.20612 13C5.20612 12.1372 5.3569 11.3099 5.61201 10.5299L1.36794 7.17383Z" fill="#FBBC05"/>
<path d="M12.754 5.17639C14.6325 5.17639 16.3022 5.83819 17.6357 7.11458L21.2883 3.39188C19.0735 1.28827 16.1979 0 12.754 0C7.7679 0 3.46599 2.9191 1.36719 7.17368L5.61112 10.5301C6.61988 7.45729 9.43765 5.17639 12.754 5.17639Z" fill="#EA4335"/>
</svg>
