<svg width="46" height="46" viewBox="0 0 46 46" fill="none" xmlns="http://www.w3.org/2000/svg">
<circle cx="23" cy="23" r="23" fill="#C1A875"/>
<path d="M37.874 32.1137L37.7347 31.6788C37.4046 30.6627 36.3227 29.6029 35.3287 29.3237L31.6501 28.2829C30.6526 28.0018 29.2296 28.3798 28.4997 29.1357L27.1683 30.5146C22.3299 29.1605 18.5358 25.2308 17.2302 20.2205L18.5616 18.8415C19.2915 18.0856 19.6563 16.6137 19.3849 15.5805L18.3818 11.7686C18.1104 10.7373 17.0853 9.61678 16.1061 9.27867L15.6862 9.13245C14.7051 8.79434 13.3059 9.13627 12.5761 9.89216L10.5846 11.9567C10.2288 12.3232 10.0014 13.3716 10.0014 13.3755C9.93177 19.9242 12.411 26.2335 16.8836 30.8659C21.3452 35.4868 27.4141 38.0508 33.7187 37.9958C33.7516 37.9958 34.7932 37.764 35.149 37.3974L37.1405 35.3348C37.8703 34.5789 38.2004 33.1298 37.874 32.1137Z" fill="white"/>
</svg>
