<svg width="213" height="268" viewBox="0 0 213 268" fill="none" xmlns="http://www.w3.org/2000/svg">
<path d="M39.1301 127.836C39.2596 128.268 39.3459 128.7 39.4754 129.131C37.6628 128.786 35.0734 128.182 32.1388 126.973C28.9884 125.635 26.7874 124.685 24.8022 122.657C22.9465 120.714 21.5223 118.081 20.4866 111.434C19.4077 104.657 18.8035 98.2256 20.9181 85.967C21.5223 82.5138 21.3497 78.2406 23.9391 73.881C24.9748 72.1112 26.7442 69.2192 30.2399 67.838C35.4187 65.8092 40.3816 68.6581 41.2016 69.1329" fill="#C1A875"/>
<path d="M39.1301 127.836C39.2596 128.268 39.3459 128.7 39.4754 129.131C37.6628 128.786 35.0734 128.182 32.1388 126.973C28.9884 125.635 26.7874 124.685 24.8022 122.657C22.9465 120.714 21.5223 118.081 20.4866 111.434C19.4077 104.657 18.8035 98.2256 20.9181 85.967C21.5223 82.5138 21.3497 78.2406 23.9391 73.881C24.9748 72.1112 26.7442 69.2192 30.2399 67.838C35.4187 65.8092 40.3816 68.6581 41.2016 69.1329" stroke="black" stroke-width="2" stroke-miterlimit="10"/>
<path d="M21.5625 111.434C21.5625 111.52 21.6057 111.693 21.6488 111.908C21.7351 112.297 22.4256 115.88 22.814 117.304C23.634 120.066 25.4897 122.009 26.0076 122.527C27.6475 124.21 29.3306 125.03 32.7831 126.368C34.0347 126.886 35.2431 127.318 36.6241 127.577C37.6598 127.793 38.5229 127.836 39.1703 127.879C38.9545 123.563 38.7387 119.246 38.5229 114.93C32.9126 113.764 27.2591 112.599 21.5625 111.434Z" fill="#AB976E"/>
<path d="M202.563 111.002C202.563 111.175 202.52 111.304 202.477 111.477C201.441 118.124 200.017 120.757 198.161 122.7C196.176 124.728 193.975 125.678 190.825 127.016C189.314 127.664 187.89 128.138 186.595 128.484C185.775 128.699 185.042 129.347 184.481 129.002C184.006 128.743 183.876 128.052 183.876 127.577C183.833 123.52 183.833 119.462 183.79 115.362L183.531 68.3126C184.567 67.881 188.537 66.2407 192.767 67.881C196.219 69.2191 197.945 72.0247 199.068 73.924C201.657 78.2836 201.484 82.5568 202.088 86.01C204.117 97.9665 203.599 104.398 202.563 111.002Z" fill="#C1A875" stroke="black" stroke-width="2" stroke-miterlimit="10"/>
<path d="M106.581 225.431C106.581 225.561 106.581 225.647 106.581 225.777C106.322 233.762 106.106 241.791 105.847 249.819C103.776 250.855 101.014 251.977 97.6043 252.452C88.0236 253.79 80.5144 249.215 78.0977 247.575C78.2271 244.683 78.3566 241.791 78.5724 238.812C78.6587 237.474 78.745 236.179 78.8313 234.841C78.9176 233.417 79.0471 231.992 79.1766 230.568C79.6081 225.733 80.126 221.029 80.687 216.453C80.8597 214.942 81.0755 213.475 81.2912 212.007C81.3344 211.619 81.4207 211.23 81.4638 210.842C81.5502 210.928 81.6365 211.014 81.7659 211.101C82.4133 211.662 83.0606 212.18 83.7511 212.741C85.0458 213.475 86.2974 214.165 87.592 214.899C87.8941 215.072 88.1531 215.245 88.4552 215.374C88.6278 215.46 88.8004 215.59 88.9731 215.676C94.8423 218.87 100.712 222.151 106.581 225.431Z" fill="#C1A875" stroke="black" stroke-width="2" stroke-miterlimit="10"/>
<path d="M101.834 245.891C104.098 245.891 105.934 242.992 105.934 239.416C105.934 235.84 104.098 232.941 101.834 232.941C99.5698 232.941 97.7343 235.84 97.7343 239.416C97.7343 242.992 99.5698 245.891 101.834 245.891Z" fill="white" stroke="black" stroke-miterlimit="10"/>
<path d="M77.4531 238.769H97.305" stroke="black" stroke-width="2" stroke-miterlimit="10"/>
<path d="M88.974 215.59C88.9308 216.971 88.8013 218.525 88.3698 220.122C88.0677 221.244 87.6793 222.366 87.1183 223.445C85.1762 227.244 81.2922 230.568 79.1343 230.524C78.8754 230.524 78.6596 230.481 78.487 230.352C76.7607 229.488 76.3723 224.438 81.9395 206.611L83.0615 208.252L81.7237 211.014C82.3711 211.575 83.0184 212.093 83.7089 212.654C85.0036 213.388 86.2551 214.079 87.5498 214.813L88.4129 216.107C88.4129 215.805 88.4129 215.546 88.4129 215.287C88.6287 215.417 88.8013 215.503 88.974 215.59Z" fill="#C1A875" stroke="black" stroke-width="2" stroke-miterlimit="10"/>
<path d="M141.365 213.043C142.099 212.438 142.876 211.791 143.609 211.187C144.688 218.783 145.594 226.769 146.242 235.186C146.587 239.545 146.803 243.776 146.975 247.919C144.559 249.56 137.093 254.135 127.469 252.797C124.059 252.322 121.297 251.243 119.226 250.164C118.967 242.049 118.708 233.934 118.492 225.819C126.131 221.546 133.726 217.273 141.365 213.043Z" fill="#C1A875" stroke="black" stroke-width="2" stroke-miterlimit="10"/>
<path d="M123.24 246.279C125.505 246.279 127.34 243.381 127.34 239.805C127.34 236.229 125.505 233.33 123.24 233.33C120.976 233.33 119.141 236.229 119.141 239.805C119.141 243.381 120.976 246.279 123.24 246.279Z" fill="white" stroke="black" stroke-miterlimit="10"/>
<path d="M147.621 239.157H127.77" stroke="black" stroke-width="2" stroke-miterlimit="10"/>
<path d="M136.619 216.496C136.705 211.834 136.662 210.885 136.619 210.885C136.489 210.885 134.892 217.921 137.913 223.834C140.071 228.064 144.646 231.733 146.545 230.74C148.271 229.877 148.659 224.827 143.092 207" fill="#C1A875"/>
<path d="M136.619 216.496C136.705 211.834 136.662 210.885 136.619 210.885C136.489 210.885 134.892 217.921 137.913 223.834C140.071 228.064 144.646 231.733 146.545 230.74C148.271 229.877 148.659 224.827 143.092 207" stroke="black" stroke-width="2" stroke-miterlimit="10"/>
<path d="M65.7997 159.778C64.2892 157.75 62.7356 158.743 56.0895 155.246C51.6876 152.959 49.055 150.671 48.3214 149.98C45.9909 147.908 44.351 145.88 43.2721 144.369C39.0428 139.405 38.7838 137.074 35.806 134.527C34.8566 133.707 33.9072 132.887 32.3535 132.369C29.3758 131.42 26.6569 132.499 25.8801 132.801C22.2118 134.268 19.8814 137.635 18.9751 140.139C15.5226 149.851 28.4695 161.937 31.4904 164.742C39.4743 172.21 46.9835 174.066 50.9108 174.67C56.8663 175.533 59.7146 173.807 60.4051 173.375C65.4976 170.267 68.0438 162.843 65.7997 159.778Z" fill="#C1A875" stroke="black" stroke-width="2" stroke-miterlimit="10"/>
<path d="M184.479 204.238C184.09 205.274 182.493 208.856 178.868 210.281C174.251 212.05 168.036 209.633 164.627 203.806C164.756 200.569 164.67 195.691 163.332 189.993C162.512 186.54 161.606 184.296 161.174 183.087C159.534 178.425 158.542 170.872 162.037 158.483C164.842 159.821 177.703 166.296 183.184 181.36C186.852 191.504 185.385 200.396 184.479 204.238Z" fill="#C1A875" stroke="black" stroke-width="2" stroke-miterlimit="10"/>
<path d="M62.4772 182.914C61.2256 178.295 56.2626 160.382 65.8002 149.418C72.4031 141.821 85.7816 141.994 112.193 142.598C138.173 143.246 151.25 143.72 157.723 151.576C166.829 162.713 162.168 179.719 160.96 184.036C155.954 202.165 138.303 224.654 111.244 224.308C83.5374 224.006 67.2243 199.964 62.4772 182.914Z" fill="#C1A875" stroke="black" stroke-width="2" stroke-miterlimit="10"/>
<path d="M201.526 110.786C201.526 110.959 201.483 111.088 201.44 111.261C200.491 117.649 199.239 120.196 197.556 122.052C195.787 124.038 193.801 124.944 190.996 126.196C189.745 126.757 188.58 127.275 187.199 127.62C186.163 127.879 185.3 128.009 184.652 128.052C184.652 123.735 184.652 119.419 184.652 115.103C190.306 113.678 195.916 112.211 201.526 110.786Z" fill="#AB976E"/>
<path d="M63.4688 160.55C71.2661 162.811 77.8959 164.115 82.6493 164.897C82.6493 164.897 106.125 168.766 133.728 165.55C139.649 164.854 144.986 163.811 144.986 163.811C149.323 162.941 148.364 162.941 151.866 162.289C156.119 161.507 158.121 161.333 158.871 160.681C159.038 160.55 159.121 160.376 159.205 160.202C159.247 160.029 159.08 159.55 158.746 158.55C158.121 156.725 157.745 155.768 157.078 154.638C156.828 154.203 156.411 153.595 155.827 152.899C155.827 152.899 155.702 152.769 155.619 152.682C152.075 149.073 83.525 122.381 66.8045 150.508C64.5112 154.421 63.7606 158.203 63.4688 160.55Z" fill="#AB976E"/>
<path d="M190.562 92.226C191.123 96.5424 193.583 118.038 181.241 135.995C164.971 159.692 135.063 159.605 111.932 159.562C89.0156 159.519 57.382 159.605 41.5868 134.872C30.4524 117.434 32.5671 97.5784 33.3008 92.226C38.4364 56.0975 74.2129 24.8896 111.932 24.8896C149.952 24.8896 185.729 56.0975 190.562 92.226Z" fill="#C1A875" stroke="black" stroke-width="2" stroke-miterlimit="10"/>
<path d="M178.699 135.62C163.006 158.299 134.066 158.256 111.749 158.213C91.2457 158.17 59.3945 158.127 43.7853 134.54C34.6308 120.717 35.0104 104.82 35.9807 96.223C36.3604 102.919 37.9213 112.422 43.7853 121.278C59.3102 144.865 92.3848 144.908 111.749 144.951C134.108 144.994 163.006 145.081 178.699 122.358C184.817 113.502 187.179 103.74 187.938 95.791C188.613 102.66 189.204 120.501 178.699 135.62Z" fill="#AB976E"/>
<path d="M177.101 88.298C177.575 91.5785 179.604 107.981 169.376 121.664C155.868 139.707 131.096 139.664 111.892 139.62C92.9027 139.577 66.6637 139.664 53.5442 120.801C44.3087 107.506 46.035 92.3986 46.6823 88.298C50.9117 60.7591 80.6032 36.9756 111.892 36.9756C143.396 36.9756 173.044 60.7591 177.101 88.298Z" fill="white"/>
<path d="M169.375 68.2696L180.164 62.2266" stroke="black" stroke-width="5" stroke-miterlimit="10"/>
<path d="M54.1466 68.7012L43.7891 63.0898" stroke="black" stroke-width="5" stroke-miterlimit="10"/>
<path d="M32.5683 153.951C35.786 153.951 38.3944 151.342 38.3944 148.124C38.3944 144.906 35.786 142.297 32.5683 142.297C29.3506 142.297 26.7422 144.906 26.7422 148.124C26.7422 151.342 29.3506 153.951 32.5683 153.951Z" fill="black"/>
<path d="M31.4883 165.174C32.9988 165.347 36.0628 165.519 39.2564 163.879C46.032 160.34 46.5498 151.879 46.593 151.361C46.6361 150.023 46.5067 148.901 46.3772 148.124" stroke="black" stroke-width="2" stroke-miterlimit="10"/>
<path d="M162.902 188.267C163.679 186.756 165.146 184.469 167.779 182.915C172.44 180.152 178.741 180.8 184.049 184.382" stroke="black" stroke-width="2" stroke-miterlimit="10"/>
<path d="M61.0508 177.907C66.9632 177.95 74.8176 179.072 80.9027 184.382C86.2972 189.13 85.0457 192.583 90.3971 198.194C97.0431 205.144 108.566 209.892 119.312 207.259C126.95 205.403 131.957 200.396 133.553 198.626C139.293 192.324 138.214 187.662 143.048 183.087C146.026 180.238 151.463 177.303 162.037 177.907" stroke="black" stroke-width="2" stroke-miterlimit="10"/>
<path d="M113.056 195.605C118.18 195.605 122.335 193.769 122.335 191.504C122.335 189.239 118.18 187.403 113.056 187.403C107.932 187.403 103.777 189.239 103.777 191.504C103.777 193.769 107.932 195.605 113.056 195.605Z" fill="black" stroke="black" stroke-width="2" stroke-miterlimit="10"/>
<path d="M133.738 104.256C139.679 104.256 144.496 99.4368 144.496 93.4925C144.496 87.5483 139.679 82.7295 133.738 82.7295C127.797 82.7295 122.98 87.5483 122.98 93.4925C122.98 99.4368 127.797 104.256 133.738 104.256Z" fill="#C1A875"/>
<path d="M133.394 99.0199C136.365 99.0199 138.773 96.6105 138.773 93.6384C138.773 90.6662 136.365 88.2568 133.394 88.2568C130.424 88.2568 128.016 90.6662 128.016 93.6384C128.016 96.6105 130.424 99.0199 133.394 99.0199Z" fill="white"/>
<path d="M89.2888 104.401C95.2301 104.401 100.046 99.5823 100.046 93.6381C100.046 87.6938 95.2301 82.875 89.2888 82.875C83.3476 82.875 78.5312 87.6938 78.5312 93.6381C78.5312 99.5823 83.3476 104.401 89.2888 104.401Z" fill="#C1A875"/>
<path d="M89.2889 99.0199C92.2596 99.0199 94.6677 96.6105 94.6677 93.6384C94.6677 90.6662 92.2596 88.2568 89.2889 88.2568C86.3183 88.2568 83.9102 90.6662 83.9102 93.6384C83.9102 96.6105 86.3183 99.0199 89.2889 99.0199Z" fill="white"/>
<path opacity="0.64" d="M146.716 222.15L144.559 212.223L146.716 222.15Z" fill="#808080"/>
<path fill-rule="evenodd" clip-rule="evenodd" d="M95.7422 113.012L128.015 113.012C128.015 121.928 120.79 129.156 111.879 129.156C102.967 129.156 95.7422 121.928 95.7422 113.012" fill="#C1A875"/>
</svg>
