<svg width="24" height="24" viewBox="0 0 24 24" fill="none" xmlns="http://www.w3.org/2000/svg">
<mask id="mask0_133_781" style="mask-type:luminance" maskUnits="userSpaceOnUse" x="0" y="0" width="24" height="24">
<path d="M12 24C18.6274 24 24 18.6274 24 12C24 5.37258 18.6274 0 12 0C5.37258 0 0 5.37258 0 12C0 18.6274 5.37258 24 12 24Z" fill="white"/>
</mask>
<g mask="url(#mask0_133_781)">
<path d="M-11.8799 16.3201C-11.8799 13.5001 -11.8799 10.7401 -11.8799 7.92012C-11.8799 7.68012 -11.8199 7.62012 -11.5799 7.62012H-11.2799C4.26012 7.62012 19.8001 7.62012 35.3401 7.62012C35.8201 7.62012 35.9401 7.68012 35.9401 8.22012C35.8801 10.9201 35.9401 13.6201 35.9401 16.3201C35.8201 16.4401 35.6401 16.5001 35.4601 16.4401C35.2801 16.4401 35.1601 16.4401 34.9801 16.4401H-10.8599C-11.2199 16.5001 -11.5799 16.5601 -11.8799 16.3201Z" fill="#0052B4"/>
<path d="M-11.8799 16.3203H35.8201C35.8201 18.4803 35.8201 20.5803 35.8201 22.7403C35.7601 23.7603 34.9201 24.5403 33.9001 24.5403H-9.59988C-10.7399 24.5403 -11.5199 24.0603 -11.7599 23.1003C-11.8199 22.9803 -11.8199 22.8603 -11.8199 22.7403C-11.8799 20.5803 -11.8799 18.4803 -11.8799 16.3203Z" fill="#D80027"/>
<path d="M-11.8799 7.67996H35.8201C35.8201 5.51996 35.8201 3.41996 35.8201 1.25996C35.7601 0.239961 34.9201 -0.540039 33.9001 -0.540039H-9.59988C-10.7399 -0.540039 -11.5199 -0.060039 -11.7599 0.899961C-11.8199 1.01996 -11.8199 1.13996 -11.8199 1.25996C-11.8799 3.41996 -11.8799 5.51996 -11.8799 7.67996Z" fill="white"/>
</g>
</svg>
