<svg width="27" height="25" viewBox="0 0 27 25" fill="none" xmlns="http://www.w3.org/2000/svg">
<path d="M5.36196 5.93094L6.9561 7.52508C5.21102 9.01094 3.82141 10.8605 2.92344 12.4787L2.92071 12.4841C5.42157 16.6656 9.38969 20.6173 14.398 20.0179C15.7498 19.856 17.0109 19.3939 18.1632 18.7327L19.777 20.346C17.531 21.7876 14.9563 22.551 12.1667 22.1737C7.13657 21.4934 3.02352 17.3677 0.430786 12.5224C1.64813 10.073 3.31336 7.72961 5.36196 5.93094ZM8.98774 3.56844C10.3943 2.94172 11.9163 2.57313 13.5416 2.54688C13.6318 2.54633 14.7031 2.59719 15.1888 2.67704C15.4934 2.72735 15.7969 2.79024 16.096 2.86844C20.8675 4.11149 24.4025 8.14524 26.625 12.3009C25.6926 14.1838 24.4714 16.0213 23.0151 17.5958L21.4691 16.0498C22.5448 14.8904 23.4416 13.5998 24.1323 12.348C24.1323 12.348 23.4378 11.2313 22.9112 10.5302C22.5727 10.0795 22.2166 9.64204 21.8426 9.2204C21.5473 8.8879 20.4005 7.7586 20.1276 7.52344C18.2966 5.94899 16.1469 4.7136 13.5684 4.73438C12.5698 4.75024 11.6095 4.94711 10.6978 5.27852L8.98774 3.56844Z" fill="#A4A4A6"/>
<path fill-rule="evenodd" clip-rule="evenodd" d="M9.70149 10.2692L11.0134 11.5806C10.9276 11.8415 10.8806 12.1204 10.8806 12.4097C10.8806 13.8709 12.0667 15.0571 13.528 15.0571C13.8173 15.0571 14.0962 15.0106 14.357 14.9242L15.669 16.2362C15.0357 16.5916 14.3051 16.794 13.528 16.794C11.1081 16.794 9.14368 14.8296 9.14368 12.4097C9.14368 11.6326 9.34657 10.9025 9.70149 10.2692ZM13.447 8.02648C13.4738 8.02594 13.5012 8.02539 13.528 8.02539C15.9479 8.02539 17.9123 9.99031 17.9123 12.4097C17.9123 12.437 17.9123 12.4638 17.9117 12.4906L13.447 8.02648Z" fill="#A4A4A6"/>
</svg>
