<svg width="86" height="86" viewBox="0 0 86 86" fill="none" xmlns="http://www.w3.org/2000/svg">
<g clip-path="url(#clip0_1108_5407)">
<path d="M42.9995 75.2501C42.9995 73.1347 41.947 71.3762 40.2989 69.8909C41.9445 68.3896 42.9995 66.6156 42.9995 64.5002C42.9995 62.3848 41.947 60.6264 40.2989 59.141C41.9445 57.6398 42.9995 55.8657 42.9995 53.7503C42.9995 39.6411 0 39.6411 0 53.7503C0 55.8657 1.055 57.6398 2.70057 59.141C1.05248 60.6265 0 62.385 0 64.5002C0 66.6154 1.055 68.3896 2.70057 69.8909C1.05248 71.3764 0 73.1347 0 75.2501C0 82.3099 10.8155 85.9999 21.4997 85.9999C32.1839 85.9999 42.9995 82.3099 42.9995 75.2501ZM21.4997 80.625C11.4978 80.625 5.37494 77.1501 5.37494 75.2501C5.37494 74.5782 6.18588 73.7016 7.6398 72.8513C11.5633 74.4208 16.5237 75.2501 21.4997 75.2501C26.4758 75.2501 31.436 74.4206 35.3597 72.8513C36.8136 73.7016 37.6246 74.5782 37.6246 75.2501C37.6246 77.1501 31.5017 80.625 21.4997 80.625ZM21.4997 69.8751C11.4978 69.8751 5.37494 66.4002 5.37494 64.5002C5.37494 63.8283 6.18588 62.9517 7.6398 62.1015C11.5633 63.6709 16.5237 64.5002 21.4997 64.5002C26.4758 64.5002 31.436 63.6708 35.3597 62.1015C36.8136 62.9519 37.6246 63.8283 37.6246 64.5002C37.6246 66.4002 31.5017 69.8751 21.4997 69.8751ZM21.4997 59.1253C11.4978 59.1253 5.37494 55.6504 5.37494 53.7503C5.37494 51.8607 11.4978 48.3754 21.4997 48.3754C31.5017 48.3754 37.6246 51.8607 37.6246 53.7503C37.6246 55.6504 31.5017 59.1253 21.4997 59.1253ZM61.8118 20.157C61.8118 20.9024 61.2081 21.5007 60.468 21.5007H36.2808C35.5381 21.5007 34.9371 20.9022 34.9371 20.157C34.9371 19.4115 35.5381 18.8132 36.2808 18.8132H60.468C61.2081 18.8132 61.8118 19.4115 61.8118 20.157ZM61.8118 24.1882C61.8118 24.9336 61.2081 25.5319 60.468 25.5319H36.2808C35.5381 25.5319 34.9371 24.9334 34.9371 24.1882C34.9371 23.4427 35.5381 22.8444 36.2808 22.8444H60.468C61.2081 22.8444 61.8118 23.4427 61.8118 24.1882ZM34.3124 8.06335C32.8296 5.49144 33.7114 2.2055 36.2808 0.725212C38.8529 -0.765494 42.1387 0.116332 43.6242 2.68841L43.7134 2.84596C44.6268 1.17671 46.3378 0.000938996 48.3744 0.000938996C50.411 0.000938996 52.1221 1.17671 53.0355 2.84596L53.1247 2.68841C54.6102 0.1165 57.896 -0.765325 60.468 0.725212C63.0399 2.2055 63.9218 5.49127 62.4364 8.06335L59.1243 17.4695H37.6246L34.3124 8.06335ZM80.9914 75.8589C82.1776 71.8067 84.3035 60.4218 75.5849 48.3754C69.874 40.4809 69.0342 45.6879 59.1241 26.8756H37.6244C33.1916 35.295 30.5777 38.8905 28.5253 41.0164C37.837 42.3497 45.6868 46.3914 45.6868 53.7505C45.6868 55.6769 45.0885 57.4773 43.9021 59.1306C45.0883 60.7787 45.6868 62.5739 45.6868 64.5004C45.6868 66.4268 45.0885 68.2272 43.9021 69.8805C45.0883 71.5286 45.6868 73.3238 45.6868 75.2502C45.6868 80.3208 41.8472 83.827 36.5037 86.0001H85.5053C85.8043 85.1551 85.9988 84.2575 85.9988 83.3126C85.999 79.9426 83.9256 77.0609 80.9914 75.8589ZM75.8318 74.3472L74.4723 78.9979C74.4723 78.9979 73.9054 64.5004 64.8352 53.9184C56.1533 43.7932 55.9119 32.2507 55.9119 32.2507C61.2869 42.0506 64.0793 44.78 67.3285 47.4307C68.6092 48.4753 69.617 49.2994 71.2285 51.5249C78.4825 61.5451 76.8658 70.8251 75.8318 74.3472Z" fill="#C1A875"/>
</g>
<defs>
<clipPath id="clip0_1108_5407">
<rect width="86" height="86" fill="white"/>
</clipPath>
</defs>
</svg>
