<svg width="88" height="88" viewBox="0 0 88 88" fill="none" xmlns="http://www.w3.org/2000/svg">
<path d="M44 0C19.7012 0 0 19.7012 0 44C0 68.2988 19.7012 88 44 88C68.3042 88 88 68.2988 88 44C88 19.7012 68.3042 0 44 0ZM55.9989 60.9888C53.8343 63.4165 50.7086 64.8453 46.6211 65.275V71.5H41.411V65.3072C34.5952 64.609 30.3787 60.6451 28.7514 53.4263L36.8081 51.3262C37.5547 55.8647 40.0254 58.1314 44.2202 58.1314C46.1806 58.1314 47.6309 57.6481 48.5547 56.6758C49.4785 55.7035 49.9403 54.5327 49.9403 53.1577C49.9403 51.7344 49.4783 50.6547 48.5547 49.9242C47.6309 49.1886 45.5737 48.2591 42.3887 47.1312C39.5259 46.1378 37.286 45.16 35.6747 44.1827C34.0634 43.2159 32.7528 41.8571 31.7484 40.1113C30.744 38.3603 30.2392 36.3192 30.2392 33.9989C30.2392 30.9535 31.1415 28.2088 32.9355 25.7704C34.7296 23.3374 37.5547 21.8494 41.4112 21.307V16.5H46.6213V21.3072C52.4435 22.0055 56.2141 25.2979 57.9274 31.19L50.7516 34.1333C49.3498 30.0943 47.1903 28.0747 44.258 28.0747C42.7862 28.0747 41.6046 28.5259 40.7184 29.4283C39.8267 30.3306 39.381 31.4263 39.381 32.71C39.381 34.0206 39.8107 35.025 40.6701 35.7287C41.5241 36.427 43.3665 37.2917 46.1809 38.3283C49.2747 39.4563 51.7024 40.525 53.4588 41.5295C55.2205 42.5339 56.6223 43.9251 57.6751 45.6921C58.7225 47.4647 59.2486 49.5327 59.2486 51.9013C59.2486 55.5371 58.1635 58.5664 55.9989 60.9888Z" fill="#C1A875"/>
</svg>
