<svg width="94" height="96" viewBox="0 0 94 96" fill="none" xmlns="http://www.w3.org/2000/svg">
<path d="M57.9996 37.4612L43.5527 51.9081L36.0059 44.3612C34.8918 43.2471 33.059 43.2471 31.9449 44.3612C30.8309 45.4752 30.8309 47.3081 31.9449 48.4221L41.5043 57.9815C42.0793 58.5565 42.798 58.8081 43.5527 58.8081C44.3074 58.8081 45.0262 58.5206 45.6012 57.9815L62.0965 41.4862C63.2105 40.3721 63.2105 38.5393 62.0965 37.4253C60.9465 36.3471 59.1137 36.3471 57.9996 37.4612Z" fill="white"/>
<path d="M93.9363 19.4201C93.1816 19.5279 92.4269 19.5639 91.6722 19.5639C84.3769 19.5639 78.1238 15.1436 75.4644 8.85449C74.5659 6.73418 74.0628 4.39824 74.0628 1.95449C74.0628 1.37949 74.0988 0.804492 74.1347 0.229492H19.905C19.9769 0.804492 19.9769 1.37949 19.9769 1.95449C19.9769 4.39824 19.4738 6.73418 18.5753 8.85449C15.88 15.1436 9.62688 19.5639 2.3675 19.5639C1.61282 19.5639 0.858128 19.5279 0.103441 19.4201C0.390941 27.7576 -5.32312 78.6811 47.0378 95.2842C99.3628 78.6811 93.6488 27.7576 93.9363 19.4201ZM47.0019 75.1592C31.8722 75.1592 19.5816 62.8686 19.5816 47.7389C19.5816 32.6092 31.8722 20.3186 47.0019 20.3186C62.1316 20.3186 74.4222 32.6092 74.4222 47.7389C74.4222 62.8686 62.1316 75.1592 47.0019 75.1592Z" fill="#C1A875"/>
</svg>
