<svg width="106" height="106" viewBox="0 0 106 106" fill="none" xmlns="http://www.w3.org/2000/svg">
<g clip-path="url(#clip0_1108_5415)">
<path d="M3.32069 82.8209H43.0816C44.9167 82.8209 46.4023 81.7067 46.4023 80.3304V75.3712C46.4023 73.9948 44.9167 72.8807 43.0816 72.8807H3.32069C1.48557 72.8807 0 73.9948 0 75.3712V80.3304C0 81.7067 1.48557 82.8209 3.32069 82.8209ZM3.32069 96.06H43.0816C44.9167 96.06 46.4023 94.9458 46.4023 93.5695V88.6103C46.4023 87.2339 44.9167 86.1197 43.0816 86.1197H3.32069C1.48557 86.1197 0 87.2339 0 88.6103V93.5695C0 94.9458 1.48557 96.06 3.32069 96.06ZM3.32069 69.56H43.0816C44.9167 69.56 46.4023 68.4458 46.4023 67.0695V62.1103C46.4023 60.7339 44.9167 59.6197 43.0816 59.6197H3.32069C1.48557 59.6197 0 60.7339 0 62.1103V67.0695C0 68.4458 1.48557 69.56 3.32069 69.56ZM52.8471 68.2492C52.8908 67.8559 53 67.4845 53 67.0913V62.1321C53 57.02 48.6307 53.022 43.0598 53.022H29.7988C29.7988 43.8683 37.2049 36.4623 46.3586 36.4623C55.5124 36.4623 62.9184 43.8683 62.9184 53.022C62.9402 59.8382 58.7894 65.715 52.8471 68.2492ZM0 23.1795H92.7609V82.799H52.6068C52.8471 82.0126 53 81.1824 53 80.3085V76.1577H72.8805C72.8805 68.839 78.8228 62.8967 86.1195 62.8967V43.0163C78.8009 43.0163 72.8805 37.074 72.8805 29.7554H19.8805C19.8805 37.074 13.9382 43.0163 6.61954 43.0163V52.9565H3.32069C2.14097 52.9565 1.04864 53.175 0 53.5027V23.1795ZM106 9.94043V76.2014H99.3805V16.56H6.61954V9.94043H106Z" fill="#C1A875"/>
</g>
<defs>
<clipPath id="clip0_1108_5415">
<rect width="106" height="106" fill="white"/>
</clipPath>
</defs>
</svg>
