<svg width="50" height="50" fill="none" xmlns="http://www.w3.org/2000/svg"><path d="M25 21a6 6 0 100-12 6 6 0 000 12z" fill="#FD9800"/><path d="M45.766 16.345a3.199 3.199 0 00-3.695 2.378l-1.845 6.875a3.118 3.118 0 00-3.282-.099l-5.342 3.134a7.058 7.058 0 00-3.477 6.064v5.928h-1.563a.781.781 0 00-.78.781v6.25a.782.782 0 00.78.782h14.063a.781.781 0 00.781-.782v-6.25a.781.781 0 00-.781-.781h-1.563v-.906a2.343 2.343 0 01.819-1.78l3.642-3.125a3.895 3.895 0 001.232-1.953l3.39-12.65a3.137 3.137 0 00-2.378-3.866zm-5.922 30.53h-12.5v-4.688h12.5v4.688zm6.792-27.07l-3.39 12.652a2.33 2.33 0 01-.739 1.172l-3.643 3.125a3.906 3.906 0 00-1.364 2.965v.906h-7.813v-5.928a5.489 5.489 0 012.702-4.717l5.336-3.13a1.57 1.57 0 01.781-.21 1.541 1.541 0 011.396.86 1.64 1.64 0 01-.711 2.118l-4.375 2.521a.782.782 0 00.78 1.355l4.376-2.521a3.19 3.19 0 001.46-3.834l2.15-8.008a1.658 1.658 0 011.864-1.25 1.568 1.568 0 011.19 1.924z" fill="url(#paint0_linear)"/><path d="M23.437 40.625h-1.562v-5.928a7.058 7.058 0 00-3.474-6.065l-5.348-3.138a3.12 3.12 0 00-3.281.102l-1.845-6.875a3.203 3.203 0 00-3.697-2.377 3.13 3.13 0 00-2.378 3.865l3.39 12.651c.204.76.633 1.442 1.231 1.953l3.643 3.125a2.344 2.344 0 01.821 1.78v.907H9.375a.781.781 0 00-.781.781v6.25a.781.781 0 00.78.782h14.063a.781.781 0 00.782-.782v-6.25a.781.781 0 00-.782-.781zm-12.301-3.873l-3.643-3.125a2.325 2.325 0 01-.738-1.172l-3.391-12.65a1.568 1.568 0 011.191-1.93 1.66 1.66 0 011.865 1.25l2.15 8.006a3.19 3.19 0 001.46 3.835l4.375 2.52a.782.782 0 10.78-1.354l-4.374-2.521a1.64 1.64 0 01-.713-2.118 1.545 1.545 0 011.394-.852c.272-.001.54.07.777.204l5.342 3.136a5.486 5.486 0 012.701 4.716v5.928H12.5v-.906a3.907 3.907 0 00-1.364-2.967zm11.52 10.123h-12.5v-4.688h12.5v4.688z" fill="url(#paint1_linear)"/><path d="M37.5 12.188V2.344a.78.78 0 00-1.172-.678l-1.113.636a8.577 8.577 0 01-8.106.225l-1.766-.882a.781.781 0 00-.698 0l-1.754.88a8.574 8.574 0 01-8.109-.224l-1.11-.635a.782.782 0 00-1.172.678v9.844A19.497 19.497 0 0022.84 29.42l1.792.956a.782.782 0 00.736 0l1.792-.956A19.494 19.494 0 0037.5 12.188zM25 28.802l-1.424-.76a17.937 17.937 0 01-9.514-15.855V3.69a10.135 10.135 0 009.525.234l1.407-.703 1.417.708a10.134 10.134 0 009.526-.24v8.498a17.935 17.935 0 01-9.513 15.855l-1.424.76z" fill="url(#paint2_linear)"/><path d="M34.375 7.058a.781.781 0 00-.946-.764 11.814 11.814 0 01-7.713-.971l-.37-.184a.782.782 0 00-.702 0l-.361.18a11.81 11.81 0 01-7.716.974.781.781 0 00-.942.764v5.13a16.375 16.375 0 008.686 14.476l.321.172a.78.78 0 00.735 0l.322-.172a16.376 16.376 0 008.686-14.476v-5.13zm-1.563 5.13A14.817 14.817 0 0125 25.26a14.816 14.816 0 01-7.813-13.073V7.99c2.669.37 5.386-.073 7.799-1.271L25 6.71l.019.01a13.375 13.375 0 007.794 1.27v4.197z" fill="url(#paint3_linear)"/><path d="M29.42 10.882l-5.983 5.982-2.439-2.439a.781.781 0 00-1.104 1.105l2.991 2.991a.781.781 0 001.105 0l6.534-6.534a.782.782 0 10-1.105-1.105z" fill="url(#paint4_linear)"/><defs><linearGradient id="paint0_linear" x1="37.016" y1="16.29" x2="37.016" y2="48.438" gradientUnits="userSpaceOnUse"><stop stop-color="#1F1E1B"/><stop offset="1" stop-color="#505050"/></linearGradient><linearGradient id="paint1_linear" x1="12.983" y1="16.289" x2="12.983" y2="48.438" gradientUnits="userSpaceOnUse"><stop stop-color="#1F1E1B"/><stop offset="1" stop-color="#505050"/></linearGradient><linearGradient id="paint2_linear" x1="25" y1="1.561" x2="25" y2="30.469" gradientUnits="userSpaceOnUse"><stop stop-color="#1F1E1B"/><stop offset="1" stop-color="#505050"/></linearGradient><linearGradient id="paint3_linear" x1="25" y1="5.055" x2="25" y2="26.927" gradientUnits="userSpaceOnUse"><stop stop-color="#1F1E1B"/><stop offset="1" stop-color="#505050"/></linearGradient><linearGradient id="paint4_linear" x1="25.218" y1="10.644" x2="25.218" y2="18.75" gradientUnits="userSpaceOnUse"><stop stop-color="#1F1E1B"/><stop offset="1" stop-color="#505050"/></linearGradient></defs></svg>