<svg width="50" height="50" fill="none" xmlns="http://www.w3.org/2000/svg"><path fill="#FD9800" d="M1 24h48v4H1z"/><path d="M47.5 22.5h-.033A22.393 22.393 0 0032.462 2.122 2.5 2.5 0 0030 0H20a2.5 2.5 0 00-2.462 2.122A22.393 22.393 0 002.533 22.5H2.5A2.5 2.5 0 000 25v1.667a2.5 2.5 0 002.5 2.5h45a2.5 2.5 0 002.5-2.5V25a2.5 2.5 0 00-2.5-2.5zm-30-18.59v14.423a.833.833 0 001.667 0V2.5c0-.46.373-.833.833-.833h4.167V20a.833.833 0 001.666 0V1.667H30c.46 0 .833.373.833.833v15.833a.833.833 0 001.667 0V3.91A20.733 20.733 0 0145.8 22.5H4.2A20.733 20.733 0 0117.5 3.91zm30.833 22.757c0 .46-.373.833-.833.833h-45a.833.833 0 01-.833-.833V25c0-.46.373-.833.833-.833h45c.46 0 .833.373.833.833v1.667z" fill="url(#paint0_linear)"/><path d="M20.833 36.667H10a2.5 2.5 0 00-2.5 2.5V42.5a.833.833 0 001.667 0v-3.333c0-.46.373-.834.833-.834h10.833a.833.833 0 000-1.666z" fill="url(#paint1_linear)"/><path d="M49.167 36.667H45.75a4.174 4.174 0 00-4.083-3.334H8.333A4.172 4.172 0 004.167 37.5H.833a.833.833 0 00-.833.833V45c0 .46.373.833.833.833h3.584A5.841 5.841 0 0010 50h5a10.893 10.893 0 009.307-5.284.817.817 0 011.386 0A10.893 10.893 0 0035 50h5a5.833 5.833 0 005.767-5h3.4c.46 0 .833-.373.833-.833V37.5a.833.833 0 00-.833-.833zm-45 7.5h-2.5v-2.5h2.5v2.5zm0-4.167h-2.5v-.833h2.5V40zm40 4.167A4.172 4.172 0 0140 48.333h-5a9.22 9.22 0 01-7.877-4.472 2.483 2.483 0 00-4.25 0A9.22 9.22 0 0115 48.333h-5a4.172 4.172 0 01-4.167-4.166V37.5a2.5 2.5 0 012.5-2.5h33.334a2.5 2.5 0 012.5 2.5v6.667zm4.166-.834h-2.5v-2.5h2.5v2.5zm0-4.166h-2.5v-.834h2.5v.834z" fill="url(#paint2_linear)"/><path d="M25.833 36.667h-1.666a.833.833 0 000 1.666h1.666a.833.833 0 000-1.666z" fill="url(#paint3_linear)"/><defs><linearGradient id="paint0_linear" x1="25" y1="0" x2="25" y2="29.167" gradientUnits="userSpaceOnUse"><stop stop-color="#1F1E1B"/><stop offset="1" stop-color="#505050"/></linearGradient><linearGradient id="paint1_linear" x1="14.583" y1="36.667" x2="14.583" y2="43.333" gradientUnits="userSpaceOnUse"><stop stop-color="#1F1E1B"/><stop offset="1" stop-color="#505050"/></linearGradient><linearGradient id="paint2_linear" x1="25" y1="33.333" x2="25" y2="50" gradientUnits="userSpaceOnUse"><stop stop-color="#1F1E1B"/><stop offset="1" stop-color="#505050"/></linearGradient><linearGradient id="paint3_linear" x1="25" y1="36.667" x2="25" y2="38.333" gradientUnits="userSpaceOnUse"><stop stop-color="#1F1E1B"/><stop offset="1" stop-color="#505050"/></linearGradient></defs></svg>