<svg width="50" height="50" fill="none" xmlns="http://www.w3.org/2000/svg"><path fill="#FD9800" d="M1 46h48v3H1z"/><path d="M10.833 44.905V40.25l.846-.845c6.15 5.533 15.622 5.032 21.154-1.119 5.124-5.695 5.124-14.34 0-20.035l1.796-1.796-.589-.589a22.96 22.96 0 00-.678-.643L44.245 4.339a2.5 2.5 0 00.001-3.535l-.001-.001a2.56 2.56 0 00-3.536 0L29.102 12.405a17.278 17.278 0 00-7.435-1.666c-9.66.01-17.49 7.84-17.5 17.5 0 .54.035 1.1.089 1.666H0v20h50v-5H10.833zm22.665-22.809a13.2 13.2 0 011.453 4.97l-1.618-.539-2.763.922.527 1.583 2.236-.748 1.637.545a13.22 13.22 0 01-1.226 5.021l-1.118-1.26-2.853-.584-.334 1.632 2.31.473 1.145 1.292a13.43 13.43 0 01-3.572 3.736l-.34-1.65-2.18-1.933-1.104 1.25 1.763 1.564.347 1.697a13.235 13.235 0 01-4.965 1.452l.535-1.614-.921-2.763-1.584.527.749 2.236-.547 1.64a13.243 13.243 0 01-5.032-1.219l1.273-1.128.583-2.854-1.632-.333-.473 2.311-1.294 1.15a13.415 13.415 0 01-1.653-1.233l1.75-1.75-.584-.59c-4.321-4.138-4.47-10.996-.332-15.317 4.138-4.322 10.995-4.47 15.317-.333.112.108.223.218.33.33l.59.584 1.75-1.75c.324.373.627.764.907 1.17l-1.66.34-1.933 2.18 1.25 1.105 1.564-1.763 1.702-.349zm8.388-20.115a.85.85 0 011.18 0 .833.833 0 010 1.178l-11 11c-.017-.012-.034-.021-.05-.034a16.642 16.642 0 00-1.261-.841c-.036-.022-.07-.049-.105-.07L41.886 1.981zm-20.22 10.424a15.65 15.65 0 017.234 1.75 15.12 15.12 0 012.713 1.766c.214.17.428.353.644.547l-.574.573-1.786 1.79c-5.196-4.546-13.093-4.018-17.639 1.178a12.5 12.5 0 000 16.46l-2.36 2.359a15.74 15.74 0 01-3.89-8.208 16.859 16.859 0 01-.175-2.381c.01-8.74 7.093-15.824 15.834-15.834zm-20 19.167h2.816c.024.127.06.25.083.376a16.61 16.61 0 00.337 1.306c.053.178.106.356.166.532.084.25.176.5.27.742.065.166.129.339.2.507.104.25.22.493.333.737.074.156.145.313.224.467.133.258.278.509.424.76.077.132.148.267.228.397.19.309.394.608.603.905.047.067.088.136.136.201.262.362.54.714.833 1.056.072.083.15.161.223.244.203.23.405.46.62.68v4.423H1.667V31.572zm46.667 16.667H1.667v-1.667h46.666v1.667z" fill="url(#paint0_linear)"/><path d="M21.667 24.072a4.167 4.167 0 100 8.333 4.167 4.167 0 000-8.333zm0 6.667a2.5 2.5 0 110-5 2.5 2.5 0 010 5z" fill="url(#paint1_linear)"/><path d="M5 39.072a2.5 2.5 0 100 5 2.5 2.5 0 000-5zm0 3.333a.833.833 0 110-1.667.833.833 0 010 1.667z" fill="url(#paint2_linear)"/><path d="M21.667 29.905a1.667 1.667 0 100-3.333 1.667 1.667 0 000 3.333z" fill="url(#paint3_linear)"/><defs><linearGradient id="paint0_linear" x1="25" y1=".095" x2="25" y2="49.905" gradientUnits="userSpaceOnUse"><stop stop-color="#1F1E1B"/><stop offset="1" stop-color="#505050"/></linearGradient><linearGradient id="paint1_linear" x1="21.667" y1="24.072" x2="21.667" y2="32.405" gradientUnits="userSpaceOnUse"><stop stop-color="#1F1E1B"/><stop offset="1" stop-color="#505050"/></linearGradient><linearGradient id="paint2_linear" x1="5" y1="39.072" x2="5" y2="44.072" gradientUnits="userSpaceOnUse"><stop stop-color="#1F1E1B"/><stop offset="1" stop-color="#505050"/></linearGradient><linearGradient id="paint3_linear" x1="21.667" y1="26.572" x2="21.667" y2="29.905" gradientUnits="userSpaceOnUse"><stop stop-color="#1F1E1B"/><stop offset="1" stop-color="#505050"/></linearGradient></defs></svg>