<svg width="50" height="50" fill="none" xmlns="http://www.w3.org/2000/svg"><path d="M12.5 38a9.5 9.5 0 100-19 9.5 9.5 0 000 19z" fill="#FD9800"/><path d="M41.65 5.667c-.007-.03-.025-.052-.033-.08a.764.764 0 00-.15-.274.85.85 0 00-.094-.1.757.757 0 00-.137-.091.836.836 0 00-.13-.064.833.833 0 00-.167-.034.847.847 0 00-.106-.024h-4.201c-.215-2.9-1.561-5-3.299-5-1.737 0-3.083 2.1-3.298 5h-1.737c-.214-2.9-1.56-5-3.298-5s-3.084 2.1-3.298 5h-1.737c-.215-2.9-1.56-5-3.298-5s-3.084 2.1-3.299 5h-1.736c-.215-2.9-1.561-5-3.299-5C6.596 0 5.25 2.1 5.035 5H.833A.833.833 0 000 5.833v43.334c0 .46.373.833.833.833h40c.46 0 .834-.373.834-.833v-2.5h7.5a.832.832 0 00.816-1l-8.334-40zm-8.317-4c.602 0 1.442 1.277 1.627 3.333h-3.25c.182-2.056 1.021-3.333 1.623-3.333zm-8.333 0c.602 0 1.442 1.277 1.627 3.333h-3.25c.181-2.056 1.021-3.333 1.623-3.333zm-8.333 0c.601 0 1.441 1.277 1.627 3.333h-3.25c.181-2.056 1.02-3.333 1.623-3.333zm-8.334 0c.602 0 1.442 1.277 1.627 3.333H6.71c.182-2.056 1.022-3.333 1.623-3.333zm-6.666 5h3.368c.215 2.9 1.56 5 3.298 5a.833.833 0 000-1.667c-.601 0-1.441-1.277-1.626-3.333h6.661c.218 2.9 1.561 5 3.299 5a.833.833 0 000-1.667c-.602 0-1.442-1.277-1.627-3.333h6.662c.217 2.9 1.56 5 3.298 5A.833.833 0 0025 10c-.602 0-1.442-1.277-1.627-3.333h6.662c.218 2.9 1.56 5 3.298 5a.833.833 0 000-1.667c-.602 0-1.441-1.277-1.627-3.333H40V15H1.667V6.667zM40 48.333H1.667V16.667H40v31.666zM41.667 45V13.917L48.142 45h-6.475z" fill="url(#paint0_linear)"/><path d="M18.333 30H15a.833.833 0 00-.833.833v3.334c0 .46.373.833.833.833h3.333c.46 0 .834-.373.834-.833v-3.334a.833.833 0 00-.834-.833zm-.833 3.333h-1.667v-1.666H17.5v1.666z" fill="url(#paint1_linear)"/><path d="M26.667 30h-3.334a.833.833 0 00-.833.833v3.334c0 .46.373.833.833.833h3.334c.46 0 .833-.373.833-.833v-3.334a.833.833 0 00-.833-.833zm-.834 3.333h-1.666v-1.666h1.666v1.666z" fill="url(#paint2_linear)"/><path d="M10 30H6.667a.833.833 0 00-.834.833v3.334c0 .46.373.833.834.833H10c.46 0 .833-.373.833-.833v-3.334A.833.833 0 0010 30zm-.833 3.333H7.5v-1.666h1.667v1.666z" fill="url(#paint3_linear)"/><path d="M18.333 38.333H15a.833.833 0 00-.833.834V42.5c0 .46.373.833.833.833h3.333c.46 0 .834-.373.834-.833v-3.333a.833.833 0 00-.834-.834zm-.833 3.334h-1.667V40H17.5v1.667z" fill="url(#paint4_linear)"/><path d="M26.667 38.333h-3.334a.833.833 0 00-.833.834V42.5c0 .46.373.833.833.833h3.334c.46 0 .833-.373.833-.833v-3.333a.833.833 0 00-.833-.834zm-.834 3.334h-1.666V40h1.666v1.667z" fill="url(#paint5_linear)"/><path d="M10 38.333H6.667a.833.833 0 00-.834.834V42.5c0 .46.373.833.834.833H10c.46 0 .833-.373.833-.833v-3.333a.833.833 0 00-.833-.834zm-.833 3.334H7.5V40h1.667v1.667z" fill="url(#paint6_linear)"/><path d="M18.333 21.667H15a.833.833 0 00-.833.833v3.333c0 .46.373.834.833.834h3.333c.46 0 .834-.373.834-.834V22.5a.833.833 0 00-.834-.833zM17.5 25h-1.667v-1.667H17.5V25z" fill="url(#paint7_linear)"/><path d="M26.667 21.667h-3.334a.833.833 0 00-.833.833v3.333c0 .46.373.834.833.834h3.334c.46 0 .833-.373.833-.834V22.5a.833.833 0 00-.833-.833zM25.833 25h-1.666v-1.667h1.666V25z" fill="url(#paint8_linear)"/><path d="M35 30h-3.333a.833.833 0 00-.834.833v3.334c0 .46.373.833.834.833H35c.46 0 .833-.373.833-.833v-3.334A.833.833 0 0035 30zm-.833 3.333H32.5v-1.666h1.667v1.666z" fill="url(#paint9_linear)"/><path d="M35 38.333h-3.333a.833.833 0 00-.834.834V42.5c0 .46.373.833.834.833H35c.46 0 .833-.373.833-.833v-3.333a.833.833 0 00-.833-.834zm-.833 3.334H32.5V40h1.667v1.667z" fill="url(#paint10_linear)"/><path d="M35 21.667h-3.333a.833.833 0 00-.834.833v3.333c0 .46.373.834.834.834H35c.46 0 .833-.373.833-.834V22.5a.833.833 0 00-.833-.833zM34.167 25H32.5v-1.667h1.667V25z" fill="url(#paint11_linear)"/><path d="M10 21.667H6.667a.833.833 0 00-.834.833v3.333c0 .46.373.834.834.834H10c.46 0 .833-.373.833-.834V22.5a.833.833 0 00-.833-.833zM9.167 25H7.5v-1.667h1.667V25z" fill="url(#paint12_linear)"/><defs><linearGradient id="paint0_linear" x1="25" y1="0" x2="25" y2="50" gradientUnits="userSpaceOnUse"><stop stop-color="#1F1E1B"/><stop offset="1" stop-color="#505050"/></linearGradient><linearGradient id="paint1_linear" x1="16.667" y1="30" x2="16.667" y2="35" gradientUnits="userSpaceOnUse"><stop stop-color="#1F1E1B"/><stop offset="1" stop-color="#505050"/></linearGradient><linearGradient id="paint2_linear" x1="25" y1="30" x2="25" y2="35" gradientUnits="userSpaceOnUse"><stop stop-color="#1F1E1B"/><stop offset="1" stop-color="#505050"/></linearGradient><linearGradient id="paint3_linear" x1="8.333" y1="30" x2="8.333" y2="35" gradientUnits="userSpaceOnUse"><stop stop-color="#1F1E1B"/><stop offset="1" stop-color="#505050"/></linearGradient><linearGradient id="paint4_linear" x1="16.667" y1="38.333" x2="16.667" y2="43.333" gradientUnits="userSpaceOnUse"><stop stop-color="#1F1E1B"/><stop offset="1" stop-color="#505050"/></linearGradient><linearGradient id="paint5_linear" x1="25" y1="38.333" x2="25" y2="43.333" gradientUnits="userSpaceOnUse"><stop stop-color="#1F1E1B"/><stop offset="1" stop-color="#505050"/></linearGradient><linearGradient id="paint6_linear" x1="8.333" y1="38.333" x2="8.333" y2="43.333" gradientUnits="userSpaceOnUse"><stop stop-color="#1F1E1B"/><stop offset="1" stop-color="#505050"/></linearGradient><linearGradient id="paint7_linear" x1="16.667" y1="21.667" x2="16.667" y2="26.667" gradientUnits="userSpaceOnUse"><stop stop-color="#1F1E1B"/><stop offset="1" stop-color="#505050"/></linearGradient><linearGradient id="paint8_linear" x1="25" y1="21.667" x2="25" y2="26.667" gradientUnits="userSpaceOnUse"><stop stop-color="#1F1E1B"/><stop offset="1" stop-color="#505050"/></linearGradient><linearGradient id="paint9_linear" x1="33.333" y1="30" x2="33.333" y2="35" gradientUnits="userSpaceOnUse"><stop stop-color="#1F1E1B"/><stop offset="1" stop-color="#505050"/></linearGradient><linearGradient id="paint10_linear" x1="33.333" y1="38.333" x2="33.333" y2="43.333" gradientUnits="userSpaceOnUse"><stop stop-color="#1F1E1B"/><stop offset="1" stop-color="#505050"/></linearGradient><linearGradient id="paint11_linear" x1="33.333" y1="21.667" x2="33.333" y2="26.667" gradientUnits="userSpaceOnUse"><stop stop-color="#1F1E1B"/><stop offset="1" stop-color="#505050"/></linearGradient><linearGradient id="paint12_linear" x1="8.333" y1="21.667" x2="8.333" y2="26.667" gradientUnits="userSpaceOnUse"><stop stop-color="#1F1E1B"/><stop offset="1" stop-color="#505050"/></linearGradient></defs></svg>