<svg width="50" height="50" fill="none" xmlns="http://www.w3.org/2000/svg"><g clip-path="url(#clip0)"><path fill="#FD9800" d="M28 38h6v11h-6z"/><path d="M49.166 29.167H46.61L45 5.777A.834.834 0 0044.166 5h-5a.834.834 0 00-.833.777l-1.61 23.39H35v-5a.834.834 0 00-1.354-.65l-6.98 5.582v-4.932a.834.834 0 00-1.354-.65l-6.979 5.582v-4.932a.833.833 0 00-1.354-.65L10 29.098v-4.932a.834.834 0 00-1.263-.714l-8.333 5a.833.833 0 00-.404.714v20c0 .46.373.833.833.833h48.333c.46 0 .834-.373.834-.833V30a.833.833 0 00-.834-.833zm-9.221-22.5h3.443l1.552 22.5h-6.548l1.552-22.5zM28.332 48.333v-10h5v10h-5zm20 0H35V37.5a.834.834 0 00-.834-.833H27.5a.833.833 0 00-.834.833v10.833h-25V29.64l6.667-4v5.194a.834.834 0 001.354.651l6.98-5.583v4.932a.834.834 0 001.354.652L25 25.9v4.933a.833.833 0 001.354.65l6.979-5.583V30c0 .46.373.833.833.833h14.167v17.5z" fill="url(#paint0_linear)"/><path d="M28.328 1.667c.303.162.576.374.81.627.467.57 1.132.94 1.862 1.04a3.042 3.042 0 001.964-1.084c.21-.221.447-.417.703-.583.172.008.62.428.862.654.45.556 1.096.919 1.804 1.013a3.254 3.254 0 002.094-1.149c.204-.191.513-.482.573-.518.447 0 .55.148.825.545a2.107 2.107 0 001.842 1.122.833.833 0 000-1.667c-.167 0-.2-.012-.47-.402A2.463 2.463 0 0039 0a2.676 2.676 0 00-1.715.97c-.276.261-.74.697-.916.701a3.4 3.4 0 01-.702-.565 3.092 3.092 0 00-2-1.106 2.889 2.889 0 00-1.843 1.03 3.463 3.463 0 01-.8.637 3.242 3.242 0 01-.75-.592A3.023 3.023 0 0028.334 0a.834.834 0 00-.006 1.667z" fill="url(#paint1_linear)"/><path d="M9.167 38.333H5.833a.833.833 0 00-.833.833v5c0 .46.373.834.833.834h3.334c.46 0 .833-.373.833-.834v-5a.833.833 0 00-.833-.833zm-.834 5H6.667V40h1.666v3.333z" fill="url(#paint2_linear)"/><path d="M15.834 38.333H12.5a.833.833 0 00-.833.833v5c0 .46.373.834.833.834h3.334c.46 0 .833-.373.833-.834v-5a.833.833 0 00-.833-.833zm-.834 5h-1.666V40H15v3.333z" fill="url(#paint3_linear)"/><path d="M22.5 38.333h-3.334a.833.833 0 00-.833.833v5c0 .46.373.834.833.834H22.5c.46 0 .833-.373.833-.834v-5a.833.833 0 00-.833-.833zm-.834 5H20V40h1.666v3.333z" fill="url(#paint4_linear)"/></g><defs><linearGradient id="paint0_linear" x1="25" y1="5" x2="25" y2="50" gradientUnits="userSpaceOnUse"><stop stop-color="#1F1E1B"/><stop offset="1" stop-color="#505050"/></linearGradient><linearGradient id="paint1_linear" x1="34.999" y1="0" x2="34.999" y2="3.334" gradientUnits="userSpaceOnUse"><stop stop-color="#1F1E1B"/><stop offset="1" stop-color="#505050"/></linearGradient><linearGradient id="paint2_linear" x1="7.5" y1="38.333" x2="7.5" y2="45" gradientUnits="userSpaceOnUse"><stop stop-color="#1F1E1B"/><stop offset="1" stop-color="#505050"/></linearGradient><linearGradient id="paint3_linear" x1="14.167" y1="38.333" x2="14.167" y2="45" gradientUnits="userSpaceOnUse"><stop stop-color="#1F1E1B"/><stop offset="1" stop-color="#505050"/></linearGradient><linearGradient id="paint4_linear" x1="20.833" y1="38.333" x2="20.833" y2="45" gradientUnits="userSpaceOnUse"><stop stop-color="#1F1E1B"/><stop offset="1" stop-color="#505050"/></linearGradient><clipPath id="clip0"><path fill="#fff" d="M0 0h50v50H0z"/></clipPath></defs></svg>