<svg width="50" height="50" fill="none" xmlns="http://www.w3.org/2000/svg"><path fill="#FD9800" d="M37 20h11v29H37z"/><path d="M10 22.5H5.833a.833.833 0 100 1.667H10a.833.833 0 100-1.667z" fill="url(#paint0_linear)"/><path d="M10 25.833H5.833a.833.833 0 100 1.667H10a.833.833 0 000-1.667z" fill="url(#paint1_linear)"/><path d="M10 29.167H5.833a.833.833 0 000 1.666H10a.833.833 0 000-1.666z" fill="url(#paint2_linear)"/><path d="M10 32.5H5.833a.833.833 0 100 1.667H10a.833.833 0 100-1.667z" fill="url(#paint3_linear)"/><path d="M10 35.833H5.833a.833.833 0 100 1.667H10a.833.833 0 000-1.667z" fill="url(#paint4_linear)"/><path d="M10 39.167H5.833a.833.833 0 000 1.666H10a.833.833 0 100-1.666z" fill="url(#paint5_linear)"/><path d="M10 42.5H5.833a.833.833 0 100 1.667H10a.833.833 0 100-1.667z" fill="url(#paint6_linear)"/><path d="M10 45.833H5.833a.833.833 0 100 1.667H10a.833.833 0 000-1.667z" fill="url(#paint7_linear)"/><path d="M47.5 19.167h-10v-8.334a.833.833 0 00-.833-.833H32.5V5.833A.833.833 0 0031.667 5h-5.833V0h-1.667v5h-5.833a.833.833 0 00-.834.833V10h-4.166a.833.833 0 00-.834.833v8.334h-10a.833.833 0 00-.833.833v29.167c0 .46.373.833.833.833h45c.46 0 .834-.373.834-.833V20a.833.833 0 00-.834-.833zm-35 29.166H3.334v-27.5H12.5v27.5zm6.667-41.666h11.667V10H19.167V6.667zM35.834 20v28.333H14.167V11.667h21.667V20zm10.833 28.333H37.5v-27.5h9.167v27.5z" fill="url(#paint8_linear)"/><path d="M44.167 23.333a.833.833 0 00-.833.834v21.682a.833.833 0 001.667 0V24.167a.833.833 0 00-.834-.834z" fill="url(#paint9_linear)"/><path d="M40 23.333a.833.833 0 00-.833.834v21.682a.833.833 0 001.667 0V24.167a.833.833 0 00-.834-.834z" fill="url(#paint10_linear)"/><path d="M22.5 40h-5.834a.833.833 0 00-.833.833v5c0 .46.373.834.833.834H22.5c.46 0 .833-.373.833-.834v-5A.833.833 0 0022.5 40zm-.834 5H17.5v-3.333h4.166V45z" fill="url(#paint11_linear)"/><path d="M22.5 31.667h-5.834a.833.833 0 00-.833.833v5c0 .46.373.833.833.833H22.5c.46 0 .833-.373.833-.833v-5a.833.833 0 00-.833-.833zm-.834 5H17.5v-3.334h4.166v3.334z" fill="url(#paint12_linear)"/><path d="M22.5 23.333h-5.834a.833.833 0 00-.833.834v5c0 .46.373.833.833.833H22.5c.46 0 .833-.373.833-.833v-5a.833.833 0 00-.833-.834zm-.834 5H17.5V25h4.166v3.333z" fill="url(#paint13_linear)"/><path d="M22.5 15h-5.834a.833.833 0 00-.833.833v5c0 .46.373.834.833.834H22.5c.46 0 .833-.373.833-.834v-5A.833.833 0 0022.5 15zm-.834 5H17.5v-3.333h4.166V20z" fill="url(#paint14_linear)"/><path d="M33.334 40H27.5a.833.833 0 00-.833.833v5c0 .46.373.834.833.834h5.834c.46 0 .833-.373.833-.834v-5a.833.833 0 00-.833-.833zm-.834 5h-4.166v-3.333H32.5V45z" fill="url(#paint15_linear)"/><path d="M33.334 31.667H27.5a.833.833 0 00-.833.833v5c0 .46.373.833.833.833h5.834c.46 0 .833-.373.833-.833v-5a.833.833 0 00-.833-.833zm-.834 5h-4.166v-3.334H32.5v3.334z" fill="url(#paint16_linear)"/><path d="M33.334 23.333H27.5a.833.833 0 00-.833.834v5c0 .46.373.833.833.833h5.834c.46 0 .833-.373.833-.833v-5a.833.833 0 00-.833-.834zm-.834 5h-4.166V25H32.5v3.333z" fill="url(#paint17_linear)"/><path d="M33.334 15H27.5a.833.833 0 00-.833.833v5c0 .46.373.834.833.834h5.834c.46 0 .833-.373.833-.834v-5a.833.833 0 00-.833-.833zm-.834 5h-4.166v-3.333H32.5V20z" fill="url(#paint18_linear)"/><defs><linearGradient id="paint0_linear" x1="7.917" y1="22.5" x2="7.917" y2="24.167" gradientUnits="userSpaceOnUse"><stop stop-color="#1F1E1B"/><stop offset="1" stop-color="#505050"/></linearGradient><linearGradient id="paint1_linear" x1="7.917" y1="25.833" x2="7.917" y2="27.5" gradientUnits="userSpaceOnUse"><stop stop-color="#1F1E1B"/><stop offset="1" stop-color="#505050"/></linearGradient><linearGradient id="paint2_linear" x1="7.917" y1="29.167" x2="7.917" y2="30.833" gradientUnits="userSpaceOnUse"><stop stop-color="#1F1E1B"/><stop offset="1" stop-color="#505050"/></linearGradient><linearGradient id="paint3_linear" x1="7.917" y1="32.5" x2="7.917" y2="34.167" gradientUnits="userSpaceOnUse"><stop stop-color="#1F1E1B"/><stop offset="1" stop-color="#505050"/></linearGradient><linearGradient id="paint4_linear" x1="7.917" y1="35.833" x2="7.917" y2="37.5" gradientUnits="userSpaceOnUse"><stop stop-color="#1F1E1B"/><stop offset="1" stop-color="#505050"/></linearGradient><linearGradient id="paint5_linear" x1="7.917" y1="39.167" x2="7.917" y2="40.833" gradientUnits="userSpaceOnUse"><stop stop-color="#1F1E1B"/><stop offset="1" stop-color="#505050"/></linearGradient><linearGradient id="paint6_linear" x1="7.917" y1="42.5" x2="7.917" y2="44.167" gradientUnits="userSpaceOnUse"><stop stop-color="#1F1E1B"/><stop offset="1" stop-color="#505050"/></linearGradient><linearGradient id="paint7_linear" x1="7.917" y1="45.833" x2="7.917" y2="47.5" gradientUnits="userSpaceOnUse"><stop stop-color="#1F1E1B"/><stop offset="1" stop-color="#505050"/></linearGradient><linearGradient id="paint8_linear" x1="25" y1="0" x2="25" y2="50" gradientUnits="userSpaceOnUse"><stop stop-color="#1F1E1B"/><stop offset="1" stop-color="#505050"/></linearGradient><linearGradient id="paint9_linear" x1="44.167" y1="23.333" x2="44.167" y2="46.682" gradientUnits="userSpaceOnUse"><stop stop-color="#1F1E1B"/><stop offset="1" stop-color="#505050"/></linearGradient><linearGradient id="paint10_linear" x1="40" y1="23.333" x2="40" y2="46.682" gradientUnits="userSpaceOnUse"><stop stop-color="#1F1E1B"/><stop offset="1" stop-color="#505050"/></linearGradient><linearGradient id="paint11_linear" x1="19.583" y1="40" x2="19.583" y2="46.667" gradientUnits="userSpaceOnUse"><stop stop-color="#1F1E1B"/><stop offset="1" stop-color="#505050"/></linearGradient><linearGradient id="paint12_linear" x1="19.583" y1="31.667" x2="19.583" y2="38.333" gradientUnits="userSpaceOnUse"><stop stop-color="#1F1E1B"/><stop offset="1" stop-color="#505050"/></linearGradient><linearGradient id="paint13_linear" x1="19.583" y1="23.333" x2="19.583" y2="30" gradientUnits="userSpaceOnUse"><stop stop-color="#1F1E1B"/><stop offset="1" stop-color="#505050"/></linearGradient><linearGradient id="paint14_linear" x1="19.583" y1="15" x2="19.583" y2="21.667" gradientUnits="userSpaceOnUse"><stop stop-color="#1F1E1B"/><stop offset="1" stop-color="#505050"/></linearGradient><linearGradient id="paint15_linear" x1="30.417" y1="40" x2="30.417" y2="46.667" gradientUnits="userSpaceOnUse"><stop stop-color="#1F1E1B"/><stop offset="1" stop-color="#505050"/></linearGradient><linearGradient id="paint16_linear" x1="30.417" y1="31.667" x2="30.417" y2="38.333" gradientUnits="userSpaceOnUse"><stop stop-color="#1F1E1B"/><stop offset="1" stop-color="#505050"/></linearGradient><linearGradient id="paint17_linear" x1="30.417" y1="23.333" x2="30.417" y2="30" gradientUnits="userSpaceOnUse"><stop stop-color="#1F1E1B"/><stop offset="1" stop-color="#505050"/></linearGradient><linearGradient id="paint18_linear" x1="30.417" y1="15" x2="30.417" y2="21.667" gradientUnits="userSpaceOnUse"><stop stop-color="#1F1E1B"/><stop offset="1" stop-color="#505050"/></linearGradient></defs></svg>