<svg width="50" height="50" fill="none" xmlns="http://www.w3.org/2000/svg"><g clip-path="url(#clip0)"><path fill="#FD9800" d="M17 32h16v14H17z"/><path d="M49.138 27.586h-.862V15.517a.862.862 0 00-.862-.862H34.483V3.448a.862.862 0 00-.862-.862H16.379a.862.862 0 00-.862.862v11.207H2.587a.862.862 0 00-.863.862v12.07H.862a.862.862 0 00-.862.861v18.104c0 .476.386.862.862.862h48.276a.862.862 0 00.862-.862V28.448a.862.862 0 00-.862-.862zM17.24 4.31h15.52v10.345H17.24V4.31zM3.448 16.38h43.103v11.206H3.449V16.38zm29.31 29.31H17.242V32.759H32.76v12.93zm15.518 0H34.483V31.897a.862.862 0 00-.862-.863H16.379a.862.862 0 00-.862.863V45.69H1.724V29.31h46.552v16.38z" fill="url(#paint0_linear)"/><path d="M26.724 6.035V8.62h-2.586V6.035h-1.724v6.896h1.724v-2.586h2.586v2.586h1.724V6.035h-1.724z" fill="url(#paint1_linear)"/><path d="M12.931 18.103H6.035a.862.862 0 00-.862.862V25c0 .476.386.862.862.862h6.896a.862.862 0 00.863-.862v-6.035a.862.862 0 00-.863-.862zm-.862 6.035H6.897v-4.31h5.172v4.31z" fill="url(#paint2_linear)"/><path d="M23.276 18.103H16.38a.862.862 0 00-.862.862V25c0 .476.386.862.862.862h6.896a.862.862 0 00.862-.862v-6.035a.862.862 0 00-.862-.862zm-.862 6.035h-5.172v-4.31h5.172v4.31z" fill="url(#paint3_linear)"/><path d="M33.621 18.103h-6.897a.862.862 0 00-.862.862V25c0 .476.386.862.862.862h6.897a.862.862 0 00.862-.862v-6.035a.862.862 0 00-.862-.862zm-.862 6.035h-5.173v-4.31h5.173v4.31z" fill="url(#paint4_linear)"/><path d="M43.966 18.103h-6.897a.862.862 0 00-.862.862V25c0 .476.386.862.862.862h6.897a.862.862 0 00.862-.862v-6.035a.862.862 0 00-.862-.862zm-.862 6.035H37.93v-4.31h5.173v4.31z" fill="url(#paint5_linear)"/></g><defs><linearGradient id="paint0_linear" x1="25" y1="2.586" x2="25" y2="47.414" gradientUnits="userSpaceOnUse"><stop stop-color="#1F1E1B"/><stop offset="1" stop-color="#505050"/></linearGradient><linearGradient id="paint1_linear" x1="25.431" y1="6.035" x2="25.431" y2="12.931" gradientUnits="userSpaceOnUse"><stop stop-color="#1F1E1B"/><stop offset="1" stop-color="#505050"/></linearGradient><linearGradient id="paint2_linear" x1="9.483" y1="18.103" x2="9.483" y2="25.862" gradientUnits="userSpaceOnUse"><stop stop-color="#1F1E1B"/><stop offset="1" stop-color="#505050"/></linearGradient><linearGradient id="paint3_linear" x1="19.828" y1="18.103" x2="19.828" y2="25.862" gradientUnits="userSpaceOnUse"><stop stop-color="#1F1E1B"/><stop offset="1" stop-color="#505050"/></linearGradient><linearGradient id="paint4_linear" x1="30.173" y1="18.103" x2="30.173" y2="25.862" gradientUnits="userSpaceOnUse"><stop stop-color="#1F1E1B"/><stop offset="1" stop-color="#505050"/></linearGradient><linearGradient id="paint5_linear" x1="40.517" y1="18.103" x2="40.517" y2="25.862" gradientUnits="userSpaceOnUse"><stop stop-color="#1F1E1B"/><stop offset="1" stop-color="#505050"/></linearGradient><clipPath id="clip0"><path fill="#fff" d="M0 0h50v50H0z"/></clipPath></defs></svg>