<svg width="50" height="50" fill="none" xmlns="http://www.w3.org/2000/svg"><path fill="#FD9800" d="M29 26h4v8h-4zM17 37h4v8h-4z"/><path d="M47.463 48.336h-1.664V10.898a.832.832 0 00-.832-.832H42.47v-4.16a.832.832 0 00-.832-.832h-5.824V0H34.15v5.074h-5.823a.832.832 0 00-.832.832v4.16H25a.832.832 0 00-.832.832v8.32H5.033a.832.832 0 00-.832.831v28.287H2.537a.832.832 0 000 1.664h44.926a.832.832 0 000-1.664zm-23.295 0H5.865V20.881h18.303v27.455zM29.16 6.738h11.647v3.328H29.16V6.738zm14.975 41.598H25.832V11.729h18.303v36.607z" fill="url(#paint0_linear)"/><path d="M33.32 13.394h-4.992a.832.832 0 00-.832.832v8.32c0 .459.373.831.832.831h4.992c.46 0 .832-.372.832-.832v-8.32a.832.832 0 00-.832-.831zm-.832 8.32H29.16v-6.656h3.328v6.655z" fill="url(#paint1_linear)"/><path d="M41.64 13.394h-4.993a.832.832 0 00-.832.832v8.32c0 .459.373.831.832.831h4.992c.46 0 .832-.372.832-.832v-8.32a.832.832 0 00-.832-.831zm-.833 8.32H37.48v-6.656h3.328v6.655z" fill="url(#paint2_linear)"/><path d="M33.32 25.041h-4.992a.832.832 0 00-.832.832v8.32c0 .46.373.832.832.832h4.992c.46 0 .832-.373.832-.832v-8.32a.832.832 0 00-.832-.832zm-.832 8.32H29.16v-6.656h3.328v6.656z" fill="url(#paint3_linear)"/><path d="M41.64 25.041h-4.993a.832.832 0 00-.832.832v8.32c0 .46.373.832.832.832h4.992c.46 0 .832-.373.832-.832v-8.32a.832.832 0 00-.832-.832zm-.833 8.32H37.48v-6.656h3.328v6.656z" fill="url(#paint4_linear)"/><path d="M33.32 36.689h-4.992a.832.832 0 00-.832.831v8.32c0 .46.373.832.832.832h4.992c.46 0 .832-.372.832-.832v-8.32a.832.832 0 00-.832-.831zm-.832 8.32H29.16v-6.657h3.328v6.656z" fill="url(#paint5_linear)"/><path d="M41.64 36.689h-4.993a.832.832 0 00-.832.831v8.32c0 .46.373.832.832.832h4.992c.46 0 .832-.372.832-.832v-8.32a.832.832 0 00-.832-.831zm-.833 8.32H37.48v-6.657h3.328v6.656z" fill="url(#paint6_linear)"/><path d="M13.353 35.857H8.361a.832.832 0 00-.832.832v8.32c0 .459.373.831.832.831h4.992c.46 0 .832-.372.832-.832v-8.32a.832.832 0 00-.832-.831zm-.832 8.32H9.193V37.52h3.328v6.655z" fill="url(#paint7_linear)"/><path d="M21.672 35.857h-4.991a.832.832 0 00-.832.832v8.32c0 .459.372.831.832.831h4.991c.46 0 .832-.372.832-.832v-8.32a.832.832 0 00-.832-.831zm-.832 8.32h-3.327V37.52h3.327v6.655z" fill="url(#paint8_linear)"/><path d="M13.353 23.377H8.361a.832.832 0 00-.832.832v8.32c0 .46.373.832.832.832h4.992c.46 0 .832-.373.832-.832v-8.32a.832.832 0 00-.832-.832zm-.832 8.32H9.193V25.04h3.328v6.656z" fill="url(#paint9_linear)"/><path d="M21.672 23.377h-4.991a.832.832 0 00-.832.832v8.32c0 .46.372.832.832.832h4.991c.46 0 .832-.373.832-.832v-8.32a.832.832 0 00-.832-.832zm-.832 8.32h-3.327V25.04h3.327v6.656z" fill="url(#paint10_linear)"/><defs><linearGradient id="paint0_linear" x1="25" y1="0" x2="25" y2="50" gradientUnits="userSpaceOnUse"><stop stop-color="#1F1E1B"/><stop offset="1" stop-color="#505050"/></linearGradient><linearGradient id="paint1_linear" x1="30.824" y1="13.394" x2="30.824" y2="23.377" gradientUnits="userSpaceOnUse"><stop stop-color="#1F1E1B"/><stop offset="1" stop-color="#505050"/></linearGradient><linearGradient id="paint2_linear" x1="39.143" y1="13.394" x2="39.143" y2="23.377" gradientUnits="userSpaceOnUse"><stop stop-color="#1F1E1B"/><stop offset="1" stop-color="#505050"/></linearGradient><linearGradient id="paint3_linear" x1="30.824" y1="25.041" x2="30.824" y2="35.025" gradientUnits="userSpaceOnUse"><stop stop-color="#1F1E1B"/><stop offset="1" stop-color="#505050"/></linearGradient><linearGradient id="paint4_linear" x1="39.143" y1="25.041" x2="39.143" y2="35.025" gradientUnits="userSpaceOnUse"><stop stop-color="#1F1E1B"/><stop offset="1" stop-color="#505050"/></linearGradient><linearGradient id="paint5_linear" x1="30.824" y1="36.689" x2="30.824" y2="46.672" gradientUnits="userSpaceOnUse"><stop stop-color="#1F1E1B"/><stop offset="1" stop-color="#505050"/></linearGradient><linearGradient id="paint6_linear" x1="39.143" y1="36.689" x2="39.143" y2="46.672" gradientUnits="userSpaceOnUse"><stop stop-color="#1F1E1B"/><stop offset="1" stop-color="#505050"/></linearGradient><linearGradient id="paint7_linear" x1="10.857" y1="35.857" x2="10.857" y2="45.84" gradientUnits="userSpaceOnUse"><stop stop-color="#1F1E1B"/><stop offset="1" stop-color="#505050"/></linearGradient><linearGradient id="paint8_linear" x1="19.177" y1="35.857" x2="19.177" y2="45.84" gradientUnits="userSpaceOnUse"><stop stop-color="#1F1E1B"/><stop offset="1" stop-color="#505050"/></linearGradient><linearGradient id="paint9_linear" x1="10.857" y1="23.377" x2="10.857" y2="33.361" gradientUnits="userSpaceOnUse"><stop stop-color="#1F1E1B"/><stop offset="1" stop-color="#505050"/></linearGradient><linearGradient id="paint10_linear" x1="19.177" y1="23.377" x2="19.177" y2="33.361" gradientUnits="userSpaceOnUse"><stop stop-color="#1F1E1B"/><stop offset="1" stop-color="#505050"/></linearGradient></defs></svg>