<svg width="50" height="50" fill="none" xmlns="http://www.w3.org/2000/svg"><g clip-path="url(#clip0)"><path d="M43.012 22.48a1.6 1.6 0 01-.975-.976l-.19-.536H33.96l-.19.536a1.6 1.6 0 01-.976.975l-.536.19v22.403l.536.19a1.6 1.6 0 01.975.976l.19.536h7.887l.19-.536a1.6 1.6 0 01.975-.975l.537-.19V22.668l-.536-.19zm-5.109 16.23a4.838 4.838 0 110-9.677 4.838 4.838 0 010 9.677z" fill="#FD9800"/><path d="M35.484 3.226h-13.71v1.613h13.71V3.226z" fill="url(#paint0_linear)"/><path d="M35.484 6.452H25v1.613h10.484V6.452z" fill="url(#paint1_linear)"/><path d="M22.58 32.258H3.227v7.258H22.58v-7.258zm-1.612 5.645H4.838v-4.032h16.13v4.032z" fill="url(#paint2_linear)"/><path d="M50 14.517H38.71V.001H0v50h46.774v-3.226H50V14.517zM1.613 48.387V1.615h35.484v12.903h-1.613v-3.226H3.226v17.742h25.806v12.903H3.226v1.613h25.806v1.613h-4.838v1.613h4.838v1.613H1.612zm27.42-30.644v9.677h-2.42V16.13h5.645v1.613h-3.226zM25 12.904v1.613h-2.42v-1.613H25zm-4.032 1.613H4.838v-1.613h16.13v1.613zM4.838 16.13h16.13v11.29H4.838V16.13zm17.743 0H25v11.29h-2.42V16.13zm9.677-1.613h-5.645v-1.613h7.258v1.613h-1.613zm12.903 33.87H30.645v-29.03h14.516v29.032zm3.226-3.225h-1.613v-27.42H33.871V16.13h14.516v29.032z" fill="url(#paint3_linear)"/><path d="M37.903 39.516a5.651 5.651 0 005.645-5.645 5.651 5.651 0 00-5.645-5.645 5.651 5.651 0 00-5.645 5.645 5.651 5.651 0 005.645 5.645zm0-9.677a4.037 4.037 0 014.032 4.032 4.037 4.037 0 01-4.032 4.033 4.037 4.037 0 01-4.032-4.033 4.037 4.037 0 014.032-4.032z" fill="url(#paint4_linear)"/></g><defs><linearGradient id="paint0_linear" x1="28.629" y1="3.226" x2="28.629" y2="4.839" gradientUnits="userSpaceOnUse"><stop stop-color="#1F1E1B"/><stop offset="1" stop-color="#505050"/></linearGradient><linearGradient id="paint1_linear" x1="30.242" y1="6.452" x2="30.242" y2="8.065" gradientUnits="userSpaceOnUse"><stop stop-color="#1F1E1B"/><stop offset="1" stop-color="#505050"/></linearGradient><linearGradient id="paint2_linear" x1="12.903" y1="32.258" x2="12.903" y2="39.516" gradientUnits="userSpaceOnUse"><stop stop-color="#1F1E1B"/><stop offset="1" stop-color="#505050"/></linearGradient><linearGradient id="paint3_linear" x1="25" y1=".001" x2="25" y2="50.001" gradientUnits="userSpaceOnUse"><stop stop-color="#1F1E1B"/><stop offset="1" stop-color="#505050"/></linearGradient><linearGradient id="paint4_linear" x1="37.903" y1="28.226" x2="37.903" y2="39.516" gradientUnits="userSpaceOnUse"><stop stop-color="#1F1E1B"/><stop offset="1" stop-color="#505050"/></linearGradient><clipPath id="clip0"><path fill="#fff" d="M0 0h50v50H0z"/></clipPath></defs></svg>