<svg width="50" height="50" fill="none" xmlns="http://www.w3.org/2000/svg"><path d="M11.29 17.742a4.032 4.032 0 100-8.065 4.032 4.032 0 000 8.065z" fill="#FD9800"/><path d="M15.033 11.91L14 10.67l-4.271 3.561-1.093-1.092-1.14 1.14 2.133 2.135 5.405-4.504z" fill="url(#paint0_linear)"/><path d="M29.839 11.29H17.742v1.613h12.097V11.29z" fill="url(#paint1_linear)"/><path d="M31.452 14.516h-13.71v1.613h13.71v-1.613z" fill="url(#paint2_linear)"/><path d="M15.033 19.974L14 18.735l-4.271 3.56-1.093-1.091-1.14 1.14 2.133 2.134 5.405-4.504z" fill="url(#paint3_linear)"/><path d="M34.677 19.355H17.742v1.613h16.935v-1.613z" fill="url(#paint4_linear)"/><path d="M20.968 22.58h-3.226v1.614h3.226V22.58z" fill="url(#paint5_linear)"/><path d="M34.677 22.58H22.581v1.614h12.096V22.58z" fill="url(#paint6_linear)"/><path d="M15.033 28.039L14 26.799 9.728 30.36l-1.093-1.092-1.14 1.14 2.133 2.135 5.405-4.504z" fill="url(#paint7_linear)"/><path d="M34.677 27.42H17.742v1.612h16.935V27.42z" fill="url(#paint8_linear)"/><path d="M29.839 30.645H17.742v1.613h12.097v-1.613z" fill="url(#paint9_linear)"/><path d="M34.677 30.645h-3.225v1.613h3.225v-1.613z" fill="url(#paint10_linear)"/><path d="M34.677 11.29h-3.225v1.613h3.225V11.29z" fill="url(#paint11_linear)"/><path d="M47.581 37.097H41.13V4.032A4.037 4.037 0 0037.098 0H4.033A4.037 4.037 0 00.001 4.032a4.037 4.037 0 004.032 4.033V50h33.871v-4.839h3.226v-3.226h6.45a2.422 2.422 0 002.42-2.42 2.422 2.422 0 00-2.42-2.418zM39.517 4.032v33.065h-1.613V6.452h-.807a2.422 2.422 0 01-2.419-2.42 2.422 2.422 0 012.42-2.42 2.423 2.423 0 012.419 2.42zm-37.903 0a2.422 2.422 0 012.42-2.42h29.859a3.99 3.99 0 00-.828 2.42c0 .912.316 1.744.828 2.42H4.033a2.423 2.423 0 01-2.42-2.42zm4.032 44.355V8.064h30.645v29.033H13.58l-7.258 2.42 7.258 2.418h22.711v6.452H5.646zm5.776-8.87l1.482-.495v.988l-1.482-.494zm28.095 4.031h-1.613v-1.613h1.613v1.613zm1.613-3.226H14.517V38.71H41.13v1.613zm3.226 0h-1.613V38.71h1.613v1.613zm3.225 0h-1.613V38.71h1.613a.807.807 0 010 1.613z" fill="url(#paint12_linear)"/><defs><linearGradient id="paint0_linear" x1="11.264" y1="10.671" x2="11.264" y2="16.414" gradientUnits="userSpaceOnUse"><stop stop-color="#1F1E1B"/><stop offset="1" stop-color="#505050"/></linearGradient><linearGradient id="paint1_linear" x1="23.79" y1="11.29" x2="23.79" y2="12.903" gradientUnits="userSpaceOnUse"><stop stop-color="#1F1E1B"/><stop offset="1" stop-color="#505050"/></linearGradient><linearGradient id="paint2_linear" x1="24.597" y1="14.516" x2="24.597" y2="16.129" gradientUnits="userSpaceOnUse"><stop stop-color="#1F1E1B"/><stop offset="1" stop-color="#505050"/></linearGradient><linearGradient id="paint3_linear" x1="11.264" y1="18.735" x2="11.264" y2="24.478" gradientUnits="userSpaceOnUse"><stop stop-color="#1F1E1B"/><stop offset="1" stop-color="#505050"/></linearGradient><linearGradient id="paint4_linear" x1="26.21" y1="19.355" x2="26.21" y2="20.968" gradientUnits="userSpaceOnUse"><stop stop-color="#1F1E1B"/><stop offset="1" stop-color="#505050"/></linearGradient><linearGradient id="paint5_linear" x1="19.355" y1="22.581" x2="19.355" y2="24.194" gradientUnits="userSpaceOnUse"><stop stop-color="#1F1E1B"/><stop offset="1" stop-color="#505050"/></linearGradient><linearGradient id="paint6_linear" x1="28.629" y1="22.581" x2="28.629" y2="24.194" gradientUnits="userSpaceOnUse"><stop stop-color="#1F1E1B"/><stop offset="1" stop-color="#505050"/></linearGradient><linearGradient id="paint7_linear" x1="11.264" y1="26.8" x2="11.264" y2="32.543" gradientUnits="userSpaceOnUse"><stop stop-color="#1F1E1B"/><stop offset="1" stop-color="#505050"/></linearGradient><linearGradient id="paint8_linear" x1="26.21" y1="27.419" x2="26.21" y2="29.032" gradientUnits="userSpaceOnUse"><stop stop-color="#1F1E1B"/><stop offset="1" stop-color="#505050"/></linearGradient><linearGradient id="paint9_linear" x1="23.79" y1="30.645" x2="23.79" y2="32.258" gradientUnits="userSpaceOnUse"><stop stop-color="#1F1E1B"/><stop offset="1" stop-color="#505050"/></linearGradient><linearGradient id="paint10_linear" x1="33.065" y1="30.645" x2="33.065" y2="32.258" gradientUnits="userSpaceOnUse"><stop stop-color="#1F1E1B"/><stop offset="1" stop-color="#505050"/></linearGradient><linearGradient id="paint11_linear" x1="33.065" y1="11.29" x2="33.065" y2="12.903" gradientUnits="userSpaceOnUse"><stop stop-color="#1F1E1B"/><stop offset="1" stop-color="#505050"/></linearGradient><linearGradient id="paint12_linear" x1="25.001" y1="0" x2="25.001" y2="50" gradientUnits="userSpaceOnUse"><stop stop-color="#1F1E1B"/><stop offset="1" stop-color="#505050"/></linearGradient></defs></svg>