<svg width="17" height="20" viewBox="0 0 17 20" fill="none" xmlns="http://www.w3.org/2000/svg">
<path d="M8.5 0C3.825 0 0 3.78571 0 8.5V11C0 11.0714 0 11.0714 0 11.1429C0 11.2143 0 11.3571 0 11.4286C0 13.4286 1.55833 15 3.54167 15C3.96667 15 4.25 14.7143 4.25 14.2857V8.57143C4.25 8.14286 3.96667 7.85714 3.54167 7.85714C2.7625 7.85714 1.98333 8.14286 1.41667 8.57143V8.42857C1.41667 4.57143 4.60417 1.42857 8.5 1.42857C12.3958 1.42857 15.5833 4.57143 15.5833 8.5V8.57143C15.0167 8.14286 14.2375 7.85714 13.4583 7.85714C13.0333 7.85714 12.75 8.14286 12.75 8.57143V14.2857C12.75 14.7143 13.0333 15 13.4583 15C13.9542 15 14.45 14.8571 14.875 14.7143C14.1667 16.2143 12.8917 17.3571 11.3333 18C11.3333 17.9286 11.3333 17.9286 11.3333 17.8571C11.3333 17.4286 11.05 17.1429 10.625 17.1429H8.5C8.075 17.1429 7.79167 17.4286 7.79167 17.8571V19.2857C7.79167 19.7143 8.075 20 8.5 20C13.175 20 17 16.2857 17 11.7143V11V9.28571V8.5C17 3.78571 13.175 0 8.5 0Z" fill="#A4A4A6"/>
</svg>
