<svg width="17" height="17" viewBox="0 0 17 17" fill="none" xmlns="http://www.w3.org/2000/svg">
<path d="M16.027 8.99916V7.05882L14.2707 6.75773C14.1038 5.93476 13.7832 5.17201 13.3358 4.49623L14.3642 3.03763L12.9952 1.66602L11.5394 2.6964C10.865 2.24812 10.1037 1.92027 9.28231 1.75969L8.9818 0H7.0452L6.7447 1.75969C5.92331 1.92696 5.16203 2.24812 4.48756 2.6964L3.03178 1.66602L1.6628 3.03763L2.6912 4.49623C2.24378 5.17201 1.91656 5.93476 1.75629 6.75773L0 7.05882V8.99916L1.75629 9.30025C1.92324 10.1232 2.24378 10.886 2.6912 11.5617L1.6628 13.0203L3.03178 14.392L4.48756 13.3616C5.16203 13.8099 5.92331 14.1377 6.7447 14.2983L7.0452 16.058H8.9818L9.28231 14.2983C10.1037 14.131 10.865 13.8099 11.5394 13.3616L12.9952 14.392L14.3642 13.0203L13.3358 11.5617C13.7832 10.886 14.1104 10.1232 14.2707 9.30025L16.027 8.99916ZM8.0135 11.3142C6.20379 11.3142 4.72797 9.8422 4.72797 8.0223C4.72797 6.20908 6.19711 4.73041 8.0135 4.73041C9.82322 4.73041 11.299 6.20239 11.299 8.0223C11.2924 9.8422 9.82322 11.3142 8.0135 11.3142Z" fill="#A4A4A6"/>
</svg>
