<svg width="17" height="17" viewBox="0 0 17 17" fill="none" xmlns="http://www.w3.org/2000/svg">
<g clip-path="url(#clip0_528_29849)">
<g clip-path="url(#clip1_528_29849)">
<path d="M16.3214 5.19038C15.4252 3.1008 13.9021 1.5811 11.7951 0.682462C10.742 0.233323 9.648 0.00390625 8.49533 0.00390625C7.34289 0.00390625 6.24772 0.231156 5.19578 0.682462C3.10622 1.57871 1.56708 3.09743 0.669222 5.19038C0.219306 6.23893 0 7.33746 0 8.48991C0 9.64257 0.219306 10.7502 0.669222 11.799C1.56708 13.8919 3.10619 15.4198 5.19578 16.3162C6.24772 16.7675 7.34286 16.9946 8.49533 16.9946C9.648 16.9946 10.742 16.7652 11.7951 16.3162C13.9021 15.4176 15.4252 13.8884 16.3214 11.799C16.7728 10.7469 17 9.64257 17 8.48991C17 7.33746 16.7728 6.24249 16.3214 5.19038ZM5.66969 1.58407C4.93542 2.51346 4.39647 3.69388 4.05244 5.12532H1.83103C2.64894 3.53585 4.02469 2.26243 5.66969 1.58407ZM1.03169 8.48991C1.03169 7.6813 1.16178 6.90063 1.41281 6.14771H3.848C3.72722 6.93768 3.67133 7.71857 3.67133 8.48991C3.67133 9.25213 3.72725 10.0237 3.848 10.8137H1.39417C1.15247 10.0608 1.03169 9.2801 1.03169 8.48991ZM1.83103 11.8361H4.05247C4.3965 13.2953 4.93547 14.4943 5.66972 15.4146C3.99672 14.7174 2.621 13.444 1.83103 11.8361ZM7.97483 15.8792C7.37064 15.7027 6.80372 15.2566 6.29256 14.5316C5.78136 13.8065 5.39094 12.905 5.12144 11.8361H7.97483V15.8792ZM7.97483 10.8137H4.88903C4.76808 9.98641 4.70303 9.21485 4.70303 8.48991C4.70303 7.70924 4.76806 6.92838 4.90767 6.14771H7.97481V10.8137H7.97483ZM7.97483 5.12535H5.12144C5.40956 4.06568 5.80217 3.17496 6.31119 2.45774C6.82456 1.73418 7.37067 1.28663 7.97486 1.11927V5.12535H7.97483ZM15.169 5.12535H12.9475C12.6037 3.69388 12.0646 2.51346 11.3303 1.5841C12.9755 2.26243 14.3511 3.53585 15.169 5.12535ZM9.02517 1.11927C9.62936 1.28663 10.1754 1.73418 10.6888 2.45774C11.198 3.17496 11.5904 4.06568 11.8786 5.12535H9.02517V1.11927ZM9.02517 6.14771H12.0923C12.2319 6.92838 12.2969 7.70924 12.2969 8.48991C12.2969 9.21488 12.2319 9.98641 12.1109 10.8137H9.02517V6.14771ZM9.02517 15.8792V11.8361H11.8786C11.5998 12.905 11.2042 13.8029 10.6981 14.5316C10.1909 15.2621 9.63867 15.712 9.02517 15.8792ZM11.3303 15.4146C12.0646 14.4943 12.6037 13.2953 12.9476 11.8361H15.169C14.379 13.444 13.0033 14.7174 11.3303 15.4146ZM15.6058 10.8137H13.152C13.2729 10.0237 13.3287 9.25213 13.3287 8.48991C13.3287 7.71857 13.2729 6.93771 13.152 6.14771H15.5872C15.8382 6.9006 15.9683 7.68127 15.9683 8.48991C15.9683 9.2801 15.8476 10.0608 15.6058 10.8137Z" fill="#A4A4A6"/>
</g>
</g>
<defs>
<clipPath id="clip0_528_29849">
<rect width="17" height="17" fill="white"/>
</clipPath>
<clipPath id="clip1_528_29849">
<rect width="17" height="17" fill="white"/>
</clipPath>
</defs>
</svg>
