<svg width="18" height="20" viewBox="0 0 18 20" fill="none" xmlns="http://www.w3.org/2000/svg">
<path fill-rule="evenodd" clip-rule="evenodd" d="M4 2.5H12C12.8284 2.5 13.5 3.17157 13.5 4V5.32369L16 6.76706V4C16 1.79086 14.2091 0 12 0H4C1.79086 0 0 1.79086 0 4V16C0 18.2091 1.79086 20 4 20H12C14.2091 20 16 18.2091 16 16V13.2329L13.5 14.6763V16C13.5 16.8284 12.8284 17.5 12 17.5H4C3.17157 17.5 2.5 16.8284 2.5 16V4C2.5 3.17157 3.17157 2.5 4 2.5Z" fill="#A4A4A6"/>
<rect x="8" y="9.59766" width="5.6" height="2" fill="#A4A4A6"/>
<path d="M17.5996 10.3984L13.3996 13.8625L13.3996 6.93434L17.5996 10.3984Z" fill="#A4A4A6"/>
</svg>
