<svg width="16" height="18" viewBox="0 0 16 18" fill="none" xmlns="http://www.w3.org/2000/svg">
<path d="M8.00032 4.03117C7.63502 4.03117 7.27792 3.92339 6.97418 3.72144C6.67044 3.51949 6.43371 3.23246 6.29392 2.89664C6.15412 2.56081 6.11754 2.19128 6.18881 1.83477C6.26008 1.47827 6.43599 1.15079 6.69429 0.893764C6.9526 0.636736 7.2817 0.461697 7.63999 0.390783C7.99827 0.319869 8.36964 0.356265 8.70713 0.495368C9.04463 0.63447 9.33309 0.870033 9.53604 1.17227C9.73899 1.4745 9.84731 1.82983 9.84731 2.19332C9.84731 2.68075 9.65272 3.14822 9.30634 3.49288C8.95996 3.83754 8.49017 4.03117 8.00032 4.03117ZM8.00032 1.5807C7.87855 1.5807 7.75952 1.61663 7.65827 1.68395C7.55703 1.75126 7.47811 1.84694 7.43152 1.95888C7.38492 2.07082 7.37273 2.194 7.39648 2.31284C7.42024 2.43167 7.47887 2.54083 7.56498 2.62651C7.65108 2.71218 7.76078 2.77053 7.88021 2.79417C7.99963 2.81781 8.12342 2.80567 8.23592 2.75931C8.34842 2.71294 8.44457 2.63442 8.51222 2.53367C8.57987 2.43293 8.61598 2.31449 8.61598 2.19332C8.61598 2.03085 8.55112 1.87502 8.43566 1.76014C8.3202 1.64525 8.1636 1.5807 8.00032 1.5807Z" fill="#A4A4A6"/>
<path d="M9.84677 13.8319H6.15277C5.98949 13.8319 5.83289 13.8965 5.71743 14.0113C5.60197 14.1262 5.53711 14.2821 5.53711 14.4445V15.0571C5.53711 15.707 5.79657 16.3303 6.25841 16.7899C6.72024 17.2494 7.34663 17.5076 7.99977 17.5076C8.65291 17.5076 9.2793 17.2494 9.74113 16.7899C10.203 16.3303 10.4624 15.707 10.4624 15.0571V14.4445C10.4624 14.2821 10.3976 14.1262 10.2821 14.0113C10.1666 13.8965 10.0101 13.8319 9.84677 13.8319Z" fill="#A4A4A6"/>
<path d="M15.665 13.9031C15.0256 13.5874 14.4877 13.0999 14.1123 12.4958C13.7369 11.8916 13.539 11.195 13.541 10.4847V8.32215C13.541 6.85986 12.9572 5.45747 11.9181 4.42348C10.8789 3.38948 9.46956 2.80859 8 2.80859C6.53044 2.80859 5.12107 3.38948 4.08193 4.42348C3.04279 5.45747 2.45901 6.85986 2.45901 8.32215V10.4847C2.46097 11.195 2.26305 11.8916 1.88767 12.4958C1.51228 13.0999 0.974416 13.5874 0.334968 13.9031C0.212268 13.9656 0.114214 14.0674 0.0565153 14.1919C-0.00118367 14.3165 -0.0151891 14.4568 0.0167427 14.5902C0.0486746 14.7237 0.124696 14.8426 0.232628 14.9279C0.34056 15.0133 0.474157 15.0601 0.612017 15.0609H15.388C15.5258 15.0601 15.6594 15.0133 15.7674 14.9279C15.8753 14.8426 15.9513 14.7237 15.9833 14.5902C16.0152 14.4568 16.0012 14.3165 15.9435 14.1919C15.8858 14.0674 15.7877 13.9656 15.665 13.9031Z" fill="#A4A4A6"/>
</svg>
