<svg width="18" height="18" viewBox="0 0 18 18" fill="none" xmlns="http://www.w3.org/2000/svg">
<path d="M0.563891 14.0634H7.31575C7.62737 14.0634 7.87964 13.8742 7.87964 13.6405V12.7984C7.87964 12.5647 7.62737 12.3755 7.31575 12.3755H0.563891C0.252267 12.3755 0 12.5647 0 12.7984V13.6405C0 13.8742 0.252267 14.0634 0.563891 14.0634ZM0.563891 16.3116H7.31575C7.62737 16.3116 7.87964 16.1224 7.87964 15.8887V15.0465C7.87964 14.8128 7.62737 14.6236 7.31575 14.6236H0.563891C0.252267 14.6236 0 14.8128 0 15.0465V15.8887C0 16.1224 0.252267 16.3116 0.563891 16.3116ZM0.563891 11.8116H7.31575C7.62737 11.8116 7.87964 11.6224 7.87964 11.3887V10.5465C7.87964 10.3128 7.62737 10.1236 7.31575 10.1236H0.563891C0.252267 10.1236 0 10.3128 0 10.5465V11.3887C0 11.6224 0.252267 11.8116 0.563891 11.8116ZM8.97403 11.589C8.98145 11.5222 9 11.4591 9 11.3924V10.5502C9 9.68214 8.25804 9.00325 7.31204 9.00325H5.06018C5.06018 7.44884 6.31781 6.19121 7.87222 6.19121C9.42663 6.19121 10.6843 7.44884 10.6843 9.00325C10.688 10.1607 9.9831 11.1586 8.97403 11.589ZM0 3.93565H15.7519V14.0597H8.93322C8.97403 13.9262 9 13.7852 9 13.6368V12.9319H12.3759C12.3759 11.6892 13.385 10.6801 14.6241 10.6801V7.30415C13.3813 7.30415 12.3759 6.29508 12.3759 5.0523H3.37593C3.37593 6.29508 2.36686 7.30415 1.12407 7.30415V8.99212H0.563891C0.363561 8.99212 0.178071 9.02922 0 9.08486V3.93565ZM18 1.6875V12.9394H16.8759V2.81157H1.12407V1.6875H18Z" fill="#A4A4A6"/>
</svg>
