<svg width="20" height="20" viewBox="0 0 20 20" fill="none" xmlns="http://www.w3.org/2000/svg">
<path d="M19.684 8.07427C19.684 8.07427 18.802 8.71027 18.31 8.92227C17.818 9.13427 17.622 8.75227 17.622 8.75227L15.388 5.35827C15.352 5.17627 15.732 5.02027 15.732 5.02027C15.732 5.02027 16.51 4.40227 16.934 4.17227C17.358 3.94227 17.622 4.34227 17.622 4.34227C17.622 4.34227 19.422 7.16227 19.684 7.56427C19.946 7.96627 19.684 8.07427 19.684 8.07427ZM16.934 8.58227C16.934 8.58227 17.01 8.85427 16.762 9.09027C16.514 9.32627 15.49 10.5063 15.388 10.6163C15.388 10.6163 15.198 10.9143 14.872 10.4463C14.546 9.98027 10.79 6.76227 10.578 6.71627C10.366 6.67027 10.382 6.48227 9.88998 6.71627C9.39798 6.95027 7.31198 7.90427 7.31198 7.90427C7.31198 7.90427 6.68798 8.01827 6.45198 7.56427C6.21798 7.11027 6.50598 6.75627 6.96798 6.54627C7.42998 6.33627 9.37398 5.35827 9.37398 5.35827C9.37398 5.35827 10.228 4.78027 11.436 4.85027C12.644 4.92027 15.388 5.86827 15.388 5.86827L16.934 8.58227ZM5.76798 7.39427C5.96798 8.16227 6.79798 8.41227 6.79798 8.41227L4.39398 10.4483C4.39998 10.4483 4.08198 10.6523 3.67998 10.3083C3.29998 9.98427 2.67598 9.33027 2.67598 9.09227C2.67598 8.85427 5.33198 5.92227 5.08198 6.03827C5.42198 5.88227 7.12598 5.82627 7.14398 6.03827C7.15798 6.25027 5.61398 6.80827 5.76798 7.39427ZM2.67598 8.58227C2.29998 9.10827 1.98798 8.92027 1.98798 8.92027C1.98798 8.92027 1.25798 8.60827 0.613984 8.07227C-0.0300163 7.53627 0.269984 7.22427 0.269984 7.22427C0.269984 7.22427 1.79998 5.12427 2.33198 4.34027C2.86398 3.55627 3.36198 3.83227 3.36198 3.83227C3.36198 3.83227 4.42398 4.75827 4.73598 5.02027C5.04998 5.28227 4.73598 5.69827 4.73598 5.69827C4.73598 5.69827 3.05198 8.05427 2.67598 8.58227ZM6.79798 8.75227C6.79798 8.75227 7.19798 8.39227 7.65798 8.92227C8.10198 9.43427 7.65798 9.77027 7.65798 9.77027L5.59598 11.6363C5.59598 11.6363 5.10598 11.8043 4.73598 11.4683C4.36798 11.1303 4.56398 10.7903 4.56398 10.7903L6.79798 8.75227ZM8.00198 9.93827C8.00198 9.93827 8.40198 9.57627 8.86198 10.1083C9.30598 10.6203 8.86198 10.9563 8.86198 10.9563L6.62598 12.9923C6.62598 12.9923 6.13598 13.1583 5.76798 12.8223C5.39998 12.4863 5.59598 12.1443 5.59598 12.1443L8.00198 9.93827ZM8.68798 11.4663C8.68798 11.4663 9.08798 11.1043 9.54798 11.6343C9.99198 12.1463 9.54798 12.4823 9.54798 12.4823L7.82998 14.1803C7.82998 14.1803 7.33998 14.3483 6.96998 14.0103C6.60198 13.6743 6.79798 13.3323 6.79798 13.3323L8.68798 11.4663ZM9.37598 13.1623C9.37598 13.1623 9.77598 12.8023 10.234 13.3323C10.678 13.8443 10.234 14.1803 10.234 14.1803L9.03198 15.3683C9.03198 15.3683 8.54198 15.5363 8.17198 15.1983C7.80398 14.8623 7.99998 14.5203 7.99998 14.5203L9.37598 13.1623ZM11.266 15.5363C11.196 15.9663 10.406 16.2143 10.406 16.2143L9.54798 15.3663L10.578 14.1783C10.578 14.1803 11.336 15.1083 11.266 15.5363ZM9.88998 12.6523C9.88998 12.6523 9.92998 12.5763 10.062 12.3123C10.194 12.0483 9.76598 11.1663 9.37398 11.1243C9.37398 11.1243 9.15398 11.0483 9.37398 10.7843C9.37398 10.7843 9.04198 9.67227 8.17198 9.59627C8.17198 9.59627 7.78198 8.46427 7.31198 8.40827C7.31198 8.40827 9.79198 7.23027 9.88998 7.22027C9.98598 7.21027 10.266 6.98627 10.578 7.22027C10.578 7.22027 13.802 9.55027 14.358 10.4423C14.914 11.3343 15.904 12.8163 15.904 12.8163C15.904 12.8163 16.116 13.2063 15.388 13.6643C14.66 14.1223 14.358 13.3263 14.358 13.3263L13.328 11.2903C13.328 11.2903 12.73 11.1803 12.984 11.6283C13.238 12.0783 14.358 14.0043 14.358 14.0043C14.358 14.0043 14.584 14.4283 14.186 14.6823C13.788 14.9363 13.526 14.9523 13.156 14.5123C12.786 14.0723 11.954 12.4763 11.954 12.4763C11.954 12.4763 11.422 12.1743 11.61 12.6463C11.798 13.1183 12.812 14.6823 12.812 14.6823C12.812 14.6823 12.768 14.9003 12.296 15.1903C11.824 15.4823 11.608 15.0203 11.608 15.0203C11.608 15.0203 10.418 13.1323 10.234 12.9843C10.052 12.8423 9.88998 12.6523 9.88998 12.6523Z" fill="#A4A4A6"/>
</svg>
