<svg width="220" height="67" viewBox="0 0 220 67" fill="none" xmlns="http://www.w3.org/2000/svg">
<path d="M87.2328 52.9154H83.6939V18.6259H71.3984V15.4023H99.5541V18.6259H87.2328V52.9154Z" fill="white"/>
<path d="M113.115 25.437C119.909 25.437 124.558 31.0003 124.558 39.3972C124.558 47.8201 119.935 53.3574 113.193 53.3574C108.853 53.3574 105.469 50.8617 104.049 47.3522H103.945V61.8582H100.536V25.879H103.765V31.5982H103.868C105.34 28.0107 108.75 25.437 113.115 25.437ZM112.521 50.3158C117.713 50.3158 121.071 46.0003 121.071 39.3972C121.071 32.8201 117.713 28.4786 112.521 28.4786C107.433 28.4786 103.945 32.898 103.945 39.3972C103.945 45.9223 107.433 50.3158 112.521 50.3158Z" fill="white"/>
<path d="M140.238 28.4526C135.433 28.4526 132.101 32.1701 131.817 37.4994H148.4C148.323 32.1701 145.094 28.4526 140.238 28.4526ZM148.194 45.2464H151.578C150.777 49.9258 146.411 53.3574 140.496 53.3574C132.953 53.3574 128.278 48.0541 128.278 39.4752C128.278 31.0783 133.005 25.437 140.289 25.437C147.419 25.437 151.913 30.7143 151.913 38.7733V40.2291H131.791V40.4371C131.791 46.5463 135.227 50.3418 140.574 50.3418C144.629 50.3418 147.445 48.21 148.194 45.2464Z" fill="white"/>
<path d="M175.135 52.9154V40.3331H160.36V52.9154H156.976V25.879H160.36V37.4734H175.135V25.879H178.519V52.9154H175.135Z" fill="white"/>
<path d="M203.368 50.0558V28.7386H191.796C191.719 30.1424 191.047 39.7611 190.892 41.243C190.608 44.8565 189.936 48.0801 188.49 49.8738V50.0558H203.368ZM185.494 60.0645H182.29V50.0558H184.46C186.475 48.73 187.379 45.1424 187.715 41.139C187.844 39.5792 188.697 27.3608 188.774 25.879H206.778V50.0558H211.118V60.0645H207.889V52.9154H185.494V60.0645Z" fill="white"/>
<path d="M218.187 53.1189C217.251 53.1189 216.493 52.3558 216.493 51.4147C216.493 50.4989 217.251 49.7358 218.187 49.7358C219.096 49.7358 219.855 50.4989 219.855 51.4147C219.855 52.3558 219.096 53.1189 218.187 53.1189Z" fill="white"/>
<path d="M32.6078 41.0642C28.3415 41.0485 24.8959 37.6424 24.9119 33.4564C24.9279 29.2705 28.3995 25.8899 32.6658 25.9056C36.9321 25.9213 40.3776 29.3274 40.3616 33.5134C40.3456 37.6993 36.8741 41.0799 32.6078 41.0642ZM32.6597 27.4967C29.289 27.4843 26.5463 30.1553 26.5336 33.4624C26.521 36.7696 29.2432 39.4606 32.6139 39.4731C35.9845 39.4855 38.7273 36.8145 38.7399 33.5074C38.7526 30.2002 36.0304 27.5092 32.6597 27.4967Z" fill="#D9D9D9"/>
<path d="M32.5741 50.2974C28.3078 50.2817 24.8637 46.5054 24.8814 41.8629C24.8992 37.2203 28.3721 33.4695 32.6384 33.4852C36.9047 33.5009 40.3489 37.2772 40.3311 41.9198C40.3134 46.5623 36.8404 50.3131 32.5741 50.2974ZM32.6317 35.2499C29.261 35.2375 26.5171 38.2009 26.5031 41.8688C26.4891 45.5368 29.2102 48.5203 32.5809 48.5327C35.9515 48.5451 38.6954 45.5817 38.7094 41.9138C38.7235 38.2459 36.0024 35.2623 32.6317 35.2499Z" fill="#3BE7A8"/>
<path d="M32.5429 59.3926C28.2765 59.3769 24.8324 55.6006 24.8502 50.9581C24.8679 46.3155 28.3409 42.5647 32.6072 42.5804C36.8735 42.5961 40.3176 46.3724 40.2999 51.015C40.2821 55.6575 36.8092 59.4084 32.5429 59.3926ZM32.6004 44.3451C29.2297 44.3327 26.4859 47.2961 26.4719 50.9641C26.4578 54.632 29.1789 57.6155 32.5496 57.6279C35.9203 57.6404 38.6641 54.677 38.6782 51.009C38.6922 47.3411 35.9711 44.3575 32.6004 44.3451Z" fill="#AC3434"/>
<path d="M32.5101 66.9714C28.2438 66.9557 24.7983 63.5496 24.8143 59.3637C24.8303 55.1778 28.3018 51.7971 32.5681 51.8129C36.8344 51.8286 40.28 55.2347 40.264 59.4206C40.2479 63.6065 36.7764 66.9871 32.5101 66.9714ZM32.562 53.404C29.1913 53.3916 26.4486 56.0625 26.436 59.3696C26.4233 62.6768 29.1455 65.3679 32.5162 65.3803C35.8869 65.3927 38.6296 62.7218 38.6423 59.4146C38.6549 56.1074 35.9327 53.4164 32.562 53.404Z" fill="url(#paint0_linear_0_1)"/>
<path d="M32.6859 15.1882C28.4196 15.1725 24.974 11.7664 24.9901 7.58047C25.0061 3.39455 28.4776 0.0139347 32.7439 0.0296501C37.0102 0.0453656 40.4558 3.45146 40.4397 7.63738C40.4237 11.8233 36.9522 15.2039 32.6859 15.1882ZM32.7378 1.62077C29.3671 1.60835 26.6244 4.27928 26.6117 7.58644C26.5991 10.8936 29.3213 13.5847 32.692 13.5971C36.0627 13.6095 38.8054 10.9386 38.8181 7.6314C38.8307 4.32424 36.1085 1.63319 32.7378 1.62077Z" fill="url(#paint1_linear_0_1)"/>
<path d="M32.6522 24.4214C28.3859 24.4057 24.9418 20.6294 24.9595 15.9869C24.9773 11.3443 28.4502 7.59352 32.7166 7.60924C36.9829 7.62496 40.427 11.4012 40.4092 16.0438C40.3915 20.6864 36.9185 24.4372 32.6522 24.4214ZM32.7098 9.37394C29.3391 9.36152 26.5953 12.3249 26.5812 15.9929C26.5672 19.6608 29.2883 22.6443 32.659 22.6567C36.0297 22.6692 38.7735 19.7058 38.7876 16.0378C38.8016 12.3699 36.0805 9.38635 32.7098 9.37394Z" fill="#AC3434"/>
<path d="M32.621 33.5167C28.3547 33.5009 24.9105 29.7247 24.9283 25.0821C24.9461 20.4395 28.419 16.6887 32.6853 16.7045C36.9516 16.7202 40.3958 20.4965 40.378 25.139C40.3602 29.7816 36.8873 33.5324 32.621 33.5167ZM32.6786 18.4692C29.3079 18.4567 26.564 21.4201 26.55 25.0881C26.5359 28.756 29.257 31.7395 32.6277 31.752C35.9984 31.7644 38.7423 28.801 38.7563 25.133C38.7703 21.4651 36.0492 18.4816 32.6786 18.4692Z" fill="#3BE7A8"/>
<path d="M32.5882 41.0954C28.3219 41.0797 24.8764 37.6736 24.8924 33.4877C24.9084 29.3018 28.3799 25.9212 32.6462 25.9369C36.9126 25.9526 40.3581 29.3587 40.3421 33.5446C40.3261 37.7305 36.8546 41.1111 32.5882 41.0954ZM32.6402 27.528C29.2695 27.5156 26.5267 30.1865 26.5141 33.4937C26.5014 36.8008 29.2236 39.4919 32.5943 39.5043C35.965 39.5167 38.7078 36.8458 38.7204 33.5386C38.7331 30.2315 36.0108 27.5404 32.6402 27.528Z" fill="#D9D9D9"/>
<path d="M38.3583 38.4066C35.5563 41.5632 30.6768 41.8934 27.4596 39.1442C24.2423 36.395 23.9058 31.6074 26.7078 28.4508C29.5098 25.2943 34.3893 24.964 37.6065 27.7132C40.8237 30.4624 41.1603 35.25 38.3583 38.4066ZM27.9307 29.4959C25.7169 31.9898 25.9828 35.7723 28.5246 37.9444C31.0665 40.1164 34.9216 39.8555 37.1354 37.3616C39.3492 34.8677 39.0833 31.0851 36.5414 28.9131C33.9996 26.741 30.1444 27.0019 27.9307 29.4959Z" fill="#D9D9D9"/>
<path d="M45.4535 44.4707C42.6515 47.6273 37.4874 47.7144 33.9193 44.6653C30.3511 41.6162 29.73 36.5855 32.532 33.4289C35.334 30.2723 40.4981 30.1852 44.0662 33.2343C47.6344 36.2834 48.2555 41.3141 45.4535 44.4707ZM33.8883 34.5879C31.6745 37.0818 32.1652 41.0564 34.9843 43.4654C37.8034 45.8745 41.8834 45.8056 44.0972 43.3117C46.311 40.8178 45.8203 36.8432 43.0012 34.4342C40.182 32.0251 36.1021 32.094 33.8883 34.5879Z" fill="#3BE7A8"/>
<path d="M52.4418 50.4448C49.6398 53.6014 44.4757 53.6885 40.9075 50.6394C37.3394 47.5903 36.7183 42.5596 39.5203 39.403C42.3223 36.2464 47.4863 36.1593 51.0545 39.2084C54.6227 42.2575 55.2438 47.2883 52.4418 50.4448ZM40.8766 40.562C38.6628 43.0559 39.1535 47.0305 41.9726 49.4396C44.7917 51.8486 48.8717 51.7797 51.0855 49.2858C53.2993 46.7919 52.8085 42.8173 49.9894 40.4083C47.1703 37.9993 43.0904 38.0681 40.8766 40.562Z" fill="#AC3434"/>
<path d="M58.2685 55.4208C55.4665 58.5773 50.5869 58.9076 47.3697 56.1584C44.1525 53.4092 43.8159 48.6216 46.6179 45.465C49.4199 42.3084 54.2995 41.9782 57.5167 44.7274C60.7339 47.4766 61.0705 52.2642 58.2685 55.4208ZM47.8408 46.51C45.627 49.0039 45.893 52.7865 48.4348 54.9585C50.9766 57.1306 54.8318 56.8697 57.0456 54.3758C59.2594 51.8818 58.9934 48.0993 56.4516 45.9272C53.9098 43.7552 50.0546 44.0161 47.8408 46.51Z" fill="url(#paint2_linear_0_1)"/>
<path d="M19.538 45.4684C16.736 42.3118 11.8565 41.9816 8.63924 44.7308C5.42203 47.48 5.08544 52.2676 7.88745 55.4242C10.6895 58.5807 15.569 58.911 18.7862 56.1618C22.0034 53.4126 22.34 48.625 19.538 45.4684ZM9.11035 54.3791C6.89657 51.8852 7.1625 48.1027 9.70432 45.9306C12.2461 43.7586 16.1013 44.0195 18.3151 46.5134C20.5289 49.0073 20.263 52.7899 17.7211 54.9619C15.1793 57.134 11.3241 56.8731 9.11035 54.3791Z" fill="url(#paint3_linear_0_1)"/>
<path d="M26.6332 39.4043C23.8312 36.2477 18.6671 36.1606 15.0989 39.2097C11.5308 42.2588 10.9097 47.2895 13.7117 50.4461C16.5137 53.6027 21.6777 53.6898 25.2459 50.6407C28.8141 47.5916 29.4352 42.5609 26.6332 39.4043ZM15.068 49.2871C12.8542 46.7932 13.3449 42.8186 16.164 40.4096C18.9831 38.0005 23.0631 38.0694 25.2769 40.5633C27.4907 43.0572 26.9999 47.0318 24.1808 49.4408C21.3617 51.8499 17.2818 51.781 15.068 49.2871Z" fill="#AC3434"/>
<path d="M33.6215 33.4302C30.8195 30.2736 25.6554 30.1865 22.0872 33.2356C18.519 36.2847 17.8979 41.3154 20.7 44.472C23.502 47.6286 28.666 47.7157 32.2342 44.6666C35.8024 41.6175 36.4235 36.5867 33.6215 33.4302ZM22.0563 43.313C19.8425 40.8191 20.3332 36.8445 23.1523 34.4354C25.9714 32.0264 30.0514 32.0953 32.2652 34.5892C34.4789 37.0831 33.9882 41.0577 31.1691 43.4667C28.35 45.8757 24.27 45.8069 22.0563 43.313Z" fill="#3BE7A8"/>
<path d="M39.4482 28.4542C36.6462 25.2977 31.7666 24.9674 28.5494 27.7166C25.3322 30.4658 24.9956 35.2534 27.7976 38.41C30.5996 41.5666 35.4792 41.8968 38.6964 39.1476C41.9136 36.3984 42.2502 31.6108 39.4482 28.4542ZM29.0205 37.365C26.8067 34.8711 27.0727 31.0885 29.6145 28.9165C32.1563 26.7444 36.0115 27.0053 38.2253 29.4992C40.439 31.9932 40.1731 35.7757 37.6313 37.9478C35.0895 40.1198 31.2343 39.8589 29.0205 37.365Z" fill="#3BE7A8"/>
<path d="M39.7474 29.3709C42.1172 32.8517 41.1623 37.5583 37.6147 39.8834C34.067 42.2085 29.27 41.2716 26.9002 37.7908C24.5305 34.31 25.4853 29.6034 29.033 27.2783C32.5806 24.9532 37.3777 25.8901 39.7474 29.3709ZM28.2487 36.907C30.121 39.6571 33.911 40.3973 36.7139 38.5603C39.5168 36.7233 40.2712 33.0048 38.3989 30.2547C36.5266 27.5046 32.7367 26.7644 29.9338 28.6014C27.1309 30.4384 26.3764 34.157 28.2487 36.907Z" fill="#3BE7A8"/>
<path d="M47.5747 24.2434C49.9445 27.7242 48.6759 32.6364 44.7412 35.2152C40.8065 37.7939 35.6958 37.0627 33.326 33.5819C30.9562 30.101 32.2248 25.1888 36.1595 22.61C40.0942 20.0313 45.205 20.7625 47.5747 24.2434ZM34.8216 32.6016C36.6939 35.3517 40.7318 35.9295 43.8404 33.8921C46.9491 31.8547 47.9514 27.9737 46.0791 25.2236C44.2068 22.4735 40.169 21.8957 37.0603 23.9331C33.9516 25.9705 32.9493 29.8516 34.8216 32.6016Z" fill="#3BE7A8"/>
<path d="M55.2857 19.1892C57.6554 22.67 56.3868 27.5822 52.4521 30.161C48.5175 32.7397 43.4067 32.0085 41.0369 28.5277C38.6672 25.0468 39.9358 20.1346 43.8705 17.5558C47.8051 14.9771 52.9159 15.7083 55.2857 19.1892ZM42.5326 27.5474C44.4048 30.2975 48.4427 30.8753 51.5514 28.8379C54.66 26.8005 55.6623 22.9195 53.7901 20.1694C51.9178 17.4193 47.8799 16.8415 44.7712 18.8789C41.6626 20.9163 40.6603 24.7974 42.5326 27.5474Z" fill="#AC3434"/>
<path d="M61.7045 14.9807C64.0742 18.4615 63.1194 23.1682 59.5717 25.4933C56.024 27.8184 51.227 26.8815 48.8572 23.4007C46.4875 19.9199 47.4424 15.2133 50.99 12.8882C54.5377 10.5631 59.3347 11.4999 61.7045 14.9807ZM50.2058 22.5169C52.078 25.267 55.868 26.0072 58.6709 24.1702C61.4738 22.3332 62.2282 18.6146 60.356 15.8645C58.4837 13.1145 54.6937 12.3743 51.8908 14.2113C49.0879 16.0483 48.3335 19.7668 50.2058 22.5169Z" fill="url(#paint4_linear_0_1)"/>
<path d="M17.1381 23.4026C19.5078 19.9218 18.553 15.2151 15.0053 12.89C11.4576 10.5649 6.66061 11.5018 4.29084 14.9826C1.92108 18.4634 2.87595 23.17 6.42361 25.4951C9.97127 27.8202 14.7683 26.8834 17.1381 23.4026ZM5.63935 15.8664C7.51163 13.1163 11.3016 12.3761 14.1045 14.2131C16.9074 16.0501 17.6618 19.7687 15.7896 22.5188C13.9173 25.2688 10.1273 26.009 7.32439 24.172C4.52149 22.335 3.76707 18.6165 5.63935 15.8664Z" fill="url(#paint5_linear_0_1)"/>
<path d="M24.9654 28.5296C27.3351 25.0488 26.0665 20.1365 22.1318 17.5578C18.1972 14.979 13.0864 15.7103 10.7166 19.1911C8.34686 22.6719 9.61547 27.5841 13.5502 30.1629C17.4848 32.7417 22.5956 32.0104 24.9654 28.5296ZM12.2122 20.1713C14.0845 17.4212 18.1224 16.8435 21.2311 18.8809C24.3397 20.9183 25.342 24.7993 23.4697 27.5494C21.5975 30.2995 17.5596 30.8772 14.4509 28.8398C11.3423 26.8024 10.34 22.9214 12.2122 20.1713Z" fill="#AC3434"/>
<path d="M32.6763 33.5843C35.0461 30.1035 33.7775 25.1912 29.8428 22.6125C25.9081 20.0337 20.7973 20.765 18.4276 24.2458C16.0578 27.7266 17.3264 32.6388 21.2611 35.2176C25.1958 37.7963 30.3065 37.0651 32.6763 33.5843ZM19.9232 25.226C21.7955 22.4759 25.8333 21.8982 28.942 23.9356C32.0507 25.973 33.053 29.854 31.1807 32.6041C29.3084 35.3541 25.2705 35.9319 22.1619 33.8945C19.0532 31.8571 18.0509 27.9761 19.9232 25.226Z" fill="#3BE7A8"/>
<path d="M39.0951 37.7922C41.4649 34.3114 40.51 29.6048 36.9623 27.2797C33.4147 24.9546 28.6176 25.8914 26.2479 29.3722C23.8781 32.8531 24.833 37.5597 28.3806 39.8848C31.9283 42.2099 36.7253 41.273 39.0951 37.7922ZM27.5964 30.256C29.4687 27.506 33.2586 26.7658 36.0615 28.6028C38.8644 30.4398 39.6189 34.1583 37.7466 36.9084C35.8743 39.6585 32.0843 40.3987 29.2814 38.5617C26.4785 36.7247 25.7241 33.0061 27.5964 30.256Z" fill="#3BE7A8"/>
<defs>
<linearGradient id="paint0_linear_0_1" x1="40.2234" y1="50.2519" x2="30.5192" y2="70.7744" gradientUnits="userSpaceOnUse">
<stop offset="0.155665" stop-color="#002399"/>
<stop offset="0.842777" stop-color="#512BBD"/>
</linearGradient>
<linearGradient id="paint1_linear_0_1" x1="40.3992" y1="-1.53133" x2="30.695" y2="18.9912" gradientUnits="userSpaceOnUse">
<stop offset="0.155665" stop-color="#002399"/>
<stop offset="0.842777" stop-color="#512BBD"/>
</linearGradient>
<linearGradient id="paint2_linear_0_1" x1="50.4203" y1="38.7618" x2="59.2981" y2="59.6411" gradientUnits="userSpaceOnUse">
<stop offset="0.155665" stop-color="#002399"/>
<stop offset="0.842777" stop-color="#512BBD"/>
</linearGradient>
<linearGradient id="paint3_linear_0_1" x1="11.6898" y1="62.1274" x2="20.5676" y2="41.2481" gradientUnits="userSpaceOnUse">
<stop offset="0.155665" stop-color="#002399"/>
<stop offset="0.842777" stop-color="#512BBD"/>
</linearGradient>
<linearGradient id="paint4_linear_0_1" x1="43.2616" y1="18.0426" x2="66.062" y2="14.6831" gradientUnits="userSpaceOnUse">
<stop offset="0.155665" stop-color="#002399"/>
<stop offset="0.842777" stop-color="#512BBD"/>
</linearGradient>
<linearGradient id="paint5_linear_0_1" x1="-1.30482" y1="20.3407" x2="21.4956" y2="23.7002" gradientUnits="userSpaceOnUse">
<stop offset="0.155665" stop-color="#002399"/>
<stop offset="0.842777" stop-color="#512BBD"/>
</linearGradient>
</defs>
</svg>
