<svg width="15" height="15" viewBox="0 0 15 15" fill="none" xmlns="http://www.w3.org/2000/svg">
<path fill-rule="evenodd" clip-rule="evenodd" d="M2.5 7.5C2.5 7.32953 2.56584 7.16605 2.68304 7.04551C2.80024 6.92498 2.95919 6.85726 3.12493 6.85726H10.3654L7.68192 4.09861C7.56458 3.97792 7.49865 3.81423 7.49865 3.64355C7.49865 3.47287 7.56458 3.30918 7.68192 3.18849C7.79927 3.0678 7.95842 3 8.12437 3C8.29032 3 8.44948 3.0678 8.56682 3.18849L12.3164 7.04494C12.3746 7.10464 12.4208 7.17557 12.4523 7.25366C12.4838 7.33175 12.5 7.41546 12.5 7.5C12.5 7.58454 12.4838 7.66825 12.4523 7.74634C12.4208 7.82443 12.3746 7.89536 12.3164 7.95506L8.56682 11.8115C8.44948 11.9322 8.29032 12 8.12437 12C7.95842 12 7.79927 11.9322 7.68192 11.8115C7.56458 11.6908 7.49865 11.5271 7.49865 11.3564C7.49865 11.1858 7.56458 11.0221 7.68192 10.9014L10.3654 8.14274H3.12493C2.95919 8.14274 2.80024 8.07502 2.68304 7.95449C2.56584 7.83395 2.5 7.67047 2.5 7.5Z" fill="white"/>
</svg>
