<svg width="96" height="29" viewBox="0 0 96 29" fill="none" xmlns="http://www.w3.org/2000/svg">
<g id="Group 889">
<g id="&#208;&#162;&#209;&#128;&#208;&#181;&#208;&#189;&#208;&#180;.">
<path d="M37.7553 22.9026H36.2236V8.06126H30.9018V6.66602H43.0883V8.06126H37.7553V22.9026Z" fill="black"/>
<path d="M48.9579 11.0093C51.8983 11.0093 53.9107 13.4172 53.9107 17.0516C53.9107 20.6972 51.9095 23.0939 48.9914 23.0939C47.1131 23.0939 45.6485 22.0137 45.0336 20.4947H44.9889V26.7733H43.5131V11.2006H44.9106V13.676H44.9554C45.5926 12.1232 47.0684 11.0093 48.9579 11.0093ZM48.7007 21.7774C50.948 21.7774 52.4014 19.9096 52.4014 17.0516C52.4014 14.2048 50.948 12.3258 48.7007 12.3258C46.4982 12.3258 44.9889 14.2386 44.9889 17.0516C44.9889 19.8758 46.4982 21.7774 48.7007 21.7774Z" fill="black"/>
<path d="M60.6971 12.3145C58.6176 12.3145 57.1754 13.9235 57.0524 16.2302H64.2301C64.1966 13.9235 62.799 12.3145 60.6971 12.3145ZM64.1407 19.5833H65.6053C65.2587 21.6086 63.3692 23.0939 60.8089 23.0939C57.5443 23.0939 55.5207 20.7985 55.5207 17.0853C55.5207 13.4509 57.5667 11.0093 60.7195 11.0093C63.8052 11.0093 65.7506 13.2934 65.7506 16.7815V17.4116H57.0412V17.5017C57.0412 20.1459 58.5282 21.7886 60.8425 21.7886C62.5978 21.7886 63.8164 20.866 64.1407 19.5833Z" fill="black"/>
<path d="M75.8016 22.9026V17.4566H69.4065V22.9026H67.9419V11.2006H69.4065V16.2189H75.8016V11.2006H77.2663V22.9026H75.8016Z" fill="black"/>
<path d="M88.0217 21.6649V12.4383H83.0129C82.9794 13.0459 82.6887 17.2091 82.6216 17.8505C82.4986 19.4145 82.2079 20.8097 81.5818 21.5861V21.6649H88.0217ZM80.2849 25.9969H78.8986V21.6649H79.8377C80.7098 21.091 81.1011 19.5383 81.2464 17.8055C81.3023 17.1303 81.6713 11.8419 81.7048 11.2006H89.4974V21.6649H91.3757V25.9969H89.9782V22.9026H80.2849V25.9969Z" fill="black"/>
<path d="M94.4353 22.9907C94.0305 22.9907 93.7024 22.6604 93.7024 22.253C93.7024 21.8567 94.0305 21.5264 94.4353 21.5264C94.8291 21.5264 95.1573 21.8567 95.1573 22.253C95.1573 22.6604 94.8291 22.9907 94.4353 22.9907Z" fill="black"/>
</g>
<g id="Group 886">
<path id="Vector 30" d="M7.64417 0.709046V21.3423C7.64417 21.7339 7.32875 22.0513 6.93965 22.0513H0.739806C0.350706 22.0513 0.0352783 21.7339 0.0352783 21.3423V20.6906C0.0352783 20.4359 0.170952 20.2008 0.390726 20.0747L4.68197 17.6112C4.90175 17.485 5.03742 17.2499 5.03742 16.9953V15.0546C5.03742 14.5088 4.45026 14.1676 3.98058 14.4406L1.09212 16.1193C0.622437 16.3923 0.0352783 16.0511 0.0352783 15.5053V0.709047C0.0352783 0.317451 0.350706 0 0.739806 0H6.93965C7.32875 0 7.64417 0.317451 7.64417 0.709046Z" fill="#34AC49"/>
<g id="Group 885">
<path id="Vector 29" d="M18.1064 1.06354V24.4621C18.1064 24.8537 17.791 25.1711 17.4019 25.1711H11.1316C10.7425 25.1711 10.4271 24.8537 10.4271 24.4621V15.072C10.4271 14.8266 10.5532 14.5986 10.7605 14.4693L15.0958 11.7654C15.3031 11.6361 15.4292 11.4081 15.4292 11.1627V9.31883C15.4292 8.77132 14.8388 8.43039 14.3692 8.70668L11.4871 10.4021C11.0174 10.6783 10.4271 10.3374 10.4271 9.78991V1.06354C10.4271 0.671943 10.7425 0.354492 11.1316 0.354492H17.4019C17.791 0.354492 18.1064 0.671943 18.1064 1.06354Z" fill="#AC3434"/>
<path id="Vector 31" d="M0.704527 25.1714H10.427H18.1064H27.8641C28.2532 25.1714 28.5686 25.4888 28.5686 25.8804V28.2912C28.5686 28.6828 28.2532 29.0002 27.8641 29.0002H0.704527C0.315428 29.0002 0 28.6828 0 28.2912V25.8804C0 25.4888 0.315428 25.1714 0.704527 25.1714Z" fill="#303030"/>
</g>
<path id="Vector 28" d="M28.5686 0.709046V21.3423C28.5686 21.7339 28.2532 22.0513 27.8641 22.0513H21.629C21.2399 22.0513 20.9245 21.7339 20.9245 21.3423V8.4964C20.9245 8.24099 21.061 8.00533 21.2818 7.87945L25.6046 5.41517C25.8254 5.2893 25.9619 5.05363 25.9619 4.79823V2.96854C25.9619 2.42199 25.3734 2.08094 24.9037 2.3553L21.9827 4.06157C21.513 4.33593 20.9245 3.99489 20.9245 3.44834V0.709047C20.9245 0.317451 21.2399 0 21.629 0H27.8641C28.2532 0 28.5686 0.317451 28.5686 0.709046Z" fill="#34AC49"/>
</g>
</g>
</svg>
