<svg width="96" height="29" viewBox="0 0 96 29" fill="none" xmlns="http://www.w3.org/2000/svg">
<path d="M37.7553 22.9026H36.2237V8.06126H30.9019V6.66602H43.0883V8.06126H37.7553V22.9026Z" fill="white"/>
<path d="M48.9579 11.0093C51.8984 11.0093 53.9108 13.4172 53.9108 17.0516C53.9108 20.6972 51.9095 23.0939 48.9915 23.0939C47.1132 23.0939 45.6486 22.0137 45.0337 20.4947H44.989V26.7733H43.5132V11.2006H44.9107V13.676H44.9554C45.5927 12.1232 47.0685 11.0093 48.9579 11.0093ZM48.7008 21.7774C50.948 21.7774 52.4015 19.9096 52.4015 17.0516C52.4015 14.2048 50.948 12.3258 48.7008 12.3258C46.4983 12.3258 44.989 14.2386 44.989 17.0516C44.989 19.8758 46.4983 21.7774 48.7008 21.7774Z" fill="white"/>
<path d="M60.6972 12.3145C58.6177 12.3145 57.1754 13.9235 57.0524 16.2302H64.2302C64.1966 13.9235 62.7991 12.3145 60.6972 12.3145ZM64.1407 19.5833H65.6053C65.2587 21.6086 63.3693 23.0939 60.809 23.0939C57.5444 23.0939 55.5208 20.7985 55.5208 17.0853C55.5208 13.4509 57.5667 11.0093 60.7196 11.0093C63.8053 11.0093 65.7507 13.2934 65.7507 16.7815V17.4116H57.0413V17.5017C57.0413 20.1459 58.5282 21.7886 60.8425 21.7886C62.5978 21.7886 63.8165 20.866 64.1407 19.5833Z" fill="white"/>
<path d="M75.8017 22.9026V17.4566H69.4066V22.9026H67.942V11.2006H69.4066V16.2189H75.8017V11.2006H77.2663V22.9026H75.8017Z" fill="white"/>
<path d="M88.0217 21.6649V12.4383H83.013C82.9794 13.0459 82.6887 17.2091 82.6217 17.8505C82.4987 19.4145 82.208 20.8097 81.5819 21.5861V21.6649H88.0217ZM80.285 25.9969H78.8986V21.6649H79.8378C80.7098 21.091 81.1011 19.5383 81.2465 17.8055C81.3024 17.1303 81.6713 11.8419 81.7049 11.2006H89.4975V21.6649H91.3758V25.9969H89.9783V22.9026H80.285V25.9969Z" fill="white"/>
<path d="M94.4354 22.9907C94.0306 22.9907 93.7024 22.6604 93.7024 22.253C93.7024 21.8567 94.0306 21.5264 94.4354 21.5264C94.8292 21.5264 95.1574 21.8567 95.1574 22.253C95.1574 22.6604 94.8292 22.9907 94.4354 22.9907Z" fill="white"/>
<path d="M7.64429 0.709046V21.3423C7.64429 21.7339 7.32887 22.0513 6.93977 22.0513H0.739928C0.350828 22.0513 0.0354004 21.7339 0.0354004 21.3423V20.6906C0.0354004 20.4359 0.171074 20.2008 0.390848 20.0747L4.6821 17.6112C4.90187 17.485 5.03754 17.2499 5.03754 16.9953V15.0546C5.03754 14.5088 4.45039 14.1676 3.9807 14.4406L1.09224 16.1193C0.622559 16.3923 0.0354004 16.0511 0.0354004 15.5053V0.709047C0.0354004 0.317451 0.350828 0 0.739928 0H6.93977C7.32887 0 7.64429 0.317451 7.64429 0.709046Z" fill="#34AC49"/>
<path d="M18.1063 1.06354V24.4621C18.1063 24.8537 17.7909 25.1711 17.4018 25.1711H11.1315C10.7424 25.1711 10.427 24.8537 10.427 24.4621V15.072C10.427 14.8266 10.5531 14.5986 10.7604 14.4693L15.0957 11.7654C15.303 11.6361 15.4291 11.4081 15.4291 11.1627V9.31883C15.4291 8.77132 14.8388 8.43039 14.3691 8.70668L11.4871 10.4021C11.0174 10.6783 10.427 10.3374 10.427 9.78991V1.06354C10.427 0.671943 10.7424 0.354492 11.1315 0.354492H17.4018C17.7909 0.354492 18.1063 0.671943 18.1063 1.06354Z" fill="#AC3434"/>
<path d="M0.704527 25.1714H10.427H18.1064H27.8641C28.2532 25.1714 28.5686 25.4888 28.5686 25.8804V28.2912C28.5686 28.6828 28.2532 29.0002 27.8641 29.0002H0.704527C0.315428 29.0002 0 28.6828 0 28.2912V25.8804C0 25.4888 0.315428 25.1714 0.704527 25.1714Z" fill="#303030"/>
<path d="M28.5687 0.709046V21.3423C28.5687 21.7339 28.2533 22.0513 27.8642 22.0513H21.6291C21.24 22.0513 20.9246 21.7339 20.9246 21.3423V8.4964C20.9246 8.24099 21.061 8.00533 21.2819 7.87945L25.6046 5.41517C25.8254 5.2893 25.9619 5.05363 25.9619 4.79823V2.96854C25.9619 2.42199 25.3734 2.08094 24.9037 2.3553L21.9828 4.06157C21.5131 4.33593 20.9246 3.99489 20.9246 3.44834V0.709047C20.9246 0.317451 21.24 0 21.6291 0H27.8642C28.2533 0 28.5687 0.317451 28.5687 0.709046Z" fill="#34AC49"/>
</svg>
