<svg width="80" height="80" viewBox="0 0 80 80" fill="none" xmlns="http://www.w3.org/2000/svg">
<path d="M40 75C30.7174 75 21.815 71.3125 15.2513 64.7487C8.68749 58.185 5 49.2826 5 40C5 30.7174 8.68749 21.815 15.2513 15.2513C21.815 8.68749 30.7174 5 40 5C49.2826 5 58.185 8.68749 64.7487 15.2513C71.3125 21.815 75 30.7174 75 40C75 49.2826 71.3125 58.185 64.7487 64.7487C58.185 71.3125 49.2826 75 40 75ZM40 80C50.6087 80 60.7828 75.7857 68.2843 68.2843C75.7857 60.7828 80 50.6087 80 40C80 29.3913 75.7857 19.2172 68.2843 11.7157C60.7828 4.21427 50.6087 0 40 0C29.3913 0 19.2172 4.21427 11.7157 11.7157C4.21427 19.2172 0 29.3913 0 40C0 50.6087 4.21427 60.7828 11.7157 68.2843C19.2172 75.7857 29.3913 80 40 80Z" fill="#3A29B3"/>
<path d="M21.4257 47.835C21.9999 47.5035 22.6823 47.4137 23.3227 47.5853C23.9631 47.7568 24.5092 48.1758 24.8407 48.75C26.3763 51.4117 28.586 53.6218 31.2474 55.1579C33.9087 56.694 36.9278 57.5018 40.0007 57.5C43.0736 57.5018 46.0927 56.694 48.7541 55.1579C51.4155 53.6218 53.6252 51.4117 55.1607 48.75C55.3237 48.4634 55.5417 48.2118 55.8023 48.0098C56.0628 47.8078 56.3608 47.6594 56.679 47.573C56.9972 47.4866 57.3293 47.464 57.6562 47.5065C57.9832 47.549 58.2985 47.6557 58.584 47.8206C58.8696 47.9854 59.1197 48.2051 59.3199 48.467C59.5202 48.729 59.6667 49.0279 59.751 49.3466C59.8352 49.6654 59.8556 49.9977 59.811 50.3243C59.7663 50.651 59.6575 50.9656 59.4907 51.25C57.5163 54.6718 54.6754 57.5131 51.254 59.488C47.8325 61.4629 43.9512 62.5018 40.0007 62.5C36.0502 62.5018 32.1689 61.4629 28.7474 59.488C25.326 57.5131 22.4851 54.6718 20.5107 51.25C20.1792 50.6758 20.0894 49.9934 20.261 49.353C20.4326 48.7126 20.8515 48.1665 21.4257 47.835ZM35.0007 32.5C35.0007 36.64 32.7607 40 30.0007 40C27.2407 40 25.0007 36.64 25.0007 32.5C25.0007 28.36 27.2407 25 30.0007 25C32.7607 25 35.0007 28.36 35.0007 32.5ZM43.7857 30.315C44.0726 30.1554 44.3882 30.0539 44.7144 30.0163C45.0405 29.9787 45.3709 30.0057 45.6866 30.0958C46.0023 30.1859 46.2972 30.3373 46.5544 30.5413C46.8117 30.7453 47.0262 30.9981 47.1857 31.285C47.5805 32.0222 48.166 32.6399 48.8811 33.0735C49.5961 33.5071 50.4145 33.7407 51.2507 33.75C52.9457 33.75 54.4757 32.8 55.3157 31.285C55.638 30.7055 56.1772 30.2777 56.8148 30.0958C57.4524 29.9139 58.1362 29.9928 58.7157 30.315C59.2952 30.6372 59.723 31.1765 59.9049 31.8141C60.0868 32.4517 60.008 33.1355 59.6857 33.715C58.8577 35.2312 57.6386 36.4979 56.1552 37.3834C54.6718 38.2688 52.9783 38.7407 51.2507 38.75C47.6007 38.75 44.4707 36.69 42.8157 33.715C42.6561 33.4281 42.5547 33.1125 42.517 32.7864C42.4794 32.4602 42.5064 32.1298 42.5965 31.8141C42.6866 31.4984 42.838 31.2035 43.042 30.9463C43.2461 30.6891 43.4988 30.4745 43.7857 30.315Z" fill="#3A29B3"/>
</svg>
