<svg width="81" height="75" viewBox="0 0 81 75" fill="none" xmlns="http://www.w3.org/2000/svg">
<path d="M6.21422 37.1469C6.21336 31.6297 7.6649 26.2096 10.4229 21.4312C13.1809 16.6529 17.1483 12.6848 21.9261 9.92585C26.7038 7.16689 32.1237 5.71429 37.6409 5.71408C43.1581 5.71386 48.5781 7.16603 53.3561 9.92462C54.012 10.2975 54.7887 10.3959 55.5168 10.1982C56.2449 10.0005 56.8653 9.52286 57.2425 8.86948C57.6198 8.2161 57.7233 7.44003 57.5304 6.71063C57.3376 5.98123 56.8641 5.35771 56.2132 4.97615C49.1325 0.888128 40.9008 -0.749327 32.7947 0.317731C24.6886 1.38479 17.1611 5.09673 11.3796 10.8779C5.59804 16.659 1.88562 24.1863 0.818042 32.2924C-0.249536 40.3984 1.38739 48.6302 5.47496 55.7111C9.56252 62.7921 15.8723 68.3264 23.4257 71.4558C30.9792 74.5853 39.3541 75.1349 47.2518 73.0196C55.1494 70.9042 62.1284 66.2421 67.1064 59.7561C72.0844 53.2702 74.7832 45.323 74.7842 37.1469C74.7842 36.3892 74.4832 35.6625 73.9474 35.1267C73.4116 34.5908 72.6849 34.2898 71.9272 34.2898C71.1694 34.2898 70.4427 34.5908 69.9069 35.1267C69.3711 35.6625 69.0701 36.3892 69.0701 37.1469C69.0701 45.4821 65.7589 53.4759 59.8651 59.3698C53.9712 65.2637 45.9774 68.5748 37.6421 68.5748C29.3069 68.5748 21.3131 65.2637 15.4192 59.3698C9.52537 53.4759 6.21422 45.4821 6.21422 37.1469Z" fill="url(#paint0_linear_377_13864)"/>
<path d="M79.6638 10.5984C79.9295 10.3327 80.1402 10.0174 80.284 9.67028C80.4277 9.3232 80.5017 8.95121 80.5017 8.57554C80.5017 8.19987 80.4277 7.82787 80.284 7.4808C80.1402 7.13372 79.9295 6.81836 79.6638 6.55272C79.3982 6.28708 79.0828 6.07636 78.7358 5.9326C78.3887 5.78884 78.0167 5.71484 77.641 5.71484C77.2654 5.71484 76.8934 5.78884 76.5463 5.9326C76.1992 6.07636 75.8839 6.28708 75.6182 6.55272L37.6419 44.5348L22.5222 29.4094C22.2565 29.1438 21.9412 28.933 21.5941 28.7893C21.247 28.6455 20.875 28.5715 20.4994 28.5715C20.1237 28.5715 19.7517 28.6455 19.4046 28.7893C19.0575 28.933 18.7422 29.1438 18.4765 29.4094C18.2109 29.675 18.0002 29.9904 17.8564 30.3375C17.7127 30.6845 17.6387 31.0565 17.6387 31.4322C17.6387 31.8079 17.7127 32.1799 17.8564 32.5269C18.0002 32.874 18.2109 33.1894 18.4765 33.455L35.619 50.5975C35.8844 50.8636 36.1997 51.0747 36.5468 51.2187C36.8939 51.3628 37.2661 51.4369 37.6419 51.4369C38.0177 51.4369 38.3898 51.3628 38.7369 51.2187C39.084 51.0747 39.3993 50.8636 39.6647 50.5975L79.6638 10.5984Z" fill="url(#paint1_linear_377_13864)"/>
<defs>
<linearGradient id="paint0_linear_377_13864" x1="-7.28764" y1="0.36383" x2="92.7545" y2="48.1158" gradientUnits="userSpaceOnUse">
<stop offset="0.155665" stop-color="#002399"/>
<stop offset="0.842777" stop-color="#512BBD"/>
</linearGradient>
<linearGradient id="paint1_linear_377_13864" x1="11.0484" y1="5.93878" x2="83.7055" y2="53.6209" gradientUnits="userSpaceOnUse">
<stop offset="0.155665" stop-color="#002399"/>
<stop offset="0.842777" stop-color="#512BBD"/>
</linearGradient>
</defs>
</svg>
