<svg width="35" height="36" viewBox="0 0 35 36" fill="none" xmlns="http://www.w3.org/2000/svg">
<g id="socials">
<rect id="Rectangle 1" y="0.683594" width="35" height="35" rx="17.5" fill="#0077FF"/>
<path id="Vector" d="M18.3597 24.3086C11.7827 24.3086 8.03131 19.7102 7.875 12.0586H11.1695C11.2777 17.6747 13.7065 20.0536 15.6303 20.5441V12.0586H18.7324V16.9022C20.6322 16.6937 22.6281 14.4865 23.3015 12.0586H26.4036C26.1498 13.3178 25.6441 14.51 24.9179 15.5608C24.1917 16.6115 23.2608 17.4981 22.1832 18.1652C23.386 18.7747 24.4484 19.6374 25.3002 20.6964C26.152 21.7553 26.774 22.9865 27.125 24.3086H23.7103C23.3952 23.1603 22.7547 22.1323 21.8692 21.3536C20.9837 20.5748 19.8925 20.08 18.7324 19.931V24.3086H18.3597Z" fill="white"/>
</g>
</svg>
