<svg xmlns="http://www.w3.org/2000/svg">
    <mask id="mask0_2376_45335" style="mask-type:alpha" maskUnits="userSpaceOnUse" x="0" y="0" width="24" height="24">
        <rect width="24" height="24"/>
    </mask>
    <g mask="url(#mask0_2376_45335)">
        <path fill="#6e757d" d="M12 22C10.303 22 8.74242 21.6136 7.31818 20.8409C5.89394 20.0682 4.72727 19.0379 3.81818 17.75V20.1818H2V14.7273H7.45455V16.5455H5.20455C5.93182 17.6364 6.89015 18.5152 8.07955 19.1818C9.26894 19.8485 10.5758 20.1818 12 20.1818C13.1364 20.1818 14.2008 19.9659 15.1932 19.5341C16.1856 19.1023 17.0492 18.5189 17.7841 17.7841C18.5189 17.0492 19.1023 16.1856 19.5341 15.1932C19.9659 14.2008 20.1818 13.1364 20.1818 12H22C22 13.3788 21.7386 14.6742 21.2159 15.8864C20.6932 17.0985 19.9773 18.1591 19.0682 19.0682C18.1591 19.9773 17.0985 20.6932 15.8864 21.2159C14.6742 21.7386 13.3788 22 12 22ZM11.1818 18.3636V17.1818C10.4697 17.0152 9.89015 16.7083 9.44318 16.2614C8.99621 15.8144 8.66667 15.2273 8.45455 14.5L9.95455 13.9091C10.1364 14.5303 10.4205 14.9962 10.8068 15.3068C11.1932 15.6174 11.6364 15.7727 12.1364 15.7727C12.6364 15.7727 13.0644 15.6553 13.4205 15.4205C13.7765 15.1856 13.9545 14.8182 13.9545 14.3182C13.9545 13.8788 13.7689 13.5227 13.3977 13.25C13.0265 12.9773 12.3636 12.6667 11.4091 12.3182C10.5152 12 9.85985 11.6212 9.44318 11.1818C9.02652 10.7424 8.81818 10.1667 8.81818 9.45455C8.81818 8.83333 9.03409 8.26894 9.46591 7.76136C9.89773 7.25379 10.4848 6.92424 11.2273 6.77273V5.63636H12.8182V6.77273C13.3636 6.81818 13.8598 7.03788 14.3068 7.43182C14.7538 7.82576 15.0606 8.28788 15.2273 8.81818L13.7727 9.40909C13.6515 9.06061 13.4545 8.76894 13.1818 8.53409C12.9091 8.29924 12.5303 8.18182 12.0455 8.18182C11.5152 8.18182 11.1098 8.29545 10.8295 8.52273C10.5492 8.75 10.4091 9.06061 10.4091 9.45455C10.4091 9.84848 10.5833 10.1591 10.9318 10.3864C11.2803 10.6136 11.9091 10.8788 12.8182 11.1818C13.9091 11.5758 14.6364 12.0379 15 12.5682C15.3636 13.0985 15.5455 13.6818 15.5455 14.3182C15.5455 14.7576 15.4697 15.1439 15.3182 15.4773C15.1667 15.8106 14.9659 16.0947 14.7159 16.3295C14.4659 16.5644 14.1742 16.7538 13.8409 16.8977C13.5076 17.0417 13.1515 17.1515 12.7727 17.2273V18.3636H11.1818ZM2 12C2 10.6212 2.26136 9.32576 2.78409 8.11364C3.30682 6.90152 4.02273 5.84091 4.93182 4.93182C5.84091 4.02273 6.90152 3.30682 8.11364 2.78409C9.32576 2.26136 10.6212 2 12 2C13.697 2 15.2576 2.38636 16.6818 3.15909C18.1061 3.93182 19.2727 4.96212 20.1818 6.25V3.81818H22V9.27273H16.5455V7.45455H18.7955C18.0682 6.36364 17.1098 5.48485 15.9205 4.81818C14.7311 4.15152 13.4242 3.81818 12 3.81818C10.8636 3.81818 9.79924 4.03409 8.80682 4.46591C7.81439 4.89773 6.95076 5.48106 6.21591 6.21591C5.48106 6.95076 4.89773 7.81439 4.46591 8.80682C4.03409 9.79924 3.81818 10.8636 3.81818 12H2Z"/>
    </g>
</svg>