<svg xmlns="http://www.w3.org/2000/svg" width="15" height="20" viewBox="0 0 15 20">
    <path d="M7.0102 14.45C8.61019 13.15 9.82684 11.8833 10.6602 10.65C11.4935 9.41667 11.9102 8.26433 11.9102 7.193C11.9102 6.26998 11.7431 5.48296 11.4089 4.83192C11.0746 4.18087 10.663 3.65344 10.1739 3.24962C9.68484 2.84581 9.15501 2.55325 8.58441 2.37195C8.01383 2.19065 7.49215 2.1 7.01937 2.1C6.54659 2.1 6.02366 2.19065 5.45056 2.37195C4.87747 2.55325 4.3453 2.84581 3.85407 3.24962C3.36286 3.65344 2.94941 4.18087 2.61373 4.83192C2.27807 5.48296 2.11024 6.26998 2.11024 7.193C2.11024 8.26433 2.5269 9.41667 3.36023 10.65C4.19355 11.8833 5.41021 13.15 7.0102 14.45ZM7.0102 17.1C4.64355 15.35 2.88523 13.6583 1.73524 12.025C0.585249 10.3917 0.0102539 8.78591 0.0102539 7.20773C0.0102539 6.01569 0.218586 4.97056 0.635249 4.07233C1.05191 3.17411 1.59774 2.425 2.27274 1.825C2.94773 1.225 3.70189 0.770833 4.53522 0.4625C5.36855 0.154167 6.19354 0 7.0102 0C7.84353 0 8.67269 0.154167 9.49768 0.4625C10.3227 0.770833 11.0727 1.225 11.7477 1.825C12.4227 2.425 12.9685 3.17411 13.3851 4.07233C13.8018 4.97056 14.0101 6.01569 14.0101 7.20773C14.0101 8.78591 13.4351 10.3917 12.2852 12.025C11.1352 13.6583 9.37685 15.35 7.0102 17.1ZM7.0133 9.1C7.57789 9.1 8.06019 8.89897 8.46019 8.4969C8.86018 8.09483 9.06018 7.6115 9.06018 7.0469C9.06018 6.4823 8.85915 6 8.45709 5.6C8.05502 5.2 7.57169 5 7.0071 5C6.4425 5 5.96021 5.20103 5.56021 5.6031C5.16021 6.00517 4.96021 6.4885 4.96021 7.0531C4.96021 7.6177 5.16125 8.1 5.56331 8.5C5.96537 8.9 6.4487 9.1 7.0133 9.1ZM0.0102539 20V17.9H14.0101V20H0.0102539Z"/>
</svg>