<svg width="22" height="26" viewBox="0 0 22 26" fill="none" xmlns="http://www.w3.org/2000/svg">
<path fill-rule="evenodd" clip-rule="evenodd" d="M4 2.90454H16C16.8284 2.90454 17.5 3.57611 17.5 4.40454V7.41971L20 8.86309V4.40454C20 2.1954 18.2091 0.404541 16 0.404541H4C1.79086 0.404541 0 2.1954 0 4.40454V21.4045C0 23.6137 1.79086 25.4045 4 25.4045H16C18.2091 25.4045 20 23.6137 20 21.4045V16.946L17.5 18.3894V21.4045C17.5 22.233 16.8284 22.9045 16 22.9045H4C3.17157 22.9045 2.5 22.233 2.5 21.4045V4.40454C2.5 3.57611 3.17157 2.90454 4 2.90454Z" fill="#A4A4A6"/>
<rect x="10" y="12.4045" width="7" height="2.5" fill="#A4A4A6"/>
<path d="M22 13.4045L16.75 17.7347L16.75 9.07441L22 13.4045Z" fill="#A4A4A6"/>
</svg>
