<svg width="24" height="25" viewBox="0 0 24 25" fill="none" xmlns="http://www.w3.org/2000/svg">
<g clip-path="url(#clip0_52_1748)">
<mask id="mask0_52_1748" style="mask-type:luminance" maskUnits="userSpaceOnUse" x="0" y="0" width="24" height="25">
<path d="M12 24.4045C18.6274 24.4045 24 19.032 24 12.4045C24 5.77712 18.6274 0.404541 12 0.404541C5.37258 0.404541 0 5.77712 0 12.4045C0 19.032 5.37258 24.4045 12 24.4045Z" fill="white"/>
</mask>
<g mask="url(#mask0_52_1748)">
<path d="M-11.8799 16.7245C-11.8799 13.9045 -11.8799 11.1445 -11.8799 8.32454C-11.8799 8.08454 -11.8199 8.02454 -11.5799 8.02454H-11.2799C4.26012 8.02454 19.8001 8.02454 35.3401 8.02454C35.8201 8.02454 35.9401 8.08454 35.9401 8.62454C35.8801 11.3245 35.9401 14.0245 35.9401 16.7245C35.8201 16.8445 35.6401 16.9045 35.4601 16.8445C35.2801 16.8445 35.1601 16.8445 34.9801 16.8445H-10.8599C-11.2199 16.9045 -11.5799 16.9645 -11.8799 16.7245Z" fill="#0052B4"/>
<path d="M-11.8799 16.7249H35.8201C35.8201 18.8849 35.8201 20.9849 35.8201 23.1449C35.7601 24.1649 34.9201 24.9449 33.9001 24.9449H-9.59988C-10.7399 24.9449 -11.5199 24.4649 -11.7599 23.5049C-11.8199 23.3849 -11.8199 23.2649 -11.8199 23.1449C-11.8799 20.9849 -11.8799 18.8849 -11.8799 16.7249Z" fill="#D80027"/>
<path d="M-11.8799 8.0845H35.8201C35.8201 5.9245 35.8201 3.8245 35.8201 1.6645C35.7601 0.644502 34.9201 -0.135498 33.9001 -0.135498H-9.59988C-10.7399 -0.135498 -11.5199 0.344502 -11.7599 1.3045C-11.8199 1.4245 -11.8199 1.5445 -11.8199 1.6645C-11.8799 3.8245 -11.8799 5.9245 -11.8799 8.0845Z" fill="white"/>
</g>
</g>
<defs>
<clipPath id="clip0_52_1748">
<rect width="24" height="24" fill="white" transform="translate(0 0.404541)"/>
</clipPath>
</defs>
</svg>
