<svg width="23" height="24" viewBox="0 0 23 24" fill="none" xmlns="http://www.w3.org/2000/svg">
<path d="M11.5 5.50912C10.9994 5.50912 10.51 5.3614 10.0937 5.08464C9.67745 4.80788 9.35302 4.41451 9.16143 3.95427C8.96985 3.49404 8.91972 2.98761 9.01739 2.49902C9.11506 2.01044 9.35614 1.56165 9.71014 1.2094C10.0641 0.857147 10.5152 0.617263 11.0062 0.520077C11.4972 0.422892 12.0061 0.472771 12.4687 0.663407C12.9312 0.854043 13.3265 1.17687 13.6047 1.59107C13.8828 2.00528 14.0313 2.49224 14.0313 2.9904C14.0313 3.65841 13.7646 4.29905 13.2899 4.7714C12.8152 5.24375 12.1713 5.50912 11.5 5.50912ZM11.5 2.15083C11.3331 2.15083 11.17 2.20007 11.0312 2.29232C10.8925 2.38457 10.7843 2.5157 10.7205 2.66911C10.6566 2.82252 10.6399 2.99133 10.6725 3.15419C10.705 3.31705 10.7854 3.46665 10.9034 3.58407C11.0214 3.70148 11.1717 3.78145 11.3354 3.81384C11.4991 3.84624 11.6687 3.82961 11.8229 3.76606C11.9771 3.70252 12.1088 3.59491 12.2016 3.45684C12.2943 3.31877 12.3438 3.15645 12.3438 2.9904C12.3438 2.76773 12.2549 2.55418 12.0966 2.39673C11.9384 2.23928 11.7238 2.15083 11.5 2.15083Z" fill="#A4A4A6"/>
<path d="M14.0312 18.9424H8.96875C8.74497 18.9424 8.53036 19.0308 8.37213 19.1883C8.2139 19.3457 8.125 19.5593 8.125 19.782V20.6215C8.125 21.5122 8.48058 22.3664 9.11351 22.9962C9.74645 23.626 10.6049 23.9798 11.5 23.9798C12.3951 23.9798 13.2535 23.626 13.8865 22.9962C14.5194 22.3664 14.875 21.5122 14.875 20.6215V19.782C14.875 19.5593 14.7861 19.3457 14.6279 19.1883C14.4696 19.0308 14.255 18.9424 14.0312 18.9424Z" fill="#A4A4A6"/>
<path d="M22.0046 19.0347C21.1282 18.6021 20.3911 17.934 19.8766 17.106C19.3622 16.2781 19.091 15.3234 19.0936 14.3499V11.3862C19.0936 9.38222 18.2936 7.46028 16.8695 6.04323C15.4454 4.62617 13.5139 3.83008 11.4999 3.83008C9.4859 3.83008 7.5544 4.62617 6.13029 6.04323C4.70619 7.46028 3.90613 9.38222 3.90613 11.3862V14.3499C3.90882 15.3234 3.63758 16.2781 3.12312 17.106C2.60866 17.934 1.87154 18.6021 0.995196 19.0347C0.827039 19.1205 0.69266 19.2599 0.613585 19.4306C0.534511 19.6013 0.515317 19.7936 0.559078 19.9764C0.60284 20.1593 0.707024 20.3223 0.854942 20.4393C1.00286 20.5562 1.18595 20.6204 1.37488 20.6215H21.6249C21.8138 20.6204 21.9969 20.5562 22.1448 20.4393C22.2927 20.3223 22.3969 20.1593 22.4407 19.9764C22.4844 19.7936 22.4653 19.6013 22.3862 19.4306C22.3071 19.2599 22.1727 19.1205 22.0046 19.0347Z" fill="#A4A4A6"/>
</svg>
