<svg width="30" height="31" viewBox="0 0 30 31" fill="none" xmlns="http://www.w3.org/2000/svg">
<path d="M30 16.845V13.213L26.7125 12.6494C26.4 11.1089 25.8 9.68117 24.9625 8.41623L26.8875 5.68597L24.325 3.11852L21.6 5.04724C20.3375 4.20812 18.9125 3.59443 17.375 3.29385L16.8125 0H13.1875L12.625 3.29385C11.0875 3.60696 9.6625 4.20812 8.4 5.04724L5.675 3.11852L3.1125 5.68597L5.0375 8.41623C4.2 9.68117 3.5875 11.1089 3.2875 12.6494L0 13.213V16.845L3.2875 17.4086C3.6 18.9491 4.2 20.3768 5.0375 21.6417L3.1125 24.372L5.675 26.9395L8.4 25.0107C9.6625 25.8499 11.0875 26.4635 12.625 26.7641L13.1875 30.058H16.8125L17.375 26.7641C18.9125 26.451 20.3375 25.8499 21.6 25.0107L24.325 26.9395L26.8875 24.372L24.9625 21.6417C25.8 20.3768 26.4125 18.9491 26.7125 17.4086L30 16.845ZM15 21.1783C11.6125 21.1783 8.85 18.423 8.85 15.0165C8.85 11.6224 11.6 8.85458 15 8.85458C18.3875 8.85458 21.15 11.6099 21.15 15.0165C21.1375 18.423 18.3875 21.1783 15 21.1783Z" fill="#A4A4A6"/>
</svg>
