<svg width="24" height="29" viewBox="0 0 24 29" fill="none" xmlns="http://www.w3.org/2000/svg">
<path d="M12 0.196533C5.4 0.196533 0 5.47029 0 12.0376V15.5203C0 15.6198 0 15.6198 0 15.7193C0 15.8188 0 16.0178 0 16.1173C0 18.9035 2.2 21.0926 5 21.0926C5.6 21.0926 6 20.6946 6 20.0975V12.1371C6 11.5401 5.6 11.1421 5 11.1421C3.9 11.1421 2.8 11.5401 2 12.1371V11.9381C2 6.56485 6.5 2.18663 12 2.18663C17.5 2.18663 22 6.56485 22 12.0376V12.1371C21.2 11.5401 20.1 11.1421 19 11.1421C18.4 11.1421 18 11.5401 18 12.1371V20.0975C18 20.6946 18.4 21.0926 19 21.0926C19.7 21.0926 20.4 20.8936 21 20.6946C20 22.7842 18.2 24.3762 16 25.2718C16 25.1723 16 25.1723 16 25.0728C16 24.4757 15.6 24.0777 15 24.0777H12C11.4 24.0777 11 24.4757 11 25.0728V27.0629C11 27.6599 11.4 28.0579 12 28.0579C18.6 28.0579 24 22.8837 24 16.5153V15.5203V13.1322V12.0376C24 5.47029 18.6 0.196533 12 0.196533Z" fill="#A4A4A6"/>
</svg>
