<svg width="24" height="24" viewBox="0 0 24 24" fill="none" xmlns="http://www.w3.org/2000/svg">
<circle cx="12" cy="12" r="12" fill="#A4A4A6"/>
<g clip-path="url(#clip0_118_3)">
<path d="M12.7626 21.25H12.6751C11.4751 21.2408 10.2889 20.9923 9.18609 20.5191C8.08328 20.0458 7.08599 19.3572 6.2526 18.4937C4.70722 16.8411 3.82875 14.6746 3.78674 12.4124C3.74472 10.1502 4.54214 7.95258 6.0251 6.24371C6.9805 5.17302 8.18157 4.35029 9.5251 3.84622C9.68187 3.78589 9.85269 3.77197 10.0172 3.8061C10.1816 3.84023 10.3328 3.92099 10.4526 4.03872C10.5636 4.15187 10.6417 4.29304 10.6787 4.44715C10.7157 4.60126 10.7101 4.76252 10.6626 4.91371C10.1831 6.22703 10.0881 7.64988 10.3887 9.0153C10.6894 10.3807 11.3733 11.632 12.3601 12.6225C13.3561 13.6063 14.6104 14.2878 15.9778 14.5882C17.3452 14.8887 18.7697 14.7956 20.0864 14.32C20.2431 14.2648 20.4123 14.2554 20.5741 14.2928C20.736 14.3303 20.8839 14.4131 21.0004 14.5315C21.117 14.6499 21.1974 14.799 21.2323 14.9614C21.2673 15.1239 21.2552 15.2929 21.1976 15.4487C20.7506 16.642 20.0523 17.7252 19.1501 18.625C18.3108 19.4617 17.3145 20.1244 16.2183 20.5749C15.1221 21.0254 13.9477 21.2548 12.7626 21.25Z" fill="#191A1F"/>
</g>
<defs>
<clipPath id="clip0_118_3">
<rect width="21" height="21" fill="white" transform="translate(2 2)"/>
</clipPath>
</defs>
</svg>
