<svg width="119" height="103" viewBox="0 0 119 103" fill="none" xmlns="http://www.w3.org/2000/svg">
<circle cx="45.5" cy="45.5" r="45.5" fill="white"/>
<g clip-path="url(#clip0_506_1216)">
<path d="M78.7039 27.0794C77.9839 27.0794 77.3479 26.5604 77.2249 25.8254C77.0899 25.0064 77.6419 24.2384 78.4579 24.1004L110.903 18.6854C111.722 18.5564 112.493 19.0994 112.631 19.9184C112.766 20.7344 112.214 21.5054 111.398 21.6434L78.9529 27.0584C78.8719 27.0734 78.7879 27.0794 78.7039 27.0794Z" fill="#C1A875"/>
<path d="M27.845 35.5663C27.125 35.5663 26.489 35.0473 26.366 34.3123C26.231 33.4963 26.783 32.7253 27.599 32.5873L60.296 27.1303C61.124 26.9833 61.886 27.5473 62.024 28.3633C62.159 29.1793 61.607 29.9503 60.791 30.0883L28.094 35.5453C28.01 35.5603 27.929 35.5663 27.845 35.5663Z" fill="#C1A875"/>
<path d="M100.508 73.9153C90.314 73.9153 82.019 65.6173 82.019 55.4233C82.019 54.5953 82.691 53.9233 83.519 53.9233H117.5C118.328 53.9233 119 54.5953 119 55.4233C119 65.6203 110.705 73.9153 100.508 73.9153ZM85.091 56.9233C85.847 64.7653 92.474 70.9153 100.508 70.9153C108.545 70.9153 115.169 64.7653 115.928 56.9233H85.091Z" fill="#C1A875"/>
<path d="M83.5191 56.9231C83.2851 56.9231 83.0481 56.8661 82.8261 56.7521C82.0911 56.3681 81.8091 55.4621 82.1901 54.7271L99.1791 22.1741C99.6981 21.1841 101.321 21.1841 101.84 22.1741L118.832 54.7271C119.213 55.4621 118.931 56.3681 118.196 56.7521C117.464 57.1331 116.555 56.8481 116.171 56.1161L100.511 26.1131L84.8511 56.1161C84.5811 56.6291 84.0591 56.9231 83.5191 56.9231Z" fill="#C1A875"/>
<path d="M38.492 83.6204C28.295 83.6204 20 75.3224 20 65.1284C20 64.3004 20.672 63.6284 21.5 63.6284H55.481C56.309 63.6284 56.981 64.3004 56.981 65.1284C56.981 75.3224 48.686 83.6204 38.492 83.6204ZM23.072 66.6284C23.828 74.4704 30.455 80.6204 38.492 80.6204C46.526 80.6204 53.153 74.4704 53.909 66.6284H23.072Z" fill="#C1A875"/>
<path d="M55.4811 66.6282C54.9411 66.6282 54.4191 66.3342 54.1491 65.8212L38.4891 35.8182L22.8291 65.8212C22.4451 66.5562 21.5391 66.8352 20.8041 66.4572C20.0691 66.0732 19.7871 65.1672 20.1681 64.4322L37.1601 31.8792C37.6791 30.8892 39.3021 30.8892 39.8211 31.8792L56.8101 64.4322C57.1911 65.1672 56.9091 66.0732 56.1741 66.4572C55.9521 66.5712 55.7151 66.6282 55.4811 66.6282Z" fill="#C1A875"/>
<path d="M69.5002 37.7654C63.6262 37.7654 58.8472 32.9864 58.8472 27.1124C58.8472 21.2414 63.6262 16.4624 69.5002 16.4624C75.3742 16.4624 80.1532 21.2414 80.1532 27.1124C80.1532 32.9894 75.3742 37.7654 69.5002 37.7654ZM69.5002 19.4654C65.2792 19.4654 61.8472 22.8974 61.8472 27.1154C61.8472 31.3334 65.2792 34.7684 69.5002 34.7684C73.7212 34.7684 77.1532 31.3334 77.1532 27.1154C77.1532 22.8974 73.7212 19.4654 69.5002 19.4654Z" fill="#C1A875"/>
<path d="M69.5 94.1771C68.672 94.1771 68 93.5051 68 92.6771V36.2651C68 35.4371 68.672 34.7651 69.5 34.7651C70.328 34.7651 71 35.4371 71 36.2651V92.6771C71 93.5051 70.328 94.1771 69.5 94.1771Z" fill="#C1A875"/>
<path d="M69.5 19.4652C68.672 19.4652 68 18.7932 68 17.9652V14.3232C68 13.4952 68.672 12.8232 69.5 12.8232C70.328 12.8232 71 13.4952 71 14.3232V17.9652C71 18.7932 70.328 19.4652 69.5 19.4652Z" fill="#C1A875"/>
<path d="M89.2879 94.1772H49.7119C48.8839 94.1772 48.2119 93.5052 48.2119 92.6772C48.2119 91.8492 48.8839 91.1772 49.7119 91.1772H89.2879C90.1159 91.1772 90.7879 91.8492 90.7879 92.6772C90.7879 93.5052 90.1189 94.1772 89.2879 94.1772Z" fill="#C1A875"/>
</g>
<defs>
<clipPath id="clip0_506_1216">
<rect width="99" height="99" fill="white" transform="translate(20 4)"/>
</clipPath>
</defs>
</svg>
