<svg width="117" height="102" viewBox="0 0 117 102" fill="none" xmlns="http://www.w3.org/2000/svg">
<circle cx="45.5" cy="45.5" r="45.5" fill="white"/>
<path d="M29 42.6866L55.9386 29.2468C62.7662 25.8406 66.7065 21.8276 73.4528 25.3913L107 45.045M29 42.6866L29.4243 69.784C29.626 82.6641 40.1478 93 53.0578 93H83.3636C96.4176 93 107 82.4409 107 69.4156V45.045M29 42.6866L66.8182 67.8433L107 45.045" stroke="#C1A875" stroke-width="3"/>
<path fill-rule="evenodd" clip-rule="evenodd" d="M113.233 72.7832V45.9995L116.233 48.7941V72.7832C116.233 88.5199 103.525 101.287 87.8372 101.287H44.22L40.9995 98.2873H87.8372C101.857 98.2873 113.233 86.8745 113.233 72.7832Z" fill="#C1A875"/>
</svg>
