<svg width="108" height="97" viewBox="0 0 108 97" fill="none" xmlns="http://www.w3.org/2000/svg">
<circle cx="45.5" cy="45.5" r="45.5" fill="white"/>
<path d="M98.4403 95H43.2248C40.8662 95 38.9551 93.0756 38.9551 90.7004V64.3182C38.9551 61.943 40.8662 60.0186 43.2248 60.0186H98.4403C100.799 60.0186 102.71 61.943 102.71 64.3182V90.7004C102.722 93.0756 100.799 95 98.4403 95Z" stroke="#C1A875" stroke-width="3" stroke-miterlimit="10"/>
<path d="M69.5856 39.8105C71.8183 35.0178 68.3533 28.6405 61.8462 25.5665C55.3391 22.4924 48.254 23.8857 46.0213 28.6784C43.7885 33.4712 47.2536 39.8485 53.7607 42.9225C60.2678 45.9966 67.3528 44.6033 69.5856 39.8105Z" stroke="#C1A875" stroke-width="3" stroke-miterlimit="10"/>
<path d="M87.1528 42.9452C93.6599 39.8712 97.125 33.4939 94.8922 28.7012C92.6595 23.9084 85.5744 22.5152 79.0673 25.5892C72.5602 28.6633 69.0952 35.0405 71.3279 39.8333C73.5607 44.626 80.6457 46.0193 87.1528 42.9452Z" stroke="#C1A875" stroke-width="3" stroke-miterlimit="10"/>
<path d="M70.4883 34.2698L70.8391 95.0001" stroke="#C1A875" stroke-width="3" stroke-miterlimit="10"/>
<path d="M101.718 60.0182H39.2697C36.9111 60.0182 35 58.0937 35 55.7186V48.8855C35 46.5104 36.9111 44.5859 39.2697 44.5859H101.73C104.089 44.5859 106 46.5104 106 48.8855V55.7186C105.988 58.0815 104.077 60.0182 101.718 60.0182Z" stroke="#C1A875" stroke-width="3" stroke-miterlimit="10"/>
</svg>
