<svg width="24" height="24" viewBox="0 0 24 24" fill="none" xmlns="http://www.w3.org/2000/svg">
<g id="attachment_link_outline_24px">
<path id="icon" d="M15.5677 5.96698C16.8107 4.678 18.8249 4.678 20.0679 5.96698C21.3108 7.25595 21.3108 9.34482 20.0679 10.6338L14.7766 16.121C13.5337 17.41 11.5194 17.41 10.2765 16.121C9.03358 14.8321 9.03358 12.7432 10.2765 11.4542L11.0676 10.6338M8.43231 18.0335C7.18938 19.3225 5.17513 19.3225 3.9322 18.0335C2.68927 16.7445 2.68927 14.6556 3.9322 13.3667L9.22343 7.87941C10.4664 6.59043 12.4806 6.59043 13.7235 7.87941C14.9665 9.16838 14.9665 11.2573 13.7235 12.5462L12.9 13.4003" stroke="#EC625F" stroke-width="1.5" stroke-linecap="round" stroke-linejoin="round"/>
</g>
</svg>
