<svg width="20" height="20" viewBox="0 0 20 20" fill="none" xmlns="http://www.w3.org/2000/svg">
<g id="copy 1">
<g id="Copy">
<path id="Vector" d="M13.9425 11.9467V3.2229C13.9425 2.18915 13.1012 1.3479 12.0675 1.3479H3.34375C2.31 1.3479 1.46875 2.18915 1.46875 3.2229V11.9467C1.46875 12.9804 2.31 13.8217 3.34375 13.8217H12.0675C13.1012 13.8217 13.9425 12.9804 13.9425 11.9467ZM2.71875 11.9467V3.2229C2.71875 2.87832 2.99917 2.5979 3.34375 2.5979H12.0675C12.4121 2.5979 12.6925 2.87832 12.6925 3.2229V11.9467C12.6925 12.2912 12.4121 12.5717 12.0675 12.5717H3.34375C2.99917 12.5717 2.71875 12.2912 2.71875 11.9467ZM16.6579 6.17832H15.1388C14.7938 6.17832 14.5138 6.4579 14.5138 6.80332C14.5138 7.14873 14.7938 7.42832 15.1388 7.42832H16.6579C17.0025 7.42832 17.2829 7.70873 17.2829 8.05332V16.7771C17.2829 17.1217 17.0025 17.4021 16.6579 17.4021H7.93458C7.59 17.4021 7.30958 17.1217 7.30958 16.7771V15.0492C7.30958 14.7042 7.03 14.4242 6.68458 14.4242C6.33917 14.4242 6.05958 14.7042 6.05958 15.0492V16.7771C6.05958 17.8108 6.90083 18.6521 7.93458 18.6521H16.6579C17.6917 18.6521 18.5329 17.8108 18.5329 16.7771V8.05332C18.5329 7.01957 17.6917 6.17832 16.6579 6.17832Z" fill="#F3F3F3"/>
</g>
</g>
</svg>
