<svg width="12" height="13" viewBox="0 0 12 13" fill="none" xmlns="http://www.w3.org/2000/svg">
<g clip-path="url(#clip0_42_2774)">
<path d="M0.517564 4.34191C0.271642 4.65558 0.1537 4.99185 0.168757 5.33814C0.183813 5.71957 0.354453 6.01819 0.49498 6.20138C0.331869 6.60791 0.269133 7.24781 0.813675 7.74467C1.21267 8.10853 1.89021 8.27164 2.82873 8.22648C3.48871 8.19636 4.04078 8.0734 4.06336 8.06838L4.06587 8.06838C4.19134 8.0458 4.32434 8.01819 4.45985 7.98808C4.46989 8.14868 4.44228 8.54768 4.14617 9.44605C3.79485 10.5151 3.81493 11.3331 4.21142 11.8802C4.62798 12.4548 5.29297 12.5 5.48871 12.5C5.67691 12.5 5.85006 12.4222 5.97302 12.2792C6.25157 11.9555 6.21895 11.3582 6.18381 11.0822C6.51506 10.1939 7.44354 8.01568 8.22898 7.41092C8.24404 7.40088 8.25659 7.38833 8.26913 7.37578C8.5 7.13237 8.65558 6.86888 8.76098 6.63802C8.90903 6.71832 9.07716 6.76349 9.25784 6.76349L10.7886 6.76349C11.3657 6.76349 11.8325 6.29423 11.8325 5.71957L11.8325 1.64178C11.8325 1.06462 11.3632 0.597867 10.7886 0.597867L9.25784 0.597867C9.0345 0.597867 8.82622 0.66813 8.65558 0.788582L8.06587 0.718319C7.97553 0.705772 6.36951 0.502511 4.72083 0.535133C4.42221 0.512548 4.14115 0.500001 3.88017 0.500001C3.43099 0.500001 3.03952 0.535132 2.7133 0.605396C1.94542 0.768508 1.42095 1.09473 1.15495 1.57403C0.951693 1.9404 0.951693 2.30427 0.984315 2.53513C0.484942 2.98683 0.397113 3.4862 0.414679 3.83752C0.424716 4.04078 0.469885 4.21393 0.517564 4.34191ZM10.7886 1.27541C10.9918 1.27541 11.155 1.44103 11.155 1.64178L11.155 5.72208C11.155 5.92535 10.9893 6.08846 10.7886 6.08846L9.25784 6.08846C9.05458 6.08846 8.89147 5.92284 8.89147 5.72208L8.89147 1.64429C8.89147 1.44103 9.05709 1.27792 9.25784 1.27792L10.7886 1.27792L10.7886 1.27541ZM1.15997 4.63551C1.26537 4.52509 1.28544 4.35696 1.20514 4.22647C1.20514 4.22397 1.10226 4.04831 1.08971 3.8074C1.07214 3.47867 1.23024 3.18758 1.56148 2.93915C1.67942 2.84881 1.7271 2.69323 1.67691 2.5527C1.67691 2.55019 1.56901 2.21895 1.74467 1.90527C1.9128 1.60414 2.2867 1.38833 2.85383 1.26788C3.30803 1.17001 3.92534 1.15245 4.68319 1.21267C4.69322 1.21267 4.70577 1.21267 4.71832 1.21267C6.33187 1.17754 7.96299 1.38833 7.98055 1.39084L7.98306 1.39084L8.23651 1.42095C8.22145 1.49122 8.21393 1.5665 8.21393 1.64178L8.21393 5.72208C8.21393 5.82999 8.23149 5.93538 8.26161 6.03325C8.21644 6.20138 8.09097 6.57528 7.79486 6.89398C6.66813 7.78733 5.5665 10.8011 5.51882 10.9316C5.49875 10.9843 5.49373 11.042 5.50376 11.0997C5.54642 11.3808 5.53137 11.7246 5.47114 11.8275C5.33814 11.825 4.9793 11.7873 4.76349 11.4887C4.50753 11.1349 4.51757 10.5025 4.7936 9.66437C5.21518 8.38708 5.25031 7.71456 4.91656 7.41844C4.75094 7.27039 4.53011 7.26286 4.36951 7.32058C4.21644 7.35571 4.07089 7.38582 3.93287 7.40841C3.92283 7.41092 3.91029 7.41343 3.90025 7.41594C3.12986 7.58407 1.74968 7.68695 1.27039 7.25031C0.863863 6.87892 1.15245 6.38708 1.18507 6.33438C1.27792 6.19385 1.25031 6.01067 1.12484 5.89774C1.12233 5.89523 0.858844 5.6468 0.846298 5.31305C0.836259 5.08971 0.941654 4.86136 1.15997 4.63551Z" fill="#DDDDDD"/>
</g>
<defs>
<clipPath id="clip0_42_2774">
<rect width="12" height="12" fill="white" transform="translate(12 12.5) rotate(180)"/>
</clipPath>
</defs>
</svg>
