<svg width="24" height="24" viewBox="0 0 24 24" fill="none" xmlns="http://www.w3.org/2000/svg">
<g filter="url(#filter0_d_143_706)">
<path d="M10 22C15.5223 22 20 17.5223 20 12C20 6.47773 15.5223 2 10 2C4.47773 2 0 6.47773 0 12C0 17.5223 4.47773 22 10 22Z" fill="#DDDDDD"/>
<path d="M19.3777 15.4766C20.2074 13.2323 20.2074 10.7654 19.3777 8.52112H0.62227C-0.207423 10.7654 -0.207423 13.2323 0.62227 15.4766L10 16.3504L19.3777 15.4766Z" fill="#0052B4"/>
<path d="M10 22C14.3001 22 17.9665 19.2891 19.3778 15.4766H0.622314C2.03521 19.2891 5.70005 22 10 22Z" fill="#D80027"/>
</g>
<defs>
<filter id="filter0_d_143_706" x="0" y="0" width="24" height="24" filterUnits="userSpaceOnUse" color-interpolation-filters="sRGB">
<feFlood flood-opacity="0" result="BackgroundImageFix"/>
<feColorMatrix in="SourceAlpha" type="matrix" values="0 0 0 0 0 0 0 0 0 0 0 0 0 0 0 0 0 0 127 0" result="hardAlpha"/>
<feOffset dx="2"/>
<feGaussianBlur stdDeviation="1"/>
<feComposite in2="hardAlpha" operator="out"/>
<feColorMatrix type="matrix" values="0 0 0 0 0 0 0 0 0 0 0 0 0 0 0 0 0 0 0.4 0"/>
<feBlend mode="normal" in2="BackgroundImageFix" result="effect1_dropShadow_143_706"/>
<feBlend mode="normal" in="SourceGraphic" in2="effect1_dropShadow_143_706" result="shape"/>
</filter>
</defs>
</svg>
