<svg width="24" height="24" viewBox="0 0 24 24" fill="none" xmlns="http://www.w3.org/2000/svg">
<path d="M16.5007 13.9666L19.9791 15.5229C20.3737 15.6995 20.3734 16.2598 19.9786 16.4359L13.2115 19.4542C12.4327 19.8015 11.5429 19.801 10.7645 19.4529L4.0224 16.437C3.62774 16.2605 3.62801 15.7001 4.02283 15.524L7.34277 14.0427M7.46045 9.99399L4.02311 11.527C3.62823 11.7031 3.62792 12.2635 4.02261 12.4401L10.7645 15.4558C11.5429 15.804 12.4327 15.8045 13.2115 15.4571L19.9783 12.439C20.3732 12.2629 20.3735 11.7025 19.9788 11.5259L16.5536 9.99399M13.2369 4.54713L19.979 7.56294C20.3737 7.73948 20.3734 8.29983 19.9786 8.47598L13.2118 11.4949C12.4329 11.8424 11.5428 11.8419 10.7643 11.4935L4.02241 8.47708C3.62776 8.3005 3.62809 7.74015 4.02294 7.56404L10.79 4.54581C11.5687 4.19846 12.4585 4.19894 13.2369 4.54713Z" stroke="#F3F3F3" stroke-width="1.5" stroke-linecap="round" stroke-linejoin="round"/>
</svg>
