<svg width="12" height="13" viewBox="0 0 12 13" fill="none" xmlns="http://www.w3.org/2000/svg">
<g clip-path="url(#clip0_42_2769)">
<path d="M11.4824 8.65809C11.7284 8.34442 11.8463 8.00816 11.8313 7.66186C11.8162 7.28043 11.6456 6.98181 11.505 6.79862C11.6681 6.3921 11.7309 5.7522 11.1863 5.25533C10.7873 4.89147 10.1098 4.72836 9.17128 4.77353C8.5113 4.80364 7.95923 4.9266 7.93665 4.93162H7.93414C7.80867 4.9542 7.67567 4.98181 7.54016 5.01192C7.53012 4.85132 7.55772 4.45232 7.85384 3.55395C8.20515 2.48494 8.18508 1.66688 7.78859 1.11982C7.37203 0.545169 6.70703 0.5 6.5113 0.5C6.32309 0.5 6.14995 0.577792 6.02698 0.720828C5.74844 1.04454 5.78106 1.64178 5.81619 1.91782C5.48495 2.80615 4.55647 4.98432 3.77102 5.58908C3.75597 5.59912 3.74342 5.61167 3.73087 5.62422C3.50001 5.86763 3.34442 6.13112 3.23903 6.36198C3.09097 6.28168 2.92284 6.23651 2.74217 6.23651H1.21143C0.634261 6.23651 0.167511 6.70577 0.167511 7.28043V11.3582C0.167511 11.9354 0.636771 12.4021 1.21143 12.4021H2.74217C2.9655 12.4021 3.17378 12.3319 3.34442 12.2114L3.93414 12.2817C4.02447 12.2942 5.6305 12.4975 7.27918 12.4649C7.5778 12.4875 7.85885 12.5 8.11983 12.5C8.56902 12.5 8.96049 12.4649 9.28671 12.3946C10.0546 12.2315 10.5791 11.9053 10.8451 11.426C11.0483 11.0596 11.0483 10.6957 11.0157 10.4649C11.5151 10.0132 11.6029 9.5138 11.5853 9.16249C11.5753 8.95922 11.5301 8.78607 11.4824 8.65809ZM1.21143 11.7246C1.00816 11.7246 0.845052 11.559 0.845052 11.3582V7.27792C0.845052 7.07466 1.01067 6.91154 1.21143 6.91154H2.74217C2.94543 6.91154 3.10854 7.07716 3.10854 7.27792V11.3557C3.10854 11.559 2.94292 11.7221 2.74217 11.7221H1.21143V11.7246ZM10.84 8.36449C10.7346 8.47491 10.7146 8.64304 10.7949 8.77353C10.7949 8.77604 10.8977 8.95169 10.9103 9.1926C10.9279 9.52133 10.7698 9.81242 10.4385 10.0609C10.3206 10.1512 10.2729 10.3068 10.3231 10.4473C10.3231 10.4498 10.431 10.7811 10.2553 11.0947C10.0872 11.3959 9.71331 11.6117 9.14618 11.7321C8.69198 11.83 8.07466 11.8476 7.31682 11.7873C7.30678 11.7873 7.29424 11.7873 7.28169 11.7873C5.66814 11.8225 4.03702 11.6117 4.01946 11.6092H4.01695L3.7635 11.579C3.77855 11.5088 3.78608 11.4335 3.78608 11.3582V7.27792C3.78608 7.17001 3.76851 7.06462 3.7384 6.96675C3.78357 6.79862 3.90904 6.42472 4.20515 6.10602C5.33188 5.21267 6.43351 2.19887 6.48119 2.06838C6.50126 2.01568 6.50628 1.95797 6.49624 1.90025C6.45358 1.6192 6.46864 1.27541 6.52887 1.17252C6.66186 1.17503 7.02071 1.21267 7.23652 1.51129C7.49248 1.86512 7.48244 2.49749 7.20641 3.33563C6.78483 4.61292 6.74969 5.28545 7.08345 5.58156C7.24907 5.72961 7.4699 5.73714 7.6305 5.67942C7.78357 5.64429 7.92912 5.61418 8.06713 5.59159C8.07717 5.58908 8.08972 5.58658 8.09976 5.58407C8.87015 5.41594 10.2503 5.31305 10.7296 5.74969C11.1361 6.12108 10.8476 6.61292 10.8149 6.66562C10.7221 6.80615 10.7497 6.98934 10.8752 7.10226C10.8777 7.10477 11.1412 7.3532 11.1537 7.68695C11.1637 7.91029 11.0584 8.13864 10.84 8.36449Z" fill="#DDDDDD"/>
</g>
<defs>
<clipPath id="clip0_42_2769">
<rect width="12" height="12" fill="white" transform="translate(0 0.5)"/>
</clipPath>
</defs>
</svg>
