<svg width="121" height="32" viewBox="0 0 121 32" fill="none" xmlns="http://www.w3.org/2000/svg">
<path d="M103.971 31.9999L103.971 0.436279H110.139L110.139 27.1092H120.543V31.9999H103.971Z" fill="white"/>
<path d="M84.9579 31.9766V0.436279H91.1258V27.0859H101.53V31.9766H84.9579Z" fill="white"/>
<path d="M69.6979 8.8782H79.8219V13.4885H69.6979V8.8782ZM70.134 17.4759H81.5352V22.242H64.0284V0.436279H81.1303V5.20238H70.134V17.4759Z" fill="white"/>
<path d="M51.5202 22.6779C49.7342 22.6779 48.0105 22.4599 46.3491 22.0238C44.7085 21.5669 43.369 20.9854 42.3307 20.2793L44.3555 15.7313C45.3316 16.3543 46.453 16.8735 47.7198 17.2888C49.0074 17.6834 50.2846 17.8807 51.5514 17.8807C52.4028 17.8807 53.0881 17.808 53.6073 17.6626C54.1265 17.4965 54.5003 17.2888 54.7288 17.0396C54.978 16.7696 55.1026 16.4581 55.1026 16.1051C55.1026 15.6066 54.8741 15.2121 54.4173 14.9213C53.9604 14.6306 53.3685 14.3918 52.6417 14.2049C51.9148 14.0179 51.1049 13.831 50.2119 13.6441C49.3396 13.4572 48.457 13.2184 47.564 12.9277C46.6918 12.6369 45.8923 12.2631 45.1654 11.8062C44.4386 11.3286 43.8467 10.7159 43.3898 9.96832C42.9329 9.19993 42.7045 8.23425 42.7045 7.07128C42.7045 5.76294 43.0575 4.5792 43.7636 3.52006C44.4905 2.46093 45.5704 1.60947 47.0033 0.965681C48.4363 0.321894 50.2223 0 52.3613 0C53.7942 0 55.196 0.166139 56.5667 0.498417C57.9581 0.809927 59.1937 1.27719 60.2736 1.90021L58.3734 6.47941C57.3351 5.91869 56.3071 5.50334 55.2895 5.23337C54.2719 4.94263 53.2854 4.79725 52.3301 4.79725C51.4787 4.79725 50.7934 4.89071 50.2742 5.07761C49.755 5.24375 49.3812 5.47219 49.1527 5.76293C48.9243 6.05368 48.8101 6.38595 48.8101 6.75977C48.8101 7.23742 49.0281 7.62161 49.4642 7.91235C49.9211 8.18233 50.513 8.41077 51.2399 8.59767C51.9875 8.76381 52.7974 8.94034 53.6696 9.12724C54.5626 9.31415 55.4452 9.55297 56.3175 9.84371C57.2105 10.1137 58.0204 10.4875 58.7472 10.9652C59.4741 11.422 60.0556 12.0347 60.4917 12.8031C60.9486 13.5507 61.177 14.4956 61.177 15.6378C61.177 16.9046 60.8136 18.078 60.0867 19.1579C59.3807 20.217 58.3111 21.0685 56.8782 21.7122C55.466 22.356 53.68 22.6779 51.5202 22.6779Z" fill="white"/>
<path d="M23.9599 22.2418V18.3791L32.1215 10.7471C32.703 10.2071 33.1287 9.7295 33.3987 9.31415C33.6894 8.8988 33.8763 8.52499 33.9594 8.19271C34.0632 7.83967 34.1151 7.51778 34.1151 7.22703C34.1151 6.52094 33.8763 5.97061 33.3987 5.57603C32.9418 5.18145 32.2461 4.98416 31.3116 4.98416C30.5224 4.98416 29.7852 5.16068 29.0998 5.51373C28.4145 5.86677 27.8538 6.39634 27.4177 7.10243L22.8385 4.54805C23.6484 3.1774 24.8218 2.07673 26.3585 1.24604C27.8953 0.415347 29.7332 0 31.8723 0C33.5544 0 35.0289 0.269976 36.2957 0.809927C37.5625 1.34988 38.549 2.11827 39.2551 3.1151C39.9819 4.11193 40.3453 5.28529 40.3453 6.63516C40.3453 7.34125 40.2519 8.04734 40.065 8.75343C39.8781 9.43875 39.5147 10.176 38.9747 10.9652C38.4555 11.7335 37.6767 12.5954 36.6384 13.5507L30.159 19.5317L29.131 17.3511H40.9372V22.2418H23.9599Z" fill="#EC625F"/>
<path d="M0 22.242L9.5322 9.0028L9.50105 13.3951L0.342661 0.436279H7.28933L13.1457 8.8782L10.1864 8.90935L15.9493 0.436279H22.6156L13.4572 13.1459V8.78475L29.5683 31.9766H22.4658L10.0618 13.3639H12.8965L7.04012 22.242H0Z" fill="white"/>
</svg>
