<svg width="18" height="20" viewBox="0 0 18 20" fill="none" xmlns="http://www.w3.org/2000/svg">
<path d="M6.5 18C6.5 18 7 19 9 19C11 19 11.5 18 11.5 18M14.5 9V6.5C14.5 3.46243 12.0376 1 9 1C5.96243 1 3.5 3.46243 3.5 6.5V9L2.32843 10.1716C1.79799 10.702 1.5 11.4214 1.5 12.1716C1.5 13.7337 2.76633 15 4.32843 15H13.6716C15.2337 15 16.5 13.7337 16.5 12.1716C16.5 11.4214 16.202 10.702 15.6716 10.1716L14.5 9Z" stroke="#DDDDDD" stroke-width="1.5" stroke-linecap="round" stroke-linejoin="round"/>
</svg>
