<svg width="50" height="50" viewBox="0 0 50 50" fill="none" xmlns="http://www.w3.org/2000/svg">
<path fill-rule="evenodd" clip-rule="evenodd" d="M1 25C1 11.7452 11.7452 1 25 1C38.2548 1 49 11.7452 49 25C49 38.2548 38.2548 49 25 49C11.7452 49 1 38.2548 1 25ZM0 25C0 11.1929 11.1929 0 25 0C38.8071 0 50 11.1929 50 25C50 38.8071 38.8071 50 25 50C11.1929 50 0 38.8071 0 25ZM28.3894 35.1952C28.7149 35.5207 28.7149 36.0496 28.3894 36.3751C28.0639 36.7006 27.535 36.7006 27.2095 36.3548L16.2441 25.3894C16.0814 25.2267 16 25.0029 16 24.7994C16 24.5757 16.0814 24.3722 16.2441 24.2095L27.2095 13.2441C27.535 12.9186 28.0639 12.9186 28.3894 13.2441C28.7149 13.5696 28.7149 14.0986 28.3894 14.4241L17.9937 24.8198L28.3894 35.1952Z" fill="#C1A875"/>
</svg>
