<svg width="183" height="225" fill="none" xmlns="http://www.w3.org/2000/svg"><path d="M9.036 52.21h146.186l-11.646 172.089L0 202.612 9.036 52.209z" fill="#383838"/><path d="M154.073 52.21h22.203l6.055 149.185-38.956 23.105 10.698-172.29z" fill="#1C1B1B"/><path d="M82.933 13.132c11.245-24.37 26.707-8.862 33.333-.806 6.627 8.056 16.265 39.879 16.265 39.879h-8.032s3.012 1.007-8.233-26.989C105.021-2.779 91.969 11.32 91.969 11.32s-4.82 5.438-7.832 17.08c-3.012 11.64-3.012 23.806-3.012 23.806h-9.237s-.2-14.703 11.045-39.073z" fill="#F99C2F"/><path d="M66.467 13.132c11.245-24.37 26.707-8.862 33.333-.806 6.627 8.056 16.265 39.879 16.265 39.879h-8.032s3.012 1.007-8.233-26.989C88.555-2.779 75.503 11.32 75.503 11.32s-4.82 5.438-7.832 17.08c-3.012 11.64-3.011 23.806-3.011 23.806h-9.237s-.201-14.703 11.044-39.073z" fill="#F99C2F"/><path d="M77.5 87C51.86 87 31 107.86 31 133.5S51.86 180 77.5 180s46.5-20.86 46.5-46.5S103.14 87 77.5 87zm0 84.545c-20.978 0-38.045-17.066-38.045-38.045 0-20.979 17.067-38.046 38.045-38.046s38.045 17.068 38.045 38.046c0 20.978-17.067 38.045-38.045 38.045z" fill="#fff"/><path d="M77.5 137.677a24.357 24.357 0 00-17.337 7.182 4.227 4.227 0 105.978 5.978 15.959 15.959 0 0111.359-4.705 15.96 15.96 0 0111.359 4.705 4.227 4.227 0 105.978-5.978c-4.631-4.631-10.788-7.182-17.337-7.182zm-14.052-9.21a5.669 5.669 0 001.652-3.985c0-1.483-.6-2.937-1.652-3.985a5.68 5.68 0 00-3.984-1.652 5.676 5.676 0 00-3.985 1.652 5.677 5.677 0 00-1.652 3.985 5.68 5.68 0 001.652 3.985 5.68 5.68 0 003.985 1.651 5.68 5.68 0 003.984-1.651zm32.088-9.622a5.676 5.676 0 00-3.985 1.652 5.665 5.665 0 00-1.651 3.985c0 1.482.6 2.936 1.651 3.985a5.68 5.68 0 003.985 1.651 5.68 5.68 0 003.985-1.651 5.67 5.67 0 001.652-3.985 5.667 5.667 0 00-1.652-3.985 5.681 5.681 0 00-3.985-1.652z" fill="#fff"/></svg>