<svg width="183" height="225" fill="none" xmlns="http://www.w3.org/2000/svg"><path d="M9.036 52.21h146.186l-11.646 172.089L0 202.612 9.036 52.209z" fill="#383838"/><path d="M154.073 52.21h22.203l6.055 149.185-38.956 23.105 10.698-172.29z" fill="#1C1B1B"/><path d="M82.933 13.132c11.245-24.37 26.707-8.862 33.333-.806 6.627 8.056 16.265 39.879 16.265 39.879h-8.032s3.012 1.007-8.233-26.989C105.021-2.779 91.969 11.32 91.969 11.32s-4.82 5.438-7.832 17.08c-3.012 11.64-3.012 23.806-3.012 23.806h-9.237s-.2-14.703 11.045-39.073z" fill="#F99C2F"/><path d="M66.467 13.132c11.245-24.37 26.707-8.862 33.333-.806 6.627 8.056 16.265 39.879 16.265 39.879h-8.032s3.012 1.007-8.233-26.989C88.555-2.779 75.503 11.32 75.503 11.32s-4.82 5.438-7.832 17.08c-3.012 11.64-3.011 23.806-3.011 23.806h-9.237s-.201-14.703 11.044-39.073z" fill="#F99C2F"/><g clip-path="url(#clip0)" fill="#fff"><path d="M109.273 106.251c-12.34-3.306-25.07 3.93-28.447 16.153l-19.371 16.242c-3.815-1.401-7.403-1.498-10.868-.487l-17.12-12.869-5.654 21.102 10.131 7.585c-.373 7.952 4.863 15.425 12.855 17.567 8.69 2.328 17.67-2.386 20.728-10.634l25.78-9.913c12.377 3.317 25.12-3.975 28.439-16.363l-.002-.005c3.303-12.329-4.076-25.057-16.471-28.378zm-66.432 51.396c1.807 1.305 3.615 2.694 5.419 4.022 4.484 3.414 10.865 2.489 14.22-1.987 3.378-4.47 2.426-10.791-2.066-14.147l-4.58-3.439c8.097.353 13.921 8.051 11.791 16.015-1.832 6.823-21.787 12.36-24.784-.464zm56.446-14.041c-8.331-2.233-13.308-10.734-11.085-19.032 2.214-8.261 10.766-13.177 19.116-10.94 8.272 2.216 13.239 10.755 11.026 19.016-2.23 8.32-10.794 13.193-19.057 10.956z"/><path d="M106.565 116.607c-6.651-1.782-13.477 2.143-15.252 8.769-1.775 6.625 2.155 13.432 8.824 15.219 6.611 1.771 13.472-2.125 15.252-8.768 1.78-6.644-2.214-13.448-8.824-15.22z"/></g><defs><clipPath id="clip0"><path fill="#fff" transform="rotate(15 -289.39 212.091)" d="M0 0h91.553v91.553H0z"/></clipPath></defs></svg>