<svg width="30" height="30" viewBox="0 0 30 30" fill="none" xmlns="http://www.w3.org/2000/svg">
<g clip-path="url(#clip0_295_261)">
<path d="M30.0001 14.9999C30.0001 23.2842 23.2845 30 15.0002 30C6.71593 30 0.000244141 23.2842 0.000244141 14.9999C0.000244141 6.71569 6.71593 0 15.0002 0C23.2844 0 30.0001 6.71569 30.0001 14.9999Z" fill="#BEBEBE"/>
<path d="M26.8162 14.9991C26.8162 21.524 21.5264 26.8143 15.001 26.8143C8.47575 26.8143 3.18555 21.524 3.18555 14.9991C3.18555 8.47352 8.47575 3.18359 15.001 3.18359C21.5264 3.18359 26.8162 8.47343 26.8162 14.9991Z" fill="#BEBEBE"/>
<path d="M14.1231 19.0085L15.0974 15.3398L17.4041 14.4971L17.9778 12.3411L17.9582 12.2876L15.6876 13.1171L17.3236 6.95703H12.684L10.5445 14.9961L8.75821 15.6486L8.16797 17.8714L9.9529 17.2193L8.69197 21.9571H21.0399L21.8315 19.0085H14.1231Z" fill="white"/>
</g>
<defs>
<clipPath id="clip0_295_261">
<rect width="30" height="30" fill="white"/>
</clipPath>
</defs>
</svg>
