<svg width="30" height="30" viewBox="0 0 30 30" fill="none" xmlns="http://www.w3.org/2000/svg">
<g clip-path="url(#clip0_295_317)">
<path d="M12.1248 12.3679C11.0894 12.3679 10.2485 11.5283 10.2485 10.4942C10.2485 9.4577 11.0894 8.61812 12.1248 8.61812C13.1602 8.61812 13.9986 9.4577 13.9986 10.4942C13.9986 11.5283 13.1602 12.3679 12.1248 12.3679ZM15.0005 0C6.71384 0 0 6.71431 0 14.9989C0 22.188 5.05999 28.1959 11.8109 29.6586V16.1987L11.8118 16.1977C11.8269 15.548 12.3445 15.0246 12.9886 15.0004V14.9994H13.6128H14.8832C14.9713 14.9994 15.0431 14.9299 15.0478 14.843L15.0486 0.00268666L15.0005 0ZM25.3375 23.1812C24.3032 23.1812 23.4624 22.3416 23.4624 21.3052C23.4624 20.2722 24.3032 19.4326 25.3375 19.4326C26.3717 19.4326 27.2125 20.2722 27.2125 21.3052C27.2125 22.3416 26.3717 23.1812 25.3375 23.1812ZM20.9423 23.1812C19.908 23.1812 19.0684 22.3416 19.0684 21.3052C19.0684 20.2722 19.908 19.4326 20.9423 19.4326C21.9776 19.4326 22.8173 20.2722 22.8173 21.3052C22.8173 22.3416 21.9776 23.1812 20.9423 23.1812ZM16.5448 23.1812C15.5105 23.1812 14.6686 22.3416 14.6686 21.3052C14.6686 20.2722 15.5105 19.4326 16.5448 19.4326C17.5813 19.4326 18.421 20.2722 18.421 21.3052C18.421 22.3416 17.5813 23.1812 16.5448 23.1812ZM16.8517 0.113043V14.9984V15.5776V15.588L16.848 15.5917C16.8424 16.2611 16.2967 16.8018 15.625 16.8018H15.0481H13.7789C13.6862 16.8018 13.6121 16.876 13.6121 16.9674V29.9352C14.0695 29.9768 14.5304 30 14.9995 30C23.285 30 30 23.2834 30 14.9988C30 7.34296 24.2624 1.02586 16.8515 0.113321" fill="#00985F"/>
</g>
<defs>
<clipPath id="clip0_295_317">
<rect width="30" height="30" fill="white"/>
</clipPath>
</defs>
</svg>
