<svg width="34" height="11" viewBox="0 0 34 11" fill="none" xmlns="http://www.w3.org/2000/svg">
<path fill-rule="evenodd" clip-rule="evenodd" d="M5.40156 1.19291C5.66887 1.19118 6.46327 1.11402 6.79977 2.33877C7.02643 3.16377 7.3875 4.51515 7.88297 6.39293H8.08475C8.61609 4.41325 8.9811 3.06186 9.17977 2.33877C9.51977 1.10127 10.3698 1.19293 10.7098 1.19293L13.3329 1.19294V9.99291H10.6593V4.80694H10.48L8.98963 9.99291H6.97808L5.48767 4.8031H5.30838V9.99291H2.63477V1.19294L5.40156 1.19291ZM17.1722 1.19294V6.38277H17.3855L19.1984 2.11521C19.5504 1.26595 20.3004 1.19294 20.3004 1.19294H22.8877V9.99293H20.1582V4.8031H19.945L18.1676 9.07066C17.8156 9.91608 17.03 9.99293 17.03 9.99293H14.4428V1.19294H17.1722ZM32.3219 5.37475C31.9412 6.53827 30.7455 7.37155 29.4218 7.37155H26.5594V9.99293H23.9639V5.37475H32.3219Z" fill="#0F754E"/>
<path fill-rule="evenodd" clip-rule="evenodd" d="M29.5473 1.19531H23.8281C23.9642 3.15449 25.5287 4.83167 27.1483 4.83167H32.5026C32.8116 3.20337 31.7479 1.19531 29.5473 1.19531Z" fill="url(#paint0_linear_295_73)"/>
<defs>
<linearGradient id="paint0_linear_295_73" x1="896.529" y1="229.938" x2="23.8281" y2="229.938" gradientUnits="userSpaceOnUse">
<stop stop-color="#1F5CD7"/>
<stop offset="1" stop-color="#02AEFF"/>
</linearGradient>
</defs>
</svg>
