<svg width="26" height="19" viewBox="0 0 26 19" fill="none" xmlns="http://www.w3.org/2000/svg">
<path d="M16.5306 0.207031C11.4542 0.207031 7.375 4.33297 7.375 9.37578C7.375 14.4602 11.4944 18.5445 16.5294 18.5445C21.5645 18.5445 25.6875 14.4186 25.6875 9.37578C25.6875 4.33297 21.5657 0.207031 16.5306 0.207031ZM16.5306 12.7933C14.658 12.7933 13.1188 11.2511 13.1188 9.37578C13.1188 7.50047 14.658 5.95828 16.5306 5.95828C18.4033 5.95828 19.9431 7.50047 19.9431 9.37578C19.9011 11.2511 18.4033 12.7933 16.5306 12.7933Z" fill="#8B3FFD"/>
<path d="M7.37543 3.26172V16.5055H4.25582L0.253906 3.26172H7.37543Z" fill="#8B3FFD"/>
</svg>
