<svg width="30" height="30" viewBox="0 0 30 30" fill="none" xmlns="http://www.w3.org/2000/svg">
<g clip-path="url(#clip0_295_332)">
<path fill-rule="evenodd" clip-rule="evenodd" d="M15.0022 0C23.2856 0 30.0006 6.71475 30.0006 14.9981C30.0006 23.2814 23.2856 29.9962 15.0022 29.9962C6.71915 29.9962 0.00415039 23.2814 0.00415039 14.9981C0.00415039 6.71475 6.71915 0 15.0022 0Z" fill="#F01010"/>
<path fill-rule="evenodd" clip-rule="evenodd" d="M14.363 10.1368H13.0924C12.8844 10.1131 12.6303 10.1131 12.3765 10.0904C12.3075 10.1131 12.2836 10.1833 12.2604 10.2755C12.2375 10.3682 12.2604 10.4374 12.3075 10.5064L12.5845 10.5298C12.9303 10.5984 13.1843 10.6678 13.347 10.7378C13.5081 10.8298 13.6232 10.9917 13.6701 11.1997C13.7161 11.4076 13.7391 11.6844 13.7161 12.0314C13.6925 12.5164 13.6701 13.0935 13.6469 13.7636C13.6232 14.4344 13.5774 15.1271 13.5308 15.8438C13.4852 16.9515 13.3857 19.6505 13.0846 20.4496C13.0149 20.6344 12.8998 20.7502 12.761 20.8204C12.5989 20.8887 12.4133 20.9582 12.1824 20.9821L11.8118 21.0282C11.7428 21.0738 11.7194 21.144 11.7428 21.2596C11.7428 21.3291 11.7657 21.3978 11.8352 21.4676C12.1356 21.4447 12.4133 21.4213 12.7142 21.3978H14.5425C14.889 21.4213 15.1901 21.4447 15.4676 21.4676C15.5373 21.4213 15.5834 21.352 15.5834 21.2596C15.5834 21.1664 15.5605 21.0974 15.4905 21.0282L14.8431 20.9821C14.6344 20.9582 14.4725 20.9124 14.3572 20.8204C14.2992 20.7734 14.2526 20.709 14.218 20.6305C14.0814 20.302 14.0785 19.7463 14.0856 19.4013C14.1004 18.6852 14.1092 17.9693 14.1319 17.2529C14.155 16.5367 14.1782 15.9123 14.2009 15.3812C14.2233 14.8962 14.2709 14.3873 14.2933 13.8792C14.3165 13.3715 14.3391 12.8626 14.363 12.3545H14.4089C14.5939 12.747 14.779 13.1399 14.9407 13.5788C15.1258 13.995 15.3103 14.411 15.4947 14.804L17.0428 18.1068C17.1823 18.385 17.3434 18.7315 17.5278 19.1472C17.7363 19.5861 17.9435 20.0016 18.1288 20.4174C18.2266 20.6376 18.3112 20.8438 18.3829 21.0379C18.4014 21.0379 18.5309 21.4637 18.5453 21.5132C18.6343 21.6034 18.7801 21.6012 18.8694 21.5132C19.013 21.1689 19.1629 20.8204 19.33 20.4874C19.7677 19.5052 20.2241 18.5672 20.7396 17.6225L22.2414 14.6421C22.3572 14.3873 22.4723 14.1101 22.6339 13.8102C22.7959 13.4868 22.9573 13.1864 23.0963 12.9324C23.2116 12.6549 23.3038 12.4703 23.3496 12.4008H23.373L23.4198 19.5405C23.4423 19.9097 23.4198 20.1857 23.3967 20.394C23.3781 20.5593 23.3316 20.7163 23.1728 20.797C23.0797 20.9124 22.8949 20.9582 22.5942 20.9821L22.0851 21.0282C22.0387 21.0738 22.0158 21.144 22.0387 21.2596C22.0387 21.3291 22.0622 21.3978 22.1319 21.4676C22.4784 21.4447 22.848 21.4213 23.1953 21.3978H25.1857C25.5322 21.4213 25.8792 21.4447 26.2271 21.4676C26.2966 21.4213 26.3193 21.352 26.3193 21.2596C26.3422 21.1664 26.3193 21.0974 26.2732 21.0282L25.7177 20.9821C25.4632 20.9582 25.2781 20.8887 25.1618 20.7731C25.0474 20.6578 24.9545 20.5188 24.9314 20.3337C24.9077 20.126 24.8846 19.8707 24.8846 19.5935C24.8372 18.7339 24.8051 17.8605 24.7826 16.999C24.7592 16.0737 24.7129 15.1966 24.6902 14.3656V12.1699C24.6902 11.7771 24.7129 11.4769 24.7592 11.2455C24.8063 11.038 24.9216 10.8534 25.0828 10.7378C25.2449 10.6454 25.5217 10.5754 25.8913 10.5298L26.2383 10.5064C26.2849 10.4601 26.3076 10.3908 26.2849 10.2755C26.2849 10.2058 26.2615 10.1368 26.2154 10.0904C25.9379 10.1131 25.6604 10.1131 25.4066 10.1368H24.1591C23.9507 10.1131 23.7193 10.1131 23.4198 10.0904C23.3967 10.4825 23.2579 10.9224 23.0499 11.4308C22.7959 11.9612 22.4959 12.6093 22.1263 13.3715L20.5084 16.6287C20.089 17.5155 19.7069 18.3594 19.1929 19.2002H19.1469C18.7379 18.4287 18.361 17.6281 17.9901 16.8371L16.0267 12.9089C15.7729 12.3545 15.5415 11.8236 15.3567 11.3384C15.1948 10.8534 15.1258 10.4374 15.1487 10.0904C14.8717 10.1131 14.6171 10.1131 14.363 10.1368ZM4.88294 18.9193C4.88294 19.5076 4.85978 19.9556 4.81272 20.2623C4.76614 20.8563 4.37406 21.0509 3.82128 21.0889L3.46723 21.136C3.35336 21.2503 3.36214 21.4981 3.49186 21.5836C4.2219 21.5383 4.88197 21.5127 5.61445 21.5127C6.39546 21.5127 7.12355 21.5471 7.90212 21.5836C7.94918 21.5366 7.97356 21.4659 7.99697 21.3718C7.99697 21.254 7.97356 21.1825 7.92601 21.136L7.45419 21.0889C7.07673 21.0645 6.81754 20.9938 6.67611 20.8758C6.66758 20.8697 6.65904 20.8634 6.65075 20.8568C6.50811 20.7383 6.40594 20.5573 6.36303 20.2769C6.31621 19.9707 6.29256 19.5235 6.31621 18.9358V17.2858C5.79781 17.3097 5.32697 17.2858 4.90269 17.2153L4.88294 18.9193ZM3.3714 10.3148C3.34824 10.4086 3.39554 10.4791 3.46626 10.5503L4.07877 10.6201C4.33748 10.6444 4.52621 10.7147 4.64374 10.8327C4.76127 10.9266 4.83247 11.0919 4.85563 11.3506C4.87953 11.6095 4.90269 11.9872 4.90269 12.481V15.9669C5.37378 15.9905 5.84463 15.9905 6.31621 15.9669V11.1621C6.29256 10.9739 6.31621 10.8327 6.36303 10.7147C6.38643 10.6444 6.4808 10.5728 6.59833 10.5503C6.73975 10.5267 6.97579 10.5267 7.2818 10.5267C8.17643 10.5503 8.85966 10.7854 9.35416 11.2801C9.82525 11.7741 10.0606 12.4576 10.0606 13.3062C10.0849 14.0594 9.89621 14.6953 9.49583 15.2129C9.14251 15.6614 8.62436 15.9905 7.91748 16.1554C7.23474 16.3204 6.26915 16.3912 4.97341 16.367C3.84274 16.3448 2.61819 16.2736 1.27563 16.1325C2.75986 16.4385 3.86639 16.6501 4.57351 16.7206C5.72686 16.8627 6.85752 16.8384 7.91748 16.6743C8.45904 16.6028 8.95378 16.4621 9.40146 16.2973C9.82525 16.109 10.2495 15.8498 10.697 15.5431C10.9559 15.3551 11.1915 15.0479 11.4038 14.6482C11.5689 14.2713 11.6628 13.8238 11.686 13.2818C11.6628 12.6927 11.5214 12.1757 11.2627 11.7276C11.0032 11.2801 10.697 10.9266 10.2963 10.6683C9.89621 10.4323 9.40146 10.2433 8.83625 10.1256C8.29445 10.0317 7.65828 9.98438 6.92848 9.98438C6.2216 9.98438 5.58568 9.98438 5.02071 10.0078C4.45525 10.0317 3.9371 10.0551 3.48918 10.1021C3.41895 10.1497 3.3714 10.2202 3.3714 10.3148Z" fill="white"/>
</g>
<defs>
<clipPath id="clip0_295_332">
<rect width="30" height="30" fill="white"/>
</clipPath>
</defs>
</svg>
