<svg width="30" height="32" viewBox="0 0 30 32" fill="none" xmlns="http://www.w3.org/2000/svg">
<path fill-rule="evenodd" clip-rule="evenodd" d="M20.8023 27.3975C23.3543 27.3975 26.1231 28.2815 29.1886 31.0249C29.4957 31.2995 29.9046 30.9581 29.6361 30.6167C26.6243 26.7748 23.8386 26.0434 21.0604 25.4255C17.6614 24.6684 15.9139 22.7365 14.6958 20.6157C14.4537 20.1943 14.3444 20.2686 14.3227 20.8112C14.2954 21.4739 14.3415 22.3522 14.4885 23.2161C14.351 23.2218 14.2134 23.2209 14.074 23.2209C9.21291 23.2209 5.27128 19.2388 5.27128 14.327C5.27128 9.41609 9.21291 5.43495 14.0749 5.43495C18.936 5.43495 22.8777 9.41609 22.8777 14.327C22.8777 14.6769 22.8607 15.0231 22.8211 15.3616C22.1786 15.2443 20.9134 15.2309 20.026 15.3082C19.6925 15.3377 19.7396 15.4951 19.9921 15.5409C22.9022 16.072 24.9003 17.8943 25.3581 21.2003C25.3676 21.2766 25.4674 21.2985 25.506 21.2327C26.7434 19.1473 27.3952 16.7596 27.3911 14.327C27.3911 6.89868 21.4288 0.875 14.0749 0.875C6.72019 0.875 0.757812 6.89773 0.757812 14.327C0.757812 21.7572 6.72019 27.7808 14.0749 27.7808C16.025 27.7808 17.9619 27.3975 20.8023 27.3975ZM21.7933 22.5133C22.3859 23.0187 22.5658 23.6204 22.2531 24.0448C22.0788 24.2774 21.7962 24.4062 21.457 24.4062C21.1262 24.4062 20.8058 24.2888 20.5517 24.0743C20.0128 23.5985 19.8545 22.828 20.2059 22.3903C20.3435 22.2187 20.5668 22.1243 20.8343 22.1243C21.1593 22.1243 21.5003 22.2625 21.7933 22.5133ZM24.5272 21.2279C24.6139 21.8172 24.4302 22.0613 24.2446 22.0613C24.0421 22.0613 23.7886 21.8229 23.49 21.3509C23.1942 20.8856 23.0859 20.3516 23.2328 20.0817C23.3289 19.9034 23.5315 19.8252 23.7868 19.9234C24.2813 20.1113 24.4745 20.8761 24.5272 21.2279Z" fill="#FF8C00"/>
</svg>
