<svg width="20" height="21" viewBox="0 0 20 21" fill="none" xmlns="http://www.w3.org/2000/svg">
<circle cx="10" cy="10" r="9.5" stroke="#A4A4A6"/>
<path d="M9.97705 12.9971H8.61475C8.61963 12.5283 8.66113 12.145 8.73926 11.8472C8.82227 11.5444 8.95654 11.2686 9.14209 11.0195C9.32764 10.7705 9.57422 10.4873 9.88184 10.1699C10.1064 9.94043 10.3115 9.72559 10.4971 9.52539C10.6875 9.32031 10.8413 9.10059 10.9585 8.86621C11.0757 8.62695 11.1343 8.34131 11.1343 8.00928C11.1343 7.67236 11.0732 7.38184 10.9512 7.1377C10.834 6.89355 10.6582 6.70557 10.4238 6.57373C10.1943 6.44189 9.90869 6.37598 9.56689 6.37598C9.28369 6.37598 9.01514 6.42725 8.76123 6.52979C8.50732 6.63232 8.30225 6.79102 8.146 7.00586C7.98975 7.21582 7.90918 7.4917 7.9043 7.8335H6.54932C6.55908 7.28174 6.6958 6.80811 6.95947 6.4126C7.22803 6.01709 7.58936 5.71436 8.04346 5.50439C8.49756 5.29443 9.00537 5.18945 9.56689 5.18945C10.187 5.18945 10.7144 5.30176 11.1489 5.52637C11.5884 5.75098 11.9229 6.07324 12.1523 6.49316C12.3818 6.9082 12.4966 7.40137 12.4966 7.97266C12.4966 8.41211 12.4062 8.81738 12.2256 9.18848C12.0498 9.55469 11.8228 9.89893 11.5444 10.2212C11.2661 10.5435 10.9707 10.8511 10.6582 11.144C10.3896 11.3931 10.209 11.6738 10.1162 11.9863C10.0234 12.2988 9.97705 12.6357 9.97705 12.9971ZM8.55615 15.3188C8.55615 15.0991 8.62451 14.9136 8.76123 14.7622C8.89795 14.6108 9.0957 14.5352 9.35449 14.5352C9.61816 14.5352 9.81836 14.6108 9.95508 14.7622C10.0918 14.9136 10.1602 15.0991 10.1602 15.3188C10.1602 15.5288 10.0918 15.7095 9.95508 15.8608C9.81836 16.0122 9.61816 16.0879 9.35449 16.0879C9.0957 16.0879 8.89795 16.0122 8.76123 15.8608C8.62451 15.7095 8.55615 15.5288 8.55615 15.3188Z" fill="#A4A4A6"/>
</svg>
