<svg width="18" height="18" viewBox="0 0 18 18" fill="none" xmlns="http://www.w3.org/2000/svg">
<path d="M16.8471 14.9029L13.3567 11.4124C14.0779 10.3255 14.5 9.02406 14.5 7.625C14.5 3.83413 11.4159 0.75 7.625 0.75C3.83413 0.75 0.75 3.83413 0.75 7.625C0.75 11.4159 3.83413 14.5 7.625 14.5C9.02406 14.5 10.3255 14.0779 11.4124 13.3567L14.9029 16.8471C15.4391 17.3841 16.3109 17.3841 16.8471 16.8471C17.3841 16.3102 17.3841 15.4398 16.8471 14.9029ZM2.8125 7.625C2.8125 4.97125 4.97125 2.8125 7.625 2.8125C10.2787 2.8125 12.4375 4.97125 12.4375 7.625C12.4375 10.2787 10.2787 12.4375 7.625 12.4375C4.97125 12.4375 2.8125 10.2787 2.8125 7.625Z" fill="#A4A4A6"/>
</svg>
