<svg width="33" height="13" viewBox="0 0 33 13" fill="none" xmlns="http://www.w3.org/2000/svg">
<path d="M0.464844 4.76799V6.5113L5.17278 5.99399V4.10713L0.464844 4.76799ZM1.96723 6.61734V12.5911H3.69085V6.44137L1.96723 6.61734ZM5.80861 4.01789V12.5911H7.62482V3.76282L5.80861 4.01789ZM7.96319 3.71527V5.68747L10.5858 5.39924V3.34719L7.96319 3.71527ZM7.96319 7.15535V9.16348L9.68476 9.06969V7.00734L7.96319 7.15535ZM7.96319 10.6109V12.5911H10.5858V10.5319L7.96319 10.6109ZM17.3682 2.39197V12.5911H19.7491V2.05768L17.3682 2.39197ZM20.1937 1.99519V4.34122L23.6635 3.96014V1.50797L20.1937 1.99519ZM20.1937 6.1056V8.4951L22.4679 8.37104V5.91107L20.1937 6.1056ZM20.1937 10.2416V12.5911H23.6635V10.137L20.1937 10.2416ZM11.2797 3.24959V12.5911H13.3486V2.95904L11.2797 3.24959ZM13.7347 10.437V12.591H16.7378V10.3465L13.7347 10.437ZM31.4425 1.39264C30.69 0.682466 29.5866 0.391173 28.3799 0.564352V3.16639C28.8685 3.13928 29.2646 3.32044 29.441 3.68519C29.7196 4.26025 29.4322 5.12308 28.7541 5.92249C27.7076 7.15609 24.9247 9.68107 24.9247 9.68107L28.9197 9.54986C31.3607 7.1677 32.2372 5.72173 32.3945 3.91705C32.4772 2.96229 32.1302 2.04236 31.4425 1.39264ZM32.5353 12.5911V9.86845L24.4323 10.1123M24.4323 10.1123L24.4332 12.591H32.5353M27.9141 0.622759C25.5601 1.12354 24.4042 2.85347 24.5376 5.67623L27.0474 5.45374C26.9331 3.85902 27.4214 3.48072 27.9153 3.27272L27.9141 0.622759Z" fill="white"/>
</svg>
