<svg width="34" height="33" viewBox="0 0 34 33" fill="none" xmlns="http://www.w3.org/2000/svg">
<circle cx="18" cy="16" r="15" fill="#00B488"/>
<path fill-rule="evenodd" clip-rule="evenodd" d="M20.2318 17.4996C20.1257 17.5069 19.5777 17.537 18.3554 17.537C17.3832 17.537 16.6929 17.5102 16.4507 17.4996C12.6935 17.3476 9.88914 16.7461 9.88914 16.026C9.88914 15.3058 12.6935 14.7052 16.4507 14.5507V16.9006C16.6964 16.9168 17.4 16.955 18.3722 16.955C19.5388 16.955 20.1231 16.9103 20.2282 16.9014V14.5523C23.9775 14.706 26.7757 15.3074 26.7757 16.026C26.7757 16.7445 23.9783 17.346 20.2282 17.4988L20.2318 17.4996ZM20.2318 14.3093V12.2066H25.4641V9H11.2184V12.2066H16.4498V14.3085C12.1977 14.4881 9 15.2627 9 16.191C9 17.1192 12.1977 17.893 16.4498 18.0735V24.8117H20.2309V18.071C24.4733 17.8914 27.6657 17.1176 27.6657 16.1902C27.6657 15.2627 24.4759 14.4889 20.2309 14.3085L20.2318 14.3093Z" fill="white"/>
</svg>
