<svg width="28" height="9" viewBox="0 0 28 9" fill="none" xmlns="http://www.w3.org/2000/svg">
<g clip-path="url(#clip0_295_38)">
<path d="M18.2329 0.015625C16.2467 0.015625 14.4718 1.03475 14.4718 2.91766C14.4718 5.077 17.6197 5.22614 17.6197 6.31094C17.6197 6.7677 17.0909 7.17657 16.1879 7.17657C14.9062 7.17657 13.9483 6.60525 13.9483 6.60525L13.5384 8.50532C13.5384 8.50532 14.6419 8.98791 16.107 8.98791C18.2784 8.98791 19.9871 7.91874 19.9871 6.00364C19.9871 3.7219 16.8262 3.57719 16.8262 2.57032C16.8262 2.21252 17.2602 1.82047 18.1607 1.82047C19.1767 1.82047 20.0057 2.23597 20.0057 2.23597L20.4068 0.400832C20.4068 0.400832 19.5049 0.015625 18.2329 0.015625ZM0.0617638 0.154126L0.0136719 0.431129C0.0136719 0.431129 0.849237 0.582517 1.6018 0.884504C2.57078 1.23079 2.63981 1.43238 2.803 2.05852L4.58131 8.84508H6.96514L10.6376 0.154126H8.25925L5.89947 6.06315L4.93653 1.05438C4.84823 0.481135 4.40091 0.154126 3.85337 0.154126H0.0617638ZM11.594 0.154126L9.72824 8.84508H11.9962L13.8554 0.154126H11.594ZM24.2432 0.154126C23.6964 0.154126 23.4066 0.443986 23.194 0.950508L19.8713 8.84508H22.2496L22.7098 7.52932H25.6073L25.8871 8.84508H27.9857L26.1549 0.154126H24.2432ZM24.5526 2.50215L25.2576 5.76342H23.3689L24.5526 2.50215Z" fill="#1434CB"/>
</g>
<defs>
<clipPath id="clip0_295_38">
<rect width="28" height="9" fill="white"/>
</clipPath>
</defs>
</svg>
