<svg width="25" height="25" viewBox="0 0 25 25" fill="none" xmlns="http://www.w3.org/2000/svg">
<path d="M12.4405 0C14.3909 0 16.2466 0.453756 17.9117 1.26544C18.1729 1.38508 18.4358 1.52828 18.6961 1.67159L17.5543 2.69862L15.8426 0.907639L12.8931 3.53411L11.1562 1.64742L5.73247 6.54278L9.20495 10.3873L7.84934 11.581L11.2752 15.4256L9.91958 16.6187L14.8201 22.0871L17.7205 19.4125L20.2432 22.2788C19.7432 22.6609 19.1961 23.0438 18.6021 23.3774C16.7939 24.4041 14.7003 25 12.4645 25C5.58932 25 7.86283e-05 19.3896 7.86283e-05 12.4893C-0.0241757 5.63553 5.56594 0 12.4405 0ZM10.1565 11.7246L13.13 9.04997L15.7949 12.0348L12.8207 14.709L10.1565 11.7246ZM12.2742 16.8825L15.2235 14.1843L17.9117 17.1688L14.9381 19.8435L12.2742 16.8825ZM8.04062 6.63863L11.0134 3.96406L13.6775 6.94877L10.7038 9.6233L8.04062 6.63863ZM13.487 5.20545L15.6994 3.19974L17.698 5.42056L15.4856 7.44998L13.487 5.20545ZM17.4362 14.3988L19.6478 12.3929L21.6464 14.6369L19.4338 16.6441L17.4362 14.3988ZM19.3864 18.9123L21.599 16.9061L23.5959 19.1268L21.3842 21.156L19.3864 18.9123ZM20.2905 8.59624L21.7652 7.25892L23.0968 8.73996L21.6224 10.0768L20.2905 8.59624ZM18.3875 4.17867L19.8622 2.81788L21.1948 4.32198L19.7191 5.65921L18.3875 4.17867ZM22.1695 13.0142L23.6441 11.677L25 13.1575L23.5019 14.4944L22.1695 13.0142ZM15.5329 9.6949L17.7455 7.68904L19.7432 9.90945L17.5316 11.9156L15.5329 9.6949Z" fill="#036CB5"/>
</svg>
