<svg width="19" height="19" fill="none" xmlns="http://www.w3.org/2000/svg"><g clip-path="url(#clip0)"><path d="M16.37 13.224c-1.147-.982-2.312-1.576-3.446-.596l-.676.592c-.496.43-1.417 2.44-4.977-1.656-3.56-4.09-1.442-4.728-.946-5.154l.681-.593c1.128-.983.702-2.22-.111-3.493l-.491-.77C5.587.283 4.697-.552 3.566.43l-.61.534c-.5.364-1.897 1.547-2.236 3.795-.408 2.698.879 5.787 3.826 9.176 2.944 3.39 5.826 5.094 8.556 5.064 2.268-.024 3.639-1.242 4.067-1.684l.613-.535c1.128-.98.428-1.978-.72-2.962l-.691-.594z" fill="#030104"/></g><defs><clipPath id="clip0"><path fill="#fff" d="M0 0h19v19H0z"/></clipPath></defs></svg>