<svg xmlns="http://www.w3.org/2000/svg" width="150" height="44" viewBox="0 0 150 44" fill="none">
<g clip-path="url(#clip0_3302_11480)">
<path d="M35.3356 7.93599C35.3356 9.10596 35.0629 10.2223 34.5197 11.2746C33.9764 12.3311 33.1235 13.2246 31.957 13.953C33.1235 14.7103 33.9764 15.6079 34.5197 16.6499C35.0629 17.694 35.3356 18.8 35.3356 19.97C35.3356 21.4288 35.0896 22.6607 34.5996 23.6656C34.1076 24.6684 33.4393 25.4814 32.5987 26.1087C31.7582 26.7318 30.7844 27.1899 29.6855 27.4768C28.5867 27.7636 27.4161 27.9059 26.1716 27.9059H0V0H26.1716C27.4161 0 28.5867 0.142377 29.6855 0.429195C30.7844 0.718077 31.7582 1.1741 32.5987 1.79932C33.4393 2.42248 34.1055 3.23754 34.5996 4.24243C35.0896 5.24526 35.3356 6.47507 35.3356 7.93599ZM4.66194 12.001H25.6284C27.1044 12.001 28.314 11.6543 29.2591 10.9651C30.2042 10.2759 30.6778 9.25452 30.6778 7.89884C30.6778 6.75157 30.2759 5.84366 29.4744 5.17923C28.6707 4.51687 27.4181 4.18465 25.7083 4.18465H4.66194V12.003V12.001ZM26.2516 23.3334C26.8461 23.3334 27.4079 23.257 27.9388 23.1002C28.4698 22.9413 28.9434 22.7081 29.3575 22.3945C29.7716 22.0829 30.0935 21.6909 30.3272 21.2245C30.5609 20.7541 30.6778 20.1949 30.6778 19.5428C30.6778 18.2924 30.2534 17.3803 29.4129 16.8067C28.5723 16.2351 27.5165 15.9483 26.2495 15.9483H4.66194V23.3334H26.2516Z" fill="#00586F"/>
<path d="M70.1255 0V4.18259H44.573V12.1557H70.1255V15.9463H44.573V23.7234H70.1255V27.9059H39.9541V0H70.1255Z" fill="#00586F"/>
<path d="M105.425 0H110.046V27.9059H103.834L79.37 5.27621V27.9059H74.749V0H80.9239L105.427 22.6297V0H105.425Z" fill="#00586F"/>
<path d="M135.358 0C136.186 0 137.125 0.0474591 138.173 0.136187C139.222 0.229042 140.29 0.437449 141.377 0.763472C142.463 1.08743 143.519 1.5579 144.54 2.16867C145.563 2.78152 146.484 3.60276 147.3 4.63036C148.116 5.66001 148.77 6.93728 149.259 8.46216C149.751 9.98498 150 11.8173 150 13.9509C150 16.0845 149.754 17.9168 149.259 19.4438C148.77 20.9666 148.116 22.2418 147.3 23.2735C146.484 24.3032 145.565 25.1244 144.54 25.7352C143.519 26.348 142.463 26.8164 141.377 27.1404C140.29 27.4685 139.222 27.6748 138.173 27.7677C137.123 27.8605 136.184 27.9039 135.358 27.9039H129.3C128.471 27.9039 127.532 27.8585 126.485 27.7677C125.439 27.6748 124.371 27.4685 123.285 27.1404C122.198 26.8164 121.142 26.348 120.119 25.7352C119.096 25.1244 118.18 24.3032 117.364 23.2735C116.548 22.2439 115.894 20.9666 115.402 19.4438C114.91 17.9168 114.666 16.0886 114.666 13.9509C114.666 11.8132 114.91 9.98498 115.402 8.46216C115.894 6.93522 116.55 5.66001 117.364 4.63036C118.18 3.60276 119.096 2.78152 120.119 2.16867C121.142 1.5579 122.198 1.08743 123.285 0.763472C124.371 0.439512 125.439 0.229042 126.485 0.136187C127.535 0.0474591 128.473 0 129.3 0L135.358 0ZM135.241 23.647C137.26 23.647 138.896 23.3602 140.155 22.7845C141.41 22.2129 142.392 21.4639 143.107 20.5395C143.818 19.613 144.302 18.5771 144.561 17.4319C144.819 16.2847 144.95 15.125 144.95 13.953C144.95 12.7809 144.821 11.6213 144.561 10.4761C144.302 9.32881 143.818 8.30121 143.107 7.38711C142.394 6.47507 141.41 5.73223 140.155 5.15653C138.898 4.58496 137.26 4.29814 135.241 4.29814H129.417C127.397 4.29814 125.761 4.58496 124.507 5.15653C123.25 5.73223 122.266 6.47301 121.554 7.38711C120.841 8.29915 120.357 9.32674 120.097 10.4761C119.838 11.6213 119.707 12.783 119.707 13.953C119.707 15.1229 119.836 16.2847 120.097 17.4319C120.355 18.5771 120.839 19.613 121.554 20.5395C122.266 21.466 123.248 22.2129 124.507 22.7845C125.761 23.3602 127.397 23.647 129.417 23.647H135.241Z" fill="#00586F"/>
<path d="M0.0126953 42.9071V37.0552H1.0767V41.9538H4.25641V42.9071H0.0126953Z" fill="#54565A"/>
<path d="M6.44727 40.4578V37.0552H7.52767V40.2577C7.52767 41.3039 8.09145 41.8713 9.0222 41.8713C9.95294 41.8713 10.5331 41.3039 10.5331 40.2577V37.0552H11.5971V40.4578C11.5971 42.0302 10.6172 43 9.0222 43C7.42721 43 6.44727 42.0302 6.44727 40.4578Z" fill="#54565A"/>
<path d="M19.7778 42.9071H18.5313L16.9117 40.7178L15.2922 42.9071H14.0293L16.2557 39.8883L14.1544 37.0552H15.4172L16.9117 39.1125L18.4063 37.0552H19.6609L17.576 39.9069L19.7778 42.9071Z" fill="#54565A"/>
<path d="M22.1514 40.4578V37.0552H23.2318V40.2577C23.2318 41.3039 23.7956 41.8713 24.7263 41.8713C25.657 41.8713 26.2372 41.3039 26.2372 40.2577V37.0552H27.3012V40.4578C27.3012 42.0302 26.3213 43 24.7263 43C23.1313 43 22.1514 42.0302 22.1514 40.4578Z" fill="#54565A"/>
<path d="M33.9271 42.9071L32.2911 40.951H31.3768V42.9071H30.3066V37.0552H32.7073C34.2674 37.0552 35.1982 37.7651 35.1982 39.0114C35.1982 39.9977 34.6078 40.6415 33.5786 40.8664L35.2822 42.9071H33.9271ZM31.3768 38.0085V40.006H32.6725C33.595 40.006 34.126 39.7542 34.126 39.0279C34.126 38.3016 33.595 38.0085 32.6807 38.0085H31.3768Z" fill="#54565A"/>
<path d="M42.6545 37.0552L40.3543 40.7674V42.9071H39.2739V40.7426L36.9736 37.0552H38.1524L39.8212 39.8388L41.4736 37.0552H42.6524H42.6545Z" fill="#54565A"/>
<path d="M53.6928 42.9071L53.2275 41.828H50.1379L49.6726 42.9071H48.543L51.1507 37.0552H52.2229L54.8388 42.9071H53.6928ZM50.5439 40.885H52.8195L51.6817 38.2355L50.5439 40.885Z" fill="#54565A"/>
<path d="M60.9903 37.0552V38.0085H59.0796V42.9071H57.9992V38.0085H56.0967V37.0552H60.9882H60.9903Z" fill="#54565A"/>
<path d="M72.674 37.0552L70.3738 40.7674V42.9071H69.2934V40.7426L66.9932 37.0552H68.172L69.8408 39.8388L71.4931 37.0552H72.672H72.674Z" fill="#54565A"/>
<path d="M74.4189 39.9812C74.4189 38.2335 75.7146 36.9624 77.5085 36.9624C79.3023 36.9624 80.5898 38.2252 80.5898 39.9812C80.5898 41.7372 79.2941 43 77.5003 43C75.7064 43 74.4189 41.7372 74.4189 39.9812ZM79.4602 39.9812C79.4602 38.7514 78.6545 37.9405 77.5085 37.9405C76.3624 37.9405 75.5486 38.7514 75.5486 39.9812C75.5486 41.211 76.3542 42.022 77.5085 42.022C78.6627 42.022 79.4602 41.211 79.4602 39.9812Z" fill="#54565A"/>
<path d="M83.3281 40.4578V37.0552H84.4085V40.2577C84.4085 41.3039 84.9723 41.8713 85.9031 41.8713C86.8338 41.8713 87.414 41.3039 87.414 40.2577V37.0552H88.478V40.4578C88.478 42.0302 87.498 43 85.9031 43C84.3081 43 83.3281 42.0302 83.3281 40.4578Z" fill="#54565A"/>
<path d="M95.1039 42.9071L93.4679 40.951H92.5536V42.9071H91.4834V37.0552H93.8841C95.4442 37.0552 96.375 37.7651 96.375 39.0114C96.375 39.9977 95.7845 40.6415 94.7554 40.8664L96.459 42.9071H95.1039ZM92.5536 38.0085V40.006H93.8492C94.7718 40.006 95.3027 39.7542 95.3027 39.0279C95.3027 38.3016 94.7718 38.0085 93.8574 38.0085H92.5536Z" fill="#54565A"/>
<path d="M102.999 42.1643L103.489 41.3369C104.104 41.764 104.777 42.0219 105.498 42.0219C106.22 42.0219 106.611 41.7207 106.611 41.3369C106.611 40.8354 106.22 40.6848 105.308 40.4847C103.979 40.1999 103.165 39.7067 103.165 38.6626C103.165 37.5587 104.145 36.9665 105.416 36.9665C106.238 36.9665 106.903 37.1997 107.534 37.6598L106.96 38.446C106.554 38.153 105.972 37.9446 105.357 37.9446C104.684 37.9446 104.293 38.1695 104.293 38.6709C104.293 39.098 104.649 39.3229 105.597 39.5313C107.017 39.8409 107.739 40.2247 107.739 41.2543C107.739 42.3417 106.775 43.002 105.431 43.002C104.475 43.002 103.612 42.6678 102.997 42.1664L102.999 42.1643Z" fill="#54565A"/>
<path d="M111.546 41.9538H115.126V42.9071H110.49V37.0552H115.041V38.0085H111.544V39.4137H114.674V40.3671H111.544V41.9559L111.546 41.9538Z" fill="#54565A"/>
<path d="M121.596 42.9071L119.96 40.951H119.048V42.9071H117.976V37.0552H120.376C121.938 37.0552 122.867 37.7651 122.867 39.0114C122.867 39.9977 122.277 40.6415 121.248 40.8664L122.951 42.9071H121.598H121.596ZM119.046 38.0085V40.006H120.341C121.264 40.006 121.795 39.7542 121.795 39.0279C121.795 38.3016 121.264 38.0085 120.35 38.0085H119.046Z" fill="#54565A"/>
<path d="M127.199 42.9071L124.665 37.0552H125.811L127.714 41.6361H127.746L129.657 37.0552H130.787L128.261 42.9071H127.197H127.199Z" fill="#54565A"/>
<path d="M133.361 42.9071V37.0552H134.434V42.9071H133.361Z" fill="#54565A"/>
<path d="M137.354 39.9812C137.354 38.2603 138.658 36.9624 140.411 36.9624C141.358 36.9624 142.121 37.2884 142.711 37.9075L142.004 38.5843C141.615 38.1654 141.125 37.9322 140.452 37.9322C139.314 37.9322 138.476 38.7679 138.476 39.973C138.476 41.178 139.331 42.0302 140.444 42.0302C141.075 42.0302 141.615 41.797 142.023 41.3617L142.728 42.022C142.172 42.6575 141.367 43 140.444 43C138.683 43 137.354 41.7042 137.354 39.9812Z" fill="#54565A"/>
<path d="M146.406 41.9538H149.986V42.9071H145.351V37.0552H149.902V38.0085H146.404V39.4137H149.537V40.3671H146.404V41.9559L146.406 41.9538Z" fill="#54565A"/>
</g>
<defs>
<clipPath id="clip0_3302_11480">
<rect width="150" height="43" fill="white"/>
</clipPath>
</defs>
</svg>