<svg width="9" height="7" viewBox="0 0 9 7" fill="none" xmlns="http://www.w3.org/2000/svg">
<path d="M2.92955 6.99849C2.861 6.99827 2.79322 6.98395 2.73042 6.95643C2.66763 6.9289 2.61117 6.88876 2.56455 6.83849L0.134555 4.25349C0.043718 4.15669 -0.00494292 4.02776 -0.000723355 3.89508C0.00136596 3.82938 0.0163749 3.76474 0.0434465 3.70484C0.0705182 3.64495 0.109122 3.59097 0.157055 3.54599C0.204987 3.50101 0.261309 3.46592 0.322805 3.4427C0.384301 3.41949 0.449767 3.40862 0.515465 3.41071C0.648147 3.41493 0.773718 3.47169 0.864555 3.56849L2.92455 5.76349L7.12955 1.16349C7.17223 1.11035 7.22531 1.0665 7.28555 1.03462C7.34579 1.00275 7.41191 0.983522 7.47985 0.97813C7.54779 0.972738 7.61611 0.981292 7.68062 1.00327C7.74514 1.02524 7.80447 1.06017 7.855 1.10591C7.90552 1.15166 7.94615 1.20724 7.97441 1.26926C8.00267 1.33128 8.01794 1.39842 8.01931 1.46656C8.02067 1.5347 8.00809 1.6024 7.98234 1.6655C7.95659 1.7286 7.91821 1.78576 7.86955 1.83349L3.29955 6.83349C3.25338 6.88467 3.19711 6.92574 3.1343 6.95414C3.07149 6.98253 3.00348 6.99763 2.93455 6.99849H2.92955Z" fill="#A4A4A6"/>
</svg>
