<svg width="18" height="18" viewBox="0 0 18 18" fill="none" xmlns="http://www.w3.org/2000/svg">
<circle cx="9.5" cy="8.5" r="8.5" fill="#00B488"/>
<path fill-rule="evenodd" clip-rule="evenodd" d="M10.2208 10.3755C10.1526 10.3801 9.80032 10.3992 9.01449 10.3992C8.38946 10.3992 7.94569 10.3822 7.79 10.3755C5.37454 10.2794 3.57162 9.89899 3.57162 9.44353C3.57162 8.98807 5.37454 8.60818 7.79 8.51051V9.99666C7.94796 10.0069 8.40026 10.0311 9.02529 10.0311C9.77532 10.0311 10.1509 10.0028 10.2185 9.99717V8.51154C12.6289 8.6087 14.4278 8.9891 14.4278 9.44353C14.4278 9.89796 12.6294 10.2784 10.2185 10.375L10.2208 10.3755ZM10.2208 8.35784V7.02796H13.5846V5H4.4262V7.02796H7.78943V8.35732C5.05578 8.47093 3 8.96083 3 9.54788C3 10.1349 5.05578 10.6243 7.78943 10.7384V15H10.2202V10.7369C12.9476 10.6233 15 10.1339 15 9.54737C15 8.96083 12.9493 8.47144 10.2202 8.35732L10.2208 8.35784Z" fill="white"/>
</svg>
