<svg width="15" height="19" viewBox="0 0 15 19" fill="none" xmlns="http://www.w3.org/2000/svg">
<g clip-path="url(#clip0_528_31188)">
<path d="M14.5227 6.4771C14.4158 6.5626 12.5289 7.6589 12.5289 10.0966C12.5289 12.9162 14.93 13.9137 15.0018 13.9384C14.9908 13.9992 14.6204 15.3045 13.7359 16.6345C12.9472 17.8049 12.1235 18.9734 10.8704 18.9734C9.61732 18.9734 9.29484 18.2229 7.84828 18.2229C6.43858 18.2229 5.93735 18.9981 4.79115 18.9981C3.64496 18.9981 2.84521 17.9151 1.92568 16.5851C0.860565 15.0233 0 12.597 0 10.2942C0 6.6006 2.32924 4.6417 4.62162 4.6417C5.83968 4.6417 6.85504 5.4663 7.61978 5.4663C8.34767 5.4663 9.4828 4.5923 10.8686 4.5923C11.3937 4.5923 13.2807 4.6417 14.5227 6.4771ZM10.2107 3.0286C10.7838 2.3275 11.1892 1.3547 11.1892 0.3819C11.1892 0.247 11.1781 0.1102 11.1542 0C10.2217 0.0361 9.11241 0.6403 8.44349 1.4402C7.91831 2.0558 7.42813 3.0286 7.42813 4.0147C7.42813 4.1629 7.45209 4.3111 7.46315 4.3586C7.52211 4.37 7.61794 4.3833 7.71376 4.3833C8.55037 4.3833 9.60258 3.8057 10.2107 3.0286Z" fill="white"/>
</g>
<defs>
<clipPath id="clip0_528_31188">
<rect width="15" height="19" fill="white"/>
</clipPath>
</defs>
</svg>
