<svg width="52" height="50" viewBox="0 0 52 50" fill="none" xmlns="http://www.w3.org/2000/svg">
<g clip-path="url(#clip0_572_4717)">
<path d="M33.6217 47.6953C33.6217 47.6953 37.9787 47.6953 37.9787 43.6046V6.78605C37.9786 2.69531 33.6217 2.69531 33.6217 2.69531H18.3725C18.3725 2.69531 14.0156 2.69531 14.0156 6.78605V43.6046C14.0157 47.6953 18.3725 47.6953 18.3725 47.6953H33.6217ZM25.9971 45.992C24.7947 45.992 23.8187 45.077 23.8187 43.9497C23.8187 42.8224 24.7947 41.9075 25.9971 41.9075C27.1997 41.9075 28.1756 42.8224 28.1756 43.9497C28.1756 45.0771 27.1997 45.992 25.9971 45.992ZM22.7294 5.18895C22.7294 4.93571 22.858 4.73759 23.0191 4.73759H28.975C29.1341 4.73759 29.2648 4.9398 29.2648 5.18895V5.30946C29.2648 5.5627 29.1341 5.76082 28.975 5.76082H23.0191C22.8601 5.76082 22.7294 5.55861 22.7294 5.30946V5.18895ZM16.1941 7.80105H35.8002V40.4778H16.1941V7.80105Z" fill="white"/>
</g>
<defs>
<clipPath id="clip0_572_4717">
<rect width="48" height="45" fill="white" transform="translate(1.99707 2.69531)"/>
</clipPath>
</defs>
</svg>
