<svg width="36" height="36" viewBox="0 0 36 36" fill="none" xmlns="http://www.w3.org/2000/svg">
<path d="M24.6666 0C18.4 0 13.3333 5.06667 13.3333 11.3333C13.3333 12.6666 13.6 14 14 15.3333L0 29.3333V36H6.66667V32H10.6667V28H14.6667L20.6666 22C21.8667 22.4 23.2 22.6667 24.6666 22.6667C30.9333 22.6667 35.9999 17.6 35.9999 11.3334C35.9999 5.06674 30.9333 0 24.6666 0ZM28 12C25.7333 12 24 10.2667 24 8C24 5.7333 25.7333 4 28 4C30.2667 4 32 5.7333 32 8C32 10.2667 30.2667 12 28 12Z" fill="white"/>
</svg>
