<svg width="39" height="39" viewBox="0 0 39 39" fill="none" xmlns="http://www.w3.org/2000/svg">
<path d="M32.6546 5.28346C30.8113 7.12682 28.9755 8.95494 27.1779 10.7526C26.4009 10.2956 25.6468 9.76998 24.8242 9.38912C21.6935 7.94185 18.5324 7.94947 15.4093 9.3815C12.4843 10.7297 10.4658 12.9616 9.48314 16.0237C8.24916 19.8704 8.889 23.4581 11.4027 26.6344C13.2232 28.9424 15.6454 30.2831 18.5628 30.6944C20.7413 30.9991 22.8742 30.763 24.9079 29.9403C27.772 28.7749 29.5849 26.6878 30.2933 23.6561C30.3009 23.6104 30.3009 23.5571 30.3085 23.4657C26.9265 23.4657 23.5597 23.4657 20.1701 23.4657C20.1701 21.0053 20.1701 18.5907 20.1701 16.1303C20.3376 16.1227 20.4976 16.1075 20.6576 16.1075C26.241 16.1075 31.832 16.1151 37.4154 16.0922C37.8495 16.0922 37.941 16.2827 38.0019 16.6255C38.3218 18.3088 38.3904 19.9999 38.2228 21.7061C38.0247 23.6713 37.6286 25.5833 36.8974 27.4266C35.4501 31.0905 33.0736 33.9698 29.6915 35.996C25.6925 38.3954 21.3507 39.0809 16.7956 38.304C12.4081 37.5499 8.72904 35.4399 5.78881 32.096C3.89974 29.9479 2.58959 27.4799 1.82025 24.7225C1.05092 21.9651 0.921424 19.162 1.38607 16.3512C1.94974 12.9692 3.35131 9.94518 5.56791 7.31725C8.16537 4.2399 11.4103 2.15279 15.3103 1.17017C20.0863 -0.0333412 24.6947 0.469393 29.0669 2.80787C30.3619 3.50103 31.5578 4.33131 32.6546 5.28346Z" fill="white"/>
</svg>
