<svg width="28" height="28" viewBox="0 0 28 28" fill="none" xmlns="http://www.w3.org/2000/svg">
<g clip-path="url(#clip0_572_4721)">
<circle cx="14.5029" cy="13.4922" r="10.5" fill="white"/>
<path d="M14.5811 2.16406C12.356 2.16406 10.1809 2.82386 8.33089 4.06003C6.48084 5.2962 5.0389 7.0532 4.18741 9.10887C3.33593 11.1645 3.11314 13.4265 3.54723 15.6088C3.98131 17.7911 5.05277 19.7957 6.62611 21.369C8.19945 22.9424 10.204 24.0138 12.3863 24.4479C14.5686 24.882 16.8306 24.6592 18.8862 23.8077C20.9419 22.9562 22.6989 21.5143 23.9351 19.6642C25.1713 17.8142 25.8311 15.6391 25.8311 13.4141C25.8311 11.9367 25.5401 10.4738 24.9747 9.10887C24.4093 7.74396 23.5807 6.50377 22.536 5.45911C21.4914 4.41445 20.2512 3.58578 18.8862 3.02042C17.5213 2.45505 16.0584 2.16406 14.5811 2.16406ZM19.4186 10.7253L14.2773 17.4753C14.1725 17.6115 14.0379 17.7218 13.8839 17.7978C13.7298 17.8739 13.5604 17.9136 13.3886 17.9141C13.2177 17.915 13.0488 17.877 12.8948 17.8029C12.7408 17.7288 12.6058 17.6206 12.4998 17.4866L9.75481 13.9878C9.57131 13.7521 9.48897 13.4532 9.52589 13.1567C9.56281 12.8603 9.71597 12.5907 9.95168 12.4072C10.1874 12.2237 10.4863 12.1413 10.7828 12.1783C11.0792 12.2152 11.3488 12.3684 11.5323 12.6041L13.3661 14.9441L17.6186 9.31906C17.7087 9.20087 17.8212 9.10159 17.9497 9.02689C18.0782 8.95218 18.2201 8.90351 18.3674 8.88366C18.5147 8.86382 18.6645 8.87317 18.8082 8.9112C18.9518 8.94923 19.0866 9.01519 19.2048 9.10531C19.323 9.19543 19.4223 9.30795 19.497 9.43644C19.5717 9.56493 19.6204 9.70687 19.6402 9.85417C19.6601 10.0015 19.6507 10.1512 19.6127 10.2949C19.5746 10.4386 19.5087 10.5734 19.4186 10.6916V10.7253Z" fill="#00B488"/>
</g>
<defs>
<clipPath id="clip0_572_4721">
<rect width="27" height="27" fill="white" transform="translate(0.00292969 0.992188)"/>
</clipPath>
</defs>
</svg>
