<svg width="16" height="16" viewBox="0 0 16 16" fill="none" xmlns="http://www.w3.org/2000/svg">
<g clip-path="url(#clip0_528_31204)">
<path d="M14.4006 1.60156H1.60059V16.0016H14.4006V1.60156Z" fill="white"/>
<path fill-rule="evenodd" clip-rule="evenodd" d="M8.54613 16H0.883125C0.39525 16 0 15.6045 0 15.1169V0.883125C0 0.39525 0.39525 0 0.883125 0H15.117C15.6046 0 16 0.39525 16 0.883125V15.1169C16 15.6046 15.6046 16 15.117 16H11.0398V9.80387H13.1195L13.4309 7.38912H11.0398V5.8475C11.0398 5.14838 11.2339 4.672 12.2364 4.672L13.515 4.6715V2.51175C13.2939 2.48237 12.5349 2.41663 11.6517 2.41663C9.80812 2.41663 8.546 3.542 8.546 5.6085V7.38925H6.461V9.804H8.54613V16Z" fill="#4460A0"/>
</g>
<defs>
<clipPath id="clip0_528_31204">
<rect width="16" height="16" fill="white"/>
</clipPath>
</defs>
</svg>
