<svg width="16" height="16" viewBox="0 0 16 16" fill="none" xmlns="http://www.w3.org/2000/svg">
<g clip-path="url(#clip0_528_31223)">
<path d="M8.16333 6.54688V9.64508H12.5567C12.3637 10.6414 11.7848 11.4851 10.9166 12.0524L13.5659 14.067C15.1095 12.6706 16.0001 10.6197 16.0001 8.18333C16.0001 7.61606 15.9481 7.07055 15.8516 6.54696L8.16333 6.54688Z" fill="#4285F4"/>
<path d="M3.58882 9.52344L2.9913 9.97169L0.876221 11.5862C2.21945 14.1971 4.97251 16.0008 8.1636 16.0008C10.3676 16.0008 12.2155 15.2881 13.5662 14.0663L10.9168 12.0517C10.1895 12.5317 9.26189 12.8226 8.1636 12.8226C6.04115 12.8226 4.23785 11.419 3.59216 9.52806L3.58882 9.52344Z" fill="#00B488"/>
<path d="M0.875881 4.41406C0.319322 5.49039 0.000244141 6.70496 0.000244141 7.99949C0.000244141 9.29402 0.319322 10.5086 0.875881 11.5849C0.875881 11.5921 3.59208 9.51945 3.59208 9.51945C3.42882 9.03945 3.33232 8.53039 3.33232 7.9994C3.33232 7.46842 3.42882 6.95936 3.59208 6.47936L0.875881 4.41406Z" fill="#FBBC05"/>
<path d="M8.16377 3.18547C9.36602 3.18547 10.4347 3.59273 11.2881 4.3782L13.6257 2.08731C12.2083 0.792781 10.3679 0 8.16377 0C4.97268 0 2.21945 1.79637 0.876221 4.41458L3.59234 6.48004C4.23795 4.5891 6.04132 3.18547 8.16377 3.18547Z" fill="#ED4734"/>
</g>
<defs>
<clipPath id="clip0_528_31223">
<rect width="16" height="16" fill="white"/>
</clipPath>
</defs>
</svg>
