<svg width="17" height="17" viewBox="0 0 17 17" fill="none" xmlns="http://www.w3.org/2000/svg">
<g clip-path="url(#clip0_528_31211)">
<path fill-rule="evenodd" clip-rule="evenodd" d="M17 4.25C17 1.90315 15.0969 0 12.75 0C10.1541 0 6.8459 0 4.25 0C1.90315 0 0 1.90315 0 4.25C0 6.8459 0 10.1541 0 12.75C0 15.0969 1.90315 17 4.25 17C6.8459 17 10.1541 17 12.75 17C15.0969 17 17 15.0969 17 12.75C17 10.1541 17 6.8459 17 4.25Z" fill="url(#paint0_radial_528_31211)"/>
<path d="M11.0153 2.55134C12.7926 2.56834 14.4289 4.09409 14.4467 5.98279C14.4527 7.65899 14.4527 9.33519 14.4467 11.0114C14.4297 12.7819 12.904 14.425 11.0153 14.4428C9.33909 14.4488 7.66289 14.4488 5.98669 14.4428C4.20849 14.4258 2.57309 12.9001 2.55524 11.0114C2.54929 9.33519 2.54929 7.65899 2.55524 5.98279C2.57139 4.20374 4.09374 2.56919 5.98669 2.55134C7.66289 2.54539 9.33909 2.54539 11.0153 2.55134ZM6.00964 3.35459C4.63009 3.35884 3.37209 4.55479 3.35849 5.98789C3.35339 7.66069 3.35339 9.33349 3.35849 11.0063C3.37124 12.3705 4.53829 13.626 5.99179 13.6396C7.66459 13.6447 9.33739 13.6447 11.0102 13.6396C12.3778 13.6268 13.6299 12.4598 13.6435 11.0063C13.6486 9.33349 13.6486 7.66069 13.6435 5.98789C13.6307 4.61429 12.4407 3.36819 11.0102 3.35459C9.34334 3.34949 7.67649 3.35459 6.00964 3.35459Z" fill="white"/>
<path d="M8.52059 5.52344C9.89589 5.53619 11.1777 6.59699 11.4293 7.95614C11.6086 8.92514 11.2703 9.97574 10.5563 10.6574C9.76159 11.4139 8.53164 11.6842 7.47764 11.2983C6.29954 10.8674 5.47079 9.62554 5.52604 8.36754C5.59319 6.86474 6.92089 5.52854 8.50019 5.52344C8.50699 5.52344 8.51379 5.52344 8.52059 5.52344ZM8.48659 6.32839C7.50484 6.33774 6.57919 7.08234 6.37519 8.04964C6.16864 9.02799 6.73134 10.1134 7.65529 10.5036C8.66424 10.9303 9.96729 10.4517 10.4543 9.45554C10.9584 8.42619 10.4832 7.02794 9.41904 6.53069C9.12919 6.39554 8.80704 6.32754 8.48659 6.32839Z" fill="white"/>
<path fill-rule="evenodd" clip-rule="evenodd" d="M12.3258 5.28983C12.3258 5.12578 12.2603 4.96852 12.1447 4.85292C12.0291 4.73732 11.8719 4.67188 11.7078 4.67188C11.6951 4.67188 11.6815 4.67188 11.6687 4.67188C11.5047 4.67188 11.3474 4.73732 11.2318 4.85292C11.1162 4.96852 11.0508 5.12578 11.0508 5.28983C11.0508 5.29663 11.0508 5.30257 11.0508 5.30937C11.0508 5.47852 11.1179 5.64087 11.2378 5.75987C11.3568 5.87972 11.5191 5.94687 11.6883 5.94687C12.0402 5.94687 12.3258 5.66127 12.3258 5.30937C12.3258 5.30257 12.3258 5.29663 12.3258 5.28983Z" fill="white"/>
</g>
<defs>
<radialGradient id="paint0_radial_528_31211" cx="0" cy="0" r="1" gradientUnits="userSpaceOnUse" gradientTransform="translate(0 16.575) scale(23.743)">
<stop stop-color="#FF8100"/>
<stop offset="0.19" stop-color="#FF7209"/>
<stop offset="0.32" stop-color="#F55E16"/>
<stop offset="0.48" stop-color="#D92938"/>
<stop offset="1" stop-color="#9100FF"/>
</radialGradient>
<clipPath id="clip0_528_31211">
<rect width="17" height="17" fill="white"/>
</clipPath>
</defs>
</svg>
