<svg width="18" height="18" viewBox="0 0 18 18" fill="none" xmlns="http://www.w3.org/2000/svg">
<g clip-path="url(#clip0_528_31192)">
<path d="M9 18C13.9705 18 18 13.9705 18 9C18 4.02945 13.9705 0 9 0C4.02945 0 0 4.02945 0 9C0 13.9705 4.02945 18 9 18Z" fill="url(#paint0_linear_528_31192)"/>
<path d="M3.35162 9.43843C4.40371 8.85891 5.57813 8.37523 6.67546 7.88908C8.56328 7.09281 10.4586 6.31033 12.3731 5.58186C12.7455 5.45773 13.4148 5.33634 13.4804 5.88834C13.4445 6.66969 13.2967 7.44647 13.1953 8.22324C12.9379 9.93144 12.6405 11.6338 12.3504 13.3364C12.2505 13.9035 11.54 14.1971 11.0855 13.8341C9.99301 13.0962 8.89216 12.3655 7.81366 11.6105C7.46037 11.2515 7.78797 10.736 8.1035 10.4796C9.00327 9.59289 9.9575 8.83952 10.8102 7.90697C11.0403 7.35148 10.3606 7.81963 10.1364 7.96307C8.90465 8.81192 7.703 9.71259 6.40429 10.4586C5.74092 10.8238 4.96775 10.5117 4.30467 10.3079C3.71014 10.0618 2.83899 9.81377 3.35162 9.43843Z" fill="white"/>
</g>
<defs>
<linearGradient id="paint0_linear_528_31192" x1="6.75105" y1="0.7506" x2="2.25105" y2="11.25" gradientUnits="userSpaceOnUse">
<stop stop-color="#37AEE2"/>
<stop offset="1" stop-color="#1E96C8"/>
</linearGradient>
<clipPath id="clip0_528_31192">
<rect width="18" height="18" fill="white"/>
</clipPath>
</defs>
</svg>
