<svg width="18" height="18" viewBox="0 0 18 18" fill="none" xmlns="http://www.w3.org/2000/svg">
<g clip-path="url(#clip0_528_31197)">
<path fill-rule="evenodd" clip-rule="evenodd" d="M3.16281 0.5625H14.8372C16.2733 0.5625 17.4375 1.72671 17.4375 3.16281V14.8372C17.4375 16.2733 16.2733 17.4375 14.8372 17.4375H3.16281C1.72671 17.4375 0.5625 16.2733 0.5625 14.8372V3.16281C0.5625 1.72671 1.72671 0.5625 3.16281 0.5625Z" fill="#4C75A3"/>
<path fill-rule="evenodd" clip-rule="evenodd" d="M8.85844 12.3733H9.54872C9.54872 12.3733 9.75717 12.3504 9.86376 12.2357C9.96173 12.1303 9.9586 11.9325 9.9586 11.9325C9.9586 11.9325 9.94509 11.0062 10.3749 10.8698C10.7988 10.7354 11.3429 11.765 11.9197 12.1609C12.3558 12.4604 12.6872 12.3949 12.6872 12.3949L14.2295 12.3733C14.2295 12.3733 15.0363 12.3236 14.6537 11.6892C14.6224 11.6374 14.4309 11.22 13.507 10.3624C12.5398 9.46485 12.6695 9.61007 13.8344 8.05746C14.5438 7.11192 14.8274 6.53469 14.7388 6.28748C14.6543 6.05194 14.1325 6.11416 14.1325 6.11416L12.396 6.12489C12.396 6.12489 12.2672 6.10737 12.1718 6.16446C12.0785 6.2203 12.0186 6.35076 12.0186 6.35076C12.0186 6.35076 11.7436 7.08239 11.3772 7.70471C10.604 9.01768 10.2947 9.08718 10.1684 9.00552C9.87429 8.81548 9.94778 8.24225 9.94778 7.83489C9.94778 6.56243 10.1408 6.03189 9.57194 5.89456C9.3832 5.84901 9.24416 5.81888 8.76141 5.81396C8.14177 5.80765 7.61746 5.81587 7.32051 5.96133C7.12295 6.05808 6.97053 6.27361 7.06341 6.28602C7.17822 6.30131 7.43808 6.35617 7.57585 6.54364C7.75385 6.78581 7.74763 7.32944 7.74763 7.32944C7.74763 7.32944 7.84991 8.82732 7.50884 9.01333C7.2748 9.14094 6.9537 8.88043 6.26431 7.68922C5.91116 7.07906 5.64443 6.40452 5.64443 6.40452C5.64443 6.40452 5.59307 6.27849 5.50133 6.21103C5.39006 6.12929 5.23459 6.10338 5.23459 6.10338L3.58442 6.11416C3.58442 6.11416 3.33676 6.12107 3.24575 6.2288C3.16478 6.32469 3.23928 6.52278 3.23928 6.52278C3.23928 6.52278 4.5311 9.5452 5.99396 11.0683C7.33543 12.465 8.85844 12.3733 8.85844 12.3733Z" fill="white"/>
</g>
<defs>
<clipPath id="clip0_528_31197">
<rect width="18" height="18" fill="white"/>
</clipPath>
</defs>
</svg>
