<svg width="23" height="23" viewBox="0 0 23 23" fill="none" xmlns="http://www.w3.org/2000/svg">
<circle cx="11.25" cy="11.25" r="11.25" fill="#FFA203"/>
<path d="M18.1015 14.7344L12.3865 5.1644C11.9815 4.4894 11.0065 4.4294 10.5865 5.0894L4.91744 14.7194C4.46744 15.4244 4.97744 16.5053 5.8165 16.5053H17.1865C18.0115 16.5053 18.5215 15.4394 18.1015 14.7344ZM11.4715 14.8844C11.0665 14.8844 10.7365 14.5553 10.7365 14.1494C10.7365 13.7435 11.0656 13.4144 11.4715 13.4144C11.8765 13.4144 12.2065 13.7435 12.2065 14.1494C12.2065 14.5553 11.8774 14.8844 11.4715 14.8844ZM12.2515 12.1844C12.2515 12.5894 11.9065 12.9194 11.5015 12.9194C11.0965 12.9194 10.7515 12.5903 10.7515 12.1844V8.34347C10.7515 7.93847 11.0965 7.60847 11.5015 7.60847C11.9065 7.60847 12.2515 7.93753 12.2515 8.34347V12.1844Z" fill="white"/>
</svg>
