<svg width="40" height="40" viewBox="0 0 40 40" fill="none" xmlns="http://www.w3.org/2000/svg">
<g clip-path="url(#clip0_289_625)">
<path d="M33.4084 1.7C40.3351 1.26833 42.8517 15.1517 35.835 21.5533C34.8197 22.6141 33.6053 23.4645 32.2612 24.0559C30.9172 24.6473 29.4698 24.9681 28.0017 25C25.8342 25.0346 23.6813 24.638 21.6684 23.8333V8.96667C25.0317 5.22333 29.1884 1.7 33.4084 1.7ZM20.0017 6.66667C20.8858 6.66667 21.7336 6.31548 22.3587 5.69036C22.9839 5.06523 23.3351 4.21739 23.3351 3.33333C23.3351 2.44928 22.9839 1.60143 22.3587 0.976311C21.7336 0.35119 20.8858 0 20.0017 0C19.1177 0 18.2698 0.35119 17.6447 0.976311C17.0196 1.60143 16.6684 2.44928 16.6684 3.33333C16.6684 4.21739 17.0196 5.06523 17.6447 5.69036C18.2698 6.31548 19.1177 6.66667 20.0017 6.66667ZM27.9867 28.3333C25.2372 28.3477 22.5159 27.7797 20.0017 26.6667C16.5017 28.5167 8.00172 29.6383 2.98005 24.9583C2.28649 26.2615 1.86209 27.6909 1.7321 29.1615C1.60211 30.632 1.76918 32.1137 2.22339 33.5183C2.50396 34.4728 2.99354 35.3529 3.65659 36.0947C4.31964 36.8364 5.13952 37.4212 6.05672 37.8067C6.94662 38.1875 7.91016 38.3653 8.87736 38.3272C9.84457 38.2892 10.7912 38.0362 11.6484 37.5867C14.1128 36.3086 16.3677 34.6619 18.3351 32.7033V36.6667C18.3351 37.1087 18.5106 37.5326 18.8232 37.8452C19.1358 38.1577 19.5597 38.3333 20.0017 38.3333C20.4437 38.3333 20.8677 38.1577 21.1802 37.8452C21.4928 37.5326 21.6684 37.1087 21.6684 36.6667V32.7033C23.6388 34.6627 25.8971 36.3095 28.365 37.5867C29.2223 38.0362 30.1689 38.2892 31.1361 38.3272C32.1033 38.3653 33.0668 38.1875 33.9567 37.8067C34.8739 37.4212 35.6938 36.8364 36.3568 36.0947C37.0199 35.3529 37.5095 34.4728 37.7901 33.5183C38.2443 32.1137 38.4113 30.632 38.2813 29.1615C38.1513 27.6909 37.7269 26.2615 37.0334 24.9583C34.501 27.0993 31.3026 28.2925 27.9867 28.3333ZM12.0117 25C14.1758 25.0321 16.3249 24.6356 18.3351 23.8333V8.955C12.5351 1.86 0.400052 -4.27833 0.0117188 12.14C0.117179 15.7022 1.61275 19.0816 4.17839 21.555C6.24093 23.6801 9.0515 24.9161 12.0117 25Z" fill="black"/>
</g>
<defs>
<clipPath id="clip0_289_625">
<rect width="40" height="40" fill="white"/>
</clipPath>
</defs>
</svg>
