<svg width="27" height="26" viewBox="0 0 27 26" fill="none" xmlns="http://www.w3.org/2000/svg">
<g clip-path="url(#clip0_289_440)">
<path d="M26.6057 12.2514V26H13.3233C10.7283 25.9988 8.19022 25.2558 6.02183 23.8626C3.85343 22.4693 2.14938 20.4867 1.11958 18.1588C0.0897728 15.8309 -0.220813 13.2595 0.226076 10.7613C0.672964 8.26311 1.85781 5.9472 3.63467 4.09884C5.41153 2.25048 7.7028 0.950399 10.2263 0.358733C12.7497 -0.232933 15.3952 -0.0903452 17.8368 0.768934C20.2783 1.62821 22.4094 3.16666 23.9675 5.19477C25.5256 7.22288 26.4427 9.65208 26.6057 12.1832V12.2514ZM14.4119 8.66667C14.4119 8.06836 13.9269 7.58333 13.3286 7.58333H8.84409C8.24578 7.58333 7.76076 8.06836 7.76076 8.66667C7.76076 9.26498 8.24578 9.75 8.84409 9.75H13.3286C13.9269 9.75 14.4119 9.26498 14.4119 8.66667ZM18.846 13C18.846 12.4017 18.361 11.9167 17.7627 11.9167H8.84409C8.24578 11.9167 7.76076 12.4017 7.76076 13C7.76076 13.5983 8.24578 14.0833 8.84409 14.0833H17.7627C18.361 14.0833 18.846 13.5983 18.846 13ZM18.846 17.3333C18.846 16.735 18.361 16.25 17.7627 16.25H8.84409C8.24578 16.25 7.76076 16.735 7.76076 17.3333C7.76076 17.9316 8.24578 18.4167 8.84409 18.4167H17.7627C18.361 18.4167 18.846 17.9316 18.846 17.3333Z" fill="black"/>
</g>
<defs>
<clipPath id="clip0_289_440">
<rect width="26.6047" height="26" fill="white"/>
</clipPath>
</defs>
</svg>
