<svg width="200" height="200" viewBox="0 0 200 200" fill="none" xmlns="http://www.w3.org/2000/svg">
<g clip-path="url(#clip0_289_501)">
<path d="M151.875 97.2463L78.542 47.2463C77.5187 46.5529 76.1987 46.4763 75.1054 47.0529C74.0154 47.6296 73.332 48.7629 73.332 49.9996V150C73.332 151.236 74.0154 152.37 75.1087 152.946C75.5954 153.206 76.132 153.333 76.6654 153.333C77.322 153.333 77.9787 153.136 78.542 152.753L151.875 102.753C152.785 102.133 153.332 101.103 153.332 99.9996C153.332 98.8963 152.785 97.8663 151.875 97.2463ZM79.9987 143.69V56.3096L144.082 99.9996L79.9987 143.69Z" fill="#D9D9D9"/>
<path d="M100 0C44.86 0 0 44.86 0 100C0 155.14 44.86 200 100 200C155.14 200 200 155.14 200 100C200 44.86 155.14 0 100 0ZM100 193.333C48.5367 193.333 6.66667 151.463 6.66667 100C6.66667 48.5367 48.5367 6.66667 100 6.66667C151.463 6.66667 193.333 48.5367 193.333 100C193.333 151.463 151.463 193.333 100 193.333Z" fill="#D9D9D9"/>
</g>
<defs>
<clipPath id="clip0_289_501">
<rect width="200" height="200" fill="white"/>
</clipPath>
</defs>
</svg>
