<svg width="40" height="40" viewBox="0 0 40 40" fill="none" xmlns="http://www.w3.org/2000/svg">
<g clip-path="url(#clip0_289_631)">
<path d="M11.6654 13.3333V11.6667C11.6649 9.81899 12.2784 8.02355 13.4096 6.56261C14.5407 5.10167 16.1253 4.05808 17.9142 3.59592C19.7032 3.13376 21.595 3.27923 23.2922 4.00946C24.9894 4.7397 26.3959 6.01328 27.2904 7.62999L30.2054 6.01166C28.9525 3.74885 26.9832 1.96652 24.6071 0.944845C22.2309 -0.0768315 19.5826 -0.279928 17.0785 0.367481C14.5743 1.01489 12.3563 2.4761 10.7731 4.52141C9.18984 6.56672 8.33117 9.08017 8.33203 11.6667V13.3333H3.33203V35C3.33203 36.3261 3.85882 37.5978 4.7965 38.5355C5.73418 39.4732 7.00595 40 8.33203 40H31.6654C32.9914 40 34.2632 39.4732 35.2009 38.5355C36.1386 37.5978 36.6654 36.3261 36.6654 35V13.3333H11.6654ZM21.6654 30H18.332V23.3333H21.6654V30Z" fill="black"/>
</g>
<defs>
<clipPath id="clip0_289_631">
<rect width="40" height="40" fill="white"/>
</clipPath>
</defs>
</svg>
