<svg width="20" height="20" viewBox="0 0 20 20" fill="none" xmlns="http://www.w3.org/2000/svg">
<g clip-path="url(#clip0_5_246)">
<path d="M8.61316 11.6134L11.3868 10.0042L8.61316 8.38708V11.6134Z" fill="#1E1E1E"/>
<path d="M10 0.000244141C8.02219 0.000244141 6.08879 0.586734 4.4443 1.68555C2.79981 2.78436 1.51809 4.34615 0.761209 6.17341C0.00433282 8.00067 -0.193701 10.0113 0.192152 11.9511C0.578004 13.891 1.53041 15.6728 2.92894 17.0713C4.32746 18.4698 6.10929 19.4222 8.0491 19.8081C9.98891 20.194 11.9996 19.9959 13.8268 19.239C15.6541 18.4822 17.2159 17.2004 18.3147 15.5559C19.4135 13.9115 20 11.9781 20 10.0002C20 7.34808 18.9464 4.80454 17.0711 2.92918C15.1957 1.05381 12.6522 0.000244141 10 0.000244141ZM15.2632 11.77C15.2633 12.0315 15.212 12.2905 15.112 12.5322C15.012 12.7739 14.8654 12.9935 14.6805 13.1785C14.4957 13.3635 14.2761 13.5103 14.0345 13.6104C13.7929 13.7105 13.5339 13.7621 13.2724 13.7621H6.72764C6.46609 13.7621 6.20711 13.7105 5.96549 13.6104C5.72387 13.5103 5.50435 13.3635 5.31947 13.1785C5.13459 12.9935 4.98798 12.7739 4.88801 12.5322C4.78804 12.2905 4.73667 12.0315 4.73685 11.77V8.23051C4.73667 7.96896 4.78804 7.70995 4.88801 7.46826C4.98798 7.22658 5.13459 7.00696 5.31947 6.82196C5.50435 6.63695 5.72387 6.4902 5.96549 6.39007C6.20711 6.28994 6.46609 6.2384 6.72764 6.2384H13.2724C13.5339 6.2384 13.7929 6.28994 14.0345 6.39007C14.2761 6.4902 14.4957 6.63695 14.6805 6.82196C14.8654 7.00696 15.012 7.22658 15.112 7.46826C15.212 7.70995 15.2633 7.96896 15.2632 8.23051V11.77Z" fill="#1E1E1E"/>
</g>
<defs>
<clipPath id="clip0_5_246">
<rect width="20" height="20" fill="white" transform="translate(0 0.000244141)"/>
</clipPath>
</defs>
</svg>
