<svg xmlns="http://www.w3.org/2000/svg" width="56" height="56" viewBox="0 0 56 56" fill="none"><path d="M27.862 42.947c-5.26-5.754-12.626-20.532 0-33.614 12.473 12.613 5.567 28.137 0 33.614Z" stroke="#000" stroke-linejoin="round"/><path d="M29.405 41.6c7.051-1.324 19.353-10.529 13.687-29.11-2.754.606-5.03 1.606-6.902 2.888M26.595 41.6C19.544 40.276 7.242 31.071 12.91 12.49c2.753.606 5.03 1.606 6.901 2.888" stroke="#000" stroke-linecap="round" stroke-linejoin="round"/><path d="M32.084 40.763c5.272 2.525 16.697 2.193 18.807-13.333-1.3-.577-2.524-.958-3.672-1.17M23.916 40.763C18.644 43.288 7.218 42.956 5.11 27.43c1.3-.577 2.524-.958 3.672-1.17" stroke="#000" stroke-linecap="round" stroke-linejoin="round"/></svg>