<svg xmlns="http://www.w3.org/2000/svg" width="56" height="56" viewBox="0 0 56 56" fill="none"><path d="M30.579 16.972c1.296 1.951 3.771 3.657 6.278 3.657 3.999 0 7.242-3.249 7.242-7.235 0-3.985-3.253-7.234-7.242-7.234-2.517 0-4.724 1.297-6.02 3.258l-.377.57" stroke="#000" stroke-linecap="round" stroke-linejoin="round"/><path d="M52.191 47.006c-6.553-2.466-15.105-3.652-23.631-3.652-.576 0-1.151.006-1.726.017M4.917 47.04c3.092-1.163 6.63-2.05 10.401-2.66m0 0 3.9-5.163m-3.9 5.162c3.684-.597 7.589-.932 11.516-1.008m-7.616-4.154-7.856-8.724m7.856 8.724 6.636-.013m0 0-4.727-19.992m4.727 19.992 13.894-.01 3.949 5.494m-17.843-5.484.98 4.167m-5.707-24.159L7.498 22.43c-.669-2.89.335-6.405 2.129-8.711 1.557-1.995 3.471-3.394 6.242-4.637 1.085-.486 2.873-1.007 2.873-1.007m2.385 11.138 5.764-1.41M15.34 20.538c-.568-7.831 3.402-12.463 3.402-12.463m0 0s1.8-.28 2.963-.298c3.27-.05 5.883.551 8.163 1.87l.592.342.568.404c1.89 1.404 3.777 3.312 3.777 5.546l-4.227 1.033-3.687.832m-8.15-9.729s6.723 4.428 8.15 9.729" stroke="#000" stroke-linecap="round" stroke-linejoin="round"/><path d="m17.419 32.554 3.308 3.97" stroke="#000" stroke-linecap="round"/></svg>