<svg xmlns="http://www.w3.org/2000/svg" width="56" height="56" viewBox="0 0 56 56" fill="none"><path d="M46.179 13.148c-.017-1.796-1.521-3.299-3.327-3.325h-.009" stroke="#000" stroke-miterlimit="10" stroke-linecap="round"/><path d="m10.416 20.819-4.822 4.828m11.486-2.349-4.822 4.828m22.92 17.439-4.823 4.819m2.281-11.54-4.822 4.82" stroke="#000" stroke-linecap="round" stroke-linejoin="round"/><path d="M49.221 4.675c-2.471 0-7.026 2.462-8.581 4.008L29.671 20.309 16.51 34.266a1.3 1.3 0 0 1-.942.432h-.078l-4.598-.19h-.199a5.89 5.89 0 0 0-3.137.898l-2.48 1.538a.866.866 0 0 0-.407.803c.026.32.234.605.528.726l8.867 3.67 3.448 8.646c.121.303.398.51.726.544h.078a.84.84 0 0 0 .726-.405l1.564-2.47a5.96 5.96 0 0 0 .899-3.335l-.19-4.577a1.382 1.382 0 0 1 .432-1.045l25.59-24.124c.821-.82 2.135-2.79 3.077-5.001 1.08-2.54 1.21-4.327.38-5.156-.371-.363-.898-.553-1.572-.553v.008Z" stroke="#000" stroke-miterlimit="10"/><path d="M27.72 22.286 7.28 13.269a.726.726 0 0 1-.441-.665.708.708 0 0 1 .415-.683l2.783-1.399a2.225 2.225 0 0 1 1.469-.19l22.85 4.906m-15.246-.095 11.201 4.25m-11.244-7.498L21.264 9.7a1.496 1.496 0 0 0 0-2.108l-.536-.535a1.498 1.498 0 0 0-2.109 0l-3.803 3.8m13.982 3.179 2.178-2.176a1.496 1.496 0 0 0 0-2.108l-.535-.535a1.498 1.498 0 0 0-2.11 0l-3.802 3.8m16.205 8.586 4.909 22.837c.103.492.043 1.02-.19 1.468l-1.4 2.782a.716.716 0 0 1-.683.414.74.74 0 0 1-.666-.44l-9.023-20.427m7.139 8.611-4.243-11.202m7.493 11.245 2.195-2.193a1.498 1.498 0 0 1 2.11 0l.535.535a1.496 1.496 0 0 1 0 2.108l-3.803 3.8" stroke="#000" stroke-linecap="round" stroke-linejoin="round"/><path d="m41.926 27.167 2.178-2.177a1.498 1.498 0 0 1 2.11 0l.535.536c.58.578.58 1.528 0 2.107l-3.803 3.8" stroke="#000" stroke-linecap="round" stroke-linejoin="round"/></svg>