<svg xmlns="http://www.w3.org/2000/svg" width="56" height="56" viewBox="0 0 56 56" fill="none"><path d="M29.468 38.75c.493 1.715 5.933 3.977 8.142 4.672" stroke="#000" stroke-miterlimit="10" stroke-linecap="round" stroke-linejoin="round"/><path d="M46.72 43.736c-7.62-1.288-11.32.316-15.107.64-4.363.444-5.782-.778-10.54.435-1.3.334-1.956.575-3.024 1.261-3.151 2.762 5.61 2.484 8.698 1.464 5.476 1.946 22.963 2.04 23.367-.25 3.43-3.243-1.212-5.06-3.645-6.737-4.174-2.345-6.041-4.662-8.761-5.626m4.166-2.4c2.253.546 8.367.881 8.834.77" stroke="#000" stroke-miterlimit="10" stroke-linecap="round" stroke-linejoin="round"/><path d="M23.255 44.395c4.947-1.547 1.15-4.596.844-5.644-1.67-2.084-2.307-2.233-3.15-2.78" stroke="#000" stroke-miterlimit="10" stroke-linecap="round" stroke-linejoin="round"/><path d="M16.416 46.842c-.916.61-3.241.444-6.419-.204-.628-5.487 2.487-6.904 1.508-9.555 1.625.177 3.241.315 4.192-2.512-3.626-1.018-.951-4.263 2.846-.194.94.082 2.317-.27 4.054-.75m25.013 1.296c-3.197-1.76-5.231-2.387-8.137-2.801" stroke="#000" stroke-miterlimit="10" stroke-linecap="round" stroke-linejoin="round"/><path d="M17.86 41.975c.664-.593.736-2.02.135-2.64m-1.93 6.201c-.117.638-.422 1.037-.79 1.417m14.292-29.036c-.628 4.848-1.257 6.47-1.885 9.361l-4.138 4.318c-3.259 2.928 2.217 2.401 4.623.76 1.454-1.001 3.124-2.095 3.213-3.438 1.284-3.152 2.568-6.386 3.86-10.399" stroke="#000" stroke-miterlimit="10" stroke-linecap="round" stroke-linejoin="round"/><path d="M41.447 16.333c-1.024 5.68-3.465 9.165-4.83 12.399l-6.329 2.383-1.723 1.195c-3.322 5.135 1.813 4.56 6.023 3.689 2.559-.538 3.78-2.048 4.615-3.836l9.721-10.41M25.823 33.227c.018-1.158 1.167-2.104 1.365-2.548M9.44 46.685c-2.415-.157-7.406-6.255-3.052-10.445-1.454.39.314-5.893 7.496-3.55" stroke="#000" stroke-miterlimit="10" stroke-linecap="round" stroke-linejoin="round"/><path d="M7.124 35.757c1.086-.436 3.08.01 4.354 1.345m5.557-4.412c2.262-.278 4.174-1.362 4.534.575M9.018 45.747c-.808-1.5-1.382-1.713-1.22-5.606" stroke="#000" stroke-miterlimit="10" stroke-linecap="round" stroke-linejoin="round"/></svg>