<svg xmlns="http://www.w3.org/2000/svg" width="56" height="56" viewBox="0 0 56 56" fill="none"><path d="M4.667 24.003h45.99M5.03 4.667l5.673 8.474m-3.885 4.822 3.152-3.009 2.272 4.407" stroke="#000" stroke-linecap="round" stroke-linejoin="round"/><path d="m23.246 24.005-10.423-14.9-2.854 5.85m6.638 3.671v-4.111m.547-3.54c0-2.592 1.95-4.693 4.357-4.693 2.405 0 4.356 2.101 4.356 4.693 0 2.592-1.95 4.693-4.357 4.693-.526 0-1.03-.1-1.496-.284m11.946 8.619s19.71 20.092-7.266 27.221M8.003 29.294s1.838-.453 3.903 0m7.908 0s1.838-.453 3.903 0" stroke="#000" stroke-linecap="round" stroke-linejoin="round"/><path d="M27.773 31.55s1.838-.454 3.903 0m-2.395 8.122s1.838-.453 3.903 0m-15.965-3.609s1.838-.453 3.903 0M9.008 38.77s1.838-.453 3.903 0m-4.908 6.498s1.838-.453 3.903 0m7.155-2.889s1.838-.453 3.903 0m-6.416 5.777s1.838-.453 3.903 0M39.94 31.28c.107.22.596-.007 1.509.271.752.23 1.31.653 1.675.993a5.143 5.143 0 0 1 2.597-.812 5.078 5.078 0 0 1 2.43.541 2.442 2.442 0 0 1 1.005-.812c.898-.377 1.74-.021 2.099.173.047.026.097-.03.07-.08-1.407-2.652-3.788-4.309-6.19-4.154-3.076.197-5.466 3.32-5.194 3.88Z" stroke="#000" stroke-linecap="round" stroke-linejoin="round"/><path d="M43.123 32.544s.42-3.79 2.011-5.144m3.017 4.874s-.44-3.469-2.524-4.713m.093 4.171v5.883M39.94 45c.107.219.596-.008 1.509.27.752.23 1.31.653 1.675.993a5.143 5.143 0 0 1 2.597-.813 5.078 5.078 0 0 1 2.43.542 2.442 2.442 0 0 1 1.005-.812c.898-.377 1.74-.021 2.099.173.047.026.097-.03.07-.08-1.407-2.652-3.788-4.309-6.19-4.154-3.076.197-5.466 3.32-5.194 3.88Z" stroke="#000" stroke-linecap="round" stroke-linejoin="round"/><path d="M43.123 46.263s.42-3.79 2.011-5.144m3.017 4.872s-.44-3.468-2.524-4.713m.093 4.172v5.883" stroke="#000" stroke-linecap="round" stroke-linejoin="round"/></svg>