<svg xmlns="http://www.w3.org/2000/svg" width="52" height="52" viewBox="0 0 52 52" fill="none"><path d="m45.202 9.478-2.6-2.49s-3.882 3.396-5.343 3.27c-9.142-.78-14.579-.971-21.566 6.789-6.988 7.76-3.85 21.413-3.033 22.609.816 1.196 14.441 4.953 23.491-4.053 9.05-9.007 4.778-14.31 5.585-20.803.165-1.333 3.466-5.322 3.466-5.322Z" stroke="#000"/><path d="M34.937 27.32c-.756-1.758-2.133-2.073-4.354-2.073m0 0c-4.177 1.487-5.626 3.026-6.62 7.03m6.62-7.03c1.51-3.11 3.065-5.184 5.953-5.183 5.167 0 1.866 9.058-1.6 12.8-4.29 4.63-13.017 6.444-16.171 5.362-2.41-.826 3.643-5.678 5.198-5.949m0 0c1.777 0 2.665.586 3.42 1.938" stroke="#000" stroke-linecap="round" stroke-linejoin="round"/><path d="m36.797 10.1-2.198-4.994-3.281 2.318-2.813-3.09-2.96 3.269-3.046-2.14L20.3 9.029l-3.574-.713-.791 3.893-3.897-.178.351 3.953H8.61l1.407 3.923-3.72 1.01 1.816 3.597-3.78 2.14 3.487 3.002-3.164 2.407 2.93 2.913-2.667 2.496 4.073 1.665v3.982h4.014l1.582 4.013 2.754-2.2 2.725 2.735 2.578-3.121 2.666 3.12 2.198-3.328 3.604 1.664.937-3.774 3.78 1.367V39.82l4.014.208-.147-3.893 3.838-.713-.673-3.597 3.486-2.258-2.08-3.18 3.399-2.973-3.194-2.704 2.725-3.686-5.45-1.783" stroke="#000" stroke-linejoin="round"/><path d="M25.157 17.29c1.38.75 2.067 2.188 1.85 4.175m0 0c-1.049 4.49-2.434 5.913-6.844 7.037m6.844-7.037c5.714-1.556 5.98-6.591 4.532-7.6-3.759-2.619-8.89.575-12.717 4.176-4.651 4.375-5.33 15.897-4.255 15.81 2.867-.235 4.255-2.159 5.596-5.349m0 0c-.302-1.954-.792-2.784-1.943-3.565" stroke="#000" stroke-linecap="round" stroke-linejoin="round"/></svg>