<svg xmlns="http://www.w3.org/2000/svg" width="52" height="52" viewBox="0 0 52 52" fill="none"><path d="M4.333 22.289h42.705M4.67 4.333l5.269 7.87M6.331 16.68l2.927-2.794 2.11 4.092" stroke="#000" stroke-linecap="round" stroke-linejoin="round"/><path d="M21.585 22.29 11.907 8.454l-2.65 5.432m6.164 3.41v-3.818m.508-3.287c0-2.406 1.81-4.357 4.045-4.357 2.234 0 4.045 1.95 4.045 4.357s-1.81 4.358-4.045 4.358c-.489 0-.956-.093-1.39-.264m11.092 8.004S47.98 40.945 22.93 47.565M7.432 27.202s1.706-.421 3.624 0m7.343 0s1.706-.421 3.624 0" stroke="#000" stroke-linecap="round" stroke-linejoin="round"/><path d="M25.789 29.296s1.707-.42 3.624 0m-2.223 7.543s1.706-.421 3.624 0m-14.825-3.352s1.706-.42 3.624 0M8.365 36s1.706-.42 3.624 0m-4.557 6.035s1.706-.42 3.624 0m6.644-2.683s1.706-.42 3.624 0m-5.958 5.364s1.707-.42 3.624 0m18.098-15.67c.099.204.552-.007 1.4.251a4.027 4.027 0 0 1 1.556.922 4.776 4.776 0 0 1 2.411-.754 4.717 4.717 0 0 1 2.256.503c.151-.206.452-.552.934-.755.834-.35 1.616-.019 1.948.161.045.025.091-.028.066-.074-1.306-2.462-3.518-4.001-5.748-3.858-2.857.184-5.076 3.083-4.823 3.604Z" stroke="#000" stroke-linecap="round" stroke-linejoin="round"/><path d="M40.043 30.22s.39-3.52 1.867-4.777m2.802 4.525s-.41-3.22-2.344-4.376m.087 3.874v5.463m-5.367 6.856c.099.204.552-.007 1.4.252a4.026 4.026 0 0 1 1.556.921 4.775 4.775 0 0 1 2.411-.754 4.715 4.715 0 0 1 2.256.503c.151-.205.452-.551.934-.754.834-.35 1.616-.02 1.948.16.045.025.091-.028.066-.074-1.306-2.462-3.518-4-5.748-3.857-2.857.183-5.076 3.083-4.823 3.603Z" stroke="#000" stroke-linecap="round" stroke-linejoin="round"/><path d="M40.043 42.958s.39-3.52 1.867-4.776m2.802 4.524s-.41-3.22-2.344-4.376m.087 3.873v5.463" stroke="#000" stroke-linecap="round" stroke-linejoin="round"/></svg>