<svg xmlns="http://www.w3.org/2000/svg" width="52" height="52" viewBox="0 0 52 52" fill="none"><path d="M16.006 33.256h14.13M12.267 47.667h7.371m6.139-1.888h.987M12.595 11.828c1.47 2.218 2.608 2.03 3.492 5.712.03.039 1.035 9.993.105 14.72-.424 2.135-.879 2.947-1.586 5.104-.512 1.562-.346 3.821-.986 5.404-2.05 1.253-8.144.473-6.626 0m4.83-33.05c2.63 2.188 5.348 4.1 7.109 9.287.54-1.819.464-11.825-7.11-9.287Z" stroke="#000" stroke-miterlimit="10" stroke-linecap="round" stroke-linejoin="round"/><path d="M13.252 9.606c-2.388 2.003-4.854 3.748-6.46 8.476-.493-1.655-.426-10.789 6.46-8.476Z" stroke="#000" stroke-miterlimit="10" stroke-linecap="round" stroke-linejoin="round"/><path d="M7.932 4.613c1.78 1.5 3.618 2.815 4.806 6.368.37-1.242.32-8.103-4.806-6.368Z" stroke="#000" stroke-miterlimit="10" stroke-linecap="round" stroke-linejoin="round"/><path d="M12.228 10.428c2.013-1.14 4.44-2.518 7.631-1.09-.736-2.381-7.136-4.674-7.63 1.09Z" stroke="#000" stroke-miterlimit="10" stroke-linecap="round" stroke-linejoin="round"/><path d="M11.356 20.39c.36-3.985 1.463-4.61.378-9.902.726-2.178 7.012 3.658-.378 9.902Z" stroke="#000" stroke-miterlimit="10" stroke-linecap="round" stroke-linejoin="round"/><path d="M4.421 10.674c2.002-1.139 4.44-2.515 7.632-1.089-.735-2.382-7.138-4.673-7.632 1.089ZM9.83 42.768l1.228-11.495 3.22-2.59 1.294-8.949m-5.589 19.47-3.23-8.742v-6.307m6.237 5.375-1.78-4.73m-.927 14.25 4.305-3.73m2.502 7.448h1.134m9.148-1.366h.988m11.974-30.288c-4.472 3.135-2.969 8.057-7.437 10.43-2.398 1.275-4.045 2.108-4.468 4.818 1.265 3.698 1.295 7.972 3.859 11.28 2.351.35 5.068.308 8.046-.022" stroke="#000" stroke-miterlimit="10" stroke-linecap="round" stroke-linejoin="round"/><path d="M34.017 20.91c-.32 3.183-1.654 4.095.203 7.692m3.194-12.132c2.263 4.203 4.508 6.052 4.508 12.133" stroke="#000" stroke-miterlimit="10" stroke-linecap="round" stroke-linejoin="round"/><path d="M40.595 22.674c-4.216 1.962-3.453 6.164-3.453 10.724m-5.803 7.326h7.37m-12.942-2.816h.987m-3.114 4.509h.988m5.917 2.827h.987m-11.335-8.187h.976M40.617 9.508c-2.418 2.035-4.912 3.812-6.528 8.618-.503-1.683-.435-10.97 6.529-8.618Z" stroke="#000" stroke-miterlimit="10" stroke-linecap="round" stroke-linejoin="round"/><path d="M39.303 9.405c2.204 1.859 4.48 3.471 5.949 7.859.454-1.54.395-10.005-5.949-7.859Z" stroke="#000" stroke-miterlimit="10" stroke-linecap="round" stroke-linejoin="round"/><path d="M44.197 4.774c-1.634 1.395-3.328 2.61-4.42 5.904-.338-1.148-.29-7.518 4.42-5.904Z" stroke="#000" stroke-miterlimit="10" stroke-linecap="round" stroke-linejoin="round"/><path d="M40.25 10.165c-1.848-1.058-4.08-2.331-7.02-1.005.676-2.21 6.566-4.337 7.02 1.005Z" stroke="#000" stroke-miterlimit="10" stroke-linecap="round" stroke-linejoin="round"/><path d="M41.045 19.401c-.32-3.688-1.335-4.273-.338-9.172-.669-2.025-6.461 3.377.338 9.172Z" stroke="#000" stroke-miterlimit="10" stroke-linecap="round" stroke-linejoin="round"/><path d="M47.439 10.39c-1.847-1.058-4.083-2.32-7.021-1.006.676-2.21 6.556-4.323 7.02 1.006ZM28.653 26.906c3.2.586 3.934 4.407 5.308 7.334" stroke="#000" stroke-miterlimit="10" stroke-linecap="round" stroke-linejoin="round"/></svg>