<svg xmlns="http://www.w3.org/2000/svg" width="52" height="52" viewBox="0 0 52 52" fill="none"><path d="M13.694 27.355C20.36 22.091 24.757 14.3 26.004 8.668M12.039 25.644c.114-.2-.294-.269-.39-.248-.61.138-.592 1.01-.334 1.454.486.832 1.582.961 2.38.594m24.62-.089c-6.674-5.265-11.073-13.057-12.31-18.688m13.958 16.976c-.114-.198.295-.267.391-.247.61.139.59 1.01.333 1.454-.485.833-1.572.96-2.371.594m-12.37 5.288c-.59 1.86-3.626 2.406-2.38 6.108v5.642m2.382-11.752c.591 1.859 3.618 2.405 2.37 6.108v5.64m-2.266-15.152c-1.131 2.91-6.52 4.266-4.512 9.998m4.512-9.997c1.142 2.909 6.531 4.265 4.521 9.996M13.789 27.287h24.42M16.476 24.89h19.049" stroke="#000" stroke-miterlimit="10" stroke-linecap="round" stroke-linejoin="round"/><path d="M19.445 15.122c.152-.17-.239-.316-.334-.307-.628.02-.762.881-.58 1.366.332.911 1.389 1.226 2.236 1.02m-5.351.532c.154-.167-.228-.325-.322-.325-.639.01-.79.861-.63 1.345.315.921 1.353 1.286 2.21 1.098m.001 0h2.476m-8.76.239c.153-.169-.227-.319-.323-.319-.637 0-.79.862-.628 1.348.315.921 1.353 1.276 2.209 1.087m-.003.004h2.466m2.562-2.359c-.675 3.407-1.78 5.634-2.98 7.592" stroke="#000" stroke-miterlimit="10" stroke-linecap="round" stroke-linejoin="round"/><path d="M10.36 22.092c-.676 3.404-1.79 5.631-2.988 7.58m-2.026-.684c.152-.167-.229-.325-.325-.325-.638.01-.79.861-.627 1.346.312.92 1.35 1.287 2.208 1.098m-.002.001h9.378m-7.558 0v13.184m7.626-17.006v17.311m3.094-17.31v17.312m13.413-29.477c-.153-.17.24-.316.333-.306.63.02.762.88.582 1.364-.333.911-1.391 1.227-2.239 1.02m5.351.535c-.152-.167.228-.327.325-.327.638.01.789.86.626 1.346-.312.921-1.35 1.288-2.208 1.099m.001.001H32.86m8.747.236c-.151-.168.229-.315.323-.315.638 0 .792.86.63 1.345-.315.921-1.352 1.277-2.209 1.089m.001.001h-2.467" stroke="#000" stroke-miterlimit="10" stroke-linecap="round" stroke-linejoin="round"/><path d="M35.324 19.853c.678 3.404 1.78 5.631 2.99 7.592m3.322-5.355c.685 3.404 1.788 5.633 2.989 7.583m2.03-.684c-.152-.169.228-.327.324-.327.638.01.79.861.628 1.348-.314.919-1.352 1.285-2.208 1.098m-.001-.002H36.02m7.56.001V44.29m-7.626-17.005v17.312M32.86 27.286v17.313m-20.708.593h28.61M6.17 47.667h40.294" stroke="#000" stroke-miterlimit="10" stroke-linecap="round" stroke-linejoin="round"/></svg>