<svg xmlns="http://www.w3.org/2000/svg" width="52" height="52" viewBox="0 0 52 52" fill="none"><path d="m46.253 6.203-.885.881m-6.99 7.048.898-.834m6.977.834-.885-.834m-6.227-6.214-1.054-1.061m4.139 0 .002-1.69m0 11.533-.002-1.216m-5.53-4.387h1.3m8.436 0 1.235-.002m-7.47 0c0 1.165.91 2.113 2.03 2.113 1.12 0 2.032-.948 2.032-2.113 0-1.164-.912-2.111-2.032-2.111s-2.03.947-2.03 2.111Zm3.218 13.865L31.033 10.653l-9.572 7.525m.876 4.896-8.685-8.697-3.097 2.738" stroke="#000" stroke-linecap="round" stroke-linejoin="round"/><path d="m12.91 19.081-3.921 3.97m-1.717-2.8L4.333 23.07" stroke="#000" stroke-linecap="round"/><ellipse cx="31.076" cy="45.122" rx="2.534" ry="2.544" stroke="#000"/><ellipse cx="12.888" cy="45.122" rx="2.534" ry="2.544" stroke="#000"/><path d="m10.098 9.252-.332.374a.5.5 0 0 0 .698-.033l-.366-.341Zm3.38.334a.5.5 0 1 0 .742-.668l-.743.668Zm-6.99-.7a.5.5 0 0 0 .681.732l-.68-.732Zm5.552-.75.016-.499-.016.5Zm-3.652.283-.02-.5.02.5Zm1.71.833.366.342v-.001l.007-.007.03-.031c.027-.027.068-.068.12-.116.105-.098.251-.228.42-.355a3.09 3.09 0 0 1 .538-.33c.184-.086.334-.121.446-.118l.03-.999c-.325-.01-.636.088-.897.209a4.071 4.071 0 0 0-.716.438 6.11 6.11 0 0 0-.707.624v.002h-.001l.364.342Zm1.927-.616c.238.008.578.19.92.46a4.996 4.996 0 0 1 .531.49h.001l.372-.334.371-.335-.001-.001-.004-.004a1.115 1.115 0 0 0-.048-.052 5.99 5.99 0 0 0-.602-.548c-.355-.28-.92-.657-1.51-.675l-.03 1Zm-1.927.616.333-.374h-.001l-.001-.001-.004-.003a.823.823 0 0 0-.048-.042 5.612 5.612 0 0 0-.589-.43c-.342-.216-.883-.503-1.42-.483l.039 1c.206-.008.52.121.847.328a4.596 4.596 0 0 1 .512.378v.001l.332-.374Zm-1.73-1.333c-.495.019-.986.301-1.298.512a5.48 5.48 0 0 0-.576.45l-.003.003H6.49v.001l.34.367.34.367h-.001l.006-.005a2.182 2.182 0 0 1 .119-.103c.083-.069.2-.16.336-.252.295-.2.583-.333.777-.34l-.038-1Zm-.975 37.218v.5a.5.5 0 0 0 .5-.527l-.5.027Zm-2.956 0h-.5a.5.5 0 0 0 .5.5v-.5Zm0-17.94v-.5a.5.5 0 0 0-.5.5h.5Zm26.224 0v.5-.5Zm8.921 17.94v.5a.5.5 0 0 0 .5-.5h-.5Zm-2.793 0-.5-.008a.5.5 0 0 0 .5.508v-.5Zm-11.398 0v.5a.5.5 0 0 0 .5-.5h-.5Zm-6.813 0h-.5a.5.5 0 0 0 .5.5v-.5Zm-5.742-8.853a.5.5 0 0 0 0 1v-1Zm-3.943 1a.5.5 0 1 0 0-1v1Zm19.415-10.088v-.5.5Zm4.111-5.915h.5a.5.5 0 0 0-.402-.49l-.098.49Zm-7.634-1.513.097-.49a.5.5 0 0 0-.597.49h.5Zm0 4.868h-.5a.5.5 0 0 0 .56.496l-.06-.496Zm-17.392 20H4.437v1h2.956v-1Zm32.19 0h-2.795v1h2.795v-1Zm-2.794.5.5.008v-.08l-.008-.197a7.157 7.157 0 0 0-.074-.681 7.158 7.158 0 0 0-.645-2.069c-.38-.76-.96-1.535-1.849-2.117-.89-.585-2.06-.956-3.58-.956v1c1.35 0 2.324.328 3.032.792.71.466 1.184 1.09 1.501 1.727.32.64.476 1.286.553 1.777a6.175 6.175 0 0 1 .07.743v.047l.5.007Zm-5.656-6.092c-1.52 0-2.694.371-3.592.954a5.442 5.442 0 0 0-1.877 2.114 7.245 7.245 0 0 0-.676 2.066 7.2 7.2 0 0 0-.097.934v.024h.5l.5.001v-.046l.01-.158c.01-.14.03-.342.072-.586.084-.49.251-1.137.58-1.778.328-.64.813-1.265 1.532-1.732.717-.466 1.697-.793 3.048-.793v-1Zm-5.742 5.593h-6.813v1h6.813v-1Zm-6.813.5h.5v-.025l-.002-.055a7.2 7.2 0 0 0-.095-.878 7.245 7.245 0 0 0-.676-2.067c-.39-.76-.982-1.532-1.878-2.114-.897-.583-2.071-.954-3.591-.954v1c1.35 0 2.33.327 3.047.793.72.467 1.204 1.093 1.532 1.732.33.64.496 1.287.58 1.778a6.184 6.184 0 0 1 .081.744l.002.038v.008h.5Zm-5.742-6.093c-1.52 0-2.679.371-3.552.959-.871.586-1.426 1.365-1.777 2.128a6.959 6.959 0 0 0-.567 2.073 7.096 7.096 0 0 0-.047.935 2.406 2.406 0 0 0 .001.021v.002l.5-.025a60.64 60.64 0 0 1 .499-.026v-.001a1.144 1.144 0 0 1-.002-.046v-.158c.003-.139.013-.341.042-.585a5.96 5.96 0 0 1 .483-1.772c.291-.635.739-1.254 1.426-1.716.685-.462 1.643-.79 2.994-.79v-1Zm25.952-2.204c.285 2.515.294 5.353.294 8.297h1c0-2.933-.008-5.828-.3-8.41l-.994.113ZM4.937 45.137v-8.353h-1v8.353h1Zm0-8.353v-9.588h-1v9.588h1Zm-.5.5h4.456v-1H4.437v1Zm34.848-1H28.308v1h10.977v-1Zm-10.977 0H12.836v1h15.472v-1ZM4.437 27.196v.5h23.872v-1H4.438l-.001.5Zm23.87.5h2.354v-1h-2.353v1Zm.5 9.088v-9.588h-1v9.588h1Zm1.854-9.088c.607 0 1.166.042 1.681.123l.154-.988a11.926 11.926 0 0 0-1.835-.135v1Zm1.681.123c2.2.342 3.651 1.383 4.635 2.915.999 1.556 1.534 3.649 1.811 6.106l.994-.112c-.284-2.513-.841-4.786-1.964-6.534-1.139-1.774-2.84-2.977-5.322-3.363l-.154.988Zm.175-7.028-7.635-1.514-.194.981 7.634 1.514.195-.98Zm-8.232-1.023v4.868h1v-4.868h-1Zm8.634 7.556v-3.608h-1v3.608h1Zm0-3.608v-2.434h-1v2.434h1Zm-8.074 1.416 7.634-.92-.12-.993-7.634.92.12.993Z" fill="#000"/><path stroke="#000" stroke-linejoin="round" d="M7.675 30.23h3.648v3.663H7.675zm6.947 0h3.648v3.663h-3.648zm6.839 0h3.648v3.663h-3.648z"/></svg>