<svg width="20" height="20" viewBox="0 0 20 20" fill="none" xmlns="http://www.w3.org/2000/svg">
<g clip-path="url(#clip0_5_238)">
<path d="M10 0.000244141C8.02219 0.000244141 6.08879 0.586734 4.4443 1.68555C2.79981 2.78436 1.51809 4.34615 0.761209 6.17341C0.00433282 8.00067 -0.193701 10.0113 0.192152 11.9511C0.578004 13.891 1.53041 15.6728 2.92894 17.0713C4.32746 18.4698 6.10929 19.4222 8.0491 19.8081C9.98891 20.194 11.9996 19.9959 13.8268 19.239C15.6541 18.4822 17.2159 17.2004 18.3147 15.5559C19.4135 13.9115 20 11.9781 20 10.0002C20 7.34808 18.9464 4.80454 17.0711 2.92918C15.1957 1.05381 12.6522 0.000244141 10 0.000244141ZM12.8447 6.50814C12.8447 6.6963 12.7658 6.7713 12.5816 6.7713C12.2276 6.7713 11.8737 6.7713 11.5211 6.78577C11.1684 6.80024 10.9763 6.96077 10.9763 7.32919C10.9684 7.72393 10.9763 8.11077 10.9763 8.5134H12.4908C12.7066 8.5134 12.7803 8.58709 12.7803 8.80419C12.7803 9.33051 12.7803 9.85946 12.7803 10.391C12.7803 10.6055 12.7118 10.6726 12.4947 10.6739H10.9632V14.9555C10.9632 15.1845 10.8921 15.2568 10.6658 15.2568H9.01843C8.81974 15.2568 8.74211 15.1792 8.74211 14.9805V10.6805H7.43422C7.22895 10.6805 7.15527 10.6055 7.15527 10.3989C7.15527 9.86647 7.15527 9.33446 7.15527 8.80288C7.15527 8.59761 7.2329 8.51998 7.43553 8.51998H8.74211V7.36867C8.7266 6.85151 8.85069 6.33972 9.10132 5.88709C9.36187 5.43012 9.77937 5.08322 10.2763 4.91077C10.5988 4.79342 10.9397 4.7346 11.2829 4.73709H12.5763C12.7618 4.73709 12.8395 4.81867 12.8395 5.00024C12.8461 5.50682 12.8461 6.00814 12.8447 6.50814Z" fill="#1E1E1E"/>
</g>
<defs>
<clipPath id="clip0_5_238">
<rect width="20" height="20" fill="white" transform="translate(0 0.000244141)"/>
</clipPath>
</defs>
</svg>
