<svg width="20" height="20" viewBox="0 0 20 20" fill="none" xmlns="http://www.w3.org/2000/svg">
<g clip-path="url(#clip0_5_234)">
<path d="M11.9141 10.0002C11.9141 11.0574 11.0571 11.9143 10 11.9143C8.94287 11.9143 8.08594 11.0574 8.08594 10.0002C8.08594 8.94312 8.94287 8.08618 10 8.08618C11.0571 8.08618 11.9141 8.94312 11.9141 10.0002Z" fill="#1E1E1E"/>
<path d="M14.4763 6.61368C14.3843 6.36435 14.2375 6.13867 14.0468 5.95343C13.8615 5.7627 13.636 5.61591 13.3865 5.5239C13.1842 5.44531 12.8802 5.35178 12.3204 5.32629C11.7148 5.29868 11.5332 5.29272 10 5.29272C8.46664 5.29272 8.28506 5.29852 7.6796 5.32614C7.11975 5.35178 6.81564 5.44531 6.61346 5.5239C6.36398 5.61591 6.13831 5.7627 5.95322 5.95343C5.76248 6.13867 5.61569 6.3642 5.52353 6.61368C5.44495 6.81601 5.35141 7.12012 5.32593 7.67996C5.29831 8.28543 5.29236 8.46701 5.29236 10.0004C5.29236 11.5336 5.29831 11.7151 5.32593 12.3208C5.35141 12.8806 5.44495 13.1846 5.52353 13.3869C5.61569 13.6364 5.76233 13.8619 5.95306 14.0471C6.13831 14.2379 6.36383 14.3847 6.61331 14.4767C6.81564 14.5554 7.11975 14.649 7.6796 14.6744C8.28506 14.7021 8.46649 14.7079 9.99985 14.7079C11.5334 14.7079 11.7149 14.7021 12.3203 14.6744C12.8801 14.649 13.1842 14.5554 13.3865 14.4767C13.8873 14.2835 14.2831 13.8877 14.4763 13.3869C14.5549 13.1846 14.6484 12.8806 14.6741 12.3208C14.7017 11.7151 14.7075 11.5336 14.7075 10.0004C14.7075 8.46701 14.7017 8.28543 14.6741 7.67996C14.6486 7.12012 14.5551 6.81601 14.4763 6.61368ZM10 12.9488C8.37143 12.9488 7.05124 11.6288 7.05124 10.0002C7.05124 8.37164 8.37143 7.05161 10 7.05161C11.6284 7.05161 12.9486 8.37164 12.9486 10.0002C12.9486 11.6288 11.6284 12.9488 10 12.9488ZM13.0652 7.62411C12.6846 7.62411 12.3761 7.31558 12.3761 6.93503C12.3761 6.55447 12.6846 6.24594 13.0652 6.24594C13.4457 6.24594 13.7543 6.55447 13.7543 6.93503C13.7541 7.31558 13.4457 7.62411 13.0652 7.62411Z" fill="#1E1E1E"/>
<path d="M10 0.000244141C4.478 0.000244141 0 4.47824 0 10.0002C0 15.5222 4.478 20.0002 10 20.0002C15.522 20.0002 20 15.5222 20 10.0002C20 4.47824 15.522 0.000244141 10 0.000244141ZM15.7076 12.3676C15.6798 12.9789 15.5826 13.3962 15.4407 13.7615C15.1424 14.5329 14.5326 15.1426 13.7613 15.4409C13.3961 15.5828 12.9787 15.6799 12.3676 15.7078C11.7552 15.7357 11.5596 15.7424 10.0002 15.7424C8.44055 15.7424 8.24509 15.7357 7.6326 15.7078C7.02148 15.6799 6.604 15.5828 6.23886 15.4409C5.85556 15.2967 5.50858 15.0707 5.22171 14.7785C4.92966 14.4918 4.70367 14.1447 4.55948 13.7615C4.41757 13.3964 4.32037 12.9789 4.2926 12.3678C4.26437 11.7553 4.25781 11.5597 4.25781 10.0002C4.25781 8.4408 4.26437 8.24518 4.29245 7.63284C4.32022 7.02158 4.41727 6.60425 4.55917 6.23895C4.70337 5.8558 4.9295 5.50867 5.22171 5.22195C5.50842 4.92975 5.85556 4.70377 6.23871 4.55957C6.604 4.41766 7.02133 4.32062 7.6326 4.29269C8.24493 4.26477 8.44055 4.25806 10 4.25806C11.5594 4.25806 11.7551 4.26477 12.3674 4.29285C12.9787 4.32062 13.396 4.41766 13.7613 4.55942C14.1444 4.70361 14.4916 4.92975 14.7784 5.22195C15.0705 5.50882 15.2966 5.8558 15.4407 6.23895C15.5827 6.60425 15.6798 7.02158 15.7077 7.63284C15.7356 8.24518 15.7422 8.4408 15.7422 10.0002C15.7422 11.5597 15.7356 11.7553 15.7076 12.3676Z" fill="#1E1E1E"/>
</g>
<defs>
<clipPath id="clip0_5_234">
<rect width="20" height="20" fill="white" transform="translate(0 0.000244141)"/>
</clipPath>
</defs>
</svg>
