<svg width="296" height="298" viewBox="0 0 296 298" fill="none" xmlns="http://www.w3.org/2000/svg">
<path fill-rule="evenodd" clip-rule="evenodd" d="M85.6268 198.269C83.0143 199.125 80.0708 200.634 78.4196 203.124C77.5868 204.38 77.0447 205.691 76.8334 206.789C76.728 207.336 76.7001 207.855 76.7763 208.298C76.8517 208.736 77.0426 209.165 77.4336 209.42C77.8335 209.68 78.3203 209.68 78.8103 209.52C79.297 209.362 79.8446 209.031 80.4527 208.531C81.6719 207.529 83.2368 205.764 85.1736 202.995C86.2593 201.443 86.7837 200.091 86.7648 198.967C88.0725 198.597 89.2597 198.394 90.0956 198.316C90.3705 198.291 90.5728 198.047 90.5473 197.772C90.5219 197.497 90.2783 197.295 90.0034 197.321C89.1252 197.402 87.9145 197.609 86.5867 197.978C86.3747 197.404 85.9829 196.947 85.4605 196.614C84.7957 196.191 83.9354 195.977 82.9797 195.934C81.0681 195.848 78.6377 196.44 76.2057 197.664C71.3334 200.118 66.305 205.191 65.2999 212.869C64.7098 217.376 65.4643 220.462 67.07 222.441C68.6788 224.423 71.0585 225.191 73.4904 225.246C75.9202 225.3 78.4587 224.647 80.4935 223.718C81.5126 223.253 82.419 222.713 83.1303 222.145C83.8316 221.586 84.3862 220.966 84.6367 220.328C84.7376 220.071 84.6111 219.781 84.3541 219.68C84.0971 219.579 83.8069 219.706 83.7059 219.963C83.5489 220.363 83.1511 220.849 82.5067 221.364C81.8723 221.87 81.0398 222.369 80.0784 222.808C78.1522 223.687 75.7633 224.296 73.5128 224.246C71.2643 224.195 69.2107 223.491 67.8464 221.81C66.479 220.126 65.7207 217.358 66.2914 212.999C67.2445 205.719 72.0105 200.896 76.6554 198.557C78.982 197.386 81.2408 196.857 82.9349 196.933C83.7821 196.971 84.4537 197.159 84.9233 197.458C85.253 197.668 85.4899 197.936 85.6268 198.269ZM85.7528 199.281C85.6801 200.065 85.2755 201.105 84.3542 202.422C82.4382 205.161 80.9343 206.841 79.8179 207.758C79.2582 208.218 78.8214 208.465 78.5006 208.569C78.1831 208.673 78.0393 208.621 77.9792 208.582C77.9102 208.537 77.8116 208.418 77.7618 208.128C77.7128 207.843 77.7239 207.453 77.8153 206.978C77.9976 206.031 78.4805 204.841 79.253 203.677C80.6857 201.516 83.2811 200.116 85.7528 199.281ZM114.569 200.425C112.774 199.882 109.803 199.899 105.095 201.001C97.5726 202.762 93.3334 205.196 91.0761 207.465C88.8201 209.733 88.561 211.81 88.8909 212.948C88.9678 213.213 88.8151 213.49 88.5499 213.567C88.2847 213.644 88.0073 213.491 87.9304 213.226C87.4735 211.65 87.9273 209.213 90.367 206.76C92.8055 204.308 97.2447 201.812 104.867 200.028C109.624 198.914 112.806 198.847 114.859 199.468C115.896 199.781 116.662 200.276 117.185 200.915C117.708 201.554 117.96 202.304 118.027 203.079C118.16 204.606 117.58 206.277 116.886 207.62C116.535 208.299 116.145 208.912 115.78 209.404C115.421 209.886 115.063 210.283 114.769 210.502C113.96 211.103 111.928 212.519 109.525 213.949C109.763 214.052 109.993 214.217 110.159 214.472C110.53 215.042 110.426 215.808 109.891 216.713C109.577 217.244 109.327 217.682 109.161 218.041C108.985 218.419 108.945 218.623 108.953 218.714C108.953 218.717 108.954 218.72 108.954 218.722C108.966 218.729 108.991 218.742 109.038 218.756C109.221 218.809 109.57 218.827 110.173 218.756C111.266 218.627 112.112 218.166 112.773 217.805L112.822 217.778C112.986 217.689 113.148 217.601 113.297 217.532C113.44 217.466 113.608 217.399 113.779 217.375C113.962 217.35 114.197 217.367 114.402 217.532C114.592 217.684 114.675 217.899 114.717 218.082C114.812 218.499 114.687 218.957 114.554 219.335C114.464 219.589 114.344 219.873 114.229 220.144C114.17 220.284 114.112 220.42 114.061 220.548C113.897 220.953 113.777 221.308 113.744 221.608C113.712 221.897 113.766 222.07 113.877 222.192C114.026 222.356 114.366 222.552 114.92 222.727C115.456 222.896 116.129 223.027 116.869 223.102C118.356 223.254 120.049 223.181 121.37 222.817C122.004 222.642 122.759 222.271 123.576 221.786C124.388 221.305 125.233 220.727 126.044 220.156C126.28 219.99 126.513 219.825 126.742 219.662C127.295 219.27 127.821 218.897 128.284 218.588C128.614 218.369 128.922 218.175 129.196 218.025C129.462 217.88 129.73 217.756 129.972 217.704C130.058 217.686 130.132 217.671 130.191 217.661C130.219 217.657 130.255 217.652 130.293 217.65C130.311 217.649 130.341 217.648 130.375 217.651C130.4 217.653 130.476 217.659 130.561 217.7C130.659 217.747 130.833 217.878 130.848 218.126C130.859 218.315 130.762 218.441 130.74 218.469C130.685 218.54 130.619 218.583 130.604 218.593L130.603 218.595C130.556 218.626 130.498 218.657 130.453 218.681C130.417 218.7 130.377 218.721 130.333 218.744C130.127 218.851 129.839 219.001 129.531 219.202C129.155 219.447 128.794 219.74 128.561 220.068C128.336 220.383 128.249 220.7 128.344 221.048C128.629 222.093 128.95 222.647 129.351 222.9C129.727 223.138 130.322 223.196 131.409 222.825C131.73 222.716 131.981 222.511 132.171 222.231C131.558 221.582 131.336 220.758 131.334 220.052C131.333 219.644 131.405 219.255 131.532 218.936C131.649 218.644 131.856 218.305 132.199 218.164C132.431 218.068 132.667 218.1 132.86 218.211C133.031 218.31 133.151 218.461 133.234 218.598C133.402 218.875 133.514 219.251 133.576 219.643C133.682 220.313 133.664 221.167 133.411 221.939C133.781 222.144 134.283 222.292 134.961 222.317C136.761 222.386 138.959 221.797 140.856 221.037C141.797 220.659 142.65 220.245 143.322 219.863C144.01 219.472 144.465 219.139 144.653 218.932C145.032 218.517 145.28 218.191 145.436 217.96C145.576 217.751 145.624 217.641 145.635 217.618C145.637 217.613 145.637 217.612 145.637 217.614L146.612 217.831C146.377 219.09 146.076 220.632 145.74 222.275C146.602 221.223 147.267 220.469 147.77 219.942C148.136 219.558 148.424 219.287 148.642 219.109C148.751 219.02 148.853 218.946 148.946 218.891C149.015 218.85 149.161 218.769 149.336 218.769H149.466L149.579 218.831C150.769 219.491 153.631 220.478 157.09 220.265C157.534 218.588 159.149 217.241 160.866 216.47C161.657 216.116 162.48 216.022 163.169 216.126C163.83 216.226 164.491 216.532 164.769 217.108C165.084 217.759 164.788 218.448 164.158 219.005C163.527 219.563 162.456 220.109 160.844 220.6C159.864 220.898 158.901 221.087 157.971 221.192C157.979 221.839 158.247 222.549 158.936 223.297C159.156 223.536 159.529 223.737 160.083 223.871C160.631 224.005 161.312 224.063 162.096 224.053C163.661 224.032 165.561 223.737 167.459 223.296C169.354 222.855 171.225 222.272 172.731 221.687C173.483 221.394 174.138 221.103 174.655 220.832C175.183 220.555 175.527 220.318 175.695 220.145C176.02 219.809 176.463 219.371 176.98 218.899C178.174 217.812 179.819 216.495 181.341 215.908C182.102 215.615 182.909 215.474 183.635 215.718C184.393 215.974 184.941 216.605 185.252 217.589C185.335 217.852 185.19 218.133 184.926 218.216C184.663 218.299 184.382 218.154 184.299 217.89C184.054 217.118 183.689 216.792 183.316 216.666C182.911 216.53 182.369 216.584 181.701 216.842C180.392 217.346 178.897 218.513 177.725 219.574C177.421 220.241 177.183 221.855 178.752 223.264C178.954 223.446 179.295 223.614 179.795 223.743C180.287 223.87 180.895 223.95 181.593 223.982C182.988 224.047 184.689 223.921 186.434 223.655C188.177 223.389 189.947 222.984 191.478 222.499C193.02 222.01 194.275 221.452 195.02 220.897C195.866 220.267 196.901 218.812 197.941 216.92C197.882 215.808 197.867 214.594 197.88 213.289L189.832 213.819C189.556 213.837 189.318 213.628 189.3 213.353C189.282 213.077 189.491 212.839 189.766 212.821L197.894 212.286C197.906 211.628 197.924 210.949 197.944 210.249C198.009 208.083 198.272 206.436 198.654 205.219C199.033 204.01 199.543 203.183 200.135 202.713C200.748 202.226 201.445 202.136 202.054 202.42C202.635 202.691 203.054 203.26 203.259 203.931C203.38 204.326 203.366 204.862 203.292 205.437C203.215 206.031 203.063 206.738 202.855 207.514C202.493 208.861 201.952 210.446 201.309 212.061L209.723 211.506C209.998 211.488 210.236 211.697 210.254 211.973C210.273 212.248 210.064 212.486 209.788 212.504L200.886 213.091C200.295 214.491 199.635 215.888 198.956 217.148C199.09 219.332 199.409 221.007 200.015 222.161C200.612 223.298 201.486 223.934 202.825 224.052C203.58 224.119 204.608 223.869 205.821 223.358C207.02 222.852 208.341 222.116 209.662 221.279C212.201 219.668 214.693 217.707 216.236 216.362C216.238 215.411 216.838 214.764 217.366 214.48C217.513 214.401 217.669 214.341 217.823 214.312C217.963 214.286 218.167 214.273 218.36 214.366C218.466 214.417 218.57 214.501 218.641 214.626C218.711 214.749 218.731 214.879 218.725 214.993C218.713 215.203 218.612 215.391 218.508 215.539C218.403 215.689 218.214 215.891 217.985 216.116C217.796 216.302 217.563 216.52 217.293 216.763C217.346 216.958 217.443 217.181 217.603 217.432C218.181 218.341 218.851 218.929 219.453 219.458C219.641 219.623 219.822 219.782 219.992 219.943C220.329 220.263 220.664 220.634 220.793 221.1C220.932 221.604 220.806 222.11 220.47 222.635C220.242 222.993 219.909 223.278 219.531 223.502C219.741 223.481 219.957 223.45 220.18 223.405C221.86 223.069 223.773 222.181 225.503 221.184C227.225 220.191 228.727 219.112 229.578 218.427C229.793 218.254 230.107 218.288 230.281 218.503C230.454 218.718 230.42 219.033 230.205 219.206C229.316 219.921 227.772 221.03 226.002 222.05C224.239 223.067 222.215 224.018 220.376 224.386C219.053 224.65 217.913 224.521 216.965 224.235C216.158 224.299 215.339 224.236 214.687 224.029C214.053 223.827 213.353 223.405 213.316 222.619C213.308 222.461 213.313 222.263 213.389 222.088C213.432 221.99 213.504 221.883 213.622 221.803C213.741 221.722 213.869 221.695 213.978 221.693C214.169 221.691 214.341 221.768 214.45 221.821C214.573 221.883 214.708 221.966 214.842 222.051C214.901 222.088 214.963 222.128 215.027 222.169C215.539 222.499 216.208 222.93 217.074 223.22C217.628 223.161 218.168 223.032 218.621 222.841C219.108 222.635 219.449 222.376 219.627 222.097C219.866 221.723 219.869 221.511 219.829 221.366C219.778 221.184 219.626 220.974 219.303 220.668C219.173 220.544 219.02 220.41 218.851 220.263C218.239 219.727 217.423 219.012 216.759 217.968C216.651 217.798 216.56 217.631 216.487 217.466C214.903 218.813 212.574 220.616 210.198 222.123C208.851 222.977 207.478 223.744 206.21 224.279C204.955 224.808 203.742 225.137 202.737 225.048C201.038 224.899 199.875 224.045 199.13 222.626C198.584 221.586 198.263 220.246 198.083 218.668C197.26 220.006 196.413 221.106 195.618 221.699C194.737 222.355 193.353 222.953 191.78 223.452C190.195 223.955 188.374 224.37 186.585 224.643C184.798 224.916 183.028 225.05 181.546 224.981C180.806 224.947 180.125 224.861 179.545 224.711C178.971 224.563 178.455 224.342 178.083 224.008C176.894 222.939 176.517 221.743 176.504 220.748C176.473 220.779 176.443 220.81 176.414 220.841C176.13 221.134 175.667 221.43 175.119 221.718C174.56 222.011 173.869 222.317 173.093 222.619C171.541 223.223 169.624 223.819 167.686 224.27C165.751 224.72 163.774 225.031 162.109 225.053C161.277 225.064 160.504 225.003 159.846 224.843C159.192 224.684 158.606 224.415 158.201 223.975C157.389 223.094 157.001 222.176 156.973 221.273C153.595 221.444 150.759 220.551 149.337 219.834C149.318 219.849 149.298 219.865 149.275 219.883C149.101 220.025 148.846 220.263 148.494 220.632C147.803 221.356 146.767 222.554 145.288 224.44C144.736 227.028 144.128 229.673 143.567 231.719C143.283 232.755 143.008 233.649 142.756 234.308C142.63 234.636 142.504 234.921 142.379 235.14C142.316 235.25 142.246 235.355 142.169 235.445C142.096 235.529 141.986 235.635 141.833 235.695C141.404 235.864 140.824 235.903 140.293 235.717C139.736 235.521 139.239 235.077 139.048 234.324C138.864 233.6 138.975 232.648 139.465 231.426C139.958 230.198 140.852 228.647 142.308 226.696C143.066 225.679 143.748 224.787 144.358 224.006C144.671 222.532 144.965 221.081 145.221 219.775C144.897 220.068 144.4 220.4 143.816 220.732C143.101 221.139 142.208 221.572 141.228 221.965C139.28 222.746 136.929 223.393 134.923 223.317C134.136 223.287 133.488 223.115 132.968 222.836C132.678 223.246 132.274 223.587 131.731 223.772C130.555 224.172 129.584 224.23 128.817 223.746C128.073 223.276 127.672 222.385 127.379 221.311C127.298 221.015 127.288 220.734 127.329 220.472C127.099 220.635 126.862 220.803 126.62 220.974C125.805 221.547 124.934 222.144 124.087 222.646C123.245 223.146 122.399 223.57 121.636 223.781C120.164 224.187 118.34 224.258 116.768 224.097C115.979 224.016 115.236 223.876 114.619 223.681C114.021 223.492 113.47 223.23 113.137 222.864C112.766 222.456 112.7 221.955 112.75 221.497C112.8 221.051 112.966 220.587 113.134 220.173C113.2 220.009 113.265 219.856 113.327 219.71C113.433 219.46 113.531 219.23 113.611 219.002C113.705 218.736 113.745 218.55 113.75 218.425C113.739 218.429 113.728 218.435 113.716 218.44C113.602 218.493 113.468 218.564 113.301 218.656C113.277 218.669 113.253 218.682 113.228 218.695C112.57 219.055 111.578 219.597 110.29 219.749C109.665 219.823 109.146 219.828 108.759 219.716C108.557 219.657 108.36 219.558 108.208 219.391C108.051 219.219 107.976 219.012 107.957 218.803C107.923 218.425 108.073 218.008 108.254 217.619C108.444 217.21 108.718 216.732 109.03 216.204C109.497 215.414 109.377 215.104 109.321 215.018C109.239 214.892 109.026 214.797 108.774 214.791C108.621 214.787 108.485 214.715 108.396 214.604C108.331 214.641 108.266 214.678 108.2 214.715C106.72 215.546 105.154 216.337 103.68 216.919C102.345 217.446 101.047 217.817 99.9404 217.868C99.7435 218.944 99.555 219.94 99.3765 220.755C99.2761 221.212 99.1774 221.619 99.0806 221.954C98.9867 222.278 98.8847 222.57 98.7685 222.774C98.4003 223.424 97.8419 223.998 97.3154 224.445C96.7859 224.894 96.26 225.238 95.9261 225.422C95.6844 225.556 95.3802 225.468 95.2466 225.226C95.113 224.985 95.2007 224.681 95.4424 224.547C95.7185 224.394 96.1898 224.088 96.6686 223.682C97.1505 223.273 97.6116 222.788 97.8985 222.281C97.953 222.185 98.0289 221.99 98.12 221.675C98.2082 221.371 98.3014 220.988 98.3997 220.54C98.5649 219.787 98.7401 218.867 98.9251 217.861C98.1601 217.841 97.5503 217.802 97.0724 217.74C96.4995 217.664 96.0314 217.546 95.7201 217.317C95.5492 217.191 95.4153 217.025 95.3482 216.814C95.2833 216.61 95.2954 216.41 95.3335 216.237C95.4046 215.915 95.5971 215.567 95.7799 215.247C95.917 215.007 96.2224 214.924 96.4621 215.061C96.7019 215.198 96.7852 215.504 96.6482 215.743C96.4491 216.092 96.3424 216.306 96.31 216.453C96.3047 216.477 96.3029 216.493 96.3024 216.503C96.3052 216.506 96.3087 216.509 96.3132 216.512C96.4028 216.578 96.6443 216.675 97.2024 216.748C97.6627 216.808 98.283 216.847 99.1066 216.865C99.1257 216.76 99.1449 216.654 99.1641 216.548C99.439 215.031 99.7324 213.412 100.041 211.943C100.397 210.245 100.782 208.7 101.198 207.735C101.749 206.456 102.26 205.614 102.689 205.079C102.904 204.811 103.105 204.612 103.287 204.473C103.457 204.344 103.658 204.23 103.869 204.208C104.143 204.179 104.39 204.378 104.418 204.653C104.446 204.918 104.262 205.156 104.002 205.199C103.993 205.203 103.957 205.22 103.893 205.269C103.792 205.346 103.648 205.482 103.469 205.705C103.113 206.149 102.644 206.905 102.116 208.13C101.746 208.991 101.377 210.444 101.019 212.148C100.714 213.603 100.424 215.206 100.148 216.724C100.141 216.767 100.133 216.811 100.125 216.854C101.021 216.774 102.112 216.463 103.313 215.989C104.73 215.43 106.252 214.662 107.711 213.843C110.627 212.205 113.247 210.387 114.172 209.699C114.347 209.569 114.636 209.265 114.977 208.807C115.31 208.359 115.672 207.792 115.998 207.16C116.659 205.882 117.139 204.414 117.031 203.165C116.978 202.552 116.784 202.004 116.411 201.548C116.037 201.092 115.456 200.693 114.569 200.425ZM113.728 218.257C113.728 218.256 113.728 218.257 113.729 218.258L113.728 218.257ZM143.859 226.296C143.618 226.614 143.369 226.947 143.109 227.294C141.683 229.206 140.842 230.679 140.393 231.799C139.942 232.925 139.907 233.644 140.017 234.078C140.119 234.481 140.358 234.68 140.624 234.773C140.896 234.869 141.203 234.854 141.42 234.782C141.441 234.756 141.471 234.712 141.511 234.643C141.599 234.489 141.704 234.258 141.822 233.95C142.057 233.338 142.322 232.48 142.603 231.455C143.008 229.975 143.44 228.171 143.859 226.296ZM141.401 234.803C141.401 234.803 141.402 234.802 141.404 234.801C141.402 234.803 141.401 234.803 141.401 234.803ZM149.474 219.742C149.474 219.742 149.47 219.744 149.464 219.747C149.471 219.743 149.474 219.742 149.474 219.742ZM218.027 215.293C218.027 215.293 218.025 215.293 218.021 215.293C218.025 215.293 218.027 215.293 218.027 215.293ZM198.882 215.094C199.187 214.465 199.484 213.817 199.767 213.164L198.88 213.223C198.874 213.872 198.874 214.496 198.882 215.094ZM198.895 212.22L200.201 212.134C200.913 210.393 201.506 208.678 201.889 207.255C202.091 206.503 202.231 205.843 202.3 205.309C202.372 204.755 202.357 204.401 202.303 204.223C202.157 203.746 201.891 203.447 201.632 203.327C201.403 203.22 201.107 203.218 200.756 203.496C200.383 203.792 199.956 204.407 199.608 205.518C199.262 206.622 199.007 208.172 198.944 210.279C198.924 210.946 198.907 211.593 198.895 212.22ZM158.181 220.158C158.953 220.055 159.747 219.888 160.553 219.643C162.109 219.169 163.022 218.675 163.495 218.256C163.97 217.836 163.901 217.609 163.869 217.544C163.802 217.404 163.544 217.194 163.02 217.115C162.525 217.04 161.896 217.105 161.276 217.383C159.819 218.036 158.642 219.05 158.181 220.158ZM132.585 221.104C132.657 220.659 132.651 220.195 132.588 219.8C132.556 219.595 132.511 219.426 132.464 219.299C132.463 219.302 132.462 219.305 132.461 219.307C132.386 219.493 132.333 219.754 132.334 220.05C132.335 220.399 132.409 220.768 132.585 221.104ZM146.487 214.414C146.675 214.617 146.663 214.933 146.46 215.121L144.849 216.614C144.646 216.802 144.33 216.79 144.142 216.587C143.954 216.385 143.966 216.069 144.169 215.881L145.781 214.387C145.983 214.199 146.3 214.211 146.487 214.414Z" fill="#393634"/>
<path d="M112.866 10.3038C124.948 18.7846 127.001 42.9784 126.517 54.0152C128.937 54.0152 135.346 53.5505 141.62 51.6917C149.462 49.3682 156.287 39.7836 153.963 29.0373C151.64 18.2909 138.715 10.3038 131.745 6.38279C124.774 2.46181 99.2152 -2.185 70.8972 2.31683C42.5792 6.81867 24.2813 25.8426 14.6968 41.6716C5.11221 57.5007 -1.56787 82.7691 0.320001 121.107C1.8303 151.778 16.149 175.226 23.1196 183.117H50.2759C48.7269 182.052 44.6994 175.943 40.9817 160.026C36.3347 140.131 36.1895 109.78 36.4799 85.9639C36.7704 62.1477 45.4836 26.2781 58.5535 14.5153C71.6233 2.75239 97.763 -0.297246 112.866 10.3038Z" fill="#393634"/>
<path d="M139.989 182.725L146.442 165.365C148.311 166.671 152.249 169.974 153.048 172.739C153.846 175.504 152.715 180.548 152.049 182.725H139.989Z" fill="#393634"/>
<path d="M139.631 95.2036V92.5005C164.493 92.4463 217.785 92.5102 232.058 93.1998C249.9 94.0617 257.312 97.5955 263.518 99.7503C269.724 101.905 291.185 114.575 294.719 140.691C297.546 161.584 291.932 177.782 288.772 183.269H256.709C257.255 181.258 258.416 176.943 258.691 175.771C259.036 174.305 259.467 159.825 260.07 147.672C260.674 135.519 256.709 116.299 248.521 106.473C241.97 98.6125 229.473 95.6849 224.043 95.2036H200.254V113.082V182.725H167.141V113.082C167.312 111.573 166.695 107.131 162.856 101.437C159.016 95.7443 145.772 94.9094 139.631 95.2036Z" fill="#393634"/>
<path d="M200.062 241.847H167.313C167.522 249.301 167.814 266.876 167.313 277.545C166.687 290.881 160.105 292.369 155.023 294.225C150.958 295.709 142.884 295.657 139.355 295.445V297.988H229.556V295.445C227.353 295.581 220.769 295.526 212.063 294.225C203.357 292.923 200.435 282.562 200.062 277.545V241.847Z" fill="#393634"/>
</svg>
