<svg width="40" height="40" viewBox="0 0 40 40" fill="none" xmlns="http://www.w3.org/2000/svg">
<rect width="40" height="40" rx="20" fill="white"/>
<g clip-path="url(#clip0_5_1141)">
<path d="M31.7568 15.1568L23.6943 10.7297C23.5539 10.6526 23.3836 10.6526 23.2432 10.7297L20.2113 12.3945C20.1428 12.4136 20.0789 12.4485 20.0247 12.4969L15.1807 15.1568C15.0307 15.2392 14.9375 15.3967 14.9375 15.5677V16.5261H9.5293C9.27039 16.5261 9.06055 16.7361 9.06055 16.9949C9.06055 17.2538 9.27039 17.4636 9.5293 17.4636H14.9375V19.1511H12.2501C11.9911 19.1511 11.7813 19.3611 11.7813 19.6199C11.7813 19.8788 11.9911 20.0886 12.2501 20.0886H14.9375V22.5261H11C10.7411 22.5261 10.5312 22.7361 10.5312 22.9949C10.5312 23.2538 10.7411 23.4636 11 23.4636H14.9375V24.4222C14.9375 24.5932 15.0307 24.7507 15.1807 24.8331L23.2432 29.2602C23.3135 29.2988 23.3911 29.318 23.4688 29.318C23.5464 29.318 23.624 29.2988 23.6943 29.2602L31.7568 24.8331C31.9068 24.7507 32 24.5932 32 24.4222V22.323C32 22.0643 31.7902 21.8543 31.5312 21.8543C31.2723 21.8543 31.0625 22.0643 31.0625 22.323V24.1448L23.9375 28.0572V20.2723L26.2034 19.0281V21.0027C26.2034 21.1686 26.291 21.322 26.4336 21.4062C26.507 21.4496 26.5896 21.4714 26.6722 21.4714C26.7498 21.4714 26.8276 21.4522 26.8981 21.4134L28.6259 20.4625C28.7755 20.3801 28.8685 20.2228 28.8685 20.0518V17.5647L31.0625 16.36V18.573C31.0625 18.832 31.2723 19.0418 31.5312 19.0418C31.7902 19.0418 32 18.832 32 18.573V15.5677C32 15.3967 31.9068 15.2392 31.7568 15.1568ZM23 28.0572L15.875 24.1448V16.36L23 20.2723V28.0572ZM23.4688 19.4602L16.3802 15.5677L18.608 14.3444L25.6968 18.2369L23.4688 19.4602ZM26.6707 17.702L19.582 13.8096L20.3505 13.3877L27.439 17.2801L26.6707 17.702ZM27.931 19.7748L27.1409 20.2096V18.5134L27.931 18.0794V19.7748ZM28.413 16.7453L21.3244 12.8528L23.4688 11.6755L30.5573 15.5677L28.413 16.7453Z" fill="#9C27B0"/>
<path d="M31.5312 19.9795C31.408 19.9795 31.287 20.0291 31.1998 20.1168C31.1127 20.204 31.0625 20.3245 31.0625 20.4482C31.0625 20.5715 31.1127 20.6925 31.1998 20.7797C31.287 20.8668 31.408 20.917 31.5312 20.917C31.6545 20.917 31.7755 20.8668 31.8627 20.7797C31.9498 20.6925 32 20.5715 32 20.4482C32 20.3245 31.9498 20.204 31.8627 20.1168C31.7755 20.0291 31.6545 19.9795 31.5312 19.9795Z" fill="#9C27B0"/>
<path d="M9.14056 22.5261H8.46875C8.20984 22.5261 8 22.7361 8 22.9949C8 23.2538 8.20984 23.4636 8.46875 23.4636H9.14056C9.39948 23.4636 9.60931 23.2538 9.60931 22.9949C9.60931 22.7361 9.39948 22.5261 9.14056 22.5261Z" fill="#9C27B0"/>
<path d="M10.844 19.6199C10.844 19.4966 10.7938 19.3758 10.7065 19.2886C10.6193 19.2013 10.4985 19.1511 10.3752 19.1511C10.2518 19.1511 10.131 19.2013 10.0438 19.2886C9.95612 19.3758 9.90649 19.4966 9.90649 19.6199C9.90649 19.7433 9.95612 19.8641 10.0438 19.9513C10.131 20.0385 10.2518 20.0886 10.3752 20.0886C10.4985 20.0886 10.6193 20.0386 10.7065 19.9513C10.7938 19.8641 10.844 19.7433 10.844 19.6199Z" fill="#9C27B0"/>
</g>
<defs>
<clipPath id="clip0_5_1141">
<rect width="24" height="24" fill="white" transform="translate(8 8)"/>
</clipPath>
</defs>
</svg>
