<svg width="40" height="40" viewBox="0 0 40 40" fill="none" xmlns="http://www.w3.org/2000/svg">
<rect width="40" height="40" rx="20" fill="white"/>
<g clip-path="url(#clip0_5_1163)">
<path d="M26.6282 13.4053C26.5007 13.1846 26.2633 13.0475 26.0084 13.0475H13.8223C13.5674 13.0475 13.3299 13.1846 13.2025 13.4053L12.3328 14.9116C12.2356 15.0799 12.2933 15.2952 12.4617 15.3925C12.63 15.4897 12.8453 15.432 12.9426 15.2636L13.6123 14.1036L16.1541 18.506H11.0706L12.1452 16.6446C12.2424 16.4762 12.1847 16.2609 12.0164 16.1637C11.848 16.0664 11.6326 16.1242 11.5355 16.2925L10.2349 18.5453C10.1114 18.759 10.139 19.0263 10.3034 19.2104L19.4804 29.4888C19.5884 29.6098 19.7434 29.6792 19.9057 29.6793H19.9059C20.068 29.6793 20.2229 29.61 20.331 29.4892L29.5268 19.2107C29.6915 19.0265 29.7192 18.7591 29.5957 18.5451L26.6282 13.4053ZM20.658 18.506H17.3735L19.9153 14.1036L22.457 18.506H22.4265C22.2321 18.506 22.0745 18.6637 22.0745 18.8581C22.0745 19.0525 22.2321 19.2101 22.4265 19.2101H22.596L19.9067 28.3375L17.2337 19.2101H20.658C20.8524 19.2101 21.01 19.0525 21.01 18.8581C21.0101 18.6637 20.8524 18.506 20.658 18.506ZM23.0668 18.154L20.5251 13.7515H25.6086L23.0668 18.154ZM23.3301 19.2101H28.5825L20.7509 27.9639L23.3301 19.2101ZM28.7601 18.506H23.6766L26.2183 14.1036L28.7601 18.506ZM14.2221 13.7515H19.3056L16.7638 18.154L14.2221 13.7515ZM16.5 19.2101L19.0641 27.9653L11.247 19.2101H16.5Z" fill="#9C27B0"/>
<path d="M28.4351 28.3671C28.4184 28.3559 28.4007 28.3462 28.3823 28.3381C28.1588 28.2392 27.9527 28.1225 27.7697 27.9912C27.6117 27.8778 27.3918 27.914 27.2784 28.0719C27.165 28.2299 27.2012 28.4498 27.3591 28.5632C27.4665 28.6403 27.58 28.713 27.6988 28.7809C26.9385 29.2147 26.4112 29.8363 26.153 30.6047C25.8947 29.8364 25.3675 29.2149 24.6074 28.7811C25.3676 28.3473 25.8948 27.7258 26.153 26.9574C26.1566 26.968 26.1602 26.9785 26.1638 26.9891C26.2278 27.1727 26.4284 27.2697 26.6121 27.2058C26.7957 27.1418 26.8927 26.9412 26.8288 26.7575C26.802 26.6808 26.7785 26.601 26.7588 26.5206L26.6125 25.9228C26.5605 25.7105 26.3715 25.5622 26.153 25.5622C25.9344 25.5622 25.7454 25.7105 25.6934 25.9228L25.5471 26.5206C25.2977 27.5395 24.5265 28.0714 23.9236 28.3381C23.9052 28.3463 23.8875 28.356 23.8707 28.3672C23.732 28.4597 23.6492 28.6144 23.6492 28.7811C23.6492 28.9479 23.732 29.1026 23.8707 29.1951C23.8874 29.2063 23.9051 29.216 23.9236 29.2242C24.5265 29.4909 25.2976 30.0228 25.5471 31.0417L25.6934 31.6395C25.7454 31.8518 25.9344 32.0001 26.153 32.0001C26.3715 32.0001 26.5605 31.8518 26.6125 31.6395L26.7588 31.0417C27.0082 30.0228 27.7794 29.4909 28.3823 29.2242C28.4007 29.216 28.4184 29.2063 28.4352 29.1951C28.5739 29.1027 28.6567 28.9479 28.6567 28.7811C28.6567 28.6144 28.5739 28.4596 28.4351 28.3671Z" fill="#9C27B0"/>
<path d="M30.1047 12.8589C30.0879 12.8477 30.0703 12.838 30.0518 12.8298C29.6617 12.6573 29.4196 12.3887 29.3322 12.0316L29.2585 11.7302C29.2131 11.5449 29.0481 11.4153 28.8573 11.4153C28.8573 11.4153 28.8572 11.4153 28.8572 11.4153C28.6663 11.4154 28.5014 11.5449 28.4561 11.7302L28.3823 12.0316C28.2949 12.3887 28.0528 12.6573 27.6627 12.8298C27.6443 12.838 27.6266 12.8477 27.6098 12.8589C27.4912 12.9379 27.4204 13.0703 27.4204 13.2129C27.4204 13.3554 27.4913 13.4877 27.6099 13.5668C27.6267 13.5779 27.6443 13.5876 27.6627 13.5958C28.0528 13.7683 28.2949 14.0369 28.3823 14.394L28.4561 14.6953C28.5014 14.8807 28.6664 15.0102 28.8572 15.0102H28.8573C29.0481 15.0102 29.2131 14.8808 29.2585 14.6954L29.3323 14.394C29.4197 14.0369 29.6618 13.7684 30.0519 13.5958C30.0703 13.5877 30.0879 13.578 30.1047 13.5668C30.2233 13.4878 30.2941 13.3555 30.2942 13.2129C30.2941 13.0703 30.2233 12.9379 30.1047 12.8589ZM28.8572 13.7192C28.7398 13.5259 28.5849 13.3561 28.3955 13.2128C28.585 13.0695 28.7398 12.8997 28.8573 12.7064C28.9747 12.8997 29.1296 13.0695 29.319 13.2128C29.1295 13.3561 28.9747 13.5259 28.8572 13.7192Z" fill="#9C27B0"/>
<path d="M11.0795 12.0782L11.1852 12.5099C11.2335 12.7071 11.409 12.8449 11.612 12.8449C11.8151 12.8449 11.9906 12.7071 12.0389 12.5099L12.1446 12.0782C12.3153 11.381 12.8463 11.0156 13.2617 10.8318C13.2801 10.8237 13.2978 10.814 13.3145 10.8028C13.4419 10.7178 13.518 10.5756 13.518 10.4225C13.518 10.2693 13.442 10.1271 13.3145 10.0422C13.2978 10.031 13.2801 10.0213 13.2616 10.0131C12.8463 9.82934 12.3153 9.46395 12.1446 8.76673L12.0389 8.33502C11.9906 8.13777 11.8151 8 11.612 8C11.409 8 11.2334 8.13777 11.1851 8.33497L11.0794 8.76669C10.9088 9.46391 10.3778 9.8293 9.96246 10.013C9.94404 10.0212 9.92632 10.0309 9.90959 10.0421C9.78209 10.1271 9.70605 10.2693 9.70605 10.4225C9.70605 10.5757 9.78218 10.7179 9.90963 10.8028C9.92637 10.814 9.94404 10.8237 9.96241 10.8318C10.3778 11.0156 10.9088 11.381 11.0795 12.0782ZM11.612 9.3717C11.806 9.79639 12.1194 10.1514 12.5396 10.4225C12.1194 10.6935 11.806 11.0486 11.612 11.4732C11.418 11.0486 11.1046 10.6935 10.6844 10.4225C11.1046 10.1514 11.418 9.79634 11.612 9.3717Z" fill="#9C27B0"/>
</g>
<defs>
<clipPath id="clip0_5_1163">
<rect width="24" height="24" fill="white" transform="translate(8 8)"/>
</clipPath>
</defs>
</svg>
