<svg width="40" height="40" viewBox="0 0 40 40" fill="none" xmlns="http://www.w3.org/2000/svg">
<mask id="mask0_5_1114" style="mask-type:alpha" maskUnits="userSpaceOnUse" x="0" y="0" width="40" height="40">
<rect width="40" height="40" rx="20" fill="#D9D9D9"/>
</mask>
<g mask="url(#mask0_5_1114)">
<rect width="40" height="40" rx="20" fill="white"/>
<path d="M20.0001 6.80002C21.7682 6.80002 23.4639 7.49537 24.7141 8.73311C25.9644 9.97085 26.6667 11.6496 26.6667 13.4C26.6667 15.1504 25.9644 16.8292 24.7141 18.0669C23.4639 19.3047 21.7682 20 20.0001 20C18.232 20 16.5363 19.3047 15.286 18.0669C14.0358 16.8292 13.3334 15.1504 13.3334 13.4C13.3334 11.6496 14.0358 9.97085 15.286 8.73311C16.5363 7.49537 18.232 6.80002 20.0001 6.80002ZM20.0001 23.3C27.3667 23.3 33.3334 26.2535 33.3334 29.9V41.3123H6.66675V29.9C6.66675 26.2535 12.6334 23.3 20.0001 23.3Z" fill="#9C27B0"/>
</g>
</svg>
