<svg width="12" height="12" viewBox="0 0 12 12" fill="none" xmlns="http://www.w3.org/2000/svg">
<path d="M6.00023 8.34299L6.12936 8.42109L8.20436 9.67609L8.20443 9.67613C8.39424 9.79101 8.62662 9.62225 8.57647 9.40663L8.0265 7.04675L7.99226 6.89984L8.10626 6.80107L9.94126 5.21107L9.94135 5.21099C10.1097 5.06524 10.0176 4.79152 9.80015 4.77422L9.79883 4.77411L7.38383 4.56911L7.23361 4.55636L7.17479 4.41755L6.22979 2.18755L6.22946 2.18677C6.14522 1.98608 5.85473 1.98608 5.77049 2.18676L5.77008 2.18774L4.82508 4.41274L4.7662 4.55137L4.61612 4.56411L2.20112 4.76911L2.1998 4.76922L2.1998 4.76922C1.98234 4.78652 1.89023 5.06024 2.0586 5.20599L2.05869 5.20607L3.89369 6.79607L4.00769 6.89484L3.97345 7.04175L3.42348 9.40163L6.00023 8.34299ZM6.00023 8.34299L5.87097 8.42086M6.00023 8.34299L5.87097 8.42086M5.87097 8.42086L3.79597 9.67086L3.79552 9.67113M5.87097 8.42086L3.79552 9.67113M3.79552 9.67113C3.60575 9.78599 3.37342 9.61731 3.42345 9.40175L3.79552 9.67113Z" stroke="#FFC107" stroke-width="0.5"/>
</svg>
