<svg width="16" height="16" viewBox="0 0 16 16" fill="none" xmlns="http://www.w3.org/2000/svg">
<path fill-rule="evenodd" clip-rule="evenodd" d="M13.1663 4C13.1663 3.724 12.9423 3.5 12.6663 3.5H3.33301C3.05701 3.5 2.83301 3.724 2.83301 4V13C2.83301 13.5747 3.06101 14.126 3.46767 14.532C3.87367 14.9387 4.42501 15.1667 4.99967 15.1667H10.9997C11.5743 15.1667 12.1257 14.9387 12.5317 14.532C12.9383 14.126 13.1663 13.5747 13.1663 13C13.1663 10 13.1663 4 13.1663 4ZM12.1663 4.5V13C12.1663 13.3093 12.0437 13.606 11.8243 13.8247C11.6057 14.044 11.309 14.1667 10.9997 14.1667C9.30501 14.1667 6.69434 14.1667 4.99967 14.1667C4.69034 14.1667 4.39367 14.044 4.17501 13.8247C3.95567 13.606 3.83301 13.3093 3.83301 13V4.5H12.1663Z" fill="#1E1E1E"/>
<path fill-rule="evenodd" clip-rule="evenodd" d="M11 4.50001C11.276 4.50001 11.5 4.27601 11.5 4.00001C11.5 4.00001 11.5 3.33334 11.5 2.66668C11.5 2.18068 11.3067 1.71401 10.9633 1.37001C10.6193 1.02668 10.1527 0.833344 9.66667 0.833344C8.67467 0.833344 7.32533 0.833344 6.33333 0.833344C5.84733 0.833344 5.38067 1.02668 5.03667 1.37001C4.69333 1.71401 4.5 2.18068 4.5 2.66668V4.00001C4.5 4.27601 4.724 4.50001 5 4.50001H11ZM10.5 3.50001H5.5V2.66668C5.5 2.44534 5.588 2.23401 5.744 2.07734C5.90067 1.92134 6.112 1.83334 6.33333 1.83334H9.66667C9.888 1.83334 10.0993 1.92134 10.256 2.07734C10.412 2.23401 10.5 2.44534 10.5 2.66668V3.50001Z" fill="#1E1E1E"/>
<path fill-rule="evenodd" clip-rule="evenodd" d="M13.3332 3.5H2.6665C2.3905 3.5 2.1665 3.724 2.1665 4C2.1665 4.276 2.3905 4.5 2.6665 4.5H13.3332C13.6092 4.5 13.8332 4.276 13.8332 4C13.8332 3.724 13.6092 3.5 13.3332 3.5Z" fill="#1E1E1E"/>
<path fill-rule="evenodd" clip-rule="evenodd" d="M5.83301 7V11.6667C5.83301 11.9427 6.05701 12.1667 6.33301 12.1667C6.60901 12.1667 6.83301 11.9427 6.83301 11.6667V7C6.83301 6.724 6.60901 6.5 6.33301 6.5C6.05701 6.5 5.83301 6.724 5.83301 7Z" fill="#1E1E1E"/>
<path fill-rule="evenodd" clip-rule="evenodd" d="M9.1665 7V11.6667C9.1665 11.9427 9.3905 12.1667 9.6665 12.1667C9.9425 12.1667 10.1665 11.9427 10.1665 11.6667V7C10.1665 6.724 9.9425 6.5 9.6665 6.5C9.3905 6.5 9.1665 6.724 9.1665 7Z" fill="#1E1E1E"/>
</svg>
