<svg width="20" height="20" viewBox="0 0 20 20" fill="none" xmlns="http://www.w3.org/2000/svg">
<g clip-path="url(#clip0_5_242)">
<path d="M10 0.000244141C4.48602 0.000244141 0 4.48627 0 10.0002C0 15.5138 4.48602 20.0002 10 20.0002C15.5136 20.0002 20 15.5138 20 10.0002C20 4.48627 15.5144 0.000244141 10 0.000244141ZM14.461 7.71151C14.4655 7.8106 14.4679 7.9105 14.4679 8.01039C14.4679 11.052 12.1534 14.558 7.91871 14.558C6.61887 14.558 5.40884 14.1781 4.39056 13.5248C4.57061 13.5461 4.75389 13.557 4.93958 13.557C6.01829 13.557 7.01039 13.1888 7.79828 12.5717C6.79127 12.5532 5.94095 11.8878 5.64811 10.973C5.78829 10.9996 5.93289 11.0145 6.08072 11.0145C6.29058 11.0145 6.4944 10.9871 6.68734 10.9343C5.63441 10.7233 4.8413 9.7932 4.8413 8.67744C4.8413 8.66777 4.8413 8.6577 4.8417 8.64843C5.15186 8.82043 5.50673 8.92436 5.88375 8.93604C5.26666 8.52397 4.86023 7.81906 4.86023 7.02071C4.86023 6.59857 4.97341 6.20301 5.17159 5.86305C6.30629 7.25594 8.0029 8.17192 9.91541 8.26859C9.87594 8.09982 9.8562 7.9246 9.8562 7.74374C9.8562 6.47289 10.8866 5.44212 12.1574 5.44212C12.8196 5.44212 13.417 5.72166 13.8375 6.16878C14.3624 6.06566 14.8538 5.87473 15.2997 5.61009C15.1265 6.14783 14.7627 6.59857 14.2862 6.88375C14.7523 6.82817 15.197 6.70491 15.6082 6.52163C15.3013 6.98244 14.911 7.38806 14.461 7.71151Z" fill="#1E1E1E"/>
</g>
<defs>
<clipPath id="clip0_5_242">
<rect width="20" height="20" fill="white" transform="translate(0 0.000244141)"/>
</clipPath>
</defs>
</svg>
