<svg width="174" height="186" viewBox="0 0 174 186" fill="none" xmlns="http://www.w3.org/2000/svg">
<circle cx="87" cy="87" r="87" fill="#D9D9D9"/>
<g clip-path="url(#clip0_520_1276)">
<path d="M30.5 186C47.3446 186 61 172.569 61 156C61 139.432 47.3446 126 30.5 126C13.6554 126 0 139.432 0 156C0 172.569 13.6554 186 30.5 186Z" fill="url(#paint0_linear_520_1276)"/>
<path d="M11.3594 157.468C14.9248 155.536 18.9048 153.924 22.6235 152.303C29.0212 149.649 35.4442 147.041 41.9321 144.613C43.1944 144.199 45.4624 143.794 45.6848 145.634C45.5631 148.239 45.0621 150.828 44.7185 153.417C43.8463 159.111 42.8383 164.786 41.8553 170.461C41.5166 172.351 39.109 173.33 37.5685 172.12C33.8663 169.661 30.1357 167.225 26.4808 164.708C25.2835 163.511 26.3937 161.793 27.463 160.939C30.5122 157.983 33.746 155.472 36.6359 152.363C37.4154 150.511 35.1121 152.072 34.3524 152.55C30.178 155.38 26.1057 158.382 21.7046 160.869C19.4565 162.086 16.8363 161.046 14.5892 160.366C12.5744 159.546 9.62216 158.719 11.3594 157.468Z" fill="white"/>
</g>
<defs>
<linearGradient id="paint0_linear_520_1276" x1="22.8786" y1="128.502" x2="8.04962" y2="163.678" gradientUnits="userSpaceOnUse">
<stop stop-color="#37AEE2"/>
<stop offset="1" stop-color="#1E96C8"/>
</linearGradient>
<clipPath id="clip0_520_1276">
<rect width="61" height="60" fill="white" transform="translate(0 126)"/>
</clipPath>
</defs>
</svg>
