<svg width="18" height="18" viewBox="0 0 18 18" fill="none" xmlns="http://www.w3.org/2000/svg">
<path fill-rule="evenodd" clip-rule="evenodd" d="M9.00033 0.667969C13.6028 0.667969 17.3337 4.39881 17.3337 9.0013C17.3337 13.6038 13.6028 17.3346 9.00033 17.3346C4.39784 17.3346 0.666992 13.6038 0.666992 9.0013C0.666992 4.39881 4.39784 0.667969 9.00033 0.667969ZM8.04803 12.1484L12.923 7.27339C13.2489 6.94839 13.2489 6.42089 12.923 6.09505C12.5972 5.77005 12.0705 5.77005 11.7447 6.09505L8.04803 9.79172L6.25637 8.00005C5.93053 7.67422 5.40387 7.67422 5.07803 8.00005C4.7522 8.32589 4.7522 8.85255 5.07803 9.17839L8.04803 12.1484Z" fill="white"/>
</svg>
