<svg width="85" height="85" viewBox="0 0 85 85" fill="none" xmlns="http://www.w3.org/2000/svg">
<g clip-path="url(#clip0_661_4627)">
<path d="M34.3896 39.9848C33.7227 39.3179 32.8182 38.9432 31.875 38.9432C30.9319 38.9432 30.0273 39.3179 29.3604 39.9848C28.6935 40.6517 28.3188 41.5562 28.3188 42.4993C28.3188 43.4425 28.6935 44.347 29.3604 45.0139L39.9854 55.6389C40.3164 55.9672 40.7088 56.2269 41.1403 56.4031C41.5718 56.5794 42.0339 56.6687 42.5 56.666C42.9849 56.6506 43.4614 56.5358 43.9 56.3287C44.3387 56.1215 44.7301 55.8265 45.05 55.4618L69.8417 27.1285C70.4141 26.4178 70.6901 25.5135 70.6122 24.6043C70.5342 23.6951 70.1082 22.851 69.4232 22.2481C68.7381 21.6452 67.8467 21.3301 66.9349 21.3684C66.0232 21.4066 65.1613 21.7954 64.5292 22.4535L42.5 47.9535L34.3896 39.9848Z" fill="white"/>
<path d="M74.375 38.959C73.4357 38.959 72.5349 39.3321 71.8707 39.9963C71.2065 40.6605 70.8334 41.5613 70.8334 42.5007C70.8334 50.0151 67.8483 57.2218 62.5347 62.5353C57.2212 67.8489 50.0145 70.834 42.5 70.834C36.9045 70.8314 31.435 69.1721 26.7813 66.0653C22.1275 62.9584 18.4979 58.5432 16.3501 53.3763C14.2022 48.2094 13.6324 42.5222 14.7124 37.0319C15.7924 31.5416 18.4739 26.494 22.4188 22.5257C25.0421 19.8672 28.1693 17.7587 31.6174 16.3235C35.0655 14.8883 38.7652 14.1553 42.5 14.1673C44.7647 14.1815 47.0212 14.4428 49.2292 14.9465C49.6913 15.0894 50.1777 15.1362 50.6585 15.0839C51.1394 15.0316 51.6044 14.8814 52.025 14.6425C52.4455 14.4037 52.8127 14.0812 53.1039 13.6949C53.395 13.3087 53.604 12.867 53.7178 12.3969C53.8317 11.9268 53.8481 11.4384 53.766 10.9618C53.6839 10.4851 53.505 10.0303 53.2404 9.62545C52.9758 9.22058 52.6311 8.87419 52.2275 8.60765C51.8239 8.3411 51.37 8.16005 50.8938 8.07565C48.1424 7.42839 45.3265 7.0957 42.5 7.08398C35.5029 7.12033 28.6733 9.22854 22.8732 13.1425C17.073 17.0566 12.5622 22.601 9.91004 29.0761C7.25785 35.5512 6.58313 42.6668 7.97103 49.525C9.35892 56.3832 12.7472 62.6767 17.7084 67.6111C24.2841 74.1898 33.1984 77.8956 42.5 77.9173C51.8931 77.9173 60.9015 74.1859 67.5434 67.544C74.1853 60.9021 77.9167 51.8937 77.9167 42.5007C77.9167 41.5613 77.5436 40.6605 76.8794 39.9963C76.2152 39.3321 75.3143 38.959 74.375 38.959Z" fill="white"/>
</g>
<defs>
<clipPath id="clip0_661_4627">
<rect width="85" height="85" fill="white"/>
</clipPath>
</defs>
</svg>
