<svg width="85" height="85" viewBox="0 0 85 85" fill="none" xmlns="http://www.w3.org/2000/svg">
<path d="M11.4616 3.00586H63.4258L73.3867 12.6348V82.0293H10.3008L11.4616 3.00586Z" fill="white"/>
<path d="M73.7188 17.0605V13.0762L63.4258 2.7832H61.1016V15.9555L73.7188 17.0605Z" fill="white"/>
<path d="M18.384 4.22461H12.1816V80.5918H18.384V4.22461Z" fill="#DDDDDD"/>
<path d="M60.727 3.00586H15.3901V10.4141H60.727V3.00586Z" fill="#DDDDDD"/>
<path d="M62.8788 5.3125L71.7188 14.1525V79.6875H13.2812V5.3125H62.8788ZM65.0914 0H7.96875V85H77.0312V11.9531L65.0781 0C65.0861 0 65.0914 0 65.0914 0Z" fill="#9F9F9F"/>
<path d="M74.375 19.426H58.4375V2.53223H63.75V14.1135H74.375V19.426Z" fill="#9F9F9F"/>
<line x1="26.2236" y1="32.457" x2="57.8726" y2="32.457" stroke="#9F9F9F" stroke-width="2"/>
<line x1="26.2236" y1="41.5" x2="57.8726" y2="41.5" stroke="#9F9F9F" stroke-width="2"/>
<line x1="26.2236" y1="50.543" x2="57.8726" y2="50.543" stroke="#9F9F9F" stroke-width="2"/>
<line x1="26.2236" y1="59.585" x2="57.8726" y2="59.585" stroke="#9F9F9F" stroke-width="2"/>
</svg>
