<svg width="12" height="12" viewBox="0 0 12 12" fill="none" xmlns="http://www.w3.org/2000/svg">
<path d="M6 11.6875C4.87512 11.6875 3.7755 11.3539 2.8402 10.729C1.90489 10.104 1.17591 9.21577 0.745438 8.17651C0.314964 7.13726 0.202333 5.99369 0.421786 4.89043C0.64124 3.78716 1.18292 2.77374 1.97833 1.97833C2.77374 1.18292 3.78716 0.64124 4.89043 0.421786C5.99369 0.202333 7.13726 0.314964 8.17651 0.745438C9.21577 1.17591 10.104 1.90489 10.729 2.8402C11.3539 3.7755 11.6875 4.87512 11.6875 6C11.6875 7.50842 11.0883 8.95506 10.0217 10.0217C8.95506 11.0883 7.50842 11.6875 6 11.6875ZM6 1.1875C5.04818 1.1875 4.11773 1.46975 3.32632 1.99855C2.53491 2.52736 1.91808 3.27897 1.55383 4.15834C1.18959 5.03771 1.09428 6.00534 1.27997 6.93888C1.46566 7.87241 1.92401 8.72991 2.59705 9.40295C3.27009 10.076 4.1276 10.5343 5.06113 10.72C5.99466 10.9057 6.9623 10.8104 7.84167 10.4462C8.72104 10.0819 9.47265 9.4651 10.0014 8.67368C10.5303 7.88227 10.8125 6.95183 10.8125 6C10.8125 4.72365 10.3055 3.49957 9.40295 2.59705C8.50044 1.69453 7.27636 1.1875 6 1.1875Z" fill="#A4A4A6"/>
<path d="M8.40626 8.84375C8.34868 8.84408 8.2916 8.83305 8.2383 8.81128C8.18499 8.7895 8.13651 8.75742 8.09563 8.71687L5.68938 6.31062C5.64883 6.26974 5.61675 6.22126 5.59498 6.16796C5.57321 6.11466 5.56217 6.05758 5.56251 6V2.5C5.56251 2.38397 5.6086 2.27269 5.69065 2.19064C5.7727 2.10859 5.88398 2.0625 6.00001 2.0625C6.11604 2.0625 6.22732 2.10859 6.30937 2.19064C6.39141 2.27269 6.43751 2.38397 6.43751 2.5V5.82063L8.71688 8.09563C8.75789 8.1363 8.79044 8.18468 8.81265 8.238C8.83486 8.29131 8.84629 8.3485 8.84629 8.40625C8.84629 8.464 8.83486 8.52119 8.81265 8.5745C8.79044 8.62782 8.75789 8.6762 8.71688 8.71687C8.676 8.75742 8.62752 8.7895 8.57422 8.81128C8.52091 8.83305 8.46384 8.84408 8.40626 8.84375Z" fill="#A4A4A6"/>
</svg>
