<svg width="172" height="172" viewBox="0 0 172 172" fill="none" xmlns="http://www.w3.org/2000/svg">
<g clip-path="url(#clip0_528_30098)">
<path d="M172 86C172 133.498 133.498 172 86 172C38.5021 172 0 133.498 0 86C0 38.5015 38.5021 0 86 0C133.498 0 172 38.5015 172 86Z" fill="black"/>
<path d="M171.847 90.9752L123.605 42.7285L120.349 43.5522L117.306 44.3152L117.303 44.3135L102.498 48.0357C100.766 48.4673 99.7099 50.2226 100.151 51.9675C100.212 52.2127 100.304 52.4378 100.415 52.6538C100.437 52.6978 100.465 52.7331 100.489 52.7741C100.598 52.9642 100.718 53.1362 100.857 53.2961C100.862 53.2988 100.862 53.3028 100.864 53.3055L100.89 53.3304C100.994 53.4473 101.105 53.5601 101.228 53.6616C101.254 53.6875 101.278 53.714 101.308 53.7348L108.085 60.51C99.7848 69.8195 88.1714 78.4487 74.7101 85.0519C65.0908 89.7698 55.2999 93.1134 45.631 94.991C43.873 95.3212 42.7181 97.0318 43.0614 98.7871C43.1723 99.3649 43.4319 99.8708 43.788 100.288C43.788 100.288 43.8001 100.288 43.8001 100.3L44.1183 100.618C44.1441 100.641 44.168 100.653 44.1922 100.679L55.7756 112.275C48.7021 112.388 43.0752 114.596 43.0752 117.326V120.495C43.0752 120.594 43.0984 120.682 43.1104 120.766C43.0984 120.854 43.0752 120.938 43.0752 121.023V124.206C43.0752 124.685 43.2462 125.141 43.5653 125.57L44.3773 126.393C44.3894 126.405 44.4135 126.416 44.4253 126.428L89.8951 171.9C133.929 169.935 169.341 134.865 171.847 90.9752Z" fill="#110F0B"/>
<path d="M126.008 121.029C123.583 119.887 119.873 119.157 115.721 119.157C111.557 119.157 107.848 119.887 105.422 121.029H102.472V124.206C102.472 126.995 108.394 129.268 115.72 129.268C123.026 129.268 128.956 126.995 128.956 124.206V121.029H126.008Z" fill="#5D6D7E"/>
<path d="M102.472 121.028V123.513C102.472 126.302 108.394 128.571 115.72 128.571C123.026 128.571 128.956 126.302 128.956 123.513V121.028H102.472Z" fill="#B8D1E6"/>
<path d="M102.472 121.028V123.513C102.472 126.302 108.394 128.571 115.72 128.571C123.026 128.571 128.956 126.302 128.956 123.513V121.028H102.472Z" fill="#B8D1E6"/>
<path d="M128.956 121.028C128.956 123.819 123.026 126.087 115.72 126.087C108.393 126.087 102.472 123.819 102.472 121.028C102.472 118.235 108.394 115.977 115.72 115.977C123.027 115.977 128.956 118.235 128.956 121.028Z" fill="#B8D1E6"/>
<path d="M115.721 125.558C108.114 125.558 103.004 123.218 103.004 121.028C103.004 118.848 108.114 116.507 115.721 116.507C123.321 116.507 128.426 118.848 128.426 121.028C128.426 123.171 123.207 125.558 115.721 125.558Z" fill="#F2F9FF"/>
<path d="M115.029 123.848C112.822 123.782 111.172 123.447 110.035 122.997L111.452 122.254C112.24 122.589 113.486 122.898 115.029 122.989V121.402C112.821 121.189 110.506 120.885 110.506 119.821C110.506 118.99 112.261 118.327 115.029 118.235V117.484H116.739V118.242C118.477 118.318 119.936 118.58 121.05 118.99L119.637 119.7C118.821 119.389 117.793 119.2 116.739 119.116V120.534C118.971 120.754 121.394 121.072 121.394 122.169C121.394 123.005 119.955 123.738 116.739 123.846V124.581H115.029V123.848L115.029 123.848ZM115.029 120.361V119.078C113.829 119.136 113.078 119.389 113.078 119.749C113.078 120.068 113.892 120.231 115.029 120.361ZM116.74 121.573V122.996C118.224 122.911 118.821 122.579 118.821 122.26C118.821 121.892 117.924 121.713 116.74 121.573Z" fill="#B8D1E6"/>
<path d="M103.287 121.919V125.26C103.537 125.523 103.849 125.773 104.205 126.013V122.881C103.796 122.572 103.485 122.248 103.287 121.919Z" fill="#F2F9FF"/>
<path d="M126.986 123.03V126.164C127.335 125.949 127.647 125.723 127.909 125.487V122.229C127.676 122.499 127.367 122.768 126.986 123.03Z" fill="#F2F9FF"/>
<path d="M104.922 123.364V126.439C105.207 126.594 105.513 126.743 105.846 126.883V123.834C105.51 123.683 105.202 123.525 104.922 123.364Z" fill="#F2F9FF"/>
<path d="M106.562 124.134V127.165C106.857 127.271 107.163 127.375 107.481 127.471V124.449C107.16 124.35 106.854 124.242 106.562 124.134Z" fill="#F2F9FF"/>
<path d="M126.008 117.323C123.583 116.181 119.873 115.449 115.721 115.449C111.557 115.449 107.848 116.181 105.422 117.323H102.472V120.498C102.472 123.289 108.394 125.557 115.72 125.557C123.026 125.557 128.956 123.289 128.956 120.498V117.323H126.008Z" fill="#5D6D7E"/>
<path d="M102.472 117.323V119.805C102.472 122.594 108.394 124.861 115.72 124.861C123.026 124.861 128.956 122.594 128.956 119.805V117.323H102.472Z" fill="#B8D1E6"/>
<path d="M102.472 117.323V119.805C102.472 122.594 108.394 124.861 115.72 124.861C123.026 124.861 128.956 122.594 128.956 119.805V117.323H102.472Z" fill="#B8D1E6"/>
<path d="M128.956 117.323C128.956 120.114 123.026 122.382 115.72 122.382C108.393 122.382 102.472 120.114 102.472 117.323C102.472 114.529 108.394 112.271 115.72 112.271C123.027 112.271 128.956 114.529 128.956 117.323Z" fill="#B8D1E6"/>
<path d="M115.721 121.851C108.114 121.851 103.004 119.507 103.004 117.323C103.004 115.138 108.114 112.802 115.721 112.802C123.321 112.802 128.426 115.138 128.426 117.323C128.426 119.464 123.207 121.851 115.721 121.851Z" fill="#F2F9FF"/>
<path d="M115.029 120.139C112.822 120.073 111.172 119.738 110.035 119.291L111.452 118.545C112.24 118.883 113.486 119.191 115.029 119.282V117.692C112.821 117.483 110.506 117.177 110.506 116.114C110.506 115.281 112.261 114.615 115.029 114.528V113.773H116.739V114.535C118.477 114.609 119.936 114.871 121.05 115.281L119.637 115.991C118.821 115.682 117.793 115.493 116.739 115.41V116.826C118.971 117.047 121.394 117.366 121.394 118.461C121.394 119.296 119.955 120.031 116.739 120.138V120.873H115.029V120.139H115.029ZM115.029 116.656V115.372C113.829 115.429 113.078 115.683 113.078 116.044C113.078 116.363 113.892 116.525 115.029 116.656ZM116.74 117.868V119.291C118.224 119.205 118.821 118.873 118.821 118.552C118.821 118.187 117.924 118.007 116.74 117.868Z" fill="#B8D1E6"/>
<path d="M103.287 118.212V121.55C103.537 121.815 103.849 122.062 104.205 122.303V119.174C103.796 118.863 103.484 118.54 103.287 118.212Z" fill="#F2F9FF"/>
<path d="M126.986 119.32V122.455C127.335 122.24 127.647 122.013 127.908 121.776V118.518C127.676 118.792 127.367 119.06 126.986 119.32Z" fill="#F2F9FF"/>
<path d="M104.922 119.653V122.732C105.207 122.886 105.513 123.035 105.846 123.174V120.126C105.51 119.974 105.202 119.816 104.922 119.653Z" fill="#F2F9FF"/>
<path d="M106.562 120.425V123.456C106.856 123.565 107.163 123.669 107.481 123.762V120.742C107.16 120.639 106.854 120.536 106.562 120.425Z" fill="#F2F9FF"/>
<path d="M126.008 113.613C123.583 112.469 119.873 111.742 115.721 111.742C111.557 111.742 107.848 112.469 105.422 113.613H102.472V116.791C102.472 119.582 108.394 121.85 115.72 121.85C123.026 121.85 128.956 119.582 128.956 116.791V113.613H126.008Z" fill="#5D6D7E"/>
<path d="M102.472 113.612V116.095C102.472 118.886 108.394 121.154 115.72 121.154C123.026 121.154 128.956 118.886 128.956 116.095V113.612H102.472Z" fill="#B8D1E6"/>
<path d="M102.472 113.612V116.095C102.472 118.886 108.394 121.154 115.72 121.154C123.026 121.154 128.956 118.886 128.956 116.095V113.612H102.472Z" fill="#B8D1E6"/>
<path d="M128.956 113.612C128.956 116.404 123.026 118.672 115.72 118.672C108.393 118.672 102.472 116.404 102.472 113.612C102.472 110.816 108.394 108.562 115.72 108.562C123.027 108.562 128.956 110.817 128.956 113.612Z" fill="#B8D1E6"/>
<path d="M115.721 118.143C108.114 118.143 103.004 115.801 103.004 113.613C103.004 111.431 108.114 109.093 115.721 109.093C123.321 109.093 128.426 111.431 128.426 113.613C128.426 115.756 123.207 118.143 115.721 118.143Z" fill="#F2F9FF"/>
<path d="M115.029 116.431C112.822 116.365 111.172 116.032 110.035 115.581L111.452 114.837C112.24 115.172 113.486 115.483 115.029 115.572V113.984C112.821 113.774 110.506 113.469 110.506 112.408C110.506 111.575 112.261 110.91 115.029 110.817V110.067H116.739V110.83C118.477 110.904 119.936 111.165 121.05 111.575L119.637 112.286C118.821 111.974 117.793 111.785 116.739 111.705V113.121C118.971 113.338 121.394 113.659 121.394 114.753C121.394 115.589 119.955 116.327 116.739 116.431V117.169H115.029V116.432H115.029V116.431ZM115.029 112.948V111.66C113.829 111.721 113.078 111.973 113.078 112.332C113.078 112.653 113.892 112.816 115.029 112.948ZM116.74 114.158V115.58C118.224 115.498 118.821 115.163 118.821 114.845C118.821 114.477 117.924 114.295 116.74 114.158Z" fill="#B8D1E6"/>
<path d="M103.287 114.505V117.842C103.537 118.104 103.849 118.356 104.205 118.597V115.468C103.796 115.153 103.484 114.83 103.287 114.505Z" fill="#F2F9FF"/>
<path d="M126.986 115.614V118.749C127.335 118.533 127.647 118.306 127.908 118.07V114.812C127.676 115.084 127.367 115.354 126.986 115.614Z" fill="#F2F9FF"/>
<path d="M104.922 115.946V119.025C105.207 119.179 105.513 119.325 105.846 119.466V116.416C105.51 116.265 105.202 116.11 104.922 115.946Z" fill="#F2F9FF"/>
<path d="M106.562 116.716V119.749C106.856 119.855 107.163 119.957 107.481 120.056V117.033C107.16 116.933 106.854 116.827 106.562 116.716Z" fill="#F2F9FF"/>
<path d="M126.008 109.905C123.583 108.763 119.873 108.034 115.721 108.034C111.557 108.034 107.848 108.763 105.422 109.905H102.472V113.085C102.472 115.874 108.394 118.144 115.72 118.144C123.026 118.144 128.956 115.874 128.956 113.085V109.905H126.008Z" fill="#5D6D7E"/>
<path d="M102.472 109.904V112.389C102.472 115.178 108.394 117.448 115.72 117.448C123.026 117.448 128.956 115.178 128.956 112.389V109.904H102.472Z" fill="#B8D1E6"/>
<path d="M102.472 109.904V112.389C102.472 115.178 108.394 117.448 115.72 117.448C123.026 117.448 128.956 115.178 128.956 112.389V109.904H102.472Z" fill="#B8D1E6"/>
<path d="M128.956 109.905C128.956 112.696 123.026 114.966 115.72 114.966C108.393 114.966 102.472 112.696 102.472 109.905C102.472 107.111 108.394 104.856 115.72 104.856C123.027 104.856 128.956 107.111 128.956 109.905Z" fill="#B8D1E6"/>
<path d="M115.721 114.434C108.114 114.434 103.004 112.093 103.004 109.904C103.004 107.725 108.114 105.384 115.721 105.384C123.321 105.384 128.426 107.725 128.426 109.904C128.426 112.047 123.207 114.434 115.721 114.434Z" fill="#F2F9FF"/>
<path d="M115.029 112.724C112.822 112.659 111.172 112.324 110.035 111.873L111.452 111.13C112.24 111.465 113.486 111.774 115.029 111.866V110.278C112.821 110.065 110.506 109.761 110.506 108.699C110.506 107.866 112.261 107.204 115.029 107.111V106.361H116.739V107.121C118.477 107.194 119.936 107.459 121.05 107.866L119.637 108.577C118.821 108.265 117.793 108.079 116.739 107.994V109.409C118.971 109.631 121.394 109.95 121.394 111.047C121.394 111.882 119.955 112.615 116.739 112.724V113.458H115.029V112.724H115.029ZM115.029 109.24V107.954C113.829 108.012 113.078 108.265 113.078 108.627C113.078 108.946 113.892 109.108 115.029 109.24ZM116.74 110.451V111.873C118.224 111.79 118.821 111.456 118.821 111.139C118.821 110.77 117.924 110.59 116.74 110.451Z" fill="#B8D1E6"/>
<path d="M103.287 110.794V114.135C103.537 114.398 103.849 114.65 104.205 114.888V111.759C103.796 111.448 103.485 111.125 103.287 110.794Z" fill="#F2F9FF"/>
<path d="M126.986 111.906V115.039C127.335 114.825 127.647 114.598 127.909 114.365V111.106C127.676 111.375 127.367 111.644 126.986 111.906Z" fill="#F2F9FF"/>
<path d="M104.922 112.241V115.318C105.207 115.474 105.513 115.62 105.846 115.759V112.712C105.51 112.56 105.202 112.402 104.922 112.241Z" fill="#F2F9FF"/>
<path d="M106.562 113.009V116.043C106.857 116.147 107.163 116.25 107.481 116.347V113.325C107.16 113.226 106.854 113.12 106.562 113.009Z" fill="#F2F9FF"/>
<path d="M126.008 106.198C123.583 105.056 119.873 104.324 115.721 104.324C111.557 104.324 107.848 105.056 105.422 106.198H102.472V109.373C102.472 112.165 108.394 114.432 115.72 114.432C123.026 114.432 128.956 112.165 128.956 109.373V106.198H126.008Z" fill="#5D6D7E"/>
<path d="M102.472 106.198V108.68C102.472 111.472 108.394 113.739 115.72 113.739C123.026 113.739 128.956 111.472 128.956 108.68V106.198H102.472Z" fill="#B8D1E6"/>
<path d="M102.472 106.198V108.68C102.472 111.472 108.394 113.739 115.72 113.739C123.026 113.739 128.956 111.472 128.956 108.68V106.198H102.472Z" fill="#B8D1E6"/>
<path d="M128.956 106.198C128.956 108.987 123.026 111.257 115.72 111.257C108.393 111.257 102.472 108.987 102.472 106.198C102.472 103.405 108.394 101.146 115.72 101.146C123.027 101.146 128.956 103.405 128.956 106.198Z" fill="#B8D1E6"/>
<path d="M115.721 110.726C108.114 110.726 103.004 108.382 103.004 106.198C103.004 104.014 108.114 101.677 115.721 101.677C123.321 101.677 128.426 104.014 128.426 106.198C128.426 108.341 123.207 110.726 115.721 110.726Z" fill="#F2F9FF"/>
<path d="M115.029 109.015C112.822 108.95 111.172 108.614 110.035 108.166L111.452 107.42C112.24 107.758 113.486 108.067 115.029 108.158V106.568C112.821 106.358 110.506 106.054 110.506 104.99C110.506 104.156 112.261 103.494 115.029 103.404V102.651H116.739V103.411C118.477 103.484 119.936 103.746 121.05 104.156L119.637 104.867C118.821 104.558 117.793 104.369 116.739 104.285V105.701C118.971 105.923 121.394 106.241 121.394 107.338C121.394 108.171 119.955 108.907 116.739 109.013V109.749H115.029V109.014H115.029V109.015ZM115.029 105.53V104.247C113.829 104.303 113.078 104.558 113.078 104.919C113.078 105.238 113.892 105.4 115.029 105.53ZM116.74 106.743V108.165C118.224 108.08 118.821 107.748 118.821 107.427C118.821 107.061 117.924 106.882 116.74 106.743Z" fill="#B8D1E6"/>
<path d="M103.287 107.088V110.426C103.537 110.691 103.849 110.939 104.205 111.179V108.05C103.796 107.738 103.485 107.415 103.287 107.088Z" fill="#F2F9FF"/>
<path d="M126.986 108.198V111.332C127.335 111.117 127.647 110.891 127.909 110.653V107.395C127.676 107.667 127.367 107.936 126.986 108.198Z" fill="#F2F9FF"/>
<path d="M104.922 108.53V111.607C105.207 111.761 105.513 111.909 105.846 112.049V109.002C105.51 108.851 105.202 108.691 104.922 108.53Z" fill="#F2F9FF"/>
<path d="M106.562 109.301V112.332C106.857 112.441 107.163 112.545 107.481 112.638V109.618C107.16 109.516 106.854 109.409 106.562 109.301Z" fill="#F2F9FF"/>
<path d="M126.008 102.49C123.583 101.345 119.873 100.618 115.721 100.618C111.557 100.618 107.848 101.345 105.422 102.49H102.472V105.667C102.472 108.458 108.394 110.726 115.72 110.726C123.026 110.726 128.956 108.458 128.956 105.667V102.49H126.008Z" fill="#5D6D7E"/>
<path d="M102.472 102.489V104.974C102.472 107.763 108.394 110.03 115.72 110.03C123.026 110.03 128.956 107.763 128.956 104.974V102.489H102.472Z" fill="#B8D1E6"/>
<path d="M102.472 102.489V104.974C102.472 107.763 108.394 110.03 115.72 110.03C123.026 110.03 128.956 107.763 128.956 104.974V102.489H102.472Z" fill="#B8D1E6"/>
<path d="M128.956 102.49C128.956 105.281 123.026 107.549 115.72 107.549C108.393 107.549 102.472 105.281 102.472 102.49C102.472 99.6983 108.394 97.4385 115.72 97.4385C123.027 97.4385 128.956 99.6987 128.956 102.49Z" fill="#B8D1E6"/>
<path d="M115.721 107.019C108.114 107.019 103.004 104.676 103.004 102.489C103.004 100.306 108.114 97.9678 115.721 97.9678C123.321 97.9678 128.426 100.306 128.426 102.489C128.426 104.632 123.207 107.019 115.721 107.019Z" fill="#F2F9FF"/>
<path d="M115.029 105.306C112.822 105.242 111.172 104.907 110.035 104.457L111.452 103.714C112.24 104.049 113.486 104.358 115.029 104.448V102.86C112.821 102.65 110.506 102.345 110.506 101.284C110.506 100.451 112.261 99.7852 115.029 99.6975V98.9434H116.739V99.7053C118.477 99.7785 119.936 100.041 121.05 100.451L119.637 101.161C118.821 100.852 117.793 100.661 116.739 100.58V101.996C118.971 102.215 121.394 102.536 121.394 103.628C121.394 104.463 119.955 105.201 116.739 105.305V106.043H115.029V105.306H115.029ZM115.029 101.824V100.538C113.829 100.597 113.078 100.851 113.078 101.207C113.078 101.531 113.892 101.691 115.029 101.824ZM116.74 103.034V104.457C118.224 104.373 118.821 104.04 118.821 103.721C118.821 103.353 117.924 103.173 116.74 103.034Z" fill="#B8D1E6"/>
<path d="M103.287 103.382V106.718C103.537 106.98 103.849 107.232 104.205 107.473V104.342C103.796 104.03 103.484 103.707 103.287 103.382Z" fill="#F2F9FF"/>
<path d="M126.986 104.49V107.625C127.335 107.408 127.647 107.181 127.908 106.946V103.688C127.676 103.962 127.367 104.23 126.986 104.49Z" fill="#F2F9FF"/>
<path d="M104.922 104.823V107.902C105.207 108.056 105.513 108.202 105.846 108.344V105.293C105.51 105.141 105.202 104.986 104.922 104.823Z" fill="#F2F9FF"/>
<path d="M106.562 105.592V108.626C106.856 108.734 107.163 108.836 107.481 108.932V105.912C107.16 105.808 106.854 105.703 106.562 105.592Z" fill="#F2F9FF"/>
<path d="M126.008 98.7797C123.583 97.6375 119.873 96.9082 115.721 96.9082C111.557 96.9082 107.848 97.6375 105.422 98.7797H102.472V101.96C102.472 104.748 108.394 107.019 115.72 107.019C123.026 107.019 128.956 104.748 128.956 101.96V98.7797H126.008Z" fill="#5D6D7E"/>
<path d="M102.472 98.7803V101.265C102.472 104.053 108.394 106.323 115.72 106.323C123.026 106.323 128.956 104.053 128.956 101.265V98.7803H102.472Z" fill="#B8D1E6"/>
<path d="M102.472 98.7803V101.265C102.472 104.053 108.394 106.323 115.72 106.323C123.026 106.323 128.956 104.053 128.956 101.265V98.7803H102.472Z" fill="#B8D1E6"/>
<path d="M128.956 98.7806C128.956 101.571 123.026 103.842 115.72 103.842C108.393 103.842 102.472 101.572 102.472 98.7806C102.472 95.9873 108.394 93.7314 115.72 93.7314C123.027 93.7314 128.956 95.9873 128.956 98.7806Z" fill="#B8D1E6"/>
<path d="M115.721 103.311C108.114 103.311 103.004 100.97 103.004 98.7808C103.004 96.5982 108.114 94.2598 115.721 94.2598C123.321 94.2598 128.426 96.5982 128.426 98.7808C128.426 100.923 123.207 103.311 115.721 103.311Z" fill="#F2F9FF"/>
<path d="M115.029 101.6C112.822 101.534 111.172 101.199 110.035 100.749L111.452 100.006C112.24 100.341 113.486 100.65 115.029 100.741V99.1537C112.821 98.9437 110.506 98.6387 110.506 97.5748C110.506 96.7413 112.261 96.0792 115.029 95.9872V95.2363H116.739V95.9966C118.477 96.0721 119.936 96.3338 121.05 96.7413L119.637 97.4518C118.821 97.1404 117.793 96.954 116.739 96.8713V98.287C118.971 98.5064 121.394 98.8245 121.394 99.921C121.394 100.757 119.955 101.492 116.739 101.599V102.334H115.029V101.601H115.029V101.6ZM115.029 98.115V96.8293C113.829 96.8888 113.078 97.1408 113.078 97.5019C113.078 97.82 113.892 97.9833 115.029 98.115ZM116.74 99.3257V100.748C118.224 100.665 118.821 100.33 118.821 100.014C118.821 99.6465 117.924 99.4641 116.74 99.3257Z" fill="#B8D1E6"/>
<path d="M103.287 99.6699V103.011C103.537 103.273 103.849 103.525 104.205 103.764V100.635C103.796 100.323 103.484 99.9991 103.287 99.6699Z" fill="#F2F9FF"/>
<path d="M126.986 100.781V103.915C127.335 103.7 127.647 103.473 127.908 103.24V99.9824C127.676 100.253 127.367 100.522 126.986 100.781Z" fill="#F2F9FF"/>
<path d="M104.922 101.115V104.191C105.207 104.348 105.513 104.494 105.846 104.635V101.585C105.51 101.433 105.202 101.279 104.922 101.115Z" fill="#F2F9FF"/>
<path d="M106.562 101.885V104.918C106.856 105.022 107.163 105.126 107.481 105.225V102.2C107.16 102.101 106.854 101.996 106.562 101.885Z" fill="#F2F9FF"/>
<path d="M126.008 95.0734C123.583 93.9322 119.873 93.2002 115.721 93.2002C111.557 93.2002 107.848 93.9322 105.422 95.0734H102.472V98.251C102.472 101.043 108.394 103.31 115.72 103.31C123.026 103.31 128.956 101.043 128.956 98.251V95.0734H126.008Z" fill="#5D6D7E"/>
<path d="M102.472 95.0732V97.5562C102.472 100.347 108.394 102.615 115.72 102.615C123.026 102.615 128.956 100.347 128.956 97.5562V95.0732H102.472Z" fill="#B8D1E6"/>
<path d="M102.472 95.0732V97.5562C102.472 100.347 108.394 102.615 115.72 102.615C123.026 102.615 128.956 100.347 128.956 97.5562V95.0732H102.472Z" fill="#B8D1E6"/>
<path d="M128.956 95.0742C128.956 97.8632 123.026 100.133 115.72 100.133C108.393 100.133 102.472 97.8632 102.472 95.0742C102.472 92.2809 108.394 90.0234 115.72 90.0234C123.027 90.0234 128.956 92.2809 128.956 95.0742Z" fill="#B8D1E6"/>
<path d="M115.721 99.6005C108.114 99.6005 103.004 97.2597 103.004 95.0728C103.004 92.8885 108.114 90.5527 115.721 90.5527C123.321 90.5527 128.426 92.8885 128.426 95.0728C128.426 97.2161 123.207 99.6005 115.721 99.6005Z" fill="#F2F9FF"/>
<path d="M115.029 97.891C112.822 97.8248 111.172 97.4919 110.035 97.0414L111.452 96.2966C112.24 96.6339 113.486 96.9427 115.029 97.0347V95.4437C112.821 95.2337 110.506 94.9294 110.506 93.8682C110.506 93.0323 112.261 92.3699 115.029 92.2798V91.5273H116.739V92.2892C118.477 92.3605 119.936 92.6245 121.05 93.0323L119.637 93.7429C118.821 93.4341 117.793 93.2473 116.739 93.1624V94.578C118.971 94.7997 121.394 95.1188 121.394 96.2153C121.394 97.0505 119.955 97.7838 116.739 97.8907V98.626H115.029V97.8917H115.029V97.891ZM115.029 94.408V93.1224C113.829 93.1781 113.078 93.4338 113.078 93.7949C113.078 94.1141 113.892 94.2763 115.029 94.408ZM116.74 95.6191V97.0414C118.224 96.9588 118.821 96.6242 118.821 96.3037C118.821 95.9372 117.924 95.7581 116.74 95.6191Z" fill="#B8D1E6"/>
<path d="M103.287 95.9629V99.3041C103.537 99.5665 103.849 99.8168 104.205 100.055V96.928C103.796 96.6173 103.485 96.2914 103.287 95.9629Z" fill="#F2F9FF"/>
<path d="M126.986 97.0747V100.208C127.335 99.9937 127.647 99.7666 127.909 99.5308V96.2705C127.676 96.5433 127.367 96.8124 126.986 97.0747Z" fill="#F2F9FF"/>
<path d="M104.922 97.4072V100.486C105.207 100.639 105.513 100.786 105.846 100.925V97.8796C105.51 97.728 105.202 97.5675 104.922 97.4072Z" fill="#F2F9FF"/>
<path d="M106.562 98.1758V101.207C106.857 101.316 107.163 101.42 107.481 101.514V98.4939C107.16 98.3935 106.854 98.2876 106.562 98.1758Z" fill="#F2F9FF"/>
<path d="M126.008 91.3647C123.583 90.2225 119.873 89.4932 115.721 89.4932C111.557 89.4932 107.848 90.2225 105.422 91.3647H102.472V94.5423C102.472 97.3339 108.394 99.6008 115.72 99.6008C123.026 99.6008 128.956 97.3339 128.956 94.5423V91.3647H126.008Z" fill="#5D6D7E"/>
<path d="M102.472 91.3643V93.8489C102.472 96.6405 108.394 98.9074 115.72 98.9074C123.026 98.9074 128.956 96.6405 128.956 93.8489V91.3643H102.472Z" fill="#B8D1E6"/>
<path d="M102.472 91.3643V93.8489C102.472 96.6405 108.394 98.9074 115.72 98.9074C123.026 98.9074 128.956 96.6405 128.956 93.8489V91.3643H102.472Z" fill="#B8D1E6"/>
<path d="M128.956 91.3643C128.956 94.1559 123.026 96.4228 115.72 96.4228C108.393 96.4228 102.472 94.1559 102.472 91.3643C102.472 88.571 108.394 86.3135 115.72 86.3135C123.027 86.3135 128.956 88.571 128.956 91.3643Z" fill="#B8D1E6"/>
<path d="M115.721 95.8928C108.114 95.8928 103.004 93.552 103.004 91.3651C103.004 89.1832 108.114 86.8457 115.721 86.8457C123.321 86.8457 128.426 89.1832 128.426 91.3651C128.426 93.507 123.207 95.8928 115.721 95.8928Z" fill="#F2F9FF"/>
<path d="M115.029 94.1817C112.822 94.1188 111.172 93.7809 110.035 93.3327L111.452 92.5897C112.24 92.9249 113.486 93.2336 115.029 93.324V91.7357C112.821 91.5257 110.506 91.2214 110.506 90.1602C110.506 89.3267 112.261 88.6619 115.029 88.5718V87.8193H116.739V88.5812C118.477 88.6545 119.936 88.9165 121.05 89.327L119.637 90.0375C118.821 89.7288 117.793 89.537 116.739 89.456V90.8717C118.971 91.091 121.394 91.4119 121.394 92.5067C121.394 93.3401 119.955 94.0779 116.739 94.181V94.9197H115.029V94.182H115.029V94.1817ZM115.029 90.6993V89.4137C113.829 89.4721 113.078 89.7275 113.078 90.0836C113.078 90.4071 113.892 90.5686 115.029 90.6993ZM116.74 91.9094V93.3317C118.224 93.2491 118.821 92.9145 118.821 92.5964C118.821 92.2278 117.924 92.0488 116.74 91.9094Z" fill="#B8D1E6"/>
<path d="M103.287 92.2568V95.5927C103.537 95.8551 103.849 96.1077 104.205 96.3479V93.2166C103.796 92.9062 103.485 92.5854 103.287 92.2568Z" fill="#F2F9FF"/>
<path d="M126.986 93.3684V96.5023C127.335 96.2846 127.647 96.0585 127.909 95.8231V92.5645C127.676 92.8376 127.367 93.1067 126.986 93.3684Z" fill="#F2F9FF"/>
<path d="M104.922 93.6982V96.7771C105.207 96.9303 105.513 97.0791 105.846 97.2182V94.1696C105.51 94.0191 105.202 93.8608 104.922 93.6982Z" fill="#F2F9FF"/>
<path d="M106.562 94.4678V97.502C106.857 97.6105 107.163 97.7119 107.481 97.808V94.7876C107.16 94.6851 106.854 94.5786 106.562 94.4678Z" fill="#F2F9FF"/>
<path d="M126.008 87.6567C123.583 86.5138 119.873 85.7852 115.721 85.7852C111.557 85.7852 107.848 86.5145 105.422 87.6567H102.472V90.837C102.472 93.6253 108.394 95.8928 115.72 95.8928C123.026 95.8928 128.956 93.6249 128.956 90.837V87.6567H126.008Z" fill="#5D6D7E"/>
<path d="M102.472 87.6562V90.1408C102.472 92.9298 108.394 95.1994 115.72 95.1994C123.026 95.1994 128.956 92.9298 128.956 90.1408V87.6562H102.472Z" fill="#B8D1E6"/>
<path d="M102.472 87.6562V90.1408C102.472 92.9298 108.394 95.1994 115.72 95.1994C123.026 95.1994 128.956 92.9298 128.956 90.1408V87.6562H102.472Z" fill="#B8D1E6"/>
<path d="M128.956 87.6563C128.956 90.4469 123.026 92.7175 115.72 92.7175C108.393 92.7175 102.472 90.4472 102.472 87.6563C102.472 84.8656 108.394 82.6064 115.72 82.6064C123.027 82.6061 128.956 84.8653 128.956 87.6563Z" fill="#B8D1E6"/>
<path d="M115.721 92.1863C108.114 92.1863 103.004 89.8455 103.004 87.6558C103.004 85.4739 108.114 83.1348 115.721 83.1348C123.321 83.1348 128.426 85.4739 128.426 87.6558C128.426 89.7991 123.207 92.1863 115.721 92.1863Z" fill="#F2F9FF"/>
<path d="M115.029 90.4756C112.822 90.4094 111.172 90.0738 110.035 89.6244L111.452 88.8813C112.24 89.2165 113.486 89.5253 115.029 89.6166V88.029C112.821 87.819 110.506 87.514 110.506 86.4508C110.506 85.6156 112.261 84.9535 115.029 84.8658V84.1123H116.739V84.8735C118.477 84.9474 119.936 85.2098 121.05 85.6166L119.637 86.3278C118.821 86.0181 117.793 85.83 116.739 85.749V87.1646C118.971 87.3857 121.394 87.7038 121.394 88.7986C121.394 89.6338 119.955 90.3698 116.739 90.4756V91.2117H115.029V90.4756H115.029ZM115.029 86.991V85.7043C113.829 85.7638 113.078 86.0174 113.078 86.3769C113.078 86.697 113.892 86.8593 115.029 86.991ZM116.74 88.202V89.6244C118.224 89.5417 118.821 89.2071 118.821 88.89C118.821 88.5225 117.924 88.3411 116.74 88.202Z" fill="#5D6D7E"/>
<path d="M103.287 88.5459V91.8871C103.537 92.1495 103.849 92.4015 104.205 92.6396V89.511C103.796 89.1993 103.484 88.8761 103.287 88.5459Z" fill="#F2F9FF"/>
<path d="M126.986 89.6573V92.7929C127.335 92.5779 127.647 92.3492 127.908 92.116V88.8574C127.676 89.1292 127.367 89.3976 126.986 89.6573Z" fill="#F2F9FF"/>
<path d="M104.922 89.9932V93.0693C105.207 93.2259 105.513 93.372 105.846 93.5141V90.4628C105.51 90.3113 105.202 90.1554 104.922 89.9932Z" fill="#F2F9FF"/>
<path d="M106.562 90.7607V93.7949C106.856 93.9008 107.163 94.0022 107.481 94.101V91.0755C107.16 90.9774 106.854 90.8716 106.562 90.7607Z" fill="#F2F9FF"/>
<path d="M96.308 121.029C93.8828 119.887 90.1754 119.157 86.0216 119.157C81.8573 119.157 78.1509 119.887 75.7231 121.029H72.7759V124.206C72.7759 126.995 78.6978 129.268 86.0216 129.268C93.3299 129.268 99.2568 126.995 99.2568 124.206V121.029H96.308Z" fill="#5D6D7E"/>
<path d="M72.7764 121.028V123.513C72.7764 126.302 78.6983 128.571 86.0221 128.571C93.3304 128.571 99.2573 126.302 99.2573 123.513V121.028H72.7764Z" fill="#B8D1E6"/>
<path d="M72.7764 121.028V123.513C72.7764 126.302 78.6983 128.571 86.0221 128.571C93.3304 128.571 99.2573 126.302 99.2573 123.513V121.028H72.7764Z" fill="#B8D1E6"/>
<path d="M99.2568 121.028C99.2568 123.819 93.3295 126.087 86.0216 126.087C78.6978 126.087 72.7759 123.819 72.7759 121.028C72.7759 118.235 78.6978 115.977 86.0216 115.977C93.3299 115.977 99.2568 118.235 99.2568 121.028Z" fill="#B8D1E6"/>
<path d="M86.0216 125.558C78.4149 125.558 73.3057 123.218 73.3057 121.028C73.3057 118.848 78.4149 116.507 86.0216 116.507C93.6232 116.507 98.7254 118.848 98.7254 121.028C98.7264 123.171 93.5096 125.558 86.0216 125.558Z" fill="#F2F9FF"/>
<path d="M85.3326 123.848C83.1225 123.782 81.4714 123.447 80.3369 122.997L81.7526 122.254C82.5437 122.589 83.7873 122.898 85.3326 122.989V121.402C83.1225 121.189 80.8072 120.885 80.8072 119.821C80.8072 118.99 82.5652 118.327 85.3326 118.235V117.484H87.0432V118.242C88.7814 118.318 90.2373 118.58 91.3537 118.99L89.9397 119.7C89.1237 119.389 88.0951 119.2 87.0432 119.116V120.534C89.2725 120.754 91.695 121.072 91.695 122.169C91.695 123.005 90.2605 123.738 87.0432 123.846V124.581H85.3326V123.848ZM85.3326 120.361V119.078C84.1313 119.136 83.3795 119.389 83.3795 119.749C83.3798 120.068 84.1958 120.231 85.3326 120.361ZM87.0432 121.573V122.996C88.5251 122.911 89.1237 122.579 89.1237 122.26C89.1237 121.892 88.2251 121.713 87.0432 121.573Z" fill="#B8D1E6"/>
<path d="M73.5867 121.919V125.26C73.838 125.523 74.1507 125.773 74.5078 126.013V122.881C74.1 122.572 73.7889 122.248 73.5867 121.919Z" fill="#F2F9FF"/>
<path d="M97.2864 123.03V126.164C97.6381 125.949 97.9478 125.723 98.2092 125.487V122.229C97.9764 122.499 97.6667 122.768 97.2864 123.03Z" fill="#F2F9FF"/>
<path d="M75.2251 123.364V126.439C75.5106 126.594 75.8184 126.743 76.1479 126.883V123.834C75.8116 123.683 75.5063 123.525 75.2251 123.364Z" fill="#F2F9FF"/>
<path d="M76.865 124.134V127.165C77.1599 127.271 77.467 127.375 77.7861 127.471V124.449C77.4616 124.35 77.1546 124.242 76.865 124.134Z" fill="#F2F9FF"/>
<path d="M96.308 117.323C93.8828 116.181 90.1754 115.449 86.0216 115.449C81.8573 115.449 78.1509 116.181 75.7231 117.323H72.7759V120.498C72.7759 123.289 78.6978 125.557 86.0216 125.557C93.3299 125.557 99.2568 123.289 99.2568 120.498V117.323H96.308Z" fill="#5D6D7E"/>
<path d="M72.7766 117.323V119.805C72.7766 122.594 78.6985 124.861 86.0223 124.861C93.3306 124.861 99.2576 122.594 99.2576 119.805V117.323H72.7766Z" fill="#B8D1E6"/>
<path d="M72.7766 117.323V119.805C72.7766 122.594 78.6985 124.861 86.0223 124.861C93.3306 124.861 99.2576 122.594 99.2576 119.805V117.323H72.7766Z" fill="#B8D1E6"/>
<path d="M99.2568 117.323C99.2568 120.114 93.3295 122.382 86.0216 122.382C78.6978 122.382 72.7759 120.114 72.7759 117.323C72.7759 114.529 78.6978 112.271 86.0216 112.271C93.3299 112.271 99.2568 114.529 99.2568 117.323Z" fill="#B8D1E6"/>
<path d="M86.0216 121.851C78.4149 121.851 73.3057 119.507 73.3057 117.323C73.3057 115.138 78.4149 112.802 86.0216 112.802C93.6232 112.802 98.7254 115.138 98.7254 117.323C98.7264 119.464 93.5096 121.851 86.0216 121.851Z" fill="#F2F9FF"/>
<path d="M85.3326 120.139C83.1225 120.073 81.4714 119.738 80.3369 119.291L81.7526 118.545C82.5437 118.883 83.7873 119.191 85.3326 119.282V117.692C83.1225 117.483 80.8072 117.177 80.8072 116.114C80.8072 115.281 82.5652 114.615 85.3326 114.528V113.773H87.0432V114.535C88.7814 114.609 90.2373 114.871 91.3537 115.281L89.9397 115.991C89.1237 115.682 88.0951 115.493 87.0432 115.41V116.826C89.2725 117.047 91.695 117.366 91.695 118.461C91.695 119.296 90.2605 120.031 87.0432 120.138V120.873H85.3326V120.139ZM85.3326 116.656V115.372C84.1313 115.429 83.3795 115.683 83.3795 116.044C83.3798 116.363 84.1958 116.525 85.3326 116.656ZM87.0432 117.868V119.291C88.5251 119.205 89.1237 118.873 89.1237 118.552C89.1237 118.187 88.2251 118.007 87.0432 117.868Z" fill="#B8D1E6"/>
<path d="M73.5867 118.212V121.55C73.838 121.815 74.1507 122.062 74.5078 122.303V119.174C74.1 118.863 73.7889 118.54 73.5867 118.212Z" fill="#F2F9FF"/>
<path d="M97.2864 119.32V122.455C97.6381 122.24 97.9478 122.013 98.2092 121.776V118.518C97.9764 118.792 97.6667 119.06 97.2864 119.32Z" fill="#F2F9FF"/>
<path d="M75.2251 119.653V122.732C75.5106 122.886 75.8184 123.035 76.1479 123.174V120.126C75.8116 119.974 75.5063 119.816 75.2251 119.653Z" fill="#F2F9FF"/>
<path d="M76.865 120.425V123.456C77.1599 123.565 77.467 123.669 77.7861 123.762V120.742C77.4616 120.639 77.1546 120.536 76.865 120.425Z" fill="#F2F9FF"/>
<path d="M96.308 113.613C93.8828 112.469 90.1754 111.742 86.0216 111.742C81.8573 111.742 78.1509 112.469 75.7231 113.613H72.7759V116.791C72.7759 119.582 78.6978 121.85 86.0216 121.85C93.3299 121.85 99.2568 119.582 99.2568 116.791V113.613H96.308Z" fill="#5D6D7E"/>
<path d="M72.7764 113.612V116.095C72.7764 118.886 78.6983 121.154 86.0221 121.154C93.3304 121.154 99.2573 118.886 99.2573 116.095V113.612H72.7764Z" fill="#B8D1E6"/>
<path d="M72.7764 113.612V116.095C72.7764 118.886 78.6983 121.154 86.0221 121.154C93.3304 121.154 99.2573 118.886 99.2573 116.095V113.612H72.7764Z" fill="#B8D1E6"/>
<path d="M99.2568 113.612C99.2568 116.404 93.3295 118.672 86.0216 118.672C78.6978 118.672 72.7759 116.404 72.7759 113.612C72.7759 110.816 78.6978 108.562 86.0216 108.562C93.3299 108.562 99.2568 110.817 99.2568 113.612Z" fill="#B8D1E6"/>
<path d="M86.0216 118.143C78.4149 118.143 73.3057 115.801 73.3057 113.613C73.3057 111.431 78.4149 109.093 86.0216 109.093C93.6232 109.093 98.7254 111.431 98.7254 113.613C98.7264 115.756 93.5096 118.143 86.0216 118.143Z" fill="#F2F9FF"/>
<path d="M85.3326 116.431C83.1225 116.365 81.4714 116.032 80.3369 115.581L81.7526 114.837C82.5437 115.172 83.7873 115.483 85.3326 115.572V113.984C83.1225 113.774 80.8072 113.469 80.8072 112.408C80.8072 111.575 82.5652 110.91 85.3326 110.817V110.067H87.0432V110.83C88.7814 110.904 90.2373 111.165 91.3537 111.575L89.9397 112.286C89.1237 111.974 88.0951 111.785 87.0432 111.705V113.121C89.2725 113.338 91.695 113.659 91.695 114.753C91.695 115.589 90.2605 116.327 87.0432 116.431V117.169H85.3326V116.431ZM85.3326 112.948V111.66C84.1313 111.721 83.3795 111.973 83.3795 112.332C83.3798 112.653 84.1958 112.816 85.3326 112.948ZM87.0432 114.158V115.58C88.5251 115.498 89.1237 115.163 89.1237 114.845C89.1237 114.477 88.2251 114.295 87.0432 114.158Z" fill="#B8D1E6"/>
<path d="M73.5867 114.505V117.842C73.838 118.104 74.1507 118.356 74.5078 118.597V115.468C74.1 115.153 73.7889 114.83 73.5867 114.505Z" fill="#F2F9FF"/>
<path d="M97.2864 115.614V118.749C97.6381 118.533 97.9478 118.306 98.2092 118.07V114.812C97.9764 115.084 97.6667 115.354 97.2864 115.614Z" fill="#F2F9FF"/>
<path d="M75.2251 115.946V119.025C75.5106 119.179 75.8184 119.325 76.1479 119.466V116.416C75.8116 116.265 75.5063 116.11 75.2251 115.946Z" fill="#F2F9FF"/>
<path d="M76.865 116.716V119.749C77.1599 119.855 77.467 119.957 77.7861 120.056V117.033C77.4616 116.933 77.1546 116.827 76.865 116.716Z" fill="#F2F9FF"/>
<path d="M96.308 109.905C93.8828 108.763 90.1754 108.034 86.0216 108.034C81.8573 108.034 78.1509 108.763 75.7231 109.905H72.7759V113.085C72.7759 115.874 78.6978 118.144 86.0216 118.144C93.3299 118.144 99.2568 115.874 99.2568 113.085V109.905H96.308Z" fill="#5D6D7E"/>
<path d="M72.7766 109.904V112.389C72.7766 115.178 78.6985 117.448 86.0223 117.448C93.3306 117.448 99.2576 115.178 99.2576 112.389V109.904H72.7766Z" fill="#B8D1E6"/>
<path d="M72.7766 109.904V112.389C72.7766 115.178 78.6985 117.448 86.0223 117.448C93.3306 117.448 99.2576 115.178 99.2576 112.389V109.904H72.7766Z" fill="#B8D1E6"/>
<path d="M99.2568 109.905C99.2568 112.696 93.3295 114.966 86.0216 114.966C78.6978 114.966 72.7759 112.696 72.7759 109.905C72.7759 107.111 78.6978 104.856 86.0216 104.856C93.3299 104.856 99.2568 107.111 99.2568 109.905Z" fill="#B8D1E6"/>
<path d="M86.0216 114.434C78.4149 114.434 73.3057 112.093 73.3057 109.904C73.3057 107.725 78.4149 105.384 86.0216 105.384C93.6232 105.384 98.7254 107.725 98.7254 109.904C98.7264 112.047 93.5096 114.434 86.0216 114.434Z" fill="#F2F9FF"/>
<path d="M85.3326 112.724C83.1225 112.659 81.4714 112.324 80.3369 111.873L81.7526 111.13C82.5437 111.465 83.7873 111.774 85.3326 111.866V110.278C83.1225 110.065 80.8072 109.761 80.8072 108.699C80.8072 107.866 82.5652 107.204 85.3326 107.111V106.361H87.0432V107.121C88.7814 107.194 90.2373 107.459 91.3537 107.866L89.9397 108.577C89.1237 108.265 88.0951 108.079 87.0432 107.994V109.409C89.2725 109.631 91.695 109.95 91.695 111.047C91.695 111.882 90.2605 112.615 87.0432 112.724V113.458H85.3326V112.724ZM85.3326 109.24V107.954C84.1313 108.012 83.3795 108.265 83.3795 108.627C83.3798 108.946 84.1958 109.108 85.3326 109.24ZM87.0432 110.451V111.873C88.5251 111.79 89.1237 111.456 89.1237 111.139C89.1237 110.77 88.2251 110.59 87.0432 110.451Z" fill="#B8D1E6"/>
<path d="M73.5867 110.794V114.135C73.838 114.398 74.1507 114.65 74.5078 114.888V111.759C74.1 111.448 73.7889 111.125 73.5867 110.794Z" fill="#F2F9FF"/>
<path d="M97.2864 111.906V115.039C97.6381 114.825 97.9478 114.598 98.2092 114.365V111.106C97.9764 111.375 97.6667 111.644 97.2864 111.906Z" fill="#F2F9FF"/>
<path d="M75.2251 112.241V115.318C75.5106 115.474 75.8184 115.62 76.1479 115.759V112.712C75.8116 112.56 75.5063 112.402 75.2251 112.241Z" fill="#F2F9FF"/>
<path d="M76.865 113.009V116.043C77.1599 116.147 77.467 116.25 77.7861 116.347V113.325C77.4616 113.226 77.1546 113.12 76.865 113.009Z" fill="#F2F9FF"/>
<path d="M96.308 106.198C93.8828 105.056 90.1754 104.324 86.0216 104.324C81.8573 104.324 78.1509 105.056 75.7231 106.198H72.7759V109.373C72.7759 112.165 78.6978 114.432 86.0216 114.432C93.3299 114.432 99.2568 112.165 99.2568 109.373V106.198H96.308Z" fill="#5D6D7E"/>
<path d="M72.7764 106.198V108.68C72.7764 111.472 78.6983 113.739 86.0221 113.739C93.3304 113.739 99.2573 111.472 99.2573 108.68V106.198H72.7764Z" fill="#B8D1E6"/>
<path d="M72.7764 106.198V108.68C72.7764 111.472 78.6983 113.739 86.0221 113.739C93.3304 113.739 99.2573 111.472 99.2573 108.68V106.198H72.7764Z" fill="#B8D1E6"/>
<path d="M99.2568 106.198C99.2568 108.987 93.3295 111.257 86.0216 111.257C78.6978 111.257 72.7759 108.987 72.7759 106.198C72.7759 103.405 78.6978 101.146 86.0216 101.146C93.3299 101.146 99.2568 103.405 99.2568 106.198Z" fill="#B8D1E6"/>
<path d="M86.0216 110.726C78.4149 110.726 73.3057 108.382 73.3057 106.198C73.3057 104.014 78.4149 101.677 86.0216 101.677C93.6232 101.677 98.7254 104.014 98.7254 106.198C98.7264 108.341 93.5096 110.726 86.0216 110.726Z" fill="#F2F9FF"/>
<path d="M85.3324 109.015C83.1223 108.95 81.4711 108.614 80.3367 108.166L81.7523 107.42C82.5434 107.758 83.7871 108.067 85.3324 108.158V106.568C83.1223 106.358 80.807 106.054 80.807 104.99C80.807 104.156 82.5649 103.494 85.3324 103.404V102.651H87.043V103.411C88.7811 103.484 90.2371 103.746 91.3534 104.156L89.9394 104.867C89.1234 104.558 88.0948 104.369 87.043 104.285V105.701C89.2723 105.923 91.6947 106.241 91.6947 107.338C91.6947 108.171 90.2603 108.907 87.043 109.013V109.749H85.3324V109.015ZM85.3324 105.53V104.247C84.1311 104.303 83.3793 104.558 83.3793 104.919C83.3796 105.238 84.1956 105.4 85.3324 105.53ZM87.043 106.743V108.165C88.5248 108.08 89.1235 107.748 89.1235 107.427C89.1235 107.061 88.2248 106.882 87.043 106.743Z" fill="#B8D1E6"/>
<path d="M73.5867 107.088V110.426C73.838 110.691 74.1507 110.939 74.5078 111.179V108.05C74.1 107.738 73.7889 107.415 73.5867 107.088Z" fill="#F2F9FF"/>
<path d="M97.2864 108.198V111.332C97.6381 111.117 97.9478 110.891 98.2092 110.653V107.395C97.9764 107.667 97.6667 107.936 97.2864 108.198Z" fill="#F2F9FF"/>
<path d="M75.2251 108.53V111.607C75.5106 111.761 75.8184 111.909 76.1479 112.049V109.002C75.8116 108.851 75.5063 108.691 75.2251 108.53Z" fill="#F2F9FF"/>
<path d="M76.865 109.301V112.332C77.1599 112.441 77.467 112.545 77.7861 112.638V109.618C77.4616 109.516 77.1546 109.409 76.865 109.301Z" fill="#F2F9FF"/>
<path d="M96.308 102.49C93.8828 101.345 90.1754 100.618 86.0216 100.618C81.8573 100.618 78.1509 101.345 75.7231 102.49H72.7759V105.667C72.7759 108.458 78.6978 110.726 86.0216 110.726C93.3299 110.726 99.2568 108.458 99.2568 105.667V102.49H96.308Z" fill="#5D6D7E"/>
<path d="M72.7766 102.489V104.974C72.7766 107.763 78.6985 110.03 86.0223 110.03C93.3306 110.03 99.2576 107.763 99.2576 104.974V102.489H72.7766Z" fill="#B8D1E6"/>
<path d="M72.7766 102.489V104.974C72.7766 107.763 78.6985 110.03 86.0223 110.03C93.3306 110.03 99.2576 107.763 99.2576 104.974V102.489H72.7766Z" fill="#B8D1E6"/>
<path d="M99.2568 102.49C99.2568 105.281 93.3295 107.549 86.0216 107.549C78.6978 107.549 72.7759 105.281 72.7759 102.49C72.7759 99.6983 78.6978 97.4385 86.0216 97.4385C93.3299 97.4385 99.2568 99.6987 99.2568 102.49Z" fill="#B8D1E6"/>
<path d="M86.0216 107.019C78.4149 107.019 73.3057 104.676 73.3057 102.489C73.3057 100.306 78.4149 97.9678 86.0216 97.9678C93.6232 97.9678 98.7254 100.306 98.7254 102.489C98.7264 104.632 93.5096 107.019 86.0216 107.019Z" fill="#F2F9FF"/>
<path d="M85.3324 105.306C83.1223 105.242 81.4711 104.907 80.3367 104.457L81.7523 103.714C82.5434 104.049 83.7871 104.358 85.3324 104.448V102.86C83.1223 102.65 80.807 102.345 80.807 101.284C80.807 100.451 82.5649 99.7852 85.3324 99.6975V98.9434H87.043V99.7053C88.7811 99.7785 90.2371 100.041 91.3534 100.451L89.9394 101.161C89.1234 100.852 88.0948 100.661 87.043 100.58V101.996C89.2723 102.215 91.6947 102.536 91.6947 103.628C91.6947 104.463 90.2603 105.201 87.043 105.305V106.043H85.3324V105.306ZM85.3324 101.824V100.538C84.1311 100.597 83.3793 100.851 83.3793 101.207C83.3796 101.531 84.1956 101.691 85.3324 101.824ZM87.043 103.034V104.457C88.5248 104.373 89.1235 104.04 89.1235 103.721C89.1235 103.353 88.2248 103.173 87.043 103.034Z" fill="#5D6D7E"/>
<path d="M73.5867 103.382V106.718C73.838 106.98 74.1507 107.232 74.5078 107.473V104.342C74.1 104.03 73.7889 103.707 73.5867 103.382Z" fill="#F2F9FF"/>
<path d="M97.2864 104.49V107.625C97.6381 107.408 97.9478 107.181 98.2092 106.946V103.688C97.9764 103.962 97.6667 104.23 97.2864 104.49Z" fill="#F2F9FF"/>
<path d="M75.2251 104.823V107.902C75.5106 108.056 75.8184 108.202 76.1479 108.344V105.293C75.8116 105.141 75.5063 104.986 75.2251 104.823Z" fill="#F2F9FF"/>
<path d="M76.865 105.592V108.626C77.1599 108.734 77.467 108.836 77.7861 108.932V105.912C77.4616 105.808 77.1546 105.703 76.865 105.592Z" fill="#F2F9FF"/>
<path d="M66.6114 121.029C64.1836 119.887 60.4789 119.157 56.325 119.157C52.1628 119.157 48.4517 119.887 46.0265 121.029H43.0767V124.206C43.0767 126.995 48.9986 129.268 56.324 129.268C63.6313 129.268 69.5603 126.995 69.5603 124.206V121.029H66.6114Z" fill="#5D6D7E"/>
<path d="M43.0767 121.028V123.513C43.0767 126.302 48.9986 128.571 56.324 128.571C63.6313 128.571 69.5603 126.302 69.5603 123.513V121.028H43.0767Z" fill="#B8D1E6"/>
<path d="M43.0767 121.028V123.513C43.0767 126.302 48.9986 128.571 56.324 128.571C63.6313 128.571 69.5603 126.302 69.5603 123.513V121.028H43.0767Z" fill="#B8D1E6"/>
<path d="M69.5603 121.028C69.5603 123.819 63.6313 126.087 56.324 126.087C48.9986 126.087 43.0767 123.819 43.0767 121.028C43.0767 118.235 48.9986 115.977 56.324 115.977C63.6313 115.977 69.5603 118.235 69.5603 121.028Z" fill="#B8D1E6"/>
<path d="M56.3251 125.558C48.7184 125.558 43.6082 123.218 43.6082 121.028C43.6082 118.848 48.7184 116.507 56.3251 116.507C63.925 116.507 69.0299 118.848 69.0299 121.028C69.0299 123.171 63.8111 125.558 56.3251 125.558Z" fill="#F2F9FF"/>
<path d="M55.6332 123.848C53.4264 123.782 51.7759 123.447 50.6375 122.997L52.0538 122.254C52.8442 122.589 54.0902 122.898 55.6332 122.989V121.402C53.4264 121.189 51.1105 120.885 51.1105 119.821C51.1105 118.99 52.8667 118.327 55.6332 118.235V117.484H57.3465V118.242C59.0819 118.318 60.5412 118.58 61.6569 118.99L60.2412 119.7C59.4252 119.389 58.3983 119.2 57.3465 119.116V120.534C59.5764 120.754 61.9992 121.072 61.9992 122.169C61.9992 123.005 60.562 123.738 57.3465 123.846V124.581H55.6332V123.848ZM55.6332 120.361V119.078C54.4319 119.136 53.6817 119.389 53.6817 119.749C53.6821 120.068 54.4991 120.231 55.6332 120.361ZM57.3465 121.573V122.996C58.8283 122.911 59.4252 122.579 59.4252 122.26C59.4249 121.892 58.5279 121.713 57.3465 121.573Z" fill="#B8D1E6"/>
<path d="M43.8909 121.919V125.26C44.1422 125.523 44.4526 125.773 44.8087 126.013V122.881C44.4025 122.572 44.0897 122.248 43.8909 121.919Z" fill="#F2F9FF"/>
<path d="M67.5908 123.03V126.164C67.9409 125.949 68.2513 125.723 68.512 125.487V122.229C68.2795 122.499 67.9701 122.768 67.5908 123.03Z" fill="#F2F9FF"/>
<path d="M45.5281 123.364V126.439C45.8136 126.594 46.1197 126.743 46.4482 126.883V123.834C46.1146 123.683 45.8069 123.525 45.5281 123.364Z" fill="#F2F9FF"/>
<path d="M47.1658 124.134V127.165C47.4607 127.271 47.7678 127.375 48.0869 127.471V124.449C47.7651 124.35 47.458 124.242 47.1658 124.134Z" fill="#F2F9FF"/>
<path d="M66.6114 117.323C64.1836 116.181 60.4789 115.449 56.325 115.449C52.1628 115.449 48.4517 116.181 46.0265 117.323H43.0767V120.498C43.0767 123.289 48.9986 125.557 56.324 125.557C63.6313 125.557 69.5603 123.289 69.5603 120.498V117.323H66.6114Z" fill="#5D6D7E"/>
<path d="M43.0764 117.323V119.805C43.0764 122.594 48.9983 124.861 56.3238 124.861C63.6311 124.861 69.5601 122.594 69.5601 119.805V117.323H43.0764Z" fill="#B8D1E6"/>
<path d="M43.0764 117.323V119.805C43.0764 122.594 48.9983 124.861 56.3238 124.861C63.6311 124.861 69.5601 122.594 69.5601 119.805V117.323H43.0764Z" fill="#B8D1E6"/>
<path d="M69.5603 117.323C69.5603 120.114 63.6313 122.382 56.324 122.382C48.9986 122.382 43.0767 120.114 43.0767 117.323C43.0767 114.529 48.9986 112.271 56.324 112.271C63.6313 112.271 69.5603 114.529 69.5603 117.323Z" fill="#B8D1E6"/>
<path d="M56.3251 121.851C48.7184 121.851 43.6082 119.507 43.6082 117.323C43.6082 115.138 48.7184 112.802 56.3251 112.802C63.925 112.802 69.0299 115.138 69.0299 117.323C69.0299 119.464 63.8111 121.851 56.3251 121.851Z" fill="#F2F9FF"/>
<path d="M55.6332 120.139C53.4264 120.073 51.7759 119.738 50.6375 119.291L52.0538 118.545C52.8442 118.883 54.0902 119.191 55.6332 119.282V117.692C53.4264 117.483 51.1105 117.177 51.1105 116.114C51.1105 115.281 52.8667 114.615 55.6332 114.528V113.773H57.3465V114.535C59.0819 114.609 60.5412 114.871 61.6569 115.281L60.2412 115.991C59.4252 115.682 58.3983 115.493 57.3465 115.41V116.826C59.5764 117.047 61.9992 117.366 61.9992 118.461C61.9992 119.296 60.562 120.031 57.3465 120.138V120.873H55.6332V120.139ZM55.6332 116.656V115.372C54.4319 115.429 53.6817 115.683 53.6817 116.044C53.6821 116.363 54.4991 116.525 55.6332 116.656ZM57.3465 117.868V119.291C58.8283 119.205 59.4252 118.873 59.4252 118.552C59.4249 118.187 58.5279 118.007 57.3465 117.868Z" fill="#5D6D7E"/>
<path d="M43.8911 118.213V121.551C44.1424 121.815 44.4528 122.063 44.8089 122.304V119.175C44.4027 118.864 44.09 118.541 43.8911 118.213Z" fill="#F2F9FF"/>
<path d="M67.5911 119.321V122.456C67.9411 122.241 68.2515 122.014 68.5122 121.777V118.519C68.2797 118.793 67.9703 119.061 67.5911 119.321Z" fill="#F2F9FF"/>
<path d="M45.5283 119.654V122.733C45.8139 122.887 46.1199 123.036 46.4485 123.175V120.127C46.1149 119.975 45.8071 119.817 45.5283 119.654Z" fill="#F2F9FF"/>
<path d="M47.166 120.425V123.456C47.461 123.565 47.768 123.669 48.0872 123.762V120.742C47.7653 120.639 47.4583 120.536 47.166 120.425Z" fill="#F2F9FF"/>
<path d="M46.2338 101.406C44.7161 101.406 43.3605 100.33 43.0605 98.7824C42.7182 97.0299 43.8681 95.326 45.6251 94.989C55.3035 93.1158 65.0876 89.7706 74.7079 85.05C95.3176 74.9389 111.613 60.0885 118.299 45.3257C119.04 43.6984 120.958 42.9772 122.588 43.7132C124.214 44.4509 124.935 46.3725 124.2 48.0011C116.911 64.0882 99.4759 80.1117 77.5613 90.8654C67.4254 95.8386 57.095 99.3639 46.8566 101.345C46.6463 101.388 46.4411 101.406 46.2338 101.406Z" fill="#F2F9FF"/>
<path d="M125.757 67.8672C124.308 67.8672 122.989 66.8859 122.619 65.4145L118.899 50.5933L104.076 54.3155C102.344 54.7522 100.582 53.6987 100.147 51.9632C99.7112 50.2285 100.766 48.4698 102.499 48.0338L123.604 42.7344L128.902 63.8386C129.336 65.5741 128.284 67.3327 126.551 67.7688C126.286 67.8339 126.019 67.8672 125.757 67.8672Z" fill="#F2F9FF"/>
</g>
<defs>
<clipPath id="clip0_528_30098">
<rect width="172" height="172" fill="white"/>
</clipPath>
</defs>
</svg>
