<svg width="70" height="70" viewBox="0 0 70 70" fill="none" xmlns="http://www.w3.org/2000/svg">
<circle cx="35" cy="35" r="35" fill="black"/>
<path d="M41.3516 40.0902H16.6484C14.125 40.0902 12 38.3932 12 36.3781V23.4387C12 21.4235 14.125 19.7266 16.6484 19.7266H41.3516C43.875 19.7266 46 21.4235 46 23.4387V36.3781C46 38.3932 43.875 40.0902 41.3516 40.0902Z" stroke="white" stroke-width="2" stroke-miterlimit="10"/>
<path d="M52.8984 45.7912H31.1016C28.875 45.7912 27 44.23 27 42.376V30.4718C27 28.6179 28.875 27.0566 31.1016 27.0566H52.8984C55.125 27.0566 57 28.6179 57 30.4718V42.376C57 44.23 55.125 45.7912 52.8984 45.7912Z" fill="black" stroke="white" stroke-width="2" stroke-miterlimit="10"/>
<circle cx="42" cy="50" r="4" fill="white"/>
</svg>
