<svg width="70" height="70" viewBox="0 0 70 70" fill="none" xmlns="http://www.w3.org/2000/svg">
<circle cx="35" cy="35" r="35" fill="#C1A875"/>
<path d="M51.7746 56.231H19.2246C15.8996 56.231 13.0996 53.4002 13.0996 50.0387V28.454C13.0996 25.0925 15.8996 22.2617 19.2246 22.2617H51.7746C55.0996 22.2617 57.8996 25.0925 57.8996 28.454V50.0387C57.8996 53.4002 55.0996 56.231 51.7746 56.231Z" stroke="white" stroke-width="2" stroke-miterlimit="10"/>
<path d="M46.7 22.2613H24.3V17.3075C24.3 15.3614 25.875 13.769 27.8 13.769H43.2C45.125 13.769 46.7 15.3614 46.7 17.3075V22.2613Z" stroke="white" stroke-width="2" stroke-miterlimit="10"/>
<path d="M14.5 36.4155H57.9" stroke="white" stroke-width="2" stroke-miterlimit="10"/>
<path d="M22.9004 33.5845V40.6614" stroke="white" stroke-width="2" stroke-miterlimit="10" stroke-linecap="round"/>
<path d="M48.0996 33.5845V40.6614" stroke="white" stroke-width="2" stroke-miterlimit="10" stroke-linecap="round"/>
</svg>
