<svg width="70" height="70" viewBox="0 0 70 70" fill="none" xmlns="http://www.w3.org/2000/svg">
<circle cx="35" cy="35" r="35" fill="black"/>
<path d="M21.5096 54.31L16.0296 57.88L12.5596 42.4L15.8596 41L16.6496 42.86L20.5596 52.08L21.5096 54.31Z" fill="white"/>
<path d="M38.29 47.1602C38.73 47.1902 39.19 47.2102 39.65 47.2202C39.71 47.2202 39.76 47.2202 39.82 47.2302H39.83" fill="black"/>
<path d="M57.18 43.2701C56.91 42.5001 56.36 41.8601 55.64 41.4401C55.76 40.7901 55.84 40.1001 55.84 39.3601C55.84 33.0801 51.67 24.3201 45.99 21.4001L49.39 12.6501C49.53 12.2901 49.37 11.8801 49.02 11.7101C46.78 10.5901 44.4 11.3001 42.1 11.9801C39.64 12.7101 37.51 13.3301 35.81 11.8201C35.55 11.5901 35.17 11.5701 34.88 11.7601C34.6 11.9601 34.48 12.3201 34.61 12.6501L38.01 21.4101C32.47 24.2701 28.39 32.7001 28.21 38.9401C26.57 38.4801 24.81 38.5801 23.25 39.2501L17.05 41.8801L16.55 40.7101C16.39 40.3301 15.95 40.1501 15.57 40.3101L12.26 41.7101C11.93 41.8501 11.74 42.2101 11.82 42.5601L15.3 58.0401C15.35 58.2801 15.52 58.4801 15.75 58.5701C15.84 58.6101 15.94 58.6301 16.03 58.6301C16.17 58.6301 16.32 58.5901 16.44 58.5101L21.92 54.9401C22.22 54.7401 22.34 54.3501 22.2 54.0201L21.55 52.4801L23.77 51.5401L30.24 54.1501C30.61 54.3101 31.06 54.1101 31.21 53.7401C31.29 53.5501 31.29 53.3501 31.21 53.1701C31.13 52.9801 30.98 52.8401 30.8 52.7601L24.05 50.0301C23.87 49.9601 23.65 49.9601 23.48 50.0401L20.96 51.1001L17.64 43.2701L23.84 40.6301C25.27 40.0201 26.93 39.9901 28.41 40.5901L28.6 40.6701C28.63 40.6801 28.65 40.6901 28.68 40.7001L36.47 43.8501C37.3 44.1801 37.84 44.9801 37.84 45.8701C37.84 46.1501 37.79 46.4301 37.68 46.7101C37.67 46.7201 37.6 46.8801 37.54 47.0401L37.46 47.2301C37.43 47.3101 37.39 47.3901 37.36 47.4601L37.32 47.5401C37.28 47.5401 37.25 47.5301 37.22 47.5401C36.91 47.6001 36.58 47.5901 36.27 47.5101C36.17 47.4901 36.08 47.4601 35.98 47.4201L28.98 45.3701C28.6 45.2501 28.17 45.4901 28.05 45.8801C27.94 46.2701 28.16 46.6901 28.56 46.8101C28.57 46.8101 28.57 46.8101 28.58 46.8101L35.46 48.8301C35.61 48.8901 35.77 48.9301 35.91 48.9701C36.21 49.0401 36.52 49.0801 36.82 49.0801C37.05 49.0801 37.27 49.0601 37.5 49.0201C37.66 48.9901 37.79 48.9001 37.9 48.7801C38.02 48.7901 38.15 48.7701 38.26 48.7201L40.1 47.9301H40.12L52.71 42.5801C53.28 42.3401 53.95 42.3301 54.53 42.5601C55.14 42.7901 55.57 43.2201 55.77 43.7901C55.86 44.0301 55.9 44.2801 55.9 44.5301C55.9 44.8201 55.85 45.1101 55.74 45.3701C55.52 45.9101 55.1 46.3401 54.56 46.5701L36.84 54.0901C36.08 54.4101 35.22 54.4501 34.45 54.2201C34.06 54.1101 33.63 54.3401 33.51 54.7301C33.46 54.9201 33.48 55.1201 33.57 55.3001C33.67 55.4701 33.82 55.6001 34.01 55.6601H34.02C34.49 55.8001 34.97 55.8701 35.46 55.8701C36.14 55.8701 36.8 55.7301 37.43 55.4701L55.15 47.9501C56.06 47.5601 56.76 46.8401 57.13 45.9301C57.31 45.4801 57.4 45.0101 57.4 44.5301C57.4 44.1001 57.33 43.6801 57.18 43.2701ZM16.53 56.6601L13.43 42.8501L15.47 41.9901L20.58 54.0301L16.53 56.6601ZM36.75 14.0201C38.62 14.5601 40.66 13.9601 42.52 13.4101C44.38 12.8601 46.16 12.3401 47.73 12.7901L44.53 21.0201H39.48L36.75 14.0201ZM52.12 41.1901L39.26 46.6501C39.31 46.3901 39.34 46.1301 39.34 45.8601C39.34 44.3501 38.43 43.0101 37.03 42.4501L29.7 39.4901C29.7 39.4401 29.7 39.4001 29.7 39.3501C29.7 33.4701 33.83 24.8901 39.17 22.5201H44.87C50.21 24.8801 54.34 33.4601 54.34 39.3501C54.34 39.9101 54.29 40.4301 54.21 40.9301C53.5 40.8401 52.77 40.9201 52.12 41.1901Z" fill="white"/>
<path d="M32.65 53.5006C32.28 53.3506 31.83 53.5406 31.68 53.9206C31.52 54.3006 31.71 54.7406 32.09 54.8906C32.18 54.9306 32.27 54.9506 32.37 54.9506C32.68 54.9506 32.95 54.7606 33.07 54.4806C33.22 54.1006 33.04 53.6606 32.65 53.5006Z" fill="white"/>
<path d="M42.0005 29.2202C43.2505 29.2202 44.2705 30.2402 44.2705 31.4902C44.2705 31.9002 44.6105 32.2402 45.0205 32.2402C45.4305 32.2402 45.7705 31.9002 45.7705 31.4902C45.7705 29.6702 44.4705 28.1402 42.7505 27.7902V26.9102C42.7505 26.5002 42.4105 26.1602 42.0005 26.1602C41.5905 26.1602 41.2505 26.5002 41.2505 26.9102V27.7902C39.5305 28.1402 38.2305 29.6602 38.2305 31.4902C38.2305 33.5702 39.9205 35.2602 42.0005 35.2602C43.2505 35.2602 44.2705 36.2802 44.2705 37.5302C44.2705 38.7802 43.2505 39.8002 42.0005 39.8002C40.7505 39.8002 39.7305 38.7802 39.7305 37.5302C39.7305 37.1202 39.3905 36.7802 38.9805 36.7802C38.5705 36.7802 38.2305 37.1202 38.2305 37.5302C38.2305 39.3502 39.5305 40.8802 41.2505 41.2302V42.1102C41.2505 42.5202 41.5905 42.8602 42.0005 42.8602C42.4105 42.8602 42.7505 42.5202 42.7505 42.1102V41.2302C44.4705 40.8802 45.7705 39.3602 45.7705 37.5302C45.7705 35.4502 44.0805 33.7602 42.0005 33.7602C40.7505 33.7602 39.7305 32.7402 39.7305 31.4902C39.7305 30.2402 40.7505 29.2202 42.0005 29.2202Z" fill="white"/>
</svg>
