<svg width="79" height="73" viewBox="0 0 79 73" fill="none" xmlns="http://www.w3.org/2000/svg">
<circle cx="40" cy="38" r="35" fill="#C1A875"/>
<g clip-path="url(#clip0_118_1560)">
<path d="M18.4411 50.9409H35.6958C36.4922 50.9409 37.1368 50.4573 37.1368 49.8601V47.708C37.1368 47.1107 36.4922 46.6272 35.6958 46.6272H18.4411C17.6447 46.6272 17 47.1107 17 47.708V49.8601C17 50.4573 17.6447 50.9409 18.4411 50.9409ZM18.4411 56.6861H35.6958C36.4922 56.6861 37.1368 56.2026 37.1368 55.6053V53.4532C37.1368 52.8559 36.4922 52.3724 35.6958 52.3724H18.4411C17.6447 52.3724 17 52.8559 17 53.4532V55.6053C17 56.2026 17.6447 56.6861 18.4411 56.6861ZM18.4411 45.1861H35.6958C36.4922 45.1861 37.1368 44.7026 37.1368 44.1053V41.9532C37.1368 41.3559 36.4922 40.8724 35.6958 40.8724H18.4411C17.6447 40.8724 17 41.3559 17 41.9532V44.1053C17 44.7026 17.6447 45.1861 18.4411 45.1861ZM39.9336 44.6173C39.9526 44.4466 40 44.2854 40 44.1148V41.9627C40 39.7442 38.1039 38.0093 35.6863 38.0093H29.9316C29.9316 34.0369 33.1455 30.823 37.1179 30.823C41.0903 30.823 44.3042 34.0369 44.3042 38.0093C44.3137 40.9672 42.5124 43.5175 39.9336 44.6173ZM17 25.0587H57.2547V50.9314H39.8293C39.9336 50.5901 40 50.2298 40 49.8506V48.0493H48.6274C48.6274 44.8732 51.2061 42.2945 54.3726 42.2945V33.6671C51.1966 33.6671 48.6274 31.0884 48.6274 27.9124H25.6274C25.6274 31.0884 23.0486 33.6671 19.8726 33.6671V37.9808H18.4411C17.9291 37.9808 17.4551 38.0756 17 38.2178V25.0587ZM63 19.3135V48.0682H60.1274V22.1861H19.8726V19.3135H63Z" fill="white"/>
</g>
<defs>
<clipPath id="clip0_118_1560">
<rect width="46" height="46" fill="white" transform="translate(17 15)"/>
</clipPath>
</defs>
</svg>
