<svg width="79" height="73" viewBox="0 0 79 73" fill="none" xmlns="http://www.w3.org/2000/svg">
<circle cx="40" cy="38" r="35" fill="black"/>
<g clip-path="url(#clip0_528_29901)">
<path d="M58.2112 37.0239H55.4129V29.8272C55.4129 29.7942 55.4097 29.762 55.4079 29.7294V24.1874C55.4079 23.8106 55.1025 23.5051 54.7256 23.5051H47.4911L41.2367 17.2506C41.1086 17.1227 40.9351 17.0508 40.7542 17.0508C40.5732 17.0508 40.3997 17.1226 40.2716 17.2506L35.5555 21.9667L33.3385 19.7496C33.072 19.4831 32.64 19.4831 32.3735 19.7496L28.6135 23.5095C28.5887 23.5068 28.5635 23.5051 28.5379 23.5051H20.7888C20.4119 23.5051 20.1064 23.8106 20.1064 24.1874V31.4492C20.1064 31.4714 20.1077 31.4934 20.1098 31.5151V54.0978C20.1098 55.119 20.9406 55.9498 21.9618 55.9498H53.5609C54.5821 55.9498 55.4129 55.119 55.4129 54.0978V46.9012H58.2112C58.588 46.9012 58.8935 46.5957 58.8935 46.2189V37.7062C58.8935 37.3293 58.588 37.0239 58.2112 37.0239ZM54.0433 24.8698V28.0412C53.8892 27.9994 53.728 27.9752 53.5609 27.9752H51.9611L48.8556 24.8698H54.0433ZM40.7542 18.698L50.0312 27.9752H47.9603L39.7187 19.7335L40.7542 18.698ZM38.7537 20.6985L46.0303 27.9752H41.5641L36.5206 22.9316L38.7537 20.6985ZM32.856 21.197L34.5906 22.9316L35.5555 23.8965L39.6342 27.9752H37.7744L31.9261 22.1269L32.856 21.197ZM35.8443 27.9752H26.0778L30.9611 23.0919L35.8443 27.9752ZM24.1479 27.9752H21.9618C21.7917 27.9752 21.6277 28.0001 21.4711 28.0432V24.8698H27.2533L24.1479 27.9752ZM54.0483 54.0979C54.0483 54.3666 53.8296 54.5852 53.5609 54.5852H21.9618C21.6931 54.5852 21.4744 54.3666 21.4744 54.0979V29.8272C21.4744 29.5585 21.6931 29.3398 21.9618 29.3398H53.5609C53.8129 29.3398 54.0184 29.5328 54.0433 29.7781V31.4492C54.0433 31.4759 54.0453 31.5023 54.0483 31.5283V37.0239H47.8466C45.1234 37.0239 42.9079 39.2393 42.9079 41.9625C42.9079 44.6857 45.1234 46.9012 47.8466 46.9012H54.0483L54.0483 54.0979ZM57.5289 45.5366H55.4129H54.0483H47.8466C45.8759 45.5366 44.2726 43.9332 44.2726 41.9625C44.2726 39.9918 45.8759 38.3885 47.8466 38.3885H54.0483H55.4129H57.5289V45.5366Z" fill="white"/>
<path d="M47.8789 39.623C46.589 39.623 45.5396 40.6725 45.5396 41.9624C45.5396 43.2523 46.589 44.3018 47.8789 44.3018C49.1688 44.3018 50.2183 43.2523 50.2183 41.9624C50.2183 40.6725 49.1688 39.623 47.8789 39.623ZM47.8789 42.9371C47.3415 42.9371 46.9042 42.4998 46.9042 41.9624C46.9042 41.425 47.3415 40.9877 47.8789 40.9877C48.4163 40.9877 48.8536 41.425 48.8536 41.9624C48.8536 42.4998 48.4163 42.9371 47.8789 42.9371Z" fill="white"/>
</g>
<defs>
<clipPath id="clip0_528_29901">
<rect width="39" height="39" fill="white" transform="translate(20 17)"/>
</clipPath>
</defs>
</svg>
