<svg width="70" height="70" viewBox="0 0 70 70" fill="none" xmlns="http://www.w3.org/2000/svg">
<circle cx="35" cy="35" r="35" fill="#C1A875"/>
<g clip-path="url(#clip0_302_3)">
<path d="M57.9946 24.1147V20.5599V20.4996C57.8739 19.2543 57.0455 18.426 55.8606 18.3053H55.8002H48.6908V16.7035C48.6908 15.5789 47.7417 14.6299 46.6172 14.6299H21.7394C20.6148 14.6299 19.6658 15.5789 19.6658 16.7035V18.3053H13.2091H13.1487C11.9639 18.3656 11.1355 19.2543 11.0148 20.4996V20.5599V24.1147C10.9545 25.0637 10.6582 34.2469 20.4942 35.7883C22.0357 40.1111 25.5904 43.5506 30.0942 44.8507V50.715L22.2716 54.4452C22.2716 54.4452 22.2112 54.4452 22.2112 54.5056C21.0866 55.1584 20.4942 56.1074 20.4942 57.1716V58.3566V58.417C20.6148 59.6019 21.4432 60.3699 22.6885 60.3699H45.734C46.9792 60.3699 47.8679 59.6019 47.9282 58.417V58.3566V57.1716C47.9282 56.1074 47.3358 55.1584 46.2112 54.5056L46.1508 54.4452L38.4488 50.7698V44.7958C42.7716 43.4902 46.2715 40.1165 47.8678 35.8486C51.1867 35.4317 53.7321 34.192 55.5095 32.1184C58.2359 28.8543 57.9946 24.7071 57.9946 24.1147ZM19.9017 33.4788C12.6167 31.7618 13.1488 24.6523 13.2091 24.2957C13.2091 24.2354 13.2091 24.2354 13.2091 24.1751V20.6203C13.2091 20.5599 13.2091 20.4996 13.2091 20.4996H13.2695H19.6658V30.928C19.6658 31.345 19.6658 31.696 19.7262 32.113C19.7262 32.1733 19.7262 32.2336 19.7262 32.2336C19.781 32.6504 19.8414 33.0016 19.9017 33.4788C19.9017 33.4184 19.9017 33.4184 19.9017 33.4788ZM45.734 57.1168V58.1262H22.6281V57.1168C22.6281 56.8206 22.9847 56.5244 23.2205 56.4036L31.2791 52.613H37.083L45.1415 56.4036C45.3774 56.5244 45.734 56.8206 45.734 57.1168ZM36.1943 45.4432V50.4188H32.2829V45.4432H36.1943ZM34.1811 43.2544C28.613 43.2544 23.9337 39.5789 22.3922 34.543C22.3319 34.2468 22.2167 33.9506 22.1564 33.6544C22.0357 33.1222 21.9808 32.5298 21.9205 31.9977C21.9205 31.9373 21.9205 31.877 21.9205 31.8221C21.9205 31.5259 21.8602 31.29 21.8602 30.9938V19.4353V16.8296H46.4471V19.7919V30.873C46.4471 31.1693 46.4471 31.4052 46.3868 31.7014C46.3868 31.7618 46.3868 31.8221 46.3868 31.877C46.3868 32.1128 46.3264 32.4091 46.3264 32.645V32.7053C46.266 33.0016 46.2057 33.2375 46.1508 33.5337C46.1508 33.5941 46.1508 33.6544 46.0905 33.7093C46.0301 33.9451 45.9698 34.181 45.9149 34.4224C44.4283 39.5186 39.6887 43.2544 34.1811 43.2544ZM53.7925 30.7524C52.5473 32.2336 50.7699 33.1826 48.4604 33.594V33.5336C48.5207 33.1167 48.581 32.7656 48.6359 32.3487C48.6359 32.2883 48.6359 32.228 48.6359 32.228C48.6963 31.8111 48.6963 31.3997 48.6963 30.9828V20.5051H55.7455C55.8058 20.5051 55.8058 20.5051 55.8058 20.5051C55.8058 20.5051 55.8058 20.5655 55.8058 20.6257V24.1805C55.8058 24.2409 55.8058 24.2409 55.8058 24.3012C55.8058 24.356 56.102 27.9656 53.7925 30.7524ZM31.9264 38.0978C31.7509 38.5147 31.334 38.8109 30.9171 38.8109C30.7964 38.8109 30.6812 38.8109 30.5001 38.7506C26.885 37.3901 26.117 34.1316 26.1773 32.6504V21.5144C26.1773 20.922 26.6491 20.4502 27.2415 20.4502C27.834 20.4502 28.3058 20.922 28.3058 21.5144V32.7108C28.3058 32.8864 28.1851 35.6128 31.2077 36.7373C31.8715 36.9128 32.1678 37.5656 31.9264 38.0978Z" fill="white"/>
</g>
<defs>
<clipPath id="clip0_302_3">
<rect width="47" height="47" fill="white" transform="translate(11 14)"/>
</clipPath>
</defs>
</svg>
