<svg width="70" height="70" viewBox="0 0 70 70" fill="none" xmlns="http://www.w3.org/2000/svg">
<circle cx="35" cy="35" r="35" fill="#C1A875"/>
<path d="M60.0453 34.3197L51.0598 18.5092C50.7743 18.0394 50.1763 17.8661 49.684 18.1104L45.5557 20.4634C45.0446 20.7576 44.8666 21.4088 45.1564 21.9218L45.9824 23.5867C45.3993 23.9874 44.6886 24.1587 43.9869 24.0685C43.3347 23.9715 42.6907 23.8242 42.0605 23.6279C39.0332 22.8159 33.9836 21.44 29.0303 23.6279C28.083 24.0229 27.2052 24.5662 26.4297 25.238C25.9757 25.238 25.0538 25.0729 24.104 24.9352C23.1269 24.5431 22.2415 23.9528 21.5033 23.2018L22.0811 22.1834H22.0816C22.3715 21.6699 22.1934 21.0186 21.6823 20.725L17.5541 18.372C17.3079 18.2309 17.0151 18.1964 16.7426 18.2755C16.4676 18.3437 16.2329 18.5232 16.0956 18.7708L7.13812 34.5948C6.99703 34.841 6.96247 35.1342 7.04165 35.4068C7.1098 35.6818 7.28929 35.916 7.53692 36.0533L11.6652 38.4062C11.824 38.4979 12.0045 38.5454 12.1878 38.5439C12.2838 38.5574 12.3812 38.5574 12.4767 38.5439C12.7522 38.4758 12.9864 38.2963 13.1236 38.0487L14.1007 36.3426V36.3421C14.9108 37.4108 15.7885 38.4268 16.7287 39.3833L16.5085 39.6996C16.1874 40.1598 16.0146 40.7074 16.0132 41.2684C16.0142 42.1515 16.4389 42.9808 17.1554 43.4977C17.6094 43.8331 18.1598 44.0117 18.7243 44.0069H18.8342C18.7924 44.2804 18.7924 44.5588 18.8342 44.8323C18.9604 45.5426 19.3606 46.1751 19.9485 46.5936C20.404 46.9262 20.9535 47.1047 21.5174 47.1028C21.7972 47.1037 22.0756 47.062 22.3429 46.979C22.4984 47.7718 22.9941 48.4561 23.6986 48.8506C24.4036 49.2455 25.2463 49.3108 26.0031 49.0291C26.1601 49.6678 26.5411 50.2293 27.0762 50.6114C27.5331 50.9391 28.0826 51.1129 28.6451 51.1066H29.113C29.8247 50.9929 30.4597 50.5955 30.8743 50.0062V49.9237C32.4374 50.7443 34.1607 51.2141 35.9244 51.2995C36.5396 51.2928 37.1491 51.1815 37.7269 50.9693C38.7074 50.6684 39.5318 49.997 40.0247 49.0977H40.4787C41.2494 49.103 42.0029 48.8722 42.6393 48.4374C43.3755 47.9104 43.8943 47.132 44.0977 46.2494C44.9568 46.1587 45.751 45.7513 46.327 45.1072C46.757 44.6201 47.0804 44.0486 47.2762 43.4285C48.3556 43.3321 49.3489 42.8003 50.028 41.9567C50.4599 41.2939 50.6039 40.4844 50.4273 39.7136C50.3572 39.3978 50.2367 39.0959 50.0692 38.819C51.3252 38.2249 52.4342 37.3601 53.3169 36.2875L54.1149 37.6634C54.2556 37.911 54.4878 38.0939 54.7619 38.1726C54.8574 38.186 54.9548 38.186 55.0508 38.1726C55.2331 38.1678 55.4121 38.1203 55.5734 38.0349L59.7016 35.6819C59.9493 35.5413 60.1321 35.309 60.2108 35.0355C60.2439 34.7845 60.1854 34.5306 60.0457 34.3199L60.0453 34.3197ZM13.4541 34.5947L12.0783 36.9204L8.48714 34.9801L17.1836 19.72L20.7747 21.7703L13.4541 34.5947ZM19.8389 41.9978C19.3964 42.5723 18.5834 42.7047 17.9812 42.3002C17.3938 41.8606 17.2546 41.0376 17.6649 40.4291L18.1602 39.7135L18.7932 38.8329C19.2337 38.2368 20.0673 38.0972 20.6783 38.5166C21.2129 38.9082 21.3919 39.6252 21.1049 40.2227L19.8389 41.9978ZM22.8109 44.8462L22.6319 45.0938C22.4654 45.4739 22.1362 45.7585 21.7359 45.8684C21.3357 45.9783 20.9071 45.9015 20.5702 45.6596C20.2328 45.4177 20.0227 45.0367 19.9982 44.6225C19.9737 44.2079 20.1378 43.8048 20.4445 43.525L20.9398 42.8507L22.068 41.2684L23.5544 39.177H23.5539C23.7449 38.8641 24.0525 38.64 24.4091 38.5546C24.7656 38.4696 25.1414 38.5301 25.4529 38.723C25.7514 38.9265 25.951 39.2461 26.0033 39.6037C26.0585 39.9559 25.9745 40.3163 25.7696 40.6081L25.2744 41.3097L22.8109 44.8462ZM26.4573 46.7452L26.1272 47.1992C25.9582 47.5807 25.6247 47.8653 25.2211 47.9718C24.8175 48.0788 24.387 47.9968 24.0515 47.7487C23.7156 47.5005 23.5107 47.1133 23.4944 46.6957C23.4776 46.2787 23.6518 45.8765 23.9671 45.603L26.43 42.1356V42.1351C26.7731 41.744 27.3073 41.5794 27.8112 41.7104C28.3151 41.8414 28.7014 42.2455 28.8103 42.7542C28.8804 43.1074 28.795 43.4731 28.5766 43.7591L27.7512 44.9287L26.4573 46.7452ZM31.0808 47.2817L30.2141 48.4786L30.1042 48.6437L29.7601 49.1116C29.3152 49.569 28.6141 49.6606 28.0665 49.3329C27.5189 49.0051 27.2684 48.3438 27.4618 47.7357L27.5717 47.5567L28.879 45.7267H28.8795C29.3258 45.1561 30.1383 45.0299 30.7368 45.4378C31.3328 45.8784 31.4729 46.7115 31.0535 47.323L31.0808 47.2817ZM48.8312 41.2272C48.3057 41.7704 47.5911 42.0905 46.8358 42.1217L38.7037 37.0304C38.3846 36.826 37.9599 36.9181 37.7545 37.2368C37.6537 37.3908 37.6201 37.5794 37.6618 37.7584C37.7031 37.9379 37.8164 38.0925 37.9747 38.186L45.9005 43.167V43.1675C45.7594 43.5649 45.5391 43.9301 45.2536 44.2406C44.8346 44.6836 44.2535 44.9369 43.6439 44.9422L36.4611 40.9244C36.1266 40.7382 35.7047 40.8582 35.5185 41.1927C35.3323 41.5272 35.4523 41.949 35.7868 42.1352L42.6668 45.974V45.9745C42.5473 46.5307 42.2229 47.0217 41.7583 47.3504C41.1618 47.7425 40.4266 47.8625 39.736 47.6806H39.6534C39.6107 47.6398 39.5647 47.6028 39.5157 47.5707L34.0116 44.8189V44.8184C33.679 44.6802 33.296 44.8218 33.1333 45.1433C32.9707 45.4649 33.0839 45.8574 33.3925 46.0432L38.6625 48.699C38.3318 49.1866 37.8476 49.5498 37.2866 49.7308C35.3943 50.0729 33.4415 49.7264 31.7825 48.7537L32.223 48.0799C32.6405 47.4886 32.8085 46.7572 32.6909 46.0432C32.5801 45.4341 32.2676 44.8798 31.8031 44.4705C31.3385 44.0606 30.7497 43.8197 30.1316 43.7866C30.2554 43.3719 30.2837 42.9343 30.2142 42.5067C30.0913 41.7983 29.6963 41.1663 29.1132 40.7454C28.6165 40.3917 28.0166 40.2122 27.4071 40.2367C27.4479 39.9718 27.4479 39.703 27.4071 39.4386C27.2732 38.7341 26.8701 38.1103 26.2832 37.6984C25.6967 37.2871 24.9725 37.1206 24.2646 37.2348C23.5573 37.3491 22.9223 37.7349 22.4948 38.3098L22.3709 38.4749V38.4754C22.1819 38.0469 21.8771 37.6797 21.4903 37.4158C20.9 37.0035 20.172 36.8389 19.4622 36.9575C18.7524 37.076 18.117 37.4676 17.6923 38.0488L17.5824 38.1865V38.186C16.5962 37.1734 15.6771 36.098 14.8301 34.9663L20.8295 24.426C21.7106 25.3014 22.7856 25.957 23.9672 26.3389L25.343 26.5314C24.6256 27.4571 24.1188 28.5273 23.8567 29.6685C23.6081 30.7032 23.9157 31.7926 24.6687 32.5446C25.3862 33.2697 26.4228 33.5807 27.4205 33.3701C28.4696 33.1575 29.4126 32.5888 30.0902 31.7604L31.466 29.9304L33.4063 29.4212V29.4208C38.8299 31.8477 43.8472 35.0966 48.2806 39.053H48.3632C48.403 39.1005 48.4496 39.1418 48.5009 39.1768C48.7812 39.3832 48.9727 39.6879 49.0375 40.0296C49.1339 40.4404 49.0595 40.8724 48.8311 41.227L48.8312 41.2272ZM49.0102 37.8011C44.4761 33.7694 39.3357 30.4772 33.7784 28.045C33.6512 28.0176 33.5197 28.0176 33.393 28.045C33.3018 28.032 33.2092 28.032 33.1176 28.045L30.9849 28.6094C30.7569 28.6746 30.5549 28.809 30.4071 28.9942L29.0312 30.8932C28.5455 31.4687 27.8823 31.8655 27.1461 32.0215C26.597 32.1372 26.0269 31.9663 25.6325 31.5675C25.2149 31.1442 25.0436 30.5367 25.1785 29.9578C25.4823 28.6228 26.194 27.4158 27.2147 26.504C27.9547 25.8465 28.796 25.3123 29.7054 24.9217C34.1912 22.954 38.9658 24.2474 41.8141 25.0181V25.0177C42.5195 25.238 43.2423 25.3992 43.9746 25.4995C44.9407 25.6022 45.9125 25.369 46.7264 24.8391L52.5334 35.0492V35.0487C51.6412 36.2849 50.4141 37.24 48.9969 37.801L49.0102 37.8011ZM55.1195 36.7827L53.8262 34.5123L47.7582 23.8482L46.4509 21.5504L50.0281 19.459L58.6968 34.7326L55.1195 36.7827Z" fill="white"/>
</svg>
