<svg width="70" height="68" viewBox="0 0 70 68" fill="none" xmlns="http://www.w3.org/2000/svg">
<circle cx="35" cy="33" r="35" fill="black"/>
<path d="M61.4474 34.1244L52.4619 18.3139C52.1764 17.8441 51.5784 17.6708 51.0861 17.9151L46.9578 20.2681C46.4467 20.5623 46.2687 21.2135 46.5585 21.7265L47.3845 23.3913C46.8014 23.7921 46.0907 23.9634 45.389 23.8732C44.7368 23.7762 44.0928 23.6289 43.4626 23.4326C40.4353 22.6206 35.3857 21.2447 30.4324 23.4326C29.485 23.8276 28.6073 24.3708 27.8317 25.0427C27.3778 25.0427 26.4559 24.8776 25.5061 24.7399C24.529 24.3478 23.6435 23.7575 22.9054 23.0065L23.4832 21.9881C23.7731 21.4746 23.5955 20.8233 23.0844 20.5296L18.9562 18.1767C18.71 18.0356 18.4172 18.001 18.1446 18.0802C17.8697 18.1484 17.635 18.3279 17.4977 18.5755L8.54022 34.3995C8.39913 34.6457 8.36457 34.9389 8.44375 35.2115C8.5119 35.4865 8.69139 35.7207 8.93902 35.8579L13.0673 38.2109C13.2261 38.3026 13.4066 38.3501 13.5899 38.3486C13.6859 38.3621 13.7833 38.3621 13.8788 38.3486C14.1543 38.2805 14.3885 38.101 14.5257 37.8534L15.5028 36.1473C16.3129 37.216 17.1906 38.2315 18.1308 39.188L17.9106 39.5042C17.5895 39.9645 17.4167 40.512 17.4153 41.0731C17.4163 41.9562 17.841 42.7855 18.5575 43.3024C19.0115 43.6378 19.5619 43.8164 20.1264 43.8115H20.2363C20.1945 44.0851 20.1945 44.3634 20.2363 44.637C20.3625 45.3473 20.7627 45.9798 21.3506 46.3983C21.8061 46.7309 22.3556 46.9094 22.9195 46.9075C23.1993 46.9084 23.4777 46.8667 23.745 46.7836C23.9005 47.5765 24.3962 48.2608 25.1007 48.6553C25.8057 49.0502 26.6484 49.1155 27.4052 48.8338C27.5622 49.4725 27.9432 50.034 28.4783 50.416C28.9352 50.7438 29.4847 50.9176 30.0472 50.9113H30.5151C31.2268 50.7976 31.8618 50.4002 32.2764 49.8109V49.7283C33.8395 50.549 35.5628 51.0188 37.3265 51.1042C37.9417 51.0975 38.5512 50.9862 39.129 50.774C40.1095 50.4731 40.9339 49.8017 41.4268 48.9024H41.8808C42.6515 48.9077 43.405 48.6769 44.0414 48.2421C44.7776 47.7151 45.2964 46.9367 45.4998 46.0541C46.3589 45.9634 47.1531 45.556 47.7291 44.9119C48.1591 44.4248 48.4825 43.8532 48.6783 43.2332C49.7576 43.1367 50.751 42.605 51.4301 41.7614C51.862 41.0986 52.006 40.2891 51.8294 39.5182C51.7593 39.2025 51.6388 38.9006 51.4713 38.6237C52.7273 38.0296 53.8363 37.1648 54.7189 36.0922L55.517 37.4681C55.6577 37.7157 55.8899 37.8986 56.164 37.9773C56.2595 37.9907 56.3569 37.9907 56.4529 37.9773C56.6352 37.9725 56.8142 37.925 56.9755 37.8396L61.1037 35.4866C61.3514 35.346 61.5342 35.1137 61.6129 34.8402C61.646 34.5892 61.587 34.3351 61.4474 34.1244ZM14.8562 34.3994L13.4804 36.7251L9.88924 34.7848L18.5857 19.5247L22.1768 21.575L14.8562 34.3994ZM21.241 41.8025C20.7985 42.377 19.9855 42.5094 19.3833 42.1049C18.7959 41.6653 18.6567 40.8423 19.067 40.2337L19.5623 39.5182L20.1953 38.6376C20.6358 38.0415 21.4694 37.9019 22.0804 38.3213C22.615 38.7129 22.794 39.4299 22.507 40.0274L21.241 41.8025ZM24.213 44.6508L24.034 44.8985C23.8675 45.2786 23.5383 45.5632 23.138 45.673C22.7378 45.7829 22.3092 45.7062 21.9723 45.4643C21.6349 45.2224 21.4247 44.8414 21.4003 44.4272C21.3758 44.0126 21.5399 43.6094 21.8466 43.3297L22.3419 42.6554L23.4701 41.0731L24.9565 38.9817C25.1475 38.6688 25.4546 38.4447 25.8112 38.3593C26.1677 38.2743 26.5435 38.3348 26.855 38.5277C27.1535 38.7312 27.3531 39.0508 27.4054 39.4083C27.4606 39.7606 27.3766 40.121 27.1717 40.4128L26.6765 41.1144L24.213 44.6508ZM27.8594 46.5498L27.5293 47.0038C27.3603 47.3854 27.0268 47.67 26.6232 47.7765C26.2196 47.8835 25.7891 47.8015 25.4536 47.5533C25.1177 47.3052 24.9128 46.9179 24.8965 46.5004C24.8797 46.0834 25.0539 45.6812 25.3692 45.4077L27.8321 41.9403C28.1752 41.5491 28.7094 41.3841 29.2133 41.5151C29.7172 41.6461 30.1035 42.0502 30.2124 42.5589C30.2825 42.9121 30.1971 43.2778 29.9787 43.5638L29.1533 44.7334L27.8594 46.5498ZM32.4829 47.0864L31.6162 48.2833L31.5063 48.4484L31.1622 48.9163C30.7173 49.3737 30.0162 49.4653 29.4686 49.1375C28.921 48.8098 28.6705 48.1484 28.8639 47.5404L28.9738 47.3614L30.2811 45.5314C30.7275 44.9608 31.5404 44.8346 32.1389 45.2425C32.7349 45.6831 32.875 46.5162 32.4556 47.1276L32.4829 47.0864ZM50.2333 41.0319C49.7078 41.5751 48.9932 41.8952 48.2379 41.9264L40.1058 36.8351C39.7867 36.6306 39.362 36.7228 39.1566 37.0415C39.0558 37.1955 39.0222 37.3841 39.0639 37.5631C39.1052 37.7426 39.2185 37.8971 39.3768 37.9907L47.3026 42.9717C47.1615 43.3691 46.9412 43.7348 46.6557 44.0453C46.2367 44.4882 45.6556 44.7416 45.046 44.7469L37.8632 40.7291C37.5287 40.5429 37.1068 40.6629 36.9206 40.9974C36.7344 41.3319 36.8544 41.7537 37.1889 41.9399L44.0689 45.7787C43.9494 46.3349 43.625 46.8264 43.1604 47.1551C42.5639 47.5472 41.8287 47.6671 41.1381 47.4853H41.0555C41.0128 47.4445 40.9667 47.4075 40.9178 47.3754L35.4137 44.6236C35.0811 44.4854 34.6981 44.6265 34.5354 44.948C34.3728 45.2696 34.486 45.6621 34.7946 45.8479L40.0646 48.5037C39.7339 48.9912 39.2497 49.3545 38.6887 49.5355C36.7964 49.8776 34.8436 49.5311 33.1845 48.5584L33.6251 47.8846C34.0426 47.2933 34.2106 46.5619 34.093 45.8478C33.9822 45.2388 33.6697 44.6845 33.2052 44.2751C32.7406 43.8653 32.1518 43.6244 31.5337 43.5913C31.6575 43.1766 31.6858 42.739 31.6163 42.3113C31.4934 41.603 31.0984 40.971 30.5153 40.5501C30.0186 40.1964 29.4187 40.0169 28.8092 40.0414C28.85 39.7765 28.85 39.5077 28.8092 39.2433C28.6753 38.5388 28.2722 37.9149 27.6853 37.5031C27.0988 37.0918 26.3746 36.9253 25.6667 37.0395C24.9594 37.1538 24.3244 37.5396 23.8969 38.1145L23.773 38.2796C23.5839 37.8511 23.2792 37.4844 22.8924 37.2205C22.3021 36.8082 21.5741 36.6436 20.8643 36.7621C20.1545 36.8807 19.5191 37.2723 19.0944 37.8535L18.9845 37.9912C17.9983 36.9786 17.0792 35.9026 16.2322 34.771L22.2316 24.2307C23.1127 25.1061 24.1877 25.7616 25.3693 26.1436L26.7451 26.336C26.0277 27.2618 25.5209 28.332 25.2588 29.4732C25.0102 30.5079 25.3178 31.5973 26.0708 32.3493C26.7883 33.0744 27.8249 33.3854 28.8226 33.1747C29.8717 32.9621 30.8147 32.3934 31.4923 31.5651L32.8681 29.7351L34.8084 29.2259C40.232 31.6528 45.2493 34.9013 49.6827 38.8577H49.7653C49.8051 38.9052 49.8517 38.9465 49.903 38.9815C50.1833 39.1879 50.3748 39.4926 50.4396 39.8343C50.536 40.2451 50.4618 40.6772 50.2333 41.0319ZM50.4123 37.6057C45.8782 33.5741 40.7378 30.2819 35.1805 27.8497C35.0533 27.8223 34.9218 27.8223 34.7951 27.8497C34.7039 27.8367 34.6113 27.8367 34.5197 27.8497L32.387 28.414C32.159 28.4793 31.957 28.6137 31.8092 28.7989L30.4333 30.6979C29.9476 31.2733 29.2844 31.6702 28.5482 31.8262C27.9991 31.9419 27.429 31.771 27.0346 31.3722C26.617 30.9489 26.4457 30.3414 26.5806 29.7625C26.8844 28.4274 27.5961 27.2205 28.6168 26.3087C29.3568 25.6512 30.1981 25.117 31.1075 24.7264C35.5932 22.7587 40.3679 24.0521 43.2162 24.8228C43.9216 25.0431 44.6444 25.2039 45.3767 25.3042C46.3428 25.4069 47.3146 25.1737 48.1285 24.6438L53.9355 34.8539C53.0433 36.0901 51.8162 37.0447 50.399 37.6056L50.4123 37.6057ZM56.5216 36.5874L55.2283 34.317L49.1603 23.6528L47.853 21.355L51.4302 19.2637L60.0989 34.5373L56.5216 36.5874Z" fill="white"/>
</svg>
