<svg width="30" height="30" viewBox="0 0 30 30" fill="none" xmlns="http://www.w3.org/2000/svg">
<path d="M20.9309 21.3071H9.1543V22.0963H20.9309V21.3071Z" fill="white"/>
<path d="M20.9309 23.6626H9.1543V24.4518H20.9309V23.6626Z" fill="white"/>
<path d="M21.7201 15.0305C22.1559 15.0305 22.5092 14.6771 22.5092 14.2413C22.5092 13.8055 22.1559 13.4521 21.7201 13.4521C21.2842 13.4521 20.9309 13.8055 20.9309 14.2413C20.9309 14.6771 21.2842 15.0305 21.7201 15.0305Z" stroke="white" stroke-width="2" stroke-miterlimit="10"/>
<path d="M24.0752 10.3077H22.509V4.80787C22.509 3.94587 21.8048 3.2417 20.9428 3.2417H9.16624C8.30424 3.2417 7.60007 3.94587 7.60007 4.80787V10.3077H6.00962C4.67413 10.3077 3.6543 11.3275 3.6543 12.663V19.729C3.6543 21.0644 4.67413 22.0843 6.00962 22.0843H7.57579V25.2288C7.57579 26.0907 8.27995 26.7949 9.14195 26.7949H20.9186C21.7806 26.7949 22.4847 26.0907 22.4847 25.2288V22.0843H24.0509C25.3864 22.0843 26.4062 21.0644 26.4062 19.729V12.663C26.4305 11.3275 25.4107 10.3077 24.0752 10.3077ZM8.36494 4.80787C8.36494 4.41936 8.6806 4.01871 9.15409 4.01871H20.9307C21.3192 4.01871 21.7199 4.33437 21.7199 4.80787V10.3077H8.36494V4.80787ZM21.7199 25.2288C21.7199 25.6173 21.4042 26.0179 20.9307 26.0179H9.15409C8.76559 26.0179 8.36494 25.7022 8.36494 25.2288V19.729H21.7199V25.2288ZM25.6413 19.729C25.6413 20.591 24.9372 21.2951 24.0752 21.2951H22.509V18.9398H7.57579V21.2951H6.00962C5.14762 21.2951 4.44345 20.591 4.44345 19.729V12.663C4.44345 11.801 5.14762 11.0968 6.00962 11.0968H24.0752C24.9372 11.0968 25.6413 11.801 25.6413 12.663V19.729Z" fill="white"/>
</svg>
