<svg width="488" height="488" fill="none" xmlns="http://www.w3.org/2000/svg"><g clip-path="url(#clip0)"><path d="M324.251 243.814L475.094 92.968c16.666-16.666 16.666-43.688 0-60.329l-20.11-20.108c-16.672-16.67-43.693-16.67-60.333 0l-150.838 150.84L92.969 12.499c-16.666-16.667-43.688-16.667-60.329 0L12.5 32.609c-16.667 16.673-16.667 43.694 0 60.334l150.869 150.869L12.531 394.654c-16.671 16.671-16.671 43.692 0 60.333l20.109 20.107c16.667 16.667 43.688 16.667 60.33 0l150.842-150.843 150.842 150.843c16.67 16.667 43.692 16.667 60.333 0l20.108-20.109c16.667-16.672 16.667-43.694 0-60.334L324.251 243.814z" fill="#969fe9"/></g><defs><clipPath id="clip0"><path fill="#fff" d="M0 0h487.595v487.595H0z"/></clipPath></defs></svg>