<svg width="54" height="36" viewBox="0 0 54 36" fill="none" xmlns="http://www.w3.org/2000/svg">
<path d="M19 3H54L43.1379 21H19V3Z" fill="black"/>
<circle cx="12.5" cy="12.5" r="12.5" fill="white"/>
<path d="M12.1022 18.5983C11.8573 18.5983 11.6253 18.4952 11.462 18.3147L6.98894 13.3303C6.67098 12.978 6.70105 12.4323 7.0534 12.1186C7.40574 11.8006 7.95144 11.8307 8.26512 12.1831L11.9948 16.3424L17.6495 7.78736C17.9116 7.39205 18.4444 7.28463 18.8397 7.54244C19.235 7.80455 19.3425 8.33736 19.0846 8.73267L12.8198 18.2159C12.6737 18.4393 12.4331 18.5811 12.1667 18.5983C12.1452 18.5983 12.1237 18.5983 12.1022 18.5983Z" fill="black"/>
<rect x="13" y="29" width="1" height="7" rx="0.5" fill="white"/>
</svg>
