<svg width="145" height="34" viewBox="0 0 145 34" fill="none" xmlns="http://www.w3.org/2000/svg">
<g clip-path="url(#clip0_528_4387)">
<path d="M36.1836 25.3302V2.82031H49.3775V5.64244H38.9157V12.5634H48.3113V15.3855H38.9157V22.4409H50.1105V25.263H36.1836V25.3302Z" fill="#ED4734"/>
<path d="M63.9712 25.3312L59.4399 19.3509L54.9087 25.3312H51.7101L57.9073 17.3351L51.377 9.07031H54.9753L59.4399 15.2521L63.9712 9.07031H67.5029L61.3057 17.3351L67.1697 25.3312H63.9712Z" fill="#ED4734"/>
<path d="M71.568 22.9091V33.9961H68.8359V17.3992C68.8359 13.166 72.0345 8.66406 77.0322 8.66406C82.0965 8.66406 85.8948 11.8894 85.8948 17.1977C85.8948 22.3716 82.0299 25.9328 77.6319 25.9328C75.4995 25.9328 72.6342 24.9921 71.568 22.9091ZM83.0294 17.1977C83.0294 13.5692 80.6972 11.419 76.5657 11.6206C74.5666 11.6878 71.5014 13.166 71.7679 18.3399C71.8346 20.0198 73.5671 23.1779 77.3653 23.1779C80.6305 23.1779 83.0294 21.2965 83.0294 17.1977Z" fill="#ED4734"/>
<path d="M88.2266 25.3312V9.07034H90.9586V10.8174C92.2914 9.27192 94.3571 8.73438 96.5561 8.73438V11.6909C96.2229 11.6237 92.9577 11.2205 90.9586 15.5209V25.3984H88.2266V25.3312Z" fill="#ED4734"/>
<path d="M97.2891 17.2016C97.2891 12.498 100.621 8.66797 105.219 8.66797C110.949 8.66797 113.082 12.498 113.082 17.4031V18.747H100.288C100.488 21.8379 103.22 23.4506 105.752 23.3834C107.618 23.3162 108.884 22.7786 110.216 21.4348L112.016 23.3162C110.35 24.9288 108.217 26.0039 105.619 26.0039C100.754 25.9367 97.2891 22.3083 97.2891 17.2016ZM105.019 11.4229C102.42 11.4229 100.421 13.7075 100.288 16.1937H110.216C110.216 13.7747 108.484 11.4229 105.019 11.4229Z" fill="#ED4734"/>
<path d="M114.48 23.0467L116.48 21.2325C116.413 21.2325 117.479 22.3076 117.612 22.3748C118.079 22.7779 118.545 23.0467 119.145 23.1811C120.878 23.6514 124.009 23.517 124.276 21.0981C124.409 19.7542 123.41 19.0151 122.277 18.5447C120.811 18.0072 119.212 17.8056 117.746 17.1337C116.08 16.3945 115.014 15.1178 115.014 13.2364C115.014 8.33128 121.944 7.52495 125.076 9.80954C125.209 9.94392 126.741 11.355 126.675 11.355L124.676 12.9676C123.676 11.7581 122.743 11.1534 120.611 11.1534C119.545 11.1534 118.079 11.6238 117.812 12.7661C117.412 14.3787 119.212 14.9834 120.411 15.3194C122.01 15.7226 123.743 15.9914 125.142 16.8649C127.075 18.0744 127.541 20.6949 126.808 22.7107C126.009 24.9281 123.61 25.8016 121.477 25.8688C118.945 26.0032 116.746 25.1969 114.947 23.3827C114.814 23.3827 114.48 23.0467 114.48 23.0467Z" fill="#ED4734"/>
<path d="M128.541 23.0467L130.54 21.2325C130.473 21.2325 131.54 22.3076 131.673 22.3748C132.139 22.7779 132.606 23.0467 133.206 23.1811C134.938 23.6514 138.07 23.517 138.337 21.0981C138.47 19.7542 137.47 19.0151 136.337 18.5447C134.871 18.0072 133.272 17.8056 131.806 17.1337C130.14 16.3945 129.074 15.1178 129.074 13.2364C129.074 8.33128 136.004 7.52495 139.136 9.80954C139.269 9.94392 140.802 11.355 140.735 11.355L138.736 12.9676C137.737 11.7581 136.804 11.1534 134.672 11.1534C133.605 11.1534 132.139 11.6238 131.873 12.7661C131.473 14.3787 133.272 14.9834 134.472 15.3194C136.071 15.7226 137.803 15.9914 139.203 16.8649C141.135 18.0744 141.602 20.6949 140.869 22.7107C140.069 24.9281 137.67 25.8016 135.538 25.8688C133.006 26.0032 130.807 25.1969 129.007 23.3827C128.874 23.3827 128.541 23.0467 128.541 23.0467Z" fill="#ED4734"/>
<path d="M141.535 9.06738V7.32034H140.936V6.98438H142.535V7.32034H141.935V9.06738H141.535Z" fill="#ED4734"/>
<path d="M144.533 9.06738V7.45473L143.933 9.06738H143.8L143.2 7.45473V9.06738H142.867V6.98438H143.4L143.933 8.39545L144.466 6.98438H145V9.06738H144.533Z" fill="#ED4734"/>
<path d="M17.6585 25.3302L15.6595 19.9547H4.86443L2.86535 25.3302H0L8.66268 2.82031H11.7946L20.3906 25.3302H17.6585ZM10.1287 6.04561L6.06388 17.1998H14.5267L10.1287 6.04561Z" fill="#F7971D"/>
<path d="M22.1895 25.3302V2.82031H24.9882V25.3302H22.1895Z" fill="#F7971D"/>
<path d="M29.1875 25.3311V9.40625H31.9862V25.3311H29.1875Z" fill="#F7971D"/>
<path d="M34.6515 4.23319C34.6515 4.166 34.6515 4.166 34.6515 4.09881C34.6515 4.03161 34.6515 4.03162 34.6515 3.96442C32.5192 3.89723 30.7866 2.1502 30.72 0C30.6534 0 30.5867 0 30.5201 0C30.4535 0 30.3868 0 30.3202 0C30.2536 2.1502 28.521 3.89723 26.3887 3.96442C26.3887 4.03162 26.3887 4.03161 26.3887 4.09881C26.3887 4.166 26.3887 4.166 26.3887 4.23319C28.521 4.30039 30.2536 6.04743 30.3202 8.19763C30.3868 8.19763 30.4535 8.19763 30.5201 8.19763C30.5867 8.19763 30.6534 8.19763 30.72 8.19763C30.7866 6.04743 32.5192 4.30039 34.6515 4.23319Z" fill="#F7971D"/>
</g>
<defs>
<clipPath id="clip0_528_4387">
<rect width="145" height="34" fill="white"/>
</clipPath>
</defs>
</svg>
