<svg width="20" height="16" viewBox="0 0 20 16" fill="none" xmlns="http://www.w3.org/2000/svg">
<path d="M12.8204 6.20856C14.7359 4.30105 16.6409 2.37789 18.5636 0.480469C19.0822 1.01827 19.6245 1.53387 20.1432 2.07217L20.18 2.08377V2.1317C20.1028 2.11202 20.0826 2.22856 20.0231 2.26034C15.4816 6.79126 10.9487 11.3308 6.40564 15.8596C4.29784 13.7392 2.17439 11.634 0.0630625 9.51707C0.047423 9.50547 0.0156395 9.48277 0 9.47116V9.44644C0.54486 8.91773 1.08468 8.3769 1.61541 7.83204C3.22174 9.41315 4.80385 11.0255 6.40866 12.6061C8.55228 10.4847 10.6818 8.33907 12.8204 6.20856Z" fill="#00B488"/>
</svg>
