<svg width="29" height="31" viewBox="0 0 29 31" fill="none" xmlns="http://www.w3.org/2000/svg">
<circle cx="15" cy="14" r="14" fill="white"/>
<g clip-path="url(#clip0_528_4017)">
<path d="M9.3339 20.8439C8.5693 20.8441 7.82184 20.6175 7.18604 20.1928C6.55025 19.7681 6.0547 19.1643 5.76207 18.458C5.46944 17.7516 5.39288 16.9743 5.54207 16.2244C5.69127 15.4745 6.05951 14.7857 6.60023 14.2451L10.5887 10.2574C11.3137 9.53236 12.297 9.12504 13.3222 9.125C14.3475 9.12496 15.3308 9.53222 16.0558 10.2572C16.7808 10.9821 17.1881 11.9654 17.1882 12.9907C17.1882 14.0159 16.781 14.9992 16.056 15.7242L15.6245 16.156L14.5184 15.0521L14.9541 14.6163C15.3844 14.1839 15.6256 13.5985 15.6251 12.9886C15.6245 12.3786 15.3821 11.7937 14.9511 11.3621C14.5122 10.9433 13.9288 10.7096 13.3222 10.7096C12.7155 10.7096 12.1322 10.9433 11.6933 11.3621L7.70523 15.3496C7.49129 15.5635 7.32159 15.8174 7.2058 16.0968C7.09002 16.3762 7.03042 16.6757 7.03042 16.9782C7.03042 17.2807 7.09002 17.5802 7.2058 17.8597C7.32159 18.1391 7.49129 18.393 7.70523 18.6068C8.14411 19.0257 8.72746 19.2593 9.33413 19.2593C9.9408 19.2593 10.5242 19.0257 10.963 18.6068L12.068 19.7119C11.7097 20.072 11.2836 20.3574 10.8143 20.5517C10.345 20.746 9.84183 20.8453 9.3339 20.8439Z" fill="black"/>
<path d="M15.5839 19.283C14.8193 19.2831 14.0718 19.0565 13.436 18.6318C12.8003 18.2071 12.3047 17.6034 12.0121 16.897C11.7194 16.1906 11.6429 15.4133 11.7921 14.6634C11.9413 13.9135 12.3095 13.2247 12.8502 12.6841L13.2819 12.2524L14.3869 13.3576L13.9551 13.789C13.7413 14.0029 13.5716 14.2568 13.4559 14.5362C13.3401 14.8156 13.2805 15.1151 13.2805 15.4175C13.2805 15.72 13.3401 16.0194 13.4559 16.2989C13.5716 16.5783 13.7413 16.8322 13.9551 17.046C14.394 17.4648 14.9774 17.6985 15.5841 17.6985C16.1907 17.6985 16.7741 17.4648 17.213 17.046C17.4161 16.8429 20.9077 13.3512 21.2015 13.0581C21.6327 12.6259 21.8749 12.0403 21.8749 11.4297C21.8749 10.8191 21.6327 10.2335 21.2015 9.80131C20.7626 9.38247 20.1792 9.14878 19.5726 9.14878C18.9659 9.14878 18.3825 9.38247 17.9437 9.80131L16.8387 8.69623C17.5639 7.97233 18.5469 7.56596 19.5716 7.56641C20.5962 7.56686 21.5788 7.97409 22.3034 8.69863C23.0279 9.42317 23.4352 10.4057 23.4357 11.4304C23.4362 12.4551 23.0299 13.438 22.306 14.1633C22.0119 14.457 18.5216 17.9467 18.3187 18.1504C17.9603 18.5106 17.5341 18.7961 17.0647 18.9905C16.5953 19.1849 16.092 19.2843 15.5839 19.283Z" fill="black"/>
</g>
<defs>
<clipPath id="clip0_528_4017">
<rect width="25" height="25" fill="white" transform="translate(0 6)"/>
</clipPath>
</defs>
</svg>
