<svg width="20" height="31" viewBox="0 0 20 31" fill="none" xmlns="http://www.w3.org/2000/svg">
<circle cx="10" cy="10" r="10" fill="white"/>
<path d="M9.26552 14.5822C9.06513 14.5822 8.87529 14.4978 8.7417 14.3502L5.08193 10.272C4.82177 9.98377 4.84638 9.53728 5.13466 9.28064C5.42295 9.02048 5.86943 9.04509 6.12607 9.33337L9.17763 12.7365L13.8042 5.73689C14.0187 5.41345 14.4546 5.32556 14.778 5.5365C15.1015 5.75095 15.1894 6.18689 14.9784 6.51033L9.85263 14.2693C9.7331 14.4521 9.53623 14.5681 9.31826 14.5822C9.30068 14.5822 9.2831 14.5822 9.26552 14.5822Z" fill="black"/>
<rect x="9" y="24" width="1" height="7" rx="0.5" fill="white"/>
</svg>
