<svg width="44" height="26" viewBox="0 0 44 26" fill="none" xmlns="http://www.w3.org/2000/svg">
<rect width="44" height="26" rx="5" fill="#F1F1F1"/>
<path d="M15.5469 16.7734V18H9.52344V16.7734H15.5469ZM9.82812 6.625V18H8.32031V6.625H9.82812ZM14.75 11.5156V12.7422H9.52344V11.5156H14.75ZM15.4688 6.625V7.85938H9.52344V6.625H15.4688ZM21.6094 13.5391H18.5703V12.3125H21.6094C22.1979 12.3125 22.6745 12.2188 23.0391 12.0312C23.4036 11.8438 23.6693 11.5833 23.8359 11.25C24.0078 10.9167 24.0938 10.5365 24.0938 10.1094C24.0938 9.71875 24.0078 9.35156 23.8359 9.00781C23.6693 8.66406 23.4036 8.38802 23.0391 8.17969C22.6745 7.96615 22.1979 7.85938 21.6094 7.85938H18.9219V18H17.4141V6.625H21.6094C22.4688 6.625 23.1953 6.77344 23.7891 7.07031C24.3828 7.36719 24.8333 7.77865 25.1406 8.30469C25.4479 8.82552 25.6016 9.42188 25.6016 10.0938C25.6016 10.8229 25.4479 11.4453 25.1406 11.9609C24.8333 12.4766 24.3828 12.8698 23.7891 13.1406C23.1953 13.4062 22.4688 13.5391 21.6094 13.5391ZM34.375 14.3828H35.875C35.7969 15.1016 35.5911 15.7448 35.2578 16.3125C34.9245 16.8802 34.4531 17.3307 33.8438 17.6641C33.2344 17.9922 32.474 18.1562 31.5625 18.1562C30.8958 18.1562 30.2891 18.0312 29.7422 17.7812C29.2005 17.5312 28.7344 17.1771 28.3438 16.7188C27.9531 16.2552 27.651 15.7005 27.4375 15.0547C27.2292 14.4036 27.125 13.6797 27.125 12.8828V11.75C27.125 10.9531 27.2292 10.2318 27.4375 9.58594C27.651 8.9349 27.9557 8.3776 28.3516 7.91406C28.7526 7.45052 29.2344 7.09375 29.7969 6.84375C30.3594 6.59375 30.9922 6.46875 31.6953 6.46875C32.5547 6.46875 33.2812 6.63021 33.875 6.95312C34.4688 7.27604 34.9297 7.72396 35.2578 8.29688C35.5911 8.86458 35.7969 9.52344 35.875 10.2734H34.375C34.3021 9.74219 34.1667 9.28646 33.9688 8.90625C33.7708 8.52083 33.4896 8.22396 33.125 8.01562C32.7604 7.80729 32.2839 7.70312 31.6953 7.70312C31.1901 7.70312 30.7448 7.79948 30.3594 7.99219C29.9792 8.1849 29.6589 8.45833 29.3984 8.8125C29.1432 9.16667 28.9505 9.59115 28.8203 10.0859C28.6901 10.5807 28.625 11.1302 28.625 11.7344V12.8828C28.625 13.4401 28.6823 13.9635 28.7969 14.4531C28.9167 14.9427 29.0964 15.3724 29.3359 15.7422C29.5755 16.112 29.8802 16.4036 30.25 16.6172C30.6198 16.8255 31.0573 16.9297 31.5625 16.9297C32.2031 16.9297 32.7135 16.8281 33.0938 16.625C33.474 16.4219 33.7604 16.1302 33.9531 15.75C34.151 15.3698 34.2917 14.9141 34.375 14.3828Z" fill="black"/>
</svg>
