<svg width="134" height="38" viewBox="0 0 134 38" fill="none" xmlns="http://www.w3.org/2000/svg">
<g clip-path="url(#clip0_528_4787)">
<path d="M6.51642 26.4061V18.3124H9.32385C11.2669 18.3124 12.7593 18.2235 13.801 18.0159C14.5471 17.8306 15.3007 17.5045 16.0174 16.9931C16.7635 16.4817 17.362 15.7627 17.8348 14.8659C18.315 13.9691 18.5514 12.8573 18.5514 11.538C18.5514 9.83323 18.1377 8.45463 17.3324 7.3725C16.4902 6.29036 15.478 5.57141 14.2516 5.27494C13.4463 5.06741 11.7397 4.94141 9.1096 4.94141H2.17969V26.4061H6.51642ZM8.60722 8.57322C10.1291 8.57322 11.1708 8.63251 11.6806 8.72145C12.3972 8.84004 12.9661 9.17358 13.4168 9.67758C13.8601 10.189 14.1039 10.819 14.1039 11.6269C14.1039 12.2569 13.9561 12.798 13.6236 13.2797C13.2986 13.7541 12.8479 14.1173 12.279 14.3545C11.7102 14.5694 10.5798 14.688 8.87319 14.688H6.51642V8.57322H8.60722Z" fill="white"/>
<path d="M30.594 4.94141H26.0209L17.7168 26.4061H22.2899L24.0778 21.5217H32.6553L34.5096 26.4061H39.1715L30.594 4.94141ZM25.3929 17.8973L28.2964 9.95182L31.2516 17.8973H25.3929Z" fill="white"/>
<path d="M48.7055 26.4061V17.4156L56.5589 4.94141H51.572L46.6443 13.4576L41.5909 4.94141H36.5449L44.3688 17.3859V26.4061H48.7055Z" fill="white"/>
<path d="M74.9039 26.4061V22.7817H62.9871V16.9634H73.6775V13.339H62.9871V8.57322H74.4902V4.94141H58.6504V26.4061H74.9039Z" fill="#58B1DC"/>
<path d="M94.8317 26.4061V22.7817H82.9149V16.9634H93.6053V13.339H82.9149V8.57322H94.4179V4.94141H78.5781V26.4061H94.8317Z" fill="#58B1DC"/>
<path d="M102.843 26.4061V17.4452H103.707C104.719 17.4452 105.436 17.5342 105.886 17.6824C106.367 17.8306 106.78 18.1345 107.201 18.5866C107.623 19.0017 108.369 20.0542 109.499 21.7293L112.58 26.4061H117.752L115.151 22.211C114.102 20.5582 113.297 19.3945 112.698 18.7349C112.07 18.0752 111.324 17.4749 110.4 16.9338C112.247 16.667 113.659 16.0073 114.612 14.9548C115.535 13.9098 116.015 12.5608 116.015 10.9672C116.015 9.67758 115.72 8.57322 115.092 7.58003C114.464 6.59425 113.622 5.90495 112.58 5.51212C111.56 5.1267 109.891 4.94141 107.593 4.94141H98.5059V26.4061H102.843ZM102.843 8.57322H106.219C107.948 8.57322 109.026 8.60286 109.351 8.63251C110.068 8.7511 110.607 9.05499 110.999 9.4997C111.383 9.92218 111.56 10.5225 111.56 11.2415C111.56 11.9011 111.413 12.4348 111.117 12.8573C110.844 13.2797 110.43 13.5762 109.92 13.7541C109.41 13.9394 108.095 14.0283 106.034 14.0283H102.843V8.57322Z" fill="#58B1DC"/>
<path d="M125.571 19.1119C125.571 18.6357 125.425 18.3133 125.137 18.152C124.845 17.989 124.382 17.9075 123.743 17.9075H122.758V20.2811H123.798C124.287 20.2811 124.653 20.2329 124.897 20.1347C125.346 19.9568 125.571 19.6159 125.571 19.1119ZM123.892 17.1199C124.703 17.1199 125.298 17.1978 125.676 17.3553C126.352 17.6369 126.69 18.191 126.69 19.0174C126.69 19.6011 126.476 20.0347 126.053 20.3107C125.828 20.4571 125.512 20.5609 125.108 20.6258C125.619 20.7073 125.992 20.9222 126.229 21.2706C126.465 21.6152 126.585 21.9543 126.585 22.286V22.7622C126.585 22.916 126.589 23.0791 126.6 23.2514C126.611 23.4237 126.631 23.5368 126.657 23.5923L126.698 23.6739H125.619C125.614 23.6516 125.61 23.6294 125.603 23.609C125.597 23.5868 125.593 23.5627 125.588 23.5331L125.564 23.3237V22.8048C125.564 22.0507 125.357 21.5504 124.947 21.3076C124.703 21.1668 124.276 21.0946 123.665 21.0946H122.758V23.6739H121.608V17.1199H123.892ZM124.007 15.2744C122.596 15.2744 121.391 15.7784 120.392 16.7864C119.399 17.7907 118.902 19.0007 118.902 20.4219C118.902 21.8524 119.395 23.0717 120.385 24.0815C121.378 25.0877 122.585 25.5917 124.007 25.5917C125.429 25.5917 126.633 25.0877 127.629 24.0815C128.624 23.0717 129.121 21.8524 129.121 20.4219C129.121 19.0007 128.624 17.7907 127.629 16.7864C126.631 15.7784 125.422 15.2744 124.007 15.2744ZM129.963 20.4127C129.963 22.0674 129.383 23.4793 128.222 24.6504C127.06 25.8196 125.654 26.407 124.007 26.407C122.357 26.407 120.957 25.8196 119.801 24.6504C118.65 23.483 118.074 22.0711 118.074 20.4127C118.074 18.7691 118.656 17.3664 119.816 16.2009C120.974 15.0409 122.37 14.4609 124.007 14.4609C125.654 14.4609 127.06 15.0409 128.222 16.2009C129.383 17.3608 129.963 18.7654 129.963 20.4127Z" fill="white"/>
</g>
<defs>
<clipPath id="clip0_528_4787">
<rect width="134" height="37" fill="white" transform="translate(0 0.691406)"/>
</clipPath>
</defs>
</svg>
