<svg width="930" height="328" viewBox="0 0 930 328" fill="none" xmlns="http://www.w3.org/2000/svg">
<path d="M26.5 6V266" stroke="#F0F0F0"/>
<path d="M251.5 6V266" stroke="#F0F0F0"/>
<path d="M476.5 6V266" stroke="#F0F0F0"/>
<path d="M700.5 6V266" stroke="#F0F0F0"/>
<path d="M926.5 6V266" stroke="#F0F0F0"/>
<path d="M27 266.5H926" stroke="#F0F0F0"/>
<path d="M27 201.5H926" stroke="#F0F0F0"/>
<path d="M27 136.5H926" stroke="#F0F0F0"/>
<path d="M27 71.5H926" stroke="#F0F0F0"/>
<path d="M27 5.5H926" stroke="#F0F0F0"/>
<path d="M27 266.5H926" stroke="#F0F0F0"/>
<path d="M26.5 6V266" stroke="#F0F0F0"/>
<path d="M20.4453 275.891V283H19.5176V275.891H20.4453ZM22.7305 275.891V276.662H17.2373V275.891H22.7305ZM25.3525 283.098C24.9847 283.098 24.651 283.036 24.3516 282.912C24.0553 282.785 23.7998 282.608 23.585 282.38C23.3734 282.152 23.2106 281.882 23.0967 281.569C22.9827 281.257 22.9258 280.915 22.9258 280.544V280.339C22.9258 279.909 22.9893 279.527 23.1162 279.191C23.2432 278.853 23.4157 278.566 23.6338 278.332C23.8519 278.098 24.0993 277.92 24.376 277.8C24.6527 277.679 24.9391 277.619 25.2354 277.619C25.613 277.619 25.9385 277.684 26.2119 277.814C26.4886 277.945 26.7148 278.127 26.8906 278.361C27.0664 278.592 27.1966 278.866 27.2812 279.182C27.3659 279.494 27.4082 279.836 27.4082 280.207V280.612H23.4629V279.875H26.5049V279.807C26.4919 279.572 26.443 279.344 26.3584 279.123C26.277 278.902 26.1468 278.719 25.9678 278.576C25.7887 278.433 25.5446 278.361 25.2354 278.361C25.0303 278.361 24.8415 278.405 24.6689 278.493C24.4964 278.578 24.3483 278.705 24.2246 278.874C24.1009 279.043 24.0049 279.25 23.9365 279.494C23.8682 279.738 23.834 280.02 23.834 280.339V280.544C23.834 280.795 23.8682 281.031 23.9365 281.252C24.0081 281.47 24.1107 281.662 24.2441 281.828C24.3809 281.994 24.5452 282.124 24.7373 282.219C24.9326 282.313 25.154 282.36 25.4014 282.36C25.7204 282.36 25.9906 282.295 26.2119 282.165C26.4333 282.035 26.627 281.861 26.793 281.643L27.3398 282.077C27.2259 282.25 27.0811 282.414 26.9053 282.57C26.7295 282.727 26.513 282.854 26.2559 282.951C26.002 283.049 25.7008 283.098 25.3525 283.098ZM29.0732 277.717L30.2305 279.641L31.4023 277.717H32.4619L30.7334 280.324L32.5156 283H31.4707L30.25 281.018L29.0293 283H27.9795L29.7568 280.324L28.0332 277.717H29.0732ZM35.6357 277.717V278.41H32.7793V277.717H35.6357ZM33.7461 276.433H34.6494V281.691C34.6494 281.87 34.6771 282.006 34.7324 282.097C34.7878 282.188 34.8594 282.248 34.9473 282.277C35.0352 282.307 35.1296 282.321 35.2305 282.321C35.3053 282.321 35.3835 282.315 35.4648 282.302C35.5495 282.285 35.613 282.272 35.6553 282.263L35.6602 283C35.5885 283.023 35.4941 283.044 35.377 283.063C35.263 283.086 35.1247 283.098 34.9619 283.098C34.7406 283.098 34.5371 283.054 34.3516 282.966C34.166 282.878 34.0179 282.731 33.9072 282.526C33.7998 282.318 33.7461 282.038 33.7461 281.687V276.433Z" fill="#A3A3A3"/>
<path d="M245.195 275.891V283H244.268V275.891H245.195ZM247.48 275.891V276.662H241.987V275.891H247.48ZM250.103 283.098C249.735 283.098 249.401 283.036 249.102 282.912C248.805 282.785 248.55 282.608 248.335 282.38C248.123 282.152 247.961 281.882 247.847 281.569C247.733 281.257 247.676 280.915 247.676 280.544V280.339C247.676 279.909 247.739 279.527 247.866 279.191C247.993 278.853 248.166 278.566 248.384 278.332C248.602 278.098 248.849 277.92 249.126 277.8C249.403 277.679 249.689 277.619 249.985 277.619C250.363 277.619 250.688 277.684 250.962 277.814C251.239 277.945 251.465 278.127 251.641 278.361C251.816 278.592 251.947 278.866 252.031 279.182C252.116 279.494 252.158 279.836 252.158 280.207V280.612H248.213V279.875H251.255V279.807C251.242 279.572 251.193 279.344 251.108 279.123C251.027 278.902 250.897 278.719 250.718 278.576C250.539 278.433 250.295 278.361 249.985 278.361C249.78 278.361 249.591 278.405 249.419 278.493C249.246 278.578 249.098 278.705 248.975 278.874C248.851 279.043 248.755 279.25 248.687 279.494C248.618 279.738 248.584 280.02 248.584 280.339V280.544C248.584 280.795 248.618 281.031 248.687 281.252C248.758 281.47 248.861 281.662 248.994 281.828C249.131 281.994 249.295 282.124 249.487 282.219C249.683 282.313 249.904 282.36 250.151 282.36C250.47 282.36 250.741 282.295 250.962 282.165C251.183 282.035 251.377 281.861 251.543 281.643L252.09 282.077C251.976 282.25 251.831 282.414 251.655 282.57C251.479 282.727 251.263 282.854 251.006 282.951C250.752 283.049 250.451 283.098 250.103 283.098ZM253.823 277.717L254.98 279.641L256.152 277.717H257.212L255.483 280.324L257.266 283H256.221L255 281.018L253.779 283H252.729L254.507 280.324L252.783 277.717H253.823ZM260.386 277.717V278.41H257.529V277.717H260.386ZM258.496 276.433H259.399V281.691C259.399 281.87 259.427 282.006 259.482 282.097C259.538 282.188 259.609 282.248 259.697 282.277C259.785 282.307 259.88 282.321 259.98 282.321C260.055 282.321 260.133 282.315 260.215 282.302C260.299 282.285 260.363 282.272 260.405 282.263L260.41 283C260.339 283.023 260.244 283.044 260.127 283.063C260.013 283.086 259.875 283.098 259.712 283.098C259.491 283.098 259.287 283.054 259.102 282.966C258.916 282.878 258.768 282.731 258.657 282.526C258.55 282.318 258.496 282.038 258.496 281.687V276.433Z" fill="#A3A3A3"/>
<path d="M469.945 275.891V283H469.018V275.891H469.945ZM472.23 275.891V276.662H466.737V275.891H472.23ZM474.853 283.098C474.485 283.098 474.151 283.036 473.852 282.912C473.555 282.785 473.3 282.608 473.085 282.38C472.873 282.152 472.711 281.882 472.597 281.569C472.483 281.257 472.426 280.915 472.426 280.544V280.339C472.426 279.909 472.489 279.527 472.616 279.191C472.743 278.853 472.916 278.566 473.134 278.332C473.352 278.098 473.599 277.92 473.876 277.8C474.153 277.679 474.439 277.619 474.735 277.619C475.113 277.619 475.438 277.684 475.712 277.814C475.989 277.945 476.215 278.127 476.391 278.361C476.566 278.592 476.697 278.866 476.781 279.182C476.866 279.494 476.908 279.836 476.908 280.207V280.612H472.963V279.875H476.005V279.807C475.992 279.572 475.943 279.344 475.858 279.123C475.777 278.902 475.647 278.719 475.468 278.576C475.289 278.433 475.045 278.361 474.735 278.361C474.53 278.361 474.341 278.405 474.169 278.493C473.996 278.578 473.848 278.705 473.725 278.874C473.601 279.043 473.505 279.25 473.437 279.494C473.368 279.738 473.334 280.02 473.334 280.339V280.544C473.334 280.795 473.368 281.031 473.437 281.252C473.508 281.47 473.611 281.662 473.744 281.828C473.881 281.994 474.045 282.124 474.237 282.219C474.433 282.313 474.654 282.36 474.901 282.36C475.22 282.36 475.491 282.295 475.712 282.165C475.933 282.035 476.127 281.861 476.293 281.643L476.84 282.077C476.726 282.25 476.581 282.414 476.405 282.57C476.229 282.727 476.013 282.854 475.756 282.951C475.502 283.049 475.201 283.098 474.853 283.098ZM478.573 277.717L479.73 279.641L480.902 277.717H481.962L480.233 280.324L482.016 283H480.971L479.75 281.018L478.529 283H477.479L479.257 280.324L477.533 277.717H478.573ZM485.136 277.717V278.41H482.279V277.717H485.136ZM483.246 276.433H484.149V281.691C484.149 281.87 484.177 282.006 484.232 282.097C484.288 282.188 484.359 282.248 484.447 282.277C484.535 282.307 484.63 282.321 484.73 282.321C484.805 282.321 484.883 282.315 484.965 282.302C485.049 282.285 485.113 282.272 485.155 282.263L485.16 283C485.089 283.023 484.994 283.044 484.877 283.063C484.763 283.086 484.625 283.098 484.462 283.098C484.241 283.098 484.037 283.054 483.852 282.966C483.666 282.878 483.518 282.731 483.407 282.526C483.3 282.318 483.246 282.038 483.246 281.687V276.433Z" fill="#A3A3A3"/>
<path d="M694.695 275.891V283H693.768V275.891H694.695ZM696.98 275.891V276.662H691.487V275.891H696.98ZM699.603 283.098C699.235 283.098 698.901 283.036 698.602 282.912C698.305 282.785 698.05 282.608 697.835 282.38C697.623 282.152 697.461 281.882 697.347 281.569C697.233 281.257 697.176 280.915 697.176 280.544V280.339C697.176 279.909 697.239 279.527 697.366 279.191C697.493 278.853 697.666 278.566 697.884 278.332C698.102 278.098 698.349 277.92 698.626 277.8C698.903 277.679 699.189 277.619 699.485 277.619C699.863 277.619 700.188 277.684 700.462 277.814C700.739 277.945 700.965 278.127 701.141 278.361C701.316 278.592 701.447 278.866 701.531 279.182C701.616 279.494 701.658 279.836 701.658 280.207V280.612H697.713V279.875H700.755V279.807C700.742 279.572 700.693 279.344 700.608 279.123C700.527 278.902 700.397 278.719 700.218 278.576C700.039 278.433 699.795 278.361 699.485 278.361C699.28 278.361 699.091 278.405 698.919 278.493C698.746 278.578 698.598 278.705 698.475 278.874C698.351 279.043 698.255 279.25 698.187 279.494C698.118 279.738 698.084 280.02 698.084 280.339V280.544C698.084 280.795 698.118 281.031 698.187 281.252C698.258 281.47 698.361 281.662 698.494 281.828C698.631 281.994 698.795 282.124 698.987 282.219C699.183 282.313 699.404 282.36 699.651 282.36C699.97 282.36 700.241 282.295 700.462 282.165C700.683 282.035 700.877 281.861 701.043 281.643L701.59 282.077C701.476 282.25 701.331 282.414 701.155 282.57C700.979 282.727 700.763 282.854 700.506 282.951C700.252 283.049 699.951 283.098 699.603 283.098ZM703.323 277.717L704.48 279.641L705.652 277.717H706.712L704.983 280.324L706.766 283H705.721L704.5 281.018L703.279 283H702.229L704.007 280.324L702.283 277.717H703.323ZM709.886 277.717V278.41H707.029V277.717H709.886ZM707.996 276.433H708.899V281.691C708.899 281.87 708.927 282.006 708.982 282.097C709.038 282.188 709.109 282.248 709.197 282.277C709.285 282.307 709.38 282.321 709.48 282.321C709.555 282.321 709.633 282.315 709.715 282.302C709.799 282.285 709.863 282.272 709.905 282.263L709.91 283C709.839 283.023 709.744 283.044 709.627 283.063C709.513 283.086 709.375 283.098 709.212 283.098C708.991 283.098 708.787 283.054 708.602 282.966C708.416 282.878 708.268 282.731 708.157 282.526C708.05 282.318 707.996 282.038 707.996 281.687V276.433Z" fill="#A3A3A3"/>
<path d="M910.273 275.891V283H909.346V275.891H910.273ZM912.559 275.891V276.662H907.065V275.891H912.559ZM915.181 283.098C914.813 283.098 914.479 283.036 914.18 282.912C913.883 282.785 913.628 282.608 913.413 282.38C913.201 282.152 913.039 281.882 912.925 281.569C912.811 281.257 912.754 280.915 912.754 280.544V280.339C912.754 279.909 912.817 279.527 912.944 279.191C913.071 278.853 913.244 278.566 913.462 278.332C913.68 278.098 913.927 277.92 914.204 277.8C914.481 277.679 914.767 277.619 915.063 277.619C915.441 277.619 915.767 277.684 916.04 277.814C916.317 277.945 916.543 278.127 916.719 278.361C916.895 278.592 917.025 278.866 917.109 279.182C917.194 279.494 917.236 279.836 917.236 280.207V280.612H913.291V279.875H916.333V279.807C916.32 279.572 916.271 279.344 916.187 279.123C916.105 278.902 915.975 278.719 915.796 278.576C915.617 278.433 915.373 278.361 915.063 278.361C914.858 278.361 914.67 278.405 914.497 278.493C914.325 278.578 914.176 278.705 914.053 278.874C913.929 279.043 913.833 279.25 913.765 279.494C913.696 279.738 913.662 280.02 913.662 280.339V280.544C913.662 280.795 913.696 281.031 913.765 281.252C913.836 281.47 913.939 281.662 914.072 281.828C914.209 281.994 914.373 282.124 914.565 282.219C914.761 282.313 914.982 282.36 915.229 282.36C915.549 282.36 915.819 282.295 916.04 282.165C916.261 282.035 916.455 281.861 916.621 281.643L917.168 282.077C917.054 282.25 916.909 282.414 916.733 282.57C916.558 282.727 916.341 282.854 916.084 282.951C915.83 283.049 915.529 283.098 915.181 283.098ZM918.901 277.717L920.059 279.641L921.23 277.717H922.29L920.562 280.324L922.344 283H921.299L920.078 281.018L918.857 283H917.808L919.585 280.324L917.861 277.717H918.901ZM925.464 277.717V278.41H922.607V277.717H925.464ZM923.574 276.433H924.478V281.691C924.478 281.87 924.505 282.006 924.561 282.097C924.616 282.188 924.688 282.248 924.775 282.277C924.863 282.307 924.958 282.321 925.059 282.321C925.133 282.321 925.212 282.315 925.293 282.302C925.378 282.285 925.441 282.272 925.483 282.263L925.488 283C925.417 283.023 925.322 283.044 925.205 283.063C925.091 283.086 924.953 283.098 924.79 283.098C924.569 283.098 924.365 283.054 924.18 282.966C923.994 282.878 923.846 282.731 923.735 282.526C923.628 282.318 923.574 282.038 923.574 281.687V276.433Z" fill="#A3A3A3"/>
<path d="M16.4287 264.879V265.963C16.4287 266.546 16.3766 267.037 16.2725 267.438C16.1683 267.838 16.0186 268.16 15.8232 268.404C15.6279 268.648 15.3919 268.826 15.1152 268.937C14.8418 269.044 14.5326 269.098 14.1875 269.098C13.9141 269.098 13.6618 269.063 13.4307 268.995C13.1995 268.927 12.9912 268.818 12.8057 268.668C12.6234 268.515 12.4671 268.316 12.3369 268.072C12.2067 267.828 12.1074 267.532 12.0391 267.184C11.9707 266.835 11.9365 266.428 11.9365 265.963V264.879C11.9365 264.296 11.9886 263.808 12.0928 263.414C12.2002 263.02 12.3516 262.704 12.5469 262.467C12.7422 262.226 12.9766 262.053 13.25 261.949C13.5267 261.845 13.8359 261.793 14.1777 261.793C14.4544 261.793 14.7083 261.827 14.9395 261.896C15.1738 261.961 15.3822 262.066 15.5645 262.213C15.7467 262.356 15.9014 262.548 16.0283 262.789C16.1585 263.027 16.2578 263.318 16.3262 263.663C16.3945 264.008 16.4287 264.413 16.4287 264.879ZM15.5205 266.109V264.728C15.5205 264.409 15.501 264.129 15.4619 263.888C15.4261 263.644 15.3724 263.435 15.3008 263.263C15.2292 263.09 15.138 262.95 15.0273 262.843C14.9199 262.735 14.7946 262.657 14.6514 262.608C14.5114 262.556 14.3535 262.53 14.1777 262.53C13.9629 262.53 13.7725 262.571 13.6064 262.652C13.4404 262.73 13.3005 262.856 13.1865 263.028C13.0758 263.201 12.9912 263.427 12.9326 263.707C12.874 263.987 12.8447 264.327 12.8447 264.728V266.109C12.8447 266.428 12.8626 266.71 12.8984 266.954C12.9375 267.198 12.9945 267.41 13.0693 267.589C13.1442 267.765 13.2354 267.91 13.3428 268.023C13.4502 268.137 13.5739 268.222 13.7139 268.277C13.8571 268.329 14.015 268.355 14.1875 268.355C14.4089 268.355 14.6025 268.313 14.7686 268.229C14.9346 268.144 15.0729 268.012 15.1836 267.833C15.2975 267.651 15.3822 267.418 15.4375 267.135C15.4928 266.848 15.5205 266.507 15.5205 266.109Z" fill="#A3A3A3"/>
<path d="M10.999 203.258V204H6.3457V203.351L8.6748 200.758C8.96126 200.439 9.18262 200.169 9.33887 199.947C9.49837 199.723 9.60905 199.522 9.6709 199.347C9.736 199.168 9.76855 198.985 9.76855 198.8C9.76855 198.565 9.71973 198.354 9.62207 198.165C9.52767 197.973 9.3877 197.82 9.20215 197.706C9.0166 197.592 8.79199 197.535 8.52832 197.535C8.21257 197.535 7.94889 197.597 7.7373 197.721C7.52897 197.841 7.37272 198.01 7.26855 198.229C7.16439 198.447 7.1123 198.697 7.1123 198.98H6.20898C6.20898 198.58 6.29688 198.214 6.47266 197.882C6.64844 197.55 6.90885 197.286 7.25391 197.091C7.59896 196.892 8.02376 196.793 8.52832 196.793C8.97754 196.793 9.36165 196.873 9.68066 197.032C9.99967 197.188 10.2438 197.41 10.4131 197.696C10.5856 197.979 10.6719 198.312 10.6719 198.692C10.6719 198.901 10.6361 199.112 10.5645 199.327C10.4961 199.539 10.4001 199.75 10.2764 199.962C10.1559 200.174 10.0143 200.382 9.85156 200.587C9.69206 200.792 9.52116 200.994 9.33887 201.192L7.43457 203.258H10.999ZM13.1084 200.616L12.3857 200.431L12.7422 196.891H16.3896V197.726H13.5088L13.2939 199.659C13.4242 199.584 13.5885 199.514 13.7871 199.449C13.9889 199.384 14.2201 199.352 14.4805 199.352C14.8092 199.352 15.1038 199.409 15.3643 199.522C15.6247 199.633 15.846 199.793 16.0283 200.001C16.2139 200.209 16.3555 200.46 16.4531 200.753C16.5508 201.046 16.5996 201.373 16.5996 201.734C16.5996 202.076 16.5524 202.39 16.458 202.677C16.3669 202.963 16.2285 203.214 16.043 203.429C15.8574 203.64 15.623 203.805 15.3398 203.922C15.0599 204.039 14.7295 204.098 14.3486 204.098C14.0622 204.098 13.7904 204.059 13.5332 203.98C13.2793 203.899 13.0514 203.777 12.8496 203.614C12.651 203.448 12.4883 203.243 12.3613 202.999C12.2376 202.752 12.1595 202.462 12.127 202.13H12.9863C13.0254 202.397 13.1035 202.621 13.2207 202.804C13.3379 202.986 13.4909 203.124 13.6797 203.219C13.8717 203.31 14.0947 203.355 14.3486 203.355C14.5635 203.355 14.7539 203.318 14.9199 203.243C15.0859 203.168 15.2259 203.061 15.3398 202.921C15.4538 202.781 15.54 202.612 15.5986 202.413C15.6605 202.215 15.6914 201.992 15.6914 201.744C15.6914 201.52 15.6605 201.311 15.5986 201.119C15.5368 200.927 15.444 200.759 15.3203 200.616C15.1999 200.473 15.0518 200.362 14.876 200.284C14.7002 200.203 14.4984 200.162 14.2705 200.162C13.9678 200.162 13.7383 200.203 13.582 200.284C13.429 200.366 13.2712 200.476 13.1084 200.616Z" fill="#A3A3A3"/>
<path d="M7.4834 135.616L6.76074 135.431L7.11719 131.891H10.7646V132.726H7.88379L7.66895 134.659C7.79915 134.584 7.96354 134.514 8.16211 134.449C8.36393 134.384 8.59505 134.352 8.85547 134.352C9.18424 134.352 9.47884 134.409 9.73926 134.522C9.99967 134.633 10.221 134.793 10.4033 135.001C10.5889 135.209 10.7305 135.46 10.8281 135.753C10.9258 136.046 10.9746 136.373 10.9746 136.734C10.9746 137.076 10.9274 137.39 10.833 137.677C10.7419 137.963 10.6035 138.214 10.418 138.429C10.2324 138.64 9.99805 138.805 9.71484 138.922C9.4349 139.039 9.10449 139.098 8.72363 139.098C8.43717 139.098 8.16536 139.059 7.9082 138.98C7.6543 138.899 7.42643 138.777 7.22461 138.614C7.02604 138.448 6.86328 138.243 6.73633 137.999C6.61263 137.752 6.53451 137.462 6.50195 137.13H7.36133C7.40039 137.397 7.47852 137.621 7.5957 137.804C7.71289 137.986 7.86589 138.124 8.05469 138.219C8.24674 138.31 8.46973 138.355 8.72363 138.355C8.93848 138.355 9.12891 138.318 9.29492 138.243C9.46094 138.168 9.60091 138.061 9.71484 137.921C9.82878 137.781 9.91504 137.612 9.97363 137.413C10.0355 137.215 10.0664 136.992 10.0664 136.744C10.0664 136.52 10.0355 136.311 9.97363 136.119C9.91178 135.927 9.81901 135.759 9.69531 135.616C9.57487 135.473 9.42676 135.362 9.25098 135.284C9.0752 135.203 8.87337 135.162 8.64551 135.162C8.34277 135.162 8.11328 135.203 7.95703 135.284C7.80404 135.366 7.64616 135.476 7.4834 135.616ZM16.4287 134.879V135.963C16.4287 136.546 16.3766 137.037 16.2725 137.438C16.1683 137.838 16.0186 138.16 15.8232 138.404C15.6279 138.648 15.3919 138.826 15.1152 138.937C14.8418 139.044 14.5326 139.098 14.1875 139.098C13.9141 139.098 13.6618 139.063 13.4307 138.995C13.1995 138.927 12.9912 138.818 12.8057 138.668C12.6234 138.515 12.4671 138.316 12.3369 138.072C12.2067 137.828 12.1074 137.532 12.0391 137.184C11.9707 136.835 11.9365 136.428 11.9365 135.963V134.879C11.9365 134.296 11.9886 133.808 12.0928 133.414C12.2002 133.02 12.3516 132.704 12.5469 132.467C12.7422 132.226 12.9766 132.053 13.25 131.949C13.5267 131.845 13.8359 131.793 14.1777 131.793C14.4544 131.793 14.7083 131.827 14.9395 131.896C15.1738 131.961 15.3822 132.066 15.5645 132.213C15.7467 132.356 15.9014 132.548 16.0283 132.789C16.1585 133.027 16.2578 133.318 16.3262 133.663C16.3945 134.008 16.4287 134.413 16.4287 134.879ZM15.5205 136.109V134.728C15.5205 134.409 15.501 134.129 15.4619 133.888C15.4261 133.644 15.3724 133.435 15.3008 133.263C15.2292 133.09 15.138 132.95 15.0273 132.843C14.9199 132.735 14.7946 132.657 14.6514 132.608C14.5114 132.556 14.3535 132.53 14.1777 132.53C13.9629 132.53 13.7725 132.571 13.6064 132.652C13.4404 132.73 13.3005 132.856 13.1865 133.028C13.0758 133.201 12.9912 133.427 12.9326 133.707C12.874 133.987 12.8447 134.327 12.8447 134.728V136.109C12.8447 136.428 12.8626 136.71 12.8984 136.954C12.9375 137.198 12.9945 137.41 13.0693 137.589C13.1442 137.765 13.2354 137.91 13.3428 138.023C13.4502 138.137 13.5739 138.222 13.7139 138.277C13.8571 138.329 14.015 138.355 14.1875 138.355C14.4089 138.355 14.6025 138.313 14.7686 138.229C14.9346 138.144 15.0729 138.012 15.1836 137.833C15.2975 137.651 15.3822 137.418 15.4375 137.135C15.4928 136.848 15.5205 136.507 15.5205 136.109Z" fill="#A3A3A3"/>
<path d="M10.9355 66.8906V67.3984L7.99121 74H7.03906L9.97852 67.6328H6.13086V66.8906H10.9355ZM13.1084 70.6162L12.3857 70.4307L12.7422 66.8906H16.3896V67.7256H13.5088L13.2939 69.6592C13.4242 69.5843 13.5885 69.5143 13.7871 69.4492C13.9889 69.3841 14.2201 69.3516 14.4805 69.3516C14.8092 69.3516 15.1038 69.4085 15.3643 69.5225C15.6247 69.6331 15.846 69.7926 16.0283 70.001C16.2139 70.2093 16.3555 70.46 16.4531 70.7529C16.5508 71.0459 16.5996 71.373 16.5996 71.7344C16.5996 72.0762 16.5524 72.3903 16.458 72.6768C16.3669 72.9632 16.2285 73.2139 16.043 73.4287C15.8574 73.6403 15.623 73.8047 15.3398 73.9219C15.0599 74.0391 14.7295 74.0977 14.3486 74.0977C14.0622 74.0977 13.7904 74.0586 13.5332 73.9805C13.2793 73.8991 13.0514 73.777 12.8496 73.6143C12.651 73.4482 12.4883 73.2432 12.3613 72.999C12.2376 72.7516 12.1595 72.4619 12.127 72.1299H12.9863C13.0254 72.3968 13.1035 72.6214 13.2207 72.8037C13.3379 72.986 13.4909 73.1243 13.6797 73.2188C13.8717 73.3099 14.0947 73.3555 14.3486 73.3555C14.5635 73.3555 14.7539 73.318 14.9199 73.2432C15.0859 73.1683 15.2259 73.0609 15.3398 72.9209C15.4538 72.7809 15.54 72.6117 15.5986 72.4131C15.6605 72.2145 15.6914 71.9915 15.6914 71.7441C15.6914 71.5195 15.6605 71.3112 15.5986 71.1191C15.5368 70.9271 15.444 70.7594 15.3203 70.6162C15.1999 70.473 15.0518 70.3623 14.876 70.2842C14.7002 70.2028 14.4984 70.1621 14.2705 70.1621C13.9678 70.1621 13.7383 70.2028 13.582 70.2842C13.429 70.3656 13.2712 70.4762 13.1084 70.6162Z" fill="#A3A3A3"/>
<path d="M3.68457 1.85156V9H2.78125V2.97949L0.959961 3.64355V2.82812L3.54297 1.85156H3.68457ZM10.8037 4.87891V5.96289C10.8037 6.54557 10.7516 7.03711 10.6475 7.4375C10.5433 7.83789 10.3936 8.16016 10.1982 8.4043C10.0029 8.64844 9.76693 8.82585 9.49023 8.93652C9.2168 9.04395 8.90755 9.09766 8.5625 9.09766C8.28906 9.09766 8.03678 9.06348 7.80566 8.99512C7.57454 8.92676 7.36621 8.81771 7.18066 8.66797C6.99837 8.51497 6.84212 8.31641 6.71191 8.07227C6.58171 7.82812 6.48242 7.5319 6.41406 7.18359C6.3457 6.83529 6.31152 6.42839 6.31152 5.96289V4.87891C6.31152 4.29622 6.36361 3.80794 6.46777 3.41406C6.5752 3.02018 6.72656 2.70443 6.92188 2.4668C7.11719 2.22591 7.35156 2.05339 7.625 1.94922C7.90169 1.84505 8.21094 1.79297 8.55273 1.79297C8.82943 1.79297 9.08333 1.82715 9.31445 1.89551C9.54883 1.96061 9.75716 2.06641 9.93945 2.21289C10.1217 2.35612 10.2764 2.54818 10.4033 2.78906C10.5335 3.02669 10.6328 3.31803 10.7012 3.66309C10.7695 4.00814 10.8037 4.41341 10.8037 4.87891ZM9.89551 6.10938V4.72754C9.89551 4.40853 9.87598 4.12858 9.83691 3.8877C9.80111 3.64355 9.7474 3.43522 9.67578 3.2627C9.60417 3.09017 9.51302 2.9502 9.40234 2.84277C9.29492 2.73535 9.1696 2.65723 9.02637 2.6084C8.88639 2.55632 8.72852 2.53027 8.55273 2.53027C8.33789 2.53027 8.14746 2.57096 7.98145 2.65234C7.81543 2.73047 7.67546 2.85579 7.56152 3.02832C7.45085 3.20085 7.36621 3.42708 7.30762 3.70703C7.24902 3.98698 7.21973 4.32715 7.21973 4.72754V6.10938C7.21973 6.42839 7.23763 6.70996 7.27344 6.9541C7.3125 7.19824 7.36947 7.40983 7.44434 7.58887C7.51921 7.76465 7.61035 7.90951 7.71777 8.02344C7.8252 8.13737 7.94889 8.22201 8.08887 8.27734C8.2321 8.32943 8.38997 8.35547 8.5625 8.35547C8.78385 8.35547 8.97754 8.31315 9.14355 8.22852C9.30957 8.14388 9.44792 8.01204 9.55859 7.83301C9.67253 7.65072 9.75716 7.41797 9.8125 7.13477C9.86784 6.84831 9.89551 6.50651 9.89551 6.10938ZM16.4287 4.87891V5.96289C16.4287 6.54557 16.3766 7.03711 16.2725 7.4375C16.1683 7.83789 16.0186 8.16016 15.8232 8.4043C15.6279 8.64844 15.3919 8.82585 15.1152 8.93652C14.8418 9.04395 14.5326 9.09766 14.1875 9.09766C13.9141 9.09766 13.6618 9.06348 13.4307 8.99512C13.1995 8.92676 12.9912 8.81771 12.8057 8.66797C12.6234 8.51497 12.4671 8.31641 12.3369 8.07227C12.2067 7.82812 12.1074 7.5319 12.0391 7.18359C11.9707 6.83529 11.9365 6.42839 11.9365 5.96289V4.87891C11.9365 4.29622 11.9886 3.80794 12.0928 3.41406C12.2002 3.02018 12.3516 2.70443 12.5469 2.4668C12.7422 2.22591 12.9766 2.05339 13.25 1.94922C13.5267 1.84505 13.8359 1.79297 14.1777 1.79297C14.4544 1.79297 14.7083 1.82715 14.9395 1.89551C15.1738 1.96061 15.3822 2.06641 15.5645 2.21289C15.7467 2.35612 15.9014 2.54818 16.0283 2.78906C16.1585 3.02669 16.2578 3.31803 16.3262 3.66309C16.3945 4.00814 16.4287 4.41341 16.4287 4.87891ZM15.5205 6.10938V4.72754C15.5205 4.40853 15.501 4.12858 15.4619 3.8877C15.4261 3.64355 15.3724 3.43522 15.3008 3.2627C15.2292 3.09017 15.138 2.9502 15.0273 2.84277C14.9199 2.73535 14.7946 2.65723 14.6514 2.6084C14.5114 2.55632 14.3535 2.53027 14.1777 2.53027C13.9629 2.53027 13.7725 2.57096 13.6064 2.65234C13.4404 2.73047 13.3005 2.85579 13.1865 3.02832C13.0758 3.20085 12.9912 3.42708 12.9326 3.70703C12.874 3.98698 12.8447 4.32715 12.8447 4.72754V6.10938C12.8447 6.42839 12.8626 6.70996 12.8984 6.9541C12.9375 7.19824 12.9945 7.40983 13.0693 7.58887C13.1442 7.76465 13.2354 7.90951 13.3428 8.02344C13.4502 8.13737 13.5739 8.22201 13.7139 8.27734C13.8571 8.32943 14.015 8.35547 14.1875 8.35547C14.4089 8.35547 14.6025 8.31315 14.7686 8.22852C14.9346 8.14388 15.0729 8.01204 15.1836 7.83301C15.2975 7.65072 15.3822 7.41797 15.4375 7.13477C15.4928 6.84831 15.5205 6.50651 15.5205 6.10938Z" fill="#A3A3A3"/>
<path d="M27 112.602C27 112.602 161.85 237.402 251.75 237.402C341.65 237.402 386.6 55.4016 476.5 55.4016C566.4 55.4016 611.35 130.802 701.25 130.802C791.15 130.802 926 21.6016 926 21.6016" stroke="#A6CEE3" stroke-width="2"/>
<path d="M27 141C27 141 161.85 265.8 251.75 265.8C341.65 265.8 386.6 83.8 476.5 83.8C566.4 83.8 611.35 159.2 701.25 159.2C791.15 159.2 926 50 926 50" stroke="#F3998F" stroke-width="2"/>
<path d="M27 117C25.9393 117 24.922 116.579 24.1719 115.829C23.4218 115.079 23.0003 114.062 23 113.001C22.9997 111.94 23.4208 110.923 24.1705 110.173C24.9203 109.422 25.9373 109.001 26.998 109C28.0587 108.999 29.0762 109.42 29.8267 110.17C30.5772 110.919 30.9992 111.936 31 112.997C31.0008 114.058 30.5803 115.075 29.8309 115.826C29.0815 116.577 28.0647 116.999 27.004 117H27Z" fill="#A6CEE3"/>
<path d="M251 241C249.939 241 248.922 240.579 248.172 239.829C247.422 239.079 247 238.062 247 237.001C247 235.94 247.421 234.923 248.171 234.173C248.92 233.422 249.937 233.001 250.998 233C252.059 232.999 253.076 233.42 253.827 234.17C254.577 234.919 254.999 235.936 255 236.997C255.001 238.058 254.58 239.075 253.831 239.826C253.082 240.577 252.065 240.999 251.004 241H251Z" fill="#A6CEE3"/>
<path d="M476 59C474.939 59 473.922 58.5787 473.172 57.8288C472.422 57.0789 472 56.0617 472 55.001C472 53.9403 472.421 52.9229 473.171 52.1726C473.92 51.4223 474.937 51.0005 475.998 51C477.059 50.9995 478.076 51.4203 478.827 52.1698C479.577 52.9194 479.999 53.9363 480 54.997C480.001 56.0577 479.58 57.0753 478.831 57.826C478.082 58.5766 477.065 58.9989 476.004 59L476 59Z" fill="#A6CEE3"/>
<path d="M701 135C699.939 135 698.922 134.579 698.172 133.829C697.422 133.079 697 132.062 697 131.001C697 129.94 697.421 128.923 698.171 128.173C698.92 127.422 699.937 127.001 700.998 127C702.059 126.999 703.076 127.42 703.827 128.17C704.577 128.919 704.999 129.936 705 130.997C705.001 132.058 704.58 133.075 703.831 133.826C703.082 134.577 702.065 134.999 701.004 135H701Z" fill="#A6CEE3"/>
<path d="M926 26C924.939 26 923.922 25.5787 923.172 24.8288C922.422 24.0789 922 23.0617 922 22.001C922 20.9403 922.421 19.9229 923.171 19.1726C923.92 18.4223 924.937 18.0005 925.998 18C927.059 17.9995 928.076 18.4203 928.827 19.1698C929.577 19.9194 929.999 20.9363 930 21.997C930.001 23.0577 929.58 24.0753 928.831 24.826C928.082 25.5766 927.065 25.9989 926.004 26L926 26Z" fill="#A6CEE3"/>
<circle cx="35" cy="317" r="11" fill="#A6CEE3"/>
<circle cx="153" cy="317" r="11" fill="#F3998F"/>
<path d="M61.375 311.625V312.859H55.8906V323H54.3906V311.625H61.375ZM61.1562 318.867V318.688C61.1562 318.078 61.2448 317.513 61.4219 316.992C61.599 316.466 61.8542 316.01 62.1875 315.625C62.5208 315.234 62.9245 314.932 63.3984 314.719C63.8724 314.5 64.4036 314.391 64.9922 314.391C65.5859 314.391 66.1198 314.5 66.5938 314.719C67.0729 314.932 67.4792 315.234 67.8125 315.625C68.151 316.01 68.4089 316.466 68.5859 316.992C68.763 317.513 68.8516 318.078 68.8516 318.688V318.867C68.8516 319.477 68.763 320.042 68.5859 320.562C68.4089 321.083 68.151 321.539 67.8125 321.93C67.4792 322.315 67.0755 322.617 66.6016 322.836C66.1328 323.049 65.6016 323.156 65.0078 323.156C64.4141 323.156 63.8802 323.049 63.4062 322.836C62.9323 322.617 62.526 322.315 62.1875 321.93C61.8542 321.539 61.599 321.083 61.4219 320.562C61.2448 320.042 61.1562 319.477 61.1562 318.867ZM62.6016 318.688V318.867C62.6016 319.289 62.651 319.688 62.75 320.062C62.849 320.432 62.9974 320.76 63.1953 321.047C63.3984 321.333 63.651 321.56 63.9531 321.727C64.2552 321.888 64.6068 321.969 65.0078 321.969C65.4036 321.969 65.75 321.888 66.0469 321.727C66.349 321.56 66.599 321.333 66.7969 321.047C66.9948 320.76 67.1432 320.432 67.2422 320.062C67.3464 319.688 67.3984 319.289 67.3984 318.867V318.688C67.3984 318.271 67.3464 317.878 67.2422 317.508C67.1432 317.133 66.9922 316.802 66.7891 316.516C66.5911 316.224 66.3411 315.995 66.0391 315.828C65.7422 315.661 65.3932 315.578 64.9922 315.578C64.5964 315.578 64.2474 315.661 63.9453 315.828C63.6484 315.995 63.3984 316.224 63.1953 316.516C62.9974 316.802 62.849 317.133 62.75 317.508C62.651 317.878 62.6016 318.271 62.6016 318.688ZM76.1875 314.547V315.742H72.1016V314.547H76.1875ZM77.4609 314.547V323H76.0156V314.547H77.4609ZM71.75 314.547H73.2031L72.9844 318.625C72.9479 319.255 72.888 319.812 72.8047 320.297C72.7266 320.776 72.6172 321.188 72.4766 321.531C72.3411 321.875 72.1693 322.156 71.9609 322.375C71.7578 322.589 71.513 322.747 71.2266 322.852C70.9401 322.951 70.6094 323 70.2344 323H69.7812V321.727L70.0938 321.703C70.3177 321.688 70.5078 321.635 70.6641 321.547C70.8255 321.458 70.9609 321.328 71.0703 321.156C71.1797 320.979 71.2682 320.753 71.3359 320.477C71.4089 320.201 71.4635 319.872 71.5 319.492C71.5417 319.112 71.5729 318.669 71.5938 318.164L71.75 314.547ZM82.1641 322.125L84.5156 314.547H86.0625L82.6719 324.305C82.5938 324.513 82.4896 324.737 82.3594 324.977C82.2344 325.221 82.0729 325.453 81.875 325.672C81.6771 325.891 81.4375 326.068 81.1562 326.203C80.8802 326.344 80.5495 326.414 80.1641 326.414C80.0495 326.414 79.9036 326.398 79.7266 326.367C79.5495 326.336 79.4245 326.31 79.3516 326.289L79.3438 325.117C79.3854 325.122 79.4505 325.128 79.5391 325.133C79.6328 325.143 79.6979 325.148 79.7344 325.148C80.0625 325.148 80.3411 325.104 80.5703 325.016C80.7995 324.932 80.9922 324.789 81.1484 324.586C81.3099 324.388 81.4479 324.115 81.5625 323.766L82.1641 322.125ZM80.4375 314.547L82.6328 321.109L83.0078 322.633L81.9688 323.164L78.8594 314.547H80.4375ZM92.7891 310.867H93.9766C93.9766 311.378 93.8984 311.784 93.7422 312.086C93.5859 312.383 93.3724 312.612 93.1016 312.773C92.8359 312.935 92.5339 313.057 92.1953 313.141C91.862 313.224 91.5156 313.305 91.1562 313.383C90.7083 313.477 90.2917 313.625 89.9062 313.828C89.526 314.026 89.1979 314.307 88.9219 314.672C88.651 315.036 88.4505 315.51 88.3203 316.094C88.1953 316.677 88.1615 317.398 88.2188 318.258V318.977H87.0312V318.258C87.0312 317.294 87.1224 316.453 87.3047 315.734C87.4922 315.016 87.7552 314.409 88.0938 313.914C88.4323 313.419 88.8333 313.026 89.2969 312.734C89.7656 312.443 90.2812 312.242 90.8438 312.133C91.25 312.055 91.599 311.971 91.8906 311.883C92.1823 311.789 92.4036 311.664 92.5547 311.508C92.7109 311.352 92.7891 311.138 92.7891 310.867ZM91.0781 315.031C91.6302 315.031 92.1224 315.128 92.5547 315.32C92.987 315.513 93.3542 315.781 93.6562 316.125C93.9583 316.469 94.1875 316.875 94.3438 317.344C94.5052 317.807 94.5859 318.312 94.5859 318.859V319.031C94.5859 319.62 94.5 320.167 94.3281 320.672C94.1615 321.172 93.9141 321.609 93.5859 321.984C93.263 322.354 92.8672 322.643 92.3984 322.852C91.9349 323.06 91.4062 323.164 90.8125 323.164C90.2188 323.164 89.6875 323.06 89.2188 322.852C88.7552 322.643 88.3594 322.354 88.0312 321.984C87.7031 321.609 87.4531 321.172 87.2812 320.672C87.1146 320.167 87.0312 319.62 87.0312 319.031V318.859C87.0312 318.729 87.0547 318.602 87.1016 318.477C87.1484 318.352 87.2057 318.224 87.2734 318.094C87.3464 317.964 87.4115 317.826 87.4688 317.68C87.6615 317.211 87.9245 316.776 88.2578 316.375C88.5964 315.974 89 315.651 89.4688 315.406C89.9427 315.156 90.4792 315.031 91.0781 315.031ZM90.7969 316.211C90.2656 316.211 89.8281 316.333 89.4844 316.578C89.1458 316.823 88.8932 317.148 88.7266 317.555C88.5599 317.956 88.4766 318.391 88.4766 318.859V319.031C88.4766 319.427 88.5234 319.802 88.6172 320.156C88.7109 320.51 88.8516 320.826 89.0391 321.102C89.2318 321.372 89.474 321.586 89.7656 321.742C90.0625 321.898 90.4115 321.977 90.8125 321.977C91.2135 321.977 91.5599 321.898 91.8516 321.742C92.1432 321.586 92.3828 321.372 92.5703 321.102C92.7578 320.826 92.8984 320.51 92.9922 320.156C93.0859 319.802 93.1328 319.427 93.1328 319.031V318.859C93.1328 318.505 93.0859 318.169 92.9922 317.852C92.8984 317.534 92.7552 317.253 92.5625 317.008C92.375 316.763 92.1328 316.57 91.8359 316.43C91.5443 316.284 91.1979 316.211 90.7969 316.211ZM95.8438 318.867V318.688C95.8438 318.078 95.9323 317.513 96.1094 316.992C96.2865 316.466 96.5417 316.01 96.875 315.625C97.2083 315.234 97.612 314.932 98.0859 314.719C98.5599 314.5 99.0911 314.391 99.6797 314.391C100.273 314.391 100.807 314.5 101.281 314.719C101.76 314.932 102.167 315.234 102.5 315.625C102.839 316.01 103.096 316.466 103.273 316.992C103.451 317.513 103.539 318.078 103.539 318.688V318.867C103.539 319.477 103.451 320.042 103.273 320.562C103.096 321.083 102.839 321.539 102.5 321.93C102.167 322.315 101.763 322.617 101.289 322.836C100.82 323.049 100.289 323.156 99.6953 323.156C99.1016 323.156 98.5677 323.049 98.0938 322.836C97.6198 322.617 97.2135 322.315 96.875 321.93C96.5417 321.539 96.2865 321.083 96.1094 320.562C95.9323 320.042 95.8438 319.477 95.8438 318.867ZM97.2891 318.688V318.867C97.2891 319.289 97.3385 319.688 97.4375 320.062C97.5365 320.432 97.6849 320.76 97.8828 321.047C98.0859 321.333 98.3385 321.56 98.6406 321.727C98.9427 321.888 99.2943 321.969 99.6953 321.969C100.091 321.969 100.438 321.888 100.734 321.727C101.036 321.56 101.286 321.333 101.484 321.047C101.682 320.76 101.831 320.432 101.93 320.062C102.034 319.688 102.086 319.289 102.086 318.867V318.688C102.086 318.271 102.034 317.878 101.93 317.508C101.831 317.133 101.68 316.802 101.477 316.516C101.279 316.224 101.029 315.995 100.727 315.828C100.43 315.661 100.081 315.578 99.6797 315.578C99.2839 315.578 98.9349 315.661 98.6328 315.828C98.3359 315.995 98.0859 316.224 97.8828 316.516C97.6849 316.802 97.5365 317.133 97.4375 317.508C97.3385 317.878 97.2891 318.271 97.2891 318.688ZM108.859 323.156C108.271 323.156 107.737 323.057 107.258 322.859C106.784 322.656 106.375 322.372 106.031 322.008C105.693 321.643 105.432 321.211 105.25 320.711C105.068 320.211 104.977 319.664 104.977 319.07V318.742C104.977 318.055 105.078 317.443 105.281 316.906C105.484 316.365 105.76 315.906 106.109 315.531C106.458 315.156 106.854 314.872 107.297 314.68C107.74 314.487 108.198 314.391 108.672 314.391C109.276 314.391 109.797 314.495 110.234 314.703C110.677 314.911 111.039 315.203 111.32 315.578C111.602 315.948 111.81 316.385 111.945 316.891C112.081 317.391 112.148 317.938 112.148 318.531V319.18H105.836V318H110.703V317.891C110.682 317.516 110.604 317.151 110.469 316.797C110.339 316.443 110.13 316.151 109.844 315.922C109.557 315.693 109.167 315.578 108.672 315.578C108.344 315.578 108.042 315.648 107.766 315.789C107.49 315.924 107.253 316.128 107.055 316.398C106.857 316.669 106.703 317 106.594 317.391C106.484 317.781 106.43 318.232 106.43 318.742V319.07C106.43 319.471 106.484 319.849 106.594 320.203C106.708 320.552 106.872 320.859 107.086 321.125C107.305 321.391 107.568 321.599 107.875 321.75C108.188 321.901 108.542 321.977 108.938 321.977C109.448 321.977 109.88 321.872 110.234 321.664C110.589 321.456 110.898 321.177 111.164 320.828L112.039 321.523C111.857 321.799 111.625 322.062 111.344 322.312C111.062 322.562 110.716 322.766 110.305 322.922C109.898 323.078 109.417 323.156 108.859 323.156Z" fill="white"/>
<path d="M173.898 311.625V323H172.391V311.625H173.898ZM180.906 311.625L175.969 317.883H173.297L173.062 316.633H175.07L179.039 311.625H180.906ZM179.391 323L175.117 317.688L175.961 316.367L181.234 323H179.391ZM181.781 318.867V318.688C181.781 318.078 181.87 317.513 182.047 316.992C182.224 316.466 182.479 316.01 182.812 315.625C183.146 315.234 183.549 314.932 184.023 314.719C184.497 314.5 185.029 314.391 185.617 314.391C186.211 314.391 186.745 314.5 187.219 314.719C187.698 314.932 188.104 315.234 188.438 315.625C188.776 316.01 189.034 316.466 189.211 316.992C189.388 317.513 189.477 318.078 189.477 318.688V318.867C189.477 319.477 189.388 320.042 189.211 320.562C189.034 321.083 188.776 321.539 188.438 321.93C188.104 322.315 187.701 322.617 187.227 322.836C186.758 323.049 186.227 323.156 185.633 323.156C185.039 323.156 184.505 323.049 184.031 322.836C183.557 322.617 183.151 322.315 182.812 321.93C182.479 321.539 182.224 321.083 182.047 320.562C181.87 320.042 181.781 319.477 181.781 318.867ZM183.227 318.688V318.867C183.227 319.289 183.276 319.688 183.375 320.062C183.474 320.432 183.622 320.76 183.82 321.047C184.023 321.333 184.276 321.56 184.578 321.727C184.88 321.888 185.232 321.969 185.633 321.969C186.029 321.969 186.375 321.888 186.672 321.727C186.974 321.56 187.224 321.333 187.422 321.047C187.62 320.76 187.768 320.432 187.867 320.062C187.971 319.688 188.023 319.289 188.023 318.867V318.688C188.023 318.271 187.971 317.878 187.867 317.508C187.768 317.133 187.617 316.802 187.414 316.516C187.216 316.224 186.966 315.995 186.664 315.828C186.367 315.661 186.018 315.578 185.617 315.578C185.221 315.578 184.872 315.661 184.57 315.828C184.273 315.995 184.023 316.224 183.82 316.516C183.622 316.802 183.474 317.133 183.375 317.508C183.276 317.878 183.227 318.271 183.227 318.688ZM192.734 316.172V326.25H191.281V314.547H192.609L192.734 316.172ZM198.43 318.703V318.867C198.43 319.482 198.357 320.052 198.211 320.578C198.065 321.099 197.852 321.552 197.57 321.938C197.294 322.323 196.953 322.622 196.547 322.836C196.141 323.049 195.674 323.156 195.148 323.156C194.612 323.156 194.138 323.068 193.727 322.891C193.315 322.714 192.966 322.456 192.68 322.117C192.393 321.779 192.164 321.372 191.992 320.898C191.826 320.424 191.711 319.891 191.648 319.297V318.422C191.711 317.797 191.828 317.237 192 316.742C192.172 316.247 192.398 315.826 192.68 315.477C192.966 315.122 193.312 314.854 193.719 314.672C194.125 314.484 194.594 314.391 195.125 314.391C195.656 314.391 196.128 314.495 196.539 314.703C196.951 314.906 197.297 315.198 197.578 315.578C197.859 315.958 198.07 316.414 198.211 316.945C198.357 317.471 198.43 318.057 198.43 318.703ZM196.977 318.867V318.703C196.977 318.281 196.932 317.885 196.844 317.516C196.755 317.141 196.617 316.812 196.43 316.531C196.247 316.245 196.013 316.021 195.727 315.859C195.44 315.693 195.099 315.609 194.703 315.609C194.339 315.609 194.021 315.672 193.75 315.797C193.484 315.922 193.258 316.091 193.07 316.305C192.883 316.513 192.729 316.753 192.609 317.023C192.495 317.289 192.409 317.565 192.352 317.852V319.875C192.456 320.24 192.602 320.583 192.789 320.906C192.977 321.224 193.227 321.482 193.539 321.68C193.852 321.872 194.245 321.969 194.719 321.969C195.109 321.969 195.445 321.888 195.727 321.727C196.013 321.56 196.247 321.333 196.43 321.047C196.617 320.76 196.755 320.432 196.844 320.062C196.932 319.688 196.977 319.289 196.977 318.867ZM205.258 321.555V317.203C205.258 316.87 205.19 316.581 205.055 316.336C204.924 316.086 204.727 315.893 204.461 315.758C204.195 315.622 203.867 315.555 203.477 315.555C203.112 315.555 202.792 315.617 202.516 315.742C202.245 315.867 202.031 316.031 201.875 316.234C201.724 316.438 201.648 316.656 201.648 316.891H200.203C200.203 316.589 200.281 316.289 200.438 315.992C200.594 315.695 200.818 315.427 201.109 315.188C201.406 314.943 201.76 314.75 202.172 314.609C202.589 314.464 203.052 314.391 203.562 314.391C204.177 314.391 204.719 314.495 205.188 314.703C205.661 314.911 206.031 315.227 206.297 315.648C206.568 316.065 206.703 316.589 206.703 317.219V321.156C206.703 321.438 206.727 321.737 206.773 322.055C206.826 322.372 206.901 322.646 207 322.875V323H205.492C205.419 322.833 205.362 322.612 205.32 322.336C205.279 322.055 205.258 321.794 205.258 321.555ZM205.508 317.875L205.523 318.891H204.062C203.651 318.891 203.284 318.924 202.961 318.992C202.638 319.055 202.367 319.151 202.148 319.281C201.93 319.411 201.763 319.576 201.648 319.773C201.534 319.966 201.477 320.193 201.477 320.453C201.477 320.719 201.536 320.961 201.656 321.18C201.776 321.398 201.956 321.573 202.195 321.703C202.44 321.828 202.74 321.891 203.094 321.891C203.536 321.891 203.927 321.797 204.266 321.609C204.604 321.422 204.872 321.193 205.07 320.922C205.273 320.651 205.383 320.388 205.398 320.133L206.016 320.828C205.979 321.047 205.88 321.289 205.719 321.555C205.557 321.82 205.341 322.076 205.07 322.32C204.805 322.56 204.487 322.76 204.117 322.922C203.753 323.078 203.341 323.156 202.883 323.156C202.31 323.156 201.807 323.044 201.375 322.82C200.948 322.596 200.615 322.297 200.375 321.922C200.141 321.542 200.023 321.117 200.023 320.648C200.023 320.195 200.112 319.797 200.289 319.453C200.466 319.104 200.721 318.815 201.055 318.586C201.388 318.352 201.789 318.174 202.258 318.055C202.727 317.935 203.25 317.875 203.828 317.875H205.508ZM214.625 314.547V315.742H210.539V314.547H214.625ZM215.898 314.547V323H214.453V314.547H215.898ZM210.188 314.547H211.641L211.422 318.625C211.385 319.255 211.326 319.812 211.242 320.297C211.164 320.776 211.055 321.188 210.914 321.531C210.779 321.875 210.607 322.156 210.398 322.375C210.195 322.589 209.951 322.747 209.664 322.852C209.378 322.951 209.047 323 208.672 323H208.219V321.727L208.531 321.703C208.755 321.688 208.945 321.635 209.102 321.547C209.263 321.458 209.398 321.328 209.508 321.156C209.617 320.979 209.706 320.753 209.773 320.477C209.846 320.201 209.901 319.872 209.938 319.492C209.979 319.112 210.01 318.669 210.031 318.164L210.188 314.547Z" fill="white"/>
</svg>
