<svg width="278" height="75" viewBox="0 0 278 75" fill="none" xmlns="http://www.w3.org/2000/svg">
<rect width="278" height="75" rx="5" fill="#F1F1F1"/>
<path d="M12.3604 18.4062L17.084 20.3203V21.6602L11.4922 19.0693V18.2832L12.3604 18.4062ZM17.084 16.834L12.3672 18.7754L11.4922 18.8711V18.0781L17.084 15.4941V16.834ZM20.5908 13.0469L20.502 20.1904H19.3604L19.2646 13.0469H20.5908ZM19.2236 22.3643C19.2236 22.1592 19.2852 21.986 19.4082 21.8447C19.5358 21.7035 19.7227 21.6328 19.9688 21.6328C20.2103 21.6328 20.3949 21.7035 20.5225 21.8447C20.6546 21.986 20.7207 22.1592 20.7207 22.3643C20.7207 22.5602 20.6546 22.7288 20.5225 22.8701C20.3949 23.0114 20.2103 23.082 19.9688 23.082C19.7227 23.082 19.5358 23.0114 19.4082 22.8701C19.2852 22.7288 19.2236 22.5602 19.2236 22.3643ZM25.5811 23H23.5029L23.5166 21.9268H25.5811C26.292 21.9268 26.8844 21.7786 27.3584 21.4824C27.8324 21.1816 28.1878 20.7624 28.4248 20.2246C28.6663 19.6823 28.7871 19.0488 28.7871 18.3242V17.7158C28.7871 17.1462 28.7188 16.6403 28.582 16.1982C28.4453 15.7516 28.2448 15.3757 27.9805 15.0703C27.7161 14.7604 27.3926 14.5257 27.0098 14.3662C26.6315 14.2067 26.1963 14.127 25.7041 14.127H23.4619V13.0469H25.7041C26.3558 13.0469 26.9505 13.1562 27.4883 13.375C28.026 13.5892 28.4886 13.9014 28.876 14.3115C29.2679 14.7171 29.5687 15.2093 29.7783 15.7881C29.988 16.3623 30.0928 17.0094 30.0928 17.7295V18.3242C30.0928 19.0443 29.988 19.6937 29.7783 20.2725C29.5687 20.8467 29.2656 21.3366 28.8691 21.7422C28.4772 22.1478 28.0033 22.46 27.4473 22.6787C26.8958 22.8929 26.2738 23 25.5811 23ZM24.207 13.0469V23H22.8877V13.0469H24.207ZM39.7383 17.709V18.3379C39.7383 19.0853 39.6449 19.7552 39.458 20.3477C39.2712 20.9401 39.0023 21.4437 38.6514 21.8584C38.3005 22.2731 37.8789 22.5898 37.3867 22.8086C36.8991 23.0273 36.3522 23.1367 35.7461 23.1367C35.1582 23.1367 34.6182 23.0273 34.126 22.8086C33.6383 22.5898 33.2145 22.2731 32.8545 21.8584C32.499 21.4437 32.2233 20.9401 32.0273 20.3477C31.8314 19.7552 31.7334 19.0853 31.7334 18.3379V17.709C31.7334 16.9616 31.8291 16.2939 32.0205 15.7061C32.2165 15.1136 32.4922 14.61 32.8477 14.1953C33.2031 13.776 33.6247 13.457 34.1123 13.2383C34.6045 13.0195 35.1445 12.9102 35.7324 12.9102C36.3385 12.9102 36.8854 13.0195 37.373 13.2383C37.8652 13.457 38.2868 13.776 38.6377 14.1953C38.9932 14.61 39.2643 15.1136 39.4512 15.7061C39.6426 16.2939 39.7383 16.9616 39.7383 17.709ZM38.4326 18.3379V17.6953C38.4326 17.1029 38.3711 16.5788 38.248 16.123C38.1296 15.6673 37.9541 15.2845 37.7217 14.9746C37.4893 14.6647 37.2044 14.43 36.8672 14.2705C36.5345 14.111 36.1562 14.0312 35.7324 14.0312C35.3223 14.0312 34.9508 14.111 34.6182 14.2705C34.29 14.43 34.0075 14.6647 33.7705 14.9746C33.5381 15.2845 33.3581 15.6673 33.2305 16.123C33.1029 16.5788 33.0391 17.1029 33.0391 17.6953V18.3379C33.0391 18.9349 33.1029 19.4635 33.2305 19.9238C33.3581 20.3796 33.5404 20.7646 33.7773 21.0791C34.0189 21.389 34.3037 21.6237 34.6318 21.7832C34.9645 21.9427 35.3359 22.0225 35.7461 22.0225C36.1745 22.0225 36.555 21.9427 36.8877 21.7832C37.2204 21.6237 37.5007 21.389 37.7285 21.0791C37.9609 20.7646 38.1364 20.3796 38.2549 19.9238C38.3734 19.4635 38.4326 18.9349 38.4326 18.3379ZM47.7227 19.835H49.0352C48.9668 20.4639 48.7868 21.0267 48.4951 21.5234C48.2035 22.0202 47.791 22.4144 47.2578 22.7061C46.7246 22.9932 46.0592 23.1367 45.2617 23.1367C44.6784 23.1367 44.1475 23.0273 43.6689 22.8086C43.195 22.5898 42.7871 22.2799 42.4453 21.8789C42.1035 21.4733 41.8392 20.988 41.6523 20.4229C41.4701 19.8532 41.3789 19.2197 41.3789 18.5225V17.5312C41.3789 16.834 41.4701 16.2028 41.6523 15.6377C41.8392 15.068 42.1058 14.5804 42.4521 14.1748C42.8031 13.7692 43.2246 13.457 43.7168 13.2383C44.209 13.0195 44.7627 12.9102 45.3779 12.9102C46.1299 12.9102 46.7656 13.0514 47.2852 13.334C47.8047 13.6165 48.208 14.0085 48.4951 14.5098C48.7868 15.0065 48.9668 15.583 49.0352 16.2393H47.7227C47.6589 15.7744 47.5404 15.3757 47.3672 15.043C47.194 14.7057 46.9479 14.446 46.6289 14.2637C46.3099 14.0814 45.8929 13.9902 45.3779 13.9902C44.9359 13.9902 44.5462 14.0745 44.209 14.2432C43.8763 14.4118 43.596 14.651 43.3682 14.9609C43.1449 15.2708 42.9762 15.6423 42.8623 16.0752C42.7484 16.5081 42.6914 16.9889 42.6914 17.5176V18.5225C42.6914 19.0101 42.7415 19.4681 42.8418 19.8965C42.9466 20.3249 43.1038 20.7008 43.3135 21.0244C43.5231 21.348 43.7897 21.6032 44.1133 21.79C44.4368 21.9723 44.8197 22.0635 45.2617 22.0635C45.8223 22.0635 46.2689 21.9746 46.6016 21.7969C46.9342 21.6191 47.1849 21.3639 47.3535 21.0312C47.5267 20.6986 47.6497 20.2998 47.7227 19.835ZM54.3057 13.0469V23H53.0068V13.0469H54.3057ZM57.5049 13.0469V14.127H49.8145V13.0469H57.5049ZM59.5488 13.0469L62.1328 18.0439L64.7236 13.0469H66.2207L62.7891 19.2812V23H61.4697V19.2812L58.0381 13.0469H59.5488ZM71.1699 19.0967H68.5107V18.0234H71.1699C71.6849 18.0234 72.1019 17.9414 72.4209 17.7773C72.7399 17.6133 72.9723 17.3854 73.1182 17.0938C73.2686 16.8021 73.3438 16.4694 73.3438 16.0957C73.3438 15.7539 73.2686 15.4326 73.1182 15.1318C72.9723 14.8311 72.7399 14.5895 72.4209 14.4072C72.1019 14.2204 71.6849 14.127 71.1699 14.127H68.8184V23H67.499V13.0469H71.1699C71.9219 13.0469 72.5576 13.1768 73.0771 13.4365C73.5967 13.6963 73.9909 14.0563 74.2598 14.5166C74.5286 14.9723 74.6631 15.4941 74.6631 16.082C74.6631 16.7201 74.5286 17.2646 74.2598 17.7158C73.9909 18.167 73.5967 18.5111 73.0771 18.748C72.5576 18.9805 71.9219 19.0967 71.1699 19.0967ZM82.6543 21.9268V23H77.3838V21.9268H82.6543ZM77.6504 13.0469V23H76.3311V13.0469H77.6504ZM81.957 17.3262V18.3994H77.3838V17.3262H81.957ZM82.5859 13.0469V14.127H77.3838V13.0469H82.5859ZM94.2617 17.3262V18.3994H88.875V17.3262H94.2617ZM89.0801 13.0469V23H87.7607V13.0469H89.0801ZM95.4102 13.0469V23H94.0977V13.0469H95.4102ZM101.228 13.0469V23H99.9287V13.0469H101.228ZM104.427 13.0469V14.127H96.7363V13.0469H104.427ZM106.32 13.0469H107.599L110.859 21.1611L114.113 13.0469H115.398L111.352 23H110.354L106.32 13.0469ZM105.903 13.0469H107.031L107.216 19.1172V23H105.903V13.0469ZM114.681 13.0469H115.809V23H114.496V19.1172L114.681 13.0469ZM124.162 21.9268V23H119.186V21.9268H124.162ZM119.445 13.0469V23H118.126V13.0469H119.445ZM132.816 19.0967H130.157V18.0234H132.816C133.331 18.0234 133.748 17.9414 134.067 17.7773C134.386 17.6133 134.619 17.3854 134.765 17.0938C134.915 16.8021 134.99 16.4694 134.99 16.0957C134.99 15.7539 134.915 15.4326 134.765 15.1318C134.619 14.8311 134.386 14.5895 134.067 14.4072C133.748 14.2204 133.331 14.127 132.816 14.127H130.465V23H129.146V13.0469H132.816C133.568 13.0469 134.204 13.1768 134.724 13.4365C135.243 13.6963 135.637 14.0563 135.906 14.5166C136.175 14.9723 136.31 15.4941 136.31 16.082C136.31 16.7201 136.175 17.2646 135.906 17.7158C135.637 18.167 135.243 18.5111 134.724 18.748C134.204 18.9805 133.568 19.0967 132.816 19.0967ZM143.672 13.0469H144.984V19.7803C144.984 20.5277 144.818 21.1497 144.485 21.6465C144.153 22.1432 143.711 22.5169 143.159 22.7676C142.612 23.0137 142.018 23.1367 141.375 23.1367C140.701 23.1367 140.09 23.0137 139.543 22.7676C139.001 22.5169 138.57 22.1432 138.251 21.6465C137.937 21.1497 137.779 20.5277 137.779 19.7803V13.0469H139.085V19.7803C139.085 20.2998 139.181 20.7282 139.372 21.0654C139.563 21.4027 139.83 21.6533 140.172 21.8174C140.518 21.9814 140.919 22.0635 141.375 22.0635C141.835 22.0635 142.236 21.9814 142.578 21.8174C142.924 21.6533 143.193 21.4027 143.385 21.0654C143.576 20.7282 143.672 20.2998 143.672 19.7803V13.0469ZM150.604 18.3447H148.081L148.067 17.2852H150.357C150.736 17.2852 151.066 17.2214 151.349 17.0938C151.631 16.9661 151.85 16.7839 152.005 16.5469C152.164 16.3053 152.244 16.0182 152.244 15.6855C152.244 15.321 152.174 15.0247 152.032 14.7969C151.896 14.5645 151.684 14.3958 151.396 14.291C151.114 14.1816 150.754 14.127 150.316 14.127H148.375V23H147.056V13.0469H150.316C150.827 13.0469 151.283 13.0993 151.684 13.2041C152.085 13.3044 152.424 13.4639 152.702 13.6826C152.985 13.8968 153.199 14.1702 153.345 14.5029C153.491 14.8356 153.563 15.2344 153.563 15.6992C153.563 16.1094 153.459 16.4808 153.249 16.8135C153.039 17.1416 152.748 17.4105 152.374 17.6201C152.005 17.8298 151.572 17.9642 151.075 18.0234L150.604 18.3447ZM150.542 23H147.562L148.307 21.9268H150.542C150.961 21.9268 151.317 21.8538 151.608 21.708C151.905 21.5622 152.13 21.3571 152.285 21.0928C152.44 20.8239 152.518 20.5072 152.518 20.1426C152.518 19.7734 152.451 19.4544 152.319 19.1855C152.187 18.9167 151.98 18.7093 151.697 18.5635C151.415 18.4176 151.05 18.3447 150.604 18.3447H148.724L148.737 17.2852H151.308L151.588 17.668C152.066 17.709 152.472 17.8457 152.805 18.0781C153.137 18.306 153.39 18.5977 153.563 18.9531C153.741 19.3086 153.83 19.7005 153.83 20.1289C153.83 20.7487 153.693 21.2728 153.42 21.7012C153.151 22.125 152.771 22.4486 152.278 22.6719C151.786 22.8906 151.207 23 150.542 23ZM161.814 21.9268V23H156.838V21.9268H161.814ZM157.098 13.0469V23H155.778V13.0469H157.098ZM164.74 13.0469V23H163.421V13.0469H164.74ZM173.148 19.835H174.461C174.393 20.4639 174.213 21.0267 173.921 21.5234C173.629 22.0202 173.217 22.4144 172.684 22.7061C172.15 22.9932 171.485 23.1367 170.688 23.1367C170.104 23.1367 169.573 23.0273 169.095 22.8086C168.621 22.5898 168.213 22.2799 167.871 21.8789C167.529 21.4733 167.265 20.988 167.078 20.4229C166.896 19.8532 166.805 19.2197 166.805 18.5225V17.5312C166.805 16.834 166.896 16.2028 167.078 15.6377C167.265 15.068 167.532 14.5804 167.878 14.1748C168.229 13.7692 168.65 13.457 169.143 13.2383C169.635 13.0195 170.188 12.9102 170.804 12.9102C171.556 12.9102 172.191 13.0514 172.711 13.334C173.23 13.6165 173.634 14.0085 173.921 14.5098C174.213 15.0065 174.393 15.583 174.461 16.2393H173.148C173.085 15.7744 172.966 15.3757 172.793 15.043C172.62 14.7057 172.374 14.446 172.055 14.2637C171.736 14.0814 171.319 13.9902 170.804 13.9902C170.362 13.9902 169.972 14.0745 169.635 14.2432C169.302 14.4118 169.022 14.651 168.794 14.9609C168.571 15.2708 168.402 15.6423 168.288 16.0752C168.174 16.5081 168.117 16.9889 168.117 17.5176V18.5225C168.117 19.0101 168.167 19.4681 168.268 19.8965C168.372 20.3249 168.53 20.7008 168.739 21.0244C168.949 21.348 169.215 21.6032 169.539 21.79C169.863 21.9723 170.245 22.0635 170.688 22.0635C171.248 22.0635 171.695 21.9746 172.027 21.7969C172.36 21.6191 172.611 21.3639 172.779 21.0312C172.952 20.6986 173.076 20.2998 173.148 19.835ZM180.477 12.5V13.4297L180.271 15.8701H179.513V13.4912V12.5H180.477ZM182.322 12.5V13.4297L182.117 15.8701H181.358V13.4434V12.5H182.322ZM186.656 18.249V19.2881H183.32V18.249H186.656ZM192.296 13.0469L188.146 23.8545H187.06L191.216 13.0469H192.296ZM196.548 13.0469L192.398 23.8545H191.312L195.468 13.0469H196.548ZM200.738 19.9922L202.714 13.0469H203.671L203.117 15.7471L200.991 23H200.041L200.738 19.9922ZM198.694 13.0469L200.267 19.8555L200.738 23H199.795L197.382 13.0469H198.694ZM206.228 19.8486L207.766 13.0469H209.085L206.679 23H205.735L206.228 19.8486ZM203.814 13.0469L205.735 19.9922L206.433 23H205.482L203.432 15.7471L202.871 13.0469H203.814ZM212.065 17.4014H212.968C213.41 17.4014 213.774 17.3285 214.062 17.1826C214.353 17.0322 214.57 16.8294 214.711 16.5742C214.857 16.3145 214.93 16.0228 214.93 15.6992C214.93 15.3164 214.866 14.9951 214.738 14.7354C214.611 14.4756 214.419 14.2796 214.164 14.1475C213.909 14.0153 213.585 13.9492 213.193 13.9492C212.838 13.9492 212.523 14.0199 212.25 14.1611C211.981 14.2979 211.769 14.4938 211.614 14.749C211.464 15.0042 211.389 15.305 211.389 15.6514H210.124C210.124 15.1455 210.252 14.6852 210.507 14.2705C210.762 13.8558 211.12 13.5254 211.58 13.2793C212.045 13.0332 212.583 12.9102 213.193 12.9102C213.795 12.9102 214.321 13.0173 214.772 13.2314C215.224 13.4411 215.575 13.7555 215.825 14.1748C216.076 14.5895 216.201 15.1068 216.201 15.7266C216.201 15.9772 216.142 16.2461 216.023 16.5332C215.91 16.8158 215.729 17.0801 215.483 17.3262C215.242 17.5723 214.927 17.7751 214.54 17.9346C214.153 18.0895 213.688 18.167 213.146 18.167H212.065V17.4014ZM212.065 18.4404V17.6816H213.146C213.779 17.6816 214.303 17.7568 214.718 17.9072C215.132 18.0576 215.458 18.2581 215.695 18.5088C215.937 18.7594 216.105 19.0352 216.201 19.3359C216.301 19.6322 216.352 19.9284 216.352 20.2246C216.352 20.6895 216.272 21.1019 216.112 21.4619C215.957 21.8219 215.736 22.1273 215.449 22.3779C215.167 22.6286 214.834 22.8177 214.451 22.9453C214.068 23.0729 213.651 23.1367 213.2 23.1367C212.767 23.1367 212.359 23.0752 211.977 22.9521C211.598 22.8291 211.263 22.6514 210.972 22.4189C210.68 22.182 210.452 21.8926 210.288 21.5508C210.124 21.2044 210.042 20.8102 210.042 20.3682H211.307C211.307 20.7145 211.382 21.0176 211.532 21.2773C211.687 21.5371 211.906 21.7399 212.188 21.8857C212.476 22.027 212.813 22.0977 213.2 22.0977C213.588 22.0977 213.92 22.0316 214.198 21.8994C214.481 21.7627 214.697 21.5576 214.848 21.2842C215.003 21.0107 215.08 20.6667 215.08 20.252C215.08 19.8372 214.993 19.4977 214.82 19.2334C214.647 18.9645 214.401 18.7663 214.082 18.6387C213.768 18.5065 213.396 18.4404 212.968 18.4404H212.065ZM224.432 19.835H225.744C225.676 20.4639 225.496 21.0267 225.204 21.5234C224.912 22.0202 224.5 22.4144 223.967 22.7061C223.434 22.9932 222.768 23.1367 221.971 23.1367C221.387 23.1367 220.856 23.0273 220.378 22.8086C219.904 22.5898 219.496 22.2799 219.154 21.8789C218.812 21.4733 218.548 20.988 218.361 20.4229C218.179 19.8532 218.088 19.2197 218.088 18.5225V17.5312C218.088 16.834 218.179 16.2028 218.361 15.6377C218.548 15.068 218.815 14.5804 219.161 14.1748C219.512 13.7692 219.934 13.457 220.426 13.2383C220.918 13.0195 221.472 12.9102 222.087 12.9102C222.839 12.9102 223.475 13.0514 223.994 13.334C224.514 13.6165 224.917 14.0085 225.204 14.5098C225.496 15.0065 225.676 15.583 225.744 16.2393H224.432C224.368 15.7744 224.249 15.3757 224.076 15.043C223.903 14.7057 223.657 14.446 223.338 14.2637C223.019 14.0814 222.602 13.9902 222.087 13.9902C221.645 13.9902 221.255 14.0745 220.918 14.2432C220.585 14.4118 220.305 14.651 220.077 14.9609C219.854 15.2708 219.685 15.6423 219.571 16.0752C219.457 16.5081 219.4 16.9889 219.4 17.5176V18.5225C219.4 19.0101 219.451 19.4681 219.551 19.8965C219.656 20.3249 219.813 20.7008 220.022 21.0244C220.232 21.348 220.499 21.6032 220.822 21.79C221.146 21.9723 221.529 22.0635 221.971 22.0635C222.531 22.0635 222.978 21.9746 223.311 21.7969C223.643 21.6191 223.894 21.3639 224.062 21.0312C224.236 20.6986 224.359 20.2998 224.432 19.835ZM231.753 13.0469L227.604 23.8545H226.517L230.673 13.0469H231.753ZM236.005 13.0469L231.855 23.8545H230.769L234.925 13.0469H236.005ZM240.271 23H238.192L238.206 21.9268H240.271C240.981 21.9268 241.574 21.7786 242.048 21.4824C242.522 21.1816 242.877 20.7624 243.114 20.2246C243.356 19.6823 243.477 19.0488 243.477 18.3242V17.7158C243.477 17.1462 243.408 16.6403 243.271 16.1982C243.135 15.7516 242.934 15.3757 242.67 15.0703C242.406 14.7604 242.082 14.5257 241.699 14.3662C241.321 14.2067 240.886 14.127 240.394 14.127H238.151V13.0469H240.394C241.045 13.0469 241.64 13.1562 242.178 13.375C242.715 13.5892 243.178 13.9014 243.565 14.3115C243.957 14.7171 244.258 15.2093 244.468 15.7881C244.677 16.3623 244.782 17.0094 244.782 17.7295V18.3242C244.782 19.0443 244.677 19.6937 244.468 20.2725C244.258 20.8467 243.955 21.3366 243.559 21.7422C243.167 22.1478 242.693 22.46 242.137 22.6787C241.585 22.8929 240.963 23 240.271 23ZM238.896 13.0469V23H237.577V13.0469H238.896ZM250.251 13.0469V23H248.952V13.0469H250.251ZM253.45 13.0469V14.127H245.76V13.0469H253.45ZM257.62 23H255.542L255.556 21.9268H257.62C258.331 21.9268 258.924 21.7786 259.397 21.4824C259.871 21.1816 260.227 20.7624 260.464 20.2246C260.705 19.6823 260.826 19.0488 260.826 18.3242V17.7158C260.826 17.1462 260.758 16.6403 260.621 16.1982C260.484 15.7516 260.284 15.3757 260.02 15.0703C259.755 14.7604 259.432 14.5257 259.049 14.3662C258.671 14.2067 258.235 14.127 257.743 14.127H255.501V13.0469H257.743C258.395 13.0469 258.99 13.1562 259.527 13.375C260.065 13.5892 260.528 13.9014 260.915 14.3115C261.307 14.7171 261.608 15.2093 261.817 15.7881C262.027 16.3623 262.132 17.0094 262.132 17.7295V18.3242C262.132 19.0443 262.027 19.6937 261.817 20.2725C261.608 20.8467 261.305 21.3366 260.908 21.7422C260.516 22.1478 260.042 22.46 259.486 22.6787C258.935 22.8929 258.313 23 257.62 23ZM256.246 13.0469V23H254.927V13.0469H256.246ZM18.6562 36.3262V37.3994H13.2695V36.3262H18.6562ZM13.4746 32.0469V42H12.1553V32.0469H13.4746ZM19.8047 32.0469V42H18.4922V32.0469H19.8047ZM25.6221 32.0469V42H24.3232V32.0469H25.6221ZM28.8213 32.0469V33.127H21.1309V32.0469H28.8213ZM30.7148 32.0469H31.9932L35.2539 40.1611L38.5078 32.0469H39.793L35.7461 42H34.748L30.7148 32.0469ZM30.2979 32.0469H31.4258L31.6104 38.1172V42H30.2979V32.0469ZM39.0752 32.0469H40.2031V42H38.8906V38.1172L39.0752 32.0469ZM48.5566 40.9268V42H43.5801V40.9268H48.5566ZM43.8398 32.0469V42H42.5205V32.0469H43.8398ZM59.9385 38.6504V39.6895H52.7471V38.9443L57.2041 32.0469H58.2363L57.1289 34.043L54.1826 38.6504H59.9385ZM58.5508 32.0469V42H57.2861V32.0469H58.5508ZM61.2441 41.3301C61.2441 41.1159 61.3102 40.9359 61.4424 40.79C61.5791 40.6396 61.7751 40.5645 62.0303 40.5645C62.2855 40.5645 62.4792 40.6396 62.6113 40.79C62.748 40.9359 62.8164 41.1159 62.8164 41.3301C62.8164 41.5397 62.748 41.7174 62.6113 41.8633C62.4792 42.0091 62.2855 42.082 62.0303 42.082C61.7751 42.082 61.5791 42.0091 61.4424 41.8633C61.3102 41.7174 61.2441 41.5397 61.2441 41.3301ZM71.0264 36.2305V37.748C71.0264 38.5638 70.9535 39.252 70.8076 39.8125C70.6618 40.373 70.4521 40.8242 70.1787 41.166C69.9053 41.5078 69.5749 41.7562 69.1875 41.9111C68.8047 42.0615 68.3717 42.1367 67.8887 42.1367C67.5059 42.1367 67.1527 42.0889 66.8291 41.9932C66.5055 41.8975 66.2139 41.7448 65.9541 41.5352C65.6989 41.321 65.4801 41.043 65.2979 40.7012C65.1156 40.3594 64.9766 39.9447 64.8809 39.457C64.7852 38.9694 64.7373 38.3997 64.7373 37.748V36.2305C64.7373 35.4147 64.8102 34.7311 64.9561 34.1797C65.1064 33.6283 65.3184 33.1862 65.5918 32.8535C65.8652 32.5163 66.1934 32.2747 66.5762 32.1289C66.9635 31.9831 67.3965 31.9102 67.875 31.9102C68.2624 31.9102 68.6178 31.958 68.9414 32.0537C69.2695 32.1449 69.5612 32.293 69.8164 32.498C70.0716 32.6986 70.2881 32.9674 70.4658 33.3047C70.6481 33.6374 70.7871 34.0452 70.8828 34.5283C70.9785 35.0114 71.0264 35.5788 71.0264 36.2305ZM69.7549 37.9531V36.0186C69.7549 35.5719 69.7275 35.18 69.6729 34.8428C69.6227 34.501 69.5475 34.2093 69.4473 33.9678C69.347 33.7262 69.2194 33.5303 69.0645 33.3799C68.9141 33.2295 68.7386 33.1201 68.5381 33.0518C68.3421 32.9788 68.1211 32.9424 67.875 32.9424C67.5742 32.9424 67.3076 32.9993 67.0752 33.1133C66.8428 33.2227 66.6468 33.3981 66.4873 33.6396C66.3324 33.8812 66.2139 34.1979 66.1318 34.5898C66.0498 34.9818 66.0088 35.458 66.0088 36.0186V37.9531C66.0088 38.3997 66.0339 38.7939 66.084 39.1357C66.1387 39.4775 66.2184 39.7738 66.3232 40.0244C66.4281 40.2705 66.5557 40.4733 66.7061 40.6328C66.8564 40.7923 67.0296 40.9108 67.2256 40.9883C67.4261 41.0612 67.6471 41.0977 67.8887 41.0977C68.1986 41.0977 68.4697 41.0384 68.7021 40.9199C68.9346 40.8014 69.1283 40.6169 69.2832 40.3662C69.4427 40.111 69.5612 39.7852 69.6387 39.3887C69.7161 38.9876 69.7549 38.5091 69.7549 37.9531ZM76.8096 31.9922V42H75.5449V33.5713L72.9951 34.501V33.3594L76.6113 31.9922H76.8096ZM85.0674 32.0469L80.918 42.8545H79.8311L83.9873 32.0469H85.0674ZM89.3193 32.0469L85.1699 42.8545H84.083L88.2393 32.0469H89.3193ZM97.2148 40.9268V42H91.9443V40.9268H97.2148ZM92.2109 32.0469V42H90.8916V32.0469H92.2109ZM96.5176 36.3262V37.3994H91.9443V36.3262H96.5176ZM97.1465 32.0469V33.127H91.9443V32.0469H97.1465ZM106.505 32.0469V42H105.179L100.168 34.3232V42H98.8486V32.0469H100.168L105.199 39.7441V32.0469H106.505ZM109.588 31.5V32.4297L109.383 34.8701H108.624V32.4912V31.5H109.588ZM111.434 31.5V32.4297L111.229 34.8701H110.47V32.4434V31.5H111.434ZM117.545 31.5V32.4297L117.34 34.8701H116.581V32.4912V31.5H117.545ZM119.391 31.5V32.4297L119.186 34.8701H118.427V32.4434V31.5H119.391ZM122.357 31.5V42H121.093V31.5H122.357ZM122.057 38.0215L121.53 38.001C121.535 37.4951 121.61 37.028 121.756 36.5996C121.902 36.1667 122.107 35.7907 122.371 35.4717C122.635 35.1527 122.95 34.9066 123.314 34.7334C123.684 34.5557 124.091 34.4668 124.538 34.4668C124.903 34.4668 125.231 34.5169 125.522 34.6172C125.814 34.7129 126.062 34.8678 126.268 35.082C126.477 35.2962 126.637 35.5742 126.746 35.916C126.855 36.2533 126.91 36.6657 126.91 37.1533V42H125.639V37.1396C125.639 36.7523 125.582 36.4424 125.468 36.21C125.354 35.973 125.188 35.8021 124.969 35.6973C124.75 35.5879 124.481 35.5332 124.162 35.5332C123.848 35.5332 123.561 35.5993 123.301 35.7314C123.046 35.8636 122.825 36.0459 122.638 36.2783C122.455 36.5107 122.312 36.7773 122.207 37.0781C122.107 37.3743 122.057 37.6888 122.057 38.0215ZM131.9 34.6035V35.5742H127.901V34.6035H131.9ZM129.255 32.8057H130.52V40.168C130.52 40.4186 130.558 40.6077 130.636 40.7354C130.713 40.863 130.813 40.9473 130.937 40.9883C131.06 41.0293 131.192 41.0498 131.333 41.0498C131.438 41.0498 131.547 41.0407 131.661 41.0225C131.78 40.9997 131.868 40.9814 131.928 40.9678L131.935 42C131.834 42.0319 131.702 42.0615 131.538 42.0889C131.379 42.1208 131.185 42.1367 130.957 42.1367C130.647 42.1367 130.362 42.0752 130.103 41.9521C129.843 41.8291 129.635 41.624 129.48 41.3369C129.33 41.0452 129.255 40.6533 129.255 40.1611V32.8057ZM136.48 34.6035V35.5742H132.481V34.6035H136.48ZM133.835 32.8057H135.1V40.168C135.1 40.4186 135.138 40.6077 135.216 40.7354C135.293 40.863 135.394 40.9473 135.517 40.9883C135.64 41.0293 135.772 41.0498 135.913 41.0498C136.018 41.0498 136.127 41.0407 136.241 41.0225C136.36 40.9997 136.449 40.9814 136.508 40.9678L136.515 42C136.414 42.0319 136.282 42.0615 136.118 42.0889C135.959 42.1208 135.765 42.1367 135.537 42.1367C135.227 42.1367 134.942 42.0752 134.683 41.9521C134.423 41.8291 134.215 41.624 134.061 41.3369C133.91 41.0452 133.835 40.6533 133.835 40.1611V32.8057ZM139.229 36.0254V44.8438H137.957V34.6035H139.119L139.229 36.0254ZM144.212 38.2402V38.3838C144.212 38.9215 144.148 39.4206 144.021 39.8809C143.893 40.3366 143.706 40.7331 143.46 41.0703C143.218 41.4076 142.92 41.6696 142.564 41.8564C142.209 42.0433 141.801 42.1367 141.341 42.1367C140.871 42.1367 140.457 42.0592 140.097 41.9043C139.737 41.7493 139.431 41.5238 139.181 41.2275C138.93 40.9313 138.729 40.5758 138.579 40.1611C138.433 39.7464 138.333 39.2793 138.278 38.7598V37.9941C138.333 37.4473 138.436 36.9574 138.586 36.5244C138.736 36.0915 138.935 35.7223 139.181 35.417C139.431 35.1071 139.734 34.8724 140.09 34.7129C140.445 34.5488 140.855 34.4668 141.32 34.4668C141.785 34.4668 142.198 34.5579 142.558 34.7402C142.918 34.918 143.221 35.1732 143.467 35.5059C143.713 35.8385 143.897 36.2373 144.021 36.7021C144.148 37.1624 144.212 37.6751 144.212 38.2402ZM142.94 38.3838V38.2402C142.94 37.8711 142.902 37.5247 142.824 37.2012C142.747 36.873 142.626 36.5859 142.462 36.3398C142.302 36.0892 142.097 35.8932 141.847 35.752C141.596 35.6061 141.298 35.5332 140.951 35.5332C140.632 35.5332 140.354 35.5879 140.117 35.6973C139.885 35.8066 139.687 35.9548 139.522 36.1416C139.358 36.3239 139.224 36.5335 139.119 36.7705C139.019 37.0029 138.944 37.2445 138.894 37.4951V39.2656C138.985 39.5846 139.112 39.8854 139.276 40.168C139.44 40.446 139.659 40.6715 139.933 40.8447C140.206 41.0133 140.55 41.0977 140.965 41.0977C141.307 41.0977 141.601 41.027 141.847 40.8857C142.097 40.7399 142.302 40.5417 142.462 40.291C142.626 40.0404 142.747 39.7533 142.824 39.4297C142.902 39.1016 142.94 38.7529 142.94 38.3838ZM145.771 41.3301C145.771 41.1159 145.837 40.9359 145.969 40.79C146.105 40.6396 146.301 40.5645 146.557 40.5645C146.812 40.5645 147.006 40.6396 147.138 40.79C147.274 40.9359 147.343 41.1159 147.343 41.3301C147.343 41.5397 147.274 41.7174 147.138 41.8633C147.006 42.0091 146.812 42.082 146.557 42.082C146.301 42.082 146.105 42.0091 145.969 41.8633C145.837 41.7174 145.771 41.5397 145.771 41.3301ZM145.777 35.2939C145.777 35.0798 145.843 34.8997 145.976 34.7539C146.112 34.6035 146.308 34.5283 146.563 34.5283C146.819 34.5283 147.012 34.6035 147.145 34.7539C147.281 34.8997 147.35 35.0798 147.35 35.2939C147.35 35.5036 147.281 35.6813 147.145 35.8271C147.012 35.973 146.819 36.0459 146.563 36.0459C146.308 36.0459 146.112 35.973 145.976 35.8271C145.843 35.6813 145.777 35.5036 145.777 35.2939ZM153.618 32.0469L149.469 42.8545H148.382L152.538 32.0469H153.618ZM157.87 32.0469L153.721 42.8545H152.634L156.79 32.0469H157.87ZM161.124 40.6875L163.024 34.6035H163.858L163.694 35.8135L161.76 42H160.946L161.124 40.6875ZM159.846 34.6035L161.466 40.7559L161.582 42H160.728L158.581 34.6035H159.846ZM165.677 40.708L167.222 34.6035H168.479L166.333 42H165.485L165.677 40.708ZM164.043 34.6035L165.902 40.585L166.114 42H165.308L163.318 35.7998L163.154 34.6035H164.043ZM171.651 40.6875L173.552 34.6035H174.386L174.222 35.8135L172.287 42H171.474L171.651 40.6875ZM170.373 34.6035L171.993 40.7559L172.109 42H171.255L169.108 34.6035H170.373ZM176.204 40.708L177.749 34.6035H179.007L176.86 42H176.013L176.204 40.708ZM174.57 34.6035L176.43 40.585L176.642 42H175.835L173.846 35.7998L173.682 34.6035H174.57ZM182.179 40.6875L184.079 34.6035H184.913L184.749 35.8135L182.814 42H182.001L182.179 40.6875ZM180.9 34.6035L182.521 40.7559L182.637 42H181.782L179.636 34.6035H180.9ZM186.731 40.708L188.276 34.6035H189.534L187.388 42H186.54L186.731 40.708ZM185.098 34.6035L186.957 40.585L187.169 42H186.362L184.373 35.7998L184.209 34.6035H185.098ZM190.006 41.3301C190.006 41.1159 190.072 40.9359 190.204 40.79C190.341 40.6396 190.537 40.5645 190.792 40.5645C191.047 40.5645 191.241 40.6396 191.373 40.79C191.51 40.9359 191.578 41.1159 191.578 41.3301C191.578 41.5397 191.51 41.7174 191.373 41.8633C191.241 42.0091 191.047 42.082 190.792 42.082C190.537 42.082 190.341 42.0091 190.204 41.8633C190.072 41.7174 190.006 41.5397 190.006 41.3301ZM195.55 40.6875L197.45 34.6035H198.284L198.12 35.8135L196.186 42H195.372L195.55 40.6875ZM194.271 34.6035L195.892 40.7559L196.008 42H195.153L193.007 34.6035H194.271ZM200.103 40.708L201.647 34.6035H202.905L200.759 42H199.911L200.103 40.708ZM198.469 34.6035L200.328 40.585L200.54 42H199.733L197.744 35.7998L197.58 34.6035H198.469ZM205.913 36.4014H206.815C207.257 36.4014 207.622 36.3285 207.909 36.1826C208.201 36.0322 208.417 35.8294 208.559 35.5742C208.704 35.3145 208.777 35.0228 208.777 34.6992C208.777 34.3164 208.714 33.9951 208.586 33.7354C208.458 33.4756 208.267 33.2796 208.012 33.1475C207.757 33.0153 207.433 32.9492 207.041 32.9492C206.686 32.9492 206.371 33.0199 206.098 33.1611C205.829 33.2979 205.617 33.4938 205.462 33.749C205.312 34.0042 205.236 34.305 205.236 34.6514H203.972C203.972 34.1455 204.099 33.6852 204.354 33.2705C204.61 32.8558 204.967 32.5254 205.428 32.2793C205.893 32.0332 206.43 31.9102 207.041 31.9102C207.643 31.9102 208.169 32.0173 208.62 32.2314C209.071 32.4411 209.422 32.7555 209.673 33.1748C209.924 33.5895 210.049 34.1068 210.049 34.7266C210.049 34.9772 209.99 35.2461 209.871 35.5332C209.757 35.8158 209.577 36.0801 209.331 36.3262C209.09 36.5723 208.775 36.7751 208.388 36.9346C208 37.0895 207.535 37.167 206.993 37.167H205.913V36.4014ZM205.913 37.4404V36.6816H206.993C207.627 36.6816 208.151 36.7568 208.565 36.9072C208.98 37.0576 209.306 37.2581 209.543 37.5088C209.785 37.7594 209.953 38.0352 210.049 38.3359C210.149 38.6322 210.199 38.9284 210.199 39.2246C210.199 39.6895 210.119 40.1019 209.96 40.4619C209.805 40.8219 209.584 41.1273 209.297 41.3779C209.014 41.6286 208.682 41.8177 208.299 41.9453C207.916 42.0729 207.499 42.1367 207.048 42.1367C206.615 42.1367 206.207 42.0752 205.824 41.9521C205.446 41.8291 205.111 41.6514 204.819 41.4189C204.528 41.182 204.3 40.8926 204.136 40.5508C203.972 40.2044 203.89 39.8102 203.89 39.3682H205.154C205.154 39.7145 205.229 40.0176 205.38 40.2773C205.535 40.5371 205.754 40.7399 206.036 40.8857C206.323 41.027 206.66 41.0977 207.048 41.0977C207.435 41.0977 207.768 41.0316 208.046 40.8994C208.328 40.7627 208.545 40.5576 208.695 40.2842C208.85 40.0107 208.928 39.6667 208.928 39.252C208.928 38.8372 208.841 38.4977 208.668 38.2334C208.495 37.9645 208.249 37.7663 207.93 37.6387C207.615 37.5065 207.244 37.4404 206.815 37.4404H205.913ZM212.1 41.3301C212.1 41.1159 212.166 40.9359 212.298 40.79C212.435 40.6396 212.631 40.5645 212.886 40.5645C213.141 40.5645 213.335 40.6396 213.467 40.79C213.604 40.9359 213.672 41.1159 213.672 41.3301C213.672 41.5397 213.604 41.7174 213.467 41.8633C213.335 42.0091 213.141 42.082 212.886 42.082C212.631 42.082 212.435 42.0091 212.298 41.8633C212.166 41.7174 212.1 41.5397 212.1 41.3301ZM215.436 38.3838V38.2266C215.436 37.6934 215.513 37.1989 215.668 36.7432C215.823 36.2829 216.046 35.8841 216.338 35.5469C216.63 35.2051 216.983 34.9408 217.397 34.7539C217.812 34.5625 218.277 34.4668 218.792 34.4668C219.312 34.4668 219.779 34.5625 220.193 34.7539C220.613 34.9408 220.968 35.2051 221.26 35.5469C221.556 35.8841 221.782 36.2829 221.937 36.7432C222.091 37.1989 222.169 37.6934 222.169 38.2266V38.3838C222.169 38.917 222.091 39.4115 221.937 39.8672C221.782 40.3229 221.556 40.7217 221.26 41.0635C220.968 41.4007 220.615 41.665 220.2 41.8564C219.79 42.0433 219.325 42.1367 218.806 42.1367C218.286 42.1367 217.819 42.0433 217.404 41.8564C216.99 41.665 216.634 41.4007 216.338 41.0635C216.046 40.7217 215.823 40.3229 215.668 39.8672C215.513 39.4115 215.436 38.917 215.436 38.3838ZM216.7 38.2266V38.3838C216.7 38.7529 216.743 39.1016 216.83 39.4297C216.917 39.7533 217.047 40.0404 217.22 40.291C217.397 40.5417 217.618 40.7399 217.883 40.8857C218.147 41.027 218.455 41.0977 218.806 41.0977C219.152 41.0977 219.455 41.027 219.715 40.8857C219.979 40.7399 220.198 40.5417 220.371 40.291C220.544 40.0404 220.674 39.7533 220.761 39.4297C220.852 39.1016 220.897 38.7529 220.897 38.3838V38.2266C220.897 37.862 220.852 37.5179 220.761 37.1943C220.674 36.8662 220.542 36.5768 220.364 36.3262C220.191 36.071 219.972 35.8704 219.708 35.7246C219.448 35.5788 219.143 35.5059 218.792 35.5059C218.446 35.5059 218.14 35.5788 217.876 35.7246C217.616 35.8704 217.397 36.071 217.22 36.3262C217.047 36.5768 216.917 36.8662 216.83 37.1943C216.743 37.5179 216.7 37.862 216.7 38.2266ZM225.02 35.7656V42H223.755V34.6035H224.985L225.02 35.7656ZM227.33 34.5625L227.323 35.7383C227.218 35.7155 227.118 35.7018 227.022 35.6973C226.931 35.6882 226.826 35.6836 226.708 35.6836C226.416 35.6836 226.159 35.7292 225.936 35.8203C225.712 35.9115 225.523 36.0391 225.368 36.2031C225.213 36.3672 225.09 36.5632 224.999 36.791C224.912 37.0143 224.855 37.2604 224.828 37.5293L224.473 37.7344C224.473 37.2878 224.516 36.8685 224.603 36.4766C224.694 36.0846 224.833 35.7383 225.02 35.4375C225.206 35.1322 225.443 34.8952 225.73 34.7266C226.022 34.5534 226.368 34.4668 226.77 34.4668C226.861 34.4668 226.965 34.4782 227.084 34.501C227.202 34.5192 227.285 34.5397 227.33 34.5625ZM233.154 34.6035H234.303V41.8428C234.303 42.4945 234.171 43.0505 233.906 43.5107C233.642 43.971 233.273 44.3197 232.799 44.5566C232.329 44.7982 231.787 44.9189 231.172 44.9189C230.917 44.9189 230.616 44.8779 230.27 44.7959C229.928 44.7184 229.59 44.584 229.258 44.3926C228.93 44.2057 228.654 43.9528 228.431 43.6338L229.094 42.8818C229.404 43.2555 229.727 43.5153 230.064 43.6611C230.406 43.807 230.743 43.8799 231.076 43.8799C231.477 43.8799 231.824 43.8047 232.115 43.6543C232.407 43.5039 232.632 43.2806 232.792 42.9844C232.956 42.6927 233.038 42.3327 233.038 41.9043V36.2305L233.154 34.6035ZM228.062 38.3838V38.2402C228.062 37.6751 228.128 37.1624 228.26 36.7021C228.396 36.2373 228.59 35.8385 228.841 35.5059C229.096 35.1732 229.404 34.918 229.764 34.7402C230.124 34.5579 230.529 34.4668 230.98 34.4668C231.445 34.4668 231.851 34.5488 232.197 34.7129C232.548 34.8724 232.844 35.1071 233.086 35.417C233.332 35.7223 233.526 36.0915 233.667 36.5244C233.808 36.9574 233.906 37.4473 233.961 37.9941V38.623C233.911 39.1654 233.813 39.653 233.667 40.0859C233.526 40.5189 233.332 40.888 233.086 41.1934C232.844 41.4987 232.548 41.7334 232.197 41.8975C231.846 42.057 231.436 42.1367 230.967 42.1367C230.525 42.1367 230.124 42.0433 229.764 41.8564C229.408 41.6696 229.103 41.4076 228.848 41.0703C228.592 40.7331 228.396 40.3366 228.26 39.8809C228.128 39.4206 228.062 38.9215 228.062 38.3838ZM229.326 38.2402V38.3838C229.326 38.7529 229.363 39.0993 229.436 39.4229C229.513 39.7464 229.629 40.0312 229.784 40.2773C229.944 40.5234 230.146 40.7171 230.393 40.8584C230.639 40.9951 230.933 41.0635 231.274 41.0635C231.694 41.0635 232.04 40.9746 232.313 40.7969C232.587 40.6191 232.803 40.3844 232.963 40.0928C233.127 39.8011 233.255 39.4844 233.346 39.1426V37.4951C233.296 37.2445 233.218 37.0029 233.113 36.7705C233.013 36.5335 232.881 36.3239 232.717 36.1416C232.557 35.9548 232.359 35.8066 232.122 35.6973C231.885 35.5879 231.607 35.5332 231.288 35.5332C230.942 35.5332 230.643 35.6061 230.393 35.752C230.146 35.8932 229.944 36.0892 229.784 36.3398C229.629 36.5859 229.513 36.873 229.436 37.2012C229.363 37.5247 229.326 37.8711 229.326 38.2402ZM240.626 32.0469L236.477 42.8545H235.39L239.546 32.0469H240.626ZM245.876 32.0469V42H244.577V32.0469H245.876ZM249.075 32.0469V33.127H241.385V32.0469H249.075ZM250.552 32.0469H253.847C254.594 32.0469 255.225 32.1608 255.74 32.3887C256.26 32.6165 256.654 32.9538 256.923 33.4004C257.196 33.8424 257.333 34.387 257.333 35.0342C257.333 35.4899 257.24 35.9069 257.053 36.2852C256.87 36.6589 256.606 36.9779 256.26 37.2422C255.918 37.502 255.508 37.6956 255.029 37.8232L254.66 37.9668H251.563L251.55 36.8936H253.888C254.362 36.8936 254.756 36.8115 255.07 36.6475C255.385 36.4788 255.622 36.2533 255.781 35.9707C255.941 35.6882 256.021 35.376 256.021 35.0342C256.021 34.6514 255.945 34.3164 255.795 34.0293C255.645 33.7422 255.408 33.5212 255.084 33.3662C254.765 33.2067 254.353 33.127 253.847 33.127H251.871V42H250.552V32.0469ZM256.369 42L253.949 37.4883L255.323 37.4814L257.777 41.918V42H256.369ZM263.39 32.0469L259.24 42.8545H258.153L262.31 32.0469H263.39ZM13.2285 50.5V61H11.9639V50.5H13.2285ZM12.9277 57.0215L12.4014 57.001C12.4059 56.4951 12.4811 56.028 12.627 55.5996C12.7728 55.1667 12.9779 54.7907 13.2422 54.4717C13.5065 54.1527 13.821 53.9066 14.1855 53.7334C14.5547 53.5557 14.9626 53.4668 15.4092 53.4668C15.7738 53.4668 16.1019 53.5169 16.3936 53.6172C16.6852 53.7129 16.9336 53.8678 17.1387 54.082C17.3483 54.2962 17.5078 54.5742 17.6172 54.916C17.7266 55.2533 17.7812 55.6657 17.7812 56.1533V61H16.5098V56.1396C16.5098 55.7523 16.4528 55.4424 16.3389 55.21C16.2249 54.973 16.0586 54.8021 15.8398 54.6973C15.6211 54.5879 15.3522 54.5332 15.0332 54.5332C14.7188 54.5332 14.4316 54.5993 14.1719 54.7314C13.9167 54.8636 13.6956 55.0459 13.5088 55.2783C13.3265 55.5107 13.1829 55.7773 13.0781 56.0781C12.9779 56.3743 12.9277 56.6888 12.9277 57.0215ZM22.7715 53.6035V54.5742H18.7725V53.6035H22.7715ZM20.126 51.8057H21.3906V59.168C21.3906 59.4186 21.4294 59.6077 21.5068 59.7354C21.5843 59.863 21.6846 59.9473 21.8076 59.9883C21.9307 60.0293 22.0628 60.0498 22.2041 60.0498C22.3089 60.0498 22.4183 60.0407 22.5322 60.0225C22.6507 59.9997 22.7396 59.9814 22.7988 59.9678L22.8057 61C22.7054 61.0319 22.5732 61.0615 22.4092 61.0889C22.2497 61.1208 22.056 61.1367 21.8281 61.1367C21.5182 61.1367 21.2334 61.0752 20.9736 60.9521C20.7139 60.8291 20.5065 60.624 20.3516 60.3369C20.2012 60.0452 20.126 59.6533 20.126 59.1611V51.8057ZM25.5127 55.0732V61H24.2412V53.6035H25.4443L25.5127 55.0732ZM25.2529 57.0215L24.665 57.001C24.6696 56.4951 24.7357 56.028 24.8633 55.5996C24.9909 55.1667 25.18 54.7907 25.4307 54.4717C25.6813 54.1527 25.9935 53.9066 26.3672 53.7334C26.7409 53.5557 27.1738 53.4668 27.666 53.4668C28.0124 53.4668 28.3314 53.5169 28.623 53.6172C28.9147 53.7129 29.1676 53.8656 29.3818 54.0752C29.596 54.2848 29.7624 54.5537 29.8809 54.8818C29.9993 55.21 30.0586 55.6064 30.0586 56.0713V61H28.7939V56.1328C28.7939 55.7454 28.7279 55.4355 28.5957 55.2031C28.4681 54.9707 28.2858 54.8021 28.0488 54.6973C27.8118 54.5879 27.5339 54.5332 27.2148 54.5332C26.8411 54.5332 26.529 54.5993 26.2783 54.7314C26.0277 54.8636 25.8271 55.0459 25.6768 55.2783C25.5264 55.5107 25.417 55.7773 25.3486 56.0781C25.2848 56.3743 25.2529 56.6888 25.2529 57.0215ZM30.0449 56.3242L29.1973 56.584C29.2018 56.1784 29.2679 55.7887 29.3955 55.415C29.5277 55.0413 29.7168 54.7087 29.9629 54.417C30.2135 54.1253 30.5212 53.8952 30.8857 53.7266C31.2503 53.5534 31.6673 53.4668 32.1367 53.4668C32.5332 53.4668 32.8841 53.5192 33.1895 53.624C33.4993 53.7288 33.7591 53.8906 33.9688 54.1094C34.1829 54.3236 34.3447 54.5993 34.4541 54.9365C34.5635 55.2738 34.6182 55.6748 34.6182 56.1396V61H33.3467V56.126C33.3467 55.7113 33.2806 55.39 33.1484 55.1621C33.0208 54.9297 32.8385 54.7679 32.6016 54.6768C32.3691 54.5811 32.0911 54.5332 31.7676 54.5332C31.4896 54.5332 31.2435 54.5811 31.0293 54.6768C30.8151 54.7725 30.6351 54.9046 30.4893 55.0732C30.3434 55.2373 30.2318 55.4264 30.1543 55.6406C30.0814 55.8548 30.0449 56.0827 30.0449 56.3242ZM37.9062 50.5V61H36.6348V50.5H37.9062ZM46.5264 57.6504V58.6895H39.335V57.9443L43.792 51.0469H44.8242L43.7168 53.043L40.7705 57.6504H46.5264ZM45.1387 51.0469V61H43.874V51.0469H45.1387ZM52.2139 51.0469L48.0645 61.8545H46.9775L51.1338 51.0469H52.2139ZM57.9014 59.0381C57.9014 58.8558 57.8604 58.6872 57.7783 58.5322C57.7008 58.3727 57.5391 58.2292 57.293 58.1016C57.0514 57.9694 56.6868 57.8555 56.1992 57.7598C55.7891 57.6732 55.4176 57.5706 55.085 57.4521C54.7568 57.3337 54.4766 57.1901 54.2441 57.0215C54.0163 56.8529 53.8408 56.6546 53.7178 56.4268C53.5947 56.1989 53.5332 55.9323 53.5332 55.627C53.5332 55.3353 53.597 55.0596 53.7246 54.7998C53.8568 54.54 54.0413 54.3099 54.2783 54.1094C54.5199 53.9089 54.8092 53.7516 55.1465 53.6377C55.4837 53.5238 55.8597 53.4668 56.2744 53.4668C56.8669 53.4668 57.3727 53.5716 57.792 53.7812C58.2113 53.9909 58.5326 54.2712 58.7559 54.6221C58.9792 54.9684 59.0908 55.3535 59.0908 55.7773H57.8262C57.8262 55.5723 57.7646 55.374 57.6416 55.1826C57.5231 54.9867 57.3477 54.8249 57.1152 54.6973C56.8874 54.5697 56.6071 54.5059 56.2744 54.5059C55.9235 54.5059 55.6387 54.5605 55.4199 54.6699C55.2057 54.7747 55.0485 54.9092 54.9482 55.0732C54.8525 55.2373 54.8047 55.4105 54.8047 55.5928C54.8047 55.7295 54.8275 55.8525 54.873 55.9619C54.9232 56.0667 55.0098 56.1647 55.1328 56.2559C55.2559 56.3424 55.429 56.4245 55.6523 56.502C55.8757 56.5794 56.1605 56.6569 56.5068 56.7344C57.113 56.8711 57.612 57.0352 58.0039 57.2266C58.3958 57.418 58.6875 57.6527 58.8789 57.9307C59.0703 58.2087 59.166 58.5459 59.166 58.9424C59.166 59.266 59.0977 59.5622 58.9609 59.8311C58.8288 60.0999 58.6351 60.3324 58.3799 60.5283C58.1292 60.7197 57.8285 60.8701 57.4775 60.9795C57.1312 61.0843 56.7415 61.1367 56.3086 61.1367C55.6569 61.1367 55.1055 61.0205 54.6543 60.7881C54.2031 60.5557 53.8613 60.2549 53.6289 59.8857C53.3965 59.5166 53.2803 59.127 53.2803 58.7168H54.5518C54.57 59.0632 54.6702 59.3389 54.8525 59.5439C55.0348 59.7445 55.2581 59.888 55.5225 59.9746C55.7868 60.0566 56.0488 60.0977 56.3086 60.0977C56.6549 60.0977 56.9443 60.0521 57.1768 59.9609C57.4137 59.8698 57.5938 59.7445 57.7168 59.585C57.8398 59.4255 57.9014 59.2432 57.9014 59.0381ZM63.9238 53.6035V54.5742H59.9248V53.6035H63.9238ZM61.2783 51.8057H62.543V59.168C62.543 59.4186 62.5817 59.6077 62.6592 59.7354C62.7367 59.863 62.8369 59.9473 62.96 59.9883C63.083 60.0293 63.2152 60.0498 63.3564 60.0498C63.4613 60.0498 63.5706 60.0407 63.6846 60.0225C63.8031 59.9997 63.8919 59.9814 63.9512 59.9678L63.958 61C63.8577 61.0319 63.7256 61.0615 63.5615 61.0889C63.402 61.1208 63.2083 61.1367 62.9805 61.1367C62.6706 61.1367 62.3857 61.0752 62.126 60.9521C61.8662 60.8291 61.6589 60.624 61.5039 60.3369C61.3535 60.0452 61.2783 59.6533 61.2783 59.1611V51.8057ZM66.6719 54.7656V61H65.4072V53.6035H66.6377L66.6719 54.7656ZM68.9824 53.5625L68.9756 54.7383C68.8708 54.7155 68.7705 54.7018 68.6748 54.6973C68.5837 54.6882 68.4788 54.6836 68.3604 54.6836C68.0687 54.6836 67.8112 54.7292 67.5879 54.8203C67.3646 54.9115 67.1755 55.0391 67.0205 55.2031C66.8656 55.3672 66.7425 55.5632 66.6514 55.791C66.5648 56.0143 66.5078 56.2604 66.4805 56.5293L66.125 56.7344C66.125 56.2878 66.1683 55.8685 66.2549 55.4766C66.346 55.0846 66.485 54.7383 66.6719 54.4375C66.8587 54.1322 67.0957 53.8952 67.3828 53.7266C67.6745 53.5534 68.0208 53.4668 68.4219 53.4668C68.513 53.4668 68.6178 53.4782 68.7363 53.501C68.8548 53.5192 68.9368 53.5397 68.9824 53.5625ZM71.5254 53.6035V61H70.2539V53.6035H71.5254ZM70.1582 51.6416C70.1582 51.4365 70.2197 51.2633 70.3428 51.1221C70.4704 50.9808 70.6572 50.9102 70.9033 50.9102C71.1449 50.9102 71.3294 50.9808 71.457 51.1221C71.5892 51.2633 71.6553 51.4365 71.6553 51.6416C71.6553 51.8376 71.5892 52.0062 71.457 52.1475C71.3294 52.2842 71.1449 52.3525 70.9033 52.3525C70.6572 52.3525 70.4704 52.2842 70.3428 52.1475C70.2197 52.0062 70.1582 51.8376 70.1582 51.6416ZM76.5156 60.0977C76.8164 60.0977 77.0944 60.0361 77.3496 59.9131C77.6048 59.79 77.8145 59.6214 77.9785 59.4072C78.1426 59.1885 78.236 58.9401 78.2588 58.6621H79.4619C79.4391 59.0996 79.291 59.5075 79.0176 59.8857C78.7487 60.2594 78.3955 60.5625 77.958 60.7949C77.5205 61.0228 77.0397 61.1367 76.5156 61.1367C75.9596 61.1367 75.4743 61.0387 75.0596 60.8428C74.6494 60.6468 74.3076 60.3779 74.0342 60.0361C73.7653 59.6943 73.5625 59.3024 73.4258 58.8604C73.2936 58.4137 73.2275 57.9421 73.2275 57.4453V57.1582C73.2275 56.6615 73.2936 56.1921 73.4258 55.75C73.5625 55.3034 73.7653 54.9092 74.0342 54.5674C74.3076 54.2256 74.6494 53.9567 75.0596 53.7607C75.4743 53.5648 75.9596 53.4668 76.5156 53.4668C77.0944 53.4668 77.6003 53.5853 78.0332 53.8223C78.4661 54.0547 78.8057 54.3737 79.0518 54.7793C79.3024 55.1803 79.4391 55.6361 79.4619 56.1465H78.2588C78.236 55.8411 78.1494 55.5654 77.999 55.3193C77.8532 55.0732 77.6527 54.8773 77.3975 54.7314C77.1468 54.5811 76.8529 54.5059 76.5156 54.5059C76.1283 54.5059 75.8024 54.5833 75.5381 54.7383C75.2783 54.8887 75.071 55.0938 74.916 55.3535C74.7656 55.6087 74.6562 55.8936 74.5879 56.208C74.5241 56.5179 74.4922 56.8346 74.4922 57.1582V57.4453C74.4922 57.7689 74.5241 58.0879 74.5879 58.4023C74.6517 58.7168 74.7588 59.0016 74.9092 59.2568C75.0641 59.512 75.2715 59.7171 75.5312 59.8721C75.7956 60.0225 76.1237 60.0977 76.5156 60.0977ZM83.9805 53.6035V54.5742H79.9814V53.6035H83.9805ZM81.335 51.8057H82.5996V59.168C82.5996 59.4186 82.6383 59.6077 82.7158 59.7354C82.7933 59.863 82.8936 59.9473 83.0166 59.9883C83.1396 60.0293 83.2718 60.0498 83.4131 60.0498C83.5179 60.0498 83.6273 60.0407 83.7412 60.0225C83.8597 59.9997 83.9486 59.9814 84.0078 59.9678L84.0146 61C83.9144 61.0319 83.7822 61.0615 83.6182 61.0889C83.4587 61.1208 83.265 61.1367 83.0371 61.1367C82.7272 61.1367 82.4424 61.0752 82.1826 60.9521C81.9229 60.8291 81.7155 60.624 81.5605 60.3369C81.4102 60.0452 81.335 59.6533 81.335 59.1611V51.8057ZM85.4844 60.3301C85.4844 60.1159 85.5505 59.9359 85.6826 59.79C85.8193 59.6396 86.0153 59.5645 86.2705 59.5645C86.5257 59.5645 86.7194 59.6396 86.8516 59.79C86.9883 59.9359 87.0566 60.1159 87.0566 60.3301C87.0566 60.5397 86.9883 60.7174 86.8516 60.8633C86.7194 61.0091 86.5257 61.082 86.2705 61.082C86.0153 61.082 85.8193 61.0091 85.6826 60.8633C85.5505 60.7174 85.4844 60.5397 85.4844 60.3301ZM93.8174 59.5645V50.5H95.0889V61H93.9268L93.8174 59.5645ZM88.8408 57.3838V57.2402C88.8408 56.6751 88.9092 56.1624 89.0459 55.7021C89.1872 55.2373 89.3854 54.8385 89.6406 54.5059C89.9004 54.1732 90.208 53.918 90.5635 53.7402C90.9235 53.5579 91.3245 53.4668 91.7666 53.4668C92.2314 53.4668 92.637 53.5488 92.9834 53.7129C93.3343 53.8724 93.6305 54.1071 93.8721 54.417C94.1182 54.7223 94.3118 55.0915 94.4531 55.5244C94.5944 55.9574 94.6924 56.4473 94.7471 56.9941V57.623C94.6969 58.1654 94.599 58.653 94.4531 59.0859C94.3118 59.5189 94.1182 59.888 93.8721 60.1934C93.6305 60.4987 93.3343 60.7334 92.9834 60.8975C92.6325 61.057 92.2223 61.1367 91.7529 61.1367C91.32 61.1367 90.9235 61.0433 90.5635 60.8564C90.208 60.6696 89.9004 60.4076 89.6406 60.0703C89.3854 59.7331 89.1872 59.3366 89.0459 58.8809C88.9092 58.4206 88.8408 57.9215 88.8408 57.3838ZM90.1123 57.2402V57.3838C90.1123 57.7529 90.1488 58.0993 90.2217 58.4229C90.2992 58.7464 90.4176 59.0312 90.5771 59.2773C90.7367 59.5234 90.9395 59.7171 91.1855 59.8584C91.4316 59.9951 91.7256 60.0635 92.0674 60.0635C92.4867 60.0635 92.8307 59.9746 93.0996 59.7969C93.373 59.6191 93.5918 59.3844 93.7559 59.0928C93.9199 58.8011 94.0475 58.4844 94.1387 58.1426V56.4951C94.084 56.2445 94.0042 56.0029 93.8994 55.7705C93.7992 55.5335 93.667 55.3239 93.5029 55.1416C93.3434 54.9548 93.1452 54.8066 92.9082 54.6973C92.6758 54.5879 92.4001 54.5332 92.0811 54.5332C91.7347 54.5332 91.4362 54.6061 91.1855 54.752C90.9395 54.8932 90.7367 55.0892 90.5771 55.3398C90.4176 55.5859 90.2992 55.873 90.2217 56.2012C90.1488 56.5247 90.1123 56.8711 90.1123 57.2402ZM100.154 53.6035V54.5742H96.1553V53.6035H100.154ZM97.5088 51.8057H98.7734V59.168C98.7734 59.4186 98.8122 59.6077 98.8896 59.7354C98.9671 59.863 99.0674 59.9473 99.1904 59.9883C99.3135 60.0293 99.4456 60.0498 99.5869 60.0498C99.6917 60.0498 99.8011 60.0407 99.915 60.0225C100.034 59.9997 100.122 59.9814 100.182 59.9678L100.188 61C100.088 61.0319 99.9561 61.0615 99.792 61.0889C99.6325 61.1208 99.4388 61.1367 99.2109 61.1367C98.901 61.1367 98.6162 61.0752 98.3564 60.9521C98.0967 60.8291 97.8893 60.624 97.7344 60.3369C97.584 60.0452 97.5088 59.6533 97.5088 59.1611V51.8057ZM106.3 59.5645V50.5H107.571V61H106.409L106.3 59.5645ZM101.323 57.3838V57.2402C101.323 56.6751 101.392 56.1624 101.528 55.7021C101.67 55.2373 101.868 54.8385 102.123 54.5059C102.383 54.1732 102.69 53.918 103.046 53.7402C103.406 53.5579 103.807 53.4668 104.249 53.4668C104.714 53.4668 105.119 53.5488 105.466 53.7129C105.817 53.8724 106.113 54.1071 106.354 54.417C106.601 54.7223 106.794 55.0915 106.936 55.5244C107.077 55.9574 107.175 56.4473 107.229 56.9941V57.623C107.179 58.1654 107.081 58.653 106.936 59.0859C106.794 59.5189 106.601 59.888 106.354 60.1934C106.113 60.4987 105.817 60.7334 105.466 60.8975C105.115 61.057 104.705 61.1367 104.235 61.1367C103.802 61.1367 103.406 61.0433 103.046 60.8564C102.69 60.6696 102.383 60.4076 102.123 60.0703C101.868 59.7331 101.67 59.3366 101.528 58.8809C101.392 58.4206 101.323 57.9215 101.323 57.3838ZM102.595 57.2402V57.3838C102.595 57.7529 102.631 58.0993 102.704 58.4229C102.782 58.7464 102.9 59.0312 103.06 59.2773C103.219 59.5234 103.422 59.7171 103.668 59.8584C103.914 59.9951 104.208 60.0635 104.55 60.0635C104.969 60.0635 105.313 59.9746 105.582 59.7969C105.855 59.6191 106.074 59.3844 106.238 59.0928C106.402 58.8011 106.53 58.4844 106.621 58.1426V56.4951C106.566 56.2445 106.487 56.0029 106.382 55.7705C106.282 55.5335 106.149 55.3239 105.985 55.1416C105.826 54.9548 105.628 54.8066 105.391 54.6973C105.158 54.5879 104.882 54.5332 104.563 54.5332C104.217 54.5332 103.919 54.6061 103.668 54.752C103.422 54.8932 103.219 55.0892 103.06 55.3398C102.9 55.5859 102.782 55.873 102.704 56.2012C102.631 56.5247 102.595 56.8711 102.595 57.2402ZM110.477 50.5V51.4297L110.271 53.8701H109.513V51.4912V50.5H110.477ZM112.322 50.5V51.4297L112.117 53.8701H111.358V51.4434V50.5H112.322ZM118.844 56.6797L113.983 54.7861V53.4805L119.821 56.0645V56.8643L118.844 56.6797ZM113.983 58.3477L118.857 56.4131L119.821 56.2695V57.0625L113.983 59.6533V58.3477Z" fill="black"/>
</svg>
