<svg width="20" height="31" viewBox="0 0 20 31" fill="none" xmlns="http://www.w3.org/2000/svg">
<circle cx="10" cy="10" r="10" fill="#A4A4A6"/>
<rect x="9" y="24" width="1" height="7" rx="0.5" fill="#A4A4A6"/>
<g clip-path="url(#clip0_528_4060)">
<path d="M13.7387 14.5691H6.30797C5.52336 14.5691 4.8772 13.9691 4.8772 13.2405V9.42622C4.8772 8.69765 5.52336 8.09766 6.30797 8.09766H13.7387C14.5234 8.09766 15.1695 8.69765 15.1695 9.42622V13.2405C15.1695 13.9691 14.5234 14.5691 13.7387 14.5691Z" stroke="#CCCCCC" stroke-miterlimit="10" stroke-linecap="round"/>
<path d="M11.6614 8.05658H8.29212C8.01519 8.05658 7.73828 7.8423 7.73828 7.5423V6.21373C7.73828 5.1423 8.66135 4.28516 9.8152 4.28516H10.0921C11.246 4.28516 12.169 5.1423 12.169 6.21373V7.5423C12.2152 7.8423 11.9844 8.05658 11.6614 8.05658Z" stroke="#CCCCCC" stroke-miterlimit="10" stroke-linecap="round"/>
<path d="M10.0002 12.8552C9.5848 12.8552 9.26172 12.5552 9.26172 12.1695V10.4552C9.26172 10.0695 9.5848 9.76953 10.0002 9.76953C10.4156 9.76953 10.7386 10.0695 10.7386 10.4552V12.1695C10.7386 12.5552 10.4156 12.8552 10.0002 12.8552Z" fill="#CCCCCC"/>
</g>
<defs>
<clipPath id="clip0_528_4060">
<rect width="12" height="12" fill="white" transform="translate(4 3)"/>
</clipPath>
</defs>
</svg>
