<svg width="270" height="204" viewBox="0 0 270 204" fill="none" xmlns="http://www.w3.org/2000/svg">
<circle cx="55" cy="55" r="55" fill="black"/>
<path d="M54.9902 41.755C53.2106 41.7531 51.4715 41.2247 49.9928 40.2367C48.514 39.2487 47.362 37.8453 46.6823 36.2041C46.0026 34.5628 45.8258 32.7574 46.1741 31.0159C46.5225 29.2744 47.3804 27.6751 48.6395 26.4201C49.8985 25.165 51.5022 24.3106 53.2478 23.9648C54.9933 23.6191 56.8024 23.7975 58.4464 24.4776C60.0903 25.1576 61.4954 26.3088 62.4839 27.7855C63.4724 29.2622 64 30.9982 64 32.774C63.9974 35.1569 63.047 37.4412 61.3576 39.1252C59.6682 40.8091 57.3781 41.755 54.9902 41.755ZM54.9902 25.9407C53.6358 25.9407 52.3119 26.3414 51.1858 27.0923C50.0597 27.8431 49.182 28.9103 48.6637 30.159C48.1454 31.4076 48.0098 32.7816 48.274 34.1071C48.5382 35.4327 49.1904 36.6503 50.1481 37.6059C51.1057 38.5616 52.3259 39.2124 53.6542 39.4761C54.9826 39.7398 56.3595 39.6043 57.6107 39.0871C58.862 38.5699 59.9315 37.6941 60.684 36.5704C61.4364 35.4466 61.838 34.1256 61.838 32.774C61.838 30.9617 61.1166 29.2236 59.8324 27.942C58.5482 26.6605 56.8064 25.9407 54.9902 25.9407Z" fill="white" stroke="white" stroke-width="0.3"/>
<path d="M55 94.6437C44.1919 94.6339 33.824 90.4737 26.1477 83.0665C18.4713 75.6593 14.1062 65.603 14 55.0813V55.0813V54.7281C14 44.1418 18.3196 33.9892 26.0086 26.5035C33.6976 19.0179 44.1261 14.8125 55 14.8125C65.8739 14.8125 76.3024 19.0179 83.9914 26.5035C91.6804 33.9892 96 44.1418 96 54.7281V55.0813C95.8912 65.6022 91.5252 75.6569 83.8494 83.0636C76.1736 90.4703 65.8073 94.6313 55 94.6437V94.6437ZM16.2173 54.9047C16.1794 62.3802 18.4217 69.6983 22.6601 75.9319C26.8984 82.1654 32.9421 87.0339 40.0253 89.9202C47.1085 92.8066 54.9123 93.5809 62.448 92.1452C69.9837 90.7094 76.912 87.1282 82.3551 81.8553C87.7981 76.5824 91.5109 69.8552 93.0229 62.526C94.5349 55.1968 93.7781 47.5956 90.8485 40.6856C87.9188 33.7755 82.9481 27.8677 76.5663 23.7106C70.1844 19.5535 62.6786 17.3342 55 17.3342C44.7505 17.3443 34.921 21.3001 27.6556 28.3384C20.3902 35.3767 16.2785 44.9265 16.2173 54.9047Z" fill="white" stroke="white" stroke-width="0.3"/>
<path d="M31.7429 85.663H31V79.4766C31.1351 72.6026 33.9864 66.0553 38.9414 61.2412C43.8964 56.4272 50.5598 53.7305 57.5 53.7305C64.4402 53.7305 71.1036 56.4272 76.0586 61.2412C81.0136 66.0553 83.8649 72.6026 84 79.4766V81.6846H83.257V79.4169C83.1239 72.7368 80.3517 66.3748 75.5358 61.6973C70.7199 57.0197 64.2444 54.3996 57.5 54.3996C50.7556 54.3996 44.28 57.0197 39.4641 61.6973C34.6482 66.3748 31.8761 72.7368 31.7429 79.4169V85.663Z" fill="white" stroke="white" stroke-width="0.3"/>
<path d="M39 89.654H38.2777V45.0569C38.2659 41.5257 37.5234 38.0358 36.098 34.8112C34.6725 31.5865 32.5955 28.698 30 26.3311L30.4881 25.7891C33.1594 28.2279 35.2965 31.2034 36.7623 34.5248C38.2282 37.8463 38.9903 41.4404 39 45.0766V89.654Z" fill="white" stroke="white" stroke-width="0.3"/>
<path d="M86.459 78.6758C81.3887 77.2188 76.8823 74.1237 73.577 69.828C70.2716 65.5324 68.3345 60.2536 68.0395 54.7378C67.7445 49.222 69.1066 43.7482 71.933 39.0904C74.7595 34.4325 78.9075 30.8262 83.7905 28.7812L84.5516 30.7088C80.0616 32.5871 76.247 35.9015 73.6474 40.1831C71.0478 44.4648 69.7947 49.497 70.0655 54.5682C70.3362 59.6393 72.1169 64.4926 75.1559 68.4418C78.1948 72.391 82.3382 75.236 87 76.5747L86.459 78.6758Z" fill="white" stroke="white" stroke-width="0.3"/>
<path d="M78 110C97.3559 134.925 147.01 181.783 190.776 169.819C234.543 157.855 261.162 186.955 269 203" stroke="white" stroke-width="2" stroke-dasharray="10 10"/>
</svg>
