<svg width="45" height="20" viewBox="0 0 45 20" fill="none" xmlns="http://www.w3.org/2000/svg">
<path fill-rule="evenodd" clip-rule="evenodd" d="M2.5 1.5C1.11929 1.5 0 2.61929 0 4V14C0 15.3807 1.11929 16.5 2.5 16.5H18.5C19.8807 16.5 21 15.3807 21 14V4C21 2.61929 19.8807 1.5 18.5 1.5H2.5ZM1 4C1 3.17157 1.67157 2.5 2.5 2.5H18.5C19.3284 2.5 20 3.17157 20 4V14C20 14.8284 19.3284 15.5 18.5 15.5H2.5C1.67157 15.5 1 14.8284 1 14V4ZM5.5 18H15.5V17H5.5V18Z" fill="#5D5D5D"/>
<line x1="35.5" y1="2.5" x2="39.5" y2="2.5" stroke="#A4A4A6"/>
<rect x="31" y="0.5" width="13" height="19" rx="1.5" stroke="#A4A4A6"/>
</svg>
