<svg width="71" height="71" viewBox="0 0 71 71" fill="none" xmlns="http://www.w3.org/2000/svg">
<path fill-rule="evenodd" clip-rule="evenodd" d="M13.3125 64.3438H62.125C63.3497 64.3438 64.3438 63.3497 64.3438 62.125V22.1875C64.3438 20.9628 63.3497 19.9688 62.125 19.9688H53.25C52.0253 19.9688 51.0312 20.9628 51.0312 22.1875V59.9062H46.5938V33.2812C46.5938 32.0565 45.5997 31.0625 44.375 31.0625H35.5C34.2753 31.0625 33.2812 32.0565 33.2812 33.2812V59.9062H28.8438V42.1829C28.8438 40.9581 27.8497 39.9641 26.625 39.9641H17.75C16.5253 39.9641 15.5312 40.9581 15.5312 42.1829V59.9062H13.3125C12.7245 59.9062 12.1588 59.6733 11.7438 59.2562C11.3267 58.8413 11.0938 58.2755 11.0938 57.6875V8.875C11.0938 7.65025 10.0997 6.65625 8.875 6.65625C7.65025 6.65625 6.65625 7.65025 6.65625 8.875V57.6875C6.65625 59.4536 7.35737 61.1465 8.60653 62.3935C9.85347 63.6426 11.5464 64.3438 13.3125 64.3438Z" fill="white"/>
<path fill-rule="evenodd" clip-rule="evenodd" d="M22.1942 8.875H22.1875C18.5132 8.875 15.5312 11.857 15.5312 15.5312C15.5312 19.2055 18.5132 22.1875 22.1875 22.1875H26.625C27.8497 22.1875 28.8438 23.1815 28.8438 24.4062C28.8438 25.631 27.8497 26.625 26.625 26.625H19.9688C18.744 26.625 17.75 27.619 17.75 28.8438C17.75 30.0685 18.744 31.0625 19.9688 31.0625H22.1942V33.2812C22.1942 34.506 23.1904 35.5 24.4129 35.5C25.6377 35.5 26.6317 34.506 26.6317 33.2812V31.0625C30.3037 31.0581 33.2812 28.0783 33.2812 24.4062C33.2812 20.732 30.2992 17.75 26.625 17.75H22.1875C20.9627 17.75 19.9688 16.756 19.9688 15.5312C19.9688 14.3065 20.9627 13.3125 22.1875 13.3125H28.8438C30.0685 13.3125 31.0625 12.3185 31.0625 11.0938C31.0625 9.869 30.0685 8.875 28.8438 8.875H26.6317V6.65625C26.6317 5.4315 25.6377 4.4375 24.4129 4.4375C23.1904 4.4375 22.1942 5.4315 22.1942 6.65625V8.875Z" fill="white"/>
</svg>
