<svg width="64" height="64" viewBox="0 0 64 64" fill="none" xmlns="http://www.w3.org/2000/svg">
<path d="M49.9687 43.7383C50.426 44.5122 50.6563 45.4146 50.6563 46.4489C50.6563 48.0358 50.1836 49.3557 49.2387 50.4145C48.2924 51.4733 46.9301 52.0981 45.1443 52.2852V55H42.871V52.297C39.8988 51.9918 38.059 50.2612 37.3479 47.113L40.8628 46.1957C41.1873 48.1762 42.2658 49.1679 44.0971 49.1679C44.9528 49.1679 45.5856 48.9574 45.9882 48.5308C46.3909 48.1059 46.594 47.5975 46.594 46.996C46.594 46.3742 46.3909 45.9021 45.9882 45.5857C45.5856 45.2656 44.6875 44.86 43.2969 44.3676C42.0471 43.9342 41.0703 43.5075 40.3667 43.0785C39.6642 42.6563 39.0936 42.0664 38.6565 41.3044C38.2145 40.5392 37.9959 39.6484 37.9959 38.6363C37.9959 37.308 38.3906 36.1094 39.1717 35.0463C39.9571 33.9843 41.1871 33.336 42.8709 33.0979V31.0003H45.1442V33.0979C47.6835 33.4028 49.332 34.8401 50.0824 37.4101L46.9448 38.6948C46.3359 36.9335 45.394 36.0508 44.113 36.0508C43.4722 36.0508 42.9569 36.2459 42.5697 36.6407C42.1794 37.0352 41.9843 37.5118 41.9843 38.0743C41.9843 38.6449 42.1715 39.082 42.5464 39.3906C42.922 39.6953 43.7221 40.0745 44.9528 40.5232C46.3009 41.0156 47.3634 41.4841 48.1286 41.9219C48.8982 42.3599 49.5076 42.9688 49.9687 43.7383ZM64 42.9996C64 54.047 55.0473 63.0002 44.0005 63.0002C32.9531 63.0002 24.0001 54.047 24.0001 42.9996C24.0001 31.953 32.9531 22.9998 44.0005 22.9998C55.0473 22.9998 64 31.953 64 42.9996ZM60.0005 42.9996C60.0005 34.1757 52.8245 27 44.0005 27C35.1766 27 28.0003 34.1757 28.0003 42.9996C28.0003 51.8241 35.1765 59.0002 44.0005 59.0002C52.8244 59.0002 60.0005 51.8241 60.0005 42.9996ZM32.0001 6.99993H56.0002C57.1058 6.99993 57.9997 6.32776 57.9997 5.49968V2.49959C57.9997 1.67164 57.1058 1 56.0002 1H32.0001C30.8945 1 29.9999 1.67164 29.9999 2.49959V5.49968C30 6.32776 30.8945 6.99993 32.0001 6.99993ZM32.0001 14.9999H56.0002C57.1058 14.9999 57.9997 14.328 57.9997 13.4999V10.4999C57.9997 9.67172 57.1058 8.99969 56.0002 8.99969H32.0001C30.8945 8.99969 29.9999 9.67159 29.9999 10.4999V13.5C30 14.328 30.8945 14.9999 32.0001 14.9999ZM1.99976 55H25.5858C24.3907 53.1717 23.4649 51.1519 22.8517 48.9998H1.99976C0.894423 48.9997 0 49.6713 0 50.5006V53.4997C0 54.3277 0.894423 55 1.99976 55ZM25.9999 57.0001H1.99976C0.894423 57.0001 0 57.6716 0 58.4996V61.5C0 62.3279 0.894423 63.0002 1.99976 63.0002H25.9999C27.1055 63.0002 28.0003 62.3279 28.0003 61.5V58.4996C28.0003 57.6716 27.1056 57.0001 25.9999 57.0001ZM1.99976 47.0003H22.383C22.1408 45.6995 22.0005 44.3675 22.0005 42.9996C22.0005 42.3243 22.0393 41.6601 22.1018 41.0002H1.99976C0.894423 41.0002 0 41.6718 0 42.5004V45.4994C0 46.3287 0.894423 47.0003 1.99976 47.0003ZM32.0001 22.9998H34.8903C37.6679 21.7265 40.7458 20.9998 44.0003 20.9998C47.2494 20.9998 50.3324 21.7265 53.1094 22.9998H56.0002C57.1058 22.9998 57.9997 22.3279 57.9997 21.5V18.4999C57.9997 17.6719 57.1058 16.9996 56.0002 16.9996H32.0001C30.8945 16.9996 29.9999 17.6719 29.9999 18.4999V21.5C30 22.3279 30.8945 22.9998 32.0001 22.9998ZM1.99976 22.9998H25.9999C27.1055 22.9998 28.0003 22.3279 28.0003 21.5V18.4999C28.0003 17.6719 27.1055 16.9996 25.9999 16.9996H1.99976C0.894423 16.9996 0 17.6719 0 18.4999V21.5C0 22.3279 0.894423 22.9998 1.99976 22.9998ZM1.99976 39.0001H22.383C22.7736 36.8751 23.4729 34.8633 24.4302 32.9999H1.99976C0.894423 32.9999 0 33.6714 0 34.4995V37.5005C0 38.3285 0.894423 39.0001 1.99976 39.0001ZM1.99976 31H25.5858C26.2969 29.9065 27.1094 28.8907 28.0003 27.9452V26.4998C28.0003 25.6719 27.1059 25.0002 26.0005 25.0002H1.99976C0.894423 25.0002 0 25.6718 0 26.4998V29.4999C0 30.3279 0.894423 31 1.99976 31Z" fill="white"/>
<path d="M25.5858 55H1.99976C0.894423 55 0 54.3277 0 53.4997V50.5006C0 49.6713 0.894423 48.9997 1.99976 48.9998H22.8517C23.4649 51.1519 24.3907 53.1717 25.5858 55Z" fill="white"/>
<path d="M22.383 47.0003H1.99976C0.894423 47.0003 0 46.3287 0 45.4994V42.5004C0 41.6718 0.894423 41.0002 1.99976 41.0002H22.1018C22.0393 41.6601 22.0005 42.3243 22.0005 42.9996C22.0005 44.3675 22.1408 45.6995 22.383 47.0003Z" fill="white"/>
<path d="M22.383 39.0001H1.99976C0.894423 39.0001 0 38.3285 0 37.5005V34.4995C0 33.6714 0.894423 32.9999 1.99976 32.9999H24.4302C23.4729 34.8633 22.7736 36.8751 22.383 39.0001Z" fill="white"/>
</svg>
