<svg width="278" height="215" viewBox="0 0 278 215" fill="none" xmlns="http://www.w3.org/2000/svg">
<circle cx="55" cy="160" r="55" fill="black"/>
<g clip-path="url(#clip0_528_3955)">
<path d="M21.2242 180.472H47.8566C49.0857 180.472 50.0808 179.726 50.0808 178.804V175.483C50.0808 174.561 49.0857 173.814 47.8566 173.814H21.2242C19.9951 173.814 19 174.561 19 175.483V178.804C19 179.726 19.9951 180.472 21.2242 180.472ZM21.2242 189.34H47.8566C49.0857 189.34 50.0808 188.594 50.0808 187.672V184.35C50.0808 183.428 49.0857 182.682 47.8566 182.682H21.2242C19.9951 182.682 19 183.428 19 184.35V187.672C19 188.594 19.9951 189.34 21.2242 189.34ZM21.2242 171.59H47.8566C49.0857 171.59 50.0808 170.844 50.0808 169.922V166.6C50.0808 165.678 49.0857 164.932 47.8566 164.932H21.2242C19.9951 164.932 19 165.678 19 166.6V169.922C19 170.844 19.9951 171.59 21.2242 171.59ZM54.3976 170.712C54.4268 170.449 54.5 170.2 54.5 169.937V166.615C54.5 163.191 51.5734 160.513 47.8419 160.513H38.9596C38.9596 154.382 43.9202 149.421 50.0515 149.421C56.1828 149.421 61.1434 154.382 61.1434 160.513C61.1581 165.078 58.3778 169.015 54.3976 170.712ZM19 140.524H81.1323V180.458H54.2366C54.3976 179.931 54.5 179.375 54.5 178.79V176.009H67.8162C67.8162 171.107 71.7964 167.127 76.6838 167.127V153.811C71.7817 153.811 67.8162 149.831 67.8162 144.929H32.3162C32.3162 149.831 28.3359 153.811 23.4338 153.811V160.469H21.2242C20.434 160.469 19.7024 160.615 19 160.835V140.524ZM90 131.656V176.039H85.5662V136.09H23.4338V131.656H90Z" fill="white"/>
</g>
<path d="M277 1.00025C248.504 5.77496 183.558 27.8476 151.743 77.9403C119.927 128.033 109.024 131.173 108 135.499" stroke="white" stroke-width="2" stroke-dasharray="10 10"/>
<defs>
<clipPath id="clip0_528_3955">
<rect width="71" height="71" fill="white" transform="translate(19 125)"/>
</clipPath>
</defs>
</svg>
