<svg width="71" height="71" viewBox="0 0 71 71" fill="none" xmlns="http://www.w3.org/2000/svg">
<g clip-path="url(#clip0_528_5213)">
<path d="M35.397 45.7121C35.4262 45.4487 35.4994 45.1999 35.4994 44.9366V41.6148C35.4994 38.1907 32.5728 35.5128 28.8413 35.5128H19.959C19.959 29.3815 24.9196 24.4209 31.0509 24.4209C37.1822 24.4209 42.1429 29.3815 42.1429 35.5128C42.1575 40.0783 39.3772 44.0147 35.397 45.7121ZM-0.000602722 15.5239H62.1317V55.4578H35.236C35.397 54.931 35.4994 54.3749 35.4994 53.7896V51.0093H48.8156C48.8156 46.1072 52.7958 42.127 57.6833 42.127V28.8108C52.7811 28.8108 48.8156 24.8306 48.8156 19.9285H13.3156C13.3156 24.8306 9.33534 28.8108 4.43324 28.8108V35.4689H2.22364C1.43345 35.4689 0.701788 35.6152 -0.000602722 35.8347V15.5239ZM70.9993 6.65625V51.0386H66.5655V11.0901H4.43324V6.65625H70.9993Z" fill="white"/>
<path d="M28.8556 55.4724H2.22326C0.994077 55.4724 -0.000976562 54.7261 -0.000976562 53.8042V50.4825C-0.000976562 49.5606 0.994077 48.8143 2.22326 48.8143H28.8556C30.0848 48.8143 31.0798 49.5606 31.0798 50.4825V53.8042C31.0798 54.7261 30.0848 55.4724 28.8556 55.4724Z" fill="white"/>
<path d="M28.8556 64.3401H2.22326C0.994077 64.3401 -0.000976562 63.5938 -0.000976562 62.6719V59.3502C-0.000976562 58.4283 0.994077 57.682 2.22326 57.682H28.8556C30.0848 57.682 31.0798 58.4283 31.0798 59.3502V62.6719C31.0798 63.5938 30.0848 64.3401 28.8556 64.3401Z" fill="white"/>
<path d="M28.8556 46.5901H2.22326C0.994077 46.5901 -0.000976562 45.8438 -0.000976562 44.9219V41.6002C-0.000976562 40.6783 0.994457 39.932 2.22364 39.932H28.8559C30.0851 39.932 31.0798 40.6783 31.0798 41.6002V44.9219C31.0798 45.8438 30.0848 46.5901 28.8556 46.5901Z" fill="white"/>
</g>
<defs>
<clipPath id="clip0_528_5213">
<rect width="71" height="71" fill="white"/>
</clipPath>
</defs>
</svg>
