<svg width="16" height="16" viewBox="0 0 16 16" fill="none" xmlns="http://www.w3.org/2000/svg">
<path fill-rule="evenodd" clip-rule="evenodd" d="M0.582175 0.28171C0.178414 0.668806 0.164904 1.30992 0.552 1.71368L6.26227 7.66979L0.271223 13.9188C-0.101463 14.3075 -0.0884559 14.9247 0.300275 15.2974C0.689007 15.6701 1.30626 15.6571 1.67894 15.2684L7.61308 9.07876L13.5222 15.2423C13.9093 15.6461 14.5505 15.6596 14.9542 15.2725C15.358 14.8854 15.3715 14.2443 14.9844 13.8405L9.01613 7.61531L14.7014 1.68531C15.0741 1.29657 15.0611 0.679323 14.6723 0.306637C14.2836 -0.0660496 13.6663 -0.0530428 13.2937 0.335689L7.66531 6.20634L2.01415 0.311885C1.62705 -0.091876 0.985937 -0.105386 0.582175 0.28171Z" fill="#2F3038"/>
</svg>
