<svg width="127" height="127" viewBox="0 0 127 127" fill="none" xmlns="http://www.w3.org/2000/svg">
<circle cx="63.5" cy="63.5" r="63.5" fill="#424952"/>
<circle cx="64.1615" cy="62.8372" r="52.2552" fill="#20252B"/>
<path d="M60.3302 86.7455C59.2846 86.7455 58.2939 86.3052 57.5968 85.5347L38.4995 64.2543C37.142 62.75 37.2704 60.4202 38.7747 59.081C40.279 57.7235 42.6088 57.8519 43.948 59.3562L59.8716 77.1143L84.0138 40.5891C85.1329 38.9014 87.4077 38.4427 89.0954 39.5434C90.7832 40.6625 91.2418 42.9373 90.1411 44.625L63.3939 85.1128C62.7701 86.0667 61.7428 86.6721 60.6054 86.7455C60.5137 86.7455 60.422 86.7455 60.3302 86.7455Z" fill="white"/>
</svg>
