<svg width="110" height="118" viewBox="0 0 110 118" fill="none" xmlns="http://www.w3.org/2000/svg">
<circle cx="55" cy="63" r="55" fill="black"/>
<path d="M62.5938 62.0176C62.0313 61.7363 61.6094 61.1738 61.6094 60.4707C61.6094 60.0488 61.75 59.627 62.1719 59.2051C62.3125 59.0645 62.3125 59.0645 62.4531 58.9238C63.0156 58.3613 63.4375 57.7988 63.8594 57.0957C66.8125 52.1738 65.125 45.9863 60.3438 43.0332C58.2344 41.7676 55.5625 41.3457 53.1719 41.7676C49.0938 42.4707 45.8594 45.5645 45.0156 49.6426C44.3125 53.1582 45.2969 56.6738 47.8281 59.2051C48.1094 59.4863 48.3906 59.9082 48.3906 60.4707C48.3906 61.1738 47.9688 61.7363 47.4063 62.0176C43.3281 63.7051 40.0938 66.9395 38.2656 71.0176C37 73.8301 36.4375 76.7832 36.4375 79.8769V82.127C36.4375 84.0957 37.9844 85.6426 39.9531 85.6426H69.9062C71.875 85.6426 73.4219 84.0957 73.4219 82.127V79.8769C73.4219 76.7832 72.8594 73.8301 71.5938 71.0176C70.0469 66.9395 66.6719 63.7051 62.5938 62.0176Z" fill="white"/>
<path d="M95.6406 66.0957C93.9531 62.0176 90.5781 58.7832 86.5 57.0957C85.9375 56.8145 85.5156 56.252 85.5156 55.5488C85.5156 55.127 85.6562 54.7051 86.0781 54.2832C86.2187 54.1426 86.2187 54.1426 86.3594 54.002C86.9219 53.4395 87.3437 52.877 87.7656 52.1738C90.7187 47.252 89.0312 41.0645 84.25 38.1113C82.1406 36.8457 79.4687 36.4238 77.0781 36.8457C73 37.5488 69.7656 40.6426 68.9219 44.7207C68.2188 48.2363 69.2031 51.752 71.7344 54.2832C72.0156 54.5645 72.2969 54.9863 72.2969 55.5488C72.2969 56.252 71.875 56.8145 71.3125 57.0957C69.625 57.7988 68.2188 58.6426 66.8125 59.7676C70.6094 62.0176 73.5625 65.3926 75.25 69.3301C76.6562 72.5644 77.3594 76.2207 77.3594 79.7363V80.5801H93.8125C95.7812 80.5801 97.3281 79.0332 97.3281 77.0644V74.8145C97.4687 71.8613 96.7656 68.9082 95.6406 66.0957Z" fill="white"/>
<path d="M43.3281 59.9082C41.9219 58.7832 40.5156 57.7988 38.8281 57.0957C38.2656 56.8145 37.8437 56.252 37.8437 55.5488C37.8437 55.127 37.9844 54.7051 38.4063 54.2832C38.5469 54.1426 38.5469 54.1426 38.6875 54.002C39.25 53.4395 39.6719 52.877 40.0938 52.1738C43.0469 47.252 41.3594 41.0645 36.5781 38.1113C34.4688 36.8457 31.7969 36.4238 29.4063 36.8457C25.3281 37.5488 22.0937 40.6426 21.25 44.7207C20.5469 48.2363 21.5313 51.752 24.0625 54.2832C24.3438 54.5645 24.625 54.9863 24.625 55.5488C24.625 56.252 24.2031 56.8145 23.6406 57.0957C19.5625 58.7832 16.3281 62.0176 14.5 66.0957C13.2344 68.9082 12.6719 71.8613 12.6719 74.9551V77.2051C12.6719 79.1738 14.2188 80.7207 16.1875 80.7207H32.6406V79.8769C32.6406 76.3613 33.3438 72.7051 34.75 69.4707C36.5781 65.5332 39.5313 62.1582 43.3281 59.9082Z" fill="white"/>
</svg>
