<svg width="44" height="26" viewBox="0 0 44 26" fill="none" xmlns="http://www.w3.org/2000/svg">
<rect width="44" height="26" rx="5" fill="#F1F1F1"/>
<path d="M11.5156 13.5391H8.47656V12.3125H11.5156C12.1042 12.3125 12.5807 12.2188 12.9453 12.0312C13.3099 11.8438 13.5755 11.5833 13.7422 11.25C13.9141 10.9167 14 10.5365 14 10.1094C14 9.71875 13.9141 9.35156 13.7422 9.00781C13.5755 8.66406 13.3099 8.38802 12.9453 8.17969C12.5807 7.96615 12.1042 7.85938 11.5156 7.85938H8.82812V18H7.32031V6.625H11.5156C12.375 6.625 13.1016 6.77344 13.6953 7.07031C14.2891 7.36719 14.7396 7.77865 15.0469 8.30469C15.3542 8.82552 15.5078 9.42188 15.5078 10.0938C15.5078 10.8229 15.3542 11.4453 15.0469 11.9609C14.7396 12.4766 14.2891 12.8698 13.6953 13.1406C13.1016 13.4062 12.375 13.5391 11.5156 13.5391ZM26.1641 6.625V18H24.6484L18.9219 9.22656V18H17.4141V6.625H18.9219L24.6719 15.4219V6.625H26.1641ZM37.2422 12.3359V16.5C37.1016 16.7083 36.8776 16.9427 36.5703 17.2031C36.263 17.4583 35.8385 17.6823 35.2969 17.875C34.7604 18.0625 34.0677 18.1562 33.2188 18.1562C32.526 18.1562 31.888 18.0365 31.3047 17.7969C30.7266 17.5521 30.224 17.1979 29.7969 16.7344C29.375 16.2656 29.0469 15.6979 28.8125 15.0312C28.5833 14.3594 28.4688 13.599 28.4688 12.75V11.8672C28.4688 11.0182 28.5677 10.2604 28.7656 9.59375C28.9688 8.92708 29.2656 8.36198 29.6562 7.89844C30.0469 7.42969 30.526 7.07552 31.0938 6.83594C31.6615 6.59115 32.3125 6.46875 33.0469 6.46875C33.9167 6.46875 34.6432 6.61979 35.2266 6.92188C35.8151 7.21875 36.2734 7.63021 36.6016 8.15625C36.9349 8.68229 37.1484 9.28125 37.2422 9.95312H35.7344C35.6667 9.54167 35.5312 9.16667 35.3281 8.82812C35.1302 8.48958 34.8464 8.21875 34.4766 8.01562C34.1068 7.80729 33.6302 7.70312 33.0469 7.70312C32.5208 7.70312 32.0651 7.79948 31.6797 7.99219C31.2943 8.1849 30.9766 8.46094 30.7266 8.82031C30.4766 9.17969 30.2891 9.61458 30.1641 10.125C30.0443 10.6354 29.9844 11.2109 29.9844 11.8516V12.75C29.9844 13.4062 30.0599 13.9922 30.2109 14.5078C30.3672 15.0234 30.5885 15.4635 30.875 15.8281C31.1615 16.1875 31.5026 16.4609 31.8984 16.6484C32.2995 16.8359 32.7422 16.9297 33.2266 16.9297C33.763 16.9297 34.1979 16.8854 34.5312 16.7969C34.8646 16.7031 35.125 16.5938 35.3125 16.4688C35.5 16.3385 35.6432 16.2161 35.7422 16.1016V13.5547H33.1094V12.3359H37.2422Z" fill="black"/>
</svg>
