<svg width="300" height="187" viewBox="0 0 300 187" fill="none" xmlns="http://www.w3.org/2000/svg">
<circle cx="55" cy="55" r="55" fill="black"/>
<path d="M91 31.8663C90.9037 31.68 90.8042 31.4937 90.7078 31.3107C90.7496 31.4578 90.7913 31.6048 90.833 31.7552C90.7945 31.6081 90.7496 31.461 90.7078 31.3107C87.0511 24.3727 81.2787 18.7681 74.2702 15.3792C73.5896 15.1047 72.9122 14.8105 72.2412 14.4739C69.5604 13.3792 66.7224 12.5981 63.772 12.1798C62.873 12.0883 61.9773 11.9935 61.0784 11.902C60.4042 11.8595 59.73 11.8268 59.0462 11.8203C58.9498 21.572 59.0205 26.2028 59.1103 28.6113C59.1264 29.0329 59.2035 31.0035 59.2741 33.6833C59.3319 35.9709 59.3608 37.6964 59.3672 38.2846C59.4089 41.1637 59.4057 43.4219 59.4025 44.5886C59.3961 46.2259 59.3833 47.6377 59.3672 48.7423C64.3531 46.8076 69.8494 44.3631 91 31.863V31.8663Z" fill="white"/>
<path d="M89.5823 37.4835C78.9982 45.5337 66.6796 50.4578 54.7044 55.7281C54.7575 53.81 54.8035 51.8814 54.8389 49.9421C55.0442 38.243 54.8602 26.8617 54.354 15.816C54.2372 15.816 54.1168 15.8125 54 15.8125C31.908 15.8125 14 33.6827 14 55.7281C14 77.7735 31.908 95.6437 54 95.6437C76.092 95.6437 94 77.7735 94 55.7281C94 49.1544 92.4071 42.9516 89.5859 37.4835H89.5823Z" fill="white"/>
<path d="M101 95C122.194 123.393 176.562 176.771 224.484 163.143C272.406 149.514 290.417 167.722 299 186" stroke="white" stroke-width="2" stroke-dasharray="10 10"/>
</svg>
