<svg width="86" height="86" viewBox="0 0 86 86" fill="none" xmlns="http://www.w3.org/2000/svg">
<circle cx="42.846" cy="42.9397" r="42.846" fill="black"/>
<path d="M42.8385 32.6177C41.4522 32.6162 40.0974 32.2047 38.9454 31.435C37.7934 30.6653 36.896 29.572 36.3665 28.2935C35.837 27.0149 35.6992 25.6084 35.9706 24.2518C36.242 22.8951 36.9103 21.6493 37.8912 20.6716C38.872 19.6939 40.1213 19.0282 41.4811 18.7589C42.8409 18.4895 44.2502 18.6286 45.5309 19.1583C46.8116 19.6881 47.9061 20.5848 48.6762 21.7352C49.4463 22.8856 49.8573 24.238 49.8573 25.6214C49.8553 27.4777 49.1149 29.2572 47.7988 30.569C46.4828 31.8809 44.6987 32.6177 42.8385 32.6177ZM42.8385 20.2981C41.7834 20.2981 40.752 20.6103 39.8748 21.1952C38.9975 21.7802 38.3138 22.6115 37.91 23.5842C37.5062 24.5569 37.4006 25.6273 37.6064 26.6599C37.8123 27.6925 38.3203 28.6411 39.0664 29.3855C39.8124 30.13 40.7629 30.637 41.7978 30.8424C42.8326 31.0478 43.9052 30.9423 44.8799 30.5394C45.8547 30.1365 46.6879 29.4543 47.274 28.5788C47.8602 27.7034 48.1731 26.6743 48.1731 25.6214C48.1731 24.2096 47.611 22.8555 46.6106 21.8572C45.6102 20.8589 44.2533 20.2981 42.8385 20.2981Z" fill="white" stroke="white" stroke-width="0.3"/>
<path d="M42.846 73.8228C34.4263 73.8151 26.3495 70.5742 20.3695 64.8039C14.3895 59.0335 10.989 51.1995 10.9062 43.0029V42.7277C10.9062 34.4808 14.2713 26.5718 20.2612 20.7403C26.251 14.9089 34.375 11.6328 42.846 11.6328C51.3169 11.6328 59.4409 14.9089 65.4308 20.7403C71.4206 26.5718 74.7857 34.4808 74.7857 42.7277V43.0029C74.701 51.1989 71.2998 59.0317 65.3202 64.8016C59.3406 70.5716 51.2651 73.8131 42.846 73.8228ZM12.6336 42.8654C12.604 48.6889 14.3508 54.3898 17.6526 59.2459C20.9544 64.102 25.6625 67.8946 31.1804 70.1431C36.6984 72.3916 42.7777 72.9948 48.6481 71.8764C54.5186 70.7579 59.9158 67.968 64.1561 63.8603C68.3963 59.7527 71.2886 54.512 72.4665 48.8025C73.6444 43.0929 73.0548 37.1714 70.7726 31.7884C68.4903 26.4053 64.6181 21.803 59.6465 18.5646C54.6749 15.3261 48.8278 13.5973 42.846 13.5972C34.8615 13.6052 27.2041 16.6868 21.5442 22.1697C15.8843 27.6527 12.6813 35.0922 12.6336 42.8654Z" fill="white" stroke="white" stroke-width="0.3"/>
<path d="M24.7282 66.8291H24.1494V62.0099C24.2546 56.6549 26.4758 51.5544 30.3359 47.8042C34.1959 44.0539 39.3868 41.9531 44.7934 41.9531C50.1999 41.9531 55.3908 44.0539 59.2508 47.8042C63.1109 51.5544 65.3321 56.6549 65.4374 62.0099V63.7299H64.8586V61.9633C64.7548 56.7594 62.5953 51.8033 58.8436 48.1594C55.0919 44.5155 50.0474 42.4744 44.7934 42.4744C39.5393 42.4744 34.4948 44.5155 30.7431 48.1594C26.9915 51.8033 24.8319 56.7594 24.7282 61.9633V66.8291Z" fill="white" stroke="white" stroke-width="0.3"/>
<path d="M30.3818 69.9395H29.8191V35.1975C29.8099 32.4466 29.2315 29.728 28.121 27.2159C27.0106 24.7038 25.3925 22.4536 23.3706 20.6097L23.7508 20.1875C25.8319 22.0874 27.4967 24.4053 28.6386 26.9928C29.7805 29.5803 30.3742 32.3802 30.3818 35.2129V69.9395Z" fill="white" stroke="white" stroke-width="0.3"/>
<path d="M67.353 61.3843C63.4032 60.2493 59.8926 57.8382 57.3177 54.4918C54.7428 51.1455 53.2337 47.0332 53.0039 42.7362C52.7741 38.4393 53.8352 34.1752 56.0371 30.5466C58.2389 26.9181 61.4702 24.1087 65.2742 22.5156L65.8672 24.0172C62.3693 25.4804 59.3977 28.0624 57.3726 31.3979C55.3474 34.7334 54.3713 38.6536 54.5822 42.6041C54.7931 46.5546 56.1803 50.3354 58.5477 53.4119C60.9151 56.4884 64.1429 58.7047 67.7745 59.7476L67.353 61.3843Z" fill="white" stroke="white" stroke-width="0.3"/>
</svg>
