<svg width="85" height="88" viewBox="0 0 85 88" fill="none" xmlns="http://www.w3.org/2000/svg">
<circle cx="42.5" cy="45.5" r="42.5" fill="black"/>
<path d="M15.7543 61.7529H36.7601C37.7296 61.7529 38.5144 61.1643 38.5144 60.4371V57.8172C38.5144 57.0901 37.7296 56.5014 36.7601 56.5014H15.7543C14.7848 56.5014 14 57.0901 14 57.8172V60.4371C14 61.1643 14.7848 61.7529 15.7543 61.7529ZM15.7543 68.7471H36.7601C37.7296 68.7471 38.5144 68.1585 38.5144 67.4314V64.8114C38.5144 64.0843 37.7296 63.4957 36.7601 63.4957H15.7543C14.7848 63.4957 14 64.0843 14 64.8114V67.4314C14 68.1585 14.7848 68.7471 15.7543 68.7471ZM15.7543 54.7471H36.7601C37.7296 54.7471 38.5144 54.1585 38.5144 53.4314V50.8114C38.5144 50.0843 37.7296 49.4957 36.7601 49.4957H15.7543C14.7848 49.4957 14 50.0843 14 50.8114V53.4314C14 54.1585 14.7848 54.7471 15.7543 54.7471ZM41.9192 54.0546C41.9423 53.8469 42 53.6507 42 53.4429V50.823C42 48.1222 39.6917 46.0101 36.7486 46.0101H29.7428C29.7428 41.1742 33.6554 37.2615 38.4913 37.2615C43.3273 37.2615 47.2399 41.1742 47.2399 46.0101C47.2514 49.6111 45.0585 52.7158 41.9192 54.0546ZM14 30.2442H63.0058V61.7413H41.7922C41.9192 61.3258 42 60.8873 42 60.4256V58.2327H52.5029C52.5029 54.3662 55.6422 51.2269 59.4971 51.2269V40.724C55.6307 40.724 52.5029 37.5847 52.5029 33.7183H24.5029C24.5029 37.5847 21.3636 40.724 17.4971 40.724V45.9755H15.7543C15.1311 45.9755 14.554 46.0909 14 46.264V30.2442ZM70 23.25V58.2558H66.5029V26.7471H17.4971V23.25H70Z" fill="white"/>
</svg>
