<svg width="87" height="86" viewBox="0 0 87 86" fill="none" xmlns="http://www.w3.org/2000/svg">
<circle cx="43.3885" cy="42.9397" r="42.846" fill="black"/>
<path d="M71.433 24.913C71.3579 24.7679 71.2804 24.6228 71.2054 24.4802C71.2379 24.5948 71.2704 24.7094 71.3029 24.8265C71.2729 24.7119 71.2379 24.5973 71.2054 24.4802C68.3567 19.0754 63.8599 14.7093 58.4002 12.0693C57.87 11.8554 57.3422 11.6263 56.8195 11.3641C54.7312 10.5112 52.5203 9.90278 50.2218 9.57692C49.5216 9.50563 48.8238 9.4318 48.1235 9.36052C47.5983 9.32743 47.0731 9.30197 46.5403 9.29688C46.4653 16.8936 46.5203 20.5011 46.5904 22.3774C46.6029 22.7058 46.6629 24.2409 46.7179 26.3285C46.7629 28.1106 46.7854 29.4548 46.7905 29.9131C46.823 32.1559 46.8205 33.9151 46.818 34.824C46.813 36.0994 46.803 37.1992 46.7905 38.0597C50.6745 36.5526 54.9563 34.6483 71.433 24.9105V24.913Z" fill="white"/>
<path d="M69.6867 29.2876C61.7487 35.3381 52.5097 39.0389 43.5283 43C43.5681 41.5584 43.6027 40.1089 43.6292 38.6513C43.7832 29.8584 43.6451 21.3044 43.2655 13.0027C43.1779 13.0027 43.0876 13 43 13C26.431 13 13 26.431 13 43C13 59.569 26.431 73 43 73C59.569 73 73 59.569 73 43C73 38.0593 71.8053 33.3973 69.6894 29.2876H69.6867Z" fill="white"/>
</svg>
