<svg width="86" height="91" viewBox="0 0 86 91" fill="none" xmlns="http://www.w3.org/2000/svg">
<circle cx="42.5" cy="45.5" r="42.5" fill="black"/>
<path d="M47.5689 45.4816C47.1564 45.2754 46.8471 44.8629 46.8471 44.3473C46.8471 44.0379 46.9502 43.7285 47.2596 43.4191C47.3627 43.316 47.3627 43.316 47.4658 43.2129C47.8783 42.8004 48.1877 42.3879 48.4971 41.8723C50.6627 38.2629 49.4252 33.7254 45.9189 31.5598C44.3721 30.6316 42.4127 30.3223 40.6596 30.6316C37.6689 31.1473 35.2971 33.416 34.6783 36.4066C34.1627 38.9848 34.8846 41.5629 36.7408 43.4191C36.9471 43.6254 37.1533 43.9348 37.1533 44.3473C37.1533 44.8629 36.8439 45.2754 36.4314 45.4816C33.4408 46.7191 31.0689 49.091 29.7283 52.0816C28.8002 54.1441 28.3877 56.3098 28.3877 58.5785V60.2285C28.3877 61.6723 29.5221 62.8066 30.9658 62.8066H52.9314C54.3752 62.8066 55.5096 61.6723 55.5096 60.2285V58.5785C55.5096 56.3098 55.0971 54.1441 54.1689 52.0816C53.0346 49.091 50.5596 46.7191 47.5689 45.4816Z" fill="white"/>
<path d="M71.8032 48.4723C70.5657 45.4816 68.0907 43.1098 65.1001 41.8723C64.6876 41.666 64.3782 41.2535 64.3782 40.7379C64.3782 40.4285 64.4813 40.1191 64.7907 39.8098C64.8938 39.7066 64.8938 39.7066 64.997 39.6035C65.4095 39.191 65.7188 38.7785 66.0282 38.2629C68.1938 34.6535 66.9563 30.116 63.4501 27.9504C61.9032 27.0223 59.9438 26.7129 58.1907 27.0223C55.2001 27.5379 52.8282 29.8066 52.2095 32.7973C51.6938 35.3754 52.4157 37.9535 54.272 39.8098C54.4782 40.016 54.6845 40.3254 54.6845 40.7379C54.6845 41.2535 54.3751 41.666 53.9626 41.8723C52.7251 42.3879 51.6938 43.0066 50.6626 43.8316C53.447 45.4816 55.6126 47.9566 56.8501 50.8441C57.8813 53.216 58.397 55.8973 58.397 58.4754V59.0941H70.4626C71.9063 59.0941 73.0407 57.9598 73.0407 56.516V54.866C73.1438 52.7004 72.6282 50.5348 71.8032 48.4723Z" fill="white"/>
<path d="M33.4407 43.9348C32.4095 43.1098 31.3782 42.3879 30.1407 41.8723C29.7282 41.666 29.4188 41.2535 29.4188 40.7379C29.4188 40.4285 29.522 40.1191 29.8313 39.8098C29.9345 39.7066 29.9345 39.7066 30.0376 39.6035C30.4501 39.191 30.7595 38.7785 31.0688 38.2629C33.2345 34.6535 31.997 30.116 28.4907 27.9504C26.9438 27.0223 24.9845 26.7129 23.2313 27.0223C20.2407 27.5379 17.8688 29.8066 17.2501 32.7973C16.7345 35.3754 17.4563 37.9535 19.3126 39.8098C19.5188 40.016 19.7251 40.3254 19.7251 40.7379C19.7251 41.2535 19.4157 41.666 19.0032 41.8723C16.0126 43.1098 13.6407 45.4816 12.3001 48.4723C11.372 50.5348 10.9595 52.7004 10.9595 54.9691V56.6191C10.9595 58.0629 12.0938 59.1973 13.5376 59.1973H25.6032V58.5785C25.6032 56.0004 26.1188 53.3191 27.1501 50.9473C28.4907 48.0598 30.6563 45.5848 33.4407 43.9348Z" fill="white"/>
</svg>
