<svg width="44" height="26" viewBox="0 0 44 26" fill="none" xmlns="http://www.w3.org/2000/svg">
<rect width="44" height="26" rx="5" fill="#F1F1F1"/>
<path d="M14.3828 15.125C14.3828 14.8594 14.3411 14.625 14.2578 14.4219C14.1797 14.2135 14.0391 14.026 13.8359 13.8594C13.638 13.6927 13.362 13.5339 13.0078 13.3828C12.6589 13.2318 12.2161 13.0781 11.6797 12.9219C11.1172 12.7552 10.6094 12.5703 10.1562 12.3672C9.70312 12.1589 9.3151 11.9219 8.99219 11.6562C8.66927 11.3906 8.42188 11.0859 8.25 10.7422C8.07812 10.3984 7.99219 10.0052 7.99219 9.5625C7.99219 9.11979 8.08333 8.71094 8.26562 8.33594C8.44792 7.96094 8.70833 7.63542 9.04688 7.35938C9.39062 7.07812 9.79948 6.85938 10.2734 6.70312C10.7474 6.54688 11.276 6.46875 11.8594 6.46875C12.7135 6.46875 13.4375 6.63281 14.0312 6.96094C14.6302 7.28385 15.0859 7.70833 15.3984 8.23438C15.7109 8.75521 15.8672 9.3125 15.8672 9.90625H14.3672C14.3672 9.47917 14.276 9.10156 14.0938 8.77344C13.9115 8.4401 13.6354 8.17969 13.2656 7.99219C12.8958 7.79948 12.4271 7.70312 11.8594 7.70312C11.3229 7.70312 10.8802 7.78385 10.5312 7.94531C10.1823 8.10677 9.92188 8.32552 9.75 8.60156C9.58333 8.8776 9.5 9.19271 9.5 9.54688C9.5 9.78646 9.54948 10.0052 9.64844 10.2031C9.7526 10.3958 9.91146 10.5755 10.125 10.7422C10.3438 10.9089 10.6198 11.0625 10.9531 11.2031C11.2917 11.3438 11.6953 11.4792 12.1641 11.6094C12.8099 11.7917 13.3672 11.9948 13.8359 12.2188C14.3047 12.4427 14.6901 12.6953 14.9922 12.9766C15.2995 13.2526 15.526 13.5677 15.6719 13.9219C15.8229 14.2708 15.8984 14.6667 15.8984 15.1094C15.8984 15.5729 15.8047 15.9922 15.6172 16.3672C15.4297 16.7422 15.1615 17.0625 14.8125 17.3281C14.4635 17.5938 14.0443 17.7995 13.5547 17.9453C13.0703 18.0859 12.5286 18.1562 11.9297 18.1562C11.4036 18.1562 10.8854 18.0833 10.375 17.9375C9.86979 17.7917 9.40885 17.5729 8.99219 17.2812C8.58073 16.9896 8.25 16.6302 8 16.2031C7.75521 15.7708 7.63281 15.2708 7.63281 14.7031H9.13281C9.13281 15.0938 9.20833 15.4297 9.35938 15.7109C9.51042 15.987 9.71615 16.2161 9.97656 16.3984C10.2422 16.5807 10.5417 16.7161 10.875 16.8047C11.2135 16.888 11.5651 16.9297 11.9297 16.9297C12.4557 16.9297 12.901 16.8568 13.2656 16.7109C13.6302 16.5651 13.9062 16.3568 14.0938 16.0859C14.2865 15.8151 14.3828 15.4948 14.3828 15.125ZM21.4922 16.2734L24.8438 6.625H26.4766L22.2656 18H21.1016L21.4922 16.2734ZM18.3594 6.625L21.6797 16.2734L22.0938 18H20.9297L16.7266 6.625H18.3594ZM36.3047 12.3359V16.5C36.1641 16.7083 35.9401 16.9427 35.6328 17.2031C35.3255 17.4583 34.901 17.6823 34.3594 17.875C33.8229 18.0625 33.1302 18.1562 32.2812 18.1562C31.5885 18.1562 30.9505 18.0365 30.3672 17.7969C29.7891 17.5521 29.2865 17.1979 28.8594 16.7344C28.4375 16.2656 28.1094 15.6979 27.875 15.0312C27.6458 14.3594 27.5312 13.599 27.5312 12.75V11.8672C27.5312 11.0182 27.6302 10.2604 27.8281 9.59375C28.0312 8.92708 28.3281 8.36198 28.7188 7.89844C29.1094 7.42969 29.5885 7.07552 30.1562 6.83594C30.724 6.59115 31.375 6.46875 32.1094 6.46875C32.9792 6.46875 33.7057 6.61979 34.2891 6.92188C34.8776 7.21875 35.3359 7.63021 35.6641 8.15625C35.9974 8.68229 36.2109 9.28125 36.3047 9.95312H34.7969C34.7292 9.54167 34.5938 9.16667 34.3906 8.82812C34.1927 8.48958 33.9089 8.21875 33.5391 8.01562C33.1693 7.80729 32.6927 7.70312 32.1094 7.70312C31.5833 7.70312 31.1276 7.79948 30.7422 7.99219C30.3568 8.1849 30.0391 8.46094 29.7891 8.82031C29.5391 9.17969 29.3516 9.61458 29.2266 10.125C29.1068 10.6354 29.0469 11.2109 29.0469 11.8516V12.75C29.0469 13.4062 29.1224 13.9922 29.2734 14.5078C29.4297 15.0234 29.651 15.4635 29.9375 15.8281C30.224 16.1875 30.5651 16.4609 30.9609 16.6484C31.362 16.8359 31.8047 16.9297 32.2891 16.9297C32.8255 16.9297 33.2604 16.8854 33.5938 16.7969C33.9271 16.7031 34.1875 16.5938 34.375 16.4688C34.5625 16.3385 34.7057 16.2161 34.8047 16.1016V13.5547H32.1719V12.3359H36.3047Z" fill="black"/>
</svg>
