<svg width="125" height="76" viewBox="0 0 125 76" fill="none" xmlns="http://www.w3.org/2000/svg">
<path d="M110.494 61.4126C106.979 63.0073 103.946 64.395 100.903 65.7409C90.823 70.4384 79.3769 71.3016 68.7067 68.1689C60.6008 65.8409 54.7144 61.0263 51.677 53.3045C48.6396 45.5827 46.2436 37.6259 43.6509 29.8172C42.3509 25.8749 41.3912 21.7825 39.9051 17.9414C37.2192 11.1099 33.7548 8.97477 26.412 9.03399C17.6682 9.08183 9.75966 12.9863 2.72737 20.9147C-0.882151 17.872 0.721703 14.5489 2.96193 12.1461C5.71565 9.06864 8.98693 6.49714 12.6276 4.54805C16.759 2.49095 21.1994 1.12418 25.7725 0.501963C37.0133 -0.901983 44.1544 3.28292 48.4137 13.7233C50.8858 19.8194 52.3471 26.3188 54.4081 32.5934C56.2569 38.3652 58.2649 44.1978 60.4198 49.9056C61.2291 51.9647 62.4835 53.8194 64.0932 55.3371C65.7029 56.8548 67.6282 57.998 69.7313 58.6849C76.1654 61.1778 83.2279 61.5486 89.8877 59.7432C91.3098 59.3844 92.7092 58.941 94.0784 58.4155C100.163 56.0792 106.217 53.7062 112.777 51.0872C103.194 48.1671 94.2634 45.4643 85.3465 42.6805C85.1771 42.5778 85.2146 41.7807 85.1162 40.9726C85.9251 40.6965 86.8086 40.0913 87.6239 40.1576C97.0976 41.1403 106.628 41.7651 115.96 43.3927C123.14 44.6607 125.588 48.621 123.56 55.6436C121.619 61.6789 119.056 67.4958 115.911 73.0004C115.199 74.3512 112.218 75.3602 110.491 75.0624C109.457 74.9168 108.074 71.9935 108.144 70.3784C108.414 67.7265 109.561 64.9817 110.494 61.4126Z" fill="white"/>
</svg>
