<svg width="16" height="16" viewBox="0 0 16 16" fill="none" xmlns="http://www.w3.org/2000/svg">
<path fill-rule="evenodd" clip-rule="evenodd" d="M10.4749 11.182C10.6701 11.3773 10.9867 11.3773 11.182 11.182C11.3772 10.9868 11.3772 10.6702 11.182 10.4749L8.70712 8.00007L11.182 5.52521C11.3772 5.32995 11.3772 5.01337 11.182 4.81811C10.9867 4.62284 10.6701 4.62284 10.4749 4.81811L8.00001 7.29296L5.52513 4.81808C5.32987 4.62282 5.01328 4.62282 4.81802 4.81808C4.62276 5.01334 4.62276 5.32992 4.81802 5.52518L7.29291 8.00007L4.81802 10.475C4.62275 10.6702 4.62275 10.9868 4.81802 11.1821C5.01328 11.3773 5.32986 11.3773 5.52512 11.1821L8.00001 8.70718L10.4749 11.182Z" fill="url(#paint0_linear_1_230)"/>
<defs>
<linearGradient id="paint0_linear_1_230" x1="8" y1="4.67163" x2="8" y2="11.3285" gradientUnits="userSpaceOnUse">
<stop offset="0.0889996" stop-color="#FF5862"/>
<stop offset="0.354" stop-color="#EF2B37"/>
</linearGradient>
</defs>
</svg>
