<svg width="16" height="16" viewBox="0 0 16 16" fill="none" xmlns="http://www.w3.org/2000/svg">
<path fill-rule="evenodd" clip-rule="evenodd" d="M6.64518 2.77728C7.23562 1.74091 8.76409 1.74091 9.35453 2.77728L14.4693 11.7549C15.0431 12.7622 14.2962 14 13.1146 14H2.88511C1.7035 14 0.956594 12.7622 1.53044 11.7549L6.64518 2.77728ZM8.66648 11.3333C8.66648 11.7015 8.36801 12 7.99982 12C7.63163 12 7.33315 11.7015 7.33315 11.3333C7.33315 10.9651 7.63163 10.6667 7.99982 10.6667C8.36801 10.6667 8.66648 10.9651 8.66648 11.3333ZM8.49982 6C8.49982 5.72386 8.27596 5.5 7.99982 5.5C7.72367 5.5 7.49982 5.72386 7.49982 6V9.33333C7.49982 9.60948 7.72367 9.83333 7.99982 9.83333C8.27596 9.83333 8.49982 9.60948 8.49982 9.33333V6Z" fill="url(#paint0_linear_1_258)"/>
<defs>
<linearGradient id="paint0_linear_1_258" x1="7.99986" y1="2" x2="7.99986" y2="14" gradientUnits="userSpaceOnUse">
<stop offset="0.0889996" stop-color="#FFAA47"/>
<stop offset="0.354" stop-color="#FC9924"/>
</linearGradient>
</defs>
</svg>
