<svg width="16" height="17" viewBox="0 0 16 17" fill="none" xmlns="http://www.w3.org/2000/svg">
<path fill-rule="evenodd" clip-rule="evenodd" d="M8.42855 4.83337H5.33331V4.50004C5.33331 3.02728 6.52722 1.83337 7.99998 1.83337H12C13.4727 1.83337 14.6666 3.02728 14.6666 4.50004V8.50004C14.6666 9.9728 13.4727 11.1667 12 11.1667H11.6666V8.07147C11.6666 6.28312 10.2169 4.83337 8.42855 4.83337ZM7.99998 15.1667H3.99998C2.52722 15.1667 1.33331 13.9728 1.33331 12.5V8.50004C1.33331 7.02728 2.52722 5.83337 3.99998 5.83337H7.99998C9.47274 5.83337 10.6666 7.02728 10.6666 8.50004V12.5C10.6666 13.9728 9.47274 15.1667 7.99998 15.1667Z" fill="#585A65"/>
</svg>
