<svg width="16" height="16" viewBox="0 0 16 16" fill="none" xmlns="http://www.w3.org/2000/svg">
<path fill-rule="evenodd" clip-rule="evenodd" d="M8.42855 4.33325H5.33331V3.99992C5.33331 2.52716 6.52722 1.33325 7.99998 1.33325H12C13.4727 1.33325 14.6666 2.52716 14.6666 3.99992V7.99992C14.6666 9.47268 13.4727 10.6666 12 10.6666H11.6666V7.57135C11.6666 5.783 10.2169 4.33325 8.42855 4.33325ZM7.99998 14.6666H3.99998C2.52722 14.6666 1.33331 13.4727 1.33331 11.9999V7.99992C1.33331 6.52716 2.52722 5.33325 3.99998 5.33325H7.99998C9.47274 5.33325 10.6666 6.52716 10.6666 7.99992V11.9999C10.6666 13.4727 9.47274 14.6666 7.99998 14.6666Z" fill="url(#paint0_linear_1_126)"/>
<defs>
<linearGradient id="paint0_linear_1_126" x1="7.99998" y1="1.33325" x2="7.99998" y2="14.6666" gradientUnits="userSpaceOnUse">
<stop offset="0.0889996" stop-color="#FFAA47"/>
<stop offset="0.354" stop-color="#FC9924"/>
</linearGradient>
</defs>
</svg>
