<svg width="16" height="17" viewBox="0 0 16 17" fill="none" xmlns="http://www.w3.org/2000/svg">
<path fill-rule="evenodd" clip-rule="evenodd" d="M7.52591 2.5H5.41538C4.19173 2.5 3.12511 3.33279 2.82833 4.5199L1.74749 8.84328C1.53711 9.68481 2.17358 10.5 3.04101 10.5H6.33331L5.46207 11.9935C4.81393 13.1046 5.61539 14.5 6.9017 14.5H7.66664L10.2455 9.98705C10.303 9.88632 10.3333 9.77231 10.3333 9.65629V4.19012C10.3333 3.96722 10.2219 3.75906 10.0364 3.63542L9.00511 2.94786C8.56706 2.65583 8.05237 2.5 7.52591 2.5ZM13.3333 10.5H12.6667C11.9303 10.5 11.3333 9.90304 11.3333 9.16666V4.5C11.3333 3.76362 11.9303 3.16666 12.6667 3.16666H13.3333C14.0697 3.16666 14.6667 3.76362 14.6667 4.5V9.16666C14.6667 9.90304 14.0697 10.5 13.3333 10.5Z" fill="#585A65"/>
</svg>
