<svg width="16" height="17" viewBox="0 0 16 17" fill="none" xmlns="http://www.w3.org/2000/svg">
<path fill-rule="evenodd" clip-rule="evenodd" d="M8.47409 14.5H10.5846C11.8083 14.5 12.8749 13.6672 13.1717 12.4801L14.2525 8.15672C14.4629 7.31519 13.8264 6.5 12.959 6.5H9.66669L10.5379 5.00645C11.1861 3.89536 10.3846 2.5 9.0983 2.5H8.33336L5.75453 7.01295C5.69697 7.11368 5.66669 7.22769 5.66669 7.34371V12.8099C5.66669 13.0328 5.77809 13.2409 5.96356 13.3646L6.99489 14.0521C7.43294 14.3442 7.94763 14.5 8.47409 14.5ZM2.66668 6.5H3.33334C4.06972 6.5 4.66668 7.09696 4.66668 7.83334V12.5C4.66668 13.2364 4.06972 13.8333 3.33334 13.8333H2.66668C1.9303 13.8333 1.33334 13.2364 1.33334 12.5V7.83334C1.33334 7.09696 1.9303 6.5 2.66668 6.5Z" fill="url(#paint0_linear_1_159)"/>
<defs>
<linearGradient id="paint0_linear_1_159" x1="7.81316" y1="2.5" x2="7.81316" y2="14.5" gradientUnits="userSpaceOnUse">
<stop offset="0.0889996" stop-color="#FFAA47"/>
<stop offset="0.354" stop-color="#FC9924"/>
</linearGradient>
</defs>
</svg>
