<svg width="16" height="16" viewBox="0 0 16 16" fill="none" xmlns="http://www.w3.org/2000/svg">
<path fill-rule="evenodd" clip-rule="evenodd" d="M8.49974 1.83325C8.49974 1.55711 8.27588 1.33325 7.99974 1.33325C7.72359 1.33325 7.49974 1.55711 7.49974 1.83325V3.49992C7.49974 3.77606 7.72359 3.99992 7.99974 3.99992C8.27588 3.99992 8.49974 3.77606 8.49974 3.49992V1.83325ZM8.49974 12.6665C8.49974 12.3904 8.27588 12.1665 7.99974 12.1665C7.72359 12.1665 7.49974 12.3904 7.49974 12.6665V14.1665C7.49974 14.4426 7.72359 14.6665 7.99974 14.6665C8.27588 14.6665 8.49974 14.4426 8.49974 14.1665V12.6665ZM12.7142 3.28591C12.9095 3.48117 12.9095 3.79775 12.7142 3.99301L11.5357 5.17152C11.3404 5.36679 11.0239 5.36679 10.8286 5.17152C10.6333 4.97626 10.6333 4.65968 10.8286 4.46442L12.0071 3.28591C12.2024 3.09064 12.5189 3.09064 12.7142 3.28591ZM5.05348 11.6533C5.24875 11.458 5.24875 11.1415 5.05348 10.9462C4.85822 10.7509 4.54164 10.7509 4.34638 10.9462L3.28572 12.0069C3.09046 12.2021 3.09046 12.5187 3.28572 12.714C3.48098 12.9092 3.79756 12.9092 3.99282 12.714L5.05348 11.6533ZM14.6666 7.9999C14.6666 8.27604 14.4428 8.4999 14.1666 8.4999H12.5C12.2238 8.4999 12 8.27604 12 7.9999C12 7.72376 12.2238 7.4999 12.5 7.4999H14.1666C14.4428 7.4999 14.6666 7.72376 14.6666 7.9999ZM3.33331 8.4999C3.60946 8.4999 3.83331 8.27604 3.83331 7.9999C3.83331 7.72376 3.60946 7.4999 3.33331 7.4999H1.83331C1.55717 7.4999 1.33331 7.72376 1.33331 7.9999C1.33331 8.27604 1.55717 8.4999 1.83331 8.4999H3.33331ZM12.7141 12.714C12.5189 12.9092 12.2023 12.9092 12.007 12.714L10.8285 11.5355C10.6333 11.3402 10.6333 11.0236 10.8285 10.8283C11.0238 10.6331 11.3404 10.6331 11.5356 10.8283L12.7141 12.0069C12.9094 12.2021 12.9094 12.5187 12.7141 12.714ZM4.3463 5.05363C4.54156 5.24889 4.85815 5.24889 5.05341 5.05363C5.24867 4.85836 5.24867 4.54178 5.05341 4.34652L3.99275 3.28586C3.79749 3.0906 3.4809 3.0906 3.28564 3.28586C3.09038 3.48112 3.09038 3.7977 3.28564 3.99297L4.3463 5.05363Z" fill="url(#paint0_linear_1_206)"/>
<defs>
<linearGradient id="paint0_linear_1_206" x1="7.99998" y1="1.33325" x2="7.99998" y2="14.6666" gradientUnits="userSpaceOnUse">
<stop offset="0.0889996" stop-color="#67C8FF"/>
<stop offset="0.354" stop-color="#2AB2FF"/>
</linearGradient>
</defs>
</svg>
