<svg width="30" height="17" viewBox="0 0 30 17" fill="none" xmlns="http://www.w3.org/2000/svg">
<path d="M9.87375 15.7881C9.25566 16.8917 9.27693 16.9033 8.78518 16.9033C8.30757 16.9033 8.08993 16.7259 7.8721 16.354C5.80012 12.8169 1.97277 5.03525 0.989493 2.84224C0.0469522 0.740075 0.989493 0.719974 1.97281 0.719971H10.1203C11.1387 0.719977 11.4196 1.16129 11.7357 1.74573L14.6151 7.06593C12.5023 10.9667 10.2841 15.0554 9.87375 15.7881Z" fill="url(#paint0_linear_1_1345)"/>
<path d="M9.87375 15.7881C9.25566 16.8917 9.27693 16.9033 8.78518 16.9033L20.3039 16.92C20.95 16.92 21.3925 16.92 21.7437 16.354C23.722 12.6283 27.9316 4.70984 28.943 2.84224C30.0396 0.817302 28.943 0.719974 27.9597 0.719971H19.1098C18.0914 0.719977 17.8105 1.16129 17.4944 1.74573C16.7272 3.16442 15.6847 5.0911 14.6151 7.06593C12.5023 10.9667 10.2841 15.0554 9.87375 15.7881Z" fill="url(#paint1_linear_1_1345)"/>
<defs>
<linearGradient id="paint0_linear_1_1345" x1="15.0001" y1="0.719971" x2="15.0001" y2="16.92" gradientUnits="userSpaceOnUse">
<stop stop-color="#2AB2FF"/>
<stop offset="0.599" stop-color="#67C8FF"/>
</linearGradient>
<linearGradient id="paint1_linear_1_1345" x1="15.0001" y1="0.719971" x2="15.0001" y2="16.92" gradientUnits="userSpaceOnUse">
<stop offset="0.0889996" stop-color="#67C8FF"/>
<stop offset="0.354" stop-color="#2AB2FF"/>
</linearGradient>
</defs>
</svg>
