<svg width="28" height="28" viewBox="0 0 28 28" fill="none" xmlns="http://www.w3.org/2000/svg">
<path fill-rule="evenodd" clip-rule="evenodd" d="M13.9998 0.320068C6.44457 0.320068 0.319824 6.44482 0.319824 14.0001C0.319824 21.5553 6.44457 27.6801 13.9998 27.6801C21.5551 27.6801 27.6798 21.5553 27.6798 14.0001C27.6798 6.44482 21.5551 0.320068 13.9998 0.320068ZM10.5375 12.0893C8.57919 13.8158 7.19409 16.0904 7.163 19.2859C7.16262 19.3243 7.16244 19.3435 7.16984 19.3583C7.1763 19.3711 7.18694 19.3818 7.19975 19.3885C7.21448 19.396 7.23363 19.396 7.27194 19.396H10.093C10.1314 19.396 10.1505 19.396 10.1651 19.3887C10.1779 19.3822 10.1882 19.3721 10.1949 19.3593C10.2024 19.3448 10.2027 19.3252 10.2033 19.2859C10.2398 16.6187 11.6096 14.8405 13.9406 13.3184C13.9621 13.3043 13.973 13.2973 13.9846 13.2945C13.9949 13.2921 14.0057 13.2921 14.016 13.2945C14.0277 13.2973 14.0384 13.3043 14.06 13.3184C16.391 14.8405 17.7608 16.6187 17.7974 19.2859C17.7979 19.3252 17.7982 19.3448 17.8057 19.3593C17.8124 19.3721 17.8226 19.3822 17.8356 19.3887C17.8501 19.396 17.8692 19.396 17.9076 19.396H20.7287C20.7669 19.396 20.7861 19.396 20.8008 19.3885C20.8136 19.3818 20.8243 19.3711 20.8307 19.3583C20.8381 19.3435 20.838 19.3243 20.8376 19.2859C20.8065 16.0904 19.4215 13.8158 17.4631 12.0893C17.4089 12.0416 17.3818 12.0177 17.3776 11.9944C17.3739 11.9741 17.3796 11.9532 17.393 11.9375C17.4085 11.9195 17.4434 11.9127 17.513 11.8991C18.3259 11.7409 19.1673 11.6482 19.9054 11.6405C19.9407 11.6401 19.9584 11.64 19.9721 11.6334C19.9843 11.6275 19.9942 11.6184 20.0012 11.6068C20.009 11.5937 20.0108 11.5763 20.0142 11.5415L20.2982 8.7291C20.3016 8.69434 20.3034 8.67693 20.2983 8.66244C20.2937 8.6497 20.2855 8.63857 20.2747 8.63048C20.2623 8.62128 20.2452 8.61786 20.2109 8.61102C16.0267 7.77094 11.9234 7.81186 7.80098 8.60946C7.76659 8.61612 7.74943 8.61941 7.737 8.62855C7.72611 8.63658 7.71778 8.64771 7.71318 8.66045C7.70796 8.67494 7.70964 8.69242 7.71306 8.7273L7.98666 11.5412C7.99008 11.576 7.99176 11.5935 7.99959 11.6066C8.00649 11.6183 8.01644 11.6275 8.02869 11.6333C8.04243 11.64 8.06009 11.6401 8.09554 11.6405C8.83357 11.6482 9.67489 11.741 10.4875 11.8991C10.5573 11.9127 10.5921 11.9195 10.6076 11.9375C10.6211 11.9532 10.6267 11.9741 10.623 11.9944C10.6188 12.0176 10.5918 12.0414 10.538 12.0889L10.5375 12.0893Z" fill="url(#paint0_linear_1_1336)"/>
<defs>
<linearGradient id="paint0_linear_1_1336" x1="13.9998" y1="0.320068" x2="13.9998" y2="27.6801" gradientUnits="userSpaceOnUse">
<stop stop-color="#EF3F51"/>
<stop offset="1" stop-color="#FC6743"/>
</linearGradient>
</defs>
</svg>
