<svg width="16" height="16" viewBox="0 0 16 16" fill="none" xmlns="http://www.w3.org/2000/svg">
<path fill-rule="evenodd" clip-rule="evenodd" d="M6.91386 1.57617L3.55499 3.1405C2.58343 3.59299 1.94229 4.6063 2.00411 5.71853C2.24581 10.0668 3.46094 11.981 6.61839 14.221C7.45484 14.8145 8.55742 14.8159 9.39325 14.2215C12.5604 11.9693 13.7321 10.028 13.995 5.73359C14.0635 4.61401 13.4214 3.58994 12.443 3.1343L9.09748 1.57617C8.40239 1.25244 7.60896 1.25244 6.91386 1.57617ZM7.33335 11.3334C7.33335 10.9652 7.63183 10.6667 8.00002 10.6667C8.36821 10.6667 8.66669 10.9652 8.66669 11.3334C8.66669 11.7016 8.36821 12 8.00002 12C7.63183 12 7.33335 11.7016 7.33335 11.3334ZM7.50002 9.33337C7.50002 9.60952 7.72388 9.83337 8.00002 9.83337C8.27616 9.83337 8.50002 9.60952 8.50002 9.33337L8.50002 4.66671C8.50002 4.39056 8.27616 4.16671 8.00002 4.16671C7.72388 4.16671 7.50002 4.39056 7.50002 4.66671L7.50002 9.33337Z" fill="#585A65"/>
</svg>
