<svg width="16" height="17" viewBox="0 0 16 17" fill="none" xmlns="http://www.w3.org/2000/svg">
<path fill-rule="evenodd" clip-rule="evenodd" d="M3.55499 3.64038L6.91386 2.07605C7.60896 1.75232 8.40239 1.75232 9.09748 2.07605L12.443 3.63418C13.4214 4.08982 14.0635 5.11389 13.995 6.23347C13.7321 10.5279 12.5604 12.4692 9.39325 14.7214C8.55742 15.3158 7.45484 15.3143 6.61839 14.7209C3.46094 12.4809 2.24581 10.5666 2.00411 6.2184C1.94229 5.10618 2.58343 4.09286 3.55499 3.64038ZM10.3763 7.49584C10.5581 7.28803 10.537 6.97215 10.3292 6.7903C10.1214 6.60846 9.80553 6.62952 9.62369 6.83734L7.71042 9.02394C7.65169 9.09106 7.55052 9.10005 7.48087 9.04433L6.31233 8.10949C6.09669 7.93699 5.78205 7.97195 5.60954 8.18758C5.43704 8.40321 5.472 8.71785 5.68763 8.89036L6.85618 9.8252C7.3437 10.2152 8.05187 10.1523 8.463 9.68244L10.3763 7.49584Z" fill="url(#paint0_linear_1_171)"/>
<defs>
<linearGradient id="paint0_linear_1_171" x1="8" y1="1.83325" x2="8" y2="15.1666" gradientUnits="userSpaceOnUse">
<stop offset="0.0889996" stop-color="#FFAA47"/>
<stop offset="0.354" stop-color="#FC9924"/>
</linearGradient>
</defs>
</svg>
