<svg width="16" height="17" viewBox="0 0 16 17" fill="none" xmlns="http://www.w3.org/2000/svg">
<path fill-rule="evenodd" clip-rule="evenodd" d="M8.00014 1.83325H12.0001C13.1193 1.83325 14.0774 2.52264 14.473 3.49992H5.52731C5.92291 2.52264 6.88102 1.83325 8.00014 1.83325ZM1.33365 8.49992L1.33365 11.1666H4.00032C4.73669 11.1666 5.33365 10.5696 5.33365 9.83325C5.33365 9.09687 4.7367 8.49992 4.00032 8.49992H1.33365ZM14.667 4.49992H4.00031C2.52755 4.49992 1.33365 5.69383 1.33365 7.16659V7.49992H4.00031C5.28898 7.49992 6.33365 8.54459 6.33365 9.83325C6.33365 11.1219 5.28898 12.1666 4.00031 12.1666H1.33365V12.4999C1.33365 13.9727 2.52756 15.1666 4.00032 15.1666H12.0003C13.4731 15.1666 14.667 13.9727 14.667 12.4999V4.49992Z" fill="#585A65"/>
</svg>
