<svg width="20" height="20" viewBox="0 0 20 20" fill="none" xmlns="http://www.w3.org/2000/svg">
<g clip-path="url(#clip0_23_1011)">
<path d="M10 0C4.47686 0 0 4.47686 0 10C0 15.5231 4.47686 20 10 20C15.5225 20 20 15.5225 20 10C20 4.47752 15.5231 0 10 0ZM13.5356 12.6519C13.78 12.8962 13.78 13.2919 13.5356 13.5356C13.2912 13.78 12.8956 13.78 12.6519 13.5356L10.0038 10.8875L7.33748 13.5538C7.09124 13.7994 6.69248 13.7994 6.44686 13.5538C6.20062 13.3075 6.20062 12.9088 6.44686 12.6631L9.1131 9.99686L6.46497 7.34873C6.22059 7.10435 6.22059 6.70873 6.46497 6.465C6.70935 6.22062 7.10497 6.22062 7.34869 6.465L9.99683 9.11314L12.6825 6.42752C12.9287 6.18127 13.3275 6.18127 13.5731 6.42752C13.8193 6.67376 13.8193 7.07252 13.5731 7.31814L10.8875 10.0038L13.5356 12.6519Z" fill="white"/>
</g>
<defs>
<clipPath id="clip0_23_1011">
<rect width="20" height="20" fill="white"/>
</clipPath>
</defs>
</svg>
