<svg width="255" height="255" fill="none" xmlns="http://www.w3.org/2000/svg"><path d="M250.75 29.75h-25.5c0-7.043 5.708-12.75 12.75-12.75 7.043 0 12.75 5.708 12.75 12.75z" fill="#B5B5B5"/><path d="M42.5 17H238c-7.043 0-12.75 5.707-12.75 12.75V170H195.5v-17l-.085-.17 10.965-5.015L199.75 136l6.63-11.815-12.326-5.652-1.572-13.473-13.302 2.635L170 97.75l-9.18 9.945-13.303-2.635-1.572 13.473-12.325 5.652L140.25 136l-6.63 11.815 10.965 5.015-.085.17v17H29.75V29.75C29.75 22.708 35.458 17 42.5 17z" fill="#E6E6E6"/><path d="M195.5 170h29.75c0 7.042-5.708 12.75-12.75 12.75h-17V170z" fill="#B5B5B5"/><path d="M206.38 124.185L199.75 136l6.63 11.815-10.965 5.015-1.36.638-1.572 13.472-13.303-2.635-9.18 9.945-9.18-9.945-13.302 2.635-1.572-13.472-1.361-.638-10.965-5.015L140.25 136l-6.63-11.815 12.326-5.653 1.572-13.472 13.302 2.635L170 97.75l9.18 9.945 13.303-2.635 1.572 13.472 12.325 5.653zM187 136c0-9.388-7.611-17-17-17-9.388 0-17 7.612-17 17s7.612 17 17 17 17-7.612 17-17z" fill="#FF8030"/><path d="M195.5 182.75V238L170 212.5 144.5 238v-85l.085-.17 1.36.638 1.572 13.472 13.303-2.635 9.18 9.945 9.18-9.945 13.303 2.635 1.572-13.472 1.36-.638.085.17v29.75z" fill="#FB5968"/><path d="M170 153c9.389 0 17-7.611 17-17s-7.611-17-17-17-17 7.611-17 17 7.611 17 17 17z" fill="#FFDB6F"/><path d="M144.5 170v12.75H17c-7.043 0-12.75-5.708-12.75-12.75H144.5z" fill="#B5B5B5"/><path d="M161.5 38.25h-68v8.5h68v-8.5zm42.5 25.5H51v8.5h153v-8.5zm0 17H51v8.5h153v-8.5zM110.5 136H55.25v8.5h55.25V136z" fill="#454545"/><path d="M17 187h123.25v51a4.252 4.252 0 007.255 3.005L170 218.51l22.495 22.495a4.24 4.24 0 003.005 1.245 4.25 4.25 0 004.25-4.25v-51h12.75c9.388 0 17-7.612 17-17V34h21.25a4.251 4.251 0 004.249-4.25c0-9.388-7.611-17-16.999-17H42.5c-9.388 0-17 7.612-17 17v136H4.25A4.252 4.252 0 000 170c0 9.388 7.612 17 17 17zM245.357 25.5h-14.713a8.5 8.5 0 0114.713 0zM29.75 174.25H136v-8.5H34v-136c0-4.696 3.803-8.5 8.5-8.5h180.863a16.816 16.816 0 00-2.363 8.5v136h-17v8.5h15.857a8.5 8.5 0 01-7.357 4.25h-12.75v-4.25h-8.5v53.491l-18.245-18.246a4.254 4.254 0 00-6.01 0l-18.245 18.246V174.25h-8.5v4.25H17a8.502 8.502 0 01-7.357-4.25H29.75z" fill="#000"/><path d="M143.301 167.45a4.253 4.253 0 005.046 3.668l10.956-2.172 7.578 8.207a4.25 4.25 0 006.239 0l7.578-8.207 10.956 2.172a4.198 4.198 0 003.324-.731 4.263 4.263 0 001.7-2.937l1.309-11.093 10.144-4.653a4.253 4.253 0 001.934-5.95L204.621 136l5.465-9.745a4.247 4.247 0 00-1.933-5.95l-10.145-4.645-1.309-11.093a4.253 4.253 0 00-5.045-3.668l-10.957 2.172-7.577-8.206a4.382 4.382 0 00-6.239 0l-7.578 8.206-10.957-2.172a4.25 4.25 0 00-5.045 3.668l-1.308 11.093-10.145 4.654a4.25 4.25 0 00-1.934 5.949L135.38 136l-5.466 9.745a4.248 4.248 0 001.933 5.95l10.145 4.654 1.309 11.101zm.655-33.511l-4.373-7.803 8.126-3.727a4.255 4.255 0 002.448-3.366l1.045-8.895 8.785 1.738a4.206 4.206 0 003.944-1.275l6.069-6.592 6.069 6.571a4.184 4.184 0 003.944 1.275l8.785-1.738 1.045 8.895a4.25 4.25 0 002.448 3.366l8.126 3.727-4.373 7.803a4.255 4.255 0 000 4.157l4.373 7.802-8.126 3.728a4.25 4.25 0 00-2.448 3.366l-1.045 8.895-8.785-1.738a4.182 4.182 0 00-3.944 1.275L170 167.982l-6.069-6.571a4.242 4.242 0 00-3.12-1.364c-.276 0-.552.025-.824.085l-8.785 1.738-1.045-8.895a4.25 4.25 0 00-2.448-3.366l-8.126-3.727 4.373-7.803c.732-1.296.748-2.869 0-4.157v.017z" fill="#000"/><path d="M170 157.25c11.734 0 21.25-9.516 21.25-21.25 0-11.735-9.516-21.25-21.25-21.25-11.735 0-21.25 9.516-21.25 21.25.013 11.73 9.52 21.237 21.25 21.25zm0-34c7.042 0 12.75 5.708 12.75 12.75 0 7.043-5.708 12.75-12.75 12.75-7.043 0-12.75-5.707-12.75-12.75 0-7.042 5.708-12.75 12.75-12.75zm-8.5-85h-68v8.5h68v-8.5zm42.5 25.5H51v8.5h153v-8.5zm0 17H51v8.5h153v-8.5zM110.5 136H55.25v8.5h55.25V136z" fill="#000"/></svg>