<svg width="255" height="255" fill="none" xmlns="http://www.w3.org/2000/svg"><path d="M3.735 208.271V26.116a4.98 4.98 0 014.98-4.98h237.569a4.98 4.98 0 014.981 4.98V208.27a4.98 4.98 0 01-4.981 4.98H8.716a4.98 4.98 0 01-4.98-4.98z" fill="#FED23A"/><path d="M19.015 198.008h216.97V36.378H19.015v161.63z" fill="#FFF9E9"/><path d="M216.063 36.378h19.922v161.63h-19.922V36.378z" fill="#FFF4D6"/><path d="M194.681 233.895l-10.708-4.98-10.708 4.98v-64.248h21.416v64.248z" fill="#FFABE7"/><path d="M183.973 182.067c-3.779 0-6.253-6.432-9.539-7.797-3.406-1.415-9.684 1.327-12.251-1.245-2.566-2.571.17-8.86-1.242-12.272-1.363-3.292-7.783-5.771-7.783-9.556 0-3.786 6.42-6.264 7.783-9.556 1.412-3.413-1.324-9.701 1.242-12.273 2.567-2.571 8.845.171 12.25-1.244 3.286-1.366 5.76-7.797 9.539-7.797s6.253 6.431 9.539 7.797c3.406 1.415 9.683-1.327 12.25 1.245 2.567 2.571-.17 8.86 1.243 12.272 1.362 3.292 7.782 5.77 7.782 9.556 0 3.785-6.42 6.264-7.782 9.556-1.413 3.412 1.324 9.701-1.243 12.272-2.567 2.572-8.844-.17-12.25 1.245-3.285 1.365-5.76 7.797-9.538 7.797z" fill="#FF6ED4"/><path d="M207.004 141.641c-1.413-3.412 1.324-9.701-1.243-12.272-2.567-2.572-8.844.17-12.25-1.245-3.286-1.366-5.76-7.797-9.539-7.797s-6.253 6.431-9.539 7.797a4.663 4.663 0 01-.422.148c3.48 1.054 9.363-1.373 11.828 1.097 2.567 2.571-.17 8.86 1.242 12.272 1.363 3.292 7.783 5.77 7.783 9.556 0 3.786-6.42 6.265-7.783 9.556-1.412 3.412 1.325 9.701-1.242 12.272-2.465 2.469-8.348.043-11.828 1.098.145.044.286.091.422.148 3.286 1.365 5.76 7.797 9.539 7.797s6.253-6.432 9.539-7.797c3.406-1.415 9.683 1.326 12.25-1.246 2.567-2.571-.17-8.86 1.242-12.272 1.363-3.291 7.783-5.77 7.783-9.556 0-3.785-6.42-6.264-7.782-9.556z" fill="#FF5CCF"/><path d="M183.973 162.051c5.994 0 10.854-4.859 10.854-10.854 0-5.995-4.86-10.854-10.854-10.854-5.995 0-10.855 4.859-10.855 10.854 0 5.995 4.86 10.854 10.855 10.854z" fill="#FFABE7"/><path d="M246.284 17.4H8.716C3.91 17.4 0 21.31 0 26.116v30.677c0 4.83 7.47 4.83 7.47 0V26.116c0-.687.559-1.245 1.246-1.245h237.568c.687 0 1.245.558 1.245 1.245V208.27c0 .686-.558 1.245-1.245 1.245h-47.868v-7.773h37.57a3.735 3.735 0 003.735-3.735v-39.116c0-4.83-7.471-4.83-7.471 0v35.381h-33.834v-16.574l.359.032c3.101.272 6.958.611 9.63-2.066 2.669-2.674 2.331-6.535 2.06-9.637-.293-3.33.022-4.241 2.581-6.368 6.589-5.479 6.711-11.345 0-16.924-2.559-2.128-2.872-3.039-2.581-6.369.731-8.356-3.172-12.45-11.69-11.702-3.324.292-4.226-.024-6.346-2.583-5.47-6.604-11.34-6.726-16.912 0-2.119 2.559-3.021 2.876-6.345 2.583-8.362-.734-12.437 3.19-11.691 11.702.291 3.331-.022 4.241-2.581 6.369-6.589 5.478-6.711 11.345 0 16.924 2.559 2.129 2.872 3.039 2.581 6.369-.784 8.949 3.49 12.41 12.048 11.671v16.574H22.75V40.114h209.5v98.856c0 4.83 7.471 4.83 7.471 0V36.378a3.735 3.735 0 00-3.735-3.736H19.015a3.735 3.735 0 00-3.735 3.736v161.63a3.735 3.735 0 003.735 3.735h150.514v7.773H8.716a1.247 1.247 0 01-1.245-1.245V75.718c0-4.83-7.471-4.83-7.471 0v132.553c0 4.805 3.91 8.716 8.716 8.716h160.813v16.908c.532 3.07 2.303 4.199 5.311 3.387l9.133-4.248 9.132 4.248c2.26 1.051 5.311-.61 5.311-3.387v-16.908h47.868c4.806 0 8.716-3.911 8.716-8.716V26.116c0-4.807-3.91-8.716-8.716-8.716zm-77.767 152.888c-3.74.329-3.921.129-3.594-3.609.502-5.736-.818-9.083-5.248-12.765-3.031-2.521-3.03-2.914 0-5.434 4.43-3.683 5.75-7.03 5.248-12.765-.327-3.738-.146-3.936 3.594-3.609 5.736.505 9.079-.824 12.753-5.26 2.51-3.03 2.894-3.03 5.405 0 3.675 4.436 7.016 5.763 12.753 5.26 3.74-.329 3.921-.129 3.594 3.608-.502 5.736.817 9.083 5.247 12.765 3.031 2.521 3.032 2.915 0 5.435-4.43 3.683-5.75 7.028-5.248 12.764.329 3.738.146 3.938-3.593 3.61-2.346-.206-5.007-.441-7.35.533-2.268.941-3.862 2.865-5.404 4.727-.726.876-2.051 2.476-2.702 2.763-.651-.287-1.977-1.887-2.703-2.763-1.541-1.861-3.135-3.786-5.403-4.727a16.36 16.36 0 00-7.349-.533zm17.031 55.24a3.733 3.733 0 00-3.151 0L177 228.039v-45.994c1.772 1.948 3.959 3.758 6.973 3.758 3.013 0 5.2-1.809 6.972-3.758v45.994l-5.397-2.511z" fill="#060606"/><path d="M48.441 71.38H177.21c4.83 0 4.83-7.47 0-7.47H48.441c-4.83 0-4.83 7.47 0 7.47zm161.853 18.985a3.735 3.735 0 00-3.736-3.735H48.441c-4.829 0-4.829 7.47 0 7.47H206.56a3.735 3.735 0 003.735-3.735zm-68.282 22.719a3.736 3.736 0 00-3.736-3.735H48.441c-4.829 0-4.829 7.471 0 7.471h89.835a3.736 3.736 0 003.736-3.736zM92.96 165.151c-2.036.004-4.073.006-6.11.008-3.917.003-6.074-1.042-6.875-5.196-.73-3.793-6.2-3.31-7.203 0-.444 1.465-2.685 5.662-4.643 5.318-1.038-.181-1.49-1.782-1.874-2.61-.747-1.614-1.29-3.323-1.756-5.037-1.967-7.238-2.36-14.796-3.59-22.171-.713-4.277-7.231-3.068-7.337.993-.334 12.935-2.449 25.692-7.054 37.816-1.709 4.499 5.51 6.444 7.204 1.986 1.775-4.674 3.185-9.461 4.279-14.319a37.88 37.88 0 002.14 5.195c2.182 4.311 6.63 6.862 11.391 4.944 1.699-.684 3.249-1.88 4.568-3.336 3.534 4.075 8.792 3.891 13.697 3.885 7.395-.01 14.789-.027 22.184-.048 4.807-.013 4.816-7.484 0-7.47-6.34.017-12.68.032-19.02.042zm91.013.636c8.044 0 14.59-6.545 14.59-14.59s-6.546-14.59-14.59-14.59c-8.045 0-14.59 6.545-14.59 14.59 0 8.044 6.545 14.59 14.59 14.59zm0-21.709c3.925 0 7.119 3.194 7.119 7.119s-3.194 7.119-7.119 7.119c-3.926 0-7.12-3.193-7.12-7.119 0-3.926 3.194-7.119 7.12-7.119z" fill="#060606"/></svg>