<svg width="255" height="255" fill="none" xmlns="http://www.w3.org/2000/svg"><path d="M244.623 199.259H10.377a6.639 6.639 0 01-6.639-6.639V34.505a6.638 6.638 0 016.639-6.639h234.246a6.639 6.639 0 016.639 6.639V192.62a6.64 6.64 0 01-6.639 6.639z" fill="#E0E0D1"/><path d="M244.623 27.866h-15.598V183.15a6.639 6.639 0 01-6.638 6.639H3.738v2.831a6.639 6.639 0 006.639 6.639h234.246a6.639 6.639 0 006.639-6.639V34.505a6.64 6.64 0 00-6.639-6.639z" fill="#CECEC0"/><path d="M232.45 162.727h.009a.874.874 0 00.881-.87V65.268a.873.873 0 00-.881-.87h-.009c-9.596 0-17.426-7.563-17.853-17.054a.864.864 0 00-.867-.817H40.38a.864.864 0 00-.867.817c-.415 9.22-7.816 16.62-17.036 17.036a.864.864 0 00-.818.867v96.632c0 .46.358.846.818.867 9.22.415 16.62 7.816 17.036 17.036a.864.864 0 00.867.817h173.35c.46 0 .846-.358.867-.817.427-9.492 8.257-17.055 17.853-17.055z" fill="#fff"/><path d="M232.459 64.398h-.009c-9.596 0-17.426-7.563-17.853-17.054a.864.864 0 00-.867-.818h-22.429c.46 0 .846.358.867.818.427 9.49 8.257 17.054 17.853 17.054h.009c.485 0 .881.385.881.87v96.589c0 .485-.397.87-.881.869h-.009c-9.596 0-17.426 7.564-17.853 17.055a.864.864 0 01-.867.817h22.429c.46 0 .846-.358.867-.817.427-9.491 8.257-17.055 17.853-17.055h.009a.873.873 0 00.881-.869V65.268a.874.874 0 00-.881-.87z" fill="#F2F2F2"/><path d="M185.746 226.796l-6.83-11.211a.703.703 0 00-.711-.329l-12.356 1.987a.702.702 0 01-.745-.995l18.45-38.661 21.893 10.448-18.467 38.698a.702.702 0 01-1.234.063z" fill="#61AFF6"/><path d="M215.007 226.796l6.83-11.211a.702.702 0 01.711-.329l12.356 1.987a.702.702 0 00.745-.995l-18.45-38.661-21.893 10.448 18.467 38.698a.702.702 0 001.234.063z" fill="#49A0E8"/><path d="M205.925 132.709a9.582 9.582 0 006.452 1.729 9.575 9.575 0 019.61 5.549 9.58 9.58 0 004.723 4.722 9.578 9.578 0 015.549 9.611 9.577 9.577 0 001.728 6.451 9.577 9.577 0 010 11.098 9.577 9.577 0 00-1.728 6.451 9.578 9.578 0 01-5.549 9.611 9.584 9.584 0 00-4.723 4.722 9.575 9.575 0 01-9.61 5.549 9.582 9.582 0 00-6.452 1.729 9.577 9.577 0 01-11.098 0 9.578 9.578 0 00-6.451-1.729 9.577 9.577 0 01-9.611-5.549 9.574 9.574 0 00-4.722-4.722 9.578 9.578 0 01-5.549-9.611 9.577 9.577 0 00-1.728-6.451 9.577 9.577 0 010-11.098 9.577 9.577 0 001.728-6.451 9.578 9.578 0 015.549-9.611 9.578 9.578 0 004.722-4.722 9.577 9.577 0 019.611-5.549 9.578 9.578 0 006.451-1.729 9.577 9.577 0 0111.098 0z" fill="#FF4C4C"/><path d="M188.021 198.222c.119-.007.237-.008.355-.019a9.4 9.4 0 01.786-.039 9.646 9.646 0 00-1.141.058zm1.141-63.746a9.89 9.89 0 01-.786-.038c-.119-.012-.236-.013-.355-.02.378.041.759.063 1.141.058zm44.826 26.295a9.578 9.578 0 01-1.729-6.451 9.576 9.576 0 00-5.549-9.611 9.582 9.582 0 01-4.722-4.722 9.576 9.576 0 00-9.611-5.549 9.578 9.578 0 01-6.451-1.729 9.577 9.577 0 00-11.098 0 9.57 9.57 0 01-4.525 1.709 9.574 9.574 0 019.256 5.569 9.578 9.578 0 004.722 4.722 9.576 9.576 0 015.549 9.611 9.572 9.572 0 001.729 6.451 9.577 9.577 0 010 11.098 9.572 9.572 0 00-1.729 6.451 9.576 9.576 0 01-5.549 9.611 9.582 9.582 0 00-4.722 4.722 9.574 9.574 0 01-9.256 5.569 9.57 9.57 0 014.525 1.709 9.577 9.577 0 0011.098 0 9.577 9.577 0 016.451-1.728 9.578 9.578 0 009.611-5.549 9.58 9.58 0 014.722-4.723 9.575 9.575 0 005.549-9.61 9.582 9.582 0 011.729-6.452 9.577 9.577 0 000-11.098z" fill="#EA2828"/><path d="M200.105 185.811c10.764 0 19.489-8.725 19.489-19.489 0-10.763-8.725-19.488-19.489-19.488-10.763 0-19.488 8.725-19.488 19.488 0 10.764 8.725 19.489 19.488 19.489z" fill="#FFB125"/><path d="M200.104 146.833a19.398 19.398 0 00-12.19 4.288c4.448 3.571 7.298 9.051 7.298 15.199 0 6.149-2.85 11.628-7.298 15.2a19.398 19.398 0 0012.19 4.288c10.763 0 19.487-8.724 19.487-19.487 0-10.763-8.725-19.488-19.487-19.488z" fill="#FF901D"/><path d="M200.104 68.302H54.896a3.738 3.738 0 100 7.477h145.208a3.738 3.738 0 100-7.477zm0 40.705H54.896a3.738 3.738 0 100 7.477h145.208a3.738 3.738 0 000-7.477zm-47.606 26.416h-49.996a3.739 3.739 0 000 7.477h49.996a3.738 3.738 0 100-7.477zm47.606-46.851H91.791a3.738 3.738 0 100 7.477h108.313a3.738 3.738 0 100-7.477zM54.896 96.048H74.4a3.738 3.738 0 100-7.477H54.896a3.738 3.738 0 100 7.477z" fill="#000"/><path d="M232.453 60.66h-.003a14.103 14.103 0 01-14.119-13.486 4.593 4.593 0 00-4.601-4.385H40.38a4.593 4.593 0 00-4.601 4.388c-.326 7.227-6.242 13.144-13.47 13.469a4.592 4.592 0 00-4.387 4.601v96.632a4.592 4.592 0 004.387 4.601c7.228.325 13.144 6.242 13.47 13.471a4.593 4.593 0 004.601 4.386h110.356a3.738 3.738 0 000-7.477H42.951a21.451 21.451 0 00-17.553-17.553v-91.49a21.452 21.452 0 0017.553-17.552h168.21c1.609 9.289 9.087 16.459 18.441 17.686v63.485a3.738 3.738 0 107.476 0V65.268a4.57 4.57 0 00-1.377-3.284 4.6 4.6 0 00-3.248-1.324z" fill="#000"/><path d="M244.623 24.128H10.377C4.655 24.128 0 28.783 0 34.505V192.62c0 5.722 4.655 10.376 10.377 10.376h156.908l-5.555 11.641a4.43 4.43 0 00.452 4.573 4.43 4.43 0 004.26 1.724l10.343-1.662 5.769 9.469a4.433 4.433 0 004.017 2.125 4.438 4.438 0 003.782-2.522l10.024-21.005 10.022 21.003a4.437 4.437 0 004.01 2.53 4.436 4.436 0 003.791-2.13l5.769-9.469 10.342 1.663a4.428 4.428 0 004.261-1.726 4.427 4.427 0 00.451-4.571l-5.556-11.641h11.156c5.722 0 10.377-4.655 10.377-10.377V34.505c0-5.722-4.655-10.377-10.377-10.377zm-58.602 195.934l-3.913-6.422a4.425 4.425 0 00-4.497-2.074l-6.64 1.068 6.995-14.658a13.323 13.323 0 0010.763 3.949 5.834 5.834 0 013.933 1.054c.377.268.768.505 1.164.729l-7.805 16.354zm15.247-22.167l-.035.004a5.861 5.861 0 01-1.709.001l-.043-.006a5.82 5.82 0 01-2.488-1.009 13.314 13.314 0 00-8.969-2.403 5.842 5.842 0 01-5.859-3.383 13.29 13.29 0 00-1.724-2.777 2.343 2.343 0 00-.094-.123c-.038-.046-.073-.094-.111-.139a2.67 2.67 0 00-.135-.147 13.294 13.294 0 00-4.503-3.38 5.843 5.843 0 01-3.383-5.86 13.317 13.317 0 00-2.403-8.969 5.842 5.842 0 010-6.766 13.317 13.317 0 002.403-8.969 5.844 5.844 0 013.383-5.86 13.313 13.313 0 006.566-6.566 5.848 5.848 0 015.86-3.383 13.316 13.316 0 008.969-2.403 5.842 5.842 0 016.766 0 13.333 13.333 0 008.97 2.403 5.841 5.841 0 015.86 3.383 13.317 13.317 0 006.566 6.566 5.842 5.842 0 013.383 5.859 13.323 13.323 0 002.403 8.97 5.842 5.842 0 010 6.766 13.322 13.322 0 00-2.403 8.969 5.844 5.844 0 01-3.383 5.86 13.307 13.307 0 00-4.495 3.371c-.051.052-.1.106-.147.161-.033.039-.063.079-.095.119a2.472 2.472 0 00-.11.143 13.286 13.286 0 00-1.719 2.772 5.844 5.844 0 01-5.86 3.383 13.338 13.338 0 00-8.97 2.403 5.817 5.817 0 01-2.491 1.01zm21.873 13.671a4.424 4.424 0 00-4.496 2.074l-3.913 6.423-7.804-16.355c.395-.224.786-.461 1.163-.729a5.827 5.827 0 013.934-1.054 13.322 13.322 0 0010.763-3.949l6.995 14.658-6.642-1.068zm24.383-18.946a2.904 2.904 0 01-2.901 2.901h-14.724l-1.927-4.039c.097-.052.194-.105.294-.151a13.328 13.328 0 007.715-13.362 5.84 5.84 0 011.054-3.934 13.325 13.325 0 00-.001-15.429 5.843 5.843 0 01-1.053-3.933 13.33 13.33 0 00-7.715-13.363 5.838 5.838 0 01-2.879-2.879 13.331 13.331 0 00-13.363-7.715 5.836 5.836 0 01-3.933-1.053 13.324 13.324 0 00-15.43 0 5.843 5.843 0 01-3.933 1.053 13.325 13.325 0 00-13.362 7.715 5.838 5.838 0 01-2.879 2.879 13.326 13.326 0 00-7.715 13.362 5.84 5.84 0 01-1.054 3.934 13.326 13.326 0 000 15.429 5.837 5.837 0 011.054 3.933 13.325 13.325 0 007.715 13.362c.1.046.196.1.293.151l-1.927 4.04H10.377c-1.6 0-2.9-1.301-2.9-2.901V34.505c0-1.6 1.3-2.9 2.9-2.9h234.246a2.905 2.905 0 012.901 2.9V192.62z" fill="#000"/><path d="M223.329 166.32c0-12.807-10.418-23.225-23.225-23.225-12.807 0-23.226 10.419-23.226 23.225 0 12.807 10.419 23.226 23.226 23.226 12.807 0 23.225-10.42 23.225-23.226zm-23.225 15.749c-8.685 0-15.75-7.065-15.75-15.749 0-8.684 7.065-15.75 15.75-15.75 8.684 0 15.749 7.066 15.749 15.75 0 8.684-7.065 15.749-15.749 15.749z" fill="#000"/></svg>