<svg width="65" height="65" fill="none" xmlns="http://www.w3.org/2000/svg"><path d="M26.406 43.672a3.047 3.047 0 013.047-3.047h9.14V22.344l-6.093-7.11v-5.078H8.125v5.078l-6.094 7.11V48.75a4.062 4.062 0 004.063 4.063h20.312v-9.141z" fill="#E2E7F6"/><path d="M2.031 22.344h36.563v24.375H2.03V22.344zM6.094 2.031H34.53v8.125H6.094V2.031z" fill="#3279EA"/><path d="M26.406 32.5h-4.062v-4.063H18.28V32.5h-4.06v4.063h4.062v4.062h4.063v-4.063h4.062V32.5z" fill="#7AADF9"/><path d="M8.125 10.156H32.5v5.078H8.125v-5.078zm51.797 30.469H29.453a3.047 3.047 0 00-3.047 3.047v16.25a3.047 3.047 0 003.047 3.047h30.469a3.047 3.047 0 003.047-3.047v-16.25a3.047 3.047 0 00-3.047-3.047z" fill="#C8CDED"/><path d="M32.5 48.75a2.031 2.031 0 100-4.062 2.031 2.031 0 000 4.062zm8.125 0a2.031 2.031 0 100-4.062 2.031 2.031 0 000 4.062zm8.125 0a2.031 2.031 0 100-4.062 2.031 2.031 0 000 4.062zm8.125 0a2.031 2.031 0 100-4.062 2.031 2.031 0 000 4.062zM32.5 58.906a2.031 2.031 0 100-4.062 2.031 2.031 0 000 4.062zm8.125 0a2.031 2.031 0 100-4.062 2.031 2.031 0 000 4.062zm8.125 0a2.031 2.031 0 100-4.062 2.031 2.031 0 000 4.062zm8.125 0a2.031 2.031 0 100-4.062 2.031 2.031 0 000 4.062z" fill="#fff"/><path d="M49.471 31.779l4.652-4.652a2.446 2.446 0 012.677-.534c.298.124.568.306.796.534l.59.59a2.448 2.448 0 01.533 2.677 2.446 2.446 0 01-.534.796l-4.651 4.651a2.448 2.448 0 01-3.474 0l-.589-.589a2.447 2.447 0 01-.534-2.677 2.45 2.45 0 01.534-.796z" fill="#E1656E"/><path d="M51.797 29.453L49.47 31.78a2.448 2.448 0 000 3.473l.59.59a2.447 2.447 0 003.473 0l2.325-2.326-4.062-4.063z" fill="#E2E7F6"/><path d="M53.107 15.529l-4.651-4.652a2.448 2.448 0 00-2.678-.534 2.448 2.448 0 00-.796.534l-.589.59a2.446 2.446 0 00-.534 2.676c.124.299.305.57.534.797l4.651 4.651a2.448 2.448 0 003.474 0l.589-.589a2.445 2.445 0 00.534-2.677 2.446 2.446 0 00-.534-.796z" fill="#3279EA"/><path d="M50.781 13.203l2.326 2.326a2.448 2.448 0 010 3.473l-.589.59a2.448 2.448 0 01-3.474 0l-2.325-2.326 4.062-4.063z" fill="#E2E7F6"/></svg>