<svg width="64" height="65" fill="none" xmlns="http://www.w3.org/2000/svg"><path d="M44 57.89H20c-1.654 0-3-1.366-3-3.046V24.375c0-1.68 1.346-3.047 3-3.047h14c1.654 0 3 1.367 3 3.047v5.078c0 3.92 3.141 7.11 7 7.11 1.654 0 3 1.366 3 3.046v15.235c0 1.68-1.346 3.047-3 3.047z" fill="#F0BC5E"/><path d="M49.131 15.688L41 11.56V4.062c0-1.68-1.346-3.046-3-3.046H26c-1.654 0-3 1.367-3 3.046v7.498l-8.131 4.128C12.482 16.901 11 19.338 11 22.048v34.827c0 3.92 3.141 7.11 7 7.11h28c3.859 0 7-3.19 7-7.11V22.047c0-2.71-1.482-5.146-3.869-6.359zM35 9.141v2.03h-2v-2.03h-2v2.03h-2v-2.03h-2v2.03h-2V7.11h14v4.063h-2V9.14h-2zm-9-6.094h12c.552 0 1 .456 1 1.015v1.016H25V4.062c0-.56.448-1.015 1-1.015zm25 53.828c0 2.8-2.243 5.078-5 5.078H18c-2.757 0-5-2.278-5-5.078V22.047c0-1.936 1.059-3.676 2.764-4.542l8.472-4.302h15.527l8.473 4.302c1.705.866 2.764 2.606 2.764 4.542v34.828z" fill="#000"/><path d="M44 18.281c-2.757 0-5 2.278-5 5.078v6.094c0 2.8 2.243 5.078 5 5.078s5-2.278 5-5.078V23.36c0-2.8-2.243-5.078-5-5.078zm3 11.172c0 1.68-1.346 3.047-3 3.047s-3-1.367-3-3.047V23.36c0-1.68 1.346-3.047 3-3.047s3 1.367 3 3.047v6.094zM33 25.39H21v12.188h12V25.391zm-2 10.157h-8v-8.125h8v8.125zM21 39.61h2v2.03h-2v-2.03zm4 0h18v2.03H25v-2.03zm-4 4.062h22v2.031H21v-2.031zm0 4.062h22v2.032H21v-2.032zm0 4.063h4v2.031h-4v-2.031zm6 0h8v2.031h-8v-2.031zm10 0h2v2.031h-2v-2.031zm4 0h2v2.031h-2v-2.031z" fill="#000"/></svg>