<svg width="65" height="65" fill="none" xmlns="http://www.w3.org/2000/svg"><g clip-path="url(#clip0)"><path d="M43.694 28.938c-5.088 0-11.11 3.593-11.194 6.106-.085-2.513-6.106-6.106-11.194-6.106-8.141 0-13.229 8.141-20.352 11.194C15.2 43.185 13.165 56.414 32.5 56.414s17.3-13.229 31.546-16.282c-7.123-3.053-12.211-11.194-20.352-11.194z" fill="#F498AC"/><path d="M35.686 31.365a8.098 8.098 0 00-.219.138c.051.166.08.33.086.488a1.98 1.98 0 01.133-.626zm-.133 21.996c-15.319 0-17.224-8.303-24.44-13.271H1.048l-.093.042C15.2 43.185 13.165 56.414 32.5 56.414c11.257 0 15.27-4.485 19.47-8.834-3.455 3.17-7.827 5.781-16.417 5.781z" fill="#F17E97"/><path d="M32.5 38.097c-9.215 0-31.546 2.035-31.546 2.035 17.3 2.035 21.37 6.106 31.546 6.106 10.176 0 14.247-4.07 30.529-6.106 0 0-21.314-2.035-30.53-2.035z" fill="#F0F0ED"/><path d="M37.588 44.203c-8.645 0-12.885-2.937-24.57-5.07-6.62.503-12.064 1-12.064 1 17.3 2.034 21.37 6.105 31.546 6.105 10.176 0 14.246-4.07 30.528-6.106 0 0-1.707-.163-4.364-.397-9.003 2.043-13.221 4.468-21.076 4.468z" fill="#E8E8E4"/><path d="M49.8 8.586c0 5.058 3.189 9.158 7.123 9.158-3.934 0-7.124 4.101-7.124 9.159 0-5.058-3.189-9.159-7.123-9.159 3.934 0 7.123-4.1 7.123-9.158z" fill="#75E0F1"/><path d="M39.623 21.815c0 3.934 2.278 7.123 5.088 7.123-2.81 0-5.088 3.19-5.088 7.124 0-3.934-2.278-7.124-5.088-7.124 2.81 0 5.088-3.189 5.088-7.123zm15.264 6.105c0 3.935 2.279 7.124 5.089 7.124-2.81 0-5.089 3.19-5.089 7.123 0-3.934-2.278-7.123-5.088-7.123 2.81 0 5.088-3.19 5.088-7.123z" fill="#98E8F4"/><path d="M64.422 39.255c-1.151-.493-2.355-1.177-3.68-2.09a.954.954 0 00-1.083 1.572 28.71 28.71 0 001.755 1.122c-4.901 1.633-7.724 4.562-10.466 7.407C46.887 51.48 43.05 55.46 32.5 55.46s-14.387-3.98-18.447-8.194c-1.69-1.754-3.413-3.54-5.632-5.033 4.463.847 7.826 1.807 10.715 2.633 4.55 1.3 8.143 2.326 13.364 2.326 5.331 0 9.124-1.116 13.515-2.408 1.609-.474 3.273-.963 5.175-1.454a.954.954 0 10-.476-1.847c-1.934.498-3.613.992-5.238 1.47-4.424 1.302-7.92 2.33-12.976 2.33-4.954 0-8.434-.993-12.84-2.252-2.879-.823-6.22-1.777-10.634-2.627 7.337-.59 17.89-1.353 23.475-1.353 3.647 0 9.6.316 17.695.94a.954.954 0 10.146-1.902c-8.143-.628-14.146-.946-17.841-.946-6.66 0-20.26 1.069-27.259 1.66 1.373-.94 2.688-1.98 3.979-3.005 3.825-3.037 7.438-5.906 12.086-5.906 5.012 0 10.185 3.555 10.24 5.184a.954.954 0 001.907 0c.016-.466.497-1.157 1.288-1.848a.954.954 0 00-1.255-1.437 8.14 8.14 0 00-.993 1.021c-2.038-2.532-6.953-4.828-11.187-4.828-5.314 0-9.36 3.212-13.272 6.319C5.67 36.18 3.227 38.12.579 39.255a.964.964 0 00-.574.967c.04.408.347.757.75.843 5.888 1.262 8.82 4.304 11.924 7.525 4.159 4.316 8.46 8.778 19.822 8.778 11.362 0 15.662-4.462 19.82-8.778 3.105-3.22 6.037-6.264 11.925-7.525a.963.963 0 00.748-.823.963.963 0 00-.572-.987zM42.676 18.698c3.402 0 6.17 3.681 6.17 8.205a.954.954 0 101.907 0c0-4.524 2.768-8.204 6.17-8.204a.954.954 0 100-1.909c-3.402 0-6.17-3.68-6.17-8.204a.954.954 0 10-1.908 0c0 4.524-2.767 8.204-6.169 8.204a.954.954 0 100 1.909zM49.8 13.35c.822 1.917 2.123 3.466 3.7 4.394-1.578.929-2.878 2.478-3.7 4.395-.82-1.917-2.122-3.466-3.7-4.395 1.578-.928 2.88-2.477 3.7-4.393z" fill="#000"/><path d="M34.535 29.892c2.241 0 4.134 2.826 4.134 6.17a.954.954 0 101.908 0c0-3.344 1.893-6.17 4.134-6.17a.954.954 0 000-1.908c-2.24 0-4.134-2.825-4.134-6.169a.954.954 0 00-1.908 0c0 3.344-1.893 6.17-4.134 6.17a.954.954 0 100 1.907zm4.374-2.485c.269-.377.507-.783.714-1.213.207.43.445.836.714 1.213.444.622.95 1.136 1.502 1.532a6.573 6.573 0 00-1.502 1.531 8.176 8.176 0 00-.714 1.213 8.167 8.167 0 00-.714-1.213 6.576 6.576 0 00-1.501-1.531 6.578 6.578 0 001.501-1.532zm16.933.513a.954.954 0 10-1.909 0c0 3.345-1.893 6.17-4.134 6.17a.954.954 0 100 1.908c2.241 0 4.134 2.825 4.134 6.17a.954.954 0 101.909 0c0-3.345 1.893-6.17 4.134-6.17a.954.954 0 100-1.908c-2.241 0-4.134-2.825-4.134-6.17zm-.24 8.656a8.161 8.161 0 00-.715 1.213 8.17 8.17 0 00-.713-1.213 6.576 6.576 0 00-1.502-1.532 6.578 6.578 0 001.502-1.532 8.13 8.13 0 00.713-1.213c.207.43.446.837.714 1.213a6.578 6.578 0 001.502 1.532 6.597 6.597 0 00-1.502 1.532z" fill="#000"/></g><defs><clipPath id="clip0"><path fill="#fff" d="M0 0h65v65H0z"/></clipPath></defs></svg>