<svg width="65" height="65" fill="none" xmlns="http://www.w3.org/2000/svg"><g clip-path="url(#clip0)"><path d="M27.412 64.046h-6.106l-1.017-7.123h8.14l-1.017 7.123z" fill="#E1E1DA"/><path d="M20.289 56.923l1.017 7.123h3.053l-1.018-7.123H20.29z" fill="#D2D2C8"/><path d="M32.5 52.852l-4.07 4.07h-8.141l-4.07-4.07-4.071-36.634H36.57L32.5 52.852z" fill="#75E0F1"/><path d="M16.218 16.218h-4.07l4.07 36.634 4.07 4.07h4.071l-4.07-4.07-4.07-36.634z" fill="#53D9ED"/><path d="M36.57 12.148H12.149v4.07H36.57v-4.07z" fill="#BAF0F8"/><path d="M16.218 12.148h-4.07v4.07h4.07v-4.07z" fill="#98E8F4"/><path d="M48.782.954h-6.106v16.282h6.106V.954z" fill="#F0F0ED"/><path d="M50.817 64.046h-3.053a2.035 2.035 0 01-2.035-2.035V36.57l3.053-4.071V.954h2.035c1.124 0 2.035.911 2.035 2.035v59.022a2.035 2.035 0 01-2.035 2.035z" fill="#FFCA58"/><path d="M48.782 62.01V36.57l3.053-4.07V1.992c0-.561-.446-1.035-1.007-1.038h-2.046V32.5l-3.053 4.07v25.44c0 1.125.911 2.036 2.035 2.036h3.053a2.035 2.035 0 01-2.035-2.035z" fill="#FFBD2E"/><path d="M30.243 29.108c0-1.69-1.423-3.06-3.53-3.06-.947 0-1.785.502-2.347 1.177-.56-.675-1.414-1.177-2.36-1.177-2.108 0-3.53 1.37-3.53 3.06 0 3.766 2.479 3.347 1.647 5.178-1.177 2.59.013 6.355.94 6.355.942 0 .707-5.178 3.296-5.178 2.59 0 2.354 5.178 3.295 5.178.928 0 2.119-3.766.942-6.355-.832-1.83 1.647-1.412 1.647-5.178z" fill="#FFEFCF"/><path d="M22.35 33.777c.833-1.83-1.647-1.412-1.647-5.178 0-1.436 1.028-2.64 2.63-2.97a2.74 2.74 0 00-.691-.09c-2.108 0-3.53 1.37-3.53 3.06 0 3.766 2.479 3.348 1.647 5.178-1.177 2.59.013 6.355.941 6.355.286 0 .464-.479.645-1.145-.52-1.317-.764-3.515.006-5.21zm4.237 1.177c-.302 0-.564.071-.796.196 1.754.942 1.668 4.982 2.5 4.982.32 0 .672-.45.947-1.145-.415-1.525-.849-4.033-2.65-4.033z" fill="#FFE5AB"/><path d="M36.57 11.194H12.149a.954.954 0 00-.954.954v4.073l.001.03a.896.896 0 00.005.072l4.07 36.635a.95.95 0 00.274.569l3.845 3.845.973 6.809c.067.47.47.819.944.819h6.106a.954.954 0 00.945-.82l.972-6.808 3.846-3.845a.954.954 0 00.273-.57l4.07-36.634v-.002c.003-.023.004-.047.005-.07l.001-.03v-4.073a.954.954 0 00-.953-.954zm-23.468 1.908h22.515v2.162H13.102v-2.162zm13.482 49.99h-4.45l-.745-5.215h5.94l-.745 5.215zm5.005-10.678l-3.555 3.555h-7.35l-3.555-3.555-3.915-35.242h22.29L31.59 52.414zm21.263-2.552a.954.954 0 00.954-.954V2.99A2.993 2.993 0 0050.817 0H40.641a.954.954 0 100 1.908h1.081v2.163h-1.081a.954.954 0 100 1.908h1.081V8.14h-1.081a.954.954 0 100 1.908h1.081v2.162h-1.081a.954.954 0 100 1.909h1.081v2.162h-1.081a.954.954 0 100 1.908h7.187v13.992l-2.862 3.816a.954.954 0 00-.191.573v25.44a2.993 2.993 0 002.99 2.99h3.052a2.993 2.993 0 002.99-2.99v-8.65a.954.954 0 10-1.909 0v8.65c0 .596-.485 1.081-1.081 1.081h-3.053a1.083 1.083 0 01-1.081-1.081V36.889l2.862-3.817a.954.954 0 00.19-.572V1.908h1.082c.596 0 1.081.485 1.081 1.081v45.92c0 .526.427.953.954.953zM43.63 1.908h4.198V4.07H43.63V1.908zm0 4.07h4.198v2.163H43.63V5.978zm0 4.071h4.198v2.162H43.63V10.05zm0 6.233v-2.163h4.198v2.163H43.63z" fill="#000"/><path d="M19.254 33.891c-1.073 2.361-.467 5.448.383 6.769.498.773 1.05.935 1.427.935 1.095 0 1.389-1.148 1.7-2.364.38-1.483.787-2.814 1.595-2.814.808 0 1.216 1.33 1.595 2.814.311 1.216.606 2.364 1.7 2.364.377 0 .93-.162 1.427-.935.85-1.32 1.456-4.407.383-6.769-.129-.283-.129-.283.244-.706.593-.673 1.49-1.69 1.49-4.077 0-2.288-1.929-4.014-4.485-4.014-.835 0-1.654.29-2.347.817a3.912 3.912 0 00-2.36-.817c-2.557 0-4.485 1.726-4.485 4.014 0 2.387.897 3.404 1.49 4.077.372.423.372.423.243.706zm2.752-6.889c.585 0 1.193.312 1.627.833a.963.963 0 001.467 0c.44-.529 1.028-.833 1.613-.833 1.493 0 2.576.886 2.576 2.106 0 1.666-.538 2.277-1.013 2.816-.502.57-1.189 1.349-.549 2.757.624 1.372.427 3.101.098 4.161l-.022-.085c-.407-1.589-1.088-4.248-3.444-4.248-2.355 0-3.036 2.66-3.443 4.248l-.022.085c-.33-1.06-.526-2.79.097-4.161.64-1.408-.047-2.188-.548-2.757-.475-.539-1.014-1.15-1.014-2.816 0-1.22 1.084-2.106 2.577-2.106z" fill="#000"/></g><defs><clipPath id="clip0"><path fill="#fff" d="M0 0h65v65H0z"/></clipPath></defs></svg>