<svg width="65" height="65" fill="none" xmlns="http://www.w3.org/2000/svg"><g clip-path="url(#clip0)"><path d="M47.069 0H17.931a2.241 2.241 0 00-2.241 2.241v6.725a2.241 2.241 0 002.241 2.24H47.07a2.241 2.241 0 002.241-2.24V2.24A2.241 2.241 0 0047.07 0z" fill="#BDC3C7"/><path d="M21.293 12.328a1.12 1.12 0 01-1.12-1.121V6.724a1.12 1.12 0 012.24 0v4.483a1.12 1.12 0 01-1.12 1.12zm4.483 0a1.12 1.12 0 01-1.12-1.121V6.724a1.12 1.12 0 112.24 0v4.483a1.12 1.12 0 01-1.12 1.12zm4.483 0a1.12 1.12 0 01-1.121-1.121V6.724a1.12 1.12 0 012.241 0v4.483a1.12 1.12 0 01-1.12 1.12zm4.482 0a1.12 1.12 0 01-1.12-1.121V6.724a1.12 1.12 0 012.241 0v4.483a1.12 1.12 0 01-1.12 1.12zm4.483 0a1.12 1.12 0 01-1.12-1.121V6.724a1.12 1.12 0 112.24 0v4.483a1.12 1.12 0 01-1.12 1.12zm4.483 0a1.12 1.12 0 01-1.12-1.121V6.724a1.12 1.12 0 012.24 0v4.483a1.12 1.12 0 01-1.12 1.12z" fill="#7F8C8D"/><path d="M64.204 38.754a3.454 3.454 0 00-2.006-1.21 3.491 3.491 0 01-2.801-3.419V32.5a2.248 2.248 0 002.24-2.241v-4.483a2.248 2.248 0 00-2.24-2.241h-6.725v-2.242a3.362 3.362 0 00-3.362-3.362 3.362 3.362 0 01-3.362-3.362v-3.362H19.052v3.362a3.362 3.362 0 01-3.362 3.362 3.362 3.362 0 00-3.362 3.362v15.69H3.362a1.12 1.12 0 00-1.12 1.12v4.483c0 .62.501 1.12 1.12 1.12v1.592a2.448 2.448 0 01-1.659 2.32A2.377 2.377 0 000 49.815v12.944A2.248 2.248 0 002.241 65H62.76A2.248 2.248 0 0065 62.759V40.96a3.438 3.438 0 00-.796-2.207z" fill="#26B99A"/><path d="M22.07 20.246a1.12 1.12 0 01-.91-1.772 6.725 6.725 0 001.186-2.944 1.12 1.12 0 011.109-.961h11.286a1.12 1.12 0 110 2.241h-10.37a8.982 8.982 0 01-1.388 2.968 1.12 1.12 0 01-.912.468zm19.395-3.436h-2.24a1.12 1.12 0 110-2.241h2.24a1.12 1.12 0 110 2.241z" fill="#fff"/><path d="M59.397 23.535h-15.69a2.241 2.241 0 00-2.242 2.24v4.484a2.241 2.241 0 002.242 2.241h15.69a2.241 2.241 0 002.24-2.241v-4.483a2.241 2.241 0 00-2.24-2.241z" fill="#BDC3C7"/><path d="M47.069 45.948v11.207a2.248 2.248 0 002.241 2.242H65v3.362A2.248 2.248 0 0162.759 65H40.345a2.248 2.248 0 01-2.242-2.241V40.96a3.49 3.49 0 012.802-3.418 3.506 3.506 0 002.802-3.418V32.5h15.69v1.625a3.49 3.49 0 002.801 3.418A3.506 3.506 0 0165 40.961v2.746H49.31a2.248 2.248 0 00-2.241 2.241z" fill="#F0C419"/><path d="M17.931 49.96v12.8A2.248 2.248 0 0115.69 65H2.24A2.248 2.248 0 010 62.759v-2.242h7.845a2.248 2.248 0 002.241-2.241v-4.483a2.248 2.248 0 00-2.241-2.241H0v-1.737a2.377 2.377 0 011.703-2.197 2.447 2.447 0 001.66-2.32v-1.591h11.206v1.737a2.377 2.377 0 001.703 2.197 2.448 2.448 0 011.659 2.32z" fill="#955BA5"/><path d="M31.38 30.259v22.413a2.248 2.248 0 01-2.242 2.242H17.93V49.96a2.447 2.447 0 00-1.659-2.32 2.377 2.377 0 01-1.703-2.196v-1.737a1.12 1.12 0 001.12-1.12v-4.484a1.12 1.12 0 00-1.12-1.12h-2.241v-8.966h16.81a2.248 2.248 0 012.241 2.242z" fill="#ECF0F1"/><path d="M14.569 36.983H3.362a1.12 1.12 0 00-1.12 1.12v4.483c0 .62.501 1.12 1.12 1.12H14.57a1.12 1.12 0 001.12-1.12v-4.483a1.12 1.12 0 00-1.12-1.12z" fill="#BDC3C7"/><path d="M65 43.707v15.69H49.31a2.248 2.248 0 01-2.241-2.242V45.948a2.248 2.248 0 012.241-2.241H65zM10.086 53.793v4.483a2.248 2.248 0 01-2.241 2.241H0v-8.965h7.845a2.248 2.248 0 012.241 2.241z" fill="#ECF0F1"/></g><defs><clipPath id="clip0"><path fill="#fff" d="M0 0h65v65H0z"/></clipPath></defs></svg>