<svg width="65" height="65" fill="none" xmlns="http://www.w3.org/2000/svg"><g clip-path="url(#clip0)"><path d="M25.348 10.757c0 5.94-4.817 10.755-10.757 10.755-5.94 0-10.756-4.815-10.756-10.755S8.651 0 14.591 0s10.757 4.815 10.757 10.756z" fill="#EBE9EB"/><path d="M25.347 10.757c0 5.94-4.816 10.755-10.756 10.755V.002c5.94 0 10.756 4.814 10.756 10.755z" fill="#D8D2D7"/><path d="M26.656 12.031v13.01H2.526V12.03c0-.703.571-1.274 1.275-1.274h21.58c.704 0 1.275.57 1.275 1.274z" fill="#685E68"/><path d="M26.656 12.031v13.01H14.591V10.756h10.79c.704 0 1.275.57 1.275 1.274z" fill="#554E56"/><path d="M29.183 33.818l-4.823 8.785 4.823 8.276v11.413a2.707 2.707 0 01-2.708 2.707H2.707A2.707 2.707 0 010 62.292V50.879l4.823-8.276L0 33.818V22.17a2.472 2.472 0 012.473-2.47h24.236a2.473 2.473 0 012.474 2.472v11.647z" fill="#FDBF00"/><path d="M29.182 33.818l-4.822 8.785 4.822 8.276v11.413a2.707 2.707 0 01-2.707 2.707H14.591v-45.3h12.118a2.473 2.473 0 012.473 2.472v11.647z" fill="#FF9F00"/><path d="M0 33.818h29.183v17.06H0v-17.06z" fill="#685E68"/><path d="M14.59 33.818h14.592v17.06H14.591v-17.06z" fill="#554E56"/><path d="M21.63 42.348a1.912 1.912 0 01-1.912 1.912H9.465a1.91 1.91 0 110-3.824h10.253c1.055 0 1.912.857 1.912 1.912z" fill="#EBE9EB"/><path d="M65 51.507v12.217c0 .704-.57 1.275-1.275 1.275H39.45c-.704 0-1.275-.57-1.275-1.275V51.507a7.93 7.93 0 017.93-7.93H57.07a7.93 7.93 0 017.93 7.93z" fill="#FDBF00"/><path d="M21.63 42.348a1.912 1.912 0 01-1.912 1.912H14.59v-3.824h5.127c1.055 0 1.912.857 1.912 1.912z" fill="#D8D2D7"/><path d="M65 51.507v12.217c0 .704-.57 1.275-1.275 1.275H51.587V43.577h5.483a7.93 7.93 0 017.93 7.93z" fill="#FF9F00"/></g><defs><clipPath id="clip0"><path fill="#fff" d="M0 0h65v65H0z"/></clipPath></defs></svg>