<svg width="65" height="65" fill="none" xmlns="http://www.w3.org/2000/svg"><path d="M32.5.952S24.324.8 26.31 8.903c-.043-.174 1.721-.869 1.855-.92 2.405-.917 5.3-1.006 7.777-.299.95.272 1.927.661 2.75 1.22C40.676.8 32.501.951 32.501.951z" fill="#AA6A51"/><path d="M38.69 8.903c-.731-.497-1.586-.86-2.435-1.124.72-5.068-3.003-6.375-5.083-6.71C31.952.942 32.5.952 32.5.952S40.676.8 38.69 8.903z" fill="#935B44"/><path d="M54.206 64.049a5.082 5.082 0 00-3.708-4.893l-10.074-2.827a3.122 3.122 0 01-2.249-3.438l.47-5.08h-12.29l.47 5.08a3.122 3.122 0 01-2.249 3.438l-10.074 2.827a5.082 5.082 0 00-3.708 4.893h43.412z" fill="#FFCEBF"/><path d="M54.206 64.048h-2.65a5.08 5.08 0 00-3.42-3.206l-9.973-3.053a3.12 3.12 0 01-2.248-3.438l.073-6.54h2.656l-.47 5.08a3.122 3.122 0 002.25 3.437l10.074 2.828a5.08 5.08 0 013.708 4.892z" fill="#FFB09E"/><path d="M45.606 19.044L32.5 13.393v-.002h-.005v.002l-13.105 5.65-1.903 7.97c.012 1.942-.11 4.965 0 7.056.267 5.086 2.63 9.423 5.911 13.187 1.058 1.214 2.366 2.371 3.782 3.407a9.007 9.007 0 0010.639 0c1.416-1.035 2.723-2.193 3.782-3.407 3.282-3.764 5.644-8.101 5.911-13.187.102-1.933 0-7.057 0-7.057l-1.907-7.968z" fill="#BBEC6C"/><path d="M47.513 34.07c-.267 5.085-2.63 9.421-5.911 13.185-1.058 1.214-2.366 2.373-3.783 3.407a8.994 8.994 0 01-6.606 1.646 8.749 8.749 0 004.06-1.736c1.416-1.087 2.723-2.305 3.782-3.583l.05-.061c1.811-2.194 3.371-4.616 4.423-7.267 1.1-2.768 1.447-5.59 1.513-8.537.02-.881.02-1.763-.01-2.643-.06-1.79-.247-3.579-.645-5.326l-1.171-5.142 2.391 1.03 1.907 7.97s.101 5.123 0 7.056z" fill="#A2E62E"/><path d="M25.881 35.414c2.831 0 5.127-1.643 5.127-3.67 0-2.028-2.296-3.671-5.127-3.671-2.83 0-5.126 1.643-5.126 3.67 0 2.028 2.295 3.671 5.127 3.671zm13.238 0c2.83 0 5.126-1.643 5.126-3.67 0-2.028-2.295-3.671-5.126-3.671-2.831 0-5.127 1.643-5.127 3.67 0 2.028 2.296 3.671 5.127 3.671zM32.5 47.294c2.831 0 5.126-1.643 5.126-3.67 0-2.028-2.295-3.671-5.126-3.671-2.831 0-5.126 1.643-5.126 3.67 0 2.028 2.295 3.671 5.126 3.671z" fill="#FFCEBF"/><path d="M17.407 32.896c1.34-10.136 10.033-19.182 20.534-19.182 2.143 0 4.21.326 6.154.93 0 0-3.933-9.75-17.644-7.134 0 0-7.85 1.686-11.29 10.06-1.235 3.166-1.72 7.538-.35 10.66a21.61 21.61 0 001.26 2.432l1.336 2.234z" fill="#C4E2FF"/><path d="M44.095 14.644a20.689 20.689 0 00-6.154-.93c-2.818 0-5.506.652-7.955 1.8a25.204 25.204 0 00-10.114-2.173c-.827-.005-1.63.015-2.303.079a17.083 17.083 0 014.262-3.854c2.51-1.604 4.62-2.056 4.62-2.056 8.444-1.611 13.18 1.468 15.572 4.07 1.491 1.625 2.072 3.064 2.072 3.064z" fill="#B3DAFE"/><path d="M47.527 32.896c-1.054-7.978-6.86-14.156-13.856-18.055a25.104 25.104 0 00-11.012-3.122c-1.476-.072-2.878-.058-3.6.167.691-.699 1.802-1.57 1.573-1.386 1.52-1.057 2.99-2.104 4.73-2.689 1.877-.631 3.853-.942 5.83-1.006 1.242-.04 2.487.016 3.723.149 5.282.569 9.972 2.842 13.072 7.337 2.625 3.808 4.076 9.518 2.133 13.946-.366.836-.79 1.646-1.259 2.428l-1.334 2.231z" fill="#C4E2FF"/><path d="M50.12 28.237c-.366.836-.79 1.645-1.258 2.428l-1.335 2.231a19.642 19.642 0 00-.74-3.334c.287-.527.554-1.067.796-1.619 1.943-4.427.493-10.137-2.133-13.944-2.822-4.095-6.965-6.345-11.673-7.144.38.025.76.059 1.139.1 5.28.569 9.972 2.841 13.071 7.336 2.626 3.808 4.075 9.518 2.133 13.946z" fill="#B3DAFE"/><path d="M31.96 31.743c0-1.295-.675-2.492-1.9-3.369-1.128-.808-2.612-1.253-4.179-1.253-1.566 0-3.05.445-4.178 1.253-1.225.877-1.9 2.074-1.9 3.37 0 1.295.675 2.492 1.9 3.368 1.128.808 2.612 1.254 4.178 1.254 1.567 0 3.05-.445 4.18-1.254 1.224-.876 1.898-2.073 1.898-3.369zm-6.079 2.72c-2.262 0-4.174-1.246-4.174-2.72 0-1.473 1.912-2.719 4.174-2.719 2.263 0 4.175 1.245 4.175 2.72 0 1.473-1.912 2.718-4.175 2.718z" fill="#000"/><path d="M27.869 30.588a.952.952 0 00-1.324.243.834.834 0 01-.74.343.852.852 0 01-.588-.357.952.952 0 00-1.566 1.081 2.754 2.754 0 001.966 1.17 2.747 2.747 0 002.495-1.157.951.951 0 00-.243-1.323zm17.327 1.155c0-1.295-.674-2.492-1.899-3.369-1.128-.808-2.612-1.253-4.178-1.253-1.567 0-3.05.445-4.18 1.253-1.224.877-1.898 2.074-1.898 3.37 0 1.295.674 2.492 1.899 3.368 1.128.808 2.612 1.254 4.179 1.254 1.566 0 3.05-.445 4.178-1.254 1.225-.876 1.9-2.073 1.9-3.369zm-6.077 2.72c-2.263 0-4.175-1.246-4.175-2.72 0-1.473 1.912-2.719 4.175-2.719s4.174 1.245 4.174 2.72c0 1.473-1.911 2.718-4.174 2.718z" fill="#000"/><path d="M41.106 30.575a.952.952 0 00-1.323.242.853.853 0 01-.588.357.834.834 0 01-.74-.343.952.952 0 00-1.567 1.08 2.746 2.746 0 002.495 1.157 2.753 2.753 0 001.966-1.17.952.952 0 00-.243-1.323zm-4.427 9.68C35.55 39.446 34.066 39 32.5 39c-1.566 0-3.05.445-4.179 1.254-1.224.876-1.899 2.073-1.899 3.369 0 1.295.675 2.492 1.9 3.369 1.128.808 2.612 1.253 4.178 1.253 1.566 0 3.05-.445 4.179-1.253 1.224-.877 1.899-2.074 1.899-3.37 0-1.295-.675-2.492-1.9-3.368zM32.5 46.341c-2.263 0-4.174-1.245-4.174-2.718 0-1.474 1.911-2.72 4.174-2.72 2.263 0 4.175 1.246 4.175 2.72 0 1.473-1.912 2.718-4.175 2.718z" fill="#000"/><path d="M33.936 42.57c-.343.16-.767.263-1.195.288-.585.035-1.214-.074-1.68-.29a.951.951 0 10-.8 1.727c.659.305 1.469.472 2.265.472.11 0 .218-.003.327-.01a5.232 5.232 0 001.89-.463.952.952 0 00-.807-1.724z" fill="#000"/><path d="M50.755 58.24L40.68 55.411a2.178 2.178 0 01-1.557-2.434l.21-2.276a22.867 22.867 0 002.986-2.821c3.882-4.452 5.892-8.954 6.145-13.762.014-.276.025-.613.032-.989l1.182-1.977c.502-.84.944-1.692 1.314-2.534 2.157-4.918.438-11.01-2.221-14.868a17.898 17.898 0 00-1.261-1.621.951.951 0 10-1.432 1.253c.397.454.776.941 1.126 1.448 3.275 4.75 3.387 9.964 2.045 13.023-.337.77-.742 1.55-1.204 2.323l-.061.102c-.788-3.027-2.268-5.89-4.418-8.54-2.396-2.953-5.657-5.626-9.432-7.73-3.454-1.925-7.407-3.046-11.428-3.24a30.897 30.897 0 00-.75-.03c1.207-.83 2.386-1.581 3.709-2.026 2.898-.975 6.131-1.138 9.148-.813 3.095.333 5.821 1.255 8.102 2.74a.952.952 0 001.038-1.595 18.434 18.434 0 00-4.019-1.955c.11-1.796-.31-3.302-1.26-4.49C36.61.016 32.83-.005 32.5 0c-.33-.004-4.11.018-6.175 2.6-.918 1.148-1.34 2.593-1.268 4.31-.467.156-.915.344-1.348.554-2.754 1.227-7.06 3.979-9.428 9.744l-.006.016a18.806 18.806 0 00-1.216 5.64c-.12 2.173.184 4.16.88 5.748.37.843.812 1.697 1.315 2.538l1.25 2.092c.008.305.019.6.033.877.253 4.808 2.263 9.31 6.145 13.762a22.852 22.852 0 002.985 2.82l.21 2.277c.002.015.003.03.006.044a2.178 2.178 0 01-1.563 2.39l-2.552.716a.951.951 0 10.514 1.833l2.552-.716a4.088 4.088 0 002.936-4.463l-.06-.658a9.925 9.925 0 004.79 1.235 9.928 9.928 0 004.79-1.235l-.06.658a4.088 4.088 0 002.937 4.463l10.074 2.827a4.148 4.148 0 012.902 3.025H11.857a4.148 4.148 0 012.902-3.026l3.303-.926a.951.951 0 10-.514-1.832l-3.303.926a6.054 6.054 0 00-4.403 5.81c0 .525.426.95.951.95h43.413a.952.952 0 00.952-.95 6.054 6.054 0 00-4.403-5.81zM27.806 3.794c1.48-1.859 4.474-1.892 4.669-1.892h.04c.03 0 3.157-.02 4.679 1.892.566.712.85 1.63.854 2.739a23.3 23.3 0 00-3.031-.526 27.729 27.729 0 00-3.856-.154 22.39 22.39 0 00-4.207.529c.028-1.042.312-1.909.852-2.588zm-10.918 26.38a21.006 21.006 0 01-1.207-2.327c-1.28-2.92-.74-7.087.364-9.924.807-1.963 1.923-3.681 3.333-5.14.323-.09 1.157-.214 3.235-.114 2.657.129 5.279.694 7.724 1.652-2.44 1.026-4.733 2.54-6.76 4.499-3.267 3.155-5.57 7.148-6.637 11.442l-.052-.088zm20.37 19.72a8.035 8.035 0 01-9.515 0c-1.428-1.043-2.648-2.141-3.627-3.264-3.591-4.119-5.448-8.244-5.678-12.61-.022-.41-.034-.86-.04-1.333.692-4.625 3.049-9.164 6.501-12.498 2.328-2.249 5.033-3.856 7.898-4.738.138.073.275.145.411.22 10.41 5.803 12.85 13.361 13.376 17.35.002.015.007.03.01.045-.007.365-.017.69-.03.953-.23 4.367-2.088 8.492-5.68 12.611-.978 1.123-2.198 2.221-3.626 3.264z" fill="#000"/></svg>