<svg width="65" height="65" fill="none" xmlns="http://www.w3.org/2000/svg"><path d="M48.116 44.212h-31.23v19.52h31.23v-19.52z" fill="#FF5A6A"/><path d="M48.115 40.21v4.001h-31.23V40.21a3.806 3.806 0 013.806-3.806h23.618a3.806 3.806 0 013.806 3.806z" fill="#CFD9DD"/><path d="M22.74 36.404V1.269h19.52v35.135" fill="#4A545D"/><path d="M44.31 35.135h-.782V1.27A1.27 1.27 0 0042.26 0H22.74c-.7 0-1.268.568-1.268 1.269v33.866h-.781a5.08 5.08 0 00-5.075 5.075v23.521c0 .7.568 1.269 1.268 1.269h31.232c.7 0 1.268-.568 1.268-1.269V40.21a5.08 5.08 0 00-5.075-5.075zm2.537 5.075v2.733H33.769v-5.27h10.54a2.54 2.54 0 012.538 2.537zM24.009 2.537h16.982v32.598H24.01V2.537zm-3.318 35.136h10.54v5.27H18.153V40.21a2.54 2.54 0 012.538-2.537zm-2.538 24.79V45.48h13.078v5.369a1.269 1.269 0 102.538 0V45.48h13.078v16.983H18.153z" fill="#000"/><path d="M33.671 55.438a1.257 1.257 0 00-.924-.759 1.248 1.248 0 00-.733.073 1.302 1.302 0 00-.41.274 1.266 1.266 0 00-.275.412 1.28 1.28 0 00-.098.486 1.258 1.258 0 00.565 1.054 1.288 1.288 0 00.704.215 1.25 1.25 0 00.485-.098 1.258 1.258 0 00.412-.275 1.275 1.275 0 00.347-1.145 1.199 1.199 0 00-.073-.237z" fill="#000"/></svg>