<svg width="65" height="65" fill="none" xmlns="http://www.w3.org/2000/svg"><path d="M14.219 1.016H50.77v4.062H14.22V1.016z" fill="#4A89DC"/><path d="M47.721 1.016h3.05v4.062h-3.05V1.016z" fill="#3679CE"/><path d="M32.51 19.297c4.479 0 8.125 3.636 8.125 8.125s-3.646 8.125-8.125 8.125a8.123 8.123 0 01-8.125-8.125 8.123 8.123 0 018.125-8.125z" fill="#E6E9ED"/><path d="M50.771 5.078l-6.074 45.703H20.303L14.219 5.078H50.77zM40.635 27.422c0-4.49-3.646-8.125-8.125-8.125a8.123 8.123 0 00-8.125 8.125 8.123 8.123 0 008.125 8.125c4.479 0 8.125-3.636 8.125-8.125z" fill="#5D9CEC"/><path d="M47.721 5.078l-6.073 45.703h3.05L50.77 5.078h-3.05z" fill="#4A89DC"/><path d="M20.303 50.781v7.11a6.085 6.085 0 006.093 6.093h12.188a6.087 6.087 0 006.094-6.093v-7.11H20.303z" fill="#E6E9ED"/><path d="M41.627 50.781v7.11a6.086 6.086 0 01-6.094 6.093h3.05a6.087 6.087 0 006.095-6.093v-7.11h-3.05z" fill="#CCD1D9"/><path d="M26.393 65c-3.92 0-7.11-3.19-7.11-7.11a1.015 1.015 0 112.032 0c0 2.8 2.278 5.079 5.078 5.079a1.014 1.014 0 110 2.031zm12.187 0a1.015 1.015 0 110-2.031c2.8 0 5.078-2.279 5.078-5.078a1.015 1.015 0 112.032 0C45.69 61.81 42.5 65 38.58 65z" fill="#000"/><path d="M38.58 65H26.393a1.015 1.015 0 110-2.031H38.58a1.014 1.014 0 110 2.031zm6.094-6.094a1.015 1.015 0 01-1.016-1.015v-7.109a1.015 1.015 0 112.032 0v7.109c0 .562-.454 1.015-1.016 1.015zm-24.374 0a1.015 1.015 0 01-1.017-1.015v-7.109a1.015 1.015 0 112.032 0v7.109c0 .562-.454 1.015-1.016 1.015z" fill="#000"/><path d="M44.674 51.798H20.3a1.015 1.015 0 110-2.031h24.375a1.015 1.015 0 110 2.03zm0 5.078H20.3a1.015 1.015 0 110-2.031h24.375a1.015 1.015 0 110 2.031z" fill="#000"/><path d="M20.298 51.798c-.501 0-.938-.37-1.005-.882L13.212 5.214a1.015 1.015 0 112.013-.268l6.08 45.702a1.016 1.016 0 01-1.007 1.15zm24.393 0a1.014 1.014 0 01-1.007-1.15l6.08-45.702a1.014 1.014 0 011.141-.872c.557.074.948.584.873 1.14l-6.08 45.702a1.014 1.014 0 01-1.007.882z" fill="#000"/><path d="M50.771 6.096H14.22a1.014 1.014 0 01-1.016-1.016V1.016A1.014 1.014 0 0114.22 0h36.55c.562 0 1.016.454 1.016 1.016V5.08c0 .562-.454 1.016-1.016 1.016zM15.234 4.064h34.522V2.031H15.234v2.033z" fill="#000"/><path d="M18.268 6.096a1.015 1.015 0 01-1.016-1.016V4.062a1.015 1.015 0 112.032 0V5.08c0 .562-.454 1.016-1.016 1.016zm4.062 0a1.015 1.015 0 01-1.015-1.016V4.062a1.015 1.015 0 112.031 0V5.08c0 .562-.454 1.016-1.016 1.016zm4.063 0a1.015 1.015 0 01-1.016-1.016V4.062a1.015 1.015 0 112.032 0V5.08c0 .562-.454 1.016-1.016 1.016zm4.062 0A1.015 1.015 0 0129.44 5.08V4.062a1.015 1.015 0 112.031 0V5.08c0 .562-.454 1.016-1.016 1.016zm4.063 0a1.015 1.015 0 01-1.016-1.016V4.062a1.015 1.015 0 112.031 0V5.08c0 .562-.453 1.016-1.015 1.016zm4.062 0a1.015 1.015 0 01-1.015-1.016V4.062a1.015 1.015 0 112.031 0V5.08c0 .562-.454 1.016-1.016 1.016zm4.063 0a1.015 1.015 0 01-1.016-1.016V4.062a1.015 1.015 0 112.031 0V5.08c0 .562-.453 1.016-1.015 1.016zm4.062 0A1.015 1.015 0 0145.69 5.08V4.062a1.015 1.015 0 112.031 0V5.08c0 .562-.454 1.016-1.016 1.016zm-14.202 30.47c-5.04 0-9.14-4.1-9.14-9.141 0-5.04 4.1-9.14 9.14-9.14 5.04 0 9.14 4.1 9.14 9.14 0 5.04-4.1 9.14-9.14 9.14zm0-16.25c-3.92 0-7.11 3.19-7.11 7.109s3.19 7.11 7.11 7.11c3.92 0 7.11-3.191 7.11-7.11 0-3.92-3.19-7.11-7.11-7.11z" fill="#000"/><path d="M35.55 27.425h-6.094a1.015 1.015 0 110-2.031h6.094a1.015 1.015 0 110 2.03zm-2.032 3.047h-2.03a1.015 1.015 0 110-2.032h2.03a1.015 1.015 0 110 2.032z" fill="#000"/></svg>