<svg width="77" height="77" viewBox="0 0 77 77" fill="none" xmlns="http://www.w3.org/2000/svg">
<g filter="url(#filter0_d)">
<rect x="20" y="15" width="37" height="37" rx="5" fill="black"/>
<g clip-path="url(#clip0)">
<path d="M46.8848 23.5345C47.1757 25.2488 47.4441 28.7084 45.7598 31.9286H41.2523C41.6736 28.4548 43.5733 25.3318 46.4643 23.3604C46.54 23.3081 46.637 23.2979 46.7219 23.333C46.8069 23.3682 46.8682 23.444 46.8848 23.5345V23.5345Z" fill="#FFBC2E"/>
<path d="M42.7218 20.5275C43.0136 21.9197 43.2067 23.3307 43.2998 24.75C41.5393 26.7614 40.4466 29.2697 40.1723 31.9286H38.5512C38.6198 30.3322 38.9991 25.4856 41.0959 21.9873C41.4287 21.4239 41.8178 20.8956 42.2573 20.4107C42.3235 20.3339 42.4273 20.301 42.5256 20.3258C42.6239 20.3505 42.6998 20.4286 42.7218 20.5275V20.5275Z" fill="#FFBC2E"/>
<path d="M38.2143 18.5261C38.9715 19.4824 39.5851 20.5442 40.0357 21.6777C39.0541 23.4956 38.367 25.4576 38 27.4907C37.6333 25.4575 36.9462 23.4954 35.9643 21.6777C36.4148 20.5441 37.0284 19.4824 37.7857 18.5261C37.838 18.4613 37.9168 18.4236 38 18.4236C38.0833 18.4236 38.162 18.4613 38.2143 18.5261V18.5261Z" fill="#FFBC2E"/>
<path d="M33.2782 20.5275C33.2995 20.4282 33.3752 20.3495 33.4736 20.3243C33.572 20.2991 33.6762 20.3318 33.7427 20.4086C34.1825 20.8943 34.5718 21.4235 34.9046 21.9879C36.9982 25.4807 37.3791 30.3311 37.4487 31.9286H35.8277C35.5534 29.2697 34.4606 26.7614 32.7002 24.75C32.7933 23.3307 32.9864 21.9197 33.2782 20.5275Z" fill="#FFBC2E"/>
<path d="M29.1157 23.5318C29.1307 23.4404 29.1917 23.3633 29.2772 23.3278C29.3627 23.2922 29.4604 23.3033 29.5357 23.3571C31.3686 24.5997 32.8266 26.32 33.7518 28.3318C33.7605 28.3553 33.7709 28.3783 33.7829 28.4003C34.2909 29.5176 34.6182 30.7086 34.7525 31.9286H30.2386C28.5548 28.7073 28.8243 25.2466 29.1157 23.5318V23.5318Z" fill="#FFBC2E"/>
<path d="M28.3571 33.5357C28.3571 33.2398 28.597 33 28.8928 33H47.1071C47.403 33 47.6428 33.2398 47.6428 33.5357V34.0714H28.3571V33.5357Z" fill="#FFBC2E"/>
<path d="M46.8929 35.3636L47.0423 36.2143H28.9577L29.1093 35.3636C29.1322 35.2351 29.2445 35.1419 29.375 35.1429H46.625C46.7563 35.1408 46.8698 35.2343 46.8929 35.3636V35.3636Z" fill="#FFBC2E"/>
<path d="M46.625 45.893C45.5067 47.2304 43.8523 48.0023 42.1089 48H33.8911C32.1468 48.0002 30.492 47.2277 29.3722 45.8903C28.2524 44.5529 27.7826 42.7882 28.0893 41.0711L28.3845 39.4286H32.1071C32.403 39.4286 32.6429 39.1887 32.6429 38.8928C32.6429 38.597 32.403 38.3571 32.1071 38.3571H28.5757L28.7664 37.2857H47.2336L47.4243 38.3571H35.3214C35.0256 38.3571 34.7857 38.597 34.7857 38.8928C34.7857 39.1887 35.0256 39.4286 35.3214 39.4286H47.6155L47.9086 41.0705C48.2168 42.7888 47.7466 44.5553 46.625 45.893V45.893Z" fill="#FFBC2E"/>
</g>
</g>
<defs>
<filter id="filter0_d" x="0" y="0" width="77" height="77" filterUnits="userSpaceOnUse" color-interpolation-filters="sRGB">
<feFlood flood-opacity="0" result="BackgroundImageFix"/>
<feColorMatrix in="SourceAlpha" type="matrix" values="0 0 0 0 0 0 0 0 0 0 0 0 0 0 0 0 0 0 127 0"/>
<feOffset dy="5"/>
<feGaussianBlur stdDeviation="10"/>
<feColorMatrix type="matrix" values="0 0 0 0 0 0 0 0 0 0 0 0 0 0 0 0 0 0 1 0"/>
<feBlend mode="normal" in2="BackgroundImageFix" result="effect1_dropShadow"/>
<feBlend mode="normal" in="SourceGraphic" in2="effect1_dropShadow" result="shape"/>
</filter>
<clipPath id="clip0">
<rect width="30" height="30" fill="white" transform="translate(23 18)"/>
</clipPath>
</defs>
</svg>
