<svg width="37" height="37" fill="none" xmlns="http://www.w3.org/2000/svg"><rect width="37" height="37" rx="5" fill="#000"/><g clip-path="url(#clip0)" fill="#FFBC2E"><path d="M26.885 8.534c.29 1.715.56 5.174-1.125 8.395h-4.508a12.14 12.14 0 015.212-8.569.271.271 0 01.42.174zm-4.163-3.006A30.18 30.18 0 0123.3 9.75a12.911 12.911 0 00-3.128 7.179h-1.62c.068-1.597.447-6.443 2.544-9.942a9.67 9.67 0 011.161-1.576.268.268 0 01.465.117zm-4.508-2.002a12.54 12.54 0 011.822 3.152A19.54 19.54 0 0018 12.49a19.521 19.521 0 00-2.036-5.813 12.53 12.53 0 011.822-3.152.275.275 0 01.428 0zm-4.936 2.002a.268.268 0 01.465-.12c.44.486.829 1.015 1.162 1.58 2.093 3.493 2.474 8.343 2.544 9.94h-1.621A12.912 12.912 0 0012.7 9.75c.093-1.42.286-2.83.578-4.222zM9.116 8.532a.268.268 0 01.42-.175 12.136 12.136 0 014.247 5.043c.508 1.118.835 2.309.97 3.529h-4.514c-1.684-3.222-1.415-6.682-1.123-8.397zm-.759 10.004c0-.296.24-.536.536-.536h18.214c.296 0 .536.24.536.536v.535H8.357v-.535zm18.536 1.828l.15.85H8.957l.151-.85a.268.268 0 01.266-.221h17.25a.268.268 0 01.268.22zm-.268 10.529A5.877 5.877 0 0122.109 33H13.89a5.893 5.893 0 01-5.802-6.929l.295-1.642h3.723a.536.536 0 000-1.072h-3.53l.19-1.071h18.468l.19 1.071H15.321a.536.536 0 000 1.072h12.295l.293 1.642a5.888 5.888 0 01-1.284 4.822z"/></g><defs><clipPath id="clip0"><path fill="#fff" transform="translate(3 3)" d="M0 0h30v30H0z"/></clipPath></defs></svg>