<svg width="44" height="54" fill="none" xmlns="http://www.w3.org/2000/svg"><path d="M26.813 43.875c2.278 0 4.125-.755 4.125-1.688 0-.931-1.847-1.687-4.125-1.687-2.279 0-4.125.755-4.125 1.688 0 .931 1.846 1.687 4.125 1.687zm-8.938 6.75H35.75c.426 0 .842-.163 1.19-.465.348-.302.612-.73.754-1.222H15.931c.142.493.406.92.754 1.222a1.82 1.82 0 001.19.465zM16.5 29.531a1 1 0 01.006-.11c-.043-1.165.276-2.306.894-3.192a4.887 4.887 0 011.346-1.31l.966-18.169H6.413L8.207 40.5h6.23v-4.219c.001-.82.197-1.623.563-2.31.366-.686.887-1.226 1.5-1.555V29.53zM8.25 14.344V9.28a.95.95 0 01.201-.596.63.63 0 01.486-.248h8.25a.63.63 0 01.487.248.95.95 0 01.201.596v5.063a.95.95 0 01-.201.596.63.63 0 01-.486.248h-8.25a.63.63 0 01-.487-.248.95.95 0 01-.201-.596zm7.563 4.219h-5.5a.63.63 0 01-.487-.248.95.95 0 01-.201-.596.95.95 0 01.201-.597.63.63 0 01.486-.247h5.5a.63.63 0 01.487.247.95.95 0 01.201.597.95.95 0 01-.201.596.63.63 0 01-.486.247z" fill="#FFBC2E"/><path d="M15.813 47.25h22V37.125h-22V47.25zm7.326-7.628c.992-.522 2.297-.81 3.674-.81 1.376 0 2.68.288 3.673.81 1.59.836 1.826 1.966 1.826 2.566 0 .599-.237 1.73-1.826 2.565-.992.522-2.297.81-3.674.81-1.376 0-2.68-.288-3.673-.81-1.59-.836-1.826-1.966-1.826-2.566 0-.599.237-1.73 1.826-2.565zm-5.264-5.872c-.426 0-.842.163-1.19.465-.348.302-.612.73-.754 1.222h21.763a2.548 2.548 0 00-.754-1.222 1.818 1.818 0 00-1.19-.465H17.875zm.593-6.457a3.246 3.246 0 00-.555 1.395h17.805c-.154-1.989-.861-3.694-2.108-5.08a8.086 8.086 0 00-1.739-1.456 5.836 5.836 0 01-1.375 1.42c-1.67 1.248-4.036 1.881-7.034 1.881-2.417 0-4.144.636-4.994 1.84zm-.593 3.082H35.75v1.688H17.875v-1.688zm-8.25-20.25H16.5V13.5H9.625v-3.375zm4.813 32.063H8.25v5.062h2.063v-.844c0-.67.218-1.314.604-1.789.387-.474.911-.741 1.458-.742h1.375c.234 0 .467.049.688.145v-1.833z" fill="#FFBC2E"/><path d="M12.375 45.563a.631.631 0 00-.486.247.95.95 0 00-.201.596v.844h2.75v-.844a.95.95 0 00-.202-.596.631.631 0 00-.486-.248h-1.375zm7.516-42.188H6.234l.09 1.688h13.478l.09-1.688zM8.368 48.938c.143.493.406.92.754 1.222a1.82 1.82 0 001.19.465h4.815a4.707 4.707 0 01-.62-1.688H8.368z" fill="#FFBC2E"/></svg>