<svg width="245" height="245" fill="none" xmlns="http://www.w3.org/2000/svg"><g clip-path="url(#clip0)"><path d="M205.177 216.8v24.117a4.083 4.083 0 11-8.166 0V216.8c0-18.779-15.195-33.975-33.975-33.975-8.886 0-16.948-4.527-21.567-12.11a4.082 4.082 0 011.363-5.61 4.082 4.082 0 015.611 1.363c3.124 5.129 8.579 8.191 14.593 8.191 23.291-.001 42.141 18.848 42.141 42.141zm-71.248-40.927a4.084 4.084 0 01-3.12 4.859c-10.745 2.341-21.673-.003-30.374-5.942-8.613 9.231-19.993 8.035-18.47 8.035-18.778 0-33.975 15.195-33.975 33.975v24.117a4.083 4.083 0 11-8.166 0V216.8c0-23.291 18.847-42.141 42.14-42.141 9.422 0 17.06-7.591 17.06-17.016v-1.075c-17.82-8.521-30.329-26.428-31.091-47.28-7.334-1.763-12.798-8.328-12.798-16.138V71.986c-.223-10.36 1.315-36.308 20.234-54.545C98.73-5.08 136.194-3.65 163.742 9.612c2.685 1.294 3.092 4.922.863 6.8 13.955 3.404 25.989 11.983 33.72 24.261.4.633 1.13 1.625.939 3.209-.118.985-.411 1.82-1.171 2.59-4.976 5.046-7.716 11.733-7.716 18.83v27.85a4.083 4.083 0 01-8.165 0v-27.85c0-8.185 2.796-15.953 7.932-22.194-7.828-11.195-20.041-18.395-33.853-19.874l-7.176-.769c-4.196-.449-5.019-6.23-1.12-7.834l3.264-1.344c-42.505-14.818-87.96 1.646-87.96 58.653v21.21c0 3.24 1.866 6.056 4.594 7.47V74.152c0-15.759 12.82-28.58 28.58-28.58h52.055c15.759 0 28.58 12.82 28.58 28.578v33.43c0 35.507-34.698 62.477-70.005 52.082a24.982 24.982 0 01-2.136 8.337c6.868 4.717 15.541 6.62 24.104 4.754a4.083 4.083 0 014.858 3.12zM122.5 153.711c25.609 0 46.442-20.833 46.442-46.442V74.15c0-11.255-9.158-20.412-20.414-20.412H96.472c-11.256 0-20.414 9.157-20.414 20.414v33.117c0 25.609 20.834 46.442 46.442 46.442zm41.339 70.365H151.59a4.083 4.083 0 100 8.165h12.249a4.083 4.083 0 000-8.165z" fill="#000"/></g><defs><clipPath id="clip0"><path fill="#fff" d="M0 0h245v245H0z"/></clipPath></defs></svg>