<svg width="329" height="347" fill="none" xmlns="http://www.w3.org/2000/svg"><path d="M270.609 346.937V293.49c0-13.332-10.247-24.14-22.888-24.14H81.28c-12.64 0-22.888 10.808-22.888 24.14v53.447" fill="#fff"/><path d="M93.326 269.35H81.28c-12.64 0-22.888 10.808-22.888 24.14v53.447H70.44V293.49c0-13.332 10.247-24.14 22.887-24.14zm144.554 0h12.046c12.64 0 22.887 10.808 22.887 24.14v53.447h-12.046V293.49c.001-13.332-10.247-24.14-22.887-24.14z" fill="#E7F5FD"/><path d="M222.22 55.903c0-28.067-21.573-50.82-48.184-50.82h-19.274c-26.611 0-48.184 22.753-48.184 50.82v12.706h115.643V55.903h-.001z" fill="#6695A6"/><path d="M134.283 55.903c0-26.568 19.333-48.361 43.969-50.615a46.146 46.146 0 00-4.217-.206h-19.274c-26.611 0-48.184 22.754-48.184 50.821v12.706h27.706V55.903z" fill="#8FB2C0"/><path d="M222.221 44.465H106.578v26.678h115.643V44.465z" fill="#fff"/><path d="M137.898 44.465h-31.32v26.678h31.32V44.465z" fill="#E7F5FD"/><path d="M246.517 346.937v-81.069c0-3.69-2.836-6.681-6.335-6.681H88.819c-3.499 0-6.335 2.99-6.335 6.681v81.069" fill="#6695A6"/><path d="M106.577 71.15v33.033c-10.645 0-19.274 9.102-19.274 20.328 0 11.226 8.629 20.328 19.274 20.328v71.323c0 18.85 14.488 34.131 32.36 34.131h50.923c17.872 0 32.36-15.281 32.36-34.131V144.84c10.645 0 19.274-9.102 19.274-20.328 0-11.226-8.63-20.328-19.274-20.328V71.15" fill="#FFD6D0"/><path d="M203.814 261.727h-79.17v85.21h79.17v-85.21z" fill="#E7F5FD"/><path d="M184.253 346.937l-.061-5.167-10.841-48.279h-15.66l-10.842 48.279-.061 5.167" fill="#FC8F58"/><path d="M166.808 294.761c9.314 0 16.865-7.964 16.865-17.787 0-9.824-7.551-17.787-16.865-17.787-9.314 0-16.864 7.963-16.864 17.787 0 9.823 7.55 17.787 16.864 17.787z" fill="#FC8F58"/><path d="M165.603 276.974c0-6.842 3.665-12.778 9.035-15.754a16.092 16.092 0 00-7.831-2.033c-9.314 0-16.864 7.964-16.864 17.787 0 9.823 7.55 17.787 16.864 17.787 2.827 0 5.49-.738 7.831-2.034-5.37-2.975-9.035-8.912-9.035-15.753z" fill="#DD7F4E"/><path d="M222.22 249.022c5.988 0 10.842 5.12 10.842 11.435v24.717c0 5.594-5.562 9.251-10.324 6.786l-53.521-27.691h-8.433l-53.521 27.691c-4.762 2.464-10.324-1.192-10.324-6.786v-25.988c0-5.613 4.315-10.164 9.637-10.164" fill="#fff"/><path d="M111.395 285.174v-25.988c0-5.613 4.315-10.164 9.637-10.164h-14.456c-5.322 0-9.636 4.551-9.636 10.164v25.988c0 5.594 5.561 9.251 10.323 6.786l5.262-2.722a7.762 7.762 0 01-1.13-4.064z" fill="#E7F5FD"/><path d="M202.941 199.469h-83.115v13.975h83.115v-13.975zm-33.726 39.389h-15.66v13.975h15.66v-13.975z" fill="#FEBCB6"/><path d="M217.401 132.134h-9.636c0 10.525-8.091 19.058-18.07 19.058-9.979 0-18.069-8.533-18.069-19.058h-13.251c0 10.525-8.09 19.058-18.069 19.058s-18.069-8.533-18.069-19.058h-10.842m36.139 40.657l-14.102 21.247c-1.798 2.709-2.763 5.937-2.763 9.245h67.459c0-3.308-.965-6.535-2.763-9.245l-14.102-21.247" fill="#fff"/><path d="M169.217 172.791h-21.683l-14.102 21.247c-1.798 2.709-2.763 5.937-2.763 9.245h21.683c0-3.308.966-6.535 2.763-9.245l14.102-21.247z" fill="#E7F5FD"/><path d="M124.646 216.162v-39.661c4.084-.618 7.227-4.313 7.227-8.793 0-4.479-3.143-8.174-7.227-8.793V71.149h-18.07v33.033c-10.645 0-19.274 9.102-19.274 20.328 0 11.226 8.63 20.328 19.274 20.328v71.323c0 18.85 14.489 34.131 32.361 34.131h18.069c-17.872.001-32.36-15.28-32.36-34.13z" fill="#FEBCB6"/><path d="M189.695 156.274c-10.968 0-20.159-8.179-22.378-19.058h-4.634c-2.218 10.879-11.41 19.058-22.378 19.058s-20.158-8.179-22.378-19.058h-6.533v-10.164h15.661v5.083c0 7.706 5.944 13.975 13.25 13.975 7.307 0 13.251-6.269 13.251-13.975v-5.083h22.887v5.083c0 7.706 5.944 13.975 13.251 13.975 7.307 0 13.251-6.269 13.251-13.975v-5.083H217.4v10.164h-5.328c-2.218 10.879-11.409 19.058-22.377 19.058zm-44.57-54.633h-9.636v25.411h9.636v-25.411zm50.594 0h-9.636v25.411h9.636v-25.411zm3.593 89.482l-11.784-17.753.549-.579h7.642v-10.164h-11.633l-3.382 3.567c-4.034 4.254-9.396 6.597-15.101 6.597-5.704 0-11.067-2.343-15.101-6.597l-3.382-3.567h-11.633v10.164h6.164l-12.168 18.332c-2.377 3.583-3.634 7.788-3.634 12.16v5.083h77.097v-5.083c0-4.372-1.257-8.576-3.634-12.16zm-62.651 7.078c.212-.43.451-.847.718-1.249l12.344-18.599a29.6 29.6 0 0015.879 4.602c5 0 9.816-1.249 14.14-3.592l11.674 17.589c.267.403.506.82.718 1.25h-55.473v-.001zm32.556 15.246h-9.636v10.164h9.636v-10.164z" fill="#000"/><path d="M227.038 99.61V76.232h9.637V66.067H92.121v10.164h9.637v23.38c-10.983 2.361-19.273 12.629-19.273 24.9 0 12.271 8.29 22.539 19.273 24.9v66.751c0 21.622 16.678 39.213 37.179 39.213h50.922c20.5 0 37.178-17.591 37.178-39.213v-66.751c10.984-2.361 19.274-12.629 19.274-24.9 0-12.271-8.29-22.539-19.273-24.9zm-4.818 40.147h-4.819v76.405c0 16.017-12.355 29.048-27.541 29.048h-20.643v-6.352h-9.637v6.352h-20.643c-15.186 0-27.541-13.031-27.541-29.048v-76.405h-4.819c-7.971 0-14.456-6.84-14.456-15.246 0-8.407 6.485-15.246 14.456-15.246h4.819V76.231h106.006v33.034h4.819c7.97 0 14.455 6.839 14.455 15.246 0 8.406-6.486 15.246-14.456 15.246zm-33.728-99.1h-9.637V50.82h9.637V40.657z" fill="#000"/><path d="M227.038 55.903C227.038 25.078 203.261 0 174.035 0h-19.274c-29.226 0-53.003 25.078-53.003 55.903h9.637c0-1.719.098-3.412.274-5.082h57.548V40.657h-55.335c5.967-17.745 22.035-30.493 40.879-30.493h19.274c18.845 0 34.913 12.748 40.88 30.493h-16.788V50.82h19c.176 1.67.274 3.363.274 5.082h9.637z" fill="#000"/><path d="M159.578 96.56h-30.116v10.164h30.116V96.56zm40.956 0h-30.115v10.164h30.115V96.56zm-89.138 218.529h-9.636v10.164h9.636v-10.164zm0 20.329h-9.636v10.164h9.636v-10.164z" fill="#fff"/><path d="M251.255 264.514c-.639-5.85-5.357-10.41-11.073-10.41h-3.509c-2.365-5.963-7.953-10.164-14.454-10.164v10.164c3.321 0 6.023 2.85 6.023 6.353v24.717c0 1.196-.693 1.83-1.106 2.101-.413.272-1.26.649-2.278.122l-54.524-28.211h-10.668l-54.525 28.211c-1.019.528-1.864.15-2.276-.122-.413-.271-1.107-.906-1.107-2.101v-25.987c0-2.802 2.161-5.083 4.819-5.083V243.94c-6.281 0-11.638 4.25-13.627 10.164h-4.13c-5.716 0-10.435 4.56-11.073 10.41-13.613 1.838-24.172 14.126-24.172 28.976v53.447h9.637V293.49c0-9.203 6.217-16.903 14.455-18.674v72.12h9.637v-81.068c0-.882.68-1.6 1.516-1.6h3.302v20.906c0 4.393 2.11 8.404 5.646 10.728 1.944 1.278 4.134 1.923 6.332 1.923 1.798 0 3.604-.432 5.286-1.303l11.709-6.058.366 56.507 9.637-.07-.398-61.407 14.449-7.477c.277 6.45 3.1 12.208 7.429 16.19l-10.54 46.937-.067 5.728 9.636.127.054-4.605 9.718-43.278a20.57 20.57 0 005.428.726c1.008 0 1.998-.079 2.969-.22l9.605 42.772.055 4.605 9.635-.127-.067-5.728-10.144-45.172c5.098-3.609 8.664-9.437 9.457-16.162l9.987 5.168-.401 61.922 9.637.07.369-57.022 12.705 6.574c3.738 1.934 8.082 1.703 11.619-.622 3.535-2.324 5.645-6.334 5.645-10.728v-20.904h2.303c.836 0 1.515.717 1.515 1.599v81.069h9.637v-72.12c8.238 1.771 14.456 9.471 14.456 18.675v53.447h9.636v-53.447c.003-14.85-10.556-27.139-24.169-28.977zm-72.401 12.46c0 7.005-5.404 12.705-12.047 12.705-6.642 0-12.046-5.699-12.046-12.705v-3.928l7.141-3.695h6.196l10.755 5.564v2.059h.001z" fill="#000"/><path d="M227.245 315.089h-9.637v10.164h9.637v-10.164zm0 20.328h-9.637v10.165h9.637v-10.165z" fill="#fff"/></svg>