<svg width="152" height="152" fill="none" xmlns="http://www.w3.org/2000/svg"><g clip-path="url(#clip0)" fill="#000"><path d="M72.617 43.447V8.391A7.512 7.512 0 0065.105.879H7.512A7.512 7.512 0 000 8.39v35.056a7.512 7.512 0 007.512 7.513h57.593a7.512 7.512 0 007.512-7.513zM5.008 8.391a2.504 2.504 0 012.504-2.504h57.593A2.504 2.504 0 0167.61 8.39v7.512H5.01V8.39zm0 35.056V20.911H67.61v22.536a2.504 2.504 0 01-2.504 2.505H7.512a2.504 2.504 0 01-2.504-2.505zm52.585 62.602H35.057v5.008h22.536v-5.008zm15.024 10.016h-37.56v5.008h37.56v-5.008zm-2.504-20.033H35.057v5.009h35.056v-5.008zm0-10.016h-25.04v5.008h25.04v-5.008zm0-10.016H35.057v5.008h35.056V76zm20.033-10.016h-55.09v5.008h55.09v-5.008zm22.536-10.016h-67.61v5.008h67.61v-5.008zm38.585 69.632l-20.836-20.829-6.408-19.22 4.217-4.217a7.511 7.511 0 00.087-10.624 7.512 7.512 0 00-10.709-.001l-4.22 4.22-14.466-4.824a2.505 2.505 0 00-1.913.136L75.772 80.863a2.504 2.504 0 00-1.384 2.253v14.166a2.504 2.504 0 002.504 2.504h8.12v3.541l-9.89 9.878a2.48 2.48 0 00-.684 1.28l-1.77 8.841a2.504 2.504 0 002.954 2.958l8.855-1.771a2.527 2.527 0 001.28-.683l7.08-7.084 12.396 12.395 21.246 21.247a2.505 2.505 0 003.541 0l21.247-21.247a2.505 2.505 0 000-3.541zm-30.109-51.353a2.507 2.507 0 013.543 3.546l-17.706 17.706-3.543-3.54 17.706-17.712zM79.396 94.765V84.651l18.935-9.467 11.108 3.703-9.528 9.528-1.77-1.77a2.505 2.505 0 00-2.254-.684l-8.854 1.77a2.504 2.504 0 00-2.003 2.457v4.577h-5.634zm-1.082 25.872l.706-3.533 2.827 2.827-3.533.706zm7.43-3.891l-3.541-3.541 3.543-3.543 3.54 3.543-3.543 3.541zm4.276-9.891V92.239l5.527-1.105 11.446 11.446a2.504 2.504 0 103.541-3.543l9.53-9.515 5.311 15.923-18.382 18.382-16.973-16.972zm38.22 38.222l-17.706-17.707 17.706-17.708 17.706 17.708-17.706 17.707z"/><path d="M110.178 146.113H25.041a12.468 12.468 0 002.503-7.512V53.464h-5.008V138.6a7.512 7.512 0 01-7.512 7.512 2.505 2.505 0 000 5.008h95.154a12.51 12.51 0 008.286-3.13l-3.318-3.756a7.488 7.488 0 01-4.968 1.878zm7.512-132.714v50.08h5.008V15.904h17.529a2.505 2.505 0 002.504-2.504C142.723 6.488 137.122.887 130.21.879H77.625v5.008h42.569a12.472 12.472 0 00-2.504 7.512zm12.52-7.512a7.526 7.526 0 017.084 5.008h-14.135a7.511 7.511 0 017.051-5.008z"/><path d="M97.658 133.593H45.073v5.008h52.585v-5.008zm15.024-120.194a2.504 2.504 0 00-2.504-2.504h-25.04a2.504 2.504 0 00-2.505 2.504v25.04a2.504 2.504 0 002.505 2.504h25.04a2.504 2.504 0 002.504-2.504V13.4zm-5.008 22.536H87.642V15.903h20.032v20.032z"/></g><defs><clipPath id="clip0"><path fill="#fff" d="M0 0h152v152H0z"/></clipPath></defs></svg>