<svg width="152" height="152" fill="none" xmlns="http://www.w3.org/2000/svg"><path d="M151.967 141.274l-8.906-49.102a2.23 2.23 0 10-4.39.796l3.766 20.761-29.029-33.719 19.524-4.357 2.891 1.61 1.255 6.921a2.231 2.231 0 004.39-.796l-1.444-7.96a2.23 2.23 0 00-1.109-1.551l-4.555-2.536-14.395-8.013h-.001l-11.106-6.183h-.001l-.002-.001a2.226 2.226 0 00-.264-.124c-.028-.011-.057-.019-.086-.028a2.168 2.168 0 00-.189-.06c-.036-.009-.073-.014-.11-.022a2.205 2.205 0 00-.172-.029c-.04-.005-.078-.006-.118-.008a2.245 2.245 0 00-.168-.006c-.04 0-.08.003-.12.005a2.274 2.274 0 00-.447.075 2.337 2.337 0 00-.273.095 1.712 1.712 0 00-.116.052l-.052.022-5.096 2.657c3.791-7.07 5.707-13.918 5.707-20.468 0-17.209-14-31.209-31.208-31.209-17.209 0-31.207 14-31.207 31.209 0 6.614 1.951 13.53 5.817 20.674l-5.492-2.863c-.017-.009-.035-.015-.052-.023a2.336 2.336 0 00-.388-.146 2.398 2.398 0 00-.445-.075 2.29 2.29 0 00-.286 0c-.042.003-.083.004-.123.01-.056.006-.11.017-.166.028-.039.007-.078.013-.117.023-.06.015-.12.036-.18.056l-.094.031a2.23 2.23 0 00-.263.124l-.002.001-30.057 16.732c-.584.324-.99.893-1.11 1.55l-8.466 46.68a2.231 2.231 0 004.39.796l2.54-14.004 28.875-15.264-2.322 29.983-31.812 14.284 1.12-6.175a2.231 2.231 0 00-4.391-.796L.036 141.275a2.23 2.23 0 003.109 2.433l35.971-16.152 35.957 16.145.002.001.013.006c.02.009.04.015.062.024a3.047 3.047 0 00.262.09c.028.007.055.015.084.021.046.011.093.019.14.027.022.003.044.009.067.012l.045.006c.075.008.15.013.225.014l.028.001h.014c.09-.001.18-.008.27-.02.011-.002.023-.001.034-.003.017-.002.034-.008.05-.01.07-.012.14-.027.21-.046l.056-.013.006-.001.018-.007a2.41 2.41 0 00.256-.095l35.971-16.152 35.971 16.151c.035.016.07.027.106.041.035.014.07.029.105.041.047.015.095.027.142.039.03.007.058.017.088.023.057.013.115.021.173.029.021.002.041.007.062.009.079.009.159.014.238.014h.001c.108 0 .216-.011.324-.027l.075-.012c.107-.02.213-.045.317-.08l.02-.008c.069-.024.137-.05.204-.082.02-.009.037-.022.056-.032.056-.028.11-.061.164-.094.054-.033.108-.067.159-.104.017-.013.037-.022.054-.036.04-.03.074-.066.11-.099.03-.026.06-.051.089-.079.067-.067.129-.138.186-.212l.035-.04a2.32 2.32 0 00.177-.284c.014-.027.025-.057.039-.085.034-.073.066-.146.093-.221.013-.038.024-.077.035-.116.02-.07.037-.14.051-.212.007-.041.015-.082.02-.123.01-.076.014-.153.016-.23.001-.036.004-.073.003-.11a2.115 2.115 0 00-.032-.343zm-39.215-76.855l-2.287.535-.147-1.89 2.434 1.355zm-4.867 25.005l-9.317-7.275a2.232 2.232 0 00-2.264-.287l-18.063 7.861V87.28c1.35-1.1 4.416-3.691 8.092-7.41l20.127-8.843 1.425 18.398zm-2.075-26.79l.285 3.679-12.574 5.524a90.18 90.18 0 003.493-4.618l8.796-4.585zm-59.617 0l9.248 4.82a93.224 93.224 0 004.504 5.819 107.094 107.094 0 004.225 4.745l-18.958-2.713.981-12.671zm-6.469 25.739l-28.27 14.943 1.378-7.592.035-.196 27.422-14.452-.565 7.297zm.973-12.555L13.879 89.952l2.301-12.69 25.504-14.197-.64 8.277-.347 4.476zm.765 47.9l2.112-27.273L69.928 136.5l-28.466-12.782zm32.308-8.598L60.027 93.46l13.743 1.646v20.014zm0-24.508l-17.88-2.14a2.23 2.23 0 00-2.149 3.41l20.03 31.566v10.775l-29.634-45.04.73-9.42 24.614 3.522a97.663 97.663 0 004.289 3.766v3.56zm2.374-7.397c-5.633-4.752-26.746-23.897-26.746-43.91 0-14.748 11.998-26.747 26.746-26.747s26.747 11.999 26.747 26.747c0 20.013-21.113 39.159-26.747 43.91zm2.088 55.01v-9.903l6.67 6.908-6.67 2.995zm10.996-4.937l-10.996-11.39V94.593l18.636-8.11 11.483 8.966 2.189 28.269-21.312 9.57zm21.585-63.833l7.735-1.81 5.486 3.054 3.035 1.69-15.757 3.517-.499-6.451zm4.195 54.163l-1.742-22.488 28.661 34.575-26.919-12.087zm-2.339-30.2l-.606-7.829-.025-.332 31.97 37.136 2.05 11.303-33.389-40.278z" fill="#000"/><path d="M76.144 25.516a2.23 2.23 0 100 4.462c5.143 0 9.327 4.184 9.327 9.327 0 5.142-4.184 9.327-9.327 9.327s-9.326-4.184-9.326-9.327c0-2.46.95-4.782 2.673-6.537a2.23 2.23 0 10-3.182-3.126 13.71 13.71 0 00-3.953 9.663c0 7.603 6.185 13.789 13.789 13.789 7.603 0 13.788-6.186 13.788-13.789s-6.186-13.789-13.789-13.789z" fill="#000"/></svg>