<svg width="166" height="166" fill="none" xmlns="http://www.w3.org/2000/svg"><g clip-path="url(#clip0)" fill="#000"><path d="M39.514 122.957c-3.542-2.021-7.53-.651-9.825 2.308-1.012.886-1.837 2.038-2.389 3.459-1.62 4.16-.012 8.517 4.27 10.083 4.298 1.571 8.872-.801 10.644-4.892 1.613-3.719 1.102-8.788-2.7-10.958zm-2.32 12.592c-3.352 2.24-8.273.062-7.954-4.177.139-1.835 1.025-3.515 2.324-4.782 2.004-1.623 4.881-2.364 6.998-.499 2.783 2.454 1.395 7.611-1.368 9.458zm80.336-12.592c-3.542-2.021-7.53-.651-9.824 2.308-1.012.886-1.836 2.038-2.388 3.459-1.62 4.16-.013 8.517 4.27 10.083 4.297 1.571 8.872-.801 10.644-4.892 1.612-3.719 1.102-8.788-2.702-10.958zm-2.319 12.592c-3.352 2.24-8.272.062-7.953-4.177.138-1.835 1.025-3.515 2.323-4.782 2.003-1.623 4.881-2.364 6.997-.499 2.785 2.454 1.397 7.611-1.367 9.458z"/><path d="M164.477 125.029c-.809-.578-1.87-.799-2.982-.868.656-5.545.591-11.161.09-16.715-.43-4.765-.763-10.088-3.63-14.115-.765-1.076-1.695-2.022-2.639-2.941-2.665-2.598-6.202-4.777-8.46-7.713-2.17-2.818-3.281-6.27-4.555-9.544-3.174-8.142-5.991-16.483-10.327-24.109-.865-1.521-1.736-3.49-3.453-4.202-1.833-.76-4.377-.265-6.306-.208l-14.142.418c-2.431.072-4.87.128-7.296.343-1.827.163-4.24.132-5.608 1.572-1.176 1.236-1.232 3.03-1.305 4.635l-.036.837c-1.675-.088-3.413.1-5.103.208-.718-2.772-.466-5.76-.463-8.595l.007-9.543.008-9.884c.003-2.201.847-6.164-1.351-7.592-1.015-.66-2.395-.583-3.546-.644a322.8 322.8 0 00-5.074-.232 368.104 368.104 0 00-9.818-.23 322.14 322.14 0 00-9.48.033c-2.886.053-6.176-.262-9 .365-2.679.594-2.997 3.078-3.092 5.419-1.862-.284-3.96-.06-5.676-.067-2.922-.01-5.842.021-8.764.066l-8.765.13c-1.977.03-5.046-.5-6.458 1.285-1.297 1.643-.847 4.671-.87 6.622-.033 2.84-.063 5.68-.095 8.52-.06 5.398-.171 10.797.032 16.195l-.435-.015c-2.326-.095-5.983-.533-6.659 2.433-.669 2.927-.4 6.332-.39 9.32.013 3.698.156 7.39.263 11.085.102 3.431-.164 6.943.118 10.365-.528.015-1.056.027-1.583.044-2.694.09-6.41.018-7.421 3.184-.816 2.552.815 5.249 3.14 6.295.976.438 2.032.666 3.124.768-.426 1.568-.227 3.592-.258 4.985a216.828 216.828 0 00-.027 7.701c.036 2.565.096 5.131.18 7.696.053 1.586-.256 3.837.273 5.518-.04.009-.079.013-.116.023-3.057.7-2.973 4.65-2.774 7.142.103 1.288.17 2.824 1.152 3.786.849.832 2.064 1.021 3.194 1.101 1.785.125 3.645.092 5.421-.108.702-.08 1.445-.12 2.112-.305.52 2.943 1.74 5.74 3.787 7.994 3.374 3.716 8.438 5.667 13.331 6.232 5.191.601 10.921-.302 14.689-4.188 2.825-2.914 4.953-6.788 5.848-10.821.84.148 1.728.142 2.574.189 1.805.099 3.617.105 5.424.139 3.729.072 7.457.091 11.187.088 7.026-.007 14.054-.062 21.08-.221.454 3.159 1.7 6.177 3.885 8.583 3.372 3.715 8.437 5.666 13.331 6.231 5.191.601 10.919-.302 14.688-4.188 2.555-2.634 4.537-6.055 5.555-9.666 5.072.602 10.326.534 15.406.547a231.495 231.495 0 0012.725-.311c1.217-.062 2.579.013 3.762-.326 2.037-.583 2.63-2.669 2.896-4.535.284-1.988.538-4.876-1.325-6.211zm-6.864-21.449c.323 3.132.447 6.235.448 9.334-1.205-.128-2.533.062-3.657.082-1.483.026-3.032-.005-4.523.192a84.058 84.058 0 01.447-6.34c.134-1.236.132-2.751.72-3.877 1.147-2.2 4.08-2.125 6.26-1.941.126.861.22 1.718.305 2.55zm.426 11.72c-.055 2.959-.204 5.92-.387 8.906h-.156a516.88 516.88 0 00-7.262-.043 78.255 78.255 0 01-.396-9.188c1.503.211 3.069.188 4.566.224 1.113.025 2.434.218 3.635.101zM86.132 56.314c.528-.009 1.056-.011 1.585-.025 1.946-.052 3.996.021 5.957-.213-.04.98-.078 1.96-.116 2.94-.211 5.407-.416 10.814-.501 16.226-.056 3.637-.212 7.316-.118 10.975-.547-.203-1.12-.298-1.702-.335-.59-.036-1.19-.015-1.78.013-6.388.3-12.738.313-19.113.39-1.18-10.14-.655-20.315-.395-30.489 1.227.33 2.631.301 3.81.366 1.591.086 3.188.119 4.784.14-.056.57-.089 1.144-.13 1.72-.093 1.304-.359 2.792-.252 4.099.177 2.163 1.867 1.682 3.53 1.578 1.509-.095 4.091.927 4.64-1.124.533-1.984-.085-4.161-.2-6.261zm-6.03.009l.807.01c.917.011 1.831.011 2.747.009-.01.518.016 1.042.07 1.587.105 1.052.449 2.374.341 3.512-.298-.038-.602-.098-.74-.104a14.108 14.108 0 00-1.962.06c-.224.02-.744.014-1.068.094-.004-.105-.006-.21-.011-.315-.057-1.588-.022-3.245-.184-4.853zM66.363 21.775c.024-.783.064-1.57.033-2.35 1.264.004 2.528.013 3.792.032.07.54.138 1.083.19 1.627.079.839.43 2.436.18 3.246-.038.12-.052.2-.055.255a1.34 1.34 0 00-.206.11c-.386.24-1.196.186-1.67.25-.82.113-1.7.292-2.554.335-.08-1.023.269-2.83.29-3.506zm-15.708 1.64c.047-.88.101-1.762.145-2.643.041-.876-.078-.922.76-1.029 1.773-.224 3.633-.153 5.416-.201 2.598-.071 5.197-.11 7.795-.118-.543 1.97-.74 4.195-.905 6.088-.22 2.494 1.86 2.274 3.756 2.066 1.78-.195 4.96.044 5.438-2.195.376-1.766.12-3.933-.21-5.875a299.476 299.476 0 0110.53.431c.429.026.858.051 1.286.078.004.117.01.28.025.499-.04.905-.01 1.82-.014 2.726-.018 3.409-.036 6.817-.052 10.225-.02 3.634-.037 7.27-.056 10.905-.014 2.79-.222 5.659.282 8.417l-4.282.164c-2.27.083-4.541.105-6.81.194-1.179.046-2.54-.013-3.755.27.1-4.896.104-9.79-.209-14.68-.09-1.43-.021-3.155-.756-4.447-.837-1.472-2.339-1.773-3.892-1.996-3.646-.523-7.38-.367-11.052-.37a477.08 477.08 0 00-3.802.013c.47-2.766.217-5.78.362-8.521zM40.408 58.213c-.175-1.194-.305-2.705-1.252-3.579-1.016-.936-2.74-.786-4.013-.762a61.75 61.75 0 00-3.895.221c.397-2.326.19-4.875.253-7.135a304.942 304.942 0 01.32-7.738c.028-.532-.188-1.998.192-2.424.35-.393 1.873-.299 2.351-.355.887-.105 1.775-.197 2.664-.28 1.777-.163 3.559-.283 5.34-.373.416-.02.831-.034 1.245-.052-.26 2.205-.2 4.614-.06 6.674.175 2.56 2.908 1.834 4.734 1.733 1.536-.085 4.99.489 5.358-1.638.216-1.247-.17-2.828-.27-4.078-.075-.959-.143-1.919-.224-2.877 3.21-.014 6.454-.085 9.656.144.766.056 1.532.132 2.288.27.867.158.834.248.916 1.113.167 1.764.227 3.546.284 5.317.218 6.888-.09 13.778-.299 20.662-.234 7.769-.318 15.551.567 23.285l-.273.003c-7.465.14-14.927.447-22.392.612-1.033.024-2.066.044-3.1.067a2.13 2.13 0 00-.013-.092c-.154-6.444-.288-12.868-.094-19.315.094-3.145.178-6.278-.283-9.403zm10.15-22.647c.08.955.176 1.909.26 2.863.093 1.022.312 2.132.339 3.19-.88.139-2.301-.002-2.87.034-.806.05-1.645.17-2.466.196-.032-.613.096-1.81.091-2.09-.012-.662-.016-1.324-.04-1.987-.026-.703-.043-1.412-.1-2.115 1.595-.047 3.19-.076 4.786-.09zm-16.06-10.411c.303-.007.606-.018.91-.027-.02.949.201 1.936.465 2.806.054.166.11.331.166.496a55.04 55.04 0 01-1.477.274c-.93.139-1.884.225-2.83.226-.28-.646-.183-1.925-.227-2.479-.033-.41-.084-.818-.136-1.227l3.13-.07zm-14.702 15.09l.103-7.535c.015-1.192.029-2.383.048-3.574.01-.625.02-1.25.043-1.875.01-.269-.053-1.373.06-1.768.321-.023.643-.037.965-.036.56-.018 1.123-.025 1.685-.038l3.708-.083 4.006-.09a36.515 36.515 0 00-.276 1.706c-.12.934-.408 2.13-.072 3.048.58 1.588 3.027 1.036 4.304.904 1.31-.135 3.823-.073 4.103-1.782.143-.877-.324-1.842-.495-2.69a5.223 5.223 0 01-.079-1.375c1.339-.043 2.678-.093 4.016-.147 1.473-.06 3.263.033 4.881-.232-.114 2.393-.206 4.986.322 7.303-1.695.033-3.39.08-5.083.164-1.894.093-3.786.222-5.673.403-1.79.17-3.815.189-5.531.759-1.702.563-2.43 1.913-2.586 3.625-.202 2.206-.202 4.447-.255 6.661-.054 2.242-.115 4.49-.087 6.732.016 1.348-.001 2.716.224 4.033-.89.071-1.78.133-2.672.17-1.832.073-3.66.077-5.49.048-.244-4.776-.233-9.548-.169-14.33zM23.423 61.4c-.054-1.132-.083-2.289-.226-3.422a136.28 136.28 0 003.615-.066c.01 1.004.174 2.038.23 2.994.029.46.419 2.323.163 2.67-.267.362-1.355.38-1.936.467-.392.06-1.144.33-1.501.143-.273-.143-.361-.538-.4-.81-.09-.66.087-1.318.055-1.976zM12.128 80.654c.108-2.793.148-5.599.11-8.395-.037-2.799-.081-5.598-.024-8.397.029-1.453.083-2.906.178-4.358.033-.514-.036-1.46.3-1.649.365-.205 1.547-.004 1.985.007 2.34.054 4.66.103 6.978.112-.302 2.188-.334 4.615-.186 6.713.156 2.193 2.108 1.85 3.748 1.624 2.072-.284 4.254-.164 4.297-2.738.023-1.327-.127-2.676-.189-4.003-.029-.6-.034-1.187-.081-1.763.74-.04 1.48-.089 2.221-.147 1.335-.106 2.671-.204 4.011-.199.33.002.675.04 1.003.02l.151.01a3.7 3.7 0 00.05.39c-.01.468.167 1.003.219 1.47.31 2.85.158 5.736.07 8.594-.193 6.372-.257 12.79.094 19.158-5.818.126-11.636.246-17.454.356-2.73.052-5.459.089-8.187.148.541-2.261.616-4.63.706-6.953zM4.413 93.85c-.95-.694-1.309-1.982.038-2.34 1.299-.343 2.882-.135 4.21-.164 1.825-.04 3.649-.108 5.474-.165l10.606-.33c6.955-.218 13.912-.41 20.868-.604 12.269-.344 24.65-.331 36.903-1.363 1.075.017 2.15.037 3.228.052 1.49.02 3.031-.075 4.514.074 1.75.176 2.015 1.575.828 2.784-1.063 1.084-2.768 1.313-4.204 1.453-1.767.172-3.548.262-5.32.37-13.855.834-27.735.814-41.608.766-6.942-.024-13.882-.053-20.823.016-3.504.034-7.007.112-10.511.148-1.331.014-3.06.136-4.203-.697zm11.11 35.456a20.869 20.869 0 00-.176 3.269c-1.307-.16-2.832.137-3.988.14-1.108.005-2.386.098-3.473-.142-.204-.045-.527-.133-.576-.202-.184-.255-.156-1.677-.179-2.004-.044-.639-.401-2.739.061-3.248.657-.727 2.971-.297 3.807-.251 1.695.092 3.345.184 5.001.013a21.036 21.036 0 00-.477 2.425zm-5.737-7.623a397.433 397.433 0 01-.34-6.995c.503.093 1.014.161 1.523.27 1.9.401 1.932 2.352 2.007 3.96.065 1.406-.076 2.77-.281 4.158-.04.269-.067.513-.074.744-.92-.061-1.844-.147-2.76-.183.065-.615-.035-1.261-.075-1.954zm37.586 18.312c-2.455 3.989-5.687 6.117-10.407 6.465-4.34.322-8.83-.664-12.515-3.016-3.73-2.381-5.76-6.233-5.992-10.626-.349-6.566 3.13-12.42 8.376-15.722a16.735 16.735 0 016.237-1.758c8.1-.629 15.422 4.762 16.95 12.789.795 4.168-.465 8.321-2.649 11.868zm46.169-10.689a21.127 21.127 0 00-.179 2.385c-6.962.166-13.924.319-20.888.39-3.616.037-7.232.059-10.849.1-1.807.02-3.617.002-5.423.059-.82.027-1.694 0-2.536.098.019-.193.04-.385.053-.578a18.06 18.06 0 00-.117-3.49c6.543.258 13.158-.185 19.695-.275 6.83-.094 13.66-.13 20.49-.116a20.8 20.8 0 00-.246 1.427zm31.849 10.689c-2.456 3.989-5.688 6.117-10.408 6.465-4.339.322-8.831-.664-12.514-3.016-3.731-2.381-5.761-6.233-5.994-10.626-.347-6.566 3.132-12.42 8.378-15.722a16.725 16.725 0 016.237-1.758c8.099-.629 15.421 4.762 16.95 12.789.795 4.168-.466 8.321-2.649 11.868zm5.427-15.184c-2.282-6.749-8.415-11.916-15.754-12.786-5.336-.633-10.665.956-14.666 4.562a20.516 20.516 0 00-1.61 1.626c-1.848 1.921-3.25 4.238-4.166 6.74-7.109.025-14.218.105-21.324.246-6.684.131-13.5.009-20.16.732-1.955-7.291-8.35-12.989-16.091-13.907-5.336-.634-10.665.956-14.666 4.563a20.3 20.3 0 00-1.61 1.626 19.013 19.013 0 00-3.608 5.372 2.002 2.002 0 00-.267.038c-.615.142-1.234.213-1.854.243-.059-.573.09-1.166.131-1.745.069-.96.058-1.925-.023-2.884-.115-1.385-.245-3.005-.886-4.26-.81-1.582-3.026-2.128-4.877-1.891-.033-.927-.067-1.854-.097-2.781-.078-2.454-.152-4.91-.219-7.366-.038-1.371.161-3.357-.228-4.92 1.65-.042 3.306-.214 4.826-.24 7.963-.139 15.928-.093 23.892-.049 16.13.089 32.32.302 48.424-.849 3.419-.244 7.241-.888 8.917-4.294.452-.92.617-2.037.47-3.087.407-3.382.521-6.8.69-10.202.224-4.508.452-9.014.647-13.522.194-4.507.405-9.013.635-13.518.036-.708-.106-1.94.262-2.567.423-.722 1.725-.68 2.515-.781 2.414-.312 4.851-.369 7.281-.433 4.377-.118 8.754-.23 13.131-.346l3.03-.08c.974-.026 2.191-.26 3.159-.077 1.413.266 2.463 3.247 3.093 4.44 3.846 7.3 6.441 15.166 9.468 22.82 1.541 3.902 2.999 8.043 5.979 11.11 2.606 2.678 6.165 4.119 8.693 6.81 1.533 1.633 2.842 4.05 3.049 6.305-.901.281-2.218-.095-3.221.016-1.075.12-2.116.442-3.004 1.074-1.976 1.406-2.165 3.806-2.475 6.024-.821 5.853-.956 11.699-.66 17.59-5.581.011-11.28-.052-16.826.648zm31.735 5.316c-.043.547-.035 1.554-.363 2.027-.379.547-.636.438-1.372.489-1.446.099-2.901.137-4.35.186-2.902.097-5.806.14-8.708.128-5.364-.02-10.721-.543-16.072-.657.016-.18.037-.36.048-.54a17.886 17.886 0 00-.299-4.624c5.231.32 10.535.083 15.763.132 2.975.027 5.95.081 8.925.16 1.602.042 3.203.086 4.805.148.609.024 1.226-.12 1.611.462.259.395.049 1.624.012 2.089z"/><path d="M131.468 63.266c-1.198-2.627-2.389-5.29-3.806-7.808-1.19-2.115-2.387-4.083-5.058-4.006-2.593.073-5.204.342-7.798.574a68.585 68.585 0 00-6.432.477c-1.99.238-4.489.397-5.964 1.929-1.344 1.396-1.446 3.495-1.674 5.313-.684 5.452-.896 10.938-1.145 16.423-.13 2.841-.274 5.682-.386 8.524-.068 1.672.112 3.518 1.918 4.19 1.007.374 2.19.229 3.237.205 1.469-.035 2.939-.081 4.408-.135 2.825-.102 5.649-.233 8.472-.378 5.7-.295 11.491-.39 17.16-1.07 1.732-.207 3.668-.306 3.663-2.479-.007-2.45-.653-5.03-1.253-7.389-1.264-4.962-3.223-9.719-5.342-14.37zm.618 21.955c-1.446.126-2.896.213-4.345.31-2.822.19-5.645.368-8.468.531-2.823.164-5.646.314-8.471.44-1.356.06-2.712.115-4.068.163-1.203.042-3.123.479-4.267.12-1.503-.47-.954-2.644-.912-3.798l.162-4.431c.107-2.904.202-5.807.326-8.71.095-2.216.186-4.443.405-6.651.199-2.001.114-4.243.955-6.108 1.213-2.696 5.924-1.962 8.356-2.113 2.205-.137 4.407-.308 6.611-.471 1.102-.081 2.204-.166 3.306-.245 1.37-.098 2.065.097 2.829 1.27 1.173 1.803 2.067 3.789 2.988 5.728 1.83 3.852 3.619 7.73 5.052 11.749a61.854 61.854 0 011.808 5.952 49.05 49.05 0 01.647 3.036c.126.7.514 1.99.497 2.876-.997.35-2.488.272-3.411.352zm-20.599 7.325c-.979-.482-1.972-.449-3.046-.47-1.151-.023-2.313-.071-3.461-.003-1.663.099-1.59 2.337 0 2.532 1.062.13 2.145.156 3.213.205 1.005.047 2.074.205 3.021-.186.808-.333 1.248-1.6.273-2.078z"/></g><defs><clipPath id="clip0"><path fill="#fff" d="M0 0h166v166H0z"/></clipPath></defs></svg>