<svg width="152" height="152" fill="none" xmlns="http://www.w3.org/2000/svg"><path d="M38 97.502h4.75v4.453H38v-4.453zm-19 28.5h4.75v4.453H19v-4.453zm38 0h4.75v4.453H57v-4.453zm47.5 0h4.75v4.453h-4.75v-4.453zM76 73.455a30.536 30.536 0 0014.457-3.62l28.293 28.292 12.649-12.648-28.293-28.293a30.534 30.534 0 003.62-14.457c0-16.943-13.784-30.727-30.726-30.727-16.943 0-30.727 13.784-30.727 30.727 0 16.942 13.784 30.726 30.727 30.726zm49.101 12.023l-6.351 6.352-24.44-24.441a31.004 31.004 0 006.351-6.351l24.44 24.44zM76 16.456c14.487 0 26.273 11.786 26.273 26.273 0 14.488-11.786 26.274-26.273 26.274S49.727 57.216 49.727 42.729c0-14.488 11.786-26.274 26.273-26.274z" fill="#000"/><path d="M76 63.955c11.704 0 21.227-9.522 21.227-21.227 0-7.554-4.067-14.599-10.612-18.385l-2.23 3.855a16.838 16.838 0 018.388 14.53c0 9.25-7.524 16.774-16.773 16.774-9.25 0-16.774-7.525-16.774-16.774S66.751 25.955 76 25.955c1.421 0 2.832.178 4.195.528l1.11-4.312a21.3 21.3 0 00-5.306-.669c-11.704 0-21.226 9.522-21.226 21.226 0 11.705 9.523 21.227 21.227 21.227zm63.977 71.59v-28.543H97.523v28.543h-5.046v-28.543h-57V82.955h9.796v14.25h13.954v-14.25h9.796v19.149h4.454V78.502H31.023v28.5h-19v23.602h4.454v-19.149h9.796v14.25h13.954v-14.25h9.796v24.09H0v4.453h152v-4.453h-12.023zM54.773 92.752h-5.046v-9.797h5.046v9.797zm61.454 18.703h5.046v9.797h-5.046v-9.797zm-14.25 0h9.796v14.25h13.954v-14.25h9.796v24.09h-33.546v-24.09zm-33.25 0h5.046v9.797h-5.046v-9.797zm-32.954 9.797h-5.046v-9.797h5.046v9.797zm18.704-9.797h9.796v14.25h13.954v-14.25h9.796v24.09H54.477v-24.09z" fill="#000"/><path d="M64.125 40.502h4.75v4.453h-4.75v-4.453zm9.5 0h4.75v4.453h-4.75v-4.453zm9.5 0h4.75v4.453h-4.75v-4.453z" fill="#000"/></svg>