<svg width="166" height="166" fill="none" xmlns="http://www.w3.org/2000/svg"><path d="M157.351 87.928h-.699V58.16a15.614 15.614 0 00-12.712-15.377V14.23a5.884 5.884 0 00-5.878-5.877h-17.207a2.363 2.363 0 100 4.725h17.207c.636 0 1.152.517 1.152 1.152v45.586h-3.78V26.803c0-.875-.483-1.678-1.256-2.088a15.826 15.826 0 01-6.601-6.601 2.364 2.364 0 00-2.088-1.257H29.49c-.875 0-1.678.484-2.087 1.257a15.828 15.828 0 01-6.602 6.601 2.362 2.362 0 00-1.256 2.088v33.012h-3.78V14.229c0-.635.516-1.152 1.151-1.152h86.875a2.363 2.363 0 100-4.725H16.917a5.884 5.884 0 00-5.878 5.878v28.277h-.022C4.942 42.507 0 47.449 0 53.524v93.107c0 6.075 4.942 11.017 11.017 11.017h134.618c6.075 0 11.017-4.942 11.017-11.017v-17.783h.699c4.769 0 8.649-3.879 8.649-8.648V96.577c0-4.77-3.88-8.65-8.649-8.65zM143.94 47.63a10.901 10.901 0 017.986 10.53v6.42a16.168 16.168 0 00-7.986-4.387V47.631zM24.27 28.168a20.503 20.503 0 006.585-6.585h93.269a20.5 20.5 0 006.585 6.585v31.647h-34.03a22.575 22.575 0 003.589-12.271c0-12.56-10.218-22.779-22.779-22.779-12.56 0-22.778 10.219-22.778 22.779 0 4.425 1.255 8.643 3.588 12.271H24.27V28.168zm54.2 16.82v-6.465c2.461.183 3.306 1.359 4.335 1.359 1.359 0 1.947-1.69 1.947-2.535 0-2.131-3.895-2.83-6.283-2.902v-.956c0-.477-.624-.918-1.249-.918-.698 0-1.249.44-1.249.918v1.029c-3.674.478-7.127 2.498-7.127 7.164 0 4.703 3.784 6.135 7.127 7.384v7.312c-3.233-.368-4.335-2.756-5.73-2.756-1.14 0-2.058 1.543-2.058 2.572 0 1.292 1.319 2.714 3.401 3.621h-7.33a17.892 17.892 0 01-4.817-12.27c0-9.955 8.098-18.054 18.053-18.054 9.954 0 18.053 8.099 18.053 18.053 0 4.6-1.704 8.923-4.817 12.271h-9.52c2.58-1.214 4.207-3.539 4.207-6.964 0-4.997-3.673-6.65-6.944-7.862zm2.461 8.34c0 1.727-1.139 2.682-2.755 3.013v-6.393c1.58.698 2.755 1.58 2.755 3.38zm-4.666-14.695v5.547c-1.69-.66-2.939-1.359-2.939-2.975 0-1.397 1.103-2.279 2.94-2.572zm-65.248 8.599h.022v12.583h-.022a6.299 6.299 0 01-6.292-6.292 6.298 6.298 0 016.292-6.291zm-6.292 15.33c.016.011.033.02.049.032.196.135.397.265.602.388.038.023.078.044.116.066.183.107.37.209.56.305.041.02.08.042.122.062.216.106.435.205.658.297.048.02.096.038.143.056.202.08.406.155.613.223.036.012.07.025.107.036a10.956 10.956 0 001.55.368c.024.004.047.01.071.013a11.087 11.087 0 00.929.102c.256.018.513.03.773.03h129.451a11.247 11.247 0 01.92.041h.002c5.353.426 9.655 4.583 10.416 9.773l.002.02c.025.17.046.34.063.51.006.063.009.126.014.19.01.119.02.238.026.358.003.055.002.11.004.164H4.726V62.562zm147.202 76.774H32.281a2.362 2.362 0 100 4.725h119.645v2.569a6.299 6.299 0 01-6.291 6.292H11.017a6.3 6.3 0 01-6.292-6.292v-2.569h10.703a2.363 2.363 0 000-4.725H4.725V80.322h147.202v7.606h-27.476c-10.224 0-18.721 7.538-20.224 17.348a20.474 20.474 0 00-.236 3.112c0 11.282 9.178 20.46 20.46 20.46h27.476v10.488zm9.348-19.137h-.001a3.928 3.928 0 01-3.923 3.923h-32.9c-8.677 0-15.735-7.058-15.735-15.734s7.059-15.735 15.735-15.735h32.9a3.928 3.928 0 013.924 3.924v23.622z" fill="#000"/><path d="M134.231 100.84c-4.161-4.16-10.932-4.16-15.094 0-4.161 4.162-4.161 10.934 0 15.095a10.64 10.64 0 007.547 3.121c2.734 0 5.467-1.04 7.547-3.121 4.162-4.161 4.162-10.933 0-15.095zm-3.341 11.754a5.954 5.954 0 01-8.412 0 5.955 5.955 0 010-8.412 5.929 5.929 0 014.206-1.739c1.524 0 3.047.579 4.206 1.739a5.953 5.953 0 010 8.412z" fill="#000"/></svg>