<svg width="75" height="75" fill="none" xmlns="http://www.w3.org/2000/svg"><path d="M74.579 39.167l-3.657-7.082V19.844c0-.798-.647-1.446-1.445-1.446H50.312l-.1-2.5c0-.798-.648-1.445-1.446-1.445h-7.704V1.445C41.062.647 40.415 0 39.617 0H19.76c-.798 0-1.445.647-1.445 1.445v28.039H1.678a1.446 1.446 0 00-1.127 2.312l7.14 8.99.636 5.622c.038.357.208.687.477.925l6.85 6.027a1.445 1.445 0 002.168-.303l2.89-4.336 5.55.217L38.23 62.58v6.171a1.445 1.445 0 00.838 1.316l10.406 4.798a1.445 1.445 0 002.052-1.315V61.555l3.946-5.117 4.336-.23a1.45 1.45 0 00.997-.478L74.362 40.8a1.446 1.446 0 00.217-1.633zm-36.407 19.02L27.968 46.625a1.445 1.445 0 00-1.026-.491l-6.98-.275c-.492 0-.95.251-1.215.665l-2.37 3.656-5.174-4.552-.622-5.478a1.447 1.447 0 00-.303-.737L4.67 32.375h15.09c.798 0 1.445-.648 1.445-1.446V3.08h16.968v55.108zm2.89-40.728h6.316l.102 2.457c0 .798.647 1.445 1.445 1.445H68.03v9.713H41.062V17.459zM59.085 53.36l-4.48.246a1.445 1.445 0 00-1.07.563l-4.653 6.027a1.445 1.445 0 00-.304.882v10.204l-7.516-3.47v-33.92h27.46l2.964 5.781-12.4 13.687z" fill="#fff"/><path d="M35.797 30.721a1.444 1.444 0 00-.834-.428l-2.731-.39-1.214-2.471a1.445 1.445 0 00-2.587 0l-1.214 2.471-2.732.332a1.445 1.445 0 00-.795 2.472l1.966 1.98-.463 2.717a1.445 1.445 0 002.096 1.518l2.442-1.344 2.443 1.286a1.445 1.445 0 002.096-1.518l-.477-2.66 1.965-1.921a1.445 1.445 0 00.039-2.044zm-4.577 2.42a1.445 1.445 0 00-.42 1.286l.102.578-.506-.318a1.445 1.445 0 00-1.344 0l-.52.275.1-.579a1.445 1.445 0 00-.418-1.286l-.42-.405.579-.043c.47-.07.875-.368 1.084-.795l.26-.52.26.52c.209.427.614.724 1.084.795l.578.087-.42.405z" fill="#fff"/></svg>