<svg width="75" height="75" fill="none" xmlns="http://www.w3.org/2000/svg"><path d="M66.797 23.438h-1.172v-1.172a3.521 3.521 0 00-2.344-3.314v-3.718a1.172 1.172 0 00-1.172-1.171V9.375h4.688a3.516 3.516 0 000-7.031H55.078a3.52 3.52 0 00-3.516 3.515v2.344a1.172 1.172 0 001.172 1.172h2.344v4.688a1.172 1.172 0 00-1.172 1.171v3.718a3.522 3.522 0 00-2.343 3.314v1.172H50.39a5.866 5.866 0 00-5.86 5.859v3.515H37.5V18.75h5.86a1.172 1.172 0 001.171-1.172V3.516a1.172 1.172 0 00-1.172-1.172h-9.375a3.52 3.52 0 00-3.515 3.515v26.953h-5.684l.995-23.387a1.173 1.173 0 00-1.17-1.222H3.515a1.172 1.172 0 00-1.171 1.222l2.342 55.053v7.006a1.172 1.172 0 001.172 1.172h60.938a5.865 5.865 0 005.86-5.86v-37.5a5.866 5.866 0 00-5.86-5.858zm-5.86-7.032v2.344H56.25v-2.344h4.688zM53.907 5.86a1.173 1.173 0 011.171-1.171h11.719a1.172 1.172 0 010 2.343h-12.89V5.86zm3.515 3.516h2.344v4.688h-2.344V9.375zm-3.516 12.89a1.173 1.173 0 011.172-1.171h7.031a1.173 1.173 0 011.172 1.172v1.172h-9.375v-1.172zm1.172 37.5a3.52 3.52 0 01-3.516 3.516h-18.75a3.519 3.519 0 01-3.515-3.515v-7.032a3.52 3.52 0 013.515-3.515h18.75a3.52 3.52 0 013.516 3.515v7.032zm-10.547-12.89H32.813a5.866 5.866 0 00-5.86 5.86v7.03a5.828 5.828 0 001.175 3.516H24.61a1.172 1.172 0 00-1.172 1.172v2.344a5.828 5.828 0 001.176 3.516h-3.52V69.14a1.172 1.172 0 00-2.343 0v1.171h-4.688V35.157h4.688v1.172a1.172 1.172 0 002.344 0v-1.172H44.53v11.719zM42.188 7.031a1.172 1.172 0 100 2.344v2.344a1.171 1.171 0 100 2.344v2.343h-2.546c.134-.376.202-.772.202-1.172V5.86a3.5 3.5 0 00-.202-1.171h2.545V7.03zM32.812 5.86a1.173 1.173 0 011.172-1.171h2.344a1.173 1.173 0 011.172 1.17v9.375a1.173 1.173 0 01-1.172 1.172h-3.516V5.86zm0 12.891h2.344v14.063h-2.343V18.75zm-19.92 14.062a1.172 1.172 0 00-1.172 1.171v29.297H6.982L4.938 15.234h18.25l-.749 17.578h-9.548zm10.496-22.266l-.1 2.344H4.838l-.1-2.344h18.649zM7.03 65.625h4.688v4.688H7.03v-4.688zm22.266 4.688a3.52 3.52 0 01-3.516-3.516v-1.172h32.813v1.172a3.519 3.519 0 01-3.516 3.516h-25.78zm41.016-3.516a3.52 3.52 0 01-3.516 3.516h-7.035a5.829 5.829 0 001.175-3.516v-2.344a1.172 1.172 0 00-1.171-1.172h-3.52a5.828 5.828 0 001.176-3.515v-7.032a5.867 5.867 0 00-5.86-5.859h-4.687V29.297a3.52 3.52 0 013.516-3.516h16.406a3.52 3.52 0 013.516 3.516v37.5z" fill="#fff"/><path d="M58.594 29.297c-4.6 0-8.203 2.574-8.203 5.86 0 3.285 3.603 5.859 8.203 5.859s8.203-2.574 8.203-5.86c0-3.285-3.604-5.86-8.203-5.86zm0 9.375c-3.176 0-5.86-1.61-5.86-3.516 0-1.905 2.684-3.515 5.86-3.515s5.86 1.61 5.86 3.515c0 1.906-2.684 3.516-5.86 3.516zm-38.672 1.172a1.172 1.172 0 00-1.172 1.172v2.343a1.172 1.172 0 002.344 0v-2.343a1.172 1.172 0 00-1.172-1.172zm0 7.031a1.172 1.172 0 00-1.172 1.172v2.344a1.172 1.172 0 002.344 0v-2.344a1.172 1.172 0 00-1.172-1.172zm0 7.031a1.172 1.172 0 00-1.172 1.172v2.344a1.172 1.172 0 002.344 0v-2.344a1.172 1.172 0 00-1.172-1.172zm0 7.032a1.172 1.172 0 00-1.172 1.171v2.344a1.172 1.172 0 002.344 0V62.11a1.172 1.172 0 00-1.172-1.172z" fill="#fff"/></svg>