<svg width="75" height="75" fill="none" xmlns="http://www.w3.org/2000/svg"><path d="M67.676 25.195c.385 0 .763-.156 1.035-.429.273-.272.43-.65.43-1.035 0-.386-.157-.764-.43-1.036a1.475 1.475 0 00-1.035-.43c-.385 0-.763.157-1.036.43-.272.273-.43.65-.43 1.035 0 .386.158.764.43 1.036.273.273.65.43 1.036.43zM28.784 64.99h-.022a1.465 1.465 0 000 2.93h.022a1.465 1.465 0 000-2.93z" fill="#fff"/><path d="M75 58.827V10.254a4.4 4.4 0 00-4.394-4.395h-5.018V4.98A4.986 4.986 0 0060.608 0a4.986 4.986 0 00-4.981 4.98v.88H42.462v-.88A4.986 4.986 0 0037.482 0 4.986 4.986 0 0032.5 4.98v.88H19.336v-.88A4.986 4.986 0 0014.356 0a4.986 4.986 0 00-4.981 4.98v.88h-4.98A4.4 4.4 0 000 10.253v60.352A4.4 4.4 0 004.395 75h54.432c.404 0 .77-.164 1.035-.429l14.709-14.708A1.46 1.46 0 0075 58.827zM58.556 4.98c0-1.13.92-2.05 2.051-2.05 1.131 0 2.051.92 2.051 2.05v7.178c0 1.131-.92 2.051-2.05 2.051a2.053 2.053 0 01-2.051-2.05V4.98zm-23.125 0c0-1.13.92-2.05 2.05-2.05 1.131 0 2.051.92 2.051 2.05v7.178c0 1.131-.92 2.051-2.05 2.051a2.052 2.052 0 01-2.051-2.05V4.98zm-23.126 0c0-1.13.92-2.05 2.05-2.05 1.131 0 2.051.92 2.051 2.05v7.178c0 1.131-.92 2.051-2.05 2.051a2.053 2.053 0 01-2.051-2.05V4.98zM2.93 70.606V67.92h19.995a1.465 1.465 0 000-2.93H2.93V25.195h58.886a1.465 1.465 0 000-2.93H2.93v-12.01c0-.808.657-1.465 1.465-1.465h4.98v3.37a4.986 4.986 0 004.98 4.98 4.986 4.986 0 004.98-4.98V8.79h13.166v3.37a4.986 4.986 0 004.98 4.98 4.986 4.986 0 004.98-4.98V8.79h13.166v3.37a4.986 4.986 0 004.98 4.98 4.986 4.986 0 004.98-4.98V8.79h5.019c.807 0 1.464.657 1.464 1.465v47.108H61.757a4.4 4.4 0 00-4.395 4.394V72.07H4.395a1.466 1.466 0 01-1.465-1.464zm57.362-.607v-8.243c0-.807.657-1.464 1.465-1.464h8.242l-9.707 9.707z" fill="#fff"/><path d="M51.209 39.797c0 .986-.316 1.823-.948 2.513-.631.69-1.518 1.165-2.66 1.424v.064c1.348.159 2.367.547 3.06 1.165.692.611 1.038 1.438 1.038 2.48 0 1.518-.582 2.7-1.746 3.549-1.164.84-2.827 1.261-4.988 1.261-1.811 0-3.417-.284-4.817-.852v-2.836c.647.31 1.358.56 2.135.755a9.473 9.473 0 002.305.291c1.165 0 2.024-.187 2.58-.56.556-.375.833-.975.833-1.802 0-.74-.32-1.265-.959-1.574-.639-.31-1.659-.464-3.059-.464h-1.267v-2.556h1.29c1.294 0 2.237-.158 2.831-.474.601-.324.902-.874.902-1.65 0-1.194-.792-1.79-2.374-1.79-.548 0-1.108.086-1.678.258-.563.173-1.191.472-1.884.896l-1.632-2.297c1.522-1.036 3.337-1.553 5.445-1.553 1.727 0 3.09.33 4.086.992 1.005.661 1.507 1.582 1.507 2.76zM35.683 48.77h-2.009v3.268h-3.447V48.77h-7.122v-2.32l7.316-10.18h3.253v9.91h2.01v2.589zm-5.456-2.588v-2.675c0-.445.02-1.092.057-1.94.038-.85.069-1.342.091-1.478h-.09c-.282.59-.621 1.165-1.017 1.725l-3.059 4.368h4.018z" fill="#fff"/></svg>