<svg width="75" height="75" fill="none" xmlns="http://www.w3.org/2000/svg"><g clip-path="url(#clip0)" fill="#fff"><path d="M.916 9.337a1.465 1.465 0 00-.914 1.337C-.14 20.934 5.408 31.41 14.254 37.799c-2.929 3.806-4.584 8.574-4.584 13.324 0 13.698 13.338 23.876 27.831 23.876 4.802 0 9.549-1.09 13.727-3.15a1.465 1.465 0 00-1.297-2.628c-3.776 1.863-8.075 2.848-12.43 2.848-13.498 0-24.902-9.592-24.902-20.946 0-4.372 1.624-8.767 4.474-12.158H57.93c2.85 3.39 4.474 7.785 4.474 12.158 0 3.499-1.088 6.985-3.145 10.082a1.464 1.464 0 102.44 1.62c2.377-3.578 3.634-7.625 3.634-11.702 0-4.75-1.656-9.52-4.585-13.326 8.845-6.389 14.393-16.864 14.25-27.123a1.465 1.465 0 00-2.5-1.016l-5.638 5.638c-1.707 1.707-4.348 3.24-7.245 4.206a46.51 46.51 0 00-2.016.716c.798-6.459.426-13.01-1.098-19.108A1.464 1.464 0 0055.123.002a1.458 1.458 0 00-1.441 1.024l-2.434 7.738a16.655 16.655 0 01-6.313 8.39C42.362 8.191 38.973 1.144 38.82.827a1.465 1.465 0 00-1.317-.826H37.5c-.56 0-1.072.32-1.317.824-.152.312-3.507 7.256-6.077 16.357a16.653 16.653 0 01-6.352-8.418L21.32 1.027a1.465 1.465 0 00-2.818.084c-1.531 6.12-1.9 12.843-1.079 19.206-.67-.311-1.35-.585-2.038-.814-2.898-.967-5.539-2.5-7.245-4.206L2.503 9.659a1.465 1.465 0 00-1.587-.322zM60.54 22.282c1.948-.65 5.628-2.152 8.39-4.914l2.917-2.917c-1.102 8.405-6.206 16.558-13.7 21.584h-5.102c1.838-3.845 3.186-8.006 4.015-12.387 1.008-.514 2.304-.974 3.48-1.366zM54.03 9.68a.889.889 0 00.009-.024l.672-2.136a50.85 50.85 0 01-.372 14.714c-.09.253-.851 6.382-4.28 13.24l-.28.561H38.965v-2.063c0-5.036 2.325-10.111 6.073-13.249 1.593-1.344 6.628-3.952 8.992-11.043zM37.502 5.054c1.312 3.077 3.352 8.255 4.939 14.057-4.025 3.735-6.404 9.218-6.404 14.86v2.064h-5.863c.002-.242.004-.486.004-.732 0-9.768 3.519-21.293 7.324-30.249zM20.294 7.527l.677 2.153c1.992 5.975 5.75 8.611 8.339 10.52-.859 3.477-1.455 6.776-1.777 9.86-1.57-3.059-3.958-5.801-6.852-7.847-.856-4.759-.981-9.813-.387-14.686zM6.069 17.368c2.762 2.762 6.442 4.264 8.39 4.914 10.114 3.374 11.905 13.22 12.221 13.753h-9.828C9.358 31.01 4.254 22.858 3.152 14.451l2.917 2.917z"/><path d="M56.105 68.408a1.465 1.465 0 100-2.93 1.465 1.465 0 000 2.93z"/></g><defs><clipPath id="clip0"><path fill="#fff" d="M0 0h75v75H0z"/></clipPath></defs></svg>