<svg width="30" height="30" viewBox="0 0 30 30" fill="none" xmlns="http://www.w3.org/2000/svg">
<circle cx="15" cy="15" r="14.5" fill="#191A1F" stroke="#A4A4A6"/>
<path d="M19.3619 21.4274H10.6927C9.77729 21.4274 9.02344 20.6274 9.02344 19.656V14.5702C9.02344 13.5988 9.77729 12.7988 10.6927 12.7988H19.3619C20.2773 12.7988 21.0311 13.5988 21.0311 14.5702V19.656C21.0311 20.6274 20.2773 21.4274 19.3619 21.4274Z" stroke="#A4A4A6" stroke-miterlimit="10" stroke-linecap="round"/>
<path d="M16.9382 12.7434H13.0075C12.6844 12.7434 12.3613 12.4577 12.3613 12.0577V10.2863C12.3613 8.8577 13.4382 7.71484 14.7844 7.71484H15.1075C16.4536 7.71484 17.5306 8.8577 17.5306 10.2863V12.0577C17.5844 12.4577 17.3152 12.7434 16.9382 12.7434Z" stroke="#A4A4A6" stroke-miterlimit="10" stroke-linecap="round"/>
<path d="M15.0002 19.1416C14.5156 19.1416 14.1387 18.7416 14.1387 18.2273V15.9416C14.1387 15.4273 14.5156 15.0273 15.0002 15.0273C15.4848 15.0273 15.8617 15.4273 15.8617 15.9416V18.2273C15.8617 18.7416 15.4848 19.1416 15.0002 19.1416Z" fill="#A4A4A6"/>
</svg>
