<svg width="30" height="30" viewBox="0 0 30 30" fill="none" xmlns="http://www.w3.org/2000/svg">
<circle cx="15" cy="15" r="14.5" fill="#191A1F" stroke="white"/>
<path d="M13.8159 19.5631C13.8159 19.3415 13.8596 19.1221 13.9444 18.9173C14.0292 18.7126 14.1535 18.5266 14.3102 18.3699C14.4669 18.2132 14.6529 18.0889 14.8576 18.0041C15.0624 17.9193 15.2818 17.8756 15.5034 17.8756C15.725 17.8756 15.9445 17.9193 16.1492 18.0041C16.3539 18.0889 16.54 18.2132 16.6967 18.3699C16.8534 18.5266 16.9777 18.7126 17.0625 18.9173C17.1473 19.1221 17.1909 19.3415 17.1909 19.5631C17.1909 20.0107 17.0131 20.4399 16.6967 20.7564C16.3802 21.0728 15.951 21.2506 15.5034 21.2506C15.0559 21.2506 14.6266 21.0728 14.3102 20.7564C13.9937 20.4399 13.8159 20.0107 13.8159 19.5631ZM13.9813 9.42969C13.9588 9.21679 13.9814 9.00156 14.0474 8.79793C14.1135 8.59431 14.2217 8.40686 14.3649 8.24774C14.5081 8.08862 14.6832 7.96138 14.8787 7.87429C15.0743 7.78719 15.286 7.74219 15.5 7.74219C15.7141 7.74219 15.9258 7.78719 16.1214 7.87429C16.3169 7.96138 16.492 8.08862 16.6352 8.24774C16.7784 8.40686 16.8866 8.59431 16.9526 8.79793C17.0187 9.00156 17.0413 9.21679 17.0188 9.42969L16.4282 15.3477C16.4042 15.5772 16.296 15.7896 16.1246 15.944C15.9532 16.0984 15.7307 16.1839 15.5 16.1839C15.2694 16.1839 15.0468 16.0984 14.8754 15.944C14.704 15.7896 14.5959 15.5772 14.5719 15.3477L13.9813 9.42969Z" fill="white"/>
</svg>
