<svg width="209" height="59" viewBox="0 0 209 59" fill="none" xmlns="http://www.w3.org/2000/svg">
<path d="M29.1897 20.1652C27.8782 20.1638 26.5966 19.7736 25.5069 19.044C24.4171 18.3144 23.5682 17.278 23.0673 16.0659C22.5664 14.8539 22.436 13.5206 22.6928 12.2345C22.9495 10.9484 23.5817 9.76733 24.5096 8.84049C25.4374 7.91366 26.6192 7.28263 27.9056 7.0273C29.1919 6.77197 30.5251 6.90377 31.7366 7.40597C32.9481 7.90817 33.9836 8.75829 34.712 9.84882C35.4405 10.9394 35.8293 12.2214 35.8293 13.5329C35.8274 15.2925 35.127 16.9795 33.882 18.2231C32.6371 19.4667 30.9494 20.1652 29.1897 20.1652ZM29.1897 8.48646C28.1916 8.48646 27.2159 8.78241 26.386 9.33691C25.5562 9.89142 24.9093 10.6795 24.5274 11.6017C24.1454 12.5238 24.0455 13.5384 24.2402 14.5173C24.435 15.4962 24.9156 16.3954 25.6213 17.1012C26.3271 17.8069 27.2262 18.2876 28.2051 18.4823C29.184 18.677 30.1987 18.577 31.1208 18.195C32.0429 17.8131 32.8311 17.1663 33.3856 16.3364C33.9401 15.5066 34.2361 14.5309 34.2361 13.5329C34.2361 12.1945 33.7044 10.9108 32.758 9.96446C31.8116 9.01808 30.5281 8.48646 29.1897 8.48646Z" fill="#FFF4B8"/>
<path d="M29.3268 58.6535C21.5959 58.6463 14.1799 55.5897 8.68907 50.1475C3.19826 44.7053 0.0759386 37.3168 0 29.5862V29.3267C0 21.5488 3.08975 14.0895 8.58959 8.58963C14.0894 3.08979 21.5488 0 29.3268 0C37.1047 0 44.5641 3.08979 50.0639 8.58963C55.5638 14.0895 58.6535 21.5488 58.6535 29.3267V29.5862C58.5757 37.3162 55.4528 44.7036 49.9624 50.1454C44.472 55.5872 37.0571 58.6444 29.3268 58.6535ZM1.58602 29.4565C1.5589 34.9489 3.16277 40.3256 6.19443 44.9056C9.22609 49.4855 13.5491 53.0624 18.6156 55.1831C23.6821 57.3037 29.2641 57.8727 34.6542 56.8178C40.0444 55.763 45.0002 53.1317 48.8935 49.2576C52.7868 45.3835 55.4425 40.4409 56.5241 35.056C57.6056 29.6711 57.0643 24.0864 54.9687 19.0094C52.8732 13.9325 49.3177 9.59189 44.7528 6.53759C40.188 3.4833 34.8192 1.85278 29.3268 1.85271C21.9954 1.86019 14.9645 4.76655 9.76767 9.93773C4.57083 15.1089 1.62979 22.1253 1.58602 29.4565Z" fill="#FFF4B8"/>
<path d="M12.724 52.2377H12.1906V47.7537C12.2875 42.7711 14.3349 38.0254 17.8929 34.536C21.4509 31.0466 26.2356 29.0919 31.2191 29.0919C36.2026 29.0919 40.9872 31.0466 44.5452 34.536C48.1032 38.0254 50.1506 42.7711 50.2476 47.7537V49.3541H49.7141V47.7104C49.6185 42.8684 47.6279 38.257 44.1698 34.8665C40.7118 31.4761 36.062 29.5769 31.2191 29.5769C26.3762 29.5769 21.7264 31.4761 18.2683 34.8665C14.8102 38.257 12.8196 42.8684 12.724 47.7104V52.2377Z" fill="#FFF4B8"/>
<path d="M17.9583 54.6536H17.4249V22.0323C17.4161 19.4493 16.8678 16.8966 15.8151 14.5378C14.7623 12.1791 13.2284 10.0663 11.3115 8.33493L11.672 7.93848C13.6449 9.72239 15.2232 11.8989 16.3057 14.3284C17.3883 16.7579 17.9512 19.3869 17.9583 22.0467V54.6536Z" fill="#FFF4B8"/>
<path d="M52.2296 47.4946C48.2435 46.4047 44.7007 44.0895 42.1022 40.8764C39.5037 37.6632 37.9808 33.7146 37.7488 29.5887C37.5169 25.4628 38.5877 21.3684 40.8098 17.8842C43.0319 14.4001 46.2928 11.7025 50.1317 10.1729L50.7301 11.6147C47.2001 13.0197 44.2013 15.4989 42.1575 18.7016C40.1138 21.9043 39.1287 25.6685 39.3416 29.4618C39.5544 33.2551 40.9543 36.8854 43.3435 39.8394C45.7326 42.7935 48.99 44.9216 52.6549 45.9229L52.2296 47.4946Z" fill="#FFF4B8"/>
<path d="M86.4948 3.31641H86.848L77.6564 24.4969H77.0364L67.8447 3.31641H70.5626L78.4926 21.6492L86.4948 3.31641Z" fill="#FFF4B8" stroke="white" stroke-width="0.431405"/>
<path d="M166.416 3.31641H166.769L157.577 24.4969H156.957L147.766 3.31641H150.483L158.414 21.6492L166.416 3.31641Z" fill="#FFF4B8" stroke="white" stroke-width="0.431405"/>
<path d="M92.1115 24.4678H89.6172V3.33789H92.1115V24.4678Z" fill="#FFF4B8" stroke="white" stroke-width="0.431405"/>
<path d="M172.031 24.4678H169.537V3.33789H172.031V24.4678Z" fill="#FFF4B8" stroke="white" stroke-width="0.431405"/>
<path d="M110.639 3.33789V3.66227H103.985V24.475H101.505V3.66227H94.8008V3.33789H110.639Z" fill="#FFF4B8" stroke="white" stroke-width="0.431405"/>
<path d="M127.869 24.5477H124.74L117.48 15.01L115.902 15.4714V24.4972H113.407V3.35278H120.58C120.89 3.35278 121.244 3.35278 121.64 3.35278C122.07 3.38575 122.494 3.47303 122.902 3.61239C123.821 3.93436 124.63 4.50902 125.238 5.27044C125.984 6.17476 126.387 7.31337 126.377 8.48577C126.374 9.50843 126.079 10.509 125.526 11.3694C124.93 12.3147 124.03 13.0291 122.974 13.3952C122.318 13.6258 121.64 13.8349 120.963 14.0079C120.645 14.0872 120.343 14.1737 120.04 14.2674L127.869 24.5477ZM115.902 15.1758L116.104 15.1109L117.769 14.6279C118.878 14.3368 119.969 13.9781 121.035 13.5537C121.697 13.1028 122.254 12.5122 122.664 11.8235C123.221 10.8701 123.513 9.78467 123.507 8.68035C123.505 7.72573 123.293 6.78328 122.887 5.91928C122.462 5.01319 121.787 4.24765 120.941 3.71324H115.895L115.902 15.1758Z" fill="#FFF4B8" stroke="white" stroke-width="0.431405"/>
<path d="M145.411 3.28027H145.735V16.6821C145.737 17.4555 145.628 18.2251 145.411 18.9674C145.061 20.1835 144.417 21.2951 143.537 22.2043C142.849 22.9316 142.02 23.5106 141.1 23.9056C139.796 24.4663 138.356 24.6326 136.958 24.3841C135.56 24.1355 134.266 23.483 133.235 22.5071L132.918 22.2043C131.624 20.8469 130.858 19.0731 130.755 17.2012C130.755 17.0281 130.755 16.8551 130.755 16.6821V14.5842C130.755 13.2289 130.755 11.7006 130.755 9.97038C130.755 8.24018 130.755 6.04859 130.755 3.38121H133.249V18.2898C133.268 18.7898 133.333 19.2869 133.444 19.7748C133.587 20.3842 133.808 20.9729 134.1 21.5266C134.431 22.1436 134.89 22.6821 135.448 23.1054C136.118 23.6104 136.899 23.9489 137.726 24.0931L138.245 24.1723C139.204 24.1787 140.153 23.9796 141.028 23.5884C141.89 23.2054 142.669 22.6568 143.32 21.9736C143.98 21.2823 144.504 20.4727 144.863 19.5873C145.239 18.6726 145.43 17.6926 145.426 16.7037L145.411 3.28027Z" fill="#FFF4B8" stroke="white" stroke-width="0.431405"/>
<path d="M182.739 3.33789L190.431 24.5111H187.778L185.766 18.9673H177.173C177.091 19.1787 176.933 19.6113 176.697 20.2649L175.933 22.3484C175.724 22.9395 175.537 23.4442 175.385 23.8551C175.234 24.266 175.155 24.4823 175.147 24.5111H174.809L176.02 21.1877C176.741 19.0899 177.663 16.6747 178.665 13.9209C179.668 11.167 180.547 8.74473 181.311 6.65408L182.515 3.33789H182.739ZM181.477 7.14425L181.354 7.4615L181.239 7.78587C181.044 8.31935 180.85 8.85289 180.662 9.37915C180.475 9.90542 180.266 10.4605 180.071 10.994C179.877 11.5275 179.653 12.133 179.451 12.7026L178.824 14.4183L177.916 16.9127L177.757 17.338L177.591 17.8066C177.519 18.0012 177.447 18.1887 177.382 18.3834L177.281 18.6429H185.666L184.606 15.7592L184.498 15.442L181.477 7.14425Z" fill="#FFF4B8" stroke="white" stroke-width="0.431405"/>
<path d="M207.999 3.25195V24.454H207.387L193.624 6.94303V24.4035H193.314V3.27351H193.92L207.689 20.799V3.25195H207.999Z" fill="#FFF4B8" stroke="white" stroke-width="0.431405"/>
<path d="M83.4022 33.3711V33.6883H76.8347V54.2344H74.3836V33.6883H67.7656V33.3711H83.4022Z" fill="#FFF4B8" stroke="white" stroke-width="0.431405"/>
<path d="M74.5859 54.0404H76.6406V33.5664H74.5859V54.0404Z" fill="#FFF4B8" stroke="white" stroke-width="0.431405"/>
<path d="M100.409 54.3066H97.3235L90.1504 44.8843L88.5932 45.3384V54.2489H86.1349V33.3856H93.2143C93.5243 33.3856 93.8703 33.3857 94.2596 33.4217C94.6851 33.4519 95.1046 33.5392 95.5068 33.6812C96.4135 33.9969 97.213 34.5615 97.8137 35.3105C98.5506 36.2023 98.9489 37.3257 98.9383 38.4825C98.9301 39.4831 98.6376 40.4606 98.0949 41.3012C97.5059 42.2336 96.6193 42.9399 95.5788 43.3054C94.9204 43.5313 94.2572 43.7331 93.5892 43.9109C93.2792 43.9902 92.9764 44.0696 92.6808 44.1633L100.409 54.3066ZM88.5716 45.0284L88.7735 44.9635C89.1483 44.8626 89.6962 44.704 90.4171 44.4877C91.5137 44.2066 92.5902 43.8526 93.6396 43.428C94.2968 42.9861 94.8462 42.4022 95.2473 41.7194C95.7995 40.78 96.0884 39.7091 96.0835 38.6195C96.0835 37.6769 95.8742 36.7462 95.4707 35.8944C95.0512 35.0051 94.3857 34.2546 93.5531 33.7316H88.5716V45.0284Z" fill="#FFF4B8" stroke="white" stroke-width="0.431405"/>
<path d="M109.982 33.3716L117.588 54.2781H114.971L112.981 48.7991H104.489C104.41 49.0082 104.258 49.4336 104.013 50.0896C103.768 50.7456 103.53 51.4233 103.292 52.1442C103.076 52.7281 102.896 53.2184 102.752 53.6293C102.607 54.0402 102.521 54.2492 102.514 54.2781H102.175C102.218 54.1579 102.617 53.0622 103.372 50.9907L105.981 43.8248L108.591 36.6157L109.78 33.3428L109.982 33.3716ZM108.757 37.0987C108.721 37.2068 108.677 37.3149 108.634 37.4231L108.526 37.7403L107.949 39.3119C107.755 39.8453 107.56 40.3717 107.373 40.9052C107.185 41.4386 106.962 42.0298 106.76 42.5921C106.558 43.1544 106.342 43.7167 106.14 44.2862L105.246 46.7445L105.087 47.1626L104.921 47.624L104.712 48.2008C104.712 48.2873 104.648 48.3666 104.619 48.4531H112.895L111.849 45.5694L111.741 45.2594L108.757 37.0987Z" fill="#FFF4B8" stroke="white" stroke-width="0.431405"/>
<path d="M133.196 36.4427C134.658 37.8983 135.654 39.7555 136.058 41.7783C136.463 43.8012 136.257 45.8986 135.467 47.8043C134.939 49.0736 134.168 50.2273 133.196 51.1998C131.686 52.7082 129.748 53.715 127.645 54.0835C127.35 54.1412 127.054 54.1771 126.751 54.206C126.448 54.2348 126.131 54.206 125.821 54.206H120.292V33.3428H125.8C126.282 33.3441 126.764 33.3778 127.241 33.4437L127.623 33.5014C129.74 33.883 131.687 34.9104 133.196 36.4427ZM127.645 53.7446H127.825C130.043 52.5884 131.772 50.6751 132.699 48.3522C133.177 47.1603 133.422 45.8877 133.42 44.6034V42.866C133.426 41.6355 133.209 40.4141 132.778 39.2614C131.941 37.0361 130.362 35.1673 128.308 33.97L127.659 33.8257C127.058 33.716 126.447 33.6605 125.836 33.6599H122.786V53.896H125.836C126.441 53.9065 127.047 53.8631 127.645 53.7662V53.7446Z" fill="#FFF4B8" stroke="white" stroke-width="0.431405"/>
<path d="M152.38 33.7029H141.826V42.6999H148.588V43.017H141.826V53.9317H152.38V54.2489H139.403V33.3856H152.38V33.7029Z" fill="#FFF4B8" stroke="white" stroke-width="0.431405"/>
</svg>
