<?xml version="1.0" standalone="no"?>
<!DOCTYPE svg PUBLIC "-//W3C//DTD SVG 20010904//EN"
 "http://www.w3.org/TR/2001/REC-SVG-20010904/DTD/svg10.dtd">
<svg version="1.0" xmlns="http://www.w3.org/2000/svg"
 width="500.000000pt" height="500.000000pt" viewBox="0 0 500.000000 500.000000"
 preserveAspectRatio="xMidYMid meet">

<g transform="translate(0.000000,500.000000) scale(0.100000,-0.100000)"
fill="#000000" stroke="none">
<path d="M2380 4548 c-63 -71 -125 -143 -138 -161 -39 -54 -183 -207 -195
-207 -7 0 -152 46 -324 103 l-312 102 -10 -55 c-5 -30 -28 -136 -50 -235 -22
-99 -48 -216 -57 -260 -9 -44 -24 -87 -33 -96 -10 -10 -121 -39 -306 -78 -159
-34 -302 -65 -317 -69 l-26 -7 54 -160 c30 -88 78 -231 106 -317 61 -184 70
-153 -83 -282 -135 -114 -367 -320 -367 -326 -1 -4 235 -215 349 -313 14 -12
53 -47 87 -78 l60 -57 -103 -318 -103 -319 41 -13 c23 -7 119 -28 212 -47 253
-52 387 -83 397 -93 5 -5 31 -112 58 -238 28 -126 59 -270 71 -320 l20 -92 77
24 c42 13 187 60 321 103 l245 80 30 -35 c306 -345 412 -463 416 -463 4 0 342
377 421 469 l25 30 215 -70 c118 -39 262 -86 321 -104 l106 -34 20 87 c12 47
26 115 33 151 21 113 87 412 93 417 6 7 75 22 351 78 121 24 239 50 262 57
l41 13 -103 318 -103 318 36 34 c20 19 132 119 249 222 116 103 212 190 212
193 0 4 -117 109 -463 416 l-35 30 103 320 104 319 -42 13 c-22 7 -129 31
-236 53 -331 68 -370 78 -380 102 -5 12 -34 141 -66 287 -31 146 -62 284 -68
307 l-11 41 -319 -105 -318 -106 -69 74 c-38 41 -82 90 -97 109 -35 46 -255
292 -273 306 -11 9 -38 -15 -129 -118z m-255 -1025 c115 -37 203 -119 246
-230 17 -45 23 -86 27 -181 7 -197 -23 -298 -117 -392 -55 -55 -106 -84 -188
-105 -242 -63 -473 71 -522 303 -14 65 -14 262 -1 320 54 231 310 362 555 285z
m898 -216 c37 -21 67 -44 67 -50 0 -10 -50 -94 -125 -212 -18 -27 -84 -133
-147 -235 -63 -102 -189 -304 -280 -450 -91 -146 -229 -368 -308 -495 -78
-126 -143 -231 -144 -232 -5 -6 -176 100 -176 109 0 6 65 114 144 242 79 127
205 330 280 451 588 947 580 934 601 923 11 -6 50 -29 88 -51z m114 -921 c157
-42 262 -154 293 -313 18 -89 8 -304 -16 -366 -60 -154 -212 -250 -395 -249
-187 1 -329 91 -390 249 -17 45 -23 86 -27 181 -7 197 23 298 116 391 102 102
273 146 419 107z"/>
<path d="M1904 3321 c-79 -36 -104 -96 -104 -250 0 -104 3 -123 23 -162 31
-57 84 -89 153 -89 88 0 138 30 169 103 18 44 21 236 4 288 -37 111 -141 157
-245 110z"/>
<path d="M2935 2166 c-72 -32 -95 -90 -95 -239 0 -104 2 -118 28 -167 34 -67
63 -89 128 -96 70 -9 133 20 171 77 27 40 28 49 31 173 3 120 1 135 -20 176
-31 60 -84 90 -158 89 -30 0 -68 -6 -85 -13z"/>
</g>
</svg>
