<svg width="43" height="43" viewBox="0 0 43 43" fill="none" xmlns="http://www.w3.org/2000/svg">
<path fill-rule="evenodd" clip-rule="evenodd" d="M42 21.5C42 32.8218 32.8218 42 21.5 42C10.1782 42 1 32.8218 1 21.5C1 10.1782 10.1782 1 21.5 1C32.8218 1 42 10.1782 42 21.5ZM43 21.5C43 33.3741 33.3741 43 21.5 43C9.62588 43 0 33.3741 0 21.5C0 9.62588 9.62588 0 21.5 0C33.3741 0 43 9.62588 43 21.5ZM18.1249 13.1792C17.8449 12.8993 17.8449 12.4444 18.1249 12.1644C18.4048 11.8845 18.8597 11.8845 19.1396 12.1819L28.5698 21.6121C28.7098 21.7521 28.7798 21.9445 28.7798 22.1195C28.7798 22.312 28.7098 22.4869 28.5698 22.6269L19.1396 32.0571C18.8597 32.337 18.4048 32.337 18.1249 32.0571C17.8449 31.7771 17.8449 31.3223 18.1249 31.0423L27.0652 22.102L18.1249 13.1792Z" fill="#C1A875"/>
</svg>
