<svg width="22" height="21" viewBox="0 0 22 21" fill="none" xmlns="http://www.w3.org/2000/svg">
<path d="M6.55438 8.82438L10.7171 4.74632L14.8821 8.82653L17.3043 6.45354L10.7171 0L4.1322 6.45138L6.55438 8.82438Z" fill="#F3BA2F"/>
<path d="M4.84438 10.4999L2.42224 8.12695L-1.25485e-05 10.5L2.42212 12.873L4.84438 10.4999Z" fill="#F3BA2F"/>
<path d="M6.555 12.1758L10.7178 16.2539L14.8825 12.1738L17.3061 14.5455L17.3049 14.5468L10.7178 21.0002L4.13266 14.549L4.12927 14.5457L6.555 12.1758Z" fill="#F3BA2F"/>
<path d="M19.0127 12.8731L21.4349 10.5L19.0128 8.12705L16.5905 10.5001L19.0127 12.8731Z" fill="#F3BA2F"/>
<path d="M13.1741 10.4978H13.1752L10.7173 8.08984L8.90084 9.86938H8.90067L8.69209 10.0739L8.26156 10.4957L8.25818 10.499L8.26156 10.5025L10.7173 12.9083L13.1752 10.5003L13.1763 10.499L13.1741 10.4978Z" fill="#F3BA2F"/>
</svg>
