<svg width="22" height="17" viewBox="0 0 22 17" fill="none" xmlns="http://www.w3.org/2000/svg">
<path d="M13.7972 6.38871C15.7127 4.48119 17.6177 2.55804 19.5404 0.660614C20.059 1.19841 20.6014 1.71401 21.12 2.25231L21.1568 2.26392V2.31184C21.0796 2.29217 21.0594 2.40871 20.9999 2.44049C16.4584 6.97141 11.9255 11.5109 7.38244 16.0398C5.27464 13.9194 3.1512 11.8141 1.03987 9.69722C1.02423 9.68562 0.992446 9.66291 0.976807 9.65131V9.62659C1.52167 9.09787 2.06148 8.55705 2.59222 8.01219C4.19854 9.59329 5.78066 11.2057 7.38547 12.7863C9.52909 10.6649 11.6586 8.51921 13.7972 6.38871Z" fill="#00B488"/>
</svg>
