<svg width="120" height="37" viewBox="0 0 120 37" fill="none" xmlns="http://www.w3.org/2000/svg">
<path d="M35.4233 0.537109H1.3356C1.12538 0.537109 0.923756 0.620562 0.775168 0.769311C0.626419 0.9179 0.542969 1.11952 0.542969 1.3299V35.4176C0.542969 35.6278 0.626419 35.8294 0.775168 35.978C0.923756 36.1268 1.12538 36.2102 1.3356 36.2102H35.4233C35.6337 36.2102 35.8353 36.1268 35.9839 35.978C36.1326 35.8294 36.2161 35.6278 36.2161 35.4176V1.3299C36.2161 1.11952 36.1326 0.9179 35.9839 0.769311C35.8353 0.620562 35.6337 0.537109 35.4233 0.537109ZM24.325 23.5265C24.325 23.7367 24.2415 23.9383 24.0928 24.0871C23.9442 24.2357 23.7426 24.3193 23.5324 24.3193H13.2267C13.0165 24.3193 12.8148 24.2357 12.6661 24.0871C12.5175 23.9383 12.4341 23.7367 12.4341 23.5265V13.2208C12.4341 13.0106 12.5175 12.809 12.6661 12.6604C12.8148 12.5117 13.0165 12.4282 13.2267 12.4282H23.5324C23.7426 12.4282 23.9442 12.5117 24.0928 12.6604C24.2415 12.809 24.325 13.0106 24.325 13.2208V23.5265Z" fill="white"/>
<path d="M106.79 12.4297H96.4842C96.0464 12.4297 95.6914 12.7845 95.6914 13.2223V23.528C95.6914 23.9658 96.0464 24.3208 96.4842 24.3208H106.79C107.228 24.3208 107.582 23.9658 107.582 23.528V13.2223C107.582 12.7845 107.228 12.4297 106.79 12.4297Z" fill="white"/>
<path d="M94.8913 0.539062H84.5858C84.148 0.539062 83.793 0.893892 83.793 1.33185V11.6374C83.793 12.0752 84.148 12.4302 84.5858 12.4302H94.8913C95.3292 12.4302 95.6841 12.0752 95.6841 11.6374V1.33185C95.6841 0.893892 95.3292 0.539062 94.8913 0.539062Z" fill="white"/>
<path d="M118.673 0.539062H108.367C107.929 0.539062 107.574 0.893892 107.574 1.33185V11.6374C107.574 12.0752 107.929 12.4302 108.367 12.4302H118.673C119.11 12.4302 119.465 12.0752 119.465 11.6374V1.33185C119.465 0.893892 119.11 0.539062 118.673 0.539062Z" fill="white"/>
<path d="M94.8913 24.3203H84.5858C84.148 24.3203 83.793 24.6751 83.793 25.1129V35.4186C83.793 35.8564 84.148 36.2114 84.5858 36.2114H94.8913C95.3292 36.2114 95.6841 35.8564 95.6841 35.4186V25.1129C95.6841 24.6751 95.3292 24.3203 94.8913 24.3203Z" fill="white"/>
<path d="M118.673 24.3203H108.367C107.929 24.3203 107.574 24.6751 107.574 25.1129V35.4186C107.574 35.8564 107.929 36.2114 108.367 36.2114H118.673C119.11 36.2114 119.465 35.8564 119.465 35.4186V25.1129C119.465 24.6751 119.11 24.3203 118.673 24.3203Z" fill="white"/>
<path d="M77.0397 0.539062H66.7342C66.2964 0.539062 65.9414 0.893892 65.9414 1.33185V11.6374C65.9414 12.0752 66.2964 12.4302 66.7342 12.4302H77.0397C77.4775 12.4302 77.8325 12.0752 77.8325 11.6374V1.33185C77.8325 0.893892 77.4775 0.539062 77.0397 0.539062Z" fill="white"/>
<path d="M77.0397 24.3203H66.7342C66.2964 24.3203 65.9414 24.6751 65.9414 25.1129V35.4186C65.9414 35.8564 66.2964 36.2114 66.7342 36.2114H77.0397C77.4775 36.2114 77.8325 35.8564 77.8325 35.4186V25.1129C77.8325 24.6751 77.4775 24.3203 77.0397 24.3203Z" fill="white"/>
<path d="M65.9423 13.2139C65.9423 13.0036 65.8587 12.802 65.7101 12.6534C65.5614 12.5047 65.3598 12.4212 65.1495 12.4212H54.0512V1.33185C54.0512 1.12147 53.9676 0.919853 53.819 0.771264C53.6703 0.622516 53.4687 0.539062 53.2585 0.539062H42.9529C42.7426 0.539062 42.5409 0.622516 42.3924 0.771264C42.2436 0.919853 42.1602 1.12147 42.1602 1.33185V35.4017C42.1602 35.6119 42.2436 35.8136 42.3924 35.9621C42.5409 36.1109 42.7426 36.1943 42.9529 36.1943H53.2585C53.4687 36.1943 53.6703 36.1109 53.819 35.9621C53.9676 35.8136 54.0512 35.6119 54.0512 35.4017V24.3123H65.1495C65.3598 24.3123 65.5614 24.2287 65.7101 24.0801C65.8587 23.9314 65.9423 23.7298 65.9423 23.5195V13.2139Z" fill="white"/>
</svg>
