<svg width="22" height="24" viewBox="0 0 22 24" fill="none" xmlns="http://www.w3.org/2000/svg">
<path d="M15.3427 19.3125H13.7776L11.9038 17.6875V16.8542L13.8437 15.1042V12.3333L16.3788 10.7708L19.2665 12.8333L15.3427 19.3125ZM8.86172 14.9375L9.1483 12.3333L8.2004 10H13.7996L12.8737 12.3333L13.1383 14.9375H10.978H8.86172ZM10.1403 17.6875L8.26653 19.3333H6.67936L2.73347 12.8333L5.64329 10.7917L8.2004 12.3333V15.1042L10.1403 16.8542V17.6875ZM6.65731 5.1875H15.3206L16.3567 9.35417H5.64329L6.65731 5.1875ZM11 0L0 6V18L11 24L22 18V6L11 0Z" fill="#03316C"/>
</svg>
