<svg width="20" height="21" viewBox="0 0 20 21" fill="none" xmlns="http://www.w3.org/2000/svg">
<path d="M7.83632 10.3896L7.66264 10.2205C7.5316 10.0936 7.3062 10.1835 7.3062 10.3636V12.7786C7.3062 12.8903 7.4004 12.9809 7.51584 12.9809H10.0064C10.192 12.9809 10.2858 12.7627 10.1536 12.6356C10.1146 12.5976 10.0927 12.5462 10.0927 12.4927C10.0927 12.4391 10.1146 12.3877 10.1536 12.3498L12.8028 9.77347C12.8841 9.69472 12.8841 9.56682 12.8028 9.48749L12.5615 9.2543C12.4304 9.12734 12.5239 8.90913 12.709 8.90913H15.1982C15.3133 8.90913 15.4074 8.99979 15.4074 9.11143V11.5265C15.4074 11.7065 15.1814 11.7968 15.0503 11.6696L14.8822 11.5069C14.7998 11.4258 14.6687 11.4258 14.5878 11.5069L10.1217 15.8364C10.0406 15.9149 9.90869 15.9149 9.82641 15.8364L4.36229 10.5369C4.34276 10.5181 4.32727 10.4957 4.31669 10.4711C4.30612 10.4465 4.30067 10.4201 4.30067 10.3934C4.30067 10.3668 4.30612 10.3404 4.31669 10.3157C4.32727 10.2911 4.34276 10.2688 4.36229 10.25L11.9267 2.91405C12.0076 2.83511 12.0076 2.70628 11.9267 2.62761L10.148 0.902696C10.1087 0.864936 10.0556 0.84375 10.0003 0.84375C9.94497 0.84375 9.8919 0.864936 9.85261 0.902696L0.0608685 10.4C-0.0202895 10.479 -0.0202895 10.6079 0.0608685 10.6865L9.85261 20.1828C9.93381 20.2613 10.067 20.2613 10.148 20.1828L19.9393 10.6865C20.0202 10.6075 20.0202 10.4794 19.9393 10.4007L14.1787 4.8138C14.0982 4.73521 13.9657 4.73521 13.884 4.8138L8.13207 10.3897C8.11272 10.4087 8.08968 10.4237 8.06431 10.4339C8.03893 10.4442 8.01171 10.4495 7.98421 10.4495C7.95672 10.4495 7.9295 10.4442 7.90412 10.4339C7.87874 10.4237 7.85567 10.4086 7.83632 10.3896Z" fill="#DE5959"/>
</svg>
