<svg width="19" height="28" viewBox="0 0 19 28" fill="none" xmlns="http://www.w3.org/2000/svg">
<path d="M13 8.61528C13 4.59654 10.8769 1.13551 9.25995 0.012161C9.25995 0.012161 9.13557 -0.0511263 9.14843 0.111047C9.01547 7.87561 4.71356 9.97991 2.35029 12.812C-3.10537 19.3543 1.96428 26.5256 7.13687 27.8507C10.0191 28.5943 6.46778 26.5375 6.00885 22.1983C5.44699 16.9613 13 12.9584 13 8.61528Z" fill="#1B2143"/>
<path d="M15.2922 11.019C15.2578 10.999 15.2105 10.983 15.1804 11.0351C15.0901 12.0257 14.0068 14.1432 12.6312 16.0923C7.96684 22.6935 10.6236 25.8778 12.1196 27.5903C12.988 28.5809 12.1196 27.5903 14.2863 26.5756C16.9645 25.0597 18.7012 22.4368 18.9592 19.5252C19.3848 14.833 16.3669 11.8773 15.2922 11.019Z" fill="#2CA6E0"/>
</svg>
