<svg width="22" height="17" viewBox="0 0 22 17" fill="none" xmlns="http://www.w3.org/2000/svg">
<path d="M10.9981 0C4.92367 0 0 4.84448 0 10.8193V15.4562C0 16.3091 0.702587 17 1.57002 17C2.43745 17 3.14497 16.3091 3.14497 15.4562V10.8193C3.14497 9.96397 3.84509 9.27311 4.71499 9.27311C5.58242 9.27311 6.28501 9.96397 6.28501 10.8193V15.4562C6.28501 16.3091 6.9876 17 7.85503 17C8.72493 17 9.42751 16.3091 9.42751 15.4562V10.8193C9.42751 9.96397 10.1301 9.27311 10.9975 9.27311C11.8674 9.27311 12.5725 9.96397 12.5725 10.8193V15.4562C12.5725 16.3091 13.2751 17 14.1425 17C15.0099 17 15.7125 16.3091 15.7125 15.4562V10.8193C15.7125 9.96397 16.4151 9.27311 17.2875 9.27311C18.1549 9.27311 18.8575 9.96397 18.8575 10.8193V15.4562C18.8575 16.3091 19.5601 17 20.43 17C21.2974 17 22 16.3091 22 15.4562V10.8193C22.0012 4.84448 17.0751 0 10.9981 0Z" fill="#5741D9"/>
</svg>
