<svg width="18" height="19" viewBox="0 0 18 19" fill="none" xmlns="http://www.w3.org/2000/svg">
<path fill-rule="evenodd" clip-rule="evenodd" d="M5.69034 9.50192L11.5292 15.1302L15.2147 11.5782C15.8737 11.0063 16.8819 11.0317 17.509 11.636C18.1361 12.2404 18.1625 13.2121 17.5691 13.8473L12.7055 18.5356C12.0522 19.1548 11.0044 19.1548 10.3511 18.5356L3.33416 11.771V15.7917C3.33416 16.6791 2.58778 17.3984 1.66708 17.3984C0.746377 17.3984 0 16.6791 0 15.7917V3.2069C0 2.31954 0.746377 1.60019 1.66708 1.60019C2.58778 1.60019 3.33416 2.31954 3.33416 3.2069V7.22758L10.3502 0.464767C11.0033 -0.154922 12.0515 -0.154922 12.7046 0.464767L17.5718 5.15222C18.1652 5.78737 18.1388 6.75908 17.5117 7.36343C16.8847 7.96778 15.8764 7.99322 15.2174 7.42133L11.5319 3.8693L5.69034 9.50192ZM11.5319 7.89347C10.8568 7.89312 10.248 8.28478 9.98941 8.88579C9.73082 9.4868 9.87337 10.1788 10.3506 10.639C10.8278 11.0992 11.5457 11.2369 12.1695 10.988C12.7932 10.7391 13.1999 10.1526 13.1999 9.50192C13.2001 9.07533 13.0245 8.66613 12.7117 8.36432C12.3989 8.06252 11.9745 7.89283 11.5319 7.8926V7.89347Z" fill="#23AF91"/>
</svg>
