<svg width="21" height="21" viewBox="0 0 21 21" fill="none" xmlns="http://www.w3.org/2000/svg">
<path d="M13.1249 7.23242H7.24256C6.99266 7.23242 6.79004 7.43496 6.79004 7.68486V13.5673C6.79004 13.8172 6.99266 14.0198 7.24256 14.0198H13.1249C13.3748 14.0198 13.5775 13.8172 13.5775 13.5673V7.68486C13.5775 7.43496 13.3748 7.23242 13.1249 7.23242Z" fill="white"/>
<path d="M6.3349 0.445312H0.452528C0.20263 0.445312 0 0.647849 0 0.897837V6.78021C0 7.0301 0.20263 7.23273 0.452528 7.23273H6.3349C6.58489 7.23273 6.78742 7.0301 6.78742 6.78021V0.897837C6.78742 0.647849 6.58489 0.445312 6.3349 0.445312Z" fill="white"/>
<path d="M19.9084 0.445312H14.0259C13.776 0.445312 13.5734 0.647849 13.5734 0.897837V6.78021C13.5734 7.0301 13.776 7.23273 14.0259 7.23273H19.9084C20.1583 7.23273 20.3608 7.0301 20.3608 6.78021V0.897837C20.3608 0.647849 20.1583 0.445312 19.9084 0.445312Z" fill="white"/>
<path d="M6.3349 14.0195H0.452528C0.20263 14.0195 0 14.2221 0 14.472V20.3544C0 20.6043 0.20263 20.807 0.452528 20.807H6.3349C6.58489 20.807 6.78742 20.6043 6.78742 20.3544V14.472C6.78742 14.2221 6.58489 14.0195 6.3349 14.0195Z" fill="white"/>
<path d="M19.9084 14.0195H14.0259C13.776 14.0195 13.5734 14.2221 13.5734 14.472V20.3544C13.5734 20.6043 13.776 20.807 14.0259 20.807H19.9084C20.1583 20.807 20.3608 20.6043 20.3608 20.3544V14.472C20.3608 14.2221 20.1583 14.0195 19.9084 14.0195Z" fill="white"/>
</svg>
