<svg width="19" height="21" viewBox="0 0 19 21" fill="none" xmlns="http://www.w3.org/2000/svg">
<path d="M18.9747 5.50845V10.9896L14.2343 8.249L9.49393 5.49558L14.2472 2.7679L18.9875 0.0273438L18.9747 5.50845Z" fill="#072B38"/>
<path d="M9.49345 10.9752V16.4563L4.75307 13.7158L0.0126953 10.9624L4.75307 8.23469L9.49345 5.49414V10.9752Z" fill="#144556"/>
<path d="M0.0126953 5.48111V0L4.75307 2.74055L9.49345 5.48111L4.75307 8.23452L0.0126953 10.9622V5.48111Z" fill="#41D9BF"/>
<path d="M0 16.444L0.0128473 10.9629L4.75323 13.7163L9.49361 16.4569L4.75323 19.1974L0 21.9251V16.444Z" fill="#072B38"/>
<path d="M14.2343 8.24756L9.49393 5.49414V10.9752V16.4563L14.2215 19.2098L18.9618 21.9503V16.4692L18.9747 10.9881L14.2343 8.24756Z" fill="#41D9BF"/>
</svg>
