<svg width="38" height="30" viewBox="0 0 38 30" fill="none" xmlns="http://www.w3.org/2000/svg">
<path d="M32.0528 1.00361C32.052 1.00361 32.0515 1.00258 32.0522 1.00199C32.7035 0.362429 33.5823 0.00252151 34.4989 1.31988e-05C35.4162 -0.00249722 36.2977 0.353196 36.9528 0.990195C37.6079 1.62719 37.9839 2.49432 37.9995 3.40409C38.0151 4.31386 37.6691 5.19319 37.0364 5.85196L18.4523 28.8932C18.1329 29.2344 17.7474 29.5082 17.3189 29.6983C16.8904 29.8884 16.4276 29.9908 15.9582 29.9994C15.4889 30.008 15.0226 29.9227 14.5873 29.7485C14.1519 29.5743 13.7565 29.3148 13.4246 28.9855L1.11126 16.7677C0.768228 16.4506 0.493089 16.0683 0.302258 15.6435C0.111427 15.2187 0.00881486 14.7601 0.000543368 14.2951C-0.00772813 13.8301 0.0785111 13.3682 0.254114 12.937C0.429718 12.5058 0.691088 12.1141 1.02263 11.7852C1.35418 11.4564 1.74911 11.1971 2.18386 11.023C2.61861 10.8488 3.08428 10.7633 3.55308 10.7715C4.02189 10.7797 4.48422 10.8814 4.91251 11.0707C5.34079 11.26 5.72626 11.5329 6.0459 11.8731L14.2057 19.9627C15.0528 20.8025 16.4419 20.7189 17.1821 19.7834L31.9621 1.1052C31.9904 1.07003 32.0209 1.03664 32.0535 1.00524C32.0541 1.00465 32.0537 1.00361 32.0528 1.00361Z" fill="white"/>
</svg>
