<svg width="61" height="61" viewBox="0 0 61 61" fill="none" xmlns="http://www.w3.org/2000/svg">
<path d="M60.5771 30.0332C60.5771 46.6017 47.1457 60.0332 30.5771 60.0332C14.0086 60.0332 0.577148 46.6017 0.577148 30.0332C0.577148 13.4647 14.0086 0.0332031 30.5771 0.0332031C47.1457 0.0332031 60.5771 13.4647 60.5771 30.0332ZM2.23071 30.0332C2.23071 45.6885 14.9218 58.3796 30.5771 58.3796C46.2325 58.3796 58.9236 45.6885 58.9236 30.0332C58.9236 14.3779 46.2325 1.68677 30.5771 1.68677C14.9218 1.68677 2.23071 14.3779 2.23071 30.0332Z" fill="white" fill-opacity="0.5"/>
<path d="M42.116 30.0331C42.116 36.4056 36.95 41.5716 30.5775 41.5716C24.205 41.5716 19.0391 36.4056 19.0391 30.0331C19.0391 23.6606 24.205 18.4946 30.5775 18.4946C36.95 18.4946 42.116 23.6606 42.116 30.0331ZM25.3236 30.0331C25.3236 32.9348 27.6758 35.2871 30.5775 35.2871C33.4792 35.2871 35.8315 32.9348 35.8315 30.0331C35.8315 27.1314 33.4792 24.7791 30.5775 24.7791C27.6758 24.7791 25.3236 27.1314 25.3236 30.0331Z" fill="white" fill-opacity="0.5"/>
</svg>
