<svg width="154" height="35" viewBox="0 0 154 35" fill="none" xmlns="http://www.w3.org/2000/svg">
<g id="&#208;&#167;&#208;&#176;&#209;&#128;&#209;&#130;">
<path id="Vector" d="M146.149 25.1976L153.406 19.4743V34.5H1.00015V9.903L8.2576 25.595L15.515 28.4185L22.7725 0.5L30.0299 17.1107L37.2873 7.88067L44.5447 3.49691L51.8022 21.893L59.0596 18.3781L66.3171 13.0214L73.5745 27.5345L80.8319 26.5451L88.0894 31.8158L95.3468 8.58802L102.604 22.8537L109.862 4.95319L117.119 18.8073L124.377 20.8832L131.634 25.6995L138.891 27.1102L146.149 25.1976Z" fill="url(#paint0_linear_406_1143)"/>
<path id="Vector_2" d="M153.406 19.283L146.149 24.9486L138.891 26.8419L131.634 25.4453L124.377 20.6776L117.119 18.6227L109.862 4.90828L102.604 22.6283L95.3468 8.50646L88.0894 31.5L80.8319 26.2824L73.5745 27.2619L66.317 12.8952L59.0596 18.1978L51.8022 21.6772L44.5448 3.46669L37.2873 7.80624L30.0299 16.9432L22.7725 0.5L15.515 28.1369L8.25758 25.3419L1.00015 9.80819" stroke="#0AB183" stroke-linejoin="round"/>
</g>
<defs>
<linearGradient id="paint0_linear_406_1143" x1="77.2032" y1="0.5" x2="77.2032" y2="43.5" gradientUnits="userSpaceOnUse">
<stop stop-color="#0A4736" stop-opacity="0.71"/>
<stop offset="0.30104" stop-color="#114335" stop-opacity="0.4"/>
<stop offset="0.781437" stop-color="#85FDD1" stop-opacity="0.2"/>
</linearGradient>
</defs>
</svg>
