<svg width="350" height="116" viewBox="0 0 350 116" fill="none" xmlns="http://www.w3.org/2000/svg">
<path d="M65.1458 63.8525H64.7637V81.3648H65.1458V63.8525Z" fill="#162E4C"/>
<path d="M67.6452 78.1497C67.2963 78.585 62.5303 78.6335 62.2048 78.1497C61.8792 77.6658 61.9957 67.4648 62.2048 67.0473C62.4142 66.6303 67.2963 66.5937 67.6452 67.0473C67.9941 67.501 67.9941 77.7143 67.6452 78.1497Z" fill="#3BE7A8"/>
<path d="M336.911 35.3975H336.529V52.9097H336.911V35.3975Z" fill="#162E4C"/>
<path d="M339.411 49.6946C339.062 50.1299 334.296 50.1784 333.97 49.6946C333.645 49.2108 333.761 39.0097 333.97 38.5923C334.18 38.1752 339.062 38.1386 339.411 38.5923C339.76 39.0459 339.76 49.2593 339.411 49.6946Z" fill="#F04D3D"/>
<path d="M92.9251 54.6113H92.543V86.2382H92.9251V54.6113Z" fill="#162E4C"/>
<path d="M95.4247 77.1282C95.0758 77.5635 90.3098 77.612 89.9842 77.1282C89.6586 76.6444 89.7748 66.4429 89.9842 66.0259C90.1936 65.6088 95.0758 65.5722 95.4247 66.0259C95.7736 66.4795 95.7736 76.6929 95.4247 77.1282Z" fill="#3BE7A8"/>
<path d="M44.3626 52.7646H43.9805V84.3915H44.3626V52.7646Z" fill="#162E4C"/>
<path d="M316.13 24.3105H315.748V55.9374H316.13V24.3105Z" fill="#162E4C"/>
<path d="M46.8622 75.2815C46.5133 75.7168 41.7473 75.7653 41.4217 75.2815C41.0961 74.7977 41.2123 64.5962 41.4217 64.1792C41.6311 63.7621 46.5133 63.7256 46.8622 64.1792C47.2107 64.6328 47.2107 74.8462 46.8622 75.2815Z" fill="#F04D3D"/>
<path d="M318.626 46.8274C318.277 47.2627 313.511 47.3112 313.185 46.8274C312.86 46.3436 312.976 36.1421 313.185 35.7251C313.395 35.308 318.277 35.2715 318.626 35.7251C318.974 36.1787 318.974 46.3921 318.626 46.8274Z" fill="#F04D3D"/>
<path d="M106.812 44.999H106.43V76.6259H106.812V44.999Z" fill="#162E4C"/>
<path d="M109.311 67.5169C108.962 67.9522 104.196 68.0007 103.871 67.5169C103.545 67.033 103.661 56.8316 103.871 56.4145C104.08 55.9975 108.962 55.9609 109.311 56.4145C109.66 56.8678 109.66 67.0815 109.311 67.5169Z" fill="#3BE7A8"/>
<path d="M141.519 26.5127H141.137V46.7896H141.519V26.5127Z" fill="#162E4C"/>
<path d="M144.018 40.9481C143.67 41.3834 138.904 41.4319 138.578 40.9481C138.252 40.4642 138.369 33.0087 138.578 32.5913C138.787 32.1742 143.67 32.1377 144.018 32.5913C144.367 33.0449 144.367 40.5127 144.018 40.9481Z" fill="#F04D3D"/>
<path d="M274.21 39.6328H273.828V59.9097H274.21V39.6328Z" fill="#162E4C"/>
<path d="M276.71 54.0682C276.361 54.5035 271.595 54.552 271.269 54.0682C270.944 53.5843 271.06 46.1288 271.269 45.7114C271.479 45.2944 276.361 45.2578 276.71 45.7114C277.059 46.165 277.059 53.6328 276.71 54.0682Z" fill="#3BE7A8"/>
<path d="M218.306 48.2998H217.924V28.0229H218.306V48.2998Z" fill="#162E4C"/>
<path d="M220.806 33.8644C220.457 33.4291 215.691 33.3806 215.365 33.8644C215.039 34.3483 215.156 41.8038 215.365 42.2212C215.574 42.6383 220.457 42.6748 220.806 42.2212C221.154 41.7676 221.154 34.2998 220.806 33.8644Z" fill="#3BE7A8"/>
<path d="M169.388 13.3936H169.006V33.6704H169.388V13.3936Z" fill="#162E4C"/>
<path d="M171.888 27.8289C171.539 28.2642 166.773 28.3127 166.447 27.8289C166.121 27.3451 166.238 19.8896 166.447 19.4721C166.656 19.0551 171.539 19.0185 171.888 19.4721C172.236 19.9258 172.236 27.3936 171.888 27.8289Z" fill="#3BE7A8"/>
<path d="M246.179 61.4189H245.797V41.1421H246.179V61.4189Z" fill="#162E4C"/>
<path d="M248.679 46.9836C248.33 46.5483 243.564 46.4998 243.238 46.9836C242.913 47.4674 243.029 54.9229 243.238 55.3404C243.448 55.7574 248.33 55.794 248.679 55.3404C249.027 54.8867 249.027 47.4189 248.679 46.9836Z" fill="#F04D3D"/>
<path d="M134.587 30.918H134.205V51.1948H134.587V30.918Z" fill="#162E4C"/>
<path d="M137.087 45.3533C136.738 45.7887 131.972 45.8372 131.646 45.3533C131.321 44.8695 131.437 37.4136 131.646 36.9966C131.855 36.5795 136.738 36.5429 137.087 36.9966C137.436 37.4502 137.436 44.918 137.087 45.3533Z" fill="#F04D3D"/>
<path d="M267.279 44.0371H266.896V64.314H267.279V44.0371Z" fill="#162E4C"/>
<path d="M269.778 58.4725C269.429 58.9078 264.663 58.9563 264.338 58.4725C264.012 57.9886 264.128 50.5327 264.338 50.1157C264.547 49.6987 269.429 49.6621 269.778 50.1157C270.127 50.5693 270.127 58.0371 269.778 58.4725Z" fill="#F04D3D"/>
<path d="M155.423 17.5518H155.041V37.8286H155.423V17.5518Z" fill="#162E4C"/>
<path d="M157.923 31.9881C157.574 32.4234 152.808 32.4719 152.482 31.9881C152.157 31.5043 152.273 24.0488 152.482 23.6313C152.692 23.2143 157.574 23.1777 157.923 23.6313C158.272 24.0849 158.272 31.5528 157.923 31.9881Z" fill="#3BE7A8"/>
<path d="M288.118 30.6729H287.736V50.9497H288.118V30.6729Z" fill="#162E4C"/>
<path d="M290.618 45.1092C290.269 45.5445 285.503 45.593 285.178 45.1092C284.852 44.6254 284.968 37.1699 285.178 36.7524C285.387 36.3354 290.269 36.2988 290.618 36.7524C290.967 37.206 290.967 44.6739 290.618 45.1092Z" fill="#3BE7A8"/>
<path d="M232.21 57.2598H231.828V36.9829H232.21V57.2598Z" fill="#162E4C"/>
<path d="M234.71 42.8234C234.361 42.3881 229.595 42.3396 229.269 42.8234C228.944 43.3073 229.06 50.7628 229.269 51.1802C229.479 51.5972 234.361 51.6338 234.71 51.1802C235.059 50.7266 235.059 43.2588 234.71 42.8234Z" fill="#F04D3D"/>
<path d="M183.294 4.43262H182.912V24.7095H183.294V4.43262Z" fill="#162E4C"/>
<path d="M185.794 18.869C185.445 19.3043 180.679 19.3528 180.353 18.869C180.028 18.3851 180.144 10.9296 180.353 10.5122C180.563 10.0951 185.445 10.0586 185.794 10.5122C186.143 10.9658 186.143 18.4336 185.794 18.869Z" fill="#3BE7A8"/>
<path d="M37.3665 49.0312H36.9844V72.5964H37.3665V49.0312Z" fill="#162E4C"/>
<path d="M39.8661 68.5686C39.5172 69.0039 34.7512 69.0524 34.4256 68.5686C34.1 68.0848 34.2162 57.8837 34.4256 57.4663C34.635 57.0492 39.5172 57.0127 39.8661 57.4663C40.2146 57.9199 40.2146 68.1333 39.8661 68.5686Z" fill="#F04D3D"/>
<path d="M51.2591 59.4746H50.877V75.9858H51.2591V59.4746Z" fill="#162E4C"/>
<path d="M53.7586 66.9852C53.4098 67.4205 48.6437 67.469 48.3182 66.9852C47.9926 66.5014 48.1088 62.6474 48.3182 62.23C48.5276 61.8129 53.4098 61.7763 53.7586 62.23C54.1075 62.6836 54.1075 66.5499 53.7586 66.9852Z" fill="#3BE7A8"/>
<path d="M323.023 31.0215H322.641V47.5326H323.023V31.0215Z" fill="#162E4C"/>
<path d="M325.522 38.5321C325.173 38.9674 320.407 39.0159 320.082 38.5321C319.756 38.0482 319.872 34.1943 320.082 33.7768C320.291 33.3598 325.173 33.3232 325.522 33.7768C325.871 34.2305 325.871 38.0967 325.522 38.5321Z" fill="#3BE7A8"/>
<path d="M72.0892 59.4746H71.707V75.9858H72.0892V59.4746Z" fill="#162E4C"/>
<path d="M74.5886 66.9852C74.2397 67.4205 69.4737 67.469 69.1481 66.9852C68.8225 66.5014 68.9391 62.6474 69.1481 62.23C69.3575 61.8129 74.2397 61.7763 74.5886 62.23C74.9375 62.6836 74.9375 66.5499 74.5886 66.9852Z" fill="#F04D3D"/>
<path d="M30.4212 52.0664H30.0391V68.5776H30.4212V52.0664Z" fill="#162E4C"/>
<path d="M32.9208 59.5772C32.5719 60.0125 27.8059 60.061 27.4803 59.5772C27.1547 59.0933 27.2709 55.2393 27.4803 54.8219C27.6897 54.4045 32.5719 54.3683 32.9208 54.8219C33.2696 55.2751 33.2696 59.1414 32.9208 59.5772Z" fill="#F04D3D"/>
<path d="M308.999 32.8965H308.617V49.4076H308.999V32.8965Z" fill="#162E4C"/>
<path d="M311.499 40.4072C311.15 40.8426 306.384 40.8911 306.058 40.4072C305.733 39.9234 305.849 36.0694 306.058 35.652C306.268 35.2345 311.15 35.1984 311.499 35.652C311.848 36.1052 311.848 39.9715 311.499 40.4072Z" fill="#F04D3D"/>
<path d="M99.8685 60.3232H99.4863V76.8344H99.8685V60.3232Z" fill="#162E4C"/>
<path d="M102.368 67.8329C102.019 68.2682 97.2531 68.3167 96.9275 67.8329C96.602 67.349 96.7181 63.4951 96.9275 63.0776C97.137 62.6606 102.019 62.624 102.368 63.0776C102.717 63.5312 102.717 67.3975 102.368 67.8329Z" fill="#3BE7A8"/>
<path d="M127.642 31.6416H127.26V48.1528H127.642V31.6416Z" fill="#162E4C"/>
<path d="M130.141 39.1512C129.793 39.5866 125.027 39.6351 124.701 39.1512C124.375 38.6674 124.492 34.8134 124.701 34.396C124.91 33.9789 129.793 33.9424 130.141 34.396C130.49 34.8496 130.49 38.7159 130.141 39.1512Z" fill="#F04D3D"/>
<path d="M260.339 44.7598H259.957V61.2709H260.339V44.7598Z" fill="#162E4C"/>
<path d="M262.839 52.2694C262.49 52.7047 257.724 52.7532 257.398 52.2694C257.073 51.7856 257.189 47.9316 257.398 47.5141C257.607 47.0971 262.49 47.0605 262.839 47.5141C263.187 47.9678 263.187 51.8341 262.839 52.2694Z" fill="#F04D3D"/>
<path d="M162.368 17.8936H161.986V34.4047H162.368V17.8936Z" fill="#162E4C"/>
<path d="M164.868 25.4043C164.519 25.8396 159.753 25.8881 159.428 25.4043C159.102 24.9205 159.218 21.0665 159.428 20.6491C159.637 20.2316 164.519 20.1954 164.868 20.6491C165.217 21.1023 165.217 24.9686 164.868 25.4043Z" fill="#F04D3D"/>
<path d="M239.154 56.918H238.771V40.4068H239.154V56.918Z" fill="#162E4C"/>
<path d="M241.653 49.4072C241.304 48.9719 236.538 48.9234 236.213 49.4072C235.887 49.8911 236.003 53.745 236.213 54.1625C236.422 54.5799 241.304 54.6161 241.653 54.1625C242.002 53.7092 242.002 49.843 241.653 49.4072Z" fill="#3BE7A8"/>
<path d="M190.242 4.77441H189.859V21.2856H190.242V4.77441Z" fill="#162E4C"/>
<path d="M192.741 12.2852C192.392 12.7205 187.626 12.769 187.301 12.2852C186.975 11.8013 187.091 7.94735 187.301 7.52991C187.51 7.11247 192.392 7.07629 192.741 7.52991C193.09 7.98313 193.09 11.8494 192.741 12.2852Z" fill="#3BE7A8"/>
<path d="M16.5364 40.6582H16.1543V69.1328H16.5364V40.6582Z" fill="#162E4C"/>
<path d="M19.036 64.3963C18.6871 64.8317 13.9211 64.8802 13.5955 64.3963C13.2699 63.9125 13.3861 50.2193 13.5955 49.8022C13.8049 49.3852 18.6871 49.3486 19.036 49.8022C19.3845 50.2558 19.3845 63.961 19.036 64.3963Z" fill="#3BE7A8"/>
<path d="M295.111 21.4863H294.729V49.9609H295.111V21.4863Z" fill="#162E4C"/>
<path d="M297.61 45.2245C297.261 45.6598 292.495 45.7083 292.17 45.2245C291.844 44.7406 291.96 31.0474 292.17 30.6304C292.379 30.2133 297.261 30.1767 297.61 30.6304C297.959 31.084 297.959 44.7891 297.61 45.2245Z" fill="#3BE7A8"/>
<path d="M113.755 37.8281H113.373V66.3027H113.755V37.8281Z" fill="#162E4C"/>
<path d="M116.255 61.5663C115.906 62.0016 111.14 62.0501 110.814 61.5663C110.489 61.0824 110.605 47.3892 110.814 46.9721C111.024 46.5551 115.906 46.5185 116.255 46.9721C116.604 47.4258 116.604 61.1309 116.255 61.5663Z" fill="#3BE7A8"/>
<path d="M23.4778 26.7842H23.0957V62.1911H23.4778V26.7842Z" fill="#162E4C"/>
<path d="M25.9774 54.4912C25.6285 54.9266 20.8625 54.9751 20.5369 54.4912C20.2113 54.0074 20.3275 30.9706 20.5369 30.5532C20.7463 30.1362 25.6285 30.0996 25.9774 30.5532C26.3263 31.0072 26.3263 54.0559 25.9774 54.4912Z" fill="#3BE7A8"/>
<path d="M302.056 7.61133H301.674V43.0182H302.056V7.61133Z" fill="#162E4C"/>
<path d="M304.556 35.3184C304.207 35.7537 299.441 35.8022 299.115 35.3184C298.789 34.8345 298.906 11.7978 299.115 11.3804C299.324 10.9633 304.207 10.9267 304.556 11.3804C304.904 11.8344 304.904 34.883 304.556 35.3184Z" fill="#3BE7A8"/>
<path d="M148.478 23.6641H148.096V55.6714H148.478V23.6641Z" fill="#162E4C"/>
<path d="M150.977 47.9717C150.628 48.407 145.862 48.4555 145.537 47.9717C145.211 47.4879 145.328 27.8507 145.537 27.4332C145.746 27.0158 150.628 26.9796 150.977 27.4332C151.326 27.8869 151.326 47.536 150.977 47.9717Z" fill="#3BE7A8"/>
<path d="M281.175 36.7822H280.793V68.7896H281.175V36.7822Z" fill="#162E4C"/>
<path d="M283.675 61.0899C283.326 61.5252 278.56 61.5737 278.234 61.0899C277.908 60.606 278.025 40.9688 278.234 40.5514C278.443 40.134 283.326 40.0978 283.675 40.5514C284.023 41.005 284.023 60.6541 283.675 61.0899Z" fill="#F04D3D"/>
<path d="M225.265 51.1504H224.883V19.143H225.265V51.1504Z" fill="#162E4C"/>
<path d="M227.764 26.8428C227.415 26.4074 222.649 26.3589 222.324 26.8428C221.998 27.3266 222.115 46.9638 222.324 47.3812C222.533 47.7987 227.415 47.8348 227.764 47.3812C228.113 46.9276 228.113 27.2785 227.764 26.8428Z" fill="#F04D3D"/>
<path d="M176.351 10.543H175.969V42.5503H176.351V10.543Z" fill="#162E4C"/>
<path d="M178.85 34.8506C178.501 35.2859 173.735 35.3344 173.41 34.8506C173.084 34.3668 173.201 14.7296 173.41 14.3121C173.619 13.8947 178.501 13.8585 178.85 14.3121C179.199 14.7658 179.199 34.4149 178.85 34.8506Z" fill="#3BE7A8"/>
<path d="M253.134 64.2695H252.752V32.2622H253.134V64.2695Z" fill="#162E4C"/>
<path d="M255.634 39.9619C255.285 39.5266 250.519 39.4781 250.193 39.9619C249.867 40.4457 249.984 60.0829 250.193 60.5004C250.402 60.9178 255.285 60.954 255.634 60.5004C255.982 60.0467 255.982 40.3976 255.634 39.9619Z" fill="#F04D3D"/>
<path d="M85.9817 67.9453H85.5996V98.3998H85.9817V67.9453Z" fill="#162E4C"/>
<path d="M88.4812 90.6995C88.1323 91.1349 83.3663 91.1834 83.0407 90.6995C82.7151 90.2157 82.8317 72.1314 83.0407 71.7143C83.2501 71.2973 88.1323 71.2607 88.4812 71.7143C88.8301 72.168 88.8301 90.2642 88.4812 90.6995Z" fill="#F04D3D"/>
<path d="M120.702 35H120.32V54.9994H120.702V35Z" fill="#162E4C"/>
<path d="M123.202 52.1465C122.853 52.5818 118.087 52.6303 117.762 52.1465C117.436 51.6627 117.552 37.9694 117.762 37.5524C117.971 37.1349 122.853 37.0988 123.202 37.5524C123.551 38.006 123.551 51.7112 123.202 52.1465Z" fill="#3BE7A8"/>
<path d="M58.2024 69.5254H57.8203V89.5248H58.2024V69.5254Z" fill="#162E4C"/>
<path d="M60.702 86.6727C60.3531 87.108 55.5871 87.1565 55.2615 86.6727C54.9359 86.1889 55.0521 72.4956 55.2615 72.0786C55.4706 71.6616 60.3531 71.625 60.702 72.0786C61.0505 72.5318 61.0505 86.237 60.702 86.6727Z" fill="#3BE7A8"/>
<path d="M329.966 41.0713H329.584V61.0707H329.966V41.0713Z" fill="#162E4C"/>
<path d="M332.466 58.2186C332.117 58.6539 327.351 58.7024 327.025 58.2186C326.7 57.7348 326.816 44.0415 327.025 43.6245C327.234 43.2075 332.117 43.1709 332.466 43.6245C332.814 44.0777 332.814 57.7829 332.466 58.2186Z" fill="#F04D3D"/>
<path d="M79.0364 62.3779H78.6543V82.3773H79.0364V62.3779Z" fill="#162E4C"/>
<path d="M81.5359 79.5253C81.187 79.9606 76.421 80.0091 76.0954 79.5253C75.7698 79.0414 75.8864 65.3482 76.0954 64.9311C76.3048 64.5141 81.187 64.4775 81.5359 64.9311C81.8844 65.3848 81.8844 79.0899 81.5359 79.5253Z" fill="#F04D3D"/>
<path d="M197.284 4.83008H196.902V21.3412H197.284V4.83008Z" fill="#162E4C"/>
<path d="M199.784 12.3407C199.435 12.776 194.669 12.8245 194.343 12.3407C194.018 11.8568 194.134 8.00287 194.343 7.58543C194.553 7.16839 199.435 7.13181 199.784 7.58543C200.133 8.03905 200.133 11.9053 199.784 12.3407Z" fill="#F04D3D"/>
<path d="M211.179 13.2988H210.797V43.7533H211.179V13.2988Z" fill="#162E4C"/>
<path d="M213.678 36.053C213.33 36.4884 208.564 36.5369 208.238 36.053C207.912 35.5692 208.029 17.4849 208.238 17.0679C208.447 16.6508 213.33 16.6142 213.678 17.0679C214.027 17.5215 214.027 35.6177 213.678 36.053Z" fill="#F04D3D"/>
<path d="M204.232 7.73145H203.85V27.7308H204.232V7.73145Z" fill="#162E4C"/>
<path d="M206.733 24.8788C206.384 25.3141 201.618 25.3626 201.293 24.8788C200.967 24.3949 201.084 10.7017 201.293 10.2846C201.502 9.86761 206.384 9.83103 206.733 10.2846C207.082 10.7383 207.082 24.4434 206.733 24.8788Z" fill="#F04D3D"/>
<path d="M1.5 1C1.5 0.723858 1.27614 0.5 1 0.5C0.723858 0.5 0.5 0.723858 0.5 1L1.5 1ZM0.500005 115.296L0.500005 115.796L1.50001 115.796L1.5 115.296L0.500005 115.296ZM0.5 1L0.500005 115.296L1.5 115.296L1.5 1L0.5 1Z" fill="#ACACAC"/>
<path d="M349 115.796C349.276 115.796 349.5 115.572 349.5 115.296C349.5 115.02 349.276 114.796 349 114.796V115.796ZM1 115.796H349V114.796H1V115.796Z" fill="#ACACAC"/>
</svg>
