<svg width="40" height="40" viewBox="0 0 40 40" fill="none" xmlns="http://www.w3.org/2000/svg">
<circle cx="20" cy="20" r="20" fill="black"/>
<mask id="path-2-inside-1_402_1214" fill="white">
<path d="M30 12.9999V31.4999C30 32.3309 29.331 32.9999 28.5 32.9999H12.5C11.669 32.9999 11 32.3309 11 31.4999V9.49994C11 8.66894 11.669 8 12.5 8H25"/>
</mask>
<path d="M29 12.9999V31.4999H31V12.9999H29ZM29 31.4999C29 31.7787 28.7787 31.9999 28.5 31.9999V33.9999C29.8833 33.9999 31 32.8832 31 31.4999H29ZM28.5 31.9999H12.5V33.9999H28.5V31.9999ZM12.5 31.9999C12.2213 31.9999 12 31.7786 12 31.4999H10C10 32.8832 11.1167 33.9999 12.5 33.9999V31.9999ZM12 31.4999V9.49994H10V31.4999H12ZM12 9.49994C12 9.22129 12.2212 9 12.5 9V7C11.1168 7 10 8.11659 10 9.49994H12ZM12.5 9H25V7H12.5V9Z" fill="white" mask="url(#path-2-inside-1_402_1214)"/>
<path d="M25.5 11.4999V9.2071L28.7929 12.4999H26.5C25.9451 12.4999 25.5 12.0548 25.5 11.4999Z" stroke="white"/>
<path fill-rule="evenodd" clip-rule="evenodd" d="M15.0081 18.5001C14.9418 18.4991 14.8761 18.5114 14.8146 18.5361C14.7531 18.5608 14.6971 18.5974 14.6499 18.644C14.6028 18.6905 14.5653 18.7459 14.5397 18.8071C14.5141 18.8682 14.501 18.9338 14.501 19.0001C14.501 19.0663 14.5141 19.1319 14.5397 19.193C14.5653 19.2542 14.6028 19.3096 14.6499 19.3561C14.6971 19.4027 14.7531 19.4393 14.8146 19.464C14.8761 19.4887 14.9418 19.501 15.0081 19.5H21.6331H26.0003C26.0665 19.501 26.1323 19.4887 26.1938 19.464C26.2553 19.4393 26.3113 19.4027 26.3584 19.3561C26.4056 19.3096 26.4431 19.2542 26.4687 19.193C26.4942 19.1319 26.5074 19.0663 26.5074 19.0001C26.5074 18.9338 26.4942 18.8682 26.4687 18.8071C26.4431 18.7459 26.4056 18.6905 26.3584 18.644C26.3113 18.5974 26.2553 18.5608 26.1938 18.5361C26.1323 18.5114 26.0665 18.4991 26.0003 18.5001H21.6331H15.0081Z" fill="#F9F9F9"/>
<path fill-rule="evenodd" clip-rule="evenodd" d="M15.0081 20.5001C14.9418 20.4991 14.8761 20.5114 14.8146 20.5361C14.7531 20.5608 14.6971 20.5974 14.6499 20.644C14.6028 20.6905 14.5653 20.7459 14.5397 20.8071C14.5141 20.8682 14.501 20.9338 14.501 21.0001C14.501 21.0663 14.5141 21.1319 14.5397 21.193C14.5653 21.2542 14.6028 21.3096 14.6499 21.3561C14.6971 21.4027 14.7531 21.4393 14.8146 21.464C14.8761 21.4887 14.9418 21.501 15.0081 21.5H21.6331H26.0003C26.0665 21.501 26.1323 21.4887 26.1938 21.464C26.2553 21.4393 26.3113 21.4027 26.3584 21.3561C26.4056 21.3096 26.4431 21.2542 26.4687 21.193C26.4942 21.1319 26.5074 21.0663 26.5074 21.0001C26.5074 20.9338 26.4942 20.8682 26.4687 20.8071C26.4431 20.7459 26.4056 20.6905 26.3584 20.644C26.3113 20.5974 26.2553 20.5608 26.1938 20.5361C26.1323 20.5114 26.0665 20.4991 26.0003 20.5001H21.6331H15.0081Z" fill="#F9F9F9"/>
<path fill-rule="evenodd" clip-rule="evenodd" d="M15.0081 24.5001C14.9418 24.4991 14.8761 24.5114 14.8146 24.5361C14.7531 24.5608 14.6971 24.5974 14.6499 24.644C14.6028 24.6905 14.5653 24.7459 14.5397 24.8071C14.5141 24.8682 14.501 24.9338 14.501 25.0001C14.501 25.0663 14.5141 25.1319 14.5397 25.193C14.5653 25.2542 14.6028 25.3096 14.6499 25.3561C14.6971 25.4027 14.7531 25.4393 14.8146 25.464C14.8761 25.4887 14.9418 25.501 15.0081 25.5H19.3753H22.0003C22.0665 25.501 22.1323 25.4887 22.1938 25.464C22.2553 25.4393 22.3113 25.4027 22.3584 25.3561C22.4056 25.3096 22.4431 25.2542 22.4687 25.193C22.4942 25.1319 22.5074 25.0663 22.5074 25.0001C22.5074 24.9338 22.4942 24.8682 22.4687 24.8071C22.4431 24.7459 22.4056 24.6905 22.3584 24.644C22.3113 24.5974 22.2553 24.5608 22.1938 24.5361C22.1323 24.5114 22.0665 24.4991 22.0003 24.5001H19.3753H15.0081ZM24.0003 24.5001C23.934 24.4991 23.8682 24.5114 23.8068 24.5361C23.7453 24.5608 23.6893 24.5974 23.6421 24.644C23.595 24.6905 23.5575 24.7459 23.5319 24.8071C23.5063 24.8682 23.4932 24.9338 23.4932 25.0001C23.4932 25.0663 23.5063 25.1319 23.5319 25.193C23.5575 25.2542 23.595 25.3096 23.6421 25.3561C23.6893 25.4027 23.7453 25.4393 23.8068 25.464C23.8682 25.4887 23.934 25.501 24.0003 25.5C24.0665 25.501 24.1323 25.4887 24.1938 25.464C24.2553 25.4393 24.3113 25.4027 24.3584 25.3561C24.4056 25.3096 24.4431 25.2542 24.4687 25.193C24.4942 25.1319 24.5074 25.0663 24.5074 25.0001C24.5074 24.9338 24.4942 24.8682 24.4687 24.8071C24.4431 24.7459 24.4056 24.6905 24.3584 24.644C24.3113 24.5974 24.2553 24.5608 24.1938 24.5361C24.1323 24.5114 24.0665 24.4991 24.0003 24.5001Z" fill="#F9F9F9"/>
<path fill-rule="evenodd" clip-rule="evenodd" d="M15.0081 22.5001C14.9418 22.4991 14.8761 22.5114 14.8146 22.5361C14.7531 22.5608 14.6971 22.5974 14.6499 22.644C14.6028 22.6905 14.5653 22.7459 14.5397 22.8071C14.5141 22.8682 14.501 22.9338 14.501 23.0001C14.501 23.0663 14.5141 23.1319 14.5397 23.193C14.5653 23.2542 14.6028 23.3096 14.6499 23.3561C14.6971 23.4027 14.7531 23.4393 14.8146 23.464C14.8761 23.4887 14.9418 23.501 15.0081 23.5H21.6331H26.0003C26.0665 23.501 26.1323 23.4887 26.1938 23.464C26.2553 23.4393 26.3113 23.4027 26.3584 23.3561C26.4056 23.3096 26.4431 23.2542 26.4687 23.193C26.4942 23.1319 26.5074 23.0663 26.5074 23.0001C26.5074 22.9338 26.4942 22.8682 26.4687 22.8071C26.4431 22.7459 26.4056 22.6905 26.3584 22.644C26.3113 22.5974 26.2553 22.5608 26.1938 22.5361C26.1323 22.5114 26.0665 22.4991 26.0003 22.5001H21.6331H15.0081Z" fill="#F9F9F9"/>
</svg>
