<svg width="40" height="40" viewBox="0 0 40 40" fill="none" xmlns="http://www.w3.org/2000/svg">
<circle cx="20" cy="20" r="20" fill="black"/>
<g clip-path="url(#clip0_402_1204)">
<path d="M30 31H10C9.20435 31 8.44129 30.6839 7.87868 30.1213C7.31607 29.5587 7 28.7956 7 28V12C7 11.2044 7.31607 10.4413 7.87868 9.87868C8.44129 9.31607 9.20435 9 10 9H30C30.7956 9 31.5587 9.31607 32.1213 9.87868C32.6839 10.4413 33 11.2044 33 12V28C33 28.7956 32.6839 29.5587 32.1213 30.1213C31.5587 30.6839 30.7956 31 30 31ZM10 11C9.73478 11 9.48043 11.1054 9.29289 11.2929C9.10536 11.4804 9 11.7348 9 12V28C9 28.2652 9.10536 28.5196 9.29289 28.7071C9.48043 28.8946 9.73478 29 10 29H30C30.2652 29 30.5196 28.8946 30.7071 28.7071C30.8946 28.5196 31 28.2652 31 28V12C31 11.7348 30.8946 11.4804 30.7071 11.2929C30.5196 11.1054 30.2652 11 30 11H10Z" fill="white"/>
<path d="M25 19C24.4067 19 23.8266 18.8241 23.3333 18.4944C22.8399 18.1648 22.4554 17.6962 22.2284 17.1481C22.0013 16.5999 21.9419 15.9967 22.0576 15.4147C22.1734 14.8328 22.4591 14.2982 22.8787 13.8787C23.2982 13.4591 23.8328 13.1734 24.4147 13.0576C24.9967 12.9419 25.5999 13.0013 26.1481 13.2284C26.6962 13.4554 27.1648 13.8399 27.4944 14.3333C27.8241 14.8266 28 15.4067 28 16C28 16.7957 27.6839 17.5587 27.1213 18.1213C26.5587 18.6839 25.7957 19 25 19ZM25 15C24.8022 15 24.6089 15.0587 24.4444 15.1685C24.28 15.2784 24.1518 15.4346 24.0761 15.6173C24.0004 15.8 23.9806 16.0011 24.0192 16.1951C24.0578 16.3891 24.153 16.5673 24.2929 16.7071C24.4327 16.847 24.6109 16.9422 24.8049 16.9808C24.9989 17.0194 25.2 16.9996 25.3827 16.9239C25.5654 16.8482 25.7216 16.72 25.8315 16.5556C25.9414 16.3911 26 16.1978 26 16C26 15.7348 25.8946 15.4804 25.7071 15.2929C25.5196 15.1054 25.2652 15 25 15Z" fill="white"/>
<path d="M29.9996 30.9993C29.8349 30.9985 29.6729 30.957 29.5281 30.8785C29.3833 30.8 29.2601 30.6869 29.1696 30.5493L24.8296 24.0493C24.7381 23.9132 24.6145 23.8017 24.4698 23.7246C24.325 23.6474 24.1636 23.6071 23.9996 23.6071C23.8356 23.6071 23.6741 23.6474 23.5293 23.7246C23.3846 23.8017 23.261 23.9132 23.1696 24.0493L22.8296 24.5493C22.6733 24.7434 22.4501 24.8721 22.2039 24.9102C21.9577 24.9484 21.7061 24.8933 21.4984 24.7556C21.2907 24.618 21.1419 24.4078 21.081 24.1662C21.0202 23.9245 21.0518 23.6689 21.1696 23.4493L21.4996 22.9393C21.7732 22.5268 22.1447 22.1884 22.5809 21.9543C23.0171 21.7202 23.5045 21.5977 23.9996 21.5977C24.4946 21.5977 24.982 21.7202 25.4182 21.9543C25.8544 22.1884 26.2259 22.5268 26.4996 22.9393L30.8296 29.4493C30.9743 29.6698 31.0261 29.9385 30.9736 30.197C30.9212 30.4554 30.7688 30.6827 30.5496 30.8293C30.3885 30.9421 30.1962 31.0016 29.9996 30.9993Z" fill="white"/>
<path d="M10 30.9987C9.80841 30.9983 9.62098 30.9427 9.46002 30.8387C9.23754 30.6953 9.08102 30.4694 9.02478 30.2108C8.96854 29.9521 9.01718 29.6816 9.16002 29.4587L15.39 19.8388C15.6604 19.421 16.0305 19.077 16.4669 18.8378C16.9033 18.5987 17.3924 18.4718 17.89 18.4688C18.3849 18.4686 18.8722 18.5908 19.3084 18.8246C19.7446 19.0584 20.1162 19.3965 20.39 19.8088L26.81 29.4488C26.9278 29.6683 26.9594 29.9239 26.8985 30.1656C26.8377 30.4072 26.6889 30.6174 26.4812 30.755C26.2735 30.8927 26.0219 30.9478 25.7757 30.9096C25.5294 30.8715 25.3063 30.7428 25.15 30.5487L18.72 20.9188C18.6294 20.7812 18.5063 20.6681 18.3615 20.5896C18.2167 20.5111 18.0547 20.4696 17.89 20.4687C17.7244 20.4707 17.5619 20.5137 17.417 20.594C17.2721 20.6743 17.1495 20.7893 17.06 20.9288L10.84 30.5388C10.7497 30.6796 10.6254 30.7955 10.4787 30.8758C10.3319 30.9562 10.1673 30.9985 10 30.9987Z" fill="white"/>
</g>
<defs>
<clipPath id="clip0_402_1204">
<rect width="32" height="32" fill="white" transform="translate(4 4)"/>
</clipPath>
</defs>
</svg>
